<svg width="254" height="64" viewBox="0 0 254 64" fill="none" xmlns="http://www.w3.org/2000/svg">
<path d="M24.9523 56.4281L6.35634 45.4706V28.1088L24.9583 39.264L38.0006 31.1402V24.0709L24.8984 32.2365L0.359375 17.5107V48.8974L25.0542 63.4495L51.031 47.1121V40.0248L24.9523 56.4281Z" fill="#9CA3AF"/>
<path d="M24.9415 0.550293L1.10938 15.3779L24.9415 29.4208V22.9925L11.7973 15.2461L24.9415 7.07446L45.2688 19.7214L45.2628 34.0159L24.9415 46.6628L13.8582 39.7792V46.2974L24.7018 53.0252L24.9475 53.175L50.7985 37.0952V16.648L24.9415 0.550293Z" fill="#9CA3AF"/>
<path d="M72.0469 42.565H76.5042L70.645 21.98H65.4509L59.5078 42.565H63.9291L65.1154 38.2574H70.9446L72.0469 42.565ZM68.0989 27.2041L69.98 34.4951H66.1159L68.0989 27.2041ZM86.8626 41.9838C87.3239 41.6903 87.7612 41.3009 88.1806 40.8036C88.606 40.3064 89.0493 39.6474 89.5106 38.8386L86.3953 37.0712C86.2096 37.3828 86.0179 37.6823 85.8321 37.9699C85.6524 38.2574 85.4427 38.5151 85.2151 38.7367C84.9814 38.9584 84.7238 39.1321 84.4362 39.2699C84.1547 39.4077 83.8192 39.4736 83.4357 39.4736C82.5131 39.4736 81.8541 39.1261 81.4707 38.4252C81.0453 37.6703 80.8357 36.55 80.8357 35.0762C80.8357 33.5845 81.0453 32.4702 81.4707 31.7333C81.8362 31.0383 82.4772 30.6849 83.3818 30.6849C83.7712 30.6849 84.0948 30.7448 84.3643 30.8646C84.628 30.9844 84.8676 31.1462 85.0653 31.3499C85.263 31.5536 85.4427 31.7872 85.5925 32.0688C85.7423 32.3444 85.8801 32.6379 86.0059 32.9494L89.4028 31.6195C89.0912 30.7747 88.7318 30.0858 88.3244 29.5406C87.917 28.9954 87.4317 28.5641 86.8626 28.2465C85.7782 27.6235 84.604 27.3119 83.3519 27.3119C81.3389 27.3119 79.7513 28.0129 78.5711 29.4208C77.3909 30.8227 76.8037 32.7158 76.8037 35.1062C76.8037 36.1606 76.9296 37.1551 77.1872 38.0837C77.4508 39.0123 77.8462 39.8331 78.3794 40.546C78.9126 41.2529 79.6015 41.8161 80.4403 42.2295C81.285 42.6428 82.2735 42.8465 83.4178 42.8465C84.8077 42.8465 85.9579 42.559 86.8626 41.9838Z" fill="#9CA3AF"/>
<path d="M99.1197 42.565H102.702V41.9659C102.702 41.9659 102.732 41.942 102.798 41.9C102.864 41.8521 102.882 41.7682 102.846 41.6544C102.768 41.3429 102.732 40.9415 102.732 40.4382V33.3629C102.732 31.302 102.283 29.7803 101.396 28.7918C100.504 27.8093 99.0059 27.312 96.9031 27.312C95.7109 27.312 94.6145 27.5576 93.608 28.0429C92.6015 28.5282 91.7808 29.295 91.1337 30.3255L93.8357 32.3684C94.2251 31.7813 94.6385 31.32 95.0878 30.9725C95.5371 30.631 96.1362 30.4573 96.8971 30.4573C97.3943 30.4573 97.8197 30.5771 98.1731 30.8227C98.5206 31.0624 98.7003 31.4458 98.7003 31.985V32.8357C98.245 32.8716 97.8376 32.9315 97.4842 33.0034C96.5316 33.1892 95.597 33.4228 94.6864 33.6984C93.7758 33.974 92.9191 34.4233 92.1283 35.0583C91.0259 35.975 90.4688 37.1971 90.4688 38.7308C90.4688 39.3419 90.5646 39.899 90.7683 40.3963C90.972 40.8876 91.2596 41.3189 91.631 41.6903C91.9964 42.0618 92.4338 42.3434 92.943 42.5411C93.4463 42.7448 94.0034 42.8526 94.6085 42.8526C95.4353 42.8526 96.1901 42.7448 96.8671 42.5351C97.5441 42.3194 98.2271 41.9959 98.928 41.5526L99.1197 42.565ZM98.6944 35.7413V38.3414C98.3229 38.635 97.8796 38.9345 97.3524 39.24C96.8312 39.5396 96.3159 39.6894 95.8187 39.6894C95.3933 39.6894 95.0638 39.5695 94.8362 39.3239C94.6085 39.0723 94.5007 38.7488 94.5007 38.3414C94.5007 37.8621 94.6505 37.4727 94.95 37.1732C95.2555 36.8676 95.627 36.628 96.0523 36.4423C96.4897 36.2565 96.945 36.1128 97.4183 36.0109C97.9035 35.9091 98.3289 35.8192 98.6944 35.7413Z" fill="#9CA3AF"/>
<path d="M114.493 42.565H118.004V22.01H113.942V28.5342C113.499 28.1687 112.99 27.8752 112.409 27.6535C111.827 27.4258 111.252 27.318 110.683 27.318C108.946 27.318 107.502 28.0369 106.34 29.4688C105.213 30.8946 104.656 32.644 104.656 34.7229C104.656 37.1732 105.183 39.1322 106.232 40.582C107.298 42.0917 108.79 42.8466 110.707 42.8466C111.432 42.8466 112.085 42.7088 112.672 42.4452C113.265 42.1756 113.822 41.8162 114.356 41.3608L114.493 42.565ZM113.942 31.7393V38.3773C113.571 38.7068 113.223 38.9764 112.894 39.1801C112.558 39.3778 112.139 39.4797 111.618 39.4797C111.007 39.4797 110.509 39.3419 110.126 39.0663C109.755 38.7847 109.455 38.4313 109.239 38.0059C109.018 37.5805 108.874 37.1073 108.796 36.5801C108.718 36.0528 108.682 35.5556 108.682 35.0703C108.682 34.597 108.718 34.0998 108.796 33.5846C108.874 33.0693 109.018 32.5901 109.239 32.1587C109.455 31.7274 109.755 31.3799 110.126 31.1043C110.503 30.8227 111.001 30.6849 111.618 30.6849C112.043 30.6849 112.456 30.7868 112.864 30.9965C113.271 31.2002 113.631 31.4458 113.942 31.7393Z" fill="#9CA3AF"/>
<path d="M129.849 42.1278C130.364 41.8941 130.85 41.5646 131.299 41.1513C131.748 40.7379 132.192 40.1927 132.635 39.5337L129.652 37.6525C129.244 38.1917 128.807 38.6291 128.339 38.9706C127.872 39.306 127.285 39.4738 126.59 39.4738C126.033 39.4738 125.59 39.3719 125.26 39.1742C124.925 38.9706 124.667 38.701 124.475 38.3715C124.284 38.042 124.14 37.6645 124.056 37.2392C123.972 36.8138 123.906 36.3825 123.852 35.9391H132.533V34.004C132.533 33.0275 132.359 32.1468 132.018 31.356C131.682 30.5652 131.239 29.8583 130.688 29.2292C129.538 27.9532 128.088 27.3181 126.344 27.3181C125.2 27.3181 124.218 27.5338 123.397 27.9532C122.576 28.3785 121.899 28.9477 121.366 29.6546C120.833 30.3615 120.443 31.1883 120.198 32.1289C119.946 33.0635 119.82 34.046 119.82 35.0764C119.82 36.0949 119.946 37.0654 120.198 38C120.443 38.9286 120.827 39.7554 121.342 40.4743C121.857 41.1932 122.522 41.7683 123.337 42.2057C124.146 42.637 125.116 42.8527 126.237 42.8527C127.657 42.8467 128.867 42.6071 129.849 42.1278ZM128.052 31.1823C128.459 31.6436 128.687 32.2547 128.747 33.0095H123.882C123.936 32.6621 124.014 32.3326 124.116 32.015C124.224 31.7035 124.361 31.4339 124.547 31.2003C124.733 30.9726 124.967 30.7869 125.248 30.6551C125.536 30.5233 125.889 30.4574 126.315 30.4574C127.039 30.4634 127.621 30.703 128.052 31.1823Z" fill="#9CA3AF"/>
<path d="M150.764 42.565H154.796V31.7933C154.796 31.2061 154.712 30.649 154.551 30.1158C154.395 29.5766 154.155 29.1033 153.832 28.6899C153.514 28.2706 153.113 27.9411 152.634 27.6894C152.16 27.4438 151.597 27.312 150.95 27.312C149.956 27.312 149.075 27.4678 148.302 27.7733C147.529 28.0729 146.792 28.5581 146.091 29.2231C145.684 28.5761 145.157 28.0968 144.51 27.7793C143.869 27.4678 143.168 27.312 142.413 27.312C141.622 27.312 140.915 27.4258 140.298 27.6475C139.681 27.8692 139.076 28.2226 138.489 28.7259V27.5816H134.727V42.559H138.764V32.0748C138.896 31.961 139.058 31.8292 139.262 31.6615C139.465 31.4937 139.687 31.3379 139.915 31.2002C140.142 31.0624 140.376 30.9425 140.616 30.8467C140.861 30.7388 141.077 30.6849 141.281 30.6849C141.796 30.6849 142.173 30.8227 142.407 31.1043C142.635 31.3799 142.754 31.7633 142.754 32.2546V42.559H146.786V32.0748C146.912 31.961 147.074 31.8292 147.272 31.6615C147.475 31.4937 147.697 31.3379 147.937 31.2002C148.182 31.0624 148.416 30.9425 148.65 30.8467C148.877 30.7388 149.087 30.6849 149.267 30.6849C149.782 30.6849 150.159 30.8227 150.399 31.1043C150.645 31.3799 150.764 31.7633 150.764 32.2546V42.565Z" fill="#9CA3AF"/>
<path d="M158.117 25.5507H162.095V21.7405H158.117V25.5507ZM158.117 42.5651H162.155V27.5877H158.117V42.5651Z" fill="#9CA3AF"/>
<path d="M174.387 41.9839C174.848 41.6903 175.286 41.3009 175.705 40.8037C176.13 40.3064 176.574 39.6474 177.035 38.8386L173.92 37.0713C173.734 37.3828 173.542 37.6824 173.357 37.97C173.177 38.2575 172.967 38.5151 172.739 38.7368C172.506 38.9585 172.248 39.1322 171.961 39.27C171.679 39.4078 171.344 39.4737 170.96 39.4737C170.038 39.4737 169.379 39.1262 168.995 38.4253C168.57 37.6704 168.36 36.5501 168.36 35.0763C168.36 33.5846 168.57 32.4702 168.995 31.7333C169.361 31.0384 170.002 30.6849 170.906 30.6849C171.29 30.6849 171.619 30.7448 171.889 30.8647C172.158 30.9845 172.392 31.1462 172.59 31.3499C172.787 31.5536 172.961 31.7873 173.117 32.0688C173.267 32.3444 173.404 32.638 173.53 32.9495L176.927 31.6195C176.616 30.7748 176.256 30.0858 175.849 29.5407C175.441 28.9955 174.956 28.5641 174.387 28.2466C173.303 27.6235 172.128 27.312 170.876 27.312C168.863 27.312 167.27 28.013 166.095 29.4208C164.915 30.8227 164.328 32.7159 164.328 35.1063C164.328 36.1607 164.454 37.1552 164.712 38.0838C164.975 39.0124 165.371 39.8331 165.898 40.5461C166.431 41.253 167.12 41.8162 167.959 42.2295C168.803 42.6429 169.792 42.8466 170.936 42.8466C172.332 42.8466 173.482 42.559 174.387 41.9839Z" fill="#9CA3AF"/>
<path d="M199.862 42.5647H203.259V31.8768H195.16V35.6871H198.952C198.856 36.5917 198.508 37.3466 197.903 37.9517C197.202 38.6766 196.28 39.0361 195.13 39.0361C194.309 39.0361 193.626 38.8144 193.099 38.3711C192.577 37.9277 192.17 37.3766 191.882 36.7116C191.601 36.0466 191.409 35.3336 191.301 34.5668C191.199 33.7999 191.152 33.105 191.152 32.4819C191.152 31.8768 191.193 31.1759 191.271 30.3731C191.355 29.5703 191.541 28.8095 191.817 28.0906C192.098 27.3656 192.494 26.7606 192.997 26.2753C193.5 25.79 194.177 25.5444 195.028 25.5444C196.094 25.5444 196.903 25.79 197.442 26.2753C197.987 26.7606 198.467 27.4795 198.892 28.4201L202.984 27.3417C202.612 26.2393 202.181 25.3347 201.684 24.6338C201.18 23.9268 200.593 23.3697 199.916 22.9503C198.574 22.1415 197.131 21.7341 195.585 21.7341C193.943 21.7341 192.553 22.0337 191.421 22.6328C190.289 23.2319 189.378 24.0347 188.689 25.0411C188 26.0416 187.503 27.1979 187.204 28.5159C186.898 29.8339 186.742 31.2178 186.742 32.6796C186.742 34.0036 186.892 35.2797 187.204 36.5079C187.509 37.73 187.994 38.8144 188.653 39.755C189.312 40.6896 190.169 41.4384 191.217 42.0016C192.272 42.5647 193.542 42.8463 195.04 42.8463C196.034 42.8463 196.903 42.7025 197.664 42.4269C198.419 42.1514 199.155 41.6661 199.874 40.9651V42.5647H199.862Z" fill="#9CA3AF"/>
<path d="M213.487 42.565H217.07V41.9659C217.07 41.9659 217.099 41.942 217.165 41.9C217.231 41.8521 217.249 41.7682 217.213 41.6544C217.135 41.3429 217.099 40.9415 217.099 40.4382V33.3629C217.099 31.302 216.65 29.7803 215.763 28.7918C214.871 27.8093 213.373 27.312 211.27 27.312C210.078 27.312 208.982 27.5576 207.975 28.0429C206.969 28.5282 206.148 29.295 205.501 30.3255L208.209 32.3684C208.592 31.7813 209.012 31.32 209.461 30.9725C209.91 30.631 210.509 30.4573 211.27 30.4573C211.767 30.4573 212.193 30.5771 212.546 30.8227C212.894 31.0624 213.068 31.4458 213.068 31.985V32.8357C212.612 32.8716 212.205 32.9315 211.851 33.0034C210.899 33.1892 209.964 33.4228 209.054 33.6984C208.143 33.974 207.286 34.4233 206.495 35.0583C205.393 35.975 204.836 37.1971 204.836 38.7308C204.836 39.3419 204.932 39.899 205.135 40.3963C205.339 40.8876 205.627 41.3189 205.998 41.6903C206.364 42.0618 206.801 42.3434 207.31 42.5411C207.813 42.7448 208.371 42.8526 208.976 42.8526C209.802 42.8526 210.557 42.7448 211.234 42.5351C211.911 42.3194 212.594 41.9959 213.295 41.5526L213.487 42.565ZM213.068 35.7413V38.3414C212.696 38.635 212.253 38.9345 211.732 39.24C211.204 39.5396 210.695 39.6894 210.198 39.6894C209.772 39.6894 209.443 39.5695 209.215 39.3239C208.988 39.0723 208.88 38.7488 208.88 38.3414C208.88 37.8621 209.03 37.4727 209.329 37.1732C209.635 36.8676 210.006 36.628 210.432 36.4423C210.869 36.2565 211.324 36.1128 211.797 36.0109C212.271 35.9091 212.696 35.8192 213.068 35.7413Z" fill="#9CA3AF"/>
<path d="M225.899 42.7927C226.103 42.7747 226.318 42.7508 226.534 42.7148C226.75 42.6909 227.019 42.6429 227.337 42.565V39.1083L226.336 39.3599C226.043 39.4378 225.737 39.4737 225.432 39.4737C225.156 39.4737 224.934 39.4378 224.767 39.3599C224.599 39.288 224.515 39.0903 224.515 38.7788V30.9665H227.343V27.5876H224.515V22.8428H220.483V27.5876H218.5V30.9665H220.483V39.282C220.483 40.4982 220.825 41.3968 221.501 41.9779C222.184 42.5591 223.113 42.8466 224.275 42.8466C224.605 42.8466 224.904 42.8406 225.186 42.8287C225.456 42.8227 225.695 42.8107 225.899 42.7927Z" fill="#9CA3AF"/>
<path d="M238.068 42.1278C238.583 41.8941 239.068 41.5646 239.518 41.1513C239.967 40.7379 240.41 40.1927 240.854 39.5337L237.87 37.6525C237.463 38.1917 237.026 38.6291 236.558 38.9706C236.091 39.306 235.504 39.4738 234.809 39.4738C234.252 39.4738 233.808 39.3719 233.479 39.1742C233.149 38.9706 232.886 38.701 232.694 38.3715C232.502 38.042 232.359 37.6645 232.275 37.2392C232.191 36.8138 232.125 36.3825 232.071 35.9391H240.746V34.004C240.746 33.0275 240.572 32.1468 240.231 31.356C239.895 30.5652 239.452 29.8583 238.901 29.2292C237.75 27.9532 236.301 27.3181 234.557 27.3181C233.413 27.3181 232.43 27.5338 231.61 27.9532C230.789 28.3785 230.112 28.9477 229.579 29.6546C229.046 30.3615 228.656 31.1883 228.41 32.1289C228.159 33.0635 228.039 34.046 228.039 35.0764C228.039 36.0949 228.165 37.0654 228.41 38C228.656 38.9286 229.04 39.7554 229.555 40.4743C230.07 41.1932 230.735 41.7683 231.55 42.2057C232.359 42.637 233.329 42.8527 234.449 42.8527C235.875 42.8467 237.085 42.6071 238.068 42.1278ZM236.271 31.1823C236.678 31.6436 236.906 32.2547 236.966 33.0095H232.095C232.149 32.6621 232.227 32.3326 232.329 32.015C232.43 31.7035 232.574 31.4339 232.76 31.2003C232.946 30.9726 233.179 30.7869 233.461 30.6551C233.748 30.5233 234.102 30.4574 234.527 30.4574C235.264 30.4634 235.839 30.703 236.271 31.1823Z" fill="#9CA3AF"/>
<path d="M251.574 41.6604C252.629 40.8336 253.156 39.7672 253.156 38.4612C253.156 37.1851 252.815 36.1307 252.138 35.28C251.784 34.8726 251.377 34.5431 250.927 34.2855C250.478 34.0279 250.005 33.8182 249.514 33.6385C249.028 33.4587 248.531 33.285 248.034 33.1232C247.543 32.9555 247.063 32.7458 246.602 32.4882C246.159 32.2306 245.937 31.931 245.937 31.5776C245.937 31.1163 246.111 30.8167 246.464 30.6789C246.812 30.5351 247.183 30.4632 247.566 30.4632C248.1 30.4632 248.597 30.643 249.046 31.0084C249.502 31.3739 249.891 31.7453 250.226 32.1347L252.851 29.8402C252.06 28.9535 251.233 28.3125 250.388 27.9231C249.543 27.5277 248.537 27.324 247.357 27.324C246.692 27.324 246.057 27.4198 245.44 27.6115C244.823 27.8033 244.283 28.0908 243.822 28.4742C243.361 28.8517 242.989 29.313 242.72 29.8701C242.444 30.4213 242.306 31.0564 242.306 31.7693C242.306 33.2071 242.756 34.2675 243.654 34.9505C244.541 35.5915 245.506 36.1067 246.554 36.4962C247.129 36.7178 247.614 36.9095 248.004 37.0773C248.399 37.245 248.711 37.3948 248.932 37.5146C249.298 37.7183 249.484 38.0179 249.484 38.4073C249.484 38.6469 249.43 38.8446 249.316 39.0124C249.208 39.1741 249.07 39.3119 248.896 39.4138C248.723 39.5156 248.525 39.5875 248.315 39.6294C248.106 39.6714 247.896 39.6953 247.686 39.6953C247.333 39.6953 247.003 39.6354 246.692 39.5096C246.38 39.3778 246.087 39.2101 245.823 38.9944C245.554 38.7847 245.302 38.5511 245.074 38.2934C244.841 38.0358 244.649 37.7662 244.487 37.4907L241.695 39.5995C242.169 40.2645 242.63 40.8037 243.079 41.217C243.535 41.6304 244.02 41.9539 244.541 42.1936C245.536 42.6369 246.566 42.8586 247.632 42.8586C249.244 42.8466 250.562 42.4512 251.574 41.6604Z" fill="#9CA3AF"/>
</svg>
