<svg width="282" height="44" viewBox="0 0 282 44" fill="none" xmlns="http://www.w3.org/2000/svg">
<mask id="mask0_1098_55655" style="mask-type:luminance" maskUnits="userSpaceOnUse" x="0" y="6" width="74" height="38">
<path d="M0.742188 6.92603H73.9072V43.7307H0.742188V6.92603Z" fill="white"/>
</mask>
<g mask="url(#mask0_1098_55655)">
<path fill-rule="evenodd" clip-rule="evenodd" d="M0.742188 43.6981L35.0992 6.96118L73.9072 43.6981L26.2761 31.0487L58.3809 35.1732L35.0992 19.7836L0.742188 43.6981Z" fill="#9CA3AF"/>
</g>
<mask id="mask1_1098_55655" style="mask-type:luminance" maskUnits="userSpaceOnUse" x="126" y="8" width="25" height="35">
<path d="M126.195 8.60718H150.986V42.1268H126.195V8.60718Z" fill="white"/>
</mask>
<g mask="url(#mask1_1098_55655)">
<path d="M127.961 9.23645C127.807 9.12889 127.624 9.06576 127.413 9.04706C127.202 9.02599 127.003 9.05406 126.814 9.13123C126.628 9.20605 126.49 9.31594 126.402 9.45623C126.313 9.59886 126.291 9.74616 126.332 9.89814L130.761 25.5707L126.332 41.2433C126.291 41.3953 126.314 41.5426 126.402 41.6829C126.49 41.8255 126.628 41.933 126.814 42.0102C127.003 42.085 127.202 42.1131 127.413 42.0944C127.624 42.0733 127.807 42.0102 127.961 41.905L150.776 26.0874C150.871 26.0196 150.946 25.9401 151 25.8513C151.054 25.7625 151.079 25.6666 151.079 25.5707C151.079 25.4725 151.054 25.379 151 25.2878C150.946 25.199 150.871 25.1195 150.776 25.0517L127.961 9.23645Z" fill="#9CA3AF"/>
</g>
<path d="M213.094 31.012C213.094 33.0018 211.179 34.4234 208.883 34.4234C206.583 34.4234 204.668 33.0018 204.668 31.012C204.668 29.0223 206.583 27.6007 208.883 27.6007C211.179 27.6007 213.094 29.0223 213.094 31.012ZM223.817 31.012C223.817 25.1854 217.69 20.6377 208.883 20.6377C200.072 20.6377 193.945 25.1854 193.945 31.012C193.945 36.8387 200.072 41.3864 208.883 41.3864C217.69 41.3864 223.817 36.8387 223.817 31.012Z" fill="#9CA3AF"/>
<path d="M244.109 40.9606H255.213V21.063H245.259V29.8755L238.748 21.063H227.641V40.9606H237.598V32.1481L244.109 40.9606Z" fill="#9CA3AF"/>
<path d="M269.777 33.8552H279.735V28.1689H269.777V26.7496H280.5V21.0632H259.82V40.9608H281.266V35.2768H269.777V33.8552Z" fill="#9CA3AF"/>
<mask id="mask2_1098_55655" style="mask-type:luminance" maskUnits="userSpaceOnUse" x="139" y="5" width="13" height="9">
<path d="M139.297 5.61426H151.393V13.9942H139.297V5.61426Z" fill="white"/>
</mask>
<g mask="url(#mask2_1098_55655)">
<mask id="mask3_1098_55655" style="mask-type:luminance" maskUnits="userSpaceOnUse" x="140" y="6" width="11" height="8">
<path d="M140.07 9.61741L144.632 6.02368L150.793 10.3352L146.229 13.9266L140.07 9.61741Z" fill="white"/>
</mask>
<g mask="url(#mask3_1098_55655)">
<path d="M140.07 9.61727L144.632 6.02588L150.79 10.3351L146.232 13.9265L140.07 9.61727Z" fill="#9CA3AF"/>
</g>
</g>
<mask id="mask4_1098_55655" style="mask-type:luminance" maskUnits="userSpaceOnUse" x="133" y="5" width="11" height="8">
<path d="M133.656 5.01562H143.333V12.797H133.656V5.01562Z" fill="white"/>
</mask>
<g mask="url(#mask4_1098_55655)">
<mask id="mask5_1098_55655" style="mask-type:luminance" maskUnits="userSpaceOnUse" x="133" y="5" width="11" height="8">
<path d="M133.727 9.74584L139.712 5.30103L143.132 7.84025L137.147 12.2851L133.727 9.74584Z" fill="white"/>
</mask>
<g mask="url(#mask5_1098_55655)">
<path d="M133.727 9.74584L139.712 5.30103L143.132 7.84025L137.147 12.2851L133.727 9.74584Z" fill="#9CA3AF"/>
</g>
</g>
<mask id="mask6_1098_55655" style="mask-type:luminance" maskUnits="userSpaceOnUse" x="131" y="0" width="10" height="7">
<path d="M131.242 0.227295H140.919V6.81151H131.242V0.227295Z" fill="white"/>
</mask>
<g mask="url(#mask6_1098_55655)">
<mask id="mask7_1098_55655" style="mask-type:luminance" maskUnits="userSpaceOnUse" x="132" y="0" width="9" height="7">
<path d="M132.016 2.84354L135.333 0.229492L140.174 3.61746L136.857 6.22917L132.016 2.84354Z" fill="white"/>
</mask>
<g mask="url(#mask7_1098_55655)">
<path d="M132.016 2.84364L135.333 0.231934L140.174 3.61757L136.857 6.22927L132.016 2.84364Z" fill="#9CA3AF"/>
</g>
</g>
<mask id="mask8_1098_55655" style="mask-type:luminance" maskUnits="userSpaceOnUse" x="123" y="0" width="8" height="6">
<path d="M123.984 0.227295H130.436V5.01581H123.984V0.227295Z" fill="white"/>
</mask>
<g mask="url(#mask8_1098_55655)">
<mask id="mask9_1098_55655" style="mask-type:luminance" maskUnits="userSpaceOnUse" x="124" y="0" width="6" height="5">
<path d="M124.391 2.03437L126.463 0.402344L129.982 2.86441L127.909 4.49643L124.391 2.03437Z" fill="white"/>
</mask>
<g mask="url(#mask9_1098_55655)">
<path d="M124.391 2.03437L126.463 0.402344L129.982 2.86441L127.909 4.49643L124.391 2.03437Z" fill="#9CA3AF"/>
</g>
</g>
<path d="M86.6274 21.0776H76.6797V40.9589H96.9594V34.4261H86.6274V21.0776Z" fill="#9CA3AF"/>
<path d="M109.963 21.0776H100.016V40.9589H120.295V34.4261H109.963V21.0776Z" fill="#9CA3AF"/>
<path d="M167.344 18.9091L175.735 24.7334L199.26 6.04695L183.653 5.97314L167.344 18.9091Z" fill="#9CA3AF"/>
<path d="M143.098 16.1104L150.882 9.83716L198.976 42.7255L181.953 42.719L164.444 30.6259L148.173 42.7255L132.016 42.6933L156.045 24.9321L143.098 16.1104Z" fill="#9CA3AF"/>
</svg>
