<svg width="569" height="441" viewBox="0 0 569 441" fill="none" xmlns="http://www.w3.org/2000/svg">
<path d="M83.5027 440.328C83.9996 440.328 84.4964 440.356 85.0209 440.328C85.2418 440.328 85.4902 440.328 85.711 440.301C85.8214 440.301 85.9043 440.301 86.0147 440.301C86.1803 440.301 86.3735 440.301 86.5392 440.301C87.036 440.273 87.5605 440.246 88.085 440.218C88.6095 440.19 89.1339 440.135 89.6584 440.08C89.686 440.08 89.686 440.08 89.7136 440.08C89.7412 440.08 89.7412 440.08 89.7688 440.08C90.2657 440.025 90.7626 439.97 91.2595 439.914C91.8116 439.832 92.3636 439.749 92.9157 439.666C93.109 439.638 93.3022 439.583 93.4954 439.556C93.6058 439.528 93.7163 439.528 93.8543 439.5C94.1027 439.445 94.3512 439.417 94.572 439.362C95.1241 439.252 95.6762 439.141 96.2558 439.031C96.6699 438.948 97.084 438.838 97.4704 438.755C97.5532 438.727 97.6084 438.727 97.6913 438.7C97.7741 438.672 97.8293 438.672 97.9121 438.645C98.4642 438.507 99.0163 438.369 99.5407 438.231C100.093 438.092 100.617 437.927 101.169 437.761C101.28 437.734 101.363 437.706 101.473 437.678C101.556 437.651 101.639 437.623 101.721 437.596C102.053 437.485 102.412 437.402 102.743 437.292C103.267 437.126 103.764 436.961 104.289 436.768C104.648 436.629 105.034 436.491 105.393 436.353C105.448 436.326 105.531 436.298 105.586 436.271C105.669 436.243 105.724 436.215 105.807 436.188C106.331 435.995 106.828 435.801 107.353 435.58C107.905 435.36 108.485 435.111 109.037 434.89C109.119 434.863 109.202 434.808 109.285 434.78C109.395 434.725 109.506 434.67 109.616 434.642C110.058 434.449 110.5 434.256 110.969 434.035C111.521 433.786 112.073 433.51 112.625 433.234C112.901 433.096 113.177 432.958 113.481 432.82C113.591 432.765 113.702 432.71 113.812 432.654C114.281 432.406 114.751 432.13 115.22 431.882C115.91 431.495 116.6 431.136 117.29 430.75C117.401 430.695 117.511 430.639 117.622 430.557C118.615 429.977 119.581 429.37 120.52 428.762C121.155 428.348 121.79 427.906 122.425 427.492C122.922 427.134 123.418 426.775 123.915 426.416L123.943 426.388C123.943 426.388 123.943 426.388 123.97 426.361C124.467 426.002 124.964 425.615 125.434 425.229C125.903 424.842 126.372 424.484 126.841 424.097C126.924 424.042 126.979 423.959 127.062 423.904C127.145 423.849 127.228 423.766 127.283 423.711C127.614 423.435 127.918 423.186 128.222 422.91C128.691 422.496 129.132 422.082 129.602 421.668C129.74 421.53 129.878 421.419 130.016 421.281C130.126 421.171 130.209 421.088 130.319 420.978C130.54 420.785 130.734 420.564 130.954 420.371C131.396 419.929 131.81 419.487 132.252 419.046C132.445 418.852 132.611 418.659 132.776 418.466C132.859 418.355 132.969 418.273 133.052 418.162C133.19 418.024 133.328 417.859 133.439 417.721C133.825 417.279 134.184 416.865 134.571 416.423C134.819 416.092 135.095 415.788 135.343 415.457C135.399 415.402 135.426 415.347 135.481 415.291C135.537 415.236 135.564 415.181 135.619 415.126C135.951 414.712 136.254 414.27 136.558 413.856C136.862 413.442 137.165 413 137.441 412.586C137.497 412.476 137.579 412.393 137.635 412.282C137.855 411.951 138.049 411.648 138.242 411.316C138.49 410.902 138.739 410.488 138.96 410.074C139.125 409.798 139.263 409.55 139.401 409.274C139.429 409.218 139.484 409.136 139.512 409.08C139.567 408.998 139.594 408.915 139.65 408.859C139.871 408.445 140.064 408.059 140.257 407.645C140.45 407.231 140.616 406.817 140.809 406.43C140.837 406.348 140.864 406.292 140.892 406.209C140.919 406.154 140.947 406.099 140.975 406.016C141.085 405.74 141.196 405.464 141.306 405.188C141.472 404.774 141.61 404.332 141.72 403.918C141.775 403.725 141.83 403.504 141.886 403.311C141.913 403.228 141.941 403.145 141.968 403.063C141.996 402.925 142.051 402.814 142.079 402.676C142.189 402.234 142.3 401.765 142.382 401.324C142.438 401.047 142.465 400.771 142.521 400.495C142.548 400.413 142.548 400.302 142.576 400.219C142.603 400.137 142.603 400.026 142.631 399.943C142.686 399.446 142.741 398.977 142.769 398.48C142.769 398.259 142.769 398.066 142.769 397.845C142.769 397.68 142.769 397.514 142.769 397.348C142.769 397.183 142.769 397.017 142.769 396.852C142.741 396.244 142.686 395.637 142.603 395.057V395.03C142.576 394.892 142.548 394.781 142.521 394.643C142.41 394.036 142.3 393.429 142.134 392.877C142.134 392.821 142.106 392.794 142.079 392.739C141.83 391.883 141.499 391.082 141.113 390.282L123.087 354.921C123.474 355.694 123.805 356.522 124.053 357.377C124.247 358.012 124.385 358.647 124.495 359.282C124.523 359.42 124.55 359.531 124.578 359.669C124.688 360.414 124.743 361.214 124.743 362.015C124.743 362.181 124.743 362.346 124.743 362.512C124.743 363.285 124.688 364.058 124.578 364.858C124.578 364.941 124.55 365.051 124.523 365.134C124.385 365.962 124.219 366.818 123.97 367.701C123.943 367.784 123.915 367.867 123.888 367.95C123.639 368.833 123.336 369.744 122.977 370.655C122.949 370.71 122.922 370.766 122.894 370.848C122.507 371.787 122.066 372.753 121.541 373.747C121.514 373.802 121.458 373.885 121.431 373.94C120.906 374.934 120.327 375.928 119.664 376.921C119.002 377.943 118.284 378.936 117.511 379.93C117.456 379.985 117.428 380.041 117.373 380.096C116.655 381.007 115.882 381.918 115.082 382.801C114.999 382.911 114.916 382.994 114.806 383.105C114.033 383.96 113.205 384.789 112.349 385.617C112.239 385.727 112.156 385.81 112.045 385.92C111.162 386.748 110.251 387.577 109.313 388.349C109.23 388.405 109.175 388.488 109.092 388.543C108.07 389.398 107.021 390.199 105.973 391L105.945 391.027C104.841 391.855 103.709 392.628 102.55 393.401C101.501 394.091 100.396 394.754 99.3199 395.389C98.6298 395.775 97.9397 396.162 97.2496 396.52C96.6699 396.824 96.0902 397.155 95.5105 397.459C95.2345 397.597 94.9584 397.735 94.6548 397.873C93.661 398.37 92.6673 398.839 91.6735 399.281C91.5631 399.336 91.4527 399.391 91.3423 399.419C90.1277 399.943 88.8855 400.44 87.6433 400.909C87.5881 400.937 87.5053 400.965 87.4501 400.992C86.2355 401.434 85.0209 401.848 83.7787 402.234C83.6959 402.262 83.6131 402.29 83.5303 402.317C82.2605 402.704 81.0183 403.035 79.7485 403.366C79.6657 403.394 79.6105 403.394 79.5277 403.421C78.3131 403.697 77.0985 403.974 75.9115 404.167C75.8011 404.194 75.6907 404.194 75.5803 404.222C74.3381 404.443 73.0959 404.608 71.8537 404.746C71.8261 404.746 71.8261 404.746 71.7985 404.746C70.5563 404.884 69.3417 404.94 68.0995 404.995C67.9891 404.995 67.9063 404.995 67.7959 404.995C66.5813 405.022 65.3667 404.995 64.1797 404.94C62.9927 404.884 61.861 404.746 60.7844 404.581C60.674 404.553 60.5912 404.553 60.4808 404.526C59.487 404.36 58.5209 404.167 57.6099 403.946C57.4995 403.918 57.3615 403.891 57.2511 403.863C56.3677 403.615 55.512 403.366 54.7115 403.063C54.5459 403.007 54.4078 402.952 54.2698 402.897C53.5245 402.593 52.7792 402.262 52.0891 401.903C52.0063 401.876 51.9235 401.82 51.8406 401.793C51.0677 401.379 50.3224 400.909 49.6323 400.413C49.5495 400.357 49.4667 400.275 49.3839 400.192C48.8318 399.778 48.3349 399.364 47.8656 398.894C47.7 398.729 47.5344 398.563 47.3688 398.397C46.9823 398.011 46.6234 397.597 46.2922 397.183C46.1542 397.017 46.0161 396.824 45.8781 396.658C45.4641 396.051 45.05 395.444 44.7188 394.809L62.7443 430.17C63.0756 430.833 63.462 431.44 63.9037 432.047C64.0417 432.24 64.1797 432.406 64.3177 432.572C64.649 432.986 65.0079 433.4 65.3943 433.814C65.5599 433.979 65.7256 434.145 65.8912 434.311C66.3605 434.752 66.8849 435.194 67.4094 435.608C67.4922 435.663 67.5751 435.746 67.6579 435.829C67.6855 435.857 67.6855 435.857 67.7131 435.884C68.348 436.353 69.0381 436.768 69.7834 437.182C69.811 437.182 69.8386 437.209 69.8662 437.209C69.949 437.237 70.0318 437.292 70.087 437.32C70.5563 437.568 71.0256 437.789 71.5225 438.01C71.7709 438.12 72.0193 438.203 72.2678 438.313C72.4058 438.369 72.5714 438.424 72.7094 438.479C72.8475 438.534 72.9855 438.589 73.1235 438.645C73.6204 438.838 74.1449 439.003 74.6969 439.141C74.8902 439.197 75.0834 439.252 75.2766 439.279C75.387 439.307 75.5251 439.335 75.6355 439.362C75.8287 439.417 75.9943 439.473 76.1876 439.5C76.6568 439.611 77.1537 439.721 77.6506 439.804C77.9266 439.859 78.2027 439.887 78.5063 439.942C78.6167 439.97 78.6996 439.97 78.81 439.997C78.9204 440.025 79.0308 440.025 79.1688 440.052C79.6381 440.108 80.135 440.163 80.6318 440.218C81.1287 440.273 81.6256 440.301 82.1225 440.328C82.1501 440.328 82.1777 440.328 82.2053 440.328C82.5641 440.301 83.0334 440.328 83.5027 440.328Z" fill="url(#paint0_linear_1274_52193)"/>
<path d="M119.583 376.894C108.68 393.511 83.836 406.044 64.0713 404.912C44.3343 403.753 37.1296 389.371 48.0333 372.753C58.9093 356.163 83.7531 343.603 103.518 344.762C123.282 345.894 130.46 360.303 119.583 376.894Z" fill="url(#paint1_linear_1274_52193)"/>
<path d="M69.3959 394.726C69.81 394.726 70.1964 394.726 70.6105 394.726C70.8037 394.726 70.9693 394.726 71.1626 394.726C71.2454 394.726 71.3282 394.726 71.411 394.726C71.549 394.726 71.687 394.726 71.8251 394.726C72.2391 394.698 72.6532 394.698 73.0673 394.671C73.4813 394.643 73.923 394.616 74.3371 394.56H74.3647H74.3923C74.7787 394.533 75.1928 394.478 75.5792 394.422C76.0209 394.367 76.4626 394.312 76.9042 394.229C77.0699 394.202 77.2079 394.174 77.3735 394.146C77.4563 394.119 77.5667 394.119 77.6496 394.091C77.8428 394.064 78.036 394.036 78.2292 393.981C78.6709 393.898 79.1402 393.815 79.5819 393.705C79.9131 393.622 80.2444 393.567 80.5756 393.484C80.6308 393.484 80.686 393.456 80.7412 393.456C80.7964 393.429 80.8517 393.429 80.9069 393.401C81.3485 393.291 81.7902 393.18 82.2319 393.07C82.6735 392.959 83.0876 392.821 83.5293 392.711C83.6121 392.683 83.6949 392.656 83.7777 392.628C83.8329 392.601 83.9157 392.6 83.9709 392.573C84.247 392.49 84.523 392.407 84.7991 392.324C85.2131 392.186 85.6272 392.048 86.0412 391.91C86.3449 391.8 86.6209 391.69 86.9246 391.579C86.9798 391.552 87.035 391.552 87.0902 391.524C87.1454 391.496 87.2006 391.469 87.2558 391.469C87.6699 391.303 88.084 391.137 88.498 390.972C88.9397 390.779 89.409 390.613 89.8506 390.42C89.9058 390.392 89.9887 390.365 90.0439 390.337C90.1267 390.309 90.2095 390.254 90.2923 390.227C90.6512 390.061 91.01 389.923 91.3689 389.757C91.8105 389.536 92.2522 389.316 92.6939 389.095C92.9147 388.984 93.1355 388.874 93.384 388.764C93.4668 388.708 93.5496 388.681 93.66 388.625C94.0465 388.432 94.4053 388.211 94.7918 387.991C95.3439 387.687 95.896 387.383 96.448 387.08C96.5308 387.024 96.6137 386.997 96.7241 386.942C97.5246 386.472 98.2975 386.003 99.0704 385.479C99.5949 385.147 100.092 384.789 100.589 384.457C101.003 384.181 101.389 383.878 101.803 383.601C101.803 383.601 101.831 383.601 101.831 383.574C101.831 383.574 101.831 383.574 101.858 383.574C102.245 383.27 102.659 382.967 103.045 382.663C103.432 382.359 103.818 382.056 104.177 381.752C104.232 381.697 104.288 381.642 104.37 381.586C104.426 381.531 104.508 381.476 104.564 381.421C104.812 381.2 105.088 380.979 105.337 380.786C105.695 380.455 106.082 380.123 106.441 379.792C106.551 379.682 106.662 379.571 106.772 379.488C106.855 379.406 106.938 379.323 107.02 379.24C107.186 379.074 107.352 378.909 107.545 378.743C107.904 378.384 108.235 378.053 108.566 377.694C108.704 377.529 108.842 377.391 109.008 377.225C109.091 377.142 109.146 377.059 109.229 376.976C109.339 376.866 109.45 376.756 109.56 376.618C109.864 376.259 110.167 375.927 110.471 375.569C110.692 375.32 110.885 375.044 111.078 374.796C111.106 374.741 111.161 374.713 111.189 374.658C111.216 374.603 111.272 374.575 111.299 374.52C111.548 374.188 111.824 373.83 112.072 373.498C112.32 373.167 112.541 372.808 112.79 372.477C112.845 372.394 112.9 372.311 112.955 372.229C113.121 371.98 113.287 371.704 113.452 371.456C113.645 371.124 113.839 370.793 114.032 370.462C114.142 370.241 114.253 370.048 114.391 369.827C114.418 369.772 114.446 369.717 114.474 369.661C114.501 369.606 114.556 369.523 114.584 369.468C114.75 369.137 114.915 368.806 115.053 368.502C115.219 368.171 115.357 367.839 115.495 367.508C115.523 367.453 115.55 367.398 115.55 367.343C115.578 367.287 115.578 367.232 115.605 367.205C115.688 366.984 115.771 366.763 115.854 366.542C115.992 366.211 116.102 365.852 116.185 365.521C116.24 365.355 116.268 365.189 116.323 365.024C116.351 364.941 116.351 364.886 116.378 364.803C116.406 364.693 116.434 364.582 116.461 364.499C116.544 364.14 116.627 363.782 116.71 363.423C116.765 363.202 116.792 362.981 116.82 362.76C116.82 362.677 116.848 362.622 116.848 362.539C116.848 362.457 116.875 362.401 116.875 362.319C116.93 361.932 116.958 361.546 116.986 361.159C116.986 360.994 116.986 360.828 116.986 360.662C116.986 360.524 116.986 360.414 116.986 360.276C116.986 360.138 116.986 360 116.986 359.862C116.958 359.365 116.93 358.896 116.848 358.399V358.371C116.82 358.261 116.792 358.15 116.792 358.067C116.71 357.571 116.627 357.101 116.489 356.632C116.489 356.604 116.461 356.549 116.433 356.522C116.24 355.832 115.964 355.197 115.661 354.562L104.978 332.009C105.309 332.644 105.557 333.306 105.751 333.969C105.889 334.466 106.027 334.99 106.11 335.515C106.137 335.625 106.165 335.708 106.165 335.818C106.248 336.426 106.303 337.061 106.303 337.696C106.303 337.834 106.303 337.944 106.303 338.082C106.303 338.689 106.248 339.324 106.165 339.987C106.165 340.069 106.137 340.125 106.137 340.208C106.027 340.87 105.889 341.56 105.695 342.25C105.668 342.333 105.668 342.388 105.64 342.471C105.447 343.189 105.199 343.906 104.895 344.624C104.867 344.679 104.867 344.735 104.84 344.762C104.536 345.535 104.177 346.308 103.763 347.081C103.736 347.136 103.708 347.191 103.68 347.247C103.266 348.047 102.797 348.848 102.245 349.648C101.72 350.476 101.141 351.277 100.506 352.05C100.478 352.105 100.423 352.133 100.395 352.188C99.8158 352.933 99.2085 353.651 98.546 354.369C98.4632 354.451 98.4079 354.534 98.3251 354.617C97.6902 355.307 97.0277 355.97 96.3376 356.632C96.2548 356.715 96.172 356.798 96.0892 356.853C95.3715 357.515 94.6538 358.178 93.9085 358.813C93.8532 358.868 93.798 358.923 93.7152 358.978C92.9147 359.669 92.059 360.331 91.2032 360.966C91.2032 360.966 91.1756 360.966 91.1756 360.994C90.2923 361.656 89.3814 362.291 88.4428 362.898C87.5871 363.45 86.7313 363.975 85.848 364.499C85.2959 364.831 84.7438 365.107 84.1918 365.41C83.7225 365.659 83.2808 365.935 82.7839 366.156C82.5631 366.266 82.3423 366.376 82.0938 366.487C81.2933 366.873 80.4928 367.26 79.6923 367.619C79.6095 367.646 79.5267 367.701 79.4162 367.729C78.4225 368.143 77.4563 368.557 76.435 368.916C76.3798 368.944 76.3246 368.944 76.2693 368.971C75.3032 369.33 74.3095 369.661 73.3157 369.965C73.2605 369.993 73.1777 369.993 73.1225 370.02C72.1011 370.324 71.1074 370.6 70.086 370.848C70.0308 370.876 69.9756 370.876 69.9204 370.903C68.9542 371.124 67.9881 371.345 66.9943 371.511C66.9115 371.538 66.8011 371.538 66.7183 371.566C65.7245 371.732 64.7308 371.87 63.737 371.98C63.7094 371.98 63.7094 371.98 63.6818 371.98C62.6881 372.09 61.6943 372.146 60.7282 372.173C60.6454 372.173 60.5625 372.173 60.4797 372.173C59.5136 372.201 58.5474 372.173 57.5813 372.118C56.6427 372.063 55.7318 371.952 54.8485 371.842C54.7657 371.842 54.6828 371.814 54.6 371.814C53.7995 371.676 53.0266 371.538 52.2813 371.345C52.1709 371.318 52.088 371.29 51.9776 371.262C51.2599 371.069 50.5698 370.848 49.9349 370.6C49.8245 370.545 49.6865 370.517 49.5761 370.462C48.9688 370.213 48.3891 369.965 47.837 369.661C47.7818 369.634 47.699 369.606 47.6438 369.579C47.0089 369.247 46.4292 368.861 45.8771 368.474C45.7943 368.419 45.7391 368.364 45.6563 368.309C45.2146 367.977 44.8005 367.646 44.4417 367.26C44.3037 367.122 44.1656 366.984 44.0276 366.846C43.724 366.542 43.4479 366.211 43.1719 365.852C43.0615 365.714 42.951 365.576 42.8406 365.438C42.5094 364.969 42.1781 364.472 41.9297 363.947L52.6125 386.5C52.8886 387.024 53.1922 387.521 53.5511 387.991C53.6615 388.129 53.7719 388.267 53.8823 388.405C54.1584 388.736 54.4344 389.067 54.7381 389.398C54.8761 389.536 54.9865 389.674 55.1245 389.812C55.511 390.171 55.925 390.53 56.3391 390.861C56.4219 390.917 56.4771 390.972 56.5599 391.027C56.5875 391.027 56.5875 391.055 56.6151 391.055C57.1396 391.414 57.6917 391.772 58.2714 392.104C58.299 392.104 58.299 392.131 58.3266 392.131C58.3818 392.159 58.4646 392.186 58.5198 392.214C58.8787 392.407 59.2651 392.601 59.6516 392.766C59.8448 392.849 60.0657 392.932 60.2589 393.015C60.3693 393.07 60.5073 393.125 60.6178 393.153C60.7282 393.18 60.8386 393.235 60.949 393.291C61.3631 393.429 61.7771 393.567 62.2188 393.705C62.3568 393.76 62.5224 393.787 62.6881 393.815C62.7985 393.843 62.8813 393.87 62.9917 393.898C63.1297 393.926 63.2954 393.981 63.4334 394.008C63.8198 394.091 64.2063 394.174 64.6204 394.257C64.8412 394.284 65.062 394.34 65.3105 394.367C65.3933 394.367 65.4761 394.395 65.5313 394.395C65.6141 394.422 65.7245 394.422 65.8073 394.45C66.1938 394.505 66.5803 394.56 66.9667 394.588C67.3532 394.616 67.7672 394.671 68.1813 394.671C68.2089 394.671 68.2365 394.671 68.2641 394.671C68.623 394.698 69.0094 394.726 69.3959 394.726Z" fill="url(#paint2_linear_1274_52193)"/>
<path d="M102.163 349.621C93.4128 362.981 73.4549 373.029 57.5825 372.118C41.7376 371.207 35.9684 359.613 44.7189 346.281C53.4694 332.948 73.3997 322.872 89.2721 323.811C105.117 324.722 110.886 336.288 102.163 349.621Z" fill="url(#paint3_linear_1274_52193)"/>
<path d="M206.67 3.79346H394.103C406.249 3.79346 415.8 14.2003 414.751 26.291L391.37 297.835C390.459 308.38 381.101 316.164 370.584 315.115L177.879 296.179C168.797 295.295 162.172 287.207 163.056 278.153L187.761 20.9634C188.7 11.2466 196.871 3.79346 206.67 3.79346Z" fill="url(#paint4_linear_1274_52193)"/>
<path d="M202.975 0.536133H390.408C402.554 0.536133 412.105 10.943 411.056 23.0337L387.675 294.577C386.764 305.122 377.406 312.907 366.889 311.858L174.184 292.894C165.102 292.01 158.477 283.922 159.36 274.868L184.094 17.706C185.032 7.9617 193.203 0.536133 202.975 0.536133Z" fill="url(#paint5_linear_1274_52193)"/>
<path d="M403.433 22.3712L401.694 42.55L380.052 293.943C379.556 299.74 374.587 304.322 368.762 304.322C368.403 304.322 368.017 304.294 367.631 304.267L174.898 285.302C170.039 284.806 166.479 280.472 166.948 275.613L189.638 39.9552L191.709 18.4238C192.288 12.5993 197.119 8.18262 202.971 8.18262H390.404C394.103 8.18262 397.526 9.67325 400.038 12.4061C402.55 15.1665 403.764 18.6999 403.433 22.3712Z" fill="url(#paint6_linear_1274_52193)"/>
<path d="M407.851 10.0872C409.894 13.6205 410.915 17.7888 410.529 22.1779L387.148 293.722C386.237 304.267 376.879 312.051 366.362 311.002L173.657 292.038C168.578 291.541 164.271 288.781 161.594 284.861C164.189 289.222 168.743 292.341 174.181 292.894L366.914 311.858C377.459 312.907 386.789 305.122 387.7 294.577L411.081 23.0336C411.495 18.2856 410.253 13.8137 407.851 10.0872Z" fill="url(#paint7_linear_1274_52193)"/>
<path d="M403.435 22.3712L401.448 45.6417L189.641 39.9552L191.711 18.4238C192.291 12.5993 197.121 8.18262 202.973 8.18262H390.406C394.105 8.18262 397.528 9.67325 400.04 12.4061C402.552 15.1665 403.767 18.6999 403.435 22.3712Z" fill="url(#paint8_linear_1274_52193)"/>
<path d="M206.391 27.5608C208.22 27.5608 209.703 26.0778 209.703 24.2483C209.703 22.4189 208.22 20.9358 206.391 20.9358C204.561 20.9358 203.078 22.4189 203.078 24.2483C203.078 26.0778 204.561 27.5608 206.391 27.5608Z" fill="white"/>
<path d="M218.563 27.5608C220.392 27.5608 221.875 26.0778 221.875 24.2483C221.875 22.4189 220.392 20.9358 218.563 20.9358C216.733 20.9358 215.25 22.4189 215.25 24.2483C215.25 26.0778 216.733 27.5608 218.563 27.5608Z" fill="white"/>
<path d="M230.734 27.5608C232.564 27.5608 234.047 26.0778 234.047 24.2483C234.047 22.4189 232.564 20.9358 230.734 20.9358C228.905 20.9358 227.422 22.4189 227.422 24.2483C227.422 26.0778 228.905 27.5608 230.734 27.5608Z" fill="white"/>
<path d="M379.697 22.5368L378.952 29.0514C378.676 31.453 376.633 33.3025 374.231 33.2749L342.514 33.054L252.828 32.4191C250.675 32.4191 249.018 30.542 249.267 28.4165L249.819 22.6196C250.067 20.356 252 18.5894 254.263 18.5894L345.44 18.617H376.246C378.344 18.6446 379.918 20.4664 379.697 22.5368Z" fill="white"/>
<path d="M379.696 22.5367L378.951 29.0514C378.675 31.4529 376.632 33.3024 374.231 33.2748L343.562 33.054L345.467 18.6445H376.274C378.344 18.6445 379.917 20.4664 379.696 22.5367Z" fill="url(#paint9_linear_1274_52193)"/>
<path d="M231.21 104.439C218.098 103.776 211.528 103.445 198.333 102.727C195.545 102.562 193.475 100.215 193.723 97.4549C194.966 84.398 195.573 77.8558 196.815 64.8266C197.063 62.0661 199.575 59.9406 202.363 60.0786C215.613 60.7411 222.211 61.0448 235.323 61.6245C238.111 61.7349 240.126 64.0813 239.85 66.8417C238.58 79.8985 237.973 86.4684 236.703 99.6356C236.455 102.451 233.998 104.577 231.21 104.439Z" fill="url(#paint10_linear_1274_52193)"/>
<path d="M385.214 94.6115C377.651 94.3079 373.897 94.1423 366.333 93.8386C364.732 93.7834 363.545 92.348 363.711 90.6641C364.428 82.6589 364.76 78.7114 365.477 70.8442C365.615 69.188 367.051 67.8906 368.624 67.9182C376.16 68.1666 379.942 68.277 387.478 68.5531C389.079 68.6083 390.238 70.0161 390.1 71.6723C389.41 79.5948 389.079 83.5974 388.389 91.6579C388.223 93.3417 386.815 94.6943 385.214 94.6115Z" fill="#B3B3B3"/>
<path d="M198.445 101.402C198.445 101.402 201.206 86.8826 220.004 89.919C233.751 92.155 232.371 103.169 232.371 103.169C218.845 102.479 212.082 102.12 198.445 101.402Z" fill="url(#paint11_linear_1274_52193)"/>
<path d="M209.99 73.9083C209.99 73.9083 208.555 77.9109 208.914 78.9047C209.272 79.8985 209.797 79.9261 209.797 79.9261C209.797 79.9261 208.638 81.1683 208.555 81.6375C208.472 82.0792 207.809 88.2626 208.444 88.511C209.079 88.7595 212.695 89.7256 212.695 89.7256C212.613 90.5813 212.585 91.023 212.502 91.8787C212.502 91.8787 212.613 93.1485 216.643 93.3418C220.673 93.535 222.412 91.6855 222.412 91.6855C223.489 85.2813 224.041 82.1068 225.145 75.7302C225.117 75.7578 210.818 71.2307 209.99 73.9083Z" fill="url(#paint12_linear_1274_52193)"/>
<path d="M207.641 71.9485C207.641 71.9485 209.297 76.0339 214.983 76.5308C220.67 77.0277 221.029 76.1444 221.029 76.1444C221.029 76.1444 219.069 78.5735 220.09 79.6777C221.111 80.7819 219.096 83.1006 220.339 83.4871C221.581 83.846 222.05 79.0428 223.568 79.4017C225.114 79.7605 221.25 83.2387 223.099 84.398C224.921 85.5574 229.172 80.3126 229.448 77.497C229.724 74.6813 226.908 72.8318 226.908 72.8318C226.908 72.8318 228.371 67.8631 221.139 67.5042C213.879 67.2006 207.641 71.9485 207.641 71.9485Z" fill="url(#paint13_linear_1274_52193)"/>
<path d="M255.117 65.2407C288.435 66.5381 321.781 67.6975 355.1 68.8017" stroke="#B3B3B3" stroke-width="11.0991" stroke-miterlimit="10" stroke-linecap="round" stroke-linejoin="round"/>
<path d="M253.953 77.4417C287.299 78.8219 320.645 80.0364 353.991 81.251" stroke="#B3B3B3" stroke-width="11.0991" stroke-miterlimit="10" stroke-linecap="round" stroke-linejoin="round"/>
<path d="M252.766 89.7256C286.139 91.1886 319.485 92.5136 352.859 93.8662" stroke="#B3B3B3" stroke-width="11.0991" stroke-miterlimit="10" stroke-linecap="round" stroke-linejoin="round"/>
<path d="M255.417 98.918C255.941 100.298 256.217 100.988 256.742 102.369C258.205 102.645 258.922 102.81 260.358 103.086C259.198 104.08 258.619 104.604 257.459 105.598C257.57 107.089 257.625 107.862 257.735 109.352C256.493 108.579 255.858 108.193 254.616 107.42C253.236 108.055 252.546 108.386 251.166 109.021C251.552 107.531 251.745 106.813 252.159 105.322C251.193 104.218 250.724 103.666 249.758 102.562C251.248 102.424 251.994 102.341 253.484 102.203C254.257 100.905 254.644 100.243 255.417 98.918Z" fill="url(#paint14_linear_1274_52193)"/>
<path d="M271.792 99.6633C272.316 101.044 272.592 101.761 273.117 103.141C274.552 103.418 275.297 103.583 276.733 103.859C275.573 104.881 274.994 105.377 273.834 106.399C273.945 107.917 274 108.662 274.11 110.181C272.868 109.408 272.233 109.021 270.991 108.248C269.611 108.883 268.921 109.214 267.541 109.849C267.927 108.359 268.12 107.613 268.534 106.15C267.568 105.046 267.099 104.494 266.133 103.39C267.623 103.252 268.369 103.169 269.859 103.003C270.632 101.651 271.019 100.988 271.792 99.6633Z" fill="url(#paint15_linear_1274_52193)"/>
<path d="M288.104 100.381C288.629 101.789 288.905 102.479 289.429 103.887C290.865 104.163 291.582 104.301 293.045 104.604C291.886 105.626 291.306 106.123 290.147 107.144C290.257 108.662 290.313 109.435 290.423 110.953C289.181 110.18 288.573 109.794 287.331 109.021C285.951 109.684 285.261 109.987 283.881 110.65C284.267 109.159 284.46 108.414 284.847 106.923C283.881 105.819 283.411 105.239 282.445 104.135C283.936 103.969 284.681 103.914 286.144 103.749C286.945 102.396 287.331 101.733 288.104 100.381Z" fill="url(#paint16_linear_1274_52193)"/>
<path d="M304.385 101.099C304.91 102.506 305.186 103.197 305.71 104.604C307.146 104.88 307.864 105.046 309.299 105.322C308.14 106.343 307.56 106.868 306.401 107.889C306.511 109.408 306.566 110.18 306.677 111.699C305.434 110.926 304.827 110.539 303.585 109.766C302.205 110.429 301.515 110.76 300.162 111.395C300.548 109.904 300.742 109.131 301.128 107.641C300.162 106.509 299.693 105.957 298.727 104.853C300.217 104.687 300.935 104.632 302.426 104.466C303.226 103.114 303.613 102.451 304.385 101.099Z" fill="url(#paint17_linear_1274_52193)"/>
<path d="M320.623 101.816C321.148 103.224 321.424 103.942 321.948 105.35C323.384 105.626 324.102 105.791 325.537 106.067C324.378 107.089 323.798 107.613 322.666 108.635C322.777 110.181 322.832 110.926 322.942 112.472C321.7 111.699 321.093 111.312 319.851 110.512C318.47 111.174 317.808 111.506 316.428 112.168C316.814 110.65 317.007 109.904 317.394 108.386C316.428 107.254 315.958 106.702 314.992 105.571C316.483 105.405 317.201 105.322 318.691 105.184C319.464 103.832 319.851 103.169 320.623 101.816Z" fill="url(#paint18_linear_1274_52193)"/>
<path d="M368.57 76.4756C370.116 80.7819 370.889 82.9626 372.435 87.2965C377.928 84.9777 380.689 83.8183 386.182 81.472C385.575 79.6777 385.271 78.7944 384.636 77.0277C380.578 78.6287 378.535 79.4293 374.478 81.0579C373.843 78.5459 373.539 77.3037 372.904 74.8193C371.165 75.5094 370.309 75.8131 368.57 76.4756Z" fill="url(#paint19_linear_1274_52193)"/>
<path d="M194.359 115.591C257.049 119.124 319.738 122.133 382.455 125.418" stroke="#B3B3B3" stroke-width="4.1622" stroke-miterlimit="10" stroke-linecap="round" stroke-linejoin="round"/>
<path d="M224.529 174.913C211.472 173.974 204.93 173.477 191.79 172.511C189.002 172.318 186.96 169.889 187.208 167.128C188.423 154.099 189.03 147.557 190.244 134.5C190.493 131.74 192.977 129.642 195.765 129.807C208.96 130.608 215.53 130.994 228.614 131.767C231.375 131.933 233.417 134.334 233.141 137.122C231.899 150.345 231.264 156.97 230.022 170.192C229.746 173.008 227.289 175.106 224.529 174.913Z" fill="url(#paint20_linear_1274_52193)"/>
<path d="M378.895 168.95C371.304 168.426 367.494 168.15 359.903 167.625C358.302 167.515 357.115 166.024 357.253 164.285C357.971 156.114 358.33 152.029 359.02 143.858C359.158 142.119 360.593 140.794 362.194 140.904C369.785 141.346 373.567 141.567 381.131 142.036C382.732 142.119 383.919 143.637 383.781 145.376C383.091 153.63 382.732 157.743 382.042 165.996C381.931 167.736 380.496 169.061 378.895 168.95Z" fill="url(#paint21_linear_1274_52193)"/>
<path d="M191.898 171.186C191.898 171.186 194.604 156.666 213.347 160.089C227.039 162.601 225.686 173.643 225.686 173.643C212.215 172.649 205.452 172.18 191.898 171.186Z" fill="url(#paint22_linear_1274_52193)"/>
<path d="M203.381 143.83C203.381 143.83 201.945 147.833 202.304 148.827C202.663 149.82 203.188 149.876 203.188 149.876C203.188 149.876 202.028 151.118 201.945 151.56C201.863 152.001 201.2 158.212 201.835 158.461C202.47 158.709 206.058 159.758 206.058 159.758C205.976 160.614 205.948 161.055 205.865 161.911C205.865 161.911 205.976 163.181 209.978 163.457C213.981 163.733 215.72 161.911 215.72 161.911C216.796 155.507 217.349 152.305 218.425 145.873C218.425 145.901 204.181 141.125 203.381 143.83Z" fill="url(#paint23_linear_1274_52193)"/>
<path d="M201.008 141.788C201.008 141.788 202.664 145.928 208.323 146.508C213.982 147.088 214.368 146.232 214.368 146.232C214.368 146.232 212.408 148.661 213.43 149.765C214.451 150.869 212.436 153.216 213.678 153.602C214.92 153.989 215.362 149.158 216.908 149.544C218.426 149.931 214.617 153.381 216.439 154.568C218.26 155.783 222.484 150.566 222.76 147.722C223.036 144.879 220.22 142.974 220.22 142.974C220.22 142.974 221.683 137.951 214.451 137.509C207.246 137.122 201.008 141.788 201.008 141.788Z" fill="url(#paint24_linear_1274_52193)"/>
<path d="M248.406 135.742C281.835 137.674 315.236 139.552 348.665 141.484" stroke="#B3B3B3" stroke-width="11.0991" stroke-miterlimit="10" stroke-linecap="round" stroke-linejoin="round"/>
<path d="M247.219 148.136C280.647 150.207 314.076 152.25 347.505 154.375" stroke="#B3B3B3" stroke-width="11.0991" stroke-miterlimit="10" stroke-linecap="round" stroke-linejoin="round"/>
<path d="M246.062 160.531C279.519 162.767 312.948 164.975 346.404 167.239" stroke="#B3B3B3" stroke-width="11.0991" stroke-miterlimit="10" stroke-linecap="round" stroke-linejoin="round"/>
<path d="M248.714 169.889C249.238 171.296 249.514 172.014 250.039 173.422C251.502 173.753 252.219 173.919 253.655 174.223C252.495 175.216 251.916 175.713 250.756 176.679C250.867 178.198 250.922 178.943 251.032 180.461C249.79 179.661 249.155 179.247 247.913 178.446C246.533 179.053 245.843 179.357 244.462 179.964C244.849 178.501 245.042 177.756 245.456 176.265C244.49 175.133 244.021 174.554 243.055 173.422C244.545 173.312 245.291 173.256 246.781 173.146C247.527 171.849 247.941 171.214 248.714 169.889Z" fill="url(#paint25_linear_1274_52193)"/>
<path d="M265.081 171.021C265.605 172.428 265.881 173.146 266.406 174.554C267.841 174.885 268.586 175.051 270.022 175.354C268.863 176.348 268.283 176.845 267.123 177.839C267.234 179.357 267.289 180.13 267.399 181.648C266.157 180.848 265.522 180.434 264.28 179.633C262.9 180.24 262.21 180.544 260.83 181.179C261.216 179.688 261.409 178.943 261.823 177.48C260.857 176.348 260.388 175.768 259.422 174.637C260.913 174.526 261.658 174.471 263.148 174.361C263.894 173.008 264.28 172.346 265.081 171.021Z" fill="url(#paint26_linear_1274_52193)"/>
<path d="M281.421 172.18C281.945 173.615 282.221 174.305 282.746 175.741C284.181 176.072 284.927 176.238 286.362 176.569C285.203 177.563 284.623 178.06 283.464 179.053C283.574 180.599 283.629 181.345 283.74 182.89C282.497 182.09 281.862 181.676 280.62 180.875C279.24 181.483 278.55 181.814 277.17 182.421C277.556 180.931 277.749 180.185 278.136 178.695C277.17 177.535 276.701 176.983 275.734 175.824C277.225 175.713 277.97 175.658 279.461 175.52C280.234 174.167 280.62 173.505 281.421 172.18Z" fill="url(#paint27_linear_1274_52193)"/>
<path d="M297.733 173.312C298.258 174.747 298.534 175.465 299.058 176.9C300.494 177.232 301.211 177.397 302.674 177.728C301.515 178.722 300.935 179.247 299.776 180.24C299.886 181.786 299.942 182.559 300.052 184.105C298.81 183.277 298.175 182.89 296.933 182.062C295.553 182.697 294.862 183.001 293.482 183.608C293.869 182.118 294.062 181.345 294.448 179.854C293.482 178.695 293.013 178.115 292.047 176.983C293.538 176.873 294.283 176.818 295.746 176.679C296.546 175.327 296.933 174.664 297.733 173.312Z" fill="url(#paint28_linear_1274_52193)"/>
<path d="M314.022 174.471C314.546 175.907 314.822 176.624 315.347 178.087C316.782 178.419 317.5 178.584 318.963 178.915C317.804 179.937 317.224 180.434 316.065 181.427C316.175 182.973 316.23 183.746 316.341 185.292C315.098 184.464 314.491 184.05 313.249 183.249C311.869 183.884 311.179 184.188 309.826 184.823C310.213 183.305 310.406 182.559 310.792 181.041C309.826 179.882 309.357 179.302 308.391 178.143C309.881 178.032 310.627 177.977 312.09 177.839C312.835 176.486 313.221 175.796 314.022 174.471Z" fill="url(#paint29_linear_1274_52193)"/>
<path d="M362.188 149.82C363.733 154.32 364.506 156.583 366.052 161.11C371.573 158.875 374.361 157.743 379.882 155.479C379.275 153.602 378.943 152.691 378.336 150.814C374.251 152.388 372.208 153.16 368.095 154.706C367.46 152.111 367.129 150.814 366.494 148.219C364.782 148.854 363.927 149.158 362.188 149.82Z" fill="url(#paint30_linear_1274_52193)"/>
<path d="M187.844 185.292C250.588 190.15 313.36 194.898 376.105 199.95" stroke="#B3B3B3" stroke-width="4.1622" stroke-miterlimit="10" stroke-linecap="round" stroke-linejoin="round"/>
<path d="M217.906 245C204.904 243.813 198.39 243.233 185.333 242.046C182.573 241.798 180.53 239.369 180.778 236.608C181.965 223.607 182.573 217.12 183.76 204.118C184.008 201.358 186.465 199.315 189.253 199.536C202.365 200.612 208.879 201.137 221.936 202.186C224.697 202.406 226.712 204.863 226.463 207.624C225.221 220.791 224.586 227.333 223.344 240.418C223.096 243.206 220.666 245.248 217.906 245Z" fill="url(#paint31_linear_1274_52193)"/>
<path d="M372.517 242.488C364.898 241.798 361.061 241.439 353.442 240.777C351.814 240.639 350.654 239.148 350.792 237.492C351.51 229.597 351.869 225.594 352.587 217.589C352.725 215.905 354.16 214.635 355.789 214.746C363.408 215.381 367.217 215.712 374.836 216.374C376.437 216.512 377.624 218.003 377.486 219.714C376.796 227.775 376.437 231.805 375.719 239.728C375.553 241.384 374.118 242.626 372.517 242.488Z" fill="#B3B3B3"/>
<path d="M185.469 240.721C185.469 240.721 188.146 226.284 206.779 230.038C220.416 232.799 219.063 243.73 219.063 243.73C205.62 242.543 198.912 241.936 185.469 240.721Z" fill="url(#paint32_linear_1274_52193)"/>
<path d="M196.838 213.641C196.838 213.641 195.43 217.616 195.789 218.61C196.147 219.604 196.672 219.687 196.672 219.687C196.672 219.687 195.513 220.901 195.43 221.343C195.347 221.785 194.684 227.94 195.319 228.216C195.954 228.465 199.543 229.597 199.543 229.597C199.46 230.452 199.432 230.894 199.35 231.75C199.35 231.75 199.46 233.02 203.435 233.378C207.41 233.737 209.149 231.943 209.149 231.943C210.226 225.594 210.75 222.42 211.827 216.043C211.827 216.043 197.638 210.964 196.838 213.641Z" fill="url(#paint33_linear_1274_52193)"/>
<path d="M194.492 211.599C194.492 211.599 196.148 215.767 201.78 216.457C207.411 217.175 207.797 216.291 207.797 216.291C207.797 216.291 205.865 218.665 206.859 219.797C207.88 220.929 205.865 223.192 207.107 223.606C208.322 224.021 208.791 219.217 210.309 219.631C211.828 220.073 208.018 223.386 209.84 224.628C211.662 225.87 215.858 220.791 216.134 217.948C216.41 215.132 213.594 213.172 213.594 213.172C213.594 213.172 215.03 208.203 207.853 207.596C200.676 207.044 194.492 211.599 194.492 211.599Z" fill="url(#paint34_linear_1274_52193)"/>
<path d="M241.703 206.602C275.187 209.363 308.671 212.123 342.155 214.911" stroke="#B3B3B3" stroke-width="11.0991" stroke-miterlimit="10" stroke-linecap="round" stroke-linejoin="round"/>
<path d="M240.516 218.914C274 221.757 307.511 224.656 340.995 227.554" stroke="#B3B3B3" stroke-width="11.0991" stroke-miterlimit="10" stroke-linecap="round" stroke-linejoin="round"/>
<path d="M239.352 231.198C272.863 234.151 306.347 237.105 339.859 240.114" stroke="#B3B3B3" stroke-width="11.0991" stroke-miterlimit="10" stroke-linecap="round" stroke-linejoin="round"/>
<path d="M242.007 240.5C242.531 241.908 242.807 242.598 243.332 244.006C244.767 244.365 245.513 244.531 246.948 244.862C245.789 245.801 245.209 246.297 244.049 247.236C244.16 248.727 244.215 249.472 244.326 250.963C243.083 250.162 242.448 249.748 241.206 248.92C239.826 249.5 239.136 249.776 237.756 250.355C238.142 248.92 238.335 248.175 238.722 246.739C237.756 245.607 237.286 245.028 236.32 243.896C237.811 243.813 238.556 243.785 240.047 243.703C240.847 242.405 241.234 241.77 242.007 240.5Z" fill="url(#paint35_linear_1274_52193)"/>
<path d="M258.374 241.963C258.898 243.371 259.174 244.061 259.699 245.469C261.134 245.828 261.88 245.994 263.315 246.325C262.156 247.263 261.576 247.76 260.417 248.699C260.527 250.189 260.582 250.935 260.693 252.425C259.451 251.625 258.816 251.211 257.573 250.383C256.193 250.962 255.503 251.238 254.123 251.818C254.509 250.383 254.703 249.637 255.089 248.202C254.123 247.07 253.654 246.49 252.688 245.359C254.178 245.276 254.923 245.221 256.414 245.138C257.187 243.868 257.573 243.233 258.374 241.963Z" fill="url(#paint36_linear_1274_52193)"/>
<path d="M274.714 243.427C275.238 244.834 275.514 245.524 276.039 246.932C277.474 247.291 278.219 247.457 279.655 247.816C278.495 248.754 277.916 249.251 276.756 250.19C276.867 251.68 276.922 252.426 277.032 253.944C275.79 253.116 275.155 252.729 273.913 251.901C272.533 252.481 271.843 252.757 270.462 253.336C270.849 251.873 271.042 251.156 271.456 249.72C270.49 248.589 270.021 248.009 269.055 246.877C270.545 246.794 271.291 246.739 272.781 246.656C273.527 245.359 273.913 244.696 274.714 243.427Z" fill="url(#paint37_linear_1274_52193)"/>
<path d="M291.03 244.89C291.555 246.297 291.831 247.015 292.355 248.423C293.791 248.782 294.536 248.947 295.971 249.306C294.812 250.272 294.232 250.742 293.073 251.68C293.183 253.171 293.239 253.944 293.349 255.435C292.107 254.606 291.472 254.22 290.23 253.392C288.85 253.971 288.159 254.248 286.779 254.827C287.166 253.364 287.359 252.646 287.745 251.183C286.779 250.052 286.31 249.472 285.344 248.313C286.834 248.23 287.58 248.175 289.07 248.092C289.871 246.822 290.257 246.187 291.03 244.89Z" fill="url(#paint38_linear_1274_52193)"/>
<path d="M307.374 246.353C307.898 247.76 308.174 248.478 308.699 249.886C310.134 250.245 310.88 250.41 312.315 250.769C311.156 251.735 310.576 252.205 309.417 253.143C309.527 254.634 309.582 255.407 309.693 256.897C308.451 256.069 307.816 255.683 306.573 254.855C305.193 255.434 304.503 255.71 303.123 256.29C303.509 254.827 303.703 254.109 304.089 252.646C303.123 251.515 302.654 250.935 301.688 249.775C303.178 249.693 303.923 249.637 305.414 249.555C306.187 248.285 306.573 247.65 307.374 246.353Z" fill="url(#paint39_linear_1274_52193)"/>
<path d="M355.734 223.496C357.28 227.941 358.053 230.176 359.627 234.593C365.175 232.55 367.963 231.529 373.539 229.486C372.932 227.664 372.601 226.754 371.993 224.904C367.88 226.312 365.838 227.03 361.697 228.437C361.062 225.87 360.731 224.6 360.096 222.033C358.357 222.613 357.473 222.917 355.734 223.496Z" fill="url(#paint40_linear_1274_52193)"/>
<path d="M181.438 254.717C244.182 260.458 306.926 266.173 369.698 271.914" stroke="#B3B3B3" stroke-width="4.1622" stroke-miterlimit="10" stroke-linecap="round" stroke-linejoin="round"/>
<path d="M35.8557 250.19C35.7177 250.052 35.5521 249.914 35.4141 249.776C35.3589 249.721 35.2761 249.638 35.2208 249.583C35.1932 249.555 35.1656 249.527 35.138 249.5C35.0828 249.444 35.0276 249.417 35 249.362C34.862 249.224 34.724 249.086 34.586 248.92C34.4479 248.782 34.3099 248.616 34.1719 248.451C34.1719 248.451 34.1719 248.451 34.1719 248.423C34.1719 248.423 34.1719 248.423 34.1719 248.396C34.0339 248.258 33.9235 248.092 33.7854 247.954C33.6474 247.788 33.5094 247.623 33.3714 247.457C33.3162 247.402 33.2886 247.347 33.2333 247.264C33.2057 247.236 33.1781 247.181 33.1505 247.153C33.0953 247.071 33.0401 246.988 32.9849 246.932C32.8469 246.739 32.7089 246.574 32.5984 246.38C32.5156 246.242 32.4052 246.104 32.3224 245.966C32.2948 245.939 32.2948 245.911 32.2672 245.884C32.2396 245.856 32.2396 245.828 32.212 245.801C32.1016 245.607 31.9636 245.414 31.8531 245.249C31.7427 245.055 31.6323 244.862 31.5219 244.669C31.4943 244.641 31.4943 244.586 31.4667 244.559C31.4391 244.531 31.4391 244.503 31.4115 244.476C31.3287 244.365 31.2734 244.227 31.1906 244.117C31.0802 243.924 30.9698 243.73 30.887 243.537C30.8042 243.399 30.749 243.261 30.6662 243.123C30.6662 243.095 30.6385 243.068 30.6385 243.04C30.6109 243.013 30.6109 242.985 30.5833 242.957C30.4729 242.764 30.3901 242.571 30.3073 242.378C30.1969 242.157 30.1141 241.936 30.0036 241.715C29.976 241.688 29.976 241.66 29.9484 241.605C29.9208 241.55 29.9208 241.522 29.8932 241.467C29.8104 241.301 29.7276 241.108 29.6724 240.942C29.5896 240.722 29.5068 240.501 29.424 240.28C29.3688 240.169 29.3411 240.059 29.2859 239.921C29.2583 239.866 29.2583 239.838 29.2307 239.783C29.1479 239.59 29.0927 239.369 29.0375 239.176C28.9271 238.872 28.8443 238.596 28.7339 238.292C28.7063 238.237 28.7063 238.21 28.6786 238.154C28.5406 237.713 28.4302 237.299 28.3198 236.857C28.237 236.553 28.1818 236.277 28.1266 235.974C28.0714 235.725 28.0161 235.504 27.9885 235.256C27.9885 235.256 27.9885 235.256 27.9885 235.228C27.9333 234.98 27.9057 234.759 27.8505 234.511C27.8229 234.262 27.7677 234.041 27.7401 233.793C27.7401 233.765 27.7401 233.71 27.7401 233.682C27.7401 233.655 27.7401 233.6 27.7125 233.572C27.6849 233.406 27.6573 233.241 27.6573 233.075C27.6297 232.827 27.6021 232.578 27.6021 232.357C27.6021 232.275 27.6021 232.219 27.6021 232.137C27.6021 232.081 27.6021 232.026 27.6021 231.971C27.6021 231.861 27.5745 231.75 27.5745 231.612C27.5745 231.364 27.5469 231.115 27.5469 230.894C27.5469 230.784 27.5469 230.674 27.5469 230.591C27.5469 230.536 27.5469 230.48 27.5469 230.425C27.5469 230.342 27.5469 230.259 27.5469 230.204C27.5469 229.983 27.5469 229.763 27.5745 229.514C27.5745 229.349 27.6021 229.183 27.6021 229.017C27.6021 228.99 27.6021 228.962 27.6021 228.934C27.6021 228.907 27.6021 228.879 27.6021 228.852C27.6297 228.631 27.6297 228.438 27.6573 228.217C27.6849 228.024 27.7125 227.803 27.7401 227.609C27.7401 227.554 27.7677 227.527 27.7677 227.471C27.7953 227.333 27.8229 227.168 27.8505 227.03C27.8781 226.837 27.9333 226.643 27.9609 226.478C27.9885 226.367 28.0161 226.257 28.0437 226.119C28.0437 226.091 28.0437 226.064 28.0714 226.036C28.0714 226.008 28.099 225.981 28.099 225.926C28.1542 225.76 28.2094 225.594 28.2646 225.401C28.3198 225.235 28.375 225.07 28.4302 224.904C28.4302 224.877 28.4578 224.849 28.4578 224.821C28.4578 224.794 28.4854 224.766 28.4854 224.739C28.5406 224.628 28.5682 224.518 28.6234 224.407C28.6786 224.242 28.7615 224.076 28.8443 223.938C28.8719 223.855 28.9271 223.8 28.9547 223.717C28.9823 223.69 28.9823 223.662 29.0099 223.634C29.0375 223.579 29.0651 223.552 29.0927 223.496C29.1755 223.331 29.2859 223.165 29.3688 223.027C29.424 222.944 29.4792 222.834 29.562 222.751C29.5896 222.723 29.5896 222.696 29.6172 222.668C29.6448 222.641 29.6448 222.613 29.6724 222.585C29.7828 222.42 29.8932 222.282 30.0313 222.116C30.0865 222.061 30.1417 222.006 30.1969 221.923C30.2521 221.868 30.2797 221.84 30.3349 221.785C30.3901 221.73 30.4177 221.675 30.4729 221.647C30.6385 221.481 30.8318 221.316 30.9974 221.178C31.0526 221.15 31.0802 221.122 31.1354 221.095C31.3287 220.957 31.5219 220.791 31.7151 220.681C31.7427 220.681 31.7427 220.653 31.7703 220.653C32.074 220.488 32.3776 220.322 32.7089 220.212L96.9163 195.892C96.5851 196.003 96.2814 196.168 95.9778 196.334C95.7569 196.472 95.5361 196.61 95.3429 196.775C95.2877 196.803 95.26 196.831 95.2048 196.858C94.9564 197.051 94.7356 197.272 94.5423 197.493C94.4871 197.548 94.4595 197.576 94.4043 197.631C94.2111 197.852 94.0179 198.1 93.8246 198.376C93.797 198.404 93.7694 198.432 93.7694 198.459C93.5762 198.735 93.4106 199.039 93.2449 199.343C93.2173 199.37 93.2173 199.398 93.1897 199.425C93.0241 199.757 92.8585 200.088 92.7205 200.447C92.7205 200.474 92.6928 200.502 92.6928 200.53C92.5548 200.916 92.4168 201.303 92.3064 201.717C92.3064 201.744 92.3064 201.772 92.2788 201.799C92.1684 202.241 92.058 202.683 92.0027 203.152C91.9199 203.621 91.8647 204.118 91.8095 204.615C91.8095 204.643 91.8095 204.67 91.8095 204.698C91.7819 205.167 91.7543 205.636 91.7543 206.106C91.7543 206.161 91.7543 206.216 91.7543 206.271C91.7543 206.741 91.7543 207.182 91.7819 207.652C91.7819 207.707 91.7819 207.762 91.7819 207.817C91.8095 208.286 91.8647 208.783 91.9199 209.253C91.9199 209.28 91.9199 209.335 91.9475 209.363C92.0027 209.887 92.0856 210.412 92.196 210.909C92.196 210.909 92.196 210.909 92.196 210.936C92.3064 211.461 92.4168 212.013 92.5548 212.537C92.6652 213.034 92.8033 213.504 92.9689 213.973C93.0517 214.277 93.1621 214.553 93.2725 214.856C93.3554 215.105 93.4382 215.353 93.521 215.602C93.5762 215.712 93.6038 215.822 93.659 215.96C93.8246 216.375 93.9626 216.761 94.1559 217.175C94.1835 217.23 94.1835 217.258 94.2111 217.313C94.4319 217.782 94.6528 218.279 94.8736 218.748C94.8736 218.776 94.9012 218.804 94.9012 218.831C95.122 219.301 95.3705 219.742 95.6189 220.184C95.6465 220.212 95.6465 220.239 95.6741 220.267C95.9225 220.708 96.1986 221.15 96.5022 221.592C96.5298 221.619 96.5298 221.647 96.5574 221.675C96.8335 222.089 97.1095 222.475 97.4132 222.862C97.4408 222.889 97.4684 222.944 97.496 222.972C97.7996 223.358 98.1033 223.745 98.4345 224.104C98.4345 224.104 98.4345 224.104 98.4621 224.131C98.7934 224.49 99.1246 224.849 99.4559 225.18C99.4835 225.208 99.5111 225.235 99.5387 225.263C99.8976 225.594 100.229 225.926 100.588 226.202C100.947 226.505 101.305 226.754 101.664 227.002C101.692 227.03 101.719 227.057 101.775 227.057C102.106 227.278 102.437 227.471 102.768 227.665C102.824 227.692 102.851 227.72 102.906 227.747C103.238 227.913 103.541 228.079 103.873 228.189C103.928 228.217 103.983 228.244 104.038 228.272C104.342 228.382 104.645 228.493 104.922 228.576C104.949 228.576 104.977 228.603 105.032 228.603C105.363 228.686 105.694 228.741 106.026 228.796C106.081 228.796 106.109 228.796 106.164 228.796C106.44 228.824 106.688 228.824 106.964 228.824C107.047 228.824 107.157 228.824 107.24 228.824C107.461 228.824 107.682 228.796 107.875 228.741C107.958 228.714 108.041 228.714 108.124 228.686C108.4 228.631 108.676 228.548 108.952 228.465L44.7443 252.785C44.4683 252.895 44.1922 252.95 43.9162 253.005C43.8334 253.033 43.7506 253.033 43.6677 253.061C43.4469 253.088 43.2537 253.116 43.0328 253.143C42.95 253.143 42.8396 253.143 42.7568 253.143C42.5084 253.143 42.2323 253.143 41.9563 253.116C41.9011 253.116 41.8735 253.116 41.8183 253.116H41.7907C41.487 253.088 41.1558 253.005 40.8521 252.95H40.8245C40.7969 252.95 40.7693 252.923 40.7141 252.923C40.5209 252.867 40.3276 252.812 40.1068 252.757C39.9964 252.729 39.9136 252.674 39.8032 252.647C39.7479 252.619 39.6927 252.591 39.6375 252.564C39.5823 252.536 39.5271 252.536 39.4719 252.509C39.2787 252.426 39.0854 252.343 38.8922 252.233C38.8094 252.205 38.7542 252.15 38.6714 252.122C38.6162 252.095 38.5886 252.067 38.5334 252.039C38.4782 252.012 38.3953 251.956 38.3401 251.929C38.1745 251.846 38.0089 251.736 37.8433 251.625C37.7604 251.57 37.65 251.487 37.5672 251.432C37.5396 251.404 37.512 251.377 37.4568 251.377C37.4292 251.349 37.374 251.322 37.3464 251.294C37.1808 251.184 37.0427 251.073 36.8771 250.963C36.7115 250.852 36.5735 250.714 36.4078 250.604L36.3802 250.576C36.1318 250.411 35.9938 250.3 35.8557 250.19Z" fill="url(#paint41_linear_1274_52193)"/>
<path d="M91.8927 203.207C90.5953 210.964 94.4323 221.26 100.478 226.202C106.523 231.143 112.458 228.907 113.755 221.15C115.053 213.421 111.216 203.124 105.198 198.156C99.1527 193.214 93.1901 195.478 91.8927 203.207Z" fill="url(#paint42_linear_1274_52193)"/>
<path d="M105.442 218.583C105.359 218.5 105.249 218.417 105.166 218.334C105.139 218.307 105.083 218.252 105.056 218.224C105.028 218.196 105.028 218.196 105.001 218.169C104.973 218.141 104.945 218.113 104.918 218.086C104.835 218.003 104.752 217.92 104.669 217.81C104.586 217.727 104.504 217.617 104.421 217.534C104.338 217.451 104.255 217.341 104.172 217.258C104.09 217.147 104.007 217.065 103.924 216.954C103.896 216.927 103.869 216.871 103.841 216.844C103.814 216.816 103.814 216.788 103.786 216.788C103.758 216.733 103.703 216.706 103.676 216.65C103.593 216.54 103.51 216.43 103.427 216.319C103.372 216.236 103.317 216.154 103.261 216.071C103.261 216.043 103.234 216.043 103.234 216.016C103.234 215.988 103.206 215.988 103.206 215.96C103.123 215.85 103.068 215.74 102.985 215.629C102.903 215.519 102.847 215.408 102.765 215.27C102.765 215.243 102.737 215.215 102.737 215.215C102.737 215.187 102.709 215.187 102.709 215.16C102.654 215.077 102.627 215.022 102.571 214.939C102.516 214.829 102.433 214.718 102.378 214.58C102.323 214.497 102.295 214.415 102.24 214.332C102.24 214.304 102.212 214.304 102.212 214.276C102.212 214.249 102.185 214.249 102.185 214.221C102.13 214.111 102.074 213.973 102.019 213.862C101.964 213.724 101.909 213.586 101.826 213.476C101.826 213.448 101.798 213.448 101.798 213.421C101.798 213.393 101.771 213.366 101.771 213.338C101.716 213.228 101.688 213.117 101.633 213.007C101.578 212.869 101.522 212.731 101.467 212.593C101.44 212.51 101.412 212.455 101.384 212.372C101.384 212.344 101.357 212.317 101.357 212.289C101.302 212.179 101.274 212.041 101.246 211.93C101.191 211.737 101.136 211.571 101.053 211.378C101.053 211.35 101.026 211.323 101.026 211.295C100.943 211.019 100.86 210.771 100.805 210.495C100.749 210.329 100.722 210.136 100.667 209.97C100.639 209.832 100.611 209.667 100.584 209.529C100.556 209.391 100.529 209.225 100.501 209.087C100.473 208.949 100.446 208.811 100.446 208.645C100.446 208.618 100.446 208.59 100.446 208.562C100.446 208.535 100.446 208.507 100.446 208.48C100.446 208.369 100.418 208.286 100.418 208.176C100.391 208.038 100.391 207.872 100.391 207.734C100.391 207.679 100.391 207.651 100.391 207.596C100.391 207.569 100.391 207.541 100.391 207.486C100.391 207.403 100.391 207.348 100.391 207.265C100.391 207.127 100.391 206.961 100.391 206.823C100.391 206.768 100.391 206.685 100.391 206.63C100.391 206.602 100.391 206.575 100.391 206.52C100.391 206.464 100.391 206.437 100.391 206.382C100.391 206.244 100.391 206.106 100.418 205.968C100.418 205.857 100.418 205.774 100.446 205.664C100.446 205.636 100.446 205.636 100.446 205.609C100.446 205.581 100.446 205.581 100.446 205.554C100.446 205.416 100.473 205.305 100.473 205.167C100.501 205.057 100.501 204.919 100.529 204.808C100.529 204.781 100.529 204.753 100.556 204.725C100.584 204.643 100.584 204.532 100.611 204.449C100.639 204.339 100.667 204.229 100.694 204.118C100.722 204.035 100.722 203.98 100.749 203.897C100.749 203.87 100.749 203.87 100.749 203.842C100.749 203.814 100.749 203.787 100.777 203.787C100.805 203.676 100.832 203.566 100.86 203.483C100.887 203.373 100.915 203.29 100.97 203.18C100.97 203.152 100.97 203.152 100.998 203.124C100.998 203.097 100.998 203.097 101.026 203.069C101.053 203.014 101.081 202.931 101.108 202.876C101.164 202.765 101.191 202.683 101.246 202.572C101.274 202.517 101.302 202.489 101.329 202.434C101.329 202.407 101.357 202.407 101.357 202.379C101.384 202.351 101.384 202.324 101.412 202.296C101.467 202.186 101.522 202.103 101.578 202.02C101.605 201.965 101.66 201.91 101.688 201.855C101.688 201.827 101.716 201.827 101.716 201.799C101.716 201.772 101.743 201.772 101.743 201.744C101.826 201.634 101.881 201.551 101.964 201.468C101.992 201.44 102.019 201.385 102.074 201.358C102.102 201.33 102.13 201.302 102.157 201.275C102.185 201.247 102.212 201.22 102.24 201.192C102.351 201.082 102.461 200.999 102.571 200.888C102.599 200.861 102.627 200.861 102.654 200.833C102.765 200.75 102.903 200.668 103.013 200.585C103.013 200.585 103.041 200.585 103.041 200.557C103.234 200.447 103.427 200.364 103.62 200.281L137.27 187.832C137.077 187.914 136.883 187.997 136.69 188.108C136.552 188.19 136.414 188.273 136.304 188.384C136.276 188.411 136.249 188.411 136.221 188.439C136.083 188.549 135.945 188.687 135.807 188.825C135.779 188.853 135.752 188.881 135.724 188.908C135.614 189.046 135.476 189.184 135.365 189.35C135.365 189.377 135.338 189.377 135.338 189.405C135.227 189.571 135.117 189.764 135.006 189.957C135.006 189.985 134.979 189.985 134.979 190.012C134.868 190.206 134.785 190.426 134.703 190.647C134.703 190.675 134.703 190.675 134.675 190.702C134.592 190.923 134.509 191.172 134.454 191.448C134.454 191.475 134.454 191.475 134.454 191.503C134.399 191.751 134.316 192.027 134.289 192.331C134.233 192.607 134.206 192.911 134.178 193.214C134.178 193.242 134.178 193.242 134.178 193.27C134.151 193.546 134.151 193.822 134.151 194.125C134.151 194.153 134.151 194.181 134.151 194.208C134.151 194.484 134.151 194.76 134.178 195.064C134.178 195.091 134.178 195.119 134.178 195.174C134.206 195.478 134.233 195.754 134.261 196.058C134.261 196.085 134.261 196.113 134.261 196.14C134.289 196.444 134.344 196.775 134.399 197.079C134.454 197.41 134.537 197.741 134.62 198.045C134.703 198.349 134.785 198.625 134.868 198.928C134.924 199.122 134.979 199.287 135.034 199.481C135.089 199.619 135.144 199.784 135.2 199.922C135.227 200.005 135.255 200.06 135.282 200.143C135.365 200.392 135.476 200.64 135.586 200.888C135.586 200.916 135.614 200.944 135.614 200.971C135.752 201.275 135.89 201.551 136.028 201.827C136.028 201.855 136.055 201.855 136.055 201.882C136.193 202.158 136.359 202.434 136.497 202.71C136.497 202.738 136.525 202.738 136.525 202.765C136.69 203.042 136.856 203.318 137.021 203.566C137.021 203.594 137.049 203.594 137.049 203.621C137.215 203.87 137.38 204.118 137.574 204.339C137.601 204.367 137.601 204.394 137.629 204.394C137.822 204.643 138.015 204.863 138.208 205.084C138.402 205.305 138.622 205.526 138.816 205.719C138.843 205.747 138.843 205.747 138.871 205.774C139.092 205.968 139.285 206.161 139.506 206.354C139.727 206.547 139.947 206.685 140.168 206.851C140.196 206.879 140.196 206.879 140.224 206.879C140.417 207.017 140.638 207.127 140.831 207.237C140.858 207.265 140.886 207.265 140.914 207.293C141.107 207.403 141.3 207.486 141.493 207.569C141.521 207.596 141.576 207.596 141.604 207.624C141.797 207.707 141.963 207.762 142.156 207.789C142.183 207.789 142.183 207.789 142.211 207.817C142.432 207.872 142.625 207.9 142.818 207.927C142.846 207.927 142.874 207.927 142.901 207.927C143.067 207.955 143.232 207.955 143.37 207.955C143.426 207.955 143.481 207.955 143.536 207.955C143.674 207.955 143.784 207.927 143.922 207.9C143.978 207.9 144.033 207.872 144.088 207.872C144.254 207.845 144.419 207.789 144.585 207.734L110.935 220.184C110.77 220.239 110.604 220.294 110.439 220.322C110.383 220.322 110.328 220.349 110.273 220.349C110.135 220.377 110.024 220.377 109.886 220.405C109.831 220.405 109.776 220.405 109.721 220.405C109.555 220.405 109.39 220.405 109.252 220.377C109.224 220.377 109.196 220.377 109.169 220.377C109.169 220.377 109.169 220.377 109.141 220.377C108.948 220.349 108.755 220.322 108.561 220.267C108.561 220.267 108.561 220.267 108.534 220.267C108.506 220.267 108.506 220.267 108.479 220.239C108.368 220.211 108.23 220.184 108.12 220.129C108.065 220.101 108.009 220.073 107.927 220.046C107.899 220.018 107.844 220.018 107.816 219.991C107.789 219.991 107.761 219.963 107.706 219.963C107.595 219.908 107.457 219.853 107.347 219.797C107.292 219.77 107.264 219.742 107.209 219.742C107.181 219.715 107.154 219.715 107.126 219.687C107.098 219.659 107.043 219.632 107.016 219.632C106.905 219.577 106.822 219.521 106.712 219.438C106.657 219.411 106.602 219.356 106.546 219.328C106.519 219.328 106.519 219.3 106.491 219.3C106.464 219.273 106.436 219.273 106.408 219.245C106.326 219.19 106.215 219.107 106.132 219.024C106.049 218.942 105.939 218.886 105.856 218.804C105.856 218.804 105.856 218.804 105.829 218.804C105.608 218.748 105.525 218.666 105.442 218.583Z" fill="url(#paint43_linear_1274_52193)"/>
<path d="M134.125 192.331C133.325 197.051 135.671 203.345 139.37 206.354C143.042 209.39 146.685 208.01 147.486 203.262C148.286 198.542 145.94 192.248 142.269 189.239C138.542 186.23 134.926 187.611 134.125 192.331Z" fill="#898989"/>
<path d="M141.117 161.966C149.481 118.02 188.43 86.5236 228.125 91.658C267.848 96.7924 293.244 136.598 284.88 180.544C276.515 224.49 237.566 255.987 197.843 250.852C158.149 245.745 132.753 205.94 141.117 161.966ZM271.574 178.86C278.393 143.03 257.689 110.595 225.31 106.426C192.957 102.23 161.185 127.875 154.367 163.705C147.549 199.536 168.279 231.971 200.604 236.139C233.011 240.335 264.756 214.691 271.574 178.86Z" fill="url(#paint44_linear_1274_52193)"/>
<path d="M272.372 175.906C280.736 131.96 255.34 92.1549 215.617 87.0205C175.923 81.8585 136.945 113.355 128.609 157.329C120.245 201.275 145.641 241.08 185.336 246.215C225.058 251.349 264.035 219.852 272.372 175.906ZM233.643 109.159C253.463 121.471 264.311 146.839 259.094 174.195C252.276 210.025 220.531 235.67 188.151 231.474C182.796 230.784 177.772 229.321 173.135 227.223C149.699 216.485 136.2 188.936 141.887 159.04C148.705 123.21 180.477 97.5653 212.829 101.734C220.476 102.727 227.487 105.322 233.643 109.159Z" fill="url(#paint45_linear_1274_52193)"/>
<path opacity="0.34" d="M259.096 174.195C264.313 146.839 253.465 121.471 233.645 109.159C229.007 107.034 224.011 105.571 218.683 104.908C186.331 100.712 154.559 126.357 147.74 162.215C142.523 189.543 153.372 214.911 173.164 227.25C177.801 229.376 182.825 230.811 188.181 231.502C220.505 235.67 252.278 210.025 259.096 174.195Z" fill="url(#paint46_linear_1274_52193)"/>
<path d="M461.649 305.399L426.564 287.428C426.564 287.428 395.841 271.252 390.982 265.676C386.124 260.1 378.781 221.592 378.781 221.592C378.781 221.592 392.114 209.142 397.607 227.968C403.101 246.795 409.615 254.386 416.268 257.063C422.92 259.741 423.638 259.631 423.638 259.631L413.783 221.426C413.783 221.426 381.266 184.823 379.609 175.52C377.953 166.217 382.95 161.166 392.252 171.379C401.555 181.593 426.619 212.317 433.686 212.924C440.753 213.531 485.306 206.106 490.523 210.743C495.74 215.381 514.318 285.468 514.318 285.468C514.318 285.468 469.351 309.346 461.649 305.399Z" fill="url(#paint47_linear_1274_52193)"/>
<path d="M415.188 197.272C415.188 197.272 416.154 194.484 421.067 193.905C425.981 193.297 430.259 195.257 430.259 195.257L449.306 211.737C449.306 211.737 437.326 216.181 429.404 210.826C421.481 205.471 415.188 197.272 415.188 197.272Z" fill="url(#paint48_linear_1274_52193)"/>
<path d="M465.595 209.667L446.437 191.834C446.437 191.834 443.042 189.433 436.941 191.061C430.841 192.69 431.724 196.555 431.724 196.555L450.302 212.399C450.302 212.372 466.644 211.792 465.595 209.667Z" fill="url(#paint49_linear_1274_52193)"/>
<path d="M489.753 210.274C489.753 210.274 464.467 191.862 460.906 190.206C457.345 188.549 453.37 188.163 451.659 189.957C449.947 191.751 450.638 195.727 450.638 195.727L466.482 209.998C466.482 209.998 485.419 207.541 489.753 210.274Z" fill="url(#paint50_linear_1274_52193)"/>
<path d="M499.19 275.282C498.804 275.337 498.39 275.393 497.976 275.448C497.782 275.475 497.617 275.503 497.424 275.531C497.341 275.531 497.258 275.558 497.175 275.586C497.037 275.613 496.899 275.641 496.761 275.669C496.347 275.751 495.96 275.834 495.546 275.917C495.132 276 494.718 276.11 494.304 276.221H494.277H494.249C493.863 276.331 493.476 276.414 493.09 276.524C492.676 276.635 492.234 276.773 491.82 276.911C491.682 276.966 491.516 277.021 491.378 277.049C491.295 277.076 491.213 277.104 491.102 277.132C490.909 277.187 490.716 277.242 490.55 277.325C490.108 277.463 489.694 277.629 489.253 277.794C488.949 277.905 488.618 278.043 488.314 278.153C488.259 278.181 488.204 278.208 488.149 278.208C488.093 278.236 488.038 278.263 487.983 278.263C487.569 278.429 487.155 278.622 486.741 278.788C486.327 278.981 485.913 279.147 485.499 279.34C485.416 279.368 485.36 279.423 485.278 279.45C485.222 279.478 485.14 279.506 485.084 279.533C484.836 279.644 484.56 279.782 484.312 279.92C483.925 280.113 483.539 280.306 483.152 280.527C482.876 280.665 482.6 280.831 482.324 280.969C482.269 280.996 482.214 281.024 482.186 281.051C482.131 281.079 482.076 281.107 482.02 281.134C481.634 281.355 481.247 281.576 480.861 281.797C480.447 282.045 480.033 282.294 479.619 282.542C479.564 282.57 479.481 282.625 479.426 282.652C479.343 282.708 479.26 282.763 479.177 282.818C478.846 283.039 478.515 283.232 478.183 283.453C477.769 283.729 477.383 284.005 476.969 284.281C476.776 284.419 476.555 284.557 476.361 284.695C476.279 284.75 476.196 284.806 476.113 284.861C475.754 285.109 475.423 285.385 475.092 285.634C474.595 286.02 474.07 286.407 473.573 286.793C473.491 286.848 473.408 286.904 473.325 286.986C472.607 287.566 471.917 288.173 471.227 288.781C470.758 289.195 470.316 289.609 469.874 290.023C469.516 290.354 469.157 290.713 468.826 291.072L468.798 291.099C468.798 291.099 468.798 291.099 468.77 291.127C468.411 291.486 468.08 291.845 467.721 292.204C467.39 292.562 467.059 292.921 466.728 293.28C466.672 293.335 466.617 293.391 466.562 293.446C466.507 293.501 466.452 293.556 466.396 293.639C466.176 293.887 465.955 294.136 465.734 294.384C465.403 294.771 465.099 295.157 464.795 295.544C464.713 295.654 464.602 295.792 464.519 295.903C464.436 295.985 464.381 296.096 464.298 296.179C464.16 296.372 463.995 296.565 463.857 296.731C463.553 297.117 463.277 297.531 463.001 297.918C462.891 298.083 462.753 298.277 462.642 298.442C462.587 298.525 462.532 298.608 462.449 298.718C462.366 298.856 462.283 298.994 462.173 299.105C461.924 299.491 461.676 299.878 461.428 300.264C461.262 300.54 461.096 300.844 460.931 301.12C460.903 301.175 460.876 301.23 460.848 301.285C460.82 301.341 460.793 301.368 460.765 301.423C460.544 301.81 460.351 302.169 460.158 302.555C459.965 302.914 459.771 303.301 459.606 303.659C459.578 303.742 459.523 303.825 459.495 303.908C459.357 304.184 459.247 304.46 459.136 304.736C458.971 305.095 458.833 305.454 458.695 305.813C458.612 306.033 458.529 306.282 458.446 306.503C458.419 306.558 458.419 306.613 458.391 306.668C458.364 306.723 458.336 306.806 458.308 306.861C458.198 307.22 458.087 307.552 457.977 307.883C457.867 308.242 457.784 308.573 457.701 308.932C457.673 308.987 457.673 309.042 457.673 309.097C457.673 309.153 457.646 309.208 457.646 309.263C457.591 309.484 457.535 309.732 457.48 309.953C457.397 310.312 457.342 310.671 457.287 311.002C457.259 311.168 457.232 311.333 457.232 311.499C457.232 311.582 457.204 311.637 457.204 311.72C457.204 311.83 457.177 311.941 457.177 312.051C457.149 312.438 457.121 312.796 457.094 313.155C457.094 313.376 457.094 313.597 457.094 313.818C457.094 313.901 457.094 313.983 457.094 314.039C457.094 314.121 457.094 314.177 457.094 314.259C457.094 314.646 457.121 315.06 457.177 315.419C457.204 315.584 457.232 315.75 457.259 315.916C457.287 316.054 457.287 316.164 457.315 316.302C457.342 316.44 457.342 316.578 457.37 316.689C457.453 317.186 457.563 317.655 457.701 318.096V318.124C457.729 318.234 457.784 318.317 457.811 318.428C457.977 318.897 458.115 319.366 458.336 319.78C458.364 319.808 458.391 319.836 458.391 319.891C458.695 320.526 459.054 321.133 459.44 321.713L473.353 342.443C472.939 341.864 472.607 341.257 472.276 340.622C472.055 340.152 471.862 339.655 471.696 339.159C471.669 339.048 471.614 338.965 471.586 338.855C471.42 338.275 471.282 337.64 471.172 337.005C471.144 336.867 471.144 336.757 471.117 336.619C471.034 336.012 470.979 335.377 470.979 334.714C470.979 334.631 470.979 334.549 470.979 334.493C470.979 333.803 471.006 333.113 471.089 332.395C471.089 332.313 471.117 332.257 471.117 332.175C471.199 331.429 471.338 330.684 471.531 329.911C471.531 329.856 471.558 329.801 471.558 329.745C471.752 328.945 472 328.117 472.276 327.289C472.304 327.233 472.304 327.178 472.331 327.123C472.635 326.267 472.966 325.412 473.38 324.528C473.794 323.645 474.236 322.762 474.733 321.878C474.76 321.823 474.788 321.768 474.816 321.713C475.285 320.884 475.782 320.084 476.306 319.283C476.361 319.201 476.417 319.118 476.472 319.007C476.996 318.234 477.548 317.462 478.128 316.716C478.183 316.633 478.266 316.551 478.321 316.44C478.929 315.667 479.536 314.922 480.198 314.177C480.254 314.121 480.309 314.066 480.364 313.983C481.054 313.183 481.8 312.41 482.545 311.637L482.572 311.609C483.345 310.837 484.146 310.064 484.974 309.318C485.719 308.656 486.52 307.993 487.293 307.358C487.79 306.972 488.287 306.585 488.811 306.199C489.225 305.868 489.639 305.564 490.081 305.233C490.274 305.095 490.495 304.957 490.716 304.791C491.433 304.294 492.179 303.797 492.924 303.328C493.007 303.273 493.09 303.218 493.172 303.163C494.083 302.583 494.994 302.058 495.933 301.534C495.988 301.506 496.043 301.479 496.099 301.451C497.009 300.954 497.948 300.485 498.859 300.016C498.914 299.988 498.969 299.96 499.025 299.933C499.991 299.491 500.929 299.049 501.895 298.663C501.951 298.635 502.006 298.608 502.061 298.608C503 298.221 503.911 297.89 504.849 297.586C504.932 297.559 505.015 297.531 505.125 297.504C506.091 297.172 507.057 296.896 508.024 296.648C508.051 296.648 508.051 296.648 508.079 296.648C509.045 296.399 510.011 296.179 510.977 296.013C511.06 295.985 511.143 295.985 511.226 295.958C512.192 295.792 513.158 295.654 514.096 295.571C515.035 295.489 515.946 295.433 516.829 295.433C516.912 295.433 516.995 295.433 517.078 295.433C517.878 295.433 518.679 295.488 519.424 295.544C519.535 295.544 519.617 295.571 519.728 295.571C520.473 295.654 521.163 295.765 521.853 295.903C521.991 295.93 522.102 295.958 522.24 295.985C522.875 296.123 523.482 296.317 524.089 296.51C524.144 296.537 524.227 296.537 524.282 296.565C524.945 296.814 525.58 297.09 526.187 297.393C526.27 297.448 526.353 297.476 526.408 297.531C526.877 297.78 527.347 298.083 527.761 298.359C527.926 298.47 528.064 298.58 528.23 298.691C528.589 298.967 528.92 299.243 529.224 299.546C529.362 299.684 529.5 299.795 529.61 299.905C530.024 300.319 530.411 300.761 530.742 301.23L516.829 280.499C516.498 280.03 516.112 279.588 515.698 279.147C515.587 279.009 515.449 278.898 515.311 278.788C515.007 278.484 514.676 278.208 514.317 277.932C514.179 277.822 514.014 277.711 513.848 277.601C513.406 277.297 512.965 277.021 512.495 276.745C512.413 276.69 512.357 276.662 512.275 276.607C512.247 276.607 512.247 276.58 512.219 276.58C511.667 276.303 511.06 276.027 510.425 275.807C510.398 275.807 510.37 275.807 510.37 275.779C510.315 275.751 510.232 275.751 510.177 275.724C509.79 275.586 509.376 275.448 508.962 275.337C508.769 275.282 508.548 275.227 508.327 275.199C508.189 275.172 508.079 275.144 507.941 275.117C507.83 275.089 507.72 275.061 507.609 275.034C507.195 274.951 506.754 274.868 506.312 274.813C506.146 274.785 506.008 274.785 505.843 274.758C505.732 274.758 505.65 274.73 505.539 274.73C505.374 274.702 505.236 274.702 505.07 274.675C504.683 274.647 504.269 274.62 503.855 274.62C503.634 274.62 503.386 274.62 503.165 274.62C503.082 274.62 503 274.62 502.917 274.62C502.834 274.62 502.724 274.62 502.641 274.62C502.254 274.62 501.868 274.647 501.454 274.647C501.067 274.675 500.653 274.702 500.239 274.73C500.212 274.73 500.184 274.73 500.156 274.73C499.963 275.172 499.577 275.227 499.19 275.282Z" fill="url(#paint51_linear_1274_52193)"/>
<path d="M473.516 324.749C480.169 310.257 498.415 297.311 514.233 295.875C530.05 294.44 537.475 305.012 530.823 319.504C524.17 333.997 505.951 346.915 490.134 348.379C474.289 349.814 466.864 339.242 473.516 324.749Z" fill="url(#paint52_linear_1274_52193)"/>
<path d="M519.837 292.286C519.34 292.342 518.843 292.424 518.346 292.507C518.126 292.535 517.905 292.59 517.656 292.618C517.546 292.645 517.463 292.645 517.353 292.673C517.187 292.7 516.994 292.728 516.828 292.756C516.331 292.838 515.834 292.949 515.31 293.059C514.786 293.17 514.289 293.308 513.764 293.418C513.737 293.418 513.737 293.418 513.709 293.418C513.681 293.418 513.681 293.418 513.654 293.418C513.157 293.529 512.688 293.667 512.191 293.805C511.666 293.943 511.142 294.108 510.59 294.274C510.396 294.329 510.231 294.412 510.038 294.467C509.927 294.495 509.817 294.55 509.706 294.577C509.486 294.66 509.237 294.716 509.016 294.798C508.492 294.992 507.94 295.185 507.415 295.378C507.029 295.516 506.642 295.682 506.256 295.847C506.173 295.875 506.118 295.903 506.035 295.93C505.952 295.958 505.897 295.985 505.814 296.013C505.29 296.234 504.765 296.455 504.268 296.675C503.771 296.896 503.247 297.145 502.75 297.366C502.667 297.421 502.557 297.448 502.474 297.504C502.391 297.531 502.308 297.586 502.253 297.614C501.922 297.78 501.618 297.918 501.287 298.083C500.79 298.332 500.321 298.58 499.824 298.829C499.465 299.022 499.134 299.187 498.803 299.381C498.747 299.408 498.692 299.436 498.609 299.491C498.554 299.519 498.471 299.574 498.389 299.601C497.919 299.878 497.422 300.154 496.953 300.43C496.429 300.733 495.904 301.065 495.407 301.368C495.325 301.423 495.242 301.479 495.187 301.506C495.076 301.561 494.993 301.644 494.883 301.699C494.469 301.948 494.055 302.224 493.641 302.5C493.144 302.831 492.647 303.19 492.122 303.549C491.874 303.715 491.598 303.908 491.35 304.073C491.239 304.156 491.156 304.211 491.046 304.294C490.604 304.598 490.19 304.957 489.776 305.26C489.141 305.73 488.506 306.199 487.899 306.696C487.789 306.779 487.706 306.834 487.595 306.917C486.712 307.634 485.829 308.38 485.001 309.125C484.421 309.622 483.869 310.146 483.317 310.671C482.875 311.085 482.433 311.527 481.992 311.968L481.964 311.996C481.964 311.996 481.964 311.996 481.936 312.023C481.495 312.465 481.081 312.907 480.639 313.348C480.225 313.79 479.811 314.232 479.425 314.673C479.369 314.756 479.286 314.811 479.231 314.894C479.176 314.977 479.093 315.06 479.038 315.115C478.762 315.419 478.486 315.75 478.21 316.054C477.823 316.523 477.409 316.992 477.051 317.489C476.94 317.627 476.83 317.793 476.719 317.931C476.636 318.041 476.554 318.152 476.471 318.262C476.305 318.483 476.112 318.731 475.946 318.952C475.587 319.449 475.229 319.946 474.87 320.443C474.704 320.664 474.566 320.884 474.428 321.105C474.345 321.216 474.29 321.326 474.207 321.437C474.097 321.602 473.986 321.768 473.876 321.933C473.572 322.43 473.269 322.9 472.965 323.396C472.744 323.755 472.551 324.114 472.358 324.473C472.33 324.528 472.275 324.611 472.247 324.666C472.22 324.721 472.165 324.777 472.137 324.859C471.889 325.329 471.64 325.798 471.392 326.267C471.143 326.737 470.922 327.178 470.702 327.647C470.646 327.758 470.591 327.868 470.564 327.979C470.398 328.338 470.26 328.669 470.094 329.028C469.901 329.469 469.735 329.911 469.57 330.353C469.459 330.629 469.349 330.932 469.266 331.208C469.239 331.264 469.211 331.346 469.183 331.402C469.156 331.484 469.128 331.567 469.101 331.65C468.962 332.092 468.824 332.506 468.686 332.948C468.548 333.389 468.438 333.803 468.328 334.245C468.3 334.328 468.3 334.383 468.272 334.466C468.245 334.521 468.245 334.604 468.217 334.659C468.162 334.935 468.079 335.239 468.024 335.515C467.941 335.956 467.858 336.398 467.803 336.84C467.775 337.061 467.748 337.254 467.72 337.475C467.72 337.557 467.693 337.668 467.693 337.751C467.665 337.889 467.665 338.027 467.637 338.165C467.582 338.634 467.555 339.076 467.555 339.545C467.555 339.821 467.555 340.097 467.555 340.373C467.555 340.456 467.555 340.566 467.555 340.649C467.555 340.732 467.555 340.842 467.555 340.925C467.555 341.422 467.61 341.919 467.637 342.388C467.665 342.609 467.693 342.802 467.72 343.023C467.748 343.189 467.775 343.354 467.803 343.492C467.831 343.658 467.831 343.824 467.886 343.989C467.996 344.597 468.134 345.176 468.3 345.756V345.784C468.328 345.922 468.41 346.032 468.438 346.17C468.631 346.75 468.824 347.329 469.073 347.881C469.101 347.937 469.128 347.964 469.156 348.02C469.542 348.82 469.984 349.593 470.481 350.283L493.558 382.553C493.061 381.835 492.619 381.089 492.233 380.289C491.957 379.709 491.708 379.074 491.515 378.467C491.46 378.329 491.405 378.219 491.377 378.081C491.156 377.335 490.991 376.59 490.853 375.789C490.825 375.624 490.797 375.458 490.797 375.32C490.687 374.547 490.632 373.774 490.632 372.946C490.632 372.863 490.632 372.753 490.632 372.67C490.632 371.814 490.687 370.959 490.797 370.075C490.797 369.993 490.825 369.882 490.825 369.799C490.935 368.888 491.101 367.95 491.322 366.984C491.35 366.928 491.35 366.846 491.377 366.79C491.626 365.797 491.929 364.775 492.288 363.726C492.316 363.671 492.343 363.588 492.371 363.533C492.757 362.484 493.171 361.408 493.668 360.303C494.165 359.199 494.745 358.095 495.352 357.019C495.38 356.963 495.435 356.88 495.463 356.825C496.042 355.804 496.65 354.81 497.312 353.816C497.395 353.706 497.45 353.596 497.533 353.485C498.195 352.519 498.885 351.58 499.603 350.642C499.686 350.531 499.769 350.421 499.852 350.311C500.597 349.344 501.37 348.406 502.198 347.495C502.253 347.412 502.336 347.357 502.391 347.274C503.275 346.28 504.186 345.314 505.124 344.376L505.152 344.348C506.118 343.382 507.112 342.443 508.161 341.505C509.099 340.677 510.065 339.849 511.059 339.048C511.666 338.551 512.301 338.082 512.936 337.613C513.461 337.226 513.985 336.812 514.509 336.426C514.758 336.232 515.034 336.067 515.282 335.901C516.193 335.266 517.104 334.659 518.015 334.079C518.126 334.024 518.208 333.941 518.319 333.886C519.451 333.168 520.582 332.506 521.742 331.871C521.797 331.843 521.88 331.788 521.935 331.761C523.067 331.126 524.226 330.546 525.386 329.994C525.468 329.966 525.524 329.911 525.606 329.883C526.793 329.304 527.98 328.779 529.195 328.282C529.278 328.255 529.333 328.227 529.416 328.2C530.575 327.73 531.735 327.316 532.894 326.902C533.004 326.875 533.115 326.819 533.225 326.792C534.412 326.405 535.627 326.046 536.814 325.743C536.841 325.743 536.841 325.743 536.869 325.715C538.083 325.412 539.27 325.135 540.485 324.942C540.595 324.915 540.678 324.915 540.789 324.887C541.976 324.666 543.19 324.501 544.377 324.418C545.564 324.307 546.696 324.252 547.8 324.252C547.911 324.252 547.993 324.252 548.104 324.252C549.125 324.252 550.091 324.307 551.03 324.39C551.168 324.39 551.278 324.418 551.416 324.418C552.327 324.528 553.211 324.666 554.066 324.832C554.232 324.859 554.37 324.915 554.536 324.942C555.336 325.135 556.109 325.356 556.827 325.605C556.91 325.632 556.992 325.66 557.075 325.688C557.903 325.991 558.704 326.322 559.449 326.709C559.56 326.764 559.642 326.819 559.725 326.875C560.332 327.206 560.885 327.537 561.437 327.924C561.63 328.062 561.823 328.2 562.016 328.338C562.458 328.669 562.872 329.028 563.259 329.387C563.424 329.552 563.59 329.69 563.728 329.856C564.225 330.38 564.722 330.932 565.136 331.512L542.058 299.243C541.644 298.635 541.148 298.111 540.651 297.559C540.485 297.393 540.319 297.255 540.181 297.09C539.795 296.731 539.381 296.372 538.939 296.041C538.746 295.903 538.58 295.764 538.36 295.626C537.835 295.24 537.255 294.909 536.648 294.577C536.538 294.522 536.455 294.467 536.372 294.412C536.344 294.412 536.317 294.384 536.317 294.384C535.599 294.025 534.854 293.694 534.081 293.418C534.053 293.418 534.026 293.391 533.998 293.391C533.915 293.363 533.832 293.335 533.75 293.308C533.253 293.142 532.756 292.976 532.231 292.838C531.983 292.783 531.707 292.728 531.431 292.645C531.265 292.618 531.127 292.562 530.962 292.535C530.824 292.507 530.686 292.452 530.548 292.424C530.023 292.314 529.471 292.231 528.919 292.176C528.726 292.148 528.532 292.148 528.339 292.121C528.201 292.093 528.091 292.093 527.953 292.093C527.76 292.065 527.566 292.038 527.373 292.038C526.876 292.01 526.379 291.983 525.882 291.955C525.606 291.955 525.303 291.955 525.027 291.955C524.916 291.955 524.833 291.955 524.723 291.955C524.613 291.955 524.475 291.955 524.364 291.955C523.895 291.955 523.398 291.983 522.901 292.01C522.404 292.038 521.907 292.066 521.411 292.121C521.383 292.121 521.355 292.121 521.328 292.121C520.776 292.204 520.306 292.231 519.837 292.286Z" fill="url(#paint53_linear_1274_52193)"/>
<path d="M493.613 360.414C501.894 342.361 524.613 326.24 544.322 324.445C564.031 322.651 573.279 335.818 564.97 353.872C556.689 371.897 533.998 388.018 514.289 389.812C494.579 391.607 485.332 378.439 493.613 360.414Z" fill="url(#paint54_linear_1274_52193)"/>
<path d="M17.8828 232.771C17.8828 232.771 25.5568 204.946 32.099 199.895C38.6412 194.843 50.235 196.361 50.235 199.895C50.235 203.428 36.212 223.496 36.212 223.496L17.8828 232.771Z" fill="url(#paint55_linear_1274_52193)"/>
<path d="M0.0234375 245.166C0.0234375 245.166 11.2031 211.488 20.0365 205.084C28.8699 198.652 31.1334 200.668 31.1334 203.704C31.1334 206.741 17.911 234.096 17.911 234.096L0.0234375 245.166Z" fill="url(#paint56_linear_1274_52193)"/>
<path d="M36.2422 223.496C36.2422 223.496 43.9714 200.281 53.55 194.788C63.1287 189.295 72.9558 189.653 72.4589 192.386C71.9621 195.119 57.3318 214.939 53.0532 217.506C48.7469 220.073 36.2422 223.496 36.2422 223.496Z" fill="url(#paint57_linear_1274_52193)"/>
<path d="M45.7102 350.393C45.7102 350.393 36.2696 328.282 31.3284 324.749C26.3873 321.216 24.3446 315.833 24.7586 310.312C25.1727 304.791 25.1727 304.791 25.1727 304.791C25.1727 304.791 -6.87582 247.705 1.35024 241.936C9.5763 236.167 53.8259 215.187 55.2061 213.669C56.5863 212.151 65.4749 188.549 84.8254 186.948C100.781 185.623 95.0114 203.29 95.0114 203.29C95.0114 203.29 83.8593 204.505 82.6723 213.117C81.4853 221.757 79.0009 246.298 84.3562 247.788C89.7114 249.279 91.34 248.727 91.34 231.529C91.34 214.332 99.2624 204.035 107.82 204.67C116.405 205.305 109.421 228.382 111.464 240.694C113.506 252.978 116.405 262.032 104.066 277.656C91.7265 293.28 92.8583 315.06 96.1984 326.157C99.5385 337.254 104.728 349.952 83.8041 359.31C62.8801 368.667 52.6941 363.147 52.6941 363.147L45.7102 350.393Z" fill="url(#paint58_linear_1274_52193)"/>
<path d="M440.091 48.0984H507.362C511.42 48.0984 514.594 51.5765 514.235 55.6068L509.046 128.979C508.715 132.706 505.457 135.494 501.703 135.245L433.465 130.635C429.601 130.387 426.702 126.992 427.061 123.127L433.189 54.3646C433.521 50.8312 436.502 48.0984 440.091 48.0984Z" fill="url(#paint59_linear_1274_52193)"/>
<path d="M436.946 45.1172H504.245C508.303 45.1172 511.477 48.5953 511.118 52.6256L505.929 125.998C505.597 129.724 502.34 132.512 498.586 132.264L430.348 127.682C426.484 127.433 423.585 124.038 423.944 120.173L430.072 51.411C430.376 47.85 433.357 45.1172 436.946 45.1172Z" fill="url(#paint60_linear_1274_52193)"/>
<path d="M447.461 74.4053C451.408 85.4471 453.396 91.0231 457.343 102.203C471.477 96.2403 478.516 93.2591 492.621 87.2965C491.048 82.7142 490.247 80.4231 488.674 75.8684C478.24 80.009 473.022 82.0517 462.56 86.1924C460.932 79.7882 460.104 76.5861 458.475 70.2095C454.114 71.8933 451.878 72.7215 447.461 74.4053Z" fill="url(#paint61_linear_1274_52193)"/>
<path d="M60.2874 82.6867L126.4 86.6893C130.375 86.9378 133.328 90.5539 132.748 94.529L123.556 166.659C123.032 170.33 119.664 172.898 115.993 172.428L49.2181 163.816C45.4363 163.319 42.7863 159.813 43.3384 156.031L53.1931 88.5112C53.69 85.0055 56.7817 82.4659 60.2874 82.6867Z" fill="url(#paint62_linear_1274_52193)"/>
<path d="M57.3577 79.5673L123.47 83.57C127.445 83.8184 130.398 87.4346 129.819 91.4096L120.627 163.512C120.102 167.183 116.734 169.751 113.063 169.281L46.2884 160.669C42.5066 160.172 39.8566 156.666 40.4087 152.884L50.2634 85.3642C50.7603 81.8861 53.852 79.3465 57.3577 79.5673Z" fill="url(#paint63_linear_1274_52193)"/>
<path d="M101.169 131.767C101.997 129.724 102.439 127.599 102.522 125.501L108.126 123.099C108.015 121.305 107.684 119.538 107.159 117.855L101.197 118.269C100.396 116.392 99.2647 114.653 97.774 113.162L100.286 107.613C99.6235 107.061 98.9058 106.564 98.1605 106.068C97.4152 105.598 96.6423 105.157 95.8417 104.798L91.6735 109.297C89.686 108.58 87.5881 108.276 85.4902 108.331L83.4474 102.865C81.6532 103.086 79.8589 103.528 78.1474 104.163L78.175 110.125C76.2427 111.064 74.4209 112.306 72.8474 113.88L67.4646 111.726C66.8849 112.417 66.3052 113.162 65.8083 113.962C65.2839 114.735 64.8146 115.563 64.4005 116.364L68.624 120.284C67.7958 122.327 67.3542 124.452 67.2714 126.55L61.6953 128.952C61.8057 130.746 62.137 132.513 62.6339 134.224L68.5964 133.81C69.3969 135.687 70.5287 137.426 72.0193 138.917L69.5073 144.465C70.1698 145.017 70.8875 145.514 71.6328 146.011C72.3781 146.48 73.1511 146.922 73.9516 147.281L78.1474 142.781C80.1349 143.499 82.2329 143.803 84.3308 143.747L86.3735 149.213C88.1678 148.992 89.962 148.551 91.6735 147.916L91.6459 141.953C93.5782 141.042 95.3725 139.772 96.9735 138.199L102.356 140.38C102.936 139.662 103.516 138.917 104.04 138.144C104.565 137.371 105.034 136.57 105.448 135.742L101.169 131.767ZM80.7422 132.264C77.4297 130.166 76.6292 125.667 78.9203 122.216C80.687 119.538 83.8339 118.269 86.6771 118.821C87.5053 118.986 88.3058 119.29 89.0511 119.759C92.3636 121.857 93.1641 126.357 90.873 129.807C89.962 131.188 88.6923 132.181 87.2844 132.761C85.1589 133.617 82.7297 133.506 80.7422 132.264Z" fill="url(#paint64_linear_1274_52193)"/>
<defs>
<linearGradient id="paint0_linear_1274_52193" x1="69.2628" y1="419.785" x2="132.556" y2="381.555" gradientUnits="userSpaceOnUse">
<stop stop-color="#7F7F7F"/>
<stop offset="1" stop-color="#444444"/>
</linearGradient>
<linearGradient id="paint1_linear_1274_52193" x1="85.544" y1="343.755" x2="82.1025" y2="405.916" gradientUnits="userSpaceOnUse">
<stop stop-color="#7F7F7F"/>
<stop offset="1" stop-color="#444444"/>
</linearGradient>
<linearGradient id="paint2_linear_1274_52193" x1="59.7772" y1="381.187" x2="110.769" y2="350.419" gradientUnits="userSpaceOnUse">
<stop stop-color="#3ABAF9"/>
<stop offset="1" stop-color="#267EBD"/>
</linearGradient>
<linearGradient id="paint3_linear_1274_52193" x1="74.8253" y1="322.996" x2="72.0516" y2="372.928" gradientUnits="userSpaceOnUse">
<stop stop-color="#3ABAF9"/>
<stop offset="1" stop-color="#267EBD"/>
</linearGradient>
<linearGradient id="paint4_linear_1274_52193" x1="297.913" y1="104.341" x2="274.168" y2="261.362" gradientUnits="userSpaceOnUse">
<stop stop-color="#7F7F7F"/>
<stop offset="1" stop-color="#444444"/>
</linearGradient>
<linearGradient id="paint5_linear_1274_52193" x1="420.382" y1="201.638" x2="141.752" y2="89.9133" gradientUnits="userSpaceOnUse">
<stop stop-color="#7F7F7F"/>
<stop offset="1" stop-color="#444444"/>
</linearGradient>
<linearGradient id="paint6_linear_1274_52193" x1="413.509" y1="198.88" x2="149.418" y2="92.9858" gradientUnits="userSpaceOnUse">
<stop stop-color="#FBFBFB"/>
<stop offset="1" stop-color="#E5E5E5"/>
</linearGradient>
<linearGradient id="paint7_linear_1274_52193" x1="420.938" y1="203.949" x2="217.591" y2="122.412" gradientUnits="userSpaceOnUse">
<stop stop-color="#7F7F7F"/>
<stop offset="1" stop-color="#FEFEFF"/>
</linearGradient>
<linearGradient id="paint8_linear_1274_52193" x1="390.337" y1="63.783" x2="195.566" y2="-14.3154" gradientUnits="userSpaceOnUse">
<stop stop-color="#82FB7C"/>
<stop offset="1" stop-color="#0BA2B3"/>
</linearGradient>
<linearGradient id="paint9_linear_1274_52193" x1="343.535" y1="26.2299" x2="379.714" y2="26.2299" gradientUnits="userSpaceOnUse">
<stop stop-color="#DD2F2F"/>
<stop offset="1" stop-color="#FF6757"/>
</linearGradient>
<linearGradient id="paint10_linear_1274_52193" x1="193.704" y1="82.2757" x2="239.882" y2="82.2757" gradientUnits="userSpaceOnUse">
<stop stop-color="#82FB7C"/>
<stop offset="1" stop-color="#0BA2B3"/>
</linearGradient>
<linearGradient id="paint11_linear_1274_52193" x1="207.714" y1="92.1015" x2="226.437" y2="109.533" gradientUnits="userSpaceOnUse">
<stop stop-color="#FBFBFB"/>
<stop offset="0.6814" stop-color="#E5E5E5"/>
<stop offset="1" stop-color="#A4A4A6"/>
</linearGradient>
<linearGradient id="paint12_linear_1274_52193" x1="210.333" y1="76.1414" x2="224.569" y2="89.3949" gradientUnits="userSpaceOnUse">
<stop stop-color="#FFD4AE"/>
<stop offset="1" stop-color="#E5A26A"/>
</linearGradient>
<linearGradient id="paint13_linear_1274_52193" x1="213.745" y1="68.0697" x2="227.948" y2="81.2929" gradientUnits="userSpaceOnUse">
<stop stop-color="#7F7F7F"/>
<stop offset="1" stop-color="#444444"/>
</linearGradient>
<linearGradient id="paint14_linear_1274_52193" x1="249.63" y1="103.647" x2="260.239" y2="104.615" gradientUnits="userSpaceOnUse">
<stop stop-color="#FE7F0A"/>
<stop offset="1" stop-color="#FFB538"/>
</linearGradient>
<linearGradient id="paint15_linear_1274_52193" x1="266.02" y1="104.421" x2="276.594" y2="105.386" gradientUnits="userSpaceOnUse">
<stop stop-color="#FE7F0A"/>
<stop offset="1" stop-color="#FFB538"/>
</linearGradient>
<linearGradient id="paint16_linear_1274_52193" x1="282.351" y1="105.176" x2="292.895" y2="106.138" gradientUnits="userSpaceOnUse">
<stop stop-color="#FE7F0A"/>
<stop offset="1" stop-color="#FFB538"/>
</linearGradient>
<linearGradient id="paint17_linear_1274_52193" x1="298.635" y1="105.918" x2="309.152" y2="106.878" gradientUnits="userSpaceOnUse">
<stop stop-color="#FE7F0A"/>
<stop offset="1" stop-color="#FFB538"/>
</linearGradient>
<linearGradient id="paint18_linear_1274_52193" x1="314.891" y1="106.652" x2="325.388" y2="107.61" gradientUnits="userSpaceOnUse">
<stop stop-color="#FE7F0A"/>
<stop offset="1" stop-color="#FFB538"/>
</linearGradient>
<linearGradient id="paint19_linear_1274_52193" x1="368.2" y1="80.6706" x2="386.111" y2="82.3054" gradientUnits="userSpaceOnUse">
<stop stop-color="#FBFBFB"/>
<stop offset="1" stop-color="#E5E5E5"/>
</linearGradient>
<linearGradient id="paint20_linear_1274_52193" x1="187.19" y1="152.368" x2="233.172" y2="152.368" gradientUnits="userSpaceOnUse">
<stop stop-color="#3ABAF9"/>
<stop offset="1" stop-color="#267EBD"/>
</linearGradient>
<linearGradient id="paint21_linear_1274_52193" x1="357.261" y1="154.924" x2="383.826" y2="154.924" gradientUnits="userSpaceOnUse">
<stop stop-color="#82FB7C"/>
<stop offset="1" stop-color="#0BA2B3"/>
</linearGradient>
<linearGradient id="paint22_linear_1274_52193" x1="201.028" y1="162.095" x2="219.993" y2="179.752" gradientUnits="userSpaceOnUse">
<stop stop-color="#FBFBFB"/>
<stop offset="0.6814" stop-color="#E5E5E5"/>
<stop offset="1" stop-color="#A4A4A6"/>
</linearGradient>
<linearGradient id="paint23_linear_1274_52193" x1="203.636" y1="146.137" x2="217.996" y2="159.507" gradientUnits="userSpaceOnUse">
<stop stop-color="#FFD4AE"/>
<stop offset="1" stop-color="#E5A26A"/>
</linearGradient>
<linearGradient id="paint24_linear_1274_52193" x1="207.058" y1="138.027" x2="221.402" y2="151.382" gradientUnits="userSpaceOnUse">
<stop stop-color="#7F7F7F"/>
<stop offset="1" stop-color="#444444"/>
</linearGradient>
<linearGradient id="paint25_linear_1274_52193" x1="242.913" y1="174.6" x2="253.538" y2="175.57" gradientUnits="userSpaceOnUse">
<stop stop-color="#FE7F0A"/>
<stop offset="1" stop-color="#FFB538"/>
</linearGradient>
<linearGradient id="paint26_linear_1274_52193" x1="259.287" y1="175.774" x2="269.891" y2="176.742" gradientUnits="userSpaceOnUse">
<stop stop-color="#FE7F0A"/>
<stop offset="1" stop-color="#FFB538"/>
</linearGradient>
<linearGradient id="paint27_linear_1274_52193" x1="275.63" y1="176.946" x2="286.216" y2="177.912" gradientUnits="userSpaceOnUse">
<stop stop-color="#FE7F0A"/>
<stop offset="1" stop-color="#FFB538"/>
</linearGradient>
<linearGradient id="paint28_linear_1274_52193" x1="291.946" y1="178.118" x2="302.517" y2="179.083" gradientUnits="userSpaceOnUse">
<stop stop-color="#FE7F0A"/>
<stop offset="1" stop-color="#FFB538"/>
</linearGradient>
<linearGradient id="paint29_linear_1274_52193" x1="308.243" y1="179.296" x2="318.802" y2="180.26" gradientUnits="userSpaceOnUse">
<stop stop-color="#FE7F0A"/>
<stop offset="1" stop-color="#FFB538"/>
</linearGradient>
<linearGradient id="paint30_linear_1274_52193" x1="361.778" y1="154.244" x2="379.84" y2="155.892" gradientUnits="userSpaceOnUse">
<stop stop-color="#FBFBFB"/>
<stop offset="1" stop-color="#E5E5E5"/>
</linearGradient>
<linearGradient id="paint31_linear_1274_52193" x1="180.777" y1="222.261" x2="226.502" y2="222.261" gradientUnits="userSpaceOnUse">
<stop stop-color="#DD2F2F"/>
<stop offset="1" stop-color="#FF6757"/>
</linearGradient>
<linearGradient id="paint32_linear_1274_52193" x1="194.434" y1="231.868" x2="213.548" y2="249.664" gradientUnits="userSpaceOnUse">
<stop stop-color="#FBFBFB"/>
<stop offset="0.6814" stop-color="#E5E5E5"/>
<stop offset="1" stop-color="#A4A4A6"/>
</linearGradient>
<linearGradient id="paint33_linear_1274_52193" x1="197.029" y1="216.057" x2="211.441" y2="229.475" gradientUnits="userSpaceOnUse">
<stop stop-color="#FFD4AE"/>
<stop offset="1" stop-color="#E5A26A"/>
</linearGradient>
<linearGradient id="paint34_linear_1274_52193" x1="200.41" y1="207.969" x2="214.872" y2="221.434" gradientUnits="userSpaceOnUse">
<stop stop-color="#7F7F7F"/>
<stop offset="1" stop-color="#444444"/>
</linearGradient>
<linearGradient id="paint35_linear_1274_52193" x1="236.223" y1="245.089" x2="246.847" y2="246.059" gradientUnits="userSpaceOnUse">
<stop stop-color="#FE7F0A"/>
<stop offset="1" stop-color="#FFB538"/>
</linearGradient>
<linearGradient id="paint36_linear_1274_52193" x1="252.572" y1="246.562" x2="263.19" y2="247.531" gradientUnits="userSpaceOnUse">
<stop stop-color="#FE7F0A"/>
<stop offset="1" stop-color="#FFB538"/>
</linearGradient>
<linearGradient id="paint37_linear_1274_52193" x1="268.912" y1="248.036" x2="279.524" y2="249.004" gradientUnits="userSpaceOnUse">
<stop stop-color="#FE7F0A"/>
<stop offset="1" stop-color="#FFB538"/>
</linearGradient>
<linearGradient id="paint38_linear_1274_52193" x1="285.248" y1="249.511" x2="295.856" y2="250.479" gradientUnits="userSpaceOnUse">
<stop stop-color="#FE7F0A"/>
<stop offset="1" stop-color="#FFB538"/>
</linearGradient>
<linearGradient id="paint39_linear_1274_52193" x1="301.578" y1="250.988" x2="312.183" y2="251.956" gradientUnits="userSpaceOnUse">
<stop stop-color="#FE7F0A"/>
<stop offset="1" stop-color="#FFB538"/>
</linearGradient>
<linearGradient id="paint40_linear_1274_52193" x1="355.332" y1="227.904" x2="373.511" y2="229.564" gradientUnits="userSpaceOnUse">
<stop stop-color="#FBFBFB"/>
<stop offset="1" stop-color="#E5E5E5"/>
</linearGradient>
<linearGradient id="paint41_linear_1274_52193" x1="70.7017" y1="240.171" x2="61.5852" y2="208.7" gradientUnits="userSpaceOnUse">
<stop stop-color="#7F7F7F"/>
<stop offset="1" stop-color="#444444"/>
</linearGradient>
<linearGradient id="paint42_linear_1274_52193" x1="110.669" y1="202.704" x2="94.9892" y2="221.688" gradientUnits="userSpaceOnUse">
<stop stop-color="#7F7F7F"/>
<stop offset="1" stop-color="#444444"/>
</linearGradient>
<linearGradient id="paint43_linear_1274_52193" x1="123.858" y1="213.407" x2="118.47" y2="194.814" gradientUnits="userSpaceOnUse">
<stop stop-color="#FBFBFB"/>
<stop offset="1" stop-color="#E5E5E5"/>
</linearGradient>
<linearGradient id="paint44_linear_1274_52193" x1="139.573" y1="188.739" x2="286.42" y2="153.812" gradientUnits="userSpaceOnUse">
<stop stop-color="#7F7F7F"/>
<stop offset="1" stop-color="#444444"/>
</linearGradient>
<linearGradient id="paint45_linear_1274_52193" x1="188.048" y1="130.723" x2="231.032" y2="254.619" gradientUnits="userSpaceOnUse">
<stop stop-color="#FBFBFB"/>
<stop offset="1" stop-color="#E5E5E5"/>
</linearGradient>
<linearGradient id="paint46_linear_1274_52193" x1="147.297" y1="163.079" x2="259.526" y2="173.282" gradientUnits="userSpaceOnUse">
<stop stop-color="#82FB7C"/>
<stop offset="1" stop-color="#0BA2B3"/>
</linearGradient>
<linearGradient id="paint47_linear_1274_52193" x1="382.592" y1="243.185" x2="503.001" y2="221.809" gradientUnits="userSpaceOnUse">
<stop stop-color="#FFD4AE"/>
<stop offset="1" stop-color="#E5A26A"/>
</linearGradient>
<linearGradient id="paint48_linear_1274_52193" x1="416.784" y1="206.262" x2="447.368" y2="200.832" gradientUnits="userSpaceOnUse">
<stop stop-color="#FFD4AE"/>
<stop offset="1" stop-color="#E5A26A"/>
</linearGradient>
<linearGradient id="paint49_linear_1274_52193" x1="433.08" y1="204.07" x2="463.654" y2="198.642" gradientUnits="userSpaceOnUse">
<stop stop-color="#FFD4AE"/>
<stop offset="1" stop-color="#E5A26A"/>
</linearGradient>
<linearGradient id="paint50_linear_1274_52193" x1="451.944" y1="203.105" x2="487.364" y2="196.817" gradientUnits="userSpaceOnUse">
<stop stop-color="#FFD4AE"/>
<stop offset="1" stop-color="#E5A26A"/>
</linearGradient>
<linearGradient id="paint51_linear_1274_52193" x1="510.726" y1="287.236" x2="464.89" y2="325.259" gradientUnits="userSpaceOnUse">
<stop stop-color="#3ABAF9"/>
<stop offset="1" stop-color="#267EBD"/>
</linearGradient>
<linearGradient id="paint52_linear_1274_52193" x1="504.517" y1="347.019" x2="499.819" y2="297.231" gradientUnits="userSpaceOnUse">
<stop stop-color="#3ABAF9"/>
<stop offset="1" stop-color="#267EBD"/>
</linearGradient>
<linearGradient id="paint53_linear_1274_52193" x1="536.979" y1="310.5" x2="480.09" y2="357.734" gradientUnits="userSpaceOnUse">
<stop stop-color="#7F7F7F"/>
<stop offset="1" stop-color="#444444"/>
</linearGradient>
<linearGradient id="paint54_linear_1274_52193" x1="532.211" y1="388.106" x2="526.351" y2="326.127" gradientUnits="userSpaceOnUse">
<stop stop-color="#7F7F7F"/>
<stop offset="1" stop-color="#444444"/>
</linearGradient>
<linearGradient id="paint55_linear_1274_52193" x1="25.2786" y1="212.469" x2="39.5297" y2="217.464" gradientUnits="userSpaceOnUse">
<stop stop-color="#FFD4AE"/>
<stop offset="1" stop-color="#E5A26A"/>
</linearGradient>
<linearGradient id="paint56_linear_1274_52193" x1="10.7547" y1="221.833" x2="22.3614" y2="225.359" gradientUnits="userSpaceOnUse">
<stop stop-color="#FFD4AE"/>
<stop offset="1" stop-color="#E5A26A"/>
</linearGradient>
<linearGradient id="paint57_linear_1274_52193" x1="46.6966" y1="203.346" x2="57.7155" y2="209.369" gradientUnits="userSpaceOnUse">
<stop stop-color="#FFD4AE"/>
<stop offset="1" stop-color="#E5A26A"/>
</linearGradient>
<linearGradient id="paint58_linear_1274_52193" x1="-0.00236326" y1="275.826" x2="113.311" y2="275.826" gradientUnits="userSpaceOnUse">
<stop stop-color="#FFD4AE"/>
<stop offset="1" stop-color="#E5A26A"/>
</linearGradient>
<linearGradient id="paint59_linear_1274_52193" x1="456.227" y1="110.29" x2="491.963" y2="65.68" gradientUnits="userSpaceOnUse">
<stop stop-color="#82FB7C"/>
<stop offset="1" stop-color="#0BA2B3"/>
</linearGradient>
<linearGradient id="paint60_linear_1274_52193" x1="473.879" y1="37.6044" x2="462.452" y2="136.878" gradientUnits="userSpaceOnUse">
<stop stop-color="#82FB7C"/>
<stop offset="1" stop-color="#0BA2B3"/>
</linearGradient>
<linearGradient id="paint61_linear_1274_52193" x1="446.485" y1="85.1665" x2="492.459" y2="89.3627" gradientUnits="userSpaceOnUse">
<stop stop-color="#FBFBFB"/>
<stop offset="1" stop-color="#E5E5E5"/>
</linearGradient>
<linearGradient id="paint62_linear_1274_52193" x1="72.6724" y1="145.055" x2="110.498" y2="103.346" gradientUnits="userSpaceOnUse">
<stop stop-color="#FE7F0A"/>
<stop offset="1" stop-color="#FFB538"/>
</linearGradient>
<linearGradient id="paint63_linear_1274_52193" x1="94.071" y1="74.35" x2="76.8208" y2="171.589" gradientUnits="userSpaceOnUse">
<stop stop-color="#FE7F0A"/>
<stop offset="1" stop-color="#FFB538"/>
</linearGradient>
<linearGradient id="paint64_linear_1274_52193" x1="82.9906" y1="145.652" x2="84.6038" y2="104.598" gradientUnits="userSpaceOnUse">
<stop stop-color="#FAFAFA"/>
<stop offset="1" stop-color="#EAEAEA"/>
</linearGradient>
</defs>
</svg>
