<svg width="480" height="455" viewBox="0 0 480 455" fill="none" xmlns="http://www.w3.org/2000/svg">
<path d="M237.171 113.593L237.215 114.228L204.939 123.847L97.0036 155.991L96.7188 39.5315L198.278 51.6705L233.621 55.8775C237.434 56.0528 241.4 58.3973 244.862 62.9768C252.794 73.4506 255.073 91.7248 249.923 103.754C246.965 110.7 242.211 114.009 237.171 113.593Z" fill="url(#paint0_linear_1274_51564)"/>
<path d="M92.8425 24.0827C119.202 58.944 126.761 119.661 109.714 159.671C92.6672 199.682 57.4775 203.867 31.0961 168.984C4.7367 134.122 -2.82273 73.4056 14.2243 33.3951C31.2714 -6.61538 66.4831 -10.8005 92.8425 24.0827Z" fill="url(#paint1_linear_1274_51564)"/>
<path d="M87.7386 24.0614C114.098 58.9226 121.657 119.64 104.61 159.65C87.5633 199.661 52.3736 203.846 25.9923 168.962C-0.389088 134.079 -7.92662 73.3843 9.12046 33.3738C26.1675 -6.63671 61.3573 -10.7999 87.7386 24.0614Z" fill="url(#paint2_linear_1274_51564)"/>
<path d="M97.2266 149.9C82.8089 183.732 53.0532 187.259 30.7693 157.767C8.48543 128.295 2.0873 76.9787 16.505 43.1472C30.9227 9.31581 60.6784 5.78805 82.9623 35.2591C86.8845 40.4521 90.3465 46.3463 93.2607 52.6788C103.932 75.905 107.613 105.354 102.967 130.399C101.697 137.323 99.7903 143.875 97.2266 149.9Z" fill="url(#paint3_linear_1274_51564)"/>
<path d="M102.971 130.42L60.9664 130.157L52.9688 62.8664L93.2638 52.6995C103.935 75.9257 107.594 105.375 102.971 130.42Z" fill="url(#paint4_linear_1274_51564)"/>
<path d="M67.6932 71.1055C76.9398 83.3321 79.5911 104.63 73.6093 118.675C67.6275 132.721 55.2914 134.167 46.0447 121.94C36.7981 109.714 34.1468 88.4156 40.1287 74.3703C46.1105 60.3469 58.4466 58.8788 67.6932 71.1055Z" fill="url(#paint5_linear_1274_51564)"/>
<path d="M237.174 113.592L237.218 114.227L204.942 123.846C222.603 85.9612 209.412 62.976 198.281 51.6477L233.624 55.8547C237.437 56.03 241.403 58.3745 244.865 62.9541C252.797 73.4278 255.076 91.702 249.926 103.731C246.968 110.699 242.214 114.008 237.174 113.592Z" fill="url(#paint6_linear_1274_51564)"/>
<path d="M204.945 123.847L169.602 234.807L192.192 231.783L237.22 114.228L204.945 123.847Z" fill="url(#paint7_linear_1274_51564)"/>
<path d="M179.151 129.719L157.195 225.056L169.597 234.807L204.94 123.847L179.151 129.719Z" fill="url(#paint8_linear_1274_51564)"/>
<path d="M59.7323 80.5917C65.4731 88.1731 67.1165 101.386 63.4135 110.107C59.7104 118.805 52.0414 119.726 46.3006 112.144C40.5599 104.563 38.9165 91.3503 42.6195 82.6295C46.3226 73.9087 53.9916 73.0103 59.7323 80.5917Z" fill="url(#paint9_linear_1274_51564)"/>
<path d="M269.453 32.234L416.062 85.1285C424.257 88.0866 428.442 97.1799 425.374 105.331L333.675 349.075C330.301 358.037 319.849 362.047 311.347 357.62L167.455 293.003C159.699 288.972 156.127 279.791 159.129 271.574L244.759 43.7814C248.396 33.7898 259.439 28.6405 269.453 32.234Z" fill="url(#paint10_linear_1274_51564)"/>
<path d="M266.711 27.2816L413.32 80.1761C421.515 83.1341 425.7 92.2274 422.632 100.379L330.933 344.123C327.559 353.084 317.107 357.094 308.605 352.668L164.713 288.051C156.956 284.019 153.385 274.838 156.387 266.621L242.016 38.829C245.654 28.8373 256.697 23.6662 266.711 27.2816Z" fill="url(#paint11_linear_1274_51564)"/>
<path d="M165.522 266.469L249.136 44.22C251.655 37.274 259.324 33.7024 266.27 36.2003L404.356 86.0272C411.39 88.5689 415.005 96.3913 412.376 103.381L324.686 336.498C322.188 343.137 314.454 346.095 308.187 342.809L171.569 282.004C165.938 279.09 163.352 272.429 165.522 266.469Z" fill="url(#paint12_linear_1274_51564)"/>
<path d="M309.332 60.6753L301.597 78.0731C300.501 80.5272 302.254 83.3099 304.927 83.3757L321.076 83.8796C322.303 83.9234 323.486 84.3836 324.429 85.1943L338.474 97.3333C340.336 98.9329 343.207 98.3632 344.302 96.172L355.148 74.3481" stroke="#919191" stroke-width="6.2288" stroke-miterlimit="10"/>
<path d="M362.2 57.5642L351.793 53.7297C353.042 51.8015 353.765 49.5446 353.765 47.1344C353.765 40.035 347.586 34.2942 339.96 34.2942C333.343 34.2942 327.8 38.6327 326.463 44.4173L316.581 40.78C314.565 40.035 312.286 40.9553 311.388 42.9054L304.267 58.0463C303.259 60.2155 304.267 62.7792 306.48 63.6776L352.516 82.2366C354.663 83.0912 357.095 82.0614 357.95 79.914L364.655 62.9983C365.487 60.8291 364.392 58.375 362.2 57.5642ZM339.96 53.7297C336.06 53.7297 332.883 50.7717 332.883 47.1344C332.883 43.497 336.06 40.539 339.96 40.539C343.861 40.539 347.038 43.497 347.038 47.1344C347.038 50.7717 343.861 53.7297 339.96 53.7297Z" fill="url(#paint13_linear_1274_51564)"/>
<path d="M257.266 77.3499L281.435 87.0786C283.714 87.9989 284.787 90.6064 283.801 92.8414L274.27 114.95C273.306 117.185 270.698 118.193 268.485 117.207L245.456 106.865C243.331 105.923 242.345 103.468 243.177 101.299L251.569 79.7821C252.468 77.569 255.032 76.4515 257.266 77.3499Z" fill="url(#paint14_linear_1274_51564)"/>
<path d="M252.906 90.0148L259.282 105.243L277.162 97.3332L274.818 92.0525L261.78 97.3332L257.573 88.3057L252.906 90.0148Z" fill="white"/>
<path d="M294.359 95.6023L385.445 132.458" stroke="#B3B3B3" stroke-width="12.4576" stroke-miterlimit="10" stroke-linecap="round" stroke-linejoin="round"/>
<path d="M290.703 104.301L381.789 141.156" stroke="#B3B3B3" stroke-width="12.4576" stroke-miterlimit="10" stroke-linecap="round" stroke-linejoin="round"/>
<path d="M287.039 113L378.147 149.856" stroke="#B3B3B3" stroke-width="12.4576" stroke-miterlimit="10" stroke-linecap="round" stroke-linejoin="round"/>
<path d="M283.383 121.721L374.49 158.576" stroke="#B3B3B3" stroke-width="12.4576" stroke-miterlimit="10" stroke-linecap="round" stroke-linejoin="round"/>
<path d="M237.454 127.769L261.622 137.497C263.901 138.418 264.975 141.025 263.989 143.26L254.457 165.369C253.493 167.604 250.886 168.612 248.673 167.626L225.644 157.284C223.518 156.341 222.532 153.887 223.365 151.718L231.757 130.201C232.655 127.966 235.197 126.87 237.454 127.769Z" fill="url(#paint15_linear_1274_51564)"/>
<path d="M233.094 140.434L239.47 155.663L257.328 147.731L255.005 142.45L241.946 147.731L237.761 138.725L233.094 140.434Z" fill="white"/>
<path d="M274.523 145.999L365.631 182.854" stroke="#B3B3B3" stroke-width="12.4576" stroke-miterlimit="10" stroke-linecap="round" stroke-linejoin="round"/>
<path d="M270.867 154.72L361.975 191.553" stroke="#B3B3B3" stroke-width="12.4576" stroke-miterlimit="10" stroke-linecap="round" stroke-linejoin="round"/>
<path d="M267.227 163.418L358.312 200.273" stroke="#B3B3B3" stroke-width="12.4576" stroke-miterlimit="10" stroke-linecap="round" stroke-linejoin="round"/>
<path d="M263.57 172.118L354.656 208.973" stroke="#B3B3B3" stroke-width="12.4576" stroke-miterlimit="10" stroke-linecap="round" stroke-linejoin="round"/>
<path d="M217.649 178.165L241.818 187.893C244.096 188.814 245.17 191.421 244.184 193.656L234.653 215.765C233.688 218 231.081 219.008 228.868 218.022L205.839 207.701C203.714 206.759 202.728 204.305 203.56 202.136L211.952 180.619C212.829 178.362 215.392 177.266 217.649 178.165Z" fill="url(#paint16_linear_1274_51564)"/>
<path d="M213.289 190.829L219.643 206.057L237.523 198.147L235.2 192.845L222.141 198.147L217.934 189.12L213.289 190.829Z" fill="white"/>
<path d="M254.719 196.417L345.826 233.272" stroke="#B3B3B3" stroke-width="12.4576" stroke-miterlimit="10" stroke-linecap="round" stroke-linejoin="round"/>
<path d="M251.062 205.115L342.17 241.971" stroke="#B3B3B3" stroke-width="12.4576" stroke-miterlimit="10" stroke-linecap="round" stroke-linejoin="round"/>
<path d="M247.398 213.815L338.506 250.671" stroke="#B3B3B3" stroke-width="12.4576" stroke-miterlimit="10" stroke-linecap="round" stroke-linejoin="round"/>
<path d="M243.742 222.536L334.85 259.369" stroke="#B3B3B3" stroke-width="12.4576" stroke-miterlimit="10" stroke-linecap="round" stroke-linejoin="round"/>
<path d="M197.865 223.544L328.763 278.257L309.679 328.456L178.758 270.851L197.865 223.544Z" stroke="#B3B3B3" stroke-width="6.2288" stroke-miterlimit="10" stroke-linecap="round" stroke-linejoin="round"/>
<path d="M341.603 216.752L458.654 260.071C464.92 262.394 468.054 269.427 465.556 275.628L437.509 345.526C434.463 353.129 425.699 356.679 418.205 353.349L306.26 303.566C299.774 300.673 296.728 293.179 299.358 286.584L324.271 224.443C327.032 217.607 334.701 214.21 341.603 216.752Z" fill="url(#paint17_linear_1274_51564)"/>
<path d="M340.353 213.881L457.404 257.2C463.67 259.522 466.804 266.556 464.306 272.757L436.259 342.655C433.213 350.258 424.449 353.808 416.955 350.477L305.01 300.694C298.524 297.802 295.478 290.308 298.108 283.713L323.021 221.572C325.782 214.735 333.451 211.317 340.353 213.881Z" fill="url(#paint18_linear_1274_51564)"/>
<path d="M340.702 233.162C331.433 235.77 326.021 245.411 328.607 254.679C331.192 263.948 340.855 269.382 350.124 266.775C359.392 264.167 364.804 254.526 362.219 245.257C359.633 235.989 349.97 230.555 340.702 233.162ZM351.197 263.444C353.498 260.946 354.506 257.331 353.498 253.825C352.95 251.919 351.898 250.275 350.518 249.048C352.95 247.58 354.199 244.6 353.388 241.73C352.424 238.268 348.831 236.252 345.369 237.216C341.907 238.18 339.891 241.774 340.855 245.236C340.986 245.74 341.206 246.222 341.447 246.66C341.271 246.704 341.096 246.726 340.943 246.769C335.64 248.259 332.507 253.715 333.843 259.018C332.682 257.55 331.784 255.841 331.258 253.913C329.067 246.112 333.624 237.983 341.425 235.814C349.225 233.644 357.332 238.18 359.524 245.981C361.561 253.168 357.858 260.596 351.197 263.444Z" fill="white"/>
<path d="M377.273 251.788L445.024 278.038" stroke="white" stroke-width="11.2202" stroke-miterlimit="10" stroke-linecap="round" stroke-linejoin="round"/>
<path d="M373.18 261.954L440.908 288.226" stroke="white" stroke-width="11.2202" stroke-miterlimit="10" stroke-linecap="round" stroke-linejoin="round"/>
<path d="M369.055 272.143L436.805 298.393" stroke="white" stroke-width="11.2202" stroke-miterlimit="10" stroke-linecap="round" stroke-linejoin="round"/>
<path d="M364.938 282.311L432.688 308.561" stroke="white" stroke-width="11.2202" stroke-miterlimit="10" stroke-linecap="round" stroke-linejoin="round"/>
<path d="M321.156 277.228L428.566 318.728" stroke="white" stroke-width="11.2202" stroke-miterlimit="10" stroke-linecap="round" stroke-linejoin="round"/>
<path d="M317.062 287.394L424.472 328.916" stroke="white" stroke-width="11.2202" stroke-miterlimit="10" stroke-linecap="round" stroke-linejoin="round"/>
<path d="M423.879 172.139L453.306 210.55C445.287 217.474 435.032 221.615 423.879 221.615C398.068 221.615 377.164 199.462 377.164 172.139C377.164 144.815 398.068 122.64 423.879 122.64C441.102 122.64 456.155 132.522 464.24 147.247L423.879 172.139Z" fill="url(#paint19_linear_1274_51564)"/>
<path d="M479.998 174.264C479.998 189.777 473.271 203.603 462.732 212.675L433.305 174.264L473.666 149.372C477.675 156.669 479.998 165.192 479.998 174.264Z" fill="url(#paint20_linear_1274_51564)"/>
<path d="M214.759 236.91C228.147 281.434 203.475 332.159 159.652 350.215C115.829 368.27 69.4426 346.796 56.0328 302.272C42.645 257.748 67.3172 207.023 111.14 188.967C154.985 170.934 201.371 192.408 214.759 236.91Z" fill="url(#paint21_linear_1274_51564)"/>
<path d="M198.588 243.593C209.259 279.045 189.604 319.428 154.721 333.802C119.838 348.176 82.8955 331.085 72.2246 295.632C61.5537 260.18 81.2083 219.797 116.091 205.423C150.974 191.049 187.917 208.14 198.588 243.593Z" fill="url(#paint22_linear_1274_51564)"/>
<path d="M181.194 250.736C188.928 276.438 174.686 305.712 149.378 316.12C124.092 326.528 97.3167 314.148 89.5819 288.446C81.8472 262.744 96.0896 233.47 121.397 223.062C146.705 212.654 173.481 225.056 181.194 250.736Z" fill="url(#paint23_linear_1274_51564)"/>
<path d="M167.433 256.41C172.845 274.377 162.875 294.864 145.192 302.139C127.51 309.436 108.776 300.759 103.364 282.791C97.9515 264.824 107.921 244.336 125.604 237.062C143.308 229.765 162.02 238.442 167.433 256.41Z" fill="url(#paint24_linear_1274_51564)"/>
<path d="M149.817 263.663C152.249 271.749 147.757 280.973 139.803 284.238C131.849 287.525 123.413 283.625 120.981 275.539C118.549 267.454 123.041 258.229 130.995 254.964C138.949 251.678 147.384 255.578 149.817 263.663Z" fill="url(#paint25_linear_1274_51564)"/>
<path d="M212.697 236.45C226.085 280.974 201.413 331.7 157.59 349.755C141.551 356.35 125.183 357.643 110.195 354.488C125.731 358.235 142.865 357.139 159.649 350.215C203.472 332.16 228.144 281.435 214.757 236.91C206.255 208.688 184.497 189.757 158.532 184.257C183.599 190.304 204.436 208.973 212.697 236.45Z" fill="white"/>
<path d="M137.262 262.5L26.4563 213.09L23.5859 220.145L134.26 271.046C134.239 271.046 140.9 270.367 137.262 262.5Z" fill="url(#paint26_linear_1274_51564)"/>
<path d="M57.9198 233.731C57.9198 233.731 52.3543 239.187 40.8508 239.647C29.3473 240.107 11.2266 229.129 11.2266 229.129C11.2266 229.129 23.7161 227.53 29.2816 220.65L57.9198 233.731Z" fill="url(#paint27_linear_1274_51564)"/>
<path d="M60.0634 228.823C60.0634 228.823 58.3104 212.082 44.1338 203.033C29.9571 194.005 21.9375 193.282 21.9375 193.282C21.9375 193.282 33.7478 204.654 31.1841 216.026L60.0634 228.823Z" fill="url(#paint28_linear_1274_51564)"/>
<path d="M243.766 339.061L243.657 376.048L213.266 391.759L213.397 354.772L243.766 339.061Z" fill="url(#paint29_linear_1274_51564)"/>
<path d="M213.399 354.772L213.268 391.759L182.68 376.048L182.811 339.061L213.399 354.772Z" fill="url(#paint30_linear_1274_51564)"/>
<path d="M243.77 339.061L213.401 354.771L182.812 339.061L213.204 323.35L243.77 339.061Z" fill="url(#paint31_linear_1274_51564)"/>
<path d="M285.423 330.582L285.313 396.996L254.922 412.706L255.031 346.292L285.423 330.582Z" fill="url(#paint32_linear_1274_51564)"/>
<path d="M255.034 346.292L254.924 412.706L224.336 396.996L224.467 330.582L255.034 346.292Z" fill="url(#paint33_linear_1274_51564)"/>
<path d="M285.426 330.584L255.035 346.294L224.469 330.584L254.838 314.873L285.426 330.584Z" fill="url(#paint34_linear_1274_51564)"/>
<path d="M327.071 325.544L326.94 417.923L296.57 433.633L296.68 341.254L327.071 325.544Z" fill="url(#paint35_linear_1274_51564)"/>
<path d="M296.682 341.254L296.573 433.633L265.984 417.923L266.094 325.544L296.682 341.254Z" fill="url(#paint36_linear_1274_51564)"/>
<path d="M327.073 325.544L296.682 341.254L266.094 325.544L296.485 309.811L327.073 325.544Z" fill="url(#paint37_linear_1274_51564)"/>
<path d="M368.734 352.842L368.602 438.867L338.211 454.578L338.342 368.553L368.734 352.842Z" fill="url(#paint38_linear_1274_51564)"/>
<path d="M338.339 368.553L338.207 454.578L307.641 438.867L307.75 352.842L338.339 368.553Z" fill="url(#paint39_linear_1274_51564)"/>
<path d="M368.729 352.842L338.338 368.553L307.75 352.842L338.141 337.131L368.729 352.842Z" fill="url(#paint40_linear_1274_51564)"/>
<path d="M128.185 316.623L165.829 329.857C170.255 331.413 172.622 335.817 171.088 339.652L153.296 384.461C152.047 387.616 147.906 388.909 144.465 387.222L106.252 371.686C102.439 369.824 100.621 365.814 101.979 362.33L120.735 319.471C121.787 316.82 125.096 315.549 128.185 316.623Z" fill="url(#paint41_linear_1274_51564)"/>
<path d="M125.888 313.512L163.532 326.747C167.958 328.302 170.325 332.707 168.791 336.541L150.999 381.35C149.75 384.506 145.609 385.798 142.169 384.111L103.955 368.576C100.142 366.713 98.3238 362.704 99.6823 359.22L118.439 316.361C119.512 313.709 122.821 312.438 125.888 313.512Z" fill="url(#paint42_linear_1274_51564)"/>
<path d="M118.156 342.545L126.263 362.704L154.157 352.055L150.848 344.649L130.361 352.142L124.905 339.784L118.156 342.545Z" fill="white"/>
<path d="M168.552 331.086C169.209 332.685 169.297 334.482 168.639 336.147L150.847 380.979C149.598 384.134 145.457 385.427 142.017 383.739L103.803 368.204C101.985 367.328 100.648 365.925 99.8594 364.348C100.604 366.101 102.029 367.634 104.001 368.599L142.214 384.134C145.676 385.821 149.795 384.528 151.066 381.373L168.858 336.564C169.538 334.723 169.362 332.795 168.552 331.086Z" fill="url(#paint43_linear_1274_51564)"/>
<defs>
<linearGradient id="paint0_linear_1274_51564" x1="159.553" y1="59.2697" x2="178.36" y2="133.292" gradientUnits="userSpaceOnUse">
<stop stop-color="#FBFBFB"/>
<stop offset="1" stop-color="#E5E5E5"/>
</linearGradient>
<linearGradient id="paint1_linear_1274_51564" x1="77.1703" y1="156.225" x2="48.8727" y2="44.9894" gradientUnits="userSpaceOnUse">
<stop stop-color="#FBFBFB"/>
<stop offset="1" stop-color="#E5E5E5"/>
</linearGradient>
<linearGradient id="paint2_linear_1274_51564" x1="-6.28357" y1="69.8348" x2="120.009" y2="123.212" gradientUnits="userSpaceOnUse">
<stop stop-color="#FBFBFB"/>
<stop offset="1" stop-color="#E5E5E5"/>
</linearGradient>
<linearGradient id="paint3_linear_1274_51564" x1="48.6754" y1="137.152" x2="66.9255" y2="46.6042" gradientUnits="userSpaceOnUse">
<stop stop-color="#ADADAD"/>
<stop offset="1" stop-color="#E5E5E5"/>
</linearGradient>
<linearGradient id="paint4_linear_1274_51564" x1="70.484" y1="73.0772" x2="93.7057" y2="135.82" gradientUnits="userSpaceOnUse">
<stop stop-color="#ADADAD"/>
<stop offset="1" stop-color="#E5E5E5"/>
</linearGradient>
<linearGradient id="paint5_linear_1274_51564" x1="34.7176" y1="87.1633" x2="79.0143" y2="105.885" gradientUnits="userSpaceOnUse">
<stop stop-color="#FBFBFB"/>
<stop offset="1" stop-color="#E5E5E5"/>
</linearGradient>
<linearGradient id="paint6_linear_1274_51564" x1="231.019" y1="112.585" x2="217.184" y2="55.2791" gradientUnits="userSpaceOnUse">
<stop stop-color="#3ABAF9"/>
<stop offset="1" stop-color="#267EBD"/>
</linearGradient>
<linearGradient id="paint7_linear_1274_51564" x1="236.623" y1="120.065" x2="167.804" y2="224.509" gradientUnits="userSpaceOnUse">
<stop stop-color="#3ABAF9"/>
<stop offset="1" stop-color="#267EBD"/>
</linearGradient>
<linearGradient id="paint8_linear_1274_51564" x1="149.572" y1="194.031" x2="213.373" y2="163.74" gradientUnits="userSpaceOnUse">
<stop stop-color="#3ABAF9"/>
<stop offset="1" stop-color="#267EBD"/>
</linearGradient>
<linearGradient id="paint9_linear_1274_51564" x1="39.2681" y1="90.5478" x2="66.7496" y2="102.163" gradientUnits="userSpaceOnUse">
<stop stop-color="#3ABAF9"/>
<stop offset="1" stop-color="#267EBD"/>
</linearGradient>
<linearGradient id="paint10_linear_1274_51564" x1="345.786" y1="107.347" x2="229.147" y2="290.804" gradientUnits="userSpaceOnUse">
<stop stop-color="#1FBAFC"/>
<stop offset="1" stop-color="#71B0EA"/>
</linearGradient>
<linearGradient id="paint11_linear_1274_51564" x1="155.338" y1="190.309" x2="423.63" y2="190.309" gradientUnits="userSpaceOnUse">
<stop stop-color="#1F77FC"/>
<stop offset="1" stop-color="#71DBEA"/>
</linearGradient>
<linearGradient id="paint12_linear_1274_51564" x1="164.762" y1="189.786" x2="413.241" y2="189.786" gradientUnits="userSpaceOnUse">
<stop stop-color="#FBFBFB"/>
<stop offset="1" stop-color="#E5E5E5"/>
</linearGradient>
<linearGradient id="paint13_linear_1274_51564" x1="345.25" y1="44.7728" x2="328.227" y2="71.5464" gradientUnits="userSpaceOnUse">
<stop stop-color="#7F7F7F"/>
<stop offset="1" stop-color="#444444"/>
</linearGradient>
<linearGradient id="paint14_linear_1274_51564" x1="242.886" y1="97.3276" x2="284.169" y2="97.3276" gradientUnits="userSpaceOnUse">
<stop stop-color="#3ABAF9"/>
<stop offset="1" stop-color="#267EBD"/>
</linearGradient>
<linearGradient id="paint15_linear_1274_51564" x1="223.066" y1="147.733" x2="264.349" y2="147.733" gradientUnits="userSpaceOnUse">
<stop stop-color="#3ABAF9"/>
<stop offset="1" stop-color="#267EBD"/>
</linearGradient>
<linearGradient id="paint16_linear_1274_51564" x1="203.255" y1="198.138" x2="244.537" y2="198.138" gradientUnits="userSpaceOnUse">
<stop stop-color="#3ABAF9"/>
<stop offset="1" stop-color="#267EBD"/>
</linearGradient>
<linearGradient id="paint17_linear_1274_51564" x1="450.681" y1="269.661" x2="308.05" y2="301.384" gradientUnits="userSpaceOnUse">
<stop stop-color="#3ABAF9"/>
<stop offset="1" stop-color="#267EBD"/>
</linearGradient>
<linearGradient id="paint18_linear_1274_51564" x1="297.162" y1="282.379" x2="465.183" y2="282.379" gradientUnits="userSpaceOnUse">
<stop stop-color="#3ABAF9"/>
<stop offset="1" stop-color="#267EBD"/>
</linearGradient>
<linearGradient id="paint19_linear_1274_51564" x1="377.172" y1="172.12" x2="464.251" y2="172.12" gradientUnits="userSpaceOnUse">
<stop stop-color="#3ABAF9"/>
<stop offset="1" stop-color="#82CEDB"/>
</linearGradient>
<linearGradient id="paint20_linear_1274_51564" x1="433.285" y1="181.014" x2="479.988" y2="181.014" gradientUnits="userSpaceOnUse">
<stop stop-color="#1F92FC"/>
<stop offset="1" stop-color="#71EAEA"/>
</linearGradient>
<linearGradient id="paint21_linear_1274_51564" x1="71.3808" y1="205.51" x2="135.653" y2="360.189" gradientUnits="userSpaceOnUse">
<stop stop-color="#FBFBFB"/>
<stop offset="1" stop-color="#E5E5E5"/>
</linearGradient>
<linearGradient id="paint22_linear_1274_51564" x1="84.4304" y1="218.576" x2="135.6" y2="341.722" gradientUnits="userSpaceOnUse">
<stop stop-color="#1F9FFC"/>
<stop offset="1" stop-color="#7193EA"/>
</linearGradient>
<linearGradient id="paint23_linear_1274_51564" x1="98.4547" y1="232.613" x2="135.548" y2="321.882" gradientUnits="userSpaceOnUse">
<stop stop-color="#FBFBFB"/>
<stop offset="1" stop-color="#E5E5E5"/>
</linearGradient>
<linearGradient id="paint24_linear_1274_51564" x1="109.558" y1="243.728" x2="135.503" y2="306.169" gradientUnits="userSpaceOnUse">
<stop stop-color="#1FC7FC"/>
<stop offset="1" stop-color="#71EAA9"/>
</linearGradient>
<linearGradient id="paint25_linear_1274_51564" x1="123.772" y1="257.959" x2="135.447" y2="286.057" gradientUnits="userSpaceOnUse">
<stop stop-color="#FBFBFB"/>
<stop offset="1" stop-color="#E5E5E5"/>
</linearGradient>
<linearGradient id="paint26_linear_1274_51564" x1="51.2139" y1="196.831" x2="110.557" y2="287.245" gradientUnits="userSpaceOnUse">
<stop stop-color="#ADADAD"/>
<stop offset="1" stop-color="#E5E5E5"/>
</linearGradient>
<linearGradient id="paint27_linear_1274_51564" x1="26.5" y1="219.113" x2="42.7651" y2="243.894" gradientUnits="userSpaceOnUse">
<stop stop-color="#ADADAD"/>
<stop offset="1" stop-color="#E5E5E5"/>
</linearGradient>
<linearGradient id="paint28_linear_1274_51564" x1="26.6698" y1="190.178" x2="54.4482" y2="232.501" gradientUnits="userSpaceOnUse">
<stop stop-color="#ADADAD"/>
<stop offset="1" stop-color="#E5E5E5"/>
</linearGradient>
<linearGradient id="paint29_linear_1274_51564" x1="213.272" y1="365.416" x2="243.776" y2="365.416" gradientUnits="userSpaceOnUse">
<stop stop-color="#15446B"/>
<stop offset="1" stop-color="#2375B0"/>
</linearGradient>
<linearGradient id="paint30_linear_1274_51564" x1="185.19" y1="296.649" x2="209.335" y2="425.849" gradientUnits="userSpaceOnUse">
<stop stop-color="#3ABAF9"/>
<stop offset="1" stop-color="#267EBD"/>
</linearGradient>
<linearGradient id="paint31_linear_1274_51564" x1="182.809" y1="339.066" x2="243.78" y2="339.066" gradientUnits="userSpaceOnUse">
<stop stop-color="#3ABAF9"/>
<stop offset="1" stop-color="#82CEDB"/>
</linearGradient>
<linearGradient id="paint32_linear_1274_51564" x1="254.922" y1="371.641" x2="285.426" y2="371.641" gradientUnits="userSpaceOnUse">
<stop stop-color="#15446B"/>
<stop offset="1" stop-color="#2375B0"/>
</linearGradient>
<linearGradient id="paint33_linear_1274_51564" x1="224.494" y1="290.324" x2="248.552" y2="419.056" gradientUnits="userSpaceOnUse">
<stop stop-color="#3ABAF9"/>
<stop offset="1" stop-color="#267EBD"/>
</linearGradient>
<linearGradient id="paint34_linear_1274_51564" x1="224.459" y1="330.582" x2="285.43" y2="330.582" gradientUnits="userSpaceOnUse">
<stop stop-color="#3ABAF9"/>
<stop offset="1" stop-color="#82CEDB"/>
</linearGradient>
<linearGradient id="paint35_linear_1274_51564" x1="296.564" y1="379.587" x2="327.068" y2="379.587" gradientUnits="userSpaceOnUse">
<stop stop-color="#15446B"/>
<stop offset="1" stop-color="#2375B0"/>
</linearGradient>
<linearGradient id="paint36_linear_1274_51564" x1="263.461" y1="283.955" x2="287.48" y2="412.476" gradientUnits="userSpaceOnUse">
<stop stop-color="#3ABAF9"/>
<stop offset="1" stop-color="#267EBD"/>
</linearGradient>
<linearGradient id="paint37_linear_1274_51564" x1="266.099" y1="325.533" x2="327.07" y2="325.533" gradientUnits="userSpaceOnUse">
<stop stop-color="#3ABAF9"/>
<stop offset="1" stop-color="#82CEDB"/>
</linearGradient>
<linearGradient id="paint38_linear_1274_51564" x1="338.221" y1="403.711" x2="368.725" y2="403.711" gradientUnits="userSpaceOnUse">
<stop stop-color="#15446B"/>
<stop offset="1" stop-color="#2375B0"/>
</linearGradient>
<linearGradient id="paint39_linear_1274_51564" x1="299.465" y1="277.865" x2="323.491" y2="406.429" gradientUnits="userSpaceOnUse">
<stop stop-color="#3ABAF9"/>
<stop offset="1" stop-color="#267EBD"/>
</linearGradient>
<linearGradient id="paint40_linear_1274_51564" x1="307.749" y1="352.848" x2="368.72" y2="352.848" gradientUnits="userSpaceOnUse">
<stop stop-color="#3ABAF9"/>
<stop offset="1" stop-color="#82CEDB"/>
</linearGradient>
<linearGradient id="paint41_linear_1274_51564" x1="143.54" y1="317.885" x2="129.54" y2="380.091" gradientUnits="userSpaceOnUse">
<stop stop-color="#82FB7C"/>
<stop offset="1" stop-color="#0BA2B3"/>
</linearGradient>
<linearGradient id="paint42_linear_1274_51564" x1="141.614" y1="358.478" x2="122.37" y2="321.357" gradientUnits="userSpaceOnUse">
<stop stop-color="#82FB7C"/>
<stop offset="1" stop-color="#0BA2B3"/>
</linearGradient>
<linearGradient id="paint43_linear_1274_51564" x1="148.564" y1="368.559" x2="138.336" y2="348.828" gradientUnits="userSpaceOnUse">
<stop stop-color="#FBFBFB"/>
<stop offset="1" stop-color="#0BA2B3"/>
</linearGradient>
</defs>
</svg>
