<svg width="337" height="50" viewBox="0 0 337 50" fill="none" xmlns="http://www.w3.org/2000/svg">
<path d="M28.5528 49.1921C24.14 49.1921 19.7273 49.1921 15.3146 49.1921C14.5559 49.1921 14.5661 49.186 14.2175 48.5386C13.9284 48.006 13.6126 47.4898 13.3092 46.9654C12.7453 45.9862 12.1834 45.005 11.6175 44.0278C11.1089 43.149 10.5943 42.2743 10.0857 41.3955C9.51158 40.404 8.94154 39.4084 8.36739 38.417C7.94908 37.6938 7.52872 36.9728 7.11042 36.2496C6.54652 35.2704 5.98263 34.2913 5.41873 33.3121C5.01068 32.6033 4.59852 31.8945 4.19047 31.1857C3.61017 30.1779 3.02987 29.172 2.44957 28.1642C2.04767 27.4697 1.64576 26.7753 1.24386 26.0808C1.08802 25.8125 0.934232 25.54 0.77019 25.2778C0.671765 25.1201 0.671765 24.9726 0.761988 24.8169C0.876817 24.6182 0.989596 24.4195 1.10443 24.2208C2.02511 22.6168 2.94375 21.0087 3.86853 19.4068C4.5083 18.3006 5.16242 17.2047 5.80218 16.0985C6.49936 14.8939 7.18218 13.6812 7.87526 12.4747C8.42275 11.5242 8.9805 10.5798 9.53004 9.62928C10.0939 8.6501 10.6496 7.66681 11.2135 6.68763C11.761 5.73712 12.3167 4.79071 12.8683 3.84225C13.385 2.9491 13.912 2.0621 14.4103 1.16075C14.56 0.888301 14.7548 0.802264 15.0439 0.808409C15.7001 0.818652 16.3562 0.812506 17.0124 0.812506C20.7034 0.812506 24.3943 0.812506 28.0852 0.812506C28.2657 0.812506 28.4461 0.814555 28.6245 0.832991C28.7599 0.847331 28.8214 0.966144 28.7681 1.08496C28.7414 1.14436 28.7025 1.19763 28.6696 1.25498C28.2431 1.99245 27.8146 2.72786 27.3881 3.46327C26.8037 4.46909 26.2193 5.47286 25.6349 6.47868C25.5036 6.70606 25.3683 6.92935 25.2453 7.16083C25.1263 7.38412 24.9541 7.50703 24.6937 7.49883C24.5624 7.49474 24.4312 7.49883 24.3 7.49883C22.5775 7.49883 20.8551 7.49883 19.1327 7.49883C19.0014 7.49883 18.8702 7.50293 18.7389 7.50088C18.54 7.49884 18.4006 7.58078 18.3022 7.759C18.0787 8.15845 17.8408 8.55177 17.6112 8.94713C17.0124 9.98163 16.4157 11.0161 15.819 12.0527C15.2572 13.0319 14.7015 14.0172 14.1355 14.9943C13.4958 16.1005 12.8457 17.1985 12.206 18.3047C11.64 19.2818 11.0823 20.2651 10.5184 21.2443C10.1185 21.9388 9.71663 22.6353 9.31268 23.3277C9.05637 23.766 8.80415 24.2065 8.53553 24.6366C8.37764 24.8907 8.38994 25.1262 8.53553 25.3741C8.8103 25.8391 9.08097 26.3062 9.35164 26.7753C9.93399 27.7811 10.5122 28.789 11.0946 29.7968C11.4719 30.4483 11.8471 31.1017 12.2244 31.7532C12.7001 32.5746 13.1779 33.3961 13.6516 34.2196C14.5579 35.7949 15.4602 37.3722 16.3685 38.9475C16.957 39.9697 17.5517 40.9858 18.1443 42.0059C18.1853 42.0776 18.2386 42.1411 18.2776 42.2128C18.3904 42.4238 18.5667 42.514 18.8025 42.5017C18.9337 42.4955 19.065 42.5017 19.1962 42.5017C25.4462 42.5017 31.6962 42.5017 37.9442 42.5017C37.977 42.5017 38.0098 42.5017 38.0426 42.5017C38.6885 42.4996 38.6762 42.5222 38.9961 41.9506C39.7589 40.5945 40.5606 39.263 41.3398 37.9151C42.037 36.7106 42.7178 35.4958 43.4129 34.2913C44.0506 33.1851 44.7048 32.0871 45.3445 30.9829C45.9105 30.0058 46.4662 29.0225 47.0301 28.0413C47.5427 27.1461 48.0471 26.2468 48.5823 25.3639C48.734 25.114 48.7299 24.9173 48.5926 24.6838C48.1845 23.9934 47.7826 23.299 47.3827 22.6045C46.8086 21.6131 46.2406 20.6175 45.6665 19.626C45.1661 18.7615 44.6596 17.8991 44.1593 17.0367C43.577 16.0309 42.9987 15.023 42.4143 14.0172C41.9632 13.2388 41.5059 12.4624 41.0528 11.6839C40.7452 11.1554 40.7575 11.1349 41.3521 11.1329C43.5339 11.1308 45.7157 11.1329 47.8974 11.1329C47.9794 11.1329 48.0615 11.137 48.1435 11.1349C48.3424 11.1329 48.4818 11.2128 48.5843 11.389C48.9186 11.9707 49.2631 12.5464 49.6014 13.1281C50.1366 14.0479 50.6697 14.9697 51.2029 15.8895C51.777 16.881 52.3471 17.8766 52.9192 18.8681C53.3949 19.6895 53.8747 20.511 54.3504 21.3324C54.8344 22.1682 55.3183 23.004 55.8002 23.8418C55.956 24.1122 56.0893 24.397 56.2677 24.6489C56.4625 24.9214 56.4194 25.1631 56.2656 25.4233C55.9991 25.8739 55.7345 26.3267 55.4721 26.7794C54.8897 27.7852 54.3115 28.7931 53.7291 29.8009C53.319 30.5097 52.9069 31.2165 52.4968 31.9252C51.9247 32.9188 51.3546 33.9123 50.7805 34.9038C50.2801 35.7682 49.7737 36.6286 49.2733 37.4931C48.814 38.2859 48.3567 39.0807 47.8995 39.8755C47.4586 40.6416 47.0157 41.4078 46.5748 42.1739C46.0109 43.1531 45.4511 44.1343 44.8852 45.1115C44.3767 45.9903 43.862 46.865 43.3535 47.7438C43.132 48.1269 42.9085 48.5079 42.6993 48.8971C42.5948 49.0917 42.4533 49.1962 42.2318 49.1901C42.0842 49.186 41.9365 49.1921 41.7889 49.1921C37.3782 49.1921 32.9655 49.1921 28.5528 49.1921Z" fill="#9CA3AF"/>
<path d="M47.2726 0.814276C51.6675 0.814276 56.0605 0.814276 60.4555 0.814276C61.1894 0.814276 61.1996 0.808131 61.5747 1.44312C62.1569 2.43042 62.7206 3.42796 63.2926 4.42141C63.6923 5.1158 64.0941 5.81019 64.4958 6.50663C64.955 7.30139 65.4122 8.0941 65.8713 8.88886C66.2649 9.56891 66.6585 10.249 67.0521 10.929C67.5031 11.7074 67.9561 12.4858 68.403 13.2682C68.8273 14.0056 69.2434 14.7492 69.6698 15.4866C70.2356 16.4636 70.8075 17.4387 71.3733 18.4157C72.3408 20.0872 73.3063 21.7607 74.2739 23.4321C74.5117 23.8438 74.7454 24.2576 74.9934 24.6611C75.139 24.8987 75.1349 25.1097 74.9934 25.3494C74.4522 26.265 73.9213 27.1888 73.3883 28.1085C72.8226 29.0855 72.2609 30.0667 71.6972 31.0458C71.2892 31.7545 70.8792 32.4633 70.4693 33.172C69.8891 34.1777 69.309 35.1855 68.7269 36.1933C68.3169 36.902 67.9048 37.6087 67.4949 38.3174C66.9229 39.3109 66.351 40.3043 65.7791 41.2957C65.3691 42.0045 64.9571 42.7111 64.5491 43.4199C63.9772 44.4113 63.4053 45.4068 62.8334 46.3982C62.3414 47.2482 61.8474 48.0983 61.3595 48.9504C61.2693 49.1081 61.1463 49.1921 60.9639 49.1901C60.8327 49.188 60.7015 49.1921 60.5703 49.1921C56.4213 49.1921 52.2743 49.1921 48.1253 49.1921C47.9449 49.1921 47.7645 49.188 47.5862 49.1634C47.4714 49.1491 47.4222 49.0508 47.4611 48.9422C47.5001 48.8357 47.5595 48.7374 47.6169 48.637C48.1868 47.6436 48.7567 46.6481 49.3286 45.6567C49.8513 44.7492 50.3823 43.8459 50.8947 42.9303C51.0772 42.6046 51.3191 42.4899 51.6921 42.494C53.2993 42.5125 54.9064 42.5022 56.5135 42.5022C56.6447 42.5022 56.7759 42.492 56.9071 42.5043C57.2433 42.5329 57.4483 42.3875 57.6123 42.0925C58.1862 41.0643 58.7869 40.0483 59.3752 39.0282C59.9389 38.0491 60.4924 37.0639 61.0582 36.0868C61.6977 34.9807 62.3475 33.8828 62.9871 32.7767C63.5529 31.7996 64.1105 30.8164 64.6742 29.8373C65.2215 28.8869 65.775 27.9385 66.3244 26.9901C66.6195 26.4801 66.9065 25.9639 67.212 25.46C67.4026 25.1445 67.3965 24.8578 67.2058 24.5423C66.6523 23.6144 66.1132 22.6783 65.572 21.7422C64.9079 20.5952 64.2499 19.444 63.5857 18.2949C63.0363 17.3444 62.4808 16.4001 61.9335 15.4497C61.3697 14.4706 60.8122 13.4874 60.2484 12.5103C59.7011 11.5599 59.1456 10.6136 58.5962 9.66518C58.2928 9.1408 57.9936 8.61438 57.6922 8.08795C57.6758 8.05928 57.6594 8.0306 57.6451 8.00192C57.479 7.63322 57.2105 7.49803 56.7903 7.49803C50.4438 7.51032 44.0993 7.50622 37.7528 7.50622C37.7036 7.50622 37.6544 7.51032 37.6052 7.50622C37.2916 7.47959 37.0866 7.60864 36.9328 7.88926C36.5885 8.5222 36.2154 9.13875 35.8546 9.76145C34.8727 11.4616 33.8887 13.1638 32.9089 14.8659C32.0028 16.4411 31.1029 18.0204 30.1928 19.5915C29.2088 21.2916 28.2228 22.9917 27.2224 24.6816C27.0728 24.9356 27.0974 25.1322 27.2327 25.3617C27.7226 26.1933 28.2105 27.027 28.6963 27.8627C29.2785 28.8684 29.8566 29.8783 30.4387 30.884C31.0783 31.9881 31.724 33.0901 32.3636 34.1962C32.9294 35.1732 33.4931 36.1523 34.0548 37.1335C34.3725 37.6866 34.6902 38.2417 35.0018 38.7988C35.092 38.9586 35.0428 39.0467 34.8665 39.063C34.7517 39.0733 34.6369 39.0712 34.5221 39.0712C32.3574 39.0712 30.1927 39.0712 28.028 39.0712C27.9297 39.0712 27.8313 39.0692 27.7329 39.0692C27.5545 39.0692 27.4172 38.9954 27.3249 38.8418C27.1404 38.5325 26.9519 38.2253 26.7715 37.9139C26.218 36.9491 25.6686 35.9803 25.1131 35.0155C24.5658 34.0651 24.0102 33.1208 23.4609 32.1704C22.7967 31.0233 22.1387 29.8721 21.4745 28.723C20.9251 27.7726 20.3717 26.8262 19.8223 25.8778C19.7075 25.6791 19.6091 25.4702 19.4861 25.2777C19.3652 25.0892 19.3734 24.9233 19.4861 24.7308C19.8202 24.1675 20.1359 23.5939 20.4639 23.0265C21.0297 22.0495 21.6016 21.0745 22.1674 20.0974C23.1349 18.426 24.1025 16.7545 25.0659 15.079C25.9884 13.4751 26.9047 11.8692 27.8292 10.2674C28.6082 8.92163 29.3994 7.58201 30.1784 6.23625C31.105 4.63444 32.0213 3.02854 32.9417 1.42263C32.9581 1.39396 32.9786 1.36733 32.9909 1.33865C33.1774 0.928983 33.4869 0.806082 33.9379 0.808131C38.3862 0.820421 42.8304 0.814276 47.2726 0.814276Z" fill="#9CA3AF"/>
<path d="M80.7901 25.3321C80.7901 21.4655 80.7901 17.5988 80.7901 13.7322C80.7901 12.4474 80.7941 12.4433 82.0993 12.4433C84.8926 12.4433 87.6899 12.4108 90.4831 12.4555C92.0932 12.4799 93.6545 12.8052 94.9922 13.785C96.5169 14.9032 97.5212 16.3181 97.8221 18.2616C98.0457 19.6968 97.8587 21.0304 97.4277 22.3763C97.2041 23.0756 96.7771 23.6407 96.3096 24.1856C96.029 24.5108 96.0534 24.6206 96.3787 24.9134C97.944 26.312 98.6596 28.0929 98.7613 30.1624C98.8223 31.4188 98.6352 32.6223 98.1758 33.7892C97.8261 34.6756 97.3098 35.4725 96.6226 36.123C95.8135 36.8874 94.854 37.4485 93.7968 37.8063C92.6869 38.1844 91.5362 38.3999 90.3571 38.404C87.6289 38.4121 84.8966 38.408 82.1684 38.408C82.0383 38.408 81.9082 38.4121 81.7781 38.404C80.9649 38.3714 80.8267 38.2332 80.7941 37.4241C80.786 37.1639 80.7901 36.9037 80.7901 36.6434C80.7901 32.8703 80.7901 29.1012 80.7901 25.3321ZM84.6974 30.5934C84.6933 31.4716 84.6933 32.3458 84.6933 33.224C84.6933 33.4517 84.6852 33.6794 84.7096 33.9071C84.7462 34.3056 84.8682 34.4357 85.2382 34.4763C85.4618 34.5007 85.6935 34.4926 85.9212 34.4966C87.3809 34.4966 88.8446 34.521 90.3042 34.4885C90.9467 34.4723 91.6053 34.4153 92.2274 34.2527C93.2683 33.9843 94.0937 33.4273 94.5612 32.3702C94.8824 31.6424 94.8377 30.9105 94.8336 30.1746C94.8296 28.8085 94.1994 27.792 92.9552 27.2512C92.3087 26.9748 91.5891 26.7593 90.8938 26.7308C89.0764 26.6576 87.2589 26.6942 85.4374 26.7105C84.8316 26.7146 84.7137 26.8487 84.7015 27.483C84.6852 28.5157 84.6974 29.5566 84.6974 30.5934ZM88.2998 16.3506V16.3547C87.324 16.3547 86.3522 16.3384 85.3764 16.3588C84.8641 16.371 84.7503 16.5051 84.7055 16.993C84.6974 17.0906 84.6974 17.1882 84.6974 17.2858C84.6974 18.8105 84.6893 20.3392 84.7015 21.8639C84.7096 22.6771 84.799 22.7706 85.5919 22.7788C86.8564 22.795 88.1249 22.7828 89.3935 22.7828C89.9464 22.7828 90.4994 22.8113 91.0483 22.7706C91.9428 22.7056 92.8088 22.4657 93.3781 21.7298C94.2807 20.5669 94.2725 19.2618 93.7399 17.9526C93.5 17.3671 93.0528 16.9442 92.4388 16.7043C91.9184 16.5011 91.402 16.3344 90.8369 16.3425C89.9871 16.3588 89.1455 16.3506 88.2998 16.3506Z" fill="#9CA3AF"/>
<path d="M250.582 25.3323C250.582 21.4615 250.582 17.5949 250.582 13.7242C250.582 12.4475 250.586 12.4434 251.9 12.4434C254.664 12.4434 257.429 12.4149 260.19 12.4515C261.837 12.4719 263.426 12.7971 264.797 13.7933C266.394 14.9561 267.35 16.489 267.602 18.4975C267.716 19.392 267.635 20.2418 267.529 21.1037C267.427 21.921 267.11 22.6691 266.663 23.3644C266.488 23.6368 266.289 23.8929 266.102 24.1613C265.829 24.5557 265.837 24.6248 266.167 24.9989C266.252 25.0964 266.35 25.1859 266.439 25.2753C268.265 27.1009 268.757 29.3168 268.444 31.8092C268.289 33.0412 267.862 34.1471 267.175 35.1432C266.281 36.4402 265.012 37.29 263.548 37.8104C262.442 38.2048 261.284 38.3959 260.104 38.4C257.34 38.4081 254.575 38.4041 251.814 38.4C250.59 38.4 250.582 38.3878 250.578 37.1314C250.582 33.1997 250.582 29.268 250.582 25.3323ZM254.494 30.5407C254.49 30.5407 254.49 30.5407 254.494 30.5407C254.49 31.4514 254.49 32.3622 254.494 33.2689C254.494 33.4966 254.485 33.7242 254.514 33.9519C254.555 34.326 254.689 34.4398 255.083 34.4846C255.213 34.5008 255.343 34.4968 255.473 34.4968C257.132 34.4968 258.787 34.5049 260.446 34.4927C261.336 34.4886 262.174 34.2284 262.979 33.8665C263.373 33.6876 263.666 33.4071 263.922 33.0534C264.772 31.8702 264.829 30.565 264.459 29.2396C264.162 28.1743 263.398 27.4547 262.361 27.0969C261.755 26.8895 261.097 26.7431 260.458 26.7228C258.738 26.6699 257.014 26.6943 255.29 26.7065C254.611 26.7106 254.51 26.8244 254.498 27.5197C254.477 28.524 254.494 29.5323 254.494 30.5407ZM258.006 22.787C258.885 22.787 259.759 22.7708 260.637 22.787C262.507 22.8236 264.101 21.2908 263.829 19.1155C263.687 17.9893 263.199 17.0541 262.052 16.6516C261.568 16.4808 261.044 16.371 260.531 16.3629C258.812 16.3263 257.092 16.3385 255.368 16.3507C254.611 16.3548 254.498 16.4605 254.494 17.1842C254.477 18.774 254.477 20.3678 254.494 21.9576C254.502 22.6772 254.611 22.7707 255.376 22.7829C256.254 22.7992 257.132 22.787 258.006 22.787Z" fill="#9CA3AF"/>
<path d="M321.613 25.381C321.613 21.4818 321.613 17.5786 321.613 13.6794C321.613 12.4515 321.621 12.4474 322.878 12.4433C323.496 12.4433 324.114 12.4271 324.732 12.4555C325.305 12.4799 325.468 12.6548 325.508 13.2321C325.529 13.5249 325.521 13.8176 325.521 14.1104C325.521 17.9445 325.517 21.7827 325.525 25.6168C325.525 25.9583 325.606 26.2999 325.651 26.6455C326.09 26.6292 326.175 26.2186 326.395 25.9624C327.216 24.9988 328.029 24.0311 328.851 23.0716C329.42 22.4048 330.005 21.7542 330.558 21.0752C330.782 20.7987 331.034 20.6442 331.384 20.6442C332.62 20.6442 333.856 20.6442 335.088 20.6483C335.181 20.6483 335.307 20.6524 335.364 20.7093C335.441 20.7865 335.494 20.9166 335.498 21.0224C335.498 21.1037 335.405 21.1891 335.344 21.2622C334.771 21.9656 334.201 22.6731 333.62 23.3724C332.815 24.3483 332.002 25.3159 331.188 26.2836C330.961 26.556 330.729 26.8284 330.489 27.0927C330.29 27.3163 330.249 27.5318 330.42 27.7961C330.757 28.3125 331.066 28.8451 331.404 29.3655C333.063 31.9311 334.73 34.4886 336.389 37.0541C336.612 37.4038 337.027 37.7819 336.852 38.1682C336.653 38.6114 336.096 38.3755 335.698 38.3918C334.982 38.4203 334.266 38.3796 333.551 38.404C332.929 38.4284 332.498 38.1682 332.172 37.6599C331.441 36.5093 330.697 35.3668 329.961 34.2161C329.298 33.1753 328.647 32.1263 327.98 31.0895C327.704 30.6585 327.48 30.6463 327.143 31.0326C326.736 31.4961 326.342 31.9677 325.939 32.4353C325.622 32.7971 325.513 33.2241 325.513 33.6957C325.517 34.7691 325.513 35.8425 325.513 36.9159C325.513 37.046 325.517 37.1761 325.513 37.3062C325.488 38.2576 325.374 38.3837 324.447 38.3999C323.797 38.4121 323.146 38.4121 322.496 38.3999C321.711 38.3837 321.63 38.2902 321.605 37.477C321.597 37.2493 321.605 37.0216 321.605 36.7939C321.613 32.9882 321.613 29.1826 321.613 25.381Z" fill="#9CA3AF"/>
<path d="M291.291 31.183C289.535 31.183 287.779 31.1748 286.022 31.187C285.193 31.1911 285.099 31.3415 285.412 32.1059C285.855 33.1915 286.612 33.9274 287.774 34.2405C288.604 34.4641 289.442 34.5739 290.283 34.4682C291.426 34.3259 292.528 34.0494 293.292 33.0655C293.389 32.9394 293.528 32.8378 293.633 32.7199C293.938 32.3783 294.276 32.3295 294.682 32.541C295.435 32.9313 296.199 33.2891 296.947 33.6835C297.317 33.8786 297.366 34.0494 297.159 34.3909C296.585 35.3545 295.817 36.1637 294.91 36.7979C293.259 37.9567 291.348 38.3836 289.372 38.3796C287.189 38.3755 285.201 37.6599 283.595 36.1555C282.249 34.8951 281.505 33.2769 281.224 31.4554C281.163 31.0691 281.078 30.6869 281.062 30.3006C280.972 28.0847 281.265 25.9298 282.538 24.0595C284.046 21.8396 286.209 20.7255 288.889 20.6442C289.832 20.6157 290.759 20.6523 291.69 20.9003C294.666 21.7054 296.484 23.6082 297.289 26.556C297.646 27.8611 297.651 29.1907 297.606 30.5243C297.59 31.0203 297.447 31.1586 296.947 31.1708C296.069 31.1951 295.191 31.183 294.312 31.183C293.308 31.183 292.3 31.183 291.291 31.183ZM289.287 27.4667C289.287 27.4708 289.287 27.4708 289.287 27.4667C290.324 27.4708 291.365 27.4708 292.401 27.4708C292.629 27.4708 292.857 27.4708 293.08 27.4423C293.304 27.4139 293.459 27.2675 293.373 27.0398C293.239 26.678 293.113 26.2917 292.881 25.999C292.166 25.0801 291.194 24.6003 290.027 24.5515C289.511 24.5312 288.986 24.5149 288.47 24.5596C286.978 24.6897 285.925 25.446 285.372 26.8487C285.197 27.2878 285.307 27.4586 285.782 27.4627C286.953 27.4789 288.12 27.4667 289.287 27.4667Z" fill="#9CA3AF"/>
<path d="M317.526 29.5244C317.526 31.9598 317.526 34.3994 317.526 36.8348C317.526 37.0625 317.534 37.2902 317.522 37.5179C317.485 38.2091 317.335 38.3717 316.639 38.3921C315.891 38.4124 315.143 38.4124 314.399 38.3921C313.761 38.3758 313.736 38.3351 313.622 37.6602C313.618 37.6277 313.622 37.5951 313.614 37.5626C313.553 37.2211 313.484 37.1682 313.171 37.3512C312.11 37.9692 310.935 38.2294 309.74 38.3677C308.528 38.5059 307.349 38.2213 306.194 37.8879C305.109 37.5748 304.202 36.9365 303.372 36.2046C302.99 35.8671 302.665 35.4362 302.397 34.997C301.494 33.5008 300.88 31.911 300.933 30.122C300.965 29.0852 300.896 28.0525 301.116 27.0198C301.62 24.6656 302.815 22.8197 304.934 21.6365C306.023 21.0267 307.219 20.7217 308.467 20.6404C310.122 20.5347 311.703 20.8071 313.167 21.6122C313.395 21.7382 313.537 21.6487 313.594 21.4129C313.618 21.3194 313.622 21.2218 313.639 21.1243C313.683 20.8193 313.871 20.6607 314.167 20.6567C315.111 20.6485 316.05 20.6404 316.993 20.6648C317.359 20.6729 317.481 20.8396 317.514 21.2422C317.538 21.4983 317.53 21.7626 317.53 22.0228C317.526 24.5233 317.526 27.0239 317.526 29.5244ZM313.692 29.4918C313.582 28.8006 313.529 28.1135 313.354 27.463C313.22 26.9751 312.988 26.4831 312.683 26.0765C311.874 24.9909 310.793 24.4258 309.398 24.5437C309.044 24.5721 308.682 24.5396 308.325 24.5559C308.101 24.564 307.861 24.5721 307.654 24.6453C306.08 25.1983 305.129 26.2798 304.848 27.9509C304.682 28.9551 304.661 29.9472 304.865 30.9393C305.141 32.2892 305.657 33.4886 307.036 34.0863C308.117 34.5539 309.231 34.6108 310.378 34.3831C311.947 34.07 312.903 33.1064 313.309 31.5939C313.488 30.9068 313.566 30.1952 313.692 29.4918Z" fill="#9CA3AF"/>
<path d="M218.183 29.4996C218.183 31.9676 218.183 34.4356 218.183 36.9077C218.183 38.3999 218.179 38.4039 216.642 38.4039C216.187 38.4039 215.731 38.4121 215.276 38.3999C214.483 38.3755 214.451 38.3429 214.268 37.542C214.19 37.2045 214.142 37.1679 213.804 37.3671C213.007 37.8306 212.141 38.0624 211.247 38.2616C209.962 38.5462 208.722 38.3755 207.494 38.0543C204.558 37.2858 202.717 35.3423 201.948 32.4678C201.269 29.9266 201.371 27.3651 202.497 24.9499C203.168 23.5147 204.201 22.36 205.664 21.6281C207.795 20.5628 210.007 20.3595 212.292 20.9491C212.788 21.0751 213.247 21.3476 213.715 21.5671C214.089 21.742 214.154 21.7257 214.264 21.3516C214.463 20.6808 214.463 20.6645 215.089 20.6564C215.902 20.6401 216.715 20.6401 217.525 20.6645C218.016 20.6808 218.134 20.819 218.171 21.3232C218.191 21.5834 218.179 21.8436 218.179 22.1038C218.183 24.5637 218.183 27.0317 218.183 29.4996ZM210.027 24.5515C209.669 24.5515 209.409 24.5352 209.149 24.5555C207.795 24.6572 206.713 25.2345 206.063 26.4584C205.725 27.0886 205.494 27.7676 205.498 28.5035C205.502 29.1215 205.457 29.7395 205.51 30.3535C205.555 30.8983 205.652 31.4513 205.819 31.9717C206.205 33.1671 207.022 33.9315 208.246 34.2893C209.279 34.5861 210.291 34.5576 211.32 34.3177C212.19 34.1144 212.869 33.6265 213.357 32.915C213.662 32.4678 213.865 31.9392 214.056 31.4269C214.349 30.6503 214.268 29.8249 214.268 29.0158C214.264 28.0888 214.008 27.2228 213.621 26.3893C213.32 25.7468 212.828 25.2955 212.194 24.9825C211.479 24.6125 210.722 24.4905 210.027 24.5515Z" fill="#9CA3AF"/>
<path d="M148.894 25.3607C148.894 21.4941 148.894 17.6234 148.894 13.7567C148.894 12.4475 148.898 12.4434 150.178 12.4434C150.796 12.4434 151.414 12.4353 152.032 12.4597C152.423 12.476 152.561 12.6223 152.598 12.9923C152.626 13.281 152.618 13.5778 152.618 13.8706C152.618 17.8023 152.618 21.738 152.618 25.6698C152.618 25.8324 152.598 25.9991 152.622 26.1577C152.663 26.3935 152.48 26.7391 152.805 26.8285C152.927 26.8611 153.159 26.5927 153.297 26.4301C154.244 25.3201 155.179 24.202 156.119 23.0838C156.659 22.4374 157.212 21.8031 157.737 21.1404C158.001 20.8029 158.314 20.6403 158.737 20.6443C159.941 20.6484 161.144 20.6362 162.343 20.6525C162.848 20.6606 162.949 20.8558 162.652 21.2379C162.116 21.9291 161.563 22.6081 161.002 23.279C159.941 24.5476 158.875 25.8121 157.802 27.0684C157.578 27.3327 157.554 27.5604 157.745 27.8531C158.192 28.5321 158.615 29.2233 159.05 29.9105C160.66 32.4272 162.274 34.944 163.884 37.4608C163.954 37.5706 164.035 37.6763 164.092 37.7901C164.287 38.1601 164.193 38.3634 163.795 38.3878C163.372 38.4163 162.949 38.4041 162.526 38.4041C161.908 38.4041 161.29 38.396 160.672 38.4041C160.209 38.4122 159.859 38.2171 159.591 37.8511C159.457 37.6682 159.327 37.4811 159.205 37.29C157.928 35.2896 156.651 33.2933 155.383 31.2929C154.948 30.6057 154.781 30.5935 154.261 31.2359C153.956 31.6141 153.651 32.0003 153.301 32.3337C152.793 32.8176 152.581 33.3827 152.602 34.078C152.63 35.1189 152.61 36.1597 152.606 37.1965C152.606 37.4242 152.602 37.6519 152.585 37.8796C152.561 38.1764 152.398 38.3756 152.093 38.3838C151.215 38.4 150.337 38.4122 149.463 38.3919C149.077 38.3838 148.938 38.2252 148.902 37.8511C148.873 37.5625 148.885 37.2656 148.885 36.9729C148.894 33.0981 148.894 29.2315 148.894 25.3607Z" fill="#9CA3AF"/>
<path d="M198.28 32.8339C198.28 34.2651 198.28 35.6963 198.28 37.1274C198.28 37.3877 198.272 37.6479 198.255 37.9081C198.235 38.1643 198.089 38.3594 197.833 38.3635C196.889 38.3797 195.95 38.3797 195.007 38.3635C194.751 38.3594 194.604 38.1602 194.588 37.904C194.568 37.6438 194.564 37.3836 194.564 37.1234C194.564 34.7814 194.584 32.4395 194.551 30.0975C194.539 29.2234 194.454 28.3451 194.307 27.4832C194.157 26.5968 193.726 25.8324 193.023 25.2429C192.506 24.816 191.941 24.5273 191.25 24.5436C191.087 24.5476 190.925 24.5598 190.762 24.5395C188.607 24.2833 187.404 26.1902 187.184 27.6621C187.03 28.6867 186.94 29.7194 186.956 30.7684C186.989 32.9477 186.973 35.127 186.965 37.3063C186.96 38.3431 186.908 38.3919 185.85 38.4001C185.2 38.4041 184.549 38.4123 183.899 38.3879C183.407 38.3675 183.293 38.2293 183.252 37.7251C183.236 37.4974 183.244 37.2698 183.244 37.0421C183.244 29.3006 183.244 21.5592 183.244 13.8218C183.244 13.6266 183.24 13.4315 183.248 13.2363C183.281 12.598 183.378 12.4719 183.98 12.4557C184.728 12.4353 185.476 12.4353 186.225 12.4557C186.826 12.4719 186.932 12.598 186.96 13.2363C186.977 13.6592 186.965 14.082 186.965 14.5049C186.965 16.5216 186.965 18.5382 186.965 20.5549C186.965 20.7826 186.96 21.0144 187.009 21.2339C187.025 21.3112 187.2 21.425 187.282 21.4087C187.469 21.3762 187.639 21.2664 187.822 21.1973C190.327 20.254 192.734 20.4085 194.991 21.9129C196.426 22.8725 197.345 24.2223 197.829 25.8731C198.15 26.9668 198.341 28.0809 198.296 29.2356C198.243 30.4269 198.28 31.6304 198.28 32.8339Z" fill="#9CA3AF"/>
<path d="M126.653 29.5364C126.75 31.0489 126.437 32.6306 125.673 34.1065C124.579 36.2126 122.875 37.5625 120.558 38.1195C118.875 38.522 117.216 38.4692 115.565 37.9325C112.926 37.0746 111.328 35.2165 110.54 32.6468C109.767 30.1382 109.958 27.6377 110.93 25.2022C111.097 24.7834 111.332 24.3809 111.597 24.015C113.138 21.8682 115.236 20.7297 117.882 20.6443C118.789 20.6159 119.7 20.6078 120.594 20.8436C122.172 21.2624 123.583 21.982 124.64 23.2424C125.957 24.8119 126.644 26.6415 126.657 28.707C126.653 28.9347 126.653 29.1624 126.653 29.5364ZM118.334 24.5476C118.334 24.5517 118.334 24.5517 118.334 24.5557C118.041 24.5557 117.744 24.5232 117.46 24.5598C116.358 24.7062 115.427 25.1209 114.788 26.117C114.353 26.8001 114.183 27.5442 114.056 28.3126C113.829 29.6869 113.963 31.0327 114.54 32.3094C115.008 33.3421 115.797 34.0089 116.907 34.3098C117.512 34.4724 118.122 34.5293 118.736 34.4887C121.273 34.322 122.261 33.0941 122.721 30.9676C122.94 29.9471 122.9 28.9184 122.729 27.8857C122.436 26.1008 121.021 24.5476 119.013 24.5435C118.785 24.5476 118.557 24.5476 118.334 24.5476Z" fill="#9CA3AF"/>
<path d="M231.065 29.4266C231.065 26.8935 231.061 24.3564 231.065 21.8234C231.065 20.6646 231.093 20.6484 232.285 20.6402C232.903 20.6362 233.521 20.6443 234.139 20.6402C234.513 20.6362 234.846 20.6768 235.009 21.0997C235.123 21.3924 235.371 21.303 235.594 21.2379C236.155 21.0753 236.704 20.8557 237.273 20.7581C238.981 20.4654 240.64 20.6199 242.201 21.4249C243.388 22.0348 244.328 22.9171 244.974 24.08C245.543 25.1046 245.938 26.1942 246.129 27.3733C246.267 28.215 246.296 29.0525 246.296 29.8942C246.296 32.3337 246.3 34.7692 246.296 37.2087C246.296 38.3715 246.267 38.3959 245.088 38.4041C244.437 38.4081 243.787 38.4203 243.136 38.3878C242.608 38.3634 242.449 38.1926 242.405 37.6681C242.38 37.412 242.392 37.1477 242.392 36.8875C242.392 34.1918 242.38 31.4921 242.396 28.7964C242.4 27.7921 242.161 26.8651 241.652 26.0113C241.099 25.0842 240.298 24.5394 239.18 24.5475C238.822 24.5516 238.465 24.5231 238.107 24.5597C236.956 24.6695 236.074 25.2103 235.582 26.2837C235.188 27.1497 234.972 28.0564 234.976 29.02C234.988 31.6832 234.98 34.3504 234.98 37.0135C234.98 38.3512 234.931 38.3959 233.622 38.4C233.037 38.4041 232.451 38.4163 231.866 38.3878C231.284 38.3593 231.126 38.1886 231.085 37.6153C231.065 37.3551 231.077 37.0948 231.077 36.8346C231.061 34.3666 231.061 31.8986 231.065 29.4266Z" fill="#9CA3AF"/>
<path d="M172.515 20.5753C174.32 20.5062 175.943 21.0957 177.398 22.0512C178.37 22.6855 179.22 23.5231 179.687 24.6453C179.85 25.0397 179.83 25.1738 179.456 25.3568C178.638 25.7593 177.809 26.1212 176.984 26.5074C176.67 26.6538 176.435 26.605 176.227 26.3123C176.061 26.0764 175.849 25.8691 175.666 25.6414C175.048 24.8689 174.19 24.6209 173.255 24.5517C172.869 24.5233 172.47 24.5761 172.088 24.5355C170.405 24.3566 168.64 25.7959 168.25 27.7475C168.01 28.947 168.002 30.1261 168.262 31.3174C168.579 32.7526 169.62 34.1269 171.393 34.3912C172.088 34.4928 172.82 34.4969 173.523 34.4156C174.642 34.2895 175.552 33.765 176.142 32.7567C176.207 32.6469 176.292 32.5453 176.374 32.4436C176.512 32.2729 176.687 32.2119 176.89 32.3054C177.748 32.6957 178.61 33.0738 179.456 33.4886C179.899 33.7081 179.931 33.9155 179.691 34.3586C178.96 35.7126 177.911 36.7657 176.536 37.4365C175.3 38.0423 173.975 38.4083 172.592 38.3839C170.385 38.3432 168.352 37.7455 166.717 36.1802C165.664 35.1718 164.924 33.9358 164.619 32.5087C164.139 30.2602 164.042 27.9996 164.847 25.7878C165.839 23.0677 167.746 21.3844 170.596 20.8152C171.226 20.6973 171.873 20.6566 172.515 20.5753Z" fill="#9CA3AF"/>
<path d="M129.975 29.5772C129.861 27.8614 130.15 26.2716 130.918 24.7998C132.041 22.6611 133.793 21.3194 136.172 20.8274C137.961 20.4574 139.729 20.5509 141.445 21.1852C143.124 21.8073 144.36 22.9783 145.316 24.4583C145.617 24.9218 145.552 25.1291 145.047 25.3893C144.295 25.7756 143.539 26.1497 142.762 26.4831C142.275 26.6945 142.177 26.6498 141.872 26.1985C141.071 25.0153 139.953 24.503 138.55 24.5436C138.257 24.5518 137.965 24.568 137.672 24.5396C136.143 24.4013 134.094 25.7797 133.878 28.02C133.842 28.4062 133.752 28.7925 133.744 29.1788C133.72 30.6343 133.956 32.0411 134.875 33.2202C135.484 34.0009 136.407 34.314 137.351 34.4522C137.92 34.5376 138.522 34.5051 139.099 34.44C140.254 34.3058 141.173 33.7447 141.848 32.7771C142.266 32.1794 142.295 32.1956 142.962 32.5046C143.608 32.8055 144.259 33.1023 144.909 33.3991C145.556 33.6919 145.625 33.8667 145.263 34.5254C144.397 36.1029 143.092 37.1763 141.413 37.7984C140.461 38.1521 139.457 38.3595 138.461 38.3758C136.143 38.4083 134.017 37.7862 132.329 36.107C131.37 35.1556 130.74 33.9806 130.341 32.6876C130.024 31.6589 129.878 30.6018 129.975 29.5772Z" fill="#9CA3AF"/>
<path d="M106.941 25.324C106.941 29.2232 106.941 33.1223 106.941 37.0215C106.941 38.3511 106.896 38.3917 105.57 38.3999C104.985 38.4039 104.399 38.4161 103.814 38.3877C103.241 38.3592 103.086 38.1844 103.041 37.603C103.025 37.3753 103.033 37.1476 103.033 36.9199C103.033 29.2191 103.033 21.5143 103.033 13.8135C103.033 13.5858 103.025 13.3581 103.041 13.1304C103.078 12.61 103.188 12.4677 103.672 12.4514C104.55 12.427 105.428 12.427 106.302 12.4514C106.758 12.4636 106.884 12.6018 106.92 13.0328C106.945 13.3215 106.937 13.6183 106.937 13.9111C106.941 17.7208 106.941 21.5224 106.941 25.324Z" fill="#9CA3AF"/>
<path d="M271.66 29.4387C271.66 26.9056 271.656 24.3726 271.66 21.8395C271.66 20.6726 271.693 20.6442 272.86 20.6401C273.51 20.636 274.161 20.6279 274.807 20.6482C275.385 20.6645 275.389 20.6848 275.572 21.3028C275.698 21.7298 275.816 21.807 276.177 21.5752C276.995 21.0548 277.922 20.8881 278.841 20.7051C279.06 20.6604 279.292 20.6523 279.515 20.6645C279.812 20.6767 280.02 20.8353 280.024 21.1443C280.036 22.116 280.036 23.0918 280.02 24.0636C280.016 24.3726 279.788 24.4986 279.499 24.5352C279.145 24.5799 278.78 24.5799 278.446 24.6897C276.97 25.1817 276.064 26.2144 275.767 27.7391C275.645 28.3693 275.576 29.0239 275.568 29.6663C275.543 32.1018 275.559 34.5373 275.559 36.9727C275.559 37.233 275.568 37.4932 275.547 37.7534C275.511 38.2413 275.389 38.3795 274.88 38.3917C274.071 38.4121 273.258 38.4161 272.445 38.3917C271.863 38.3714 271.705 38.1966 271.66 37.6233C271.64 37.3631 271.652 37.1029 271.652 36.8426C271.66 34.3746 271.66 31.9066 271.66 29.4387Z" fill="#9CA3AF"/>
<path d="M222.486 29.3209C222.486 26.9505 222.49 24.576 222.486 22.2056C222.482 20.5467 222.417 20.6321 224.104 20.6361C224.657 20.6361 225.21 20.6239 225.759 20.6524C226.214 20.6727 226.336 20.8028 226.377 21.2379C226.401 21.494 226.393 21.7583 226.393 22.0185C226.393 26.9911 226.393 31.9596 226.393 36.9322C226.393 38.3878 226.377 38.4 224.925 38.4041C224.372 38.4041 223.819 38.4203 223.27 38.3919C222.697 38.3634 222.543 38.1886 222.498 37.6071C222.478 37.3469 222.49 37.0867 222.49 36.8265C222.482 34.326 222.486 31.8214 222.486 29.3209Z" fill="#9CA3AF"/>
<path d="M226.557 16.5051C226.517 17.7005 225.484 18.7129 224.366 18.656C223.203 18.595 222.235 17.5256 222.309 16.375C222.37 15.3545 223.471 14.3786 224.5 14.4315C225.59 14.4884 226.59 15.4968 226.557 16.5051Z" fill="#9CA3AF"/>
</svg>
