<svg width="210" height="60" viewBox="0 0 210 60" fill="none" xmlns="http://www.w3.org/2000/svg">
<path d="M106.024 6.56802C106.024 6.56802 106.636 6.67687 106.946 6.71383C108.353 6.88181 109.722 7.20903 111.059 7.67399C112.196 8.06908 113.272 8.58914 114.263 9.27449C115.236 9.94842 116.078 10.7635 116.71 11.768C117.32 12.7382 117.706 13.7998 117.884 14.9381C118.018 15.7934 118.007 16.6568 117.934 17.5061C117.829 18.7384 117.514 19.9384 117.057 21.0928C116.797 21.7493 116.539 22.4091 116.226 23.04C115.867 23.7616 115.447 24.453 115.052 25.1565C115.044 25.1706 115.011 25.1713 114.962 25.1881C115.081 24.7379 115.201 24.3052 115.308 23.8685C115.45 23.2812 115.584 22.6933 115.604 22.0845C115.619 21.6444 115.684 21.2037 115.667 20.7656C115.601 19.0347 115.114 17.4383 114.046 16.0534C113.209 14.969 112.155 14.1425 110.951 13.4928C109.821 12.8833 108.625 12.4553 107.386 12.1476C106.459 11.9171 105.521 11.7256 104.564 11.6524C103.924 11.6033 103.283 11.5724 102.647 11.4972C101.564 11.3688 100.479 11.4407 99.3947 11.4414C98.7806 11.4421 98.1664 11.5261 97.5523 11.5758C96.9254 11.6269 96.2979 11.6705 95.673 11.7377C95.0609 11.8042 94.4474 11.8755 93.8413 11.9823C92.5284 12.2134 91.2142 12.4432 89.91 12.7221C88.7153 12.9774 87.5307 13.2811 86.3488 13.5909C84.4816 14.0807 82.6412 14.6646 80.8223 15.3096C79.42 15.8068 78.0278 16.3343 76.6444 16.8806C75.6358 17.2783 74.6347 17.699 73.6543 18.1612C71.8173 19.028 69.987 19.9102 68.1749 20.8281C67.0286 21.4093 65.9199 22.0651 64.7958 22.6899C64.3443 22.9412 63.8961 23.1986 63.4184 23.4694C60.9034 23.4694 58.3548 23.4694 55.7344 23.4694C55.8378 23.3786 55.8896 23.3209 55.9527 23.2799C57.7246 22.1195 59.4857 20.9403 61.2763 19.8094C62.3097 19.157 63.3848 18.5698 64.4538 17.9765C65.5235 17.3832 66.6033 16.806 67.6904 16.2449C68.8226 15.6604 69.9528 15.0677 71.1132 14.543C72.9972 13.691 74.8913 12.8578 76.807 12.0811C78.3483 11.4555 79.9226 10.9079 81.4929 10.3569C83.5872 9.62254 85.7071 8.96407 87.8687 8.45341C89.486 8.07109 91.1033 7.68609 92.7313 7.35416C93.8514 7.12571 94.987 6.96647 96.1205 6.81327C96.9543 6.70039 97.7982 6.66343 98.6348 6.56601C100.47 6.35166 102.313 6.42356 104.153 6.42893C104.654 6.43028 105.067 6.50716 105.654 6.54518C105.798 6.55455 106.024 6.56802 106.024 6.56802Z" fill="#9CA3AF"/>
<path d="M82.5085 50.6857C82.264 50.8282 82.0241 50.9807 81.7728 51.1117C80.9235 51.5545 80.0789 52.0101 79.2148 52.4233C78.1344 52.9407 77.0385 53.4245 75.9459 53.9163C73.7011 54.9269 71.3951 55.7802 69.0514 56.5294C67.3118 57.0857 65.5555 57.5883 63.7655 57.9659C62.5218 58.228 61.2787 58.4813 60.0189 58.6533C59.0722 58.7823 58.1248 58.8818 57.172 58.9611C55.8342 59.0719 54.4984 59.0175 53.1627 59.0094C52.5385 59.0054 51.9156 58.873 51.2914 58.8058C50.2714 58.6956 49.2837 58.443 48.3208 58.103C47.2821 57.7355 46.3165 57.2362 45.4504 56.5321C44.1805 55.4993 43.4602 54.1737 43.2311 52.5765C43.0779 51.5075 43.2009 50.4445 43.4622 49.4004C43.7297 48.3307 44.1543 47.3215 44.6663 46.3479C44.8363 46.024 45.013 45.7042 45.1897 45.3837C45.2119 45.3434 45.2489 45.3111 45.3463 45.2957C45.3134 45.4576 45.2912 45.6235 45.2455 45.7821C44.9888 46.6717 44.8511 47.5802 44.8995 48.504C44.9458 49.391 45.1595 50.2443 45.5808 51.0372C46.25 52.2963 47.2693 53.1819 48.5211 53.8296C49.6976 54.4384 50.9447 54.8106 52.2502 55.0142C52.9221 55.119 53.5947 55.1862 54.2713 55.2481C55.2308 55.3361 56.1876 55.2984 57.1444 55.2964C57.6954 55.2951 58.2464 55.2158 58.7967 55.1641C59.2966 55.117 59.7992 55.0781 60.295 55.0028C61.3016 54.8503 62.3088 54.6991 63.3079 54.5063C65.2518 54.1313 67.158 53.6086 69.0447 53.0086C70.9933 52.3891 72.9129 51.695 74.7916 50.8893C75.2384 50.6978 75.6866 50.5957 76.1811 50.6011C78.1512 50.6206 80.1212 50.6092 82.0913 50.6092C82.2243 50.6092 82.3574 50.6092 82.4904 50.6092C82.4971 50.634 82.5025 50.6602 82.5085 50.6857Z" fill="#9CA3AF"/>
<path d="M70.5486 30.1502C71.2723 29.1168 72.041 28.2225 72.7485 27.2778C72.8607 27.2711 72.9601 27.259 73.0596 27.259C75.5101 27.2583 77.9605 27.2321 80.4096 27.2724C81.5324 27.2906 82.6417 27.4834 83.6516 28.0384C84.9847 28.7715 85.6425 29.8969 85.5753 31.4155C85.539 32.2298 85.2582 32.983 84.7119 33.5898C84.1992 34.1602 83.5629 34.5714 82.7788 34.7045C83.9372 35.8877 85.0868 37.0615 86.256 38.2555C85.9409 38.3476 82.289 38.3738 81.6346 38.2992C80.8343 37.3505 80.0092 36.3728 79.2103 35.4261C77.4606 35.4261 75.7714 35.4261 74.0312 35.4261C74.0184 35.5464 73.9935 35.6767 73.9929 35.8071C73.9888 36.4891 73.9909 37.1711 73.9909 37.8531C73.9909 37.9901 73.9909 38.1265 73.9909 38.2502C73.6959 38.3476 71.2864 38.3785 70.5883 38.2985C70.5614 38.1763 70.505 38.0358 70.5043 37.8961C70.4982 36.2667 70.4996 34.6373 70.5023 33.0086C70.5023 32.9004 70.5325 32.7929 70.5554 32.6404C70.7462 32.6404 70.9068 32.6404 71.068 32.6404C74.0863 32.6404 77.1052 32.6417 80.1234 32.6383C80.6482 32.6377 81.1494 32.5389 81.5889 32.2204C82.1943 31.7816 82.1331 30.843 81.4773 30.4781C81.0339 30.2315 80.5534 30.1516 80.0569 30.1516C77.0635 30.1489 74.0701 30.1502 71.0768 30.1502C70.9289 30.1502 70.7798 30.1502 70.5486 30.1502Z" fill="#9CA3AF"/>
<path d="M209.379 27.3167C208.644 28.2735 207.941 29.1893 207.204 30.1475C204.846 30.1555 202.466 30.1454 200.063 30.1535C200.063 30.5855 200.063 30.9719 200.063 31.4053C200.209 31.4133 200.355 31.4281 200.5 31.4281C203.09 31.4295 205.679 31.4288 208.268 31.4295C208.415 31.4295 208.561 31.4375 208.788 31.4436C208.133 32.3527 207.465 33.1489 206.818 34.0103C204.586 34.0103 202.343 34.0103 200.111 34.0103C200.022 34.3268 200.013 35.0088 200.091 35.4408C200.845 35.4495 201.611 35.4435 202.376 35.4448C203.159 35.4462 203.943 35.4448 204.725 35.4448C205.496 35.4448 206.266 35.4448 207.037 35.4448C207.806 35.4448 208.575 35.4448 209.35 35.4448C209.267 35.7371 207.605 37.941 207.171 38.3334C203.68 38.3341 200.15 38.3334 196.678 38.3334C196.611 38.2615 196.602 38.2528 196.595 38.2427C196.587 38.2326 196.58 38.2212 196.578 38.2091C196.567 38.16 196.549 38.111 196.549 38.0619C196.547 34.5505 196.547 31.0391 196.547 27.5283C196.547 27.4786 196.554 27.4275 196.563 27.3785C196.568 27.3556 196.586 27.3355 196.598 27.314C196.887 27.2434 208.939 27.232 209.379 27.3167Z" fill="#9CA3AF"/>
<path d="M37.9511 34.0283C35.7056 34.0283 33.4997 34.0283 31.2683 34.0283C31.2683 34.498 31.2683 34.9347 31.2683 35.4205C31.412 35.4286 31.5578 35.4434 31.703 35.4434C34.4948 35.4447 37.2859 35.4447 40.0777 35.4447C40.2249 35.4447 40.372 35.4447 40.6159 35.4447C39.8681 36.4613 39.1471 37.3744 38.4315 38.3111C34.8939 38.3111 31.361 38.3111 27.7797 38.3111C27.7696 38.1626 27.7515 38.0181 27.7515 37.8737C27.7494 36.3074 27.7501 34.7412 27.7501 33.175C27.7501 31.3689 27.7501 29.5621 27.7501 27.756C27.7501 27.6082 27.7501 27.4603 27.7501 27.3273C28.0867 27.2453 39.7996 27.2171 40.4775 27.2836C40.3908 27.5793 38.9617 29.4976 38.3341 30.1527C36.0113 30.1527 33.6636 30.1527 31.3254 30.1527C31.2266 30.4302 31.2111 30.9046 31.2824 31.4011C31.6828 31.4602 32.0967 31.4206 32.5073 31.428C32.9111 31.4347 33.3156 31.4293 33.7201 31.4293C34.1367 31.4293 34.5539 31.4293 34.9705 31.4293C35.375 31.4293 35.7788 31.4293 36.1833 31.4293C36.5999 31.4293 37.0172 31.4293 37.4337 31.4293C37.8382 31.4293 38.2421 31.4293 38.6465 31.4293C39.0604 31.4293 39.475 31.4293 39.9756 31.4293C39.3091 32.3566 38.6365 33.1756 37.9511 34.0283Z" fill="#9CA3AF"/>
<path d="M0.69542 27.2825C4.99702 27.2825 9.22067 27.2825 13.5169 27.2825C12.761 28.2688 12.0434 29.2048 11.3191 30.1509C8.95862 30.1509 6.61096 30.1509 4.22633 30.1509C4.15309 30.5668 4.19945 30.9639 4.19408 31.3946C4.62612 31.4618 5.04002 31.4194 5.45056 31.4275C5.85438 31.4349 6.25887 31.4289 6.66336 31.4289C7.07995 31.4289 7.49721 31.4289 7.9138 31.4289C8.31829 31.4289 8.72211 31.4289 9.1266 31.4289C9.54319 31.4289 9.96045 31.4289 10.377 31.4289C10.7815 31.4289 11.1853 31.4289 11.5898 31.4289C12.0044 31.4289 12.4183 31.4289 12.9021 31.4289C12.5944 31.9482 12.2161 32.3326 11.9043 32.7639C11.5959 33.1906 11.2512 33.5911 10.9078 34.0204C8.67777 34.0204 6.45977 34.0204 4.21558 34.0204C4.21558 34.4961 4.21558 34.9329 4.21558 35.4207C4.35668 35.4288 4.50182 35.4435 4.64695 35.4435C7.43808 35.4449 10.2299 35.4442 13.021 35.4442C13.1695 35.4442 13.3173 35.4442 13.5619 35.4442C12.808 36.4534 12.0998 37.3766 11.3621 38.3086C7.83989 38.3086 4.30763 38.3086 0.725656 38.3086C0.715577 38.1628 0.697436 38.0183 0.696764 37.8739C0.694748 36.4722 0.69542 35.07 0.69542 33.6683C0.69542 31.6983 0.69542 29.7276 0.69542 27.7575C0.69542 27.6097 0.69542 27.4619 0.69542 27.2825Z" fill="#9CA3AF"/>
<path d="M145.43 31.5067C144.784 32.3385 144.139 33.1704 143.482 34.0163C141.245 34.0163 139.027 34.0163 136.78 34.0163C136.78 34.4994 136.78 34.9449 136.78 35.4435C137.562 35.4441 138.328 35.4448 139.094 35.4448C139.864 35.4448 140.635 35.4448 141.405 35.4448C142.175 35.4448 142.946 35.4448 143.716 35.4448C144.483 35.4448 145.25 35.4448 146.102 35.4448C145.745 36.0045 145.355 36.4399 145.004 36.9029C144.654 37.3645 144.297 37.8207 143.945 38.2776C143.652 38.3495 133.684 38.3596 133.32 38.2883C133.244 38.0223 133.221 27.7836 133.296 27.3274C133.305 27.3187 133.314 27.3086 133.323 27.3012C133.332 27.2938 133.343 27.2844 133.355 27.2824C133.404 27.2736 133.454 27.2602 133.503 27.2602C137.632 27.2595 141.762 27.2595 145.891 27.2609C145.927 27.2609 145.962 27.2763 146.055 27.2972C145.32 28.2661 144.609 29.2155 143.846 30.1568C141.495 30.1568 139.151 30.1568 136.779 30.1568C136.779 30.5889 136.779 30.9833 136.779 31.4167C139.662 31.4167 142.522 31.4167 145.383 31.4167C145.399 31.4469 145.414 31.4765 145.43 31.5067Z" fill="#9CA3AF"/>
<path d="M150.709 27.2791C150.709 28.5443 150.709 29.8041 150.709 31.0539C151 31.1446 156.705 31.1667 157.201 31.0794C157.222 30.6803 157.208 30.2671 157.21 29.8558C157.213 29.4265 157.211 28.9971 157.211 28.5678C157.211 28.1539 157.211 27.7393 157.211 27.3389C157.516 27.2434 160.185 27.2226 160.63 27.2999C160.63 30.9551 160.63 34.6103 160.63 38.2534C160.34 38.3482 157.833 38.3771 157.241 38.2958C157.179 37.9618 157.22 37.6111 157.213 37.2644C157.206 36.9237 157.212 36.5824 157.212 36.2417C157.212 35.8883 157.212 35.5349 157.212 35.1808C157.212 34.8408 157.212 34.5015 157.212 34.189C157.174 34.1527 157.166 34.1433 157.156 34.1353C157.147 34.1272 157.137 34.1158 157.126 34.1138C157.077 34.1044 157.028 34.0909 156.978 34.0909C154.957 34.0896 152.937 34.0902 150.917 34.0909C150.867 34.0909 150.818 34.105 150.73 34.1191C150.673 34.4632 150.71 34.8139 150.704 35.162C150.697 35.5026 150.702 35.8439 150.702 36.1846C150.702 36.538 150.702 36.8915 150.702 37.2456C150.702 37.5849 150.702 37.9242 150.702 38.2501C150.414 38.3502 147.846 38.3804 147.288 38.3025C147.276 38.2917 147.266 38.2837 147.258 38.2749C147.25 38.2655 147.238 38.2561 147.236 38.2454C147.226 38.1963 147.212 38.1466 147.212 38.0969C147.211 34.574 147.211 31.0505 147.211 27.5277C147.211 27.4779 147.218 27.4269 147.227 27.3778C147.232 27.355 147.251 27.3348 147.283 27.2797C148.392 27.2791 149.523 27.2791 150.709 27.2791Z" fill="#9CA3AF"/>
<path d="M55.7745 35.5254C55.0542 36.4587 54.3333 37.392 53.6197 38.3159C53.4678 38.3232 53.3556 38.3333 53.2434 38.3333C51.4125 38.334 49.5808 38.3636 47.7505 38.3239C46.0533 38.287 44.4891 37.7756 43.1936 36.6522C42.2563 35.8392 41.6549 34.8011 41.4634 33.5453C41.2988 32.4668 41.4016 31.4328 41.8928 30.4538C42.5089 29.2262 43.4973 28.3984 44.7504 27.8783C45.7979 27.4436 46.8898 27.2447 48.0307 27.2534C50.4678 27.2723 52.9048 27.2595 55.3418 27.2595C55.4668 27.2595 55.5911 27.2595 55.7228 27.2595C55.6375 27.5585 54.1687 29.5319 53.5767 30.1514C53.4625 30.1514 53.3241 30.1514 53.1863 30.1514C51.5321 30.1514 49.8778 30.1407 48.2236 30.1588C47.7996 30.1635 47.3635 30.2092 46.9557 30.3207C46.1514 30.5411 45.4848 30.9738 45.1045 31.76C44.6113 32.7799 44.868 34.2823 46.0768 34.9462C46.6775 35.2761 47.3178 35.4407 47.9951 35.4427C50.4321 35.4501 52.8692 35.4454 55.3062 35.4461C55.4433 35.4461 55.581 35.4461 55.7181 35.4461C55.7382 35.4716 55.7564 35.4985 55.7745 35.5254Z" fill="#9CA3AF"/>
<path d="M182.388 27.2582C181.624 28.2587 180.915 29.1866 180.178 30.1501C180.063 30.1501 179.927 30.1501 179.79 30.1501C178.11 30.1501 176.431 30.1447 174.751 30.1528C174.13 30.1562 173.518 30.2469 172.953 30.5244C172.065 30.9604 171.491 31.6552 171.41 32.6543C171.343 33.4774 171.633 34.2018 172.309 34.7151C172.776 35.0699 173.306 35.3111 173.9 35.3689C174.263 35.4045 174.628 35.4394 174.991 35.4401C177.29 35.4468 179.588 35.4435 181.886 35.4435C182.023 35.4435 182.16 35.4435 182.275 35.4435C182.304 35.4811 182.314 35.4898 182.318 35.4999C182.322 35.5113 182.324 35.5254 182.321 35.5369C182.315 35.561 182.308 35.5866 182.295 35.6074C182.269 35.6497 182.239 35.6907 182.207 35.7297C181.528 36.5877 180.849 37.4458 180.147 38.332C180.022 38.332 179.885 38.332 179.747 38.332C178.03 38.332 176.313 38.332 174.595 38.3313C173.3 38.3307 172.065 38.0673 170.922 37.4484C169.32 36.581 168.251 35.2876 168.002 33.4546C167.812 32.0489 168.084 30.728 169.016 29.5797C170.016 28.3474 171.339 27.7238 172.848 27.4121C173.429 27.2918 174.017 27.2515 174.613 27.2535C177.037 27.2622 179.462 27.2569 181.886 27.2569C182.024 27.2582 182.161 27.2582 182.388 27.2582Z" fill="#9CA3AF"/>
<path d="M107.116 27.2584C106.342 28.2683 105.625 29.2042 104.9 30.1503C104.728 30.1503 104.578 30.1503 104.428 30.1503C102.749 30.1503 101.069 30.1368 99.3907 30.1563C98.6005 30.1657 97.8487 30.3445 97.1848 30.8222C95.6602 31.9181 95.8269 34.1623 97.4623 34.9887C98.0623 35.2918 98.6892 35.4423 99.3537 35.443C101.778 35.447 104.202 35.4443 106.627 35.4443C106.763 35.4443 106.9 35.4443 107.121 35.4443C106.349 36.4448 105.624 37.3834 104.904 38.3167C104.761 38.3235 104.648 38.3322 104.536 38.3329C102.692 38.3335 100.849 38.3557 99.0057 38.3255C97.4112 38.2993 95.9418 37.8108 94.686 36.8284C93.6196 35.9946 92.9101 34.8806 92.73 33.5206C92.4895 31.7071 92.986 30.1147 94.395 28.8857C95.2887 28.1063 96.3557 27.6568 97.51 27.4176C98.0778 27.3 98.6536 27.2537 99.2355 27.2557C101.697 27.2631 104.159 27.259 106.622 27.259C106.758 27.2584 106.895 27.2584 107.116 27.2584Z" fill="#9CA3AF"/>
<path d="M132.077 27.281C131.704 27.8145 131.385 28.2794 131.059 28.7397C130.361 29.7267 129.661 30.7124 128.961 31.6988C128.042 32.9929 127.121 34.2863 126.204 35.5811C125.825 36.116 125.469 36.6683 125.069 37.1863C124.823 37.5035 124.534 37.7951 124.227 38.0524C123.872 38.3508 123.44 38.4818 122.967 38.4912C122.468 38.5006 121.977 38.4892 121.548 38.1962C121.184 37.9469 120.859 37.654 120.605 37.2844C119.65 35.8929 118.686 34.5061 117.727 33.1165C116.76 31.7163 115.794 30.3153 114.827 28.9157C114.512 28.4595 114.189 28.0086 113.872 27.5538C113.823 27.4839 113.787 27.4053 113.742 27.3266C114.016 27.2427 117.287 27.2158 117.926 27.2897C118.118 27.5578 118.33 27.8386 118.526 28.1289C119.466 29.5178 120.4 30.91 121.337 32.2995C121.759 32.9264 122.185 33.5506 122.612 34.1741C122.68 34.2736 122.761 34.3656 122.874 34.5108C124.606 32.0623 126.304 29.6615 127.989 27.2803C129.354 27.281 130.676 27.281 132.077 27.281Z" fill="#9CA3AF"/>
<path d="M68.4871 30.1507C67.1964 30.1507 65.8881 30.1507 64.5443 30.1507C64.5013 31.0813 64.5295 31.9736 64.5248 32.8652C64.5194 33.7743 64.5235 34.6834 64.5235 35.5932C64.5235 36.4868 64.5235 37.3798 64.5235 38.26C64.2097 38.348 61.5959 38.3662 61.1182 38.2876C61.0779 37.9153 61.1048 37.5276 61.1001 37.142C61.0954 36.763 61.0987 36.384 61.0987 36.0058C61.0987 35.614 61.0987 35.223 61.0987 34.8312C61.0987 34.4523 61.0987 34.0733 61.0987 33.695C61.0987 33.3033 61.0987 32.9123 61.0987 32.5205C61.0987 32.1416 61.0987 31.7626 61.0987 31.3843C61.0987 30.9946 61.0987 30.6049 61.0987 30.1729C60.2266 30.1292 59.3853 30.1574 58.5455 30.1527C57.7022 30.1473 56.8583 30.1514 55.9297 30.1514C56.6359 29.128 57.3864 28.2377 58.0912 27.2856C62.2571 27.2856 66.427 27.2856 70.6621 27.2856C69.962 28.2895 69.2148 29.1858 68.4871 30.1507Z" fill="#9CA3AF"/>
<path d="M26.6153 35.5483C25.9078 36.4594 25.2002 37.3705 24.4968 38.2763C24.1977 38.3495 15.0658 38.3596 14.7036 38.2884C14.6283 38.0263 14.6035 27.8132 14.6767 27.3315C14.9273 27.2434 17.4907 27.2125 18.1048 27.2972C18.1136 27.4323 18.1304 27.5774 18.1304 27.7225C18.1317 30.1206 18.1317 32.5186 18.1317 34.9167C18.1317 35.0672 18.1317 35.2177 18.1317 35.418C18.2983 35.4274 18.4428 35.4435 18.5879 35.4435C21.0996 35.4448 23.6112 35.4448 26.1228 35.4448C26.2713 35.4448 26.4191 35.4448 26.5676 35.4448C26.5844 35.4791 26.5998 35.514 26.6153 35.5483Z" fill="#9CA3AF"/>
<path d="M187.015 35.4326C189.835 35.4326 192.62 35.4326 195.416 35.4326C195.323 35.7275 193.753 37.8004 193.246 38.3151C190.034 38.3151 186.806 38.3151 183.593 38.3151C183.567 38.2889 183.558 38.2801 183.55 38.2701C183.543 38.2607 183.534 38.2506 183.531 38.2392C183.522 38.2029 183.509 38.1652 183.509 38.1283C183.508 34.5927 183.507 31.0571 183.508 27.5214C183.508 27.4596 183.521 27.3971 183.528 27.3387C183.792 27.2379 186.118 27.2023 186.954 27.2869C186.968 27.4643 186.995 27.6484 186.995 27.8325C186.998 30.2064 186.997 32.5803 186.998 34.9542C186.997 35.102 187.007 35.2498 187.015 35.4326Z" fill="#9CA3AF"/>
<path d="M87.5063 27.281C88.668 27.281 89.7861 27.281 90.8974 27.281C90.9794 27.5659 91.0056 37.7595 90.9324 38.2601C90.6824 38.3488 88.1352 38.381 87.511 38.297C87.5002 38.1996 87.4781 38.0921 87.4781 37.9846C87.4761 34.5269 87.4761 31.0686 87.4781 27.6109C87.4774 27.5121 87.4942 27.4147 87.5063 27.281Z" fill="#9CA3AF"/>
<path d="M162.766 38.3291C162.766 34.6114 162.766 30.9683 162.766 27.3312C163.044 27.2439 165.707 27.221 166.167 27.2956C166.176 27.305 166.185 27.3131 166.193 27.3232C166.2 27.3326 166.211 27.3433 166.213 27.3541C166.221 27.4031 166.235 27.4528 166.235 27.5026C166.235 31.0362 166.235 34.5698 166.235 38.104C166.235 38.1416 166.229 38.1793 166.219 38.2156C166.213 38.2384 166.196 38.2586 166.152 38.3311C165.055 38.3338 163.928 38.3365 162.766 38.3291Z" fill="#9CA3AF"/>
<path d="M39.8706 54.8483C39.7429 54.7536 39.6065 54.6683 39.4896 54.5614C38.5321 53.6933 37.7917 52.666 37.2965 51.472C37.0351 50.8424 36.8644 50.1805 36.7858 49.5033C36.7314 49.0296 36.7139 48.5498 36.7045 48.0727C36.687 47.1616 36.8375 46.27 37.0391 45.3844C37.236 44.521 37.5269 43.6898 37.8541 42.8701C37.9005 42.7539 37.9617 42.6443 38.0362 42.4905C39.3962 42.4912 40.7595 42.4891 42.188 42.4925C41.9602 42.897 41.7761 43.2235 41.592 43.5501C40.7084 45.1156 39.9734 46.7437 39.5494 48.4974C39.2699 49.6538 39.1308 50.8303 39.2202 52.0182C39.2927 52.9757 39.5071 53.9083 39.9236 54.7852C39.9068 54.8067 39.8887 54.8275 39.8706 54.8483Z" fill="#9CA3AF"/>
<path d="M107.937 6.56627C107.937 6.56627 106.779 6.02605 106.361 5.79895C105.792 5.48987 105.181 5.28829 104.565 5.09881C103.685 4.82736 102.784 4.65871 101.873 4.51895C100.233 4.26765 98.5824 4.28714 96.9321 4.3073C96.4316 4.31334 95.9317 4.39263 95.4311 4.43698C95.0931 4.46721 94.7551 4.4961 94.4165 4.52365C93.1876 4.62242 91.9721 4.81526 90.7593 5.03498C89.3341 5.293 87.9198 5.59804 86.5155 5.95214C84.2148 6.53268 81.9471 7.22542 79.7157 8.02769C78.1024 8.60755 76.5073 9.23915 74.9182 9.88217C73.9251 10.284 72.9522 10.7368 71.9813 11.1911C70.6677 11.8065 69.3541 12.424 68.0613 13.0818C66.9278 13.6583 65.8151 14.2785 64.7065 14.902C63.5635 15.5444 62.4266 16.1982 61.3045 16.8761C60.4418 17.3975 59.6046 17.9606 58.7607 18.5116C58.1593 18.904 57.56 19.3011 56.968 19.7082C55.5771 20.6644 54.2165 21.6628 52.8976 22.7171C52.5932 22.9603 52.2861 23.2009 51.9562 23.4622C50.7615 23.4622 49.5393 23.4622 48.2734 23.4622C48.3312 23.3782 48.3615 23.3151 48.4085 23.2694C49.1604 22.541 49.8901 21.7865 50.6742 21.0944C51.6552 20.229 52.6698 19.4005 53.6911 18.5828C54.703 17.7725 55.7189 16.9641 56.7725 16.2096C58.0122 15.322 59.2908 14.4881 60.5587 13.6402C61.0929 13.2834 61.6371 12.9414 62.1868 12.6095C62.942 12.1532 63.7046 11.7084 64.4686 11.267C65.1996 10.8444 65.928 10.4143 66.6738 10.0192C67.7885 9.42863 68.9086 8.84675 70.0441 8.29713C71.2019 7.73675 72.369 7.19317 73.5529 6.69125C75.1661 6.00724 76.7848 5.33197 78.4269 4.72254C79.8447 4.19643 81.2913 3.74289 82.7386 3.30278C83.944 2.93659 85.1615 2.60467 86.3878 2.31709C87.6973 2.00935 89.019 1.74394 90.3447 1.51348C91.2471 1.35625 92.1669 1.30384 93.0754 1.18155C93.9011 1.07001 94.7289 1.02701 95.5614 1.03104C95.8114 1.03239 96.0634 0.959819 96.312 0.970569C97.1283 1.00484 97.944 1.06262 98.7604 1.11033C99.8321 1.17282 100.883 1.35759 101.919 1.63442C103.335 2.01271 104.671 2.57376 105.814 3.50369C106.817 4.32013 107.937 6.56627 107.937 6.56627Z" fill="#9CA3AF"/>
</svg>
