<svg width="235" height="60" viewBox="0 0 235 60" fill="none" xmlns="http://www.w3.org/2000/svg">
<g clip-path="url(#clip0_1098_55660)">
<path d="M23.3496 52.549L6.1841 42.4344V26.408L23.3551 36.7051L35.3942 29.2063V22.6807L23.2998 30.2183L0.648438 16.6252V45.5976L23.4436 59.0303L47.4223 43.9496V37.4075L23.3496 52.549Z" fill="#9CA3AF"/>
<path d="M23.3348 0.969482L1.33594 14.6565L23.3348 27.6192V21.6853L11.2017 14.5349L23.3348 6.99179L42.0985 18.6659L42.093 31.8608L23.3348 43.5349L13.104 37.1808V43.1975L23.1136 49.4079L23.3403 49.5461L47.2028 34.7033V15.8289L23.3348 0.969482Z" fill="#9CA3AF"/>
</g>
<path d="M59.3811 26.3236C59.3811 28.1509 59.3811 29.72 59.2818 30.5542C59.2023 31.1302 59.103 31.5672 58.7058 31.6466C58.527 31.6863 58.2887 31.7261 57.9907 31.7261C57.7524 31.7261 57.6729 31.7856 57.6729 31.885C57.6729 32.024 57.812 32.0836 58.0702 32.0836C58.4674 32.0836 58.9838 32.0438 59.4407 32.0438C59.9173 32.024 60.3543 32.024 60.5728 32.024C61.1686 32.024 61.7844 32.0438 62.6384 32.0836C63.4925 32.1034 64.5849 32.1432 66.0746 32.1432C66.8293 32.1432 67.0081 32.1432 67.1471 31.6267C67.2464 31.2295 67.4053 29.8789 67.4053 29.4221C67.4053 29.2234 67.4053 29.0645 67.2464 29.0645C67.1074 29.0645 67.0677 29.144 67.0279 29.3625C66.8889 30.1768 66.6506 30.5939 66.1342 30.8323C65.6177 31.0706 64.7835 31.0706 64.2671 31.0706C62.2412 31.0706 61.9234 30.7727 61.8837 29.4022C61.8638 28.8262 61.8837 26.9989 61.8837 26.3236V24.7545C61.8837 24.6353 61.9035 24.5559 62.0029 24.5559C62.4795 24.5559 64.4459 24.5757 64.8233 24.6155C65.5582 24.6949 65.8362 24.9928 65.9355 25.3901C65.9951 25.6483 65.9951 25.9065 66.015 26.1051C66.015 26.2044 66.0547 26.2839 66.1937 26.2839C66.3725 26.2839 66.3725 26.0654 66.3725 25.9065C66.3725 25.7674 66.4321 24.973 66.4519 24.5757C66.5314 23.5628 66.6108 23.245 66.6108 23.1258C66.6108 23.0066 66.5513 22.9669 66.4718 22.9669C66.3725 22.9669 66.2931 23.0662 66.154 23.2251C65.9753 23.4237 65.6773 23.4833 65.2006 23.523C64.7438 23.5628 62.4597 23.5628 62.0227 23.5628C61.9035 23.5628 61.8837 23.4833 61.8837 23.3443V18.3192C61.8837 18.1802 61.9234 18.1206 62.0227 18.1206C62.42 18.1206 64.5055 18.1603 64.8431 18.2C65.8362 18.3192 66.0348 18.5575 66.1739 18.915C66.2732 19.1534 66.2931 19.491 66.2931 19.6301C66.2931 19.8088 66.3328 19.9081 66.4718 19.9081C66.6108 19.9081 66.6506 19.789 66.6704 19.6897C66.7102 19.4513 66.7499 18.5774 66.7697 18.3788C66.8293 17.4651 66.9286 17.2268 66.9286 17.0877C66.9286 16.9884 66.9088 16.909 66.8095 16.909C66.7102 16.909 66.591 16.9686 66.4917 16.9884C66.3328 17.0282 66.015 17.0679 65.6376 17.1076C65.2602 17.1275 61.3077 17.1275 60.6721 17.1275C60.394 17.1275 59.9372 17.1076 59.4208 17.0877C58.9242 17.0877 58.3482 17.0679 57.812 17.0679C57.514 17.0679 57.375 17.1076 57.375 17.2466C57.375 17.3857 57.4942 17.4254 57.7127 17.4254C57.9907 17.4254 58.3284 17.4453 58.4873 17.485C59.1427 17.624 59.3016 17.9418 59.3413 18.6171C59.3811 19.2527 59.3811 19.8088 59.3811 22.8279V26.3236Z" fill="#9CA3AF"/>
<path d="M72.8244 21.0403H72.884C73.2415 21.4177 75.4462 23.9004 77.6111 26.0455C79.6768 28.0913 82.2191 30.6932 83.4704 31.885C83.6889 32.1034 83.9273 32.3219 84.1458 32.3219C84.3245 32.3219 84.404 32.1432 84.404 31.7062L84.6224 19.1733C84.6423 18.061 84.8012 17.6439 85.3573 17.485C85.5957 17.4254 85.7546 17.4254 85.9532 17.4254C86.1915 17.4254 86.3107 17.3658 86.3107 17.2466C86.3107 17.0877 86.1121 17.0679 85.8539 17.0679C84.8807 17.0679 84.1259 17.1275 83.9074 17.1275C83.4903 17.1275 82.5369 17.0679 81.5041 17.0679C81.2062 17.0679 80.9877 17.0877 80.9877 17.2466C80.9877 17.3658 81.0671 17.4254 81.3055 17.4254C81.5836 17.4254 82.0602 17.4254 82.3582 17.5446C82.8349 17.7432 83.0136 18.1206 83.0335 19.3321L83.2321 28.2502H83.1328C82.7951 27.9324 80.1138 25.0723 78.7631 23.7217C75.8633 20.8417 72.8443 17.6042 72.6059 17.3459C72.2683 16.9884 72.0895 16.7302 71.871 16.7302C71.6724 16.7302 71.6128 17.0083 71.6128 17.4055L71.4341 29.1639C71.4142 30.8919 71.3347 31.4679 70.8183 31.6267C70.5403 31.7062 70.1828 31.7261 69.9245 31.7261C69.7259 31.7261 69.6068 31.7658 69.6068 31.885C69.6068 32.0637 69.7855 32.0836 70.0437 32.0836C71.0765 32.0836 72.0101 32.024 72.1888 32.024C72.5662 32.024 73.3607 32.0836 74.6517 32.0836C74.9298 32.0836 75.1085 32.0438 75.1085 31.885C75.1085 31.7658 74.9894 31.7261 74.7709 31.7261C74.4531 31.7261 74.0757 31.7062 73.7381 31.587C73.3408 31.448 73.0826 30.9316 73.0429 29.3823L72.8244 21.0403Z" fill="#9CA3AF"/>
<path d="M102.608 28.568C102.608 27.5749 102.608 26.7804 102.627 26.1846C102.647 25.4894 102.846 25.1517 103.382 25.0524C103.62 25.0127 103.76 24.9928 103.918 24.9928C104.057 24.9928 104.177 24.9531 104.177 24.8339C104.177 24.675 104.038 24.6353 103.779 24.6353C103.124 24.6353 102.071 24.6949 101.456 24.6949C100.86 24.6949 99.6083 24.6353 98.5755 24.6353C98.2975 24.6353 98.1584 24.675 98.1584 24.8339C98.1584 24.9531 98.2776 24.9928 98.4563 24.9928C98.7344 24.9928 99.0721 25.0127 99.231 25.0524C99.8864 25.1914 100.065 25.5092 100.085 26.1846C100.105 26.7804 100.105 27.5352 100.105 28.5283V30.3953C100.105 30.733 100.025 30.9912 99.7275 31.1302C99.2508 31.3487 98.5557 31.3487 98.0392 31.3487C93.8484 31.3487 91.1273 28.1509 91.1273 23.8806C91.1273 21.4375 91.8423 19.9479 92.9546 19.0144C94.3449 17.8624 95.7948 17.7829 96.8872 17.7829C99.1317 17.7829 100.721 18.6966 101.316 19.3321C101.833 19.8883 101.932 20.5239 101.992 20.9807C102.012 21.1396 102.051 21.2389 102.19 21.2389C102.349 21.2389 102.409 21.1396 102.409 20.8218C102.409 18.339 102.548 17.7829 102.548 17.5644C102.548 17.4254 102.508 17.3459 102.27 17.3261C101.813 17.3062 101.118 17.1871 100.701 17.1076C100.304 17.0282 98.5557 16.7898 97.1852 16.7898C95.5168 16.7898 93.749 16.9288 91.8423 18.0808C90.0348 19.1733 88.3863 21.3978 88.3863 24.5757C88.3863 30.0576 92.6964 32.3616 97.5626 32.3616C99.1118 32.3616 101.058 32.1432 102.349 31.4679C102.588 31.3288 102.608 31.2891 102.608 30.7528V28.568Z" fill="#9CA3AF"/>
<path d="M110.627 22.8279C110.627 19.8088 110.627 19.2527 110.666 18.6171C110.706 17.9219 110.865 17.5843 111.401 17.485C111.64 17.4453 111.957 17.4254 112.176 17.4254C112.414 17.4254 112.533 17.3857 112.533 17.2466C112.533 17.1076 112.394 17.0679 112.116 17.0679C111.342 17.0679 109.892 17.1275 109.415 17.1275C108.879 17.1275 107.627 17.0679 106.694 17.0679C106.396 17.0679 106.257 17.1076 106.257 17.2466C106.257 17.3857 106.376 17.4254 106.595 17.4254C106.853 17.4254 107.091 17.4453 107.25 17.485C107.906 17.624 108.064 17.9418 108.104 18.6171C108.144 19.2527 108.144 19.8088 108.144 22.8279V26.3236C108.144 28.1509 108.144 29.72 108.045 30.5542C107.965 31.1302 107.866 31.5672 107.469 31.6466C107.29 31.6863 107.051 31.7261 106.754 31.7261C106.515 31.7261 106.436 31.7856 106.436 31.885C106.436 32.024 106.575 32.0836 106.833 32.0836C107.23 32.0836 107.747 32.0438 108.203 32.0438C108.68 32.024 109.117 32.024 109.336 32.024C110.15 32.024 110.865 32.0438 111.759 32.0836C112.653 32.1034 113.685 32.1432 115.115 32.1432C116.148 32.1432 116.248 32.0438 116.367 31.6069C116.526 31.0309 116.665 29.5412 116.665 29.3228C116.665 29.0844 116.645 28.9851 116.506 28.9851C116.347 28.9851 116.307 29.1043 116.287 29.283C116.248 29.6604 116.009 30.2165 115.771 30.4747C115.274 31.011 114.5 31.0309 113.447 31.0309C111.898 31.0309 111.381 30.8919 111.044 30.5939C110.627 30.2364 110.627 28.8659 110.627 26.3236V22.8279Z" fill="#9CA3AF"/>
<path d="M120.17 26.3236C120.17 28.2502 120.17 29.8193 120.07 30.6535C120.011 31.2295 119.892 31.5672 119.494 31.6466C119.316 31.6863 119.077 31.7261 118.779 31.7261C118.541 31.7261 118.462 31.7856 118.462 31.885C118.462 32.024 118.601 32.0836 118.859 32.0836C119.653 32.0836 120.905 32.024 121.361 32.024C121.898 32.024 123.149 32.0836 124.46 32.0836C124.678 32.0836 124.837 32.024 124.837 31.885C124.837 31.7856 124.738 31.7261 124.52 31.7261C124.222 31.7261 123.785 31.6863 123.507 31.6466C122.911 31.5672 122.772 31.2096 122.712 30.6734C122.633 29.8193 122.633 28.2502 122.633 26.3236V22.8279C122.633 19.8088 122.633 19.2527 122.672 18.6171C122.712 17.9219 122.871 17.5843 123.407 17.485C123.646 17.4453 123.804 17.4254 124.003 17.4254C124.202 17.4254 124.321 17.3857 124.321 17.2268C124.321 17.1076 124.162 17.0679 123.904 17.0679C123.149 17.0679 121.977 17.1275 121.481 17.1275C120.905 17.1275 119.653 17.0679 118.899 17.0679C118.581 17.0679 118.422 17.1076 118.422 17.2268C118.422 17.3857 118.541 17.4254 118.74 17.4254C118.978 17.4254 119.236 17.4453 119.455 17.5048C119.892 17.6042 120.09 17.9418 120.13 18.6171C120.17 19.2527 120.17 19.8088 120.17 22.8279V26.3236Z" fill="#9CA3AF"/>
<path d="M130.958 32.3616C132.01 32.3616 133.123 32.1829 134.116 31.5473C135.546 30.6138 135.983 29.2433 135.983 28.0913C135.983 26.2044 135.129 24.8339 132.725 23.0265L132.169 22.6094C130.521 21.3581 130.064 20.6629 130.064 19.7493C130.064 18.5575 130.958 17.7035 132.428 17.7035C133.719 17.7035 134.295 18.2993 134.593 18.6767C135.01 19.1931 135.109 19.8088 135.109 19.9876C135.109 20.2259 135.169 20.3451 135.308 20.3451C135.466 20.3451 135.526 20.1862 135.526 19.7493C135.526 18.2 135.605 17.624 135.605 17.3658C135.605 17.2268 135.506 17.1672 135.327 17.1275C134.811 16.9884 133.977 16.7898 132.686 16.7898C129.925 16.7898 128.098 18.3589 128.098 20.5437C128.098 22.1526 128.852 23.5429 131.037 25.251L131.951 25.9661C133.599 27.2571 133.897 28.1708 133.897 29.144C133.897 30.1967 133.023 31.4083 131.236 31.4083C130.004 31.4083 128.833 30.872 128.396 29.4022C128.296 29.0645 128.217 28.6474 128.217 28.3892C128.217 28.2303 128.197 28.0516 128.018 28.0516C127.859 28.0516 127.8 28.2701 127.78 28.568C127.76 28.8858 127.681 30.0775 127.681 31.1699C127.681 31.6069 127.74 31.7062 128.058 31.8452C128.912 32.2226 129.806 32.3616 130.958 32.3616Z" fill="#9CA3AF"/>
<path d="M143.313 23.384C143.253 23.384 143.193 23.3443 143.193 23.245V22.8279C143.193 19.8088 143.193 19.2527 143.233 18.6171C143.273 17.9219 143.432 17.5843 143.968 17.485C144.206 17.4453 144.385 17.4254 144.544 17.4254C144.782 17.4254 144.902 17.3857 144.902 17.2466C144.902 17.1076 144.762 17.0679 144.484 17.0679C143.71 17.0679 142.459 17.1275 141.982 17.1275C141.446 17.1275 140.194 17.0679 139.122 17.0679C138.844 17.0679 138.705 17.1076 138.705 17.2466C138.705 17.3857 138.824 17.4254 139.042 17.4254C139.32 17.4254 139.658 17.4453 139.817 17.485C140.472 17.624 140.631 17.9418 140.671 18.6171C140.711 19.2527 140.711 19.8088 140.711 22.8279V26.3236C140.711 28.1509 140.711 29.72 140.611 30.5542C140.532 31.1302 140.433 31.5672 140.035 31.6466C139.857 31.6863 139.618 31.7261 139.32 31.7261C139.082 31.7261 139.003 31.7856 139.003 31.885C139.003 32.024 139.142 32.0836 139.4 32.0836C140.194 32.0836 141.446 32.024 141.902 32.024C142.459 32.024 143.71 32.0836 145.001 32.0836C145.239 32.0836 145.398 32.024 145.398 31.885C145.398 31.7856 145.299 31.7261 145.08 31.7261C144.782 31.7261 144.345 31.6863 144.067 31.6466C143.471 31.5672 143.352 31.1302 143.293 30.5741C143.193 29.72 143.193 28.1509 143.193 26.3236V24.5757C143.193 24.4764 143.253 24.4566 143.313 24.4566H150.9C150.959 24.4566 151.019 24.4963 151.019 24.5757V26.3236C151.019 28.1509 151.019 29.72 150.92 30.5542C150.84 31.1302 150.741 31.5672 150.344 31.6466C150.165 31.6863 149.927 31.7261 149.629 31.7261C149.39 31.7261 149.311 31.7856 149.311 31.885C149.311 32.024 149.45 32.0836 149.728 32.0836C150.503 32.0836 151.754 32.024 152.211 32.024C152.767 32.024 154.018 32.0836 155.309 32.0836C155.548 32.0836 155.706 32.024 155.706 31.885C155.706 31.7856 155.607 31.7261 155.389 31.7261C155.091 31.7261 154.654 31.6863 154.376 31.6466C153.78 31.5672 153.661 31.1302 153.601 30.5741C153.502 29.72 153.502 28.1509 153.502 26.3236V22.8279C153.502 19.8088 153.502 19.2527 153.542 18.6171C153.581 17.9219 153.74 17.5843 154.276 17.485C154.515 17.4453 154.694 17.4254 154.852 17.4254C155.091 17.4254 155.21 17.3857 155.21 17.2466C155.21 17.1076 155.071 17.0679 154.793 17.0679C154.018 17.0679 152.767 17.1275 152.29 17.1275C151.754 17.1275 150.503 17.0679 149.43 17.0679C149.152 17.0679 149.013 17.1076 149.013 17.2466C149.013 17.3857 149.132 17.4254 149.351 17.4254C149.629 17.4254 149.966 17.4453 150.125 17.485C150.781 17.624 150.94 17.9418 150.979 18.6171C151.019 19.2527 151.019 19.8088 151.019 22.8279V23.245C151.019 23.3443 150.959 23.384 150.9 23.384H143.313Z" fill="#9CA3AF"/>
<path d="M168.408 31.6267C168.587 32.1432 168.666 32.3616 168.865 32.3616C169.103 32.3616 169.202 32.1233 169.58 31.309C170.434 29.4816 173.076 22.4505 173.453 21.4375H173.493L177.624 31.3884C177.922 32.1233 178.041 32.3616 178.24 32.3616C178.498 32.3616 178.597 32.1233 178.816 31.4281C179.789 28.4488 181.874 22.1327 182.788 19.6301C183.205 18.4979 183.424 17.7035 183.9 17.5247C184.119 17.4453 184.397 17.4254 184.595 17.4254C184.774 17.4254 184.874 17.3658 184.874 17.2268C184.874 17.1076 184.735 17.0679 184.516 17.0679C183.861 17.0679 183.007 17.1275 182.867 17.1275C182.689 17.1275 181.855 17.0679 180.802 17.0679C180.504 17.0679 180.345 17.1076 180.345 17.2466C180.345 17.3658 180.484 17.4254 180.683 17.4254C181.457 17.4254 181.636 17.7035 181.636 18.0213C181.636 18.2993 181.576 18.7164 181.437 19.1733C180.742 21.4971 179.153 26.7407 178.796 28.0714H178.736L174.605 18.0808C174.347 17.4453 174.247 17.1473 174.029 17.1473C173.87 17.1473 173.731 17.3062 173.532 17.8624L169.679 28.2105H169.62C169.262 27.0982 167.415 21.08 167.077 19.7691C166.839 18.8753 166.64 18.2 166.64 17.9418C166.64 17.7233 166.68 17.5843 166.859 17.5048C166.998 17.4254 167.196 17.4254 167.355 17.4254C167.554 17.4254 167.713 17.4055 167.713 17.2466C167.713 17.1275 167.574 17.0679 167.296 17.0679C166.144 17.0679 165.27 17.1275 165.091 17.1275C164.912 17.1275 163.82 17.0679 162.787 17.0679C162.509 17.0679 162.35 17.1076 162.35 17.2466C162.35 17.4055 162.469 17.4254 162.668 17.4254C162.847 17.4254 163.244 17.4651 163.462 17.6042C163.74 17.8028 163.959 18.2795 164.197 19.0144L168.408 31.6267Z" fill="#9CA3AF"/>
<path d="M193.354 32.3616C198.399 32.3616 201.577 28.7666 201.577 24.2182C201.577 19.6698 198.498 16.7898 193.552 16.7898C187.594 16.7898 185.349 21.1793 185.349 24.5757C185.349 28.0913 187.653 32.3616 193.354 32.3616ZM194.188 31.3685C190.375 31.3685 188.09 28.0913 188.09 23.96C188.09 19.0144 190.692 17.7432 192.976 17.7432C196.234 17.7432 198.796 20.504 198.796 24.9531C198.796 30.6932 195.578 31.3685 194.188 31.3685Z" fill="#9CA3AF"/>
<path d="M205.728 26.3236C205.728 28.1509 205.728 29.72 205.628 30.5542C205.549 31.1302 205.45 31.5672 205.052 31.6466C204.874 31.6863 204.635 31.7261 204.337 31.7261C204.099 31.7261 204.02 31.7856 204.02 31.885C204.02 32.024 204.159 32.0836 204.417 32.0836C205.211 32.0836 206.463 32.024 206.84 32.024C207.138 32.024 208.608 32.0836 209.76 32.0836C210.018 32.0836 210.157 32.024 210.157 31.885C210.157 31.7856 210.078 31.7261 209.919 31.7261C209.68 31.7261 209.243 31.6863 208.945 31.6466C208.35 31.5672 208.23 31.1302 208.171 30.5542C208.071 29.72 208.071 28.1509 208.071 26.3037V26.0257C208.071 25.9065 208.131 25.8668 208.23 25.8668L209.958 25.9065C210.097 25.9065 210.217 25.9263 210.316 26.0455C210.574 26.3434 211.488 27.6941 212.282 28.7865C213.394 30.3159 214.149 31.2494 215.003 31.7062C215.52 31.9843 216.016 32.0836 217.129 32.0836H219.015C219.254 32.0836 219.393 32.0438 219.393 31.885C219.393 31.7856 219.313 31.7261 219.154 31.7261C218.996 31.7261 218.817 31.7062 218.598 31.6665C218.3 31.6069 217.486 31.4679 216.374 30.3159C215.202 29.0844 213.831 27.3167 212.064 25.0921C214.07 23.4635 214.686 22.1128 214.686 20.643C214.686 19.3123 213.891 18.2993 213.335 17.9219C212.262 17.1871 210.932 17.0679 209.68 17.0679C209.065 17.0679 207.555 17.1275 206.88 17.1275C206.463 17.1275 205.211 17.0679 204.159 17.0679C203.861 17.0679 203.722 17.1076 203.722 17.2466C203.722 17.3857 203.841 17.4254 204.059 17.4254C204.337 17.4254 204.675 17.4453 204.834 17.485C205.489 17.624 205.648 17.9418 205.688 18.6171C205.728 19.2527 205.728 19.8088 205.728 22.8279V26.3236ZM208.071 18.3589C208.071 18.2 208.111 18.1206 208.25 18.0808C208.449 18.0213 208.806 18.0014 209.303 18.0014C210.475 18.0014 212.342 18.8157 212.342 21.6361C212.342 23.2648 211.766 24.1785 211.17 24.6155C210.812 24.8737 210.554 24.9531 209.76 24.9531C209.263 24.9531 208.667 24.8935 208.25 24.7545C208.111 24.6949 208.071 24.6155 208.071 24.397V18.3589Z" fill="#9CA3AF"/>
<path d="M223.144 22.8279C223.144 19.8088 223.144 19.2527 223.184 18.6171C223.224 17.9219 223.383 17.5843 223.919 17.485C224.157 17.4453 224.277 17.4254 224.475 17.4254C224.634 17.4254 224.753 17.3857 224.753 17.2466C224.753 17.1076 224.614 17.0679 224.336 17.0679C223.661 17.0679 222.41 17.1275 221.933 17.1275C221.456 17.1275 220.205 17.0679 219.152 17.0679C218.854 17.0679 218.715 17.1076 218.715 17.2466C218.715 17.3857 218.834 17.4254 219.053 17.4254C219.331 17.4254 219.669 17.4453 219.827 17.485C220.483 17.624 220.642 17.9418 220.682 18.6171C220.721 19.2527 220.721 19.8088 220.721 22.8279V26.3236C220.721 28.1509 220.721 29.72 220.622 30.5542C220.542 31.1302 220.443 31.5672 220.046 31.6466C219.867 31.6863 219.629 31.7261 219.331 31.7261C219.093 31.7261 219.013 31.7856 219.013 31.885C219.013 32.024 219.152 32.0836 219.41 32.0836C220.205 32.0836 221.456 32.024 221.913 32.024C222.41 32.024 223.661 32.0836 224.773 32.0836C224.992 32.0836 225.15 32.024 225.15 31.885C225.15 31.7856 225.051 31.7261 224.892 31.7261C224.634 31.7261 224.197 31.6863 223.919 31.6466C223.422 31.5672 223.244 31.1302 223.204 30.5741C223.144 29.72 223.144 28.1509 223.144 26.3236V24.5161H223.244L223.462 24.8141C223.879 25.3901 227.792 29.9782 228.666 30.7528C229.52 31.5076 230.056 31.9445 231.129 32.0438C231.546 32.0836 231.904 32.0836 232.499 32.0836H234.227C234.605 32.0836 234.704 32.024 234.704 31.885C234.704 31.7658 234.585 31.7261 234.446 31.7261C234.208 31.7261 233.81 31.6665 233.214 31.4281C232.142 31.011 231.248 30.1172 230.374 29.283C229.6 28.5481 225.707 24.3572 224.992 23.4237C225.667 22.7087 228.666 19.7294 229.282 19.1335C230.136 18.2993 230.811 17.8822 231.427 17.6439C231.804 17.5048 232.301 17.4254 232.579 17.4254C232.777 17.4254 232.877 17.3857 232.877 17.2466C232.877 17.1076 232.738 17.0679 232.539 17.0679C231.923 17.0679 230.831 17.1275 230.215 17.1275C229.679 17.1275 228.587 17.0679 228.169 17.0679C227.951 17.0679 227.852 17.1076 227.852 17.2466C227.852 17.3658 227.931 17.4055 228.11 17.4453C228.309 17.485 228.388 17.624 228.388 17.8425C228.388 18.1802 227.951 18.6767 227.395 19.3321C226.819 20.0075 223.919 22.9669 223.244 23.7018H223.144V22.8279Z" fill="#9CA3AF"/>
<path d="M118.612 38.9964L115.373 48.5246H113.17L109.938 38.9964H111.977L113.77 44.6664C113.8 44.762 113.85 44.9423 113.92 45.2073C113.989 45.468 114.059 45.7461 114.128 46.0415C114.202 46.3326 114.252 46.5737 114.278 46.7649C114.304 46.5737 114.35 46.3326 114.415 46.0415C114.484 45.7504 114.552 45.4745 114.617 45.2138C114.686 44.9488 114.736 44.7663 114.767 44.6664L116.572 38.9964H118.612Z" fill="#9CA3AF"/>
<path d="M121.152 48.5246V38.9964H123.173V48.5246H121.152Z" fill="#9CA3AF"/>
<path d="M132.393 48.5246H126.906V38.9964H132.393V40.6518H128.926V42.7438H132.152V44.3992H128.926V46.8562H132.393V48.5246Z" fill="#9CA3AF"/>
<path d="M139.398 48.5246H137.378V40.6778H134.79V38.9964H141.985V40.6778H139.398V48.5246Z" fill="#9CA3AF"/>
<path d="M153.239 48.5246H150.672L146.527 41.3165H146.468C146.485 41.6163 146.5 41.9183 146.514 42.2224C146.527 42.5265 146.54 42.8307 146.553 43.1348C146.566 43.4346 146.579 43.7366 146.592 44.0407V48.5246H144.786V38.9964H147.335L151.473 46.1327H151.519C151.51 45.8373 151.499 45.544 151.486 45.2529C151.473 44.9618 151.46 44.6707 151.447 44.3796C151.438 44.0885 151.43 43.7974 151.421 43.5063V38.9964H153.239V48.5246Z" fill="#9CA3AF"/>
<path d="M162.812 48.5246L162.121 46.2566H158.647L157.956 48.5246H155.78L159.143 38.9573H161.613L164.989 48.5246H162.812ZM161.639 44.5621L160.948 42.3462C160.904 42.1985 160.846 42.0095 160.772 41.7792C160.702 41.5446 160.631 41.3078 160.557 41.0689C160.487 40.8255 160.431 40.6148 160.387 40.4367C160.344 40.6148 160.283 40.8364 160.205 41.1014C160.131 41.3621 160.059 41.6098 159.99 41.8444C159.92 42.079 159.87 42.2463 159.84 42.3462L159.156 44.5621H161.639Z" fill="#9CA3AF"/>
<path d="M171.563 48.5246L169.269 41.0493H169.21C169.219 41.2274 169.232 41.4968 169.25 41.8574C169.271 42.2137 169.291 42.5939 169.308 42.998C169.326 43.402 169.334 43.767 169.334 44.0929V48.5246H167.529V38.9964H170.279L172.534 46.2826H172.573L174.965 38.9964H177.715V48.5246H175.832V44.0146C175.832 43.7149 175.836 43.3694 175.845 42.9784C175.858 42.5874 175.873 42.2159 175.891 41.864C175.908 41.5077 175.921 41.2405 175.93 41.0623H175.871L173.414 48.5246H171.563Z" fill="#9CA3AF"/>
<defs>
<clipPath id="clip0_1098_55660">
<rect width="46.7738" height="58.0608" fill="white" transform="translate(0.648438 0.969482)"/>
</clipPath>
</defs>
</svg>
