<svg width="382" height="396" viewBox="0 0 382 396" fill="none" xmlns="http://www.w3.org/2000/svg">
<g opacity="0.1" clip-path="url(#clip0_1098_83160)">
<path opacity="0.6" d="M10.5433 268.48C10.4971 268.357 5.73745 252.465 4.0277 244.012C0.854632 224.139 0.731406 223.37 0.253906 211.567L0.300116 212.904C1.02407 226.521 2.67221 236.896 6.58463 252.557C9.21345 263.091 10.533 268.393 10.5433 268.465M171.029 7.73427C171.029 7.73427 171.153 7.68816 171.214 7.67279C171.214 7.76501 171.584 7.76501 171.83 7.74964C172.37 7.74964 172.493 7.74964 172.601 7.78038C173.001 7.90333 172.231 8.33368 172.231 8.33368C171.707 8.6257 170.383 8.91773 170.336 8.87162C170.336 8.87162 170.336 8.87162 170.352 8.85625C170.413 8.79477 170.506 8.74866 170.567 8.67181C170.66 8.5796 170.721 8.47201 170.814 8.37979C170.86 8.33368 170.922 8.28757 170.983 8.24146C171.045 8.19535 171.122 8.13388 170.983 8.04166C170.86 7.96481 170.691 7.85722 171.045 7.7189M172.631 7.11948C172.631 7.11948 173.124 7.07337 173.448 7.11948C173.54 7.13485 173.617 7.16559 173.617 7.2117C173.617 7.2117 173.571 7.35002 173.432 7.44224C173.186 7.61131 172.862 7.50372 172.893 7.39613C172.909 7.31929 173.016 7.30392 173.047 7.22707C173.047 7.22707 173.032 7.19633 172.909 7.19633C172.57 7.19633 172.601 7.15022 172.631 7.11948ZM187.85 8.2722C187.85 8.2722 187.942 8.22609 187.973 8.21072C188.204 8.14925 188.435 8.13388 188.666 8.08777C188.882 8.04166 189.097 7.96481 189.313 7.9187C189.467 7.88796 189.513 7.90333 189.56 7.9187C189.698 8.01092 189.637 8.22609 189.791 8.31831C189.862 8.36954 190.088 8.4259 190.468 8.48738C190.068 8.59497 187.958 8.5796 187.85 8.2722ZM152.838 8.22609C149.111 8.4259 145.83 8.96384 143.026 9.82454C148.125 8.41053 154.902 6.42785 160.062 5.22901C178.7 1.75547 179.809 1.5403 194.519 0.54127L198.339 0.387573H197.97C197.846 0.402943 197.692 0.418313 197.585 0.418313C206.118 0.295355 212.172 0.817923 215.745 1.27901C211.879 3.15411 211.679 3.20022 209.014 3.16948C204.506 3.11825 202.067 3.2617 201.697 3.59983C201.744 3.67668 201.805 3.79964 201.851 3.87648C202.313 3.92259 202.622 3.95333 204.116 3.87648C204.223 4.04555 204.285 4.33757 204.239 4.53738C204.193 4.55275 199.941 5.93602 198.817 4.38368C198.201 3.52298 194.273 4.46053 193.78 4.99847C194.129 5.2034 194.376 5.44931 194.519 5.73621C194.011 7.27318 186.849 8.14925 185.817 8.04166C185.524 7.99555 185.524 7.99555 185.509 7.98018H185.493C185.493 7.98018 185.493 7.98018 185.478 7.98018C185.478 7.98018 185.478 7.98018 185.462 7.98018C185.462 7.98018 185.462 7.98018 185.447 7.98018H185.431C185.431 7.98018 185.431 7.98018 185.416 7.98018C185.416 7.98018 185.416 7.98018 185.401 7.98018C183.968 7.73427 182.751 9.16364 181.273 8.48738C180.256 8.02629 178.885 7.48835 178.084 7.62668C177.36 7.74964 174.973 9.1329 174.264 9.83991C173.648 9.82454 173.094 9.73232 172.539 9.6401C174.742 7.13485 178.685 7.27318 180.61 4.33757C178.023 3.81501 176.775 6.96578 174.264 6.62765C174.264 6.53543 174.264 6.39711 174.264 6.30489C174.511 6.07947 175.661 5.47493 177.714 4.49127C177.252 4.3222 167.179 4.70645 159.107 6.82746C155.334 7.81111 153.146 8.24146 152.946 8.2722" fill="white"/>
<path opacity="0.6" d="M128.503 15.9724C128.95 15.7572 130.829 15.0502 131.137 14.958C131.183 14.958 136.343 13.4825 136.374 13.4825C136.066 13.6362 129.058 16.0492 128.303 16.1107C128.349 16.0646 128.426 16.0031 128.488 15.9724M140.749 12.1761C140.749 12.1761 146.371 9.91675 147.696 9.87064C147.726 9.87064 147.757 9.87064 147.773 9.87064C147.773 9.87064 147.773 9.88601 147.773 9.90138C147.511 10.0858 141.411 12.0224 140.764 12.1607C140.764 12.1607 140.749 12.1607 140.733 12.1607M172.356 9.59398C172.911 9.6862 173.45 9.77842 174.02 9.87064C173.434 10.6852 173.665 10.9926 173.758 11.1156C173.758 11.1156 174.251 11.7918 174.282 12.2529C174.282 12.4681 173.927 13.6208 173.927 13.6208C173.85 13.8053 172.911 13.6208 172.926 13.1751C172.926 12.9599 173.065 12.7601 172.957 12.545C172.941 12.5142 172.849 12.3759 172.603 12.1607C172.325 11.9148 172.233 11.838 172.094 11.5152C171.909 11.0541 171.786 10.1473 172.294 9.64009C172.31 9.62472 172.341 9.59398 172.356 9.57862M42.4453 80.1868L45.9881 75.6988C49.4692 71.4261 56.7087 62.5578 70.9259 50.0008C87.1147 37.1057 87.7462 36.5985 97.9585 30.3123C115.765 20.3681 116.458 19.9839 127.81 15.3115C132.369 13.6669 138.392 11.3154 143.013 9.8399C145.801 8.9792 149.082 8.44126 152.825 8.24146C137.73 12.1453 125.145 17.202 125.037 17.2481C125.263 17.1866 125.885 16.9919 126.901 16.664C94.4312 36.3987 76.0346 48.0488 71.7114 51.6146C72.0503 51.4455 72.497 51.215 72.8359 51.0459C67.7117 55.2675 64.1279 58.2953 62.0844 60.1294C64.1331 57.286 79.4901 44.8673 79.6441 44.7597C67.3061 52.9979 49.0841 71.5337 42.4453 80.1714" fill="white"/>
<path opacity="0.6" d="M282.535 384.675C283.074 384.368 283.059 384.275 283.043 384.183C282.289 384.183 281.688 384.752 280.933 384.706C280.579 384.69 280.517 384.306 280.733 384.076C281.01 383.784 281.334 383.538 281.596 383.215C281.241 383.338 280.933 383.599 280.548 383.661C280.548 383.645 280.517 383.63 280.502 383.599C280.625 383.322 282.535 381.632 282.551 381.616C283.059 381.217 283.12 381.125 283.074 380.94C282.874 380.833 282.643 380.817 282.458 380.694C282.458 380.582 282.458 380.515 282.458 380.494C282.458 380.494 282.412 380.494 282.396 380.494C282.104 380.617 281.519 381.386 281.549 381.601C281.596 381.601 281.642 381.632 281.688 381.632C281.719 381.632 281.719 381.632 281.734 381.632C281.734 381.632 281.734 381.632 281.75 381.632C281.75 381.632 281.75 381.632 281.765 381.632C281.765 381.632 281.765 381.632 281.78 381.632C281.78 381.632 281.78 381.632 281.796 381.632C281.796 381.632 281.796 381.632 281.811 381.632C281.811 381.632 281.811 381.632 281.827 381.632C281.827 381.632 281.827 381.632 281.842 381.632C281.842 381.647 281.842 381.678 281.857 381.693C281.441 382.262 280.825 382.631 280.332 383.123C280.132 383.322 280.055 383.614 279.824 383.784C277.868 385.213 276.589 385.782 275.819 386.104C274.279 386.765 274.233 386.904 274.171 387.011C274.264 387.165 274.679 387.288 274.479 387.441C274.479 387.441 273.694 387.887 272.646 388.225C271.106 388.717 272.723 388.686 272.862 388.64C273.016 388.594 274.741 387.979 276.405 387.288C277.406 386.873 278.345 386.289 279.408 385.981C280.502 385.674 282.504 384.629 282.52 384.613M268.148 370.658C270.952 368.414 272.954 365.647 272.954 365.632C273.478 364.694 272.23 364.126 272.461 363.25C272.646 362.573 273.216 361.959 274.233 360.837C273.909 360.468 273.339 360.514 273.047 360.13C273.278 359.392 273.863 358.823 274.017 358.055C274.325 356.61 272.261 356.134 272.6 354.673C273 352.952 275.373 352.844 275.634 351.015C275.696 350.57 275.496 350.339 275.188 350.016C276.779 348.193 277.616 347.163 277.699 346.927C277 346.097 276.682 345.452 276.743 344.991C276.99 343.131 278.222 341.64 278.638 339.842C278.592 339.826 278.53 339.796 278.484 339.78C273.216 342.101 272.03 349.202 265.9 350.539C265.699 350.585 265.422 350.339 265.33 350.155C264.914 349.432 265.361 348.572 264.991 347.849C264.375 346.635 263.142 345.882 262.573 344.637C262.357 344.176 262.357 343.577 262.573 343.269C262.573 343.254 266.654 340.61 267.332 340.349C267.686 340.226 268.333 339.98 268.333 339.734C268.41 337.29 262.819 336.445 262.757 336.445C261.802 336.553 261.556 337.69 261.464 338.136C261.371 338.166 261.248 338.197 261.14 338.228C258.722 336.799 257.258 335.953 253.223 340.672C251.036 340.656 251.59 337.152 249.187 337.475C248.802 337.521 248.355 337.675 248.016 337.782C242.394 339.611 240.145 339.949 239.067 340.118C236.911 340.441 235.925 342.639 233.953 343.269C232.629 343.623 232.136 343.715 230.426 343.377C228.377 342.962 219.521 342.301 217.21 344.914C217.015 344.678 216.902 344.335 216.871 343.884C216.532 344.084 215.608 344.591 214.884 345.406C214.838 345.467 209.478 351.968 209.385 352.368C207.136 360.744 206.566 360.929 202.192 362.343C202.192 362.374 201.761 365.079 204.626 365.709L215.993 366.969C217.133 367 217.996 366.124 219.089 366.016C224.527 365.463 230.734 366.923 230.765 366.938C235.047 368.706 234.816 370.243 234.492 372.364C234.626 372.466 236.408 372.215 239.837 371.611C238.775 372.61 237.311 372.948 236.156 373.809C236.485 373.829 237.019 373.757 237.758 373.593C237.83 373.583 237.866 373.578 237.866 373.578C237.373 374.147 236.803 374.639 236.31 375.207C237.465 376.867 234.462 378.066 235.817 379.741C237.188 381.447 239.129 380.187 240.731 380.648C240.746 380.756 240.777 380.909 240.792 381.017C240.731 381.094 240.638 381.201 240.577 381.294C240.608 381.401 240.638 381.555 240.669 381.663C248.941 384.706 267.917 370.858 268.102 370.704M244.412 327.838C244.412 327.838 244.843 327.392 244.551 326.685C244.166 325.763 243.873 325.41 243.334 325.225C243.241 325.21 243.057 325.164 242.918 325.21C242.887 325.21 242.856 325.225 242.826 325.241C242.795 325.241 242.764 325.271 242.749 325.287C242.672 325.333 242.625 325.41 242.533 325.471C242.425 325.533 242.302 325.563 242.194 325.625C242.086 325.686 242.055 325.763 242.194 325.963C242.317 326.147 243.519 327.485 243.75 327.684C243.965 327.869 244.212 328.022 244.397 327.838M243.765 323.873C243.765 323.873 243.904 323.765 243.935 323.704C243.888 323.627 243.873 323.611 242.81 322.966C242.702 322.904 242.672 322.889 242.502 322.843C241.948 322.781 241.362 322.843 240.823 322.643C240.346 322.489 239.976 322.228 239.807 321.936C238.143 321.721 237.974 321.936 237.897 322.044C238.174 322.735 238.189 322.781 239.175 323.089C240.608 323.534 243.118 324.242 243.75 323.888M257.628 328.361C257.628 328.361 257.69 328.345 257.705 328.33C257.705 328.33 257.69 328.33 257.674 328.33C256.781 328.222 256.011 327.684 255.087 327.7C255.087 327.7 253.993 327.746 253.623 328.022C253.408 328.176 253.284 328.207 252.791 328.284C252.329 328.361 251.852 328.314 251.39 328.376C250.219 328.668 250.065 328.76 249.757 329.298C249.695 329.421 249.511 329.744 249.203 329.913C249.372 330.005 250.219 330.097 250.881 329.99C251.036 329.959 251.251 329.913 251.421 329.882C252.16 329.728 252.807 329.313 253.546 329.16C254.424 328.975 255.333 329.052 256.211 328.852C256.365 328.822 257.012 328.637 257.643 328.391M253.177 327.008L254.255 327.254C254.224 327.054 254.07 326.962 253.762 326.824C253.762 326.824 253.762 326.824 253.746 326.824C253.746 326.824 253.746 326.824 253.731 326.824C253.731 326.824 253.731 326.824 253.716 326.824C253.716 326.824 253.716 326.824 253.7 326.824C253.7 326.824 253.7 326.824 253.685 326.824C253.685 326.824 253.685 326.824 253.669 326.824C253.669 326.824 253.669 326.824 253.654 326.824C253.654 326.824 253.654 326.824 253.639 326.824C253.007 326.624 252.406 326.378 251.775 326.193C251.482 326.101 251.282 326.055 250.342 326.04C249.68 326.04 249.31 326.024 249.033 325.932C248.571 325.778 248.278 325.394 247.862 325.179C247.708 325.102 247.524 325.148 247.37 325.071C247.354 325.071 247.323 325.056 247.308 325.041C246.106 323.827 245.074 324.303 245.059 324.303C244.997 324.779 246.445 325.794 247.108 326.024C247.282 326.086 247.945 326.147 249.095 326.209C249.485 326.229 250.856 326.511 253.207 327.054M235.432 320.891C236.033 320.522 233.029 314.989 231.196 314.881C230.873 314.866 230.842 315.358 230.472 315.266C229.579 315.02 228.886 314.405 228.054 314.036C227.792 313.913 227.746 313.898 227.515 313.391C226.637 311.454 226.591 311.377 225.728 311.07C225.081 310.937 224.727 310.844 224.665 310.793C224.326 310.547 224.172 310.424 223.803 310.486C223.525 310.532 221.985 311.408 222.154 311.685C222.216 311.777 222.37 311.854 222.478 311.9C223.002 312.13 223.633 312.422 222.971 312.929C223.171 313.375 224.311 314.666 225.019 315.112C225.913 315.681 226.267 315.696 227.315 315.773C227.515 315.773 227.576 315.896 227.777 316.28C228.331 317.341 229.363 318.063 230.133 318.493C230.303 318.585 230.549 318.724 230.903 318.878L235.509 320.891M303.437 336.983C303.437 336.983 303.468 336.983 303.483 336.983C303.53 336.891 303.53 336.86 303.561 336.522C303.561 336.307 303.591 336.015 303.684 335.6C303.745 335.292 303.853 334.985 303.915 334.662C303.915 334.631 303.915 334.585 303.93 334.539C303.976 334.309 303.961 334.109 303.961 334.017C303.961 333.417 303.73 332.987 303.422 332.971C303.222 333.033 303.129 333.202 303.083 333.356C303.083 333.371 302.575 335.215 302.559 335.615C302.559 336.46 303.376 336.952 303.376 336.968C303.376 336.968 303.406 336.983 303.422 336.983M301.127 332.664C301.774 331.88 301.604 330.666 301.312 330.635C301.204 330.635 301.081 330.666 300.526 331.481C299.448 333.094 298.123 333.048 296.46 332.987C296.121 332.987 296.09 332.925 296.075 332.849C295.936 332.495 294.873 332.372 294.796 332.387C294.765 332.387 294.704 332.403 294.673 332.418C294.534 332.495 294.226 333.832 294.55 334.124C295.304 334.785 296.86 334.447 299.679 333.817C300.264 333.694 300.834 333.002 301.111 332.664M263.62 320.384C264.144 319.815 262.973 318.155 261.849 317.848C261.571 317.832 261.186 317.802 260.724 318.355C259.8 319.477 260.031 319.738 260.17 319.877C260.678 320.43 262.988 321.06 263.62 320.368M270.536 323.12C271.198 322.428 270.582 319.861 268.688 319.292C267.779 319.093 266.316 319.093 266.146 319.185C264.96 319.815 264.036 321.352 264.251 321.644C264.313 321.736 264.483 321.721 264.791 321.706C265.145 321.69 265.499 321.767 265.853 321.706C266.547 321.613 267.163 321.091 267.917 321.291C268.534 321.46 269.519 322.213 270.428 323.196C270.474 323.166 270.521 323.135 270.551 323.104M290.884 342.378C291.053 341.917 290.961 337.49 290.961 337.444C290.899 335.83 290.144 334.263 290.499 332.603C290.991 330.313 291.13 329.698 290.36 328.053C290.314 327.961 285.493 319.585 281.21 321.536C280.194 321.998 279.485 323.089 278.207 323.073C277.344 323.073 277.313 322.305 277.421 321.49C277.77 318.683 277.663 317.202 277.098 317.049C276.22 316.879 273.678 317.079 273.293 317.279C273.509 317.756 275.095 319.585 275.342 319.707C275.388 319.738 276.497 320.292 276.62 320.799C276.497 320.891 276.215 320.958 275.773 320.999C274.171 321.152 273.94 321.429 274.448 322.597C274.448 322.628 276.682 325.978 278.7 327.684C279.886 328.699 278.407 331.819 278.392 331.849C278.289 331.993 277.657 332.218 276.497 332.526C275.542 332.772 275.48 332.787 275.172 332.925C275.172 332.971 275.142 333.033 275.142 333.079C276.235 333.694 277.498 333.97 278.53 334.739C278.838 334.97 278.669 335.277 278.53 335.584C278.299 336.015 278.238 336.307 279.254 336.645C281.334 337.321 282.751 336.553 284.383 335.646C285.138 335.231 285.6 335.062 285.939 335.262C286.478 335.569 287.741 336.445 288.111 337.874C288.378 338.95 289.205 340.354 290.591 342.086C290.745 342.27 290.837 342.393 290.884 342.393M7.12541 202.637C9.4667 184.685 14.6422 166.534 22.8367 148.72C22.8983 145.984 24.2384 143.571 24.8853 140.989C20.6186 132.198 18.9551 125.097 19.7253 119.364C19.4326 119.887 -9.66411 173.296 4.02936 244.012L4.39904 245.841L4.36823 245.718C3.64428 242.168 2.65848 237.326 1.93452 230.041C2.04235 230.517 2.18098 231.163 2.2888 231.639C2.04235 227.93 1.87805 224.877 1.79589 222.479C1.88831 222.863 1.99614 223.37 2.07315 223.755C2.49417 223.13 2.602 221.47 2.39662 218.775C2.56606 219.421 2.70469 220.066 2.87412 220.712L7.11001 202.637M226.39 306.566C227.299 305.321 227.268 304.507 227.268 304.184C227.268 303.508 227.006 303.2 226.591 302.693C226.221 302.232 226.206 302.109 226.175 301.894C226.082 300.941 226.76 300.034 226.39 299.051C226.313 298.835 226.051 298.728 226.005 298.482C225.99 298.39 225.959 298.313 226.144 297.975C226.529 297.268 226.791 297.053 227.053 296.837C227.253 296.668 227.361 296.576 227.361 296.422C227.361 296.315 226.806 293.81 226.806 293.794C226.745 293.625 226.437 293.256 226.098 292.857C224.157 291.965 222.231 291.058 220.291 290.136C220.167 290.782 219.906 291.381 219.844 292.042C219.844 292.165 219.829 292.319 219.829 292.426C219.844 293.072 220.183 293.656 220.214 294.301C220.214 294.578 220.183 294.763 219.936 295.762C219.936 295.808 219.058 300.203 219.212 301.033C219.413 302.171 219.89 303.216 220.137 304.338C220.475 305.875 220.183 307.519 220.984 308.964C221.23 309.425 221.739 308.933 222.077 309.149C222.509 309.405 222.745 309.538 222.786 309.548C222.786 309.548 222.909 309.579 222.955 309.579C223.094 309.594 223.371 309.579 223.772 309.287C224.357 308.887 225.928 307.166 226.39 306.536M229.579 294.747C229.64 294.67 229.671 294.532 229.687 294.47C229.348 294.317 229.009 294.163 228.67 294.009C229.086 294.624 229.394 294.978 229.579 294.747ZM255.117 305.383C253.947 304.845 252.684 304.338 251.421 303.831C247.077 302.063 242.702 300.219 238.343 298.313C237.619 298.928 237.542 299.02 237.357 299.281C236.988 299.819 237.604 300.388 237.311 300.926C237.065 301.387 236.356 301.018 236.141 301.541C235.417 303.185 235.555 303.508 236.079 303.554C236.387 303.585 237.311 303.677 236.233 305.721C235.524 307.063 235.612 307.868 236.495 308.134C236.88 308.242 237.188 308.349 237.419 308.611C238.097 309.348 238.723 309.738 239.298 309.779C240.484 309.855 241.116 310.685 241.239 310.855C241.301 310.947 241.378 311.085 241.455 311.177C242.286 312.299 243.888 313.391 244.628 313.083C245.891 312.545 246.122 311.116 247.046 310.286C247.924 309.502 249.218 309.471 250.111 308.703C250.312 308.534 250.496 308.272 250.897 307.719C251.313 307.135 251.852 306.397 252.607 305.844C253.515 305.183 253.685 305.383 253.824 305.721C253.906 305.926 254.342 305.813 255.133 305.383M268.272 310.44C267.964 310.24 267.579 310.101 267.193 309.963C266.238 310.286 265.545 310.516 265.176 310.378C264.621 310.163 264.898 309.425 264.39 309.164C263.82 308.872 263.343 309.686 262.773 309.287C262.773 309.287 262.377 308.81 261.587 307.857C260.909 307.596 260.231 307.335 259.553 307.074C258.521 307.212 257.089 307.688 256.642 308.042C256.042 308.518 255.949 308.81 255.749 309.517C255.595 310.025 255.472 310.47 253.746 311.869C252.237 313.083 250.496 313.975 249.095 315.342C249.033 315.404 248.956 315.496 248.894 315.573C248.787 315.696 248.71 315.896 248.663 316.049C248.34 316.926 249.588 317.586 249.002 318.509C249.002 318.524 247.97 320.122 246.43 321.536C246.245 321.721 245.798 322.136 246.338 322.551C246.83 322.935 248.063 323.104 248.201 322.997C248.232 322.981 248.278 322.95 248.309 322.92C248.556 322.582 248.371 322.136 248.602 321.813C249.218 320.968 250.127 320.399 250.743 319.569C250.866 319.4 251.035 319.17 251.159 319C251.729 318.171 252.283 317.325 252.853 316.464C253.454 316.557 253.238 317.51 252.915 318.831C251.975 322.827 252.314 322.705 255.641 321.49C255.158 320.681 254.922 320.251 254.933 320.199C255.087 319.462 255.918 319.169 256.134 318.478C256.457 317.463 256.072 316.372 256.473 315.373C256.519 315.235 256.581 315.112 256.966 315.189C257.602 315.312 258.018 315.348 258.213 315.296C259.061 315.05 259.615 314.205 260.57 314.159C260.863 314.159 261.464 314.174 262.187 314.543C261.849 312.76 258.059 313.237 256.92 313.421C256.411 313.498 255.087 313.713 255.287 312.883C255.287 312.837 256.766 309.072 257.936 309.179C258.599 309.241 259.03 309.794 259.63 309.963C260.185 310.132 260.77 310.025 261.309 310.209C261.541 310.286 261.71 310.347 262.511 310.747C265.499 312.207 265.761 312.192 268.241 310.47M271.091 313.191C271.091 313.191 271.137 313.114 271.876 311.7C271.306 311.5 270.721 311.285 270.151 311.085C270.089 311.485 269.935 311.854 269.119 313.252C268.395 314.482 268.333 314.589 269.119 315.419C269.427 314.943 270.012 314.082 270.644 313.636C270.767 313.544 270.936 313.437 271.121 313.175M160.48 152.516C160.634 152.378 160.542 152.332 160.48 152.286C160.002 152.117 159.494 152.071 159.032 151.886C158.739 151.779 158.431 151.594 158.2 151.394C157.938 151.179 157.769 150.887 157.507 150.672C157.507 150.672 157.245 150.472 157.06 150.472C156.075 150.472 155.797 151.671 156.028 152.301C156.152 152.655 156.413 152.855 156.598 152.978C156.598 152.978 158.139 153.746 158.323 153.761C158.647 153.777 160.48 152.547 160.495 152.532M150.545 146.138C150.545 146.138 150.637 146.138 150.683 146.153C150.683 146.138 150.699 146.123 150.714 146.107C150.622 145.877 150.499 145.662 150.422 145.431C150.252 144.924 150.221 144.386 149.99 143.894C149.821 143.525 149.544 143.325 149.405 143.218C148.85 142.849 148.234 142.618 147.726 142.203C147.151 141.732 146.843 141.491 146.802 141.481C145.955 141.174 145.908 141.758 145.955 142.004C146.14 142.864 148.897 145.785 150.545 146.138ZM132.277 111.157C132.554 111.003 132.415 110.649 131.922 110.204C131.245 109.62 129.951 109.251 130.043 110.235C130.074 110.619 130.413 111.264 130.675 111.372C130.829 111.433 130.89 111.433 131.106 111.403C131.106 111.403 132.23 111.172 132.277 111.157ZM142.196 114.538C142.874 113.908 142.828 113.647 142.52 113.431C142.042 113.186 140.456 112.94 139.393 113.308C138.808 113.508 136.882 114.769 136.975 115.353C137.021 115.614 137.406 115.752 137.236 116.075C136.975 116.567 136.405 116.69 136.05 117.059C134.849 118.304 137.683 118.073 137.714 118.058C138.022 118.012 138.592 117.919 139.116 117.504C139.177 117.458 139.27 117.381 139.331 117.335C139.393 117.274 139.47 117.197 139.532 117.151C139.947 116.736 140.271 116.244 140.702 115.829C141.18 115.368 141.734 114.999 142.212 114.538M145.847 109.973C145.847 109.973 147.557 108.313 147.51 108.083H147.48C147.403 108.083 147.356 108.098 147.11 108.221C146.509 108.529 146.063 109.036 145.523 109.405C144.907 109.835 144.461 109.866 144.137 109.896C143.891 109.912 143.69 109.927 143.459 110.158C143.382 110.235 143.259 110.434 143.228 110.573C143.228 110.619 143.198 110.68 143.182 110.742L142.889 112.279C143.275 112.325 145.246 110.588 145.893 109.989M158.97 70.089C159.802 69.5664 160.079 69.3205 160.619 68.8287C159.494 67.7374 158.4 66.6308 157.338 65.555C155.982 66.431 156.968 66.9997 156.983 66.9997C156.937 67.0304 156.845 67.0612 156.799 67.0765C155.828 67.3071 151.33 68.6904 150.375 69.4896C149.451 70.2581 151.469 70.796 152.301 70.9036C152.409 70.9036 152.547 70.9343 152.655 70.9343C153.425 71.0112 154.195 70.8882 154.966 70.9958C155.458 71.0573 155.89 71.3801 156.413 71.3186C157.214 71.2264 158.462 70.4271 158.986 70.089M161.697 82.3386C161.789 82.3386 161.897 82.2464 161.943 82.1695C161.697 81.5394 160.788 81.6316 160.603 80.94C162.375 79.6489 164.978 79.8795 166.318 77.8046C166.595 77.3742 166.41 77.2666 165.979 77.0361C164.885 76.4213 166.965 74.8843 166.996 74.869C166.041 73.9929 165.086 73.1168 164.161 72.2407C162.975 72.9939 163.068 71.9487 163.114 71.3186C162.96 71.1034 162.79 70.9497 162.636 70.796C161.527 71.503 160.927 72.7633 159.771 73.4242C158.986 73.8853 158.139 73.8392 157.03 73.7316C156.845 73.7162 156.29 73.6548 156.013 73.8699C155.859 73.9929 155.489 74.4386 156.845 75.33C157.538 75.7758 158.816 76.6057 157.707 76.99C157.584 77.0361 157.415 77.0976 157.291 77.0976C156.752 77.1129 156.444 76.5289 155.905 76.5443C155.52 76.5443 155.012 76.6672 154.642 76.7748C153.533 77.0822 153.163 77.159 151.176 77.2513C150.129 77.2974 150.098 77.3127 149.836 77.4664C149.944 77.697 150.006 77.8046 150.406 78.0197C151.977 78.8497 153.703 79.3569 155.274 80.2176C156.028 80.6326 156.722 81.1705 157.523 81.5086C157.538 81.5086 157.569 81.524 157.584 81.5394L161.651 82.3386M168.166 76.0524C168.166 76.0524 168.197 76.0371 168.212 76.0217C168.012 75.8372 167.812 75.6528 167.596 75.4684C167.689 75.7758 167.843 76.2369 168.166 76.0524ZM210.094 144.278C209.878 144.386 208.661 144.709 207.999 144.785C207.999 144.724 208.03 144.647 208.045 144.586C208.014 144.54 204.302 140.021 203.794 142.357C203.686 142.88 203.855 143.418 203.732 143.94C203.178 143.863 202.947 143.617 202.531 143.003C202.485 143.049 199.62 148.49 201.714 150.119C201.037 151.594 199.496 152.501 199.096 154.146C199.743 153.869 199.912 152.885 200.806 152.978C201.314 153.024 201.36 153.731 201.114 154.361C200.744 155.283 200.975 156.405 200.174 157.189C199.527 157.127 199.096 156.543 198.449 156.497C198.141 156.466 197.633 156.436 197.232 156.958C196.523 157.911 196.97 159.125 196.493 160.14C195.63 161.953 194.49 163.644 193.736 165.519C193.658 165.719 193.566 165.996 193.504 166.195C192.842 168.347 192.457 169.654 188.853 165.919C188.837 165.903 187.066 163.982 186.742 163.014C186.044 160.924 185.988 159.627 186.573 159.125C188.745 157.266 190.547 155.037 192.765 153.208C194.182 152.04 194.932 151.497 195.014 151.579C194.737 150.319 193.658 149.335 193.689 147.967C193.689 147.69 193.705 146.937 195.168 144.094C195.948 142.588 196.344 140.907 196.354 139.053C199.404 139.329 201.483 137.039 204.102 136.163C205.257 135.779 207.09 136.486 207.167 136.517C207.752 136.747 207.768 137.439 208.215 137.777C208.784 138.054 209.493 137.731 210.017 138.192C209.924 140.405 209.739 140.59 209.046 141.312C208.661 141.712 208.184 142.219 208.184 142.741C208.184 143.233 208.815 143.694 210.078 144.125C210.078 144.125 210.078 144.248 210.078 144.294M197.417 223.463C215.5 191.97 233.183 160.878 248.864 133.043C223.972 118.857 200.605 102.995 181.351 87.3184C181.12 87.3799 180.812 87.4721 180.581 87.5335C180.396 87.3491 180.165 87.1186 179.98 86.9341C178.363 84.8439 176.807 83.5528 175.298 82.2618C171.093 80.8785 169.445 80.7863 169.429 80.7863C166.918 81.0783 166.164 85.7353 163.268 84.1522C159.864 82.2925 152.932 88.425 152.732 83.4606C150.668 85.1205 150.545 85.2127 148.928 84.2752C148.928 84.0293 148.928 83.7065 148.928 83.4606C148.542 83.1378 147.896 82.8458 147.403 82.7382C147.079 83.2147 146.709 83.9217 146.525 84.475C146.232 84.5211 145.831 84.5979 145.539 84.6441C145.847 85.1666 146.17 85.889 146.386 86.4577C142.751 93.1742 141.241 95.9561 136.358 98.0771C136.004 97.8927 134.957 97.3394 129.982 90.3308C122.234 92.959 118.86 100.705 112.638 105.132C113.454 106.238 115.148 106.561 115.348 108.206C114.917 108.575 114.332 109.066 113.901 109.451C114.44 110.388 114.532 110.542 116.072 110.388C118.398 110.158 120.201 112.432 122.619 111.787C125.977 110.895 127.902 107.821 130.937 106.438C133.447 105.301 141.857 102.642 141.888 102.627C143.382 102.442 143.398 102.98 143.506 104.809C145.677 105.562 148.05 102.903 150.144 105.178L145.754 124.298C144.507 126.28 141.95 126.557 141.934 126.557C140.255 126.726 139.193 125.051 137.545 125.112C137.863 127.049 137.96 128.611 137.837 129.8C138.037 129.969 138.299 130.2 138.484 130.384C140.22 128.325 141.262 127.197 141.611 127.003C141.765 127.187 141.981 127.418 142.15 127.602C145.138 126.803 146.54 123.314 149.852 123.053C149.852 123.591 149.806 124.328 149.729 124.866C149.975 124.651 153.179 108.575 153.179 108.436C154.452 107.237 155.33 106.31 155.813 105.654C156.367 105.578 157.137 105.578 157.692 105.654L156.013 120.302C155.104 124.728 150.422 127.279 150.206 132.044C148.188 133.75 148.065 133.858 147.326 135.902C147.557 136.317 147.664 136.993 147.603 137.47C147.865 137.931 147.88 137.931 147.88 137.946C147.88 137.946 147.88 137.946 147.896 137.946C147.896 137.946 147.896 137.946 147.911 137.946C147.911 137.946 147.911 137.946 147.926 137.946C147.926 137.946 147.926 137.946 147.942 137.946C147.942 137.946 147.942 137.946 147.957 137.946C147.973 137.946 147.957 137.946 147.973 137.946C147.973 137.946 147.973 137.946 147.988 137.946C151.479 135.046 153.846 132.054 155.089 128.97C155.705 127.433 156.336 127.08 156.845 126.788C157.861 126.214 159.391 127.423 161.435 130.415C161.373 130.661 161.281 130.999 161.204 131.245C162.513 131.66 164.084 130.63 165.24 131.936C165.486 131.89 165.825 131.844 166.087 131.798C166.364 125.573 179.534 117.689 182.799 120.348C182.445 120.671 182.06 121.208 181.86 121.654C182.152 122.069 182.645 122.561 183.076 122.838C182.661 123.806 182.476 124.236 180.134 124.267C179.98 124.467 179.78 124.743 179.611 124.943C179.78 125.112 180.011 125.328 180.181 125.497C179.888 126.035 179.503 126.757 179.241 127.31C180.196 128.171 180.535 128.263 184.355 127.91C184.355 119.533 191.225 124.052 192.596 125.035C191.872 126.557 191.179 126.25 189.684 125.604C189.592 126.188 189.546 126.987 189.607 127.571C187.513 127.802 184.524 128.647 184.509 128.647C183.985 132.597 186.943 136.271 185.433 140.282C184.971 141.512 183.754 144.77 179.333 142.449C178.871 142.142 178.856 142.127 178.841 142.111C178.841 142.111 178.81 142.096 178.794 142.08C178.794 142.08 178.764 142.065 178.748 142.05L178.702 142.019C178.702 142.019 178.671 142.004 178.656 141.988C178.64 141.988 178.625 141.973 178.61 141.957C178.594 141.957 178.579 141.942 178.563 141.927L178.517 141.896C178.286 141.758 175.698 139.36 176.068 137.531C175.067 136.532 174.897 134.964 173.65 134.15C173.311 133.888 173.295 133.888 173.295 133.873C173.295 133.858 173.295 133.873 173.28 133.873C173.28 133.873 173.28 133.873 173.265 133.873C173.249 133.873 173.265 133.873 173.249 133.873C173.249 133.873 173.249 133.873 173.234 133.873C173.218 133.873 173.234 133.873 173.218 133.873C173.218 133.873 173.218 133.873 173.203 133.873C173.203 133.873 173.203 133.873 173.188 133.873C170.908 132.521 168.259 133.151 165.84 132.536C165.84 132.782 165.84 133.105 165.84 133.335C163.422 135.133 160.665 131.076 158.323 133.735C158.539 133.842 158.816 133.981 159.032 134.088C154.842 141.327 153.718 143.279 157.23 145.877C157.723 145.769 158.339 145.446 158.693 145.093C160.403 146.292 160.002 148.997 162.128 149.888C162.606 149.627 163.253 149.243 163.715 148.935C163.93 149.028 164.238 149.15 164.454 149.243C164.531 149.473 164.639 149.781 164.716 150.027C164.978 150.103 165.332 150.211 165.609 150.303C165.486 151.717 155.289 166.026 149.913 161.077C149.343 160.539 149.128 160.355 149.189 158.634C143.752 156.39 139.824 154.776 140.101 147.152C137.822 145.047 136.975 145.293 136.405 145.462C134.171 146.107 133.586 148.643 131.63 149.612C129.997 148.582 128.734 143.863 128.718 143.817L126.685 130.907C129.643 129.677 131.106 126.511 134.079 125.297C133.986 124.651 133.725 123.816 133.293 122.792C131.599 122.74 130.269 121.89 129.304 120.24C129.196 120.117 129.196 120.117 129.196 120.117C128.657 120.117 127.948 120.256 127.44 120.409C123.805 117.535 118.984 118.073 115.056 116.09C114.779 114.507 112.745 113.616 113.315 111.71C111.205 111.403 102.656 114.753 102.579 114.784C99.6218 116.029 98.6822 119.441 95.925 120.886C93.6607 122.069 91.0268 120.916 88.7471 122.023L75.3617 129.923C51.8102 158.818 60.359 176.432 60.4668 176.585C60.59 176.785 60.8519 177.016 61.0675 177.123L69.986 181.657C72.4659 181.442 76.1781 184.147 76.6864 185.238C76.7326 185.346 79.2279 198.441 78.3961 199.64C93.2911 213.057 110.805 226.122 129.72 238.771C137.468 237.065 150.699 225.199 151.346 223.939C146.756 220.911 137.683 223.063 137.283 215.317C137.19 213.534 139.039 212.52 139.054 210.798C139.085 208.201 137.498 205.972 137.406 203.39C137.406 203.313 139.439 192.047 140.132 190.956C145.292 182.871 140.872 171.882 148.234 164.474C148.419 164.643 148.65 164.889 148.835 165.058C148.178 166.902 147.88 168.091 147.942 168.624C148.64 168.45 149.508 168.04 150.545 167.394C150.545 167.722 149.883 170.663 148.558 176.216L140.44 212.689C141.349 214.825 150.268 215.563 150.745 215.163C150.92 215.02 154.94 215.214 162.806 215.747C165.548 215.932 168.12 214.641 170.846 214.764C171.848 213.119 172.032 212.827 173.465 211.428C173.573 211.628 173.711 211.889 173.819 212.089C175.575 212.212 176.099 211.751 178.995 209.23C178.615 207.909 178.625 206.684 179.025 205.557C177.3 202.37 177.002 199.793 178.132 197.826C176.022 197.78 174.327 199.44 172.186 199.302C171.37 199.24 170.215 198.502 168.135 197.165C168.228 195.244 169.398 193.707 169.953 191.955C169.018 193.164 168.459 193.861 168.274 194.045C168.228 193.938 165.717 182.733 172.479 179.628C173.434 180.192 174.204 180.684 174.79 181.104C175.313 184.731 173.172 188.358 174.759 191.986C174.882 192.262 175.144 192.585 175.329 192.846C176.407 194.383 178.548 194.46 179.626 195.997C180.304 196.965 178.81 197.826 179.503 198.794C184.694 206.126 185.402 206.279 194.028 208.231C195.219 214.185 196.272 217.371 197.186 217.791C197.078 218.022 196.924 218.314 196.816 218.529C195.507 218.514 195.307 218.514 193.967 217.914C193.643 224.001 196.108 223.663 197.278 223.509C197.309 223.463 197.386 223.463 197.417 223.432M381.901 159.218C381.901 159.141 380.792 157.834 380.423 157.481C380.222 157.296 379.391 156.697 379.267 156.728C379.144 156.82 379.314 157.757 379.452 158.126C379.498 158.234 379.853 158.71 380.068 158.726C380.222 158.726 380.392 158.618 380.546 158.741C380.839 158.987 380.946 159.341 381.162 159.633C381.609 160.247 381.886 159.617 381.901 159.218ZM158.462 14.0359C159.124 13.9129 159.124 13.8053 159.124 13.7592C159.109 13.6363 158.986 13.4979 158.478 13.5748C157.769 13.6824 156.383 14.0513 156.306 14.1742C156.367 14.3279 158.123 14.082 158.478 14.0205M133.956 32.6024C133.956 32.6024 137.144 30.881 135.835 29.9896C135.886 29.8154 136.107 29.6668 136.497 29.5439C137.437 29.2518 138.361 28.8983 139.485 27.8225C139.485 27.8225 140.574 27.469 142.751 26.762C146.432 25.6092 149.728 23.6265 153.21 22.0588C153.317 22.0127 153.456 21.9359 153.564 21.859C153.256 21.6131 150.529 21.982 149.159 22.5507C148.542 22.7966 148.512 22.812 148.296 22.7351C148.234 21.4748 146.509 22.8427 145.6 22.812C145.57 22.7658 145.539 22.7044 145.523 22.6736C147.403 19.6304 154.473 18.9234 154.534 18.9234C155.073 18.8927 155.335 18.4009 155.335 18.0781C156.614 16.8639 158.647 17.0176 159.833 15.619V15.5882C159.248 15.1271 160.141 14.5123 159.756 14.0051C159.694 14.0051 147.726 16.8946 146.001 17.5709C138.191 20.6295 137.468 20.7217 131.799 21.4594C131.383 24.6256 131.938 28.3604 133.54 32.6178C133.663 32.6178 133.832 32.6332 133.956 32.6178M160.665 12.545C161.173 12.4682 161.435 12.376 161.466 12.2376C161.466 12.2376 161.343 11.7765 160.696 11.7919C160.187 11.8073 158.493 12.2223 158.339 12.3606C158.339 12.3606 158.323 12.376 158.308 12.3913C158.339 12.5604 159.556 12.6987 160.665 12.5297M163.869 12.2991C164.192 12.2684 173.265 9.3174 173.326 9.28667C172.417 9.17908 165.301 10.1013 164.454 10.2396C164.408 10.2396 164.346 10.255 164.3 10.2703C164.1 10.3318 163.946 10.5162 163.745 10.5777C163.176 10.7775 162.559 10.8544 161.989 11.0388C161.974 11.0388 161.943 11.0542 161.912 11.0695C161.912 11.0695 161.928 11.1003 161.943 11.1003C162.744 11.131 163.545 10.9773 164.346 11.1003C164.762 11.1618 164.854 11.2847 164.639 11.4845C164.331 11.7612 163.853 11.8073 163.653 12.2223C163.653 12.2376 163.684 12.2684 163.699 12.2837C163.745 12.2837 163.822 12.2837 163.869 12.2837M181.459 11.838C184.001 11.5767 184.263 11.4077 184.247 11.3155C183.616 10.5777 178.625 11.6075 177.932 12.0378V12.0686C178.209 12.1762 181.136 11.8688 181.475 11.838M367.931 127.326C367.931 127.326 366.914 125.02 366.513 125.42C366.257 125.676 366.077 125.799 365.974 125.789C365.528 125.743 365.235 125.374 364.835 125.266C364.773 125.343 364.696 125.266 364.634 125.266C364.511 125.435 365.389 127.633 365.404 127.648C365.543 127.956 365.728 128.355 366.036 128.294C366.067 128.294 366.098 128.294 366.113 128.278C366.298 128.217 366.436 128.063 366.621 128.017C366.899 127.956 367.176 127.956 367.438 127.817C367.623 127.725 367.9 127.571 367.961 127.279M187.174 5.50573C187.79 5.50573 192.457 4.78336 192.611 4.67577C192.565 4.6604 192.549 4.64503 192.365 4.64503C191.517 4.59892 190.655 4.69114 189.808 4.56818C188.883 4.44523 188.699 4.41449 188.314 4.4606C188.098 4.47597 187.944 4.67577 187.728 4.72188C187.343 4.79873 186.943 4.82947 186.558 4.92169C186.527 4.92169 186.496 4.93706 186.465 4.95243C186.327 4.99853 186.096 5.15223 186.157 5.29056C186.234 5.45962 187.004 5.5211 187.174 5.50573ZM195.461 19.8764C195.769 19.8456 196 19.7995 196.015 19.7995C196.061 19.7995 196.108 19.7841 196.154 19.7688C196.508 19.6919 196.832 19.5536 197.186 19.4614C197.448 19.3999 197.71 19.4153 197.971 19.3384C197.971 19.3384 198.249 19.2462 198.125 19.0925C197.663 18.8158 195.738 18.8158 195.322 18.8466C194.598 18.9081 193.674 19.2001 193.751 19.4153C193.813 19.569 193.982 19.5229 194.074 19.5997C194.151 19.6458 194.182 19.7534 194.259 19.7995C194.275 19.8149 194.321 19.8302 194.336 19.8302C194.583 19.8917 195.029 19.9071 195.461 19.861M273.278 92.8361C274.525 91.2991 273.493 89.3011 274.294 87.6719C275.172 85.8583 276.497 84.3059 277.206 82.4155C277.236 82.3386 277.267 82.231 277.298 82.1695C275.034 86.2579 272.662 90.5306 270.197 94.9571C270.998 94.8034 271.845 94.6497 273.278 92.8514M191.841 4.07635C191.995 4.09172 194.121 4.03025 194.86 3.87655C195.399 3.76896 198.495 3.43083 199.481 3.40009C203.609 3.2925 207.752 3.52305 211.88 3.41546C211.865 3.41546 211.834 3.41546 211.819 3.41546C209.247 3.18492 206.659 3.16955 204.086 2.95437C205.411 2.61624 206.767 3.0927 208.091 2.87752C207.906 2.76993 207.691 2.75457 207.506 2.67772C207.506 2.64698 207.537 2.60087 207.552 2.57013C208.353 2.4318 209.139 2.67772 209.94 2.60087C209.662 2.32421 209.262 2.41643 208.939 2.26274C208.969 2.232 209 2.20126 209.016 2.18589C210.202 2.24737 211.372 2.55476 212.574 2.46254C211.85 1.64795 201.345 1.35593 201.252 1.35593C200.467 1.35593 199.866 1.43278 199.697 1.46351C199.697 1.46351 197.093 2.17052 196.739 2.27811C196.708 2.27811 196.708 2.27811 196.708 2.27811C196.262 2.20126 196.231 2.18589 196.092 2.06293C196.323 1.83239 196.647 1.80165 196.924 1.64795C196.924 1.60184 196.924 1.55573 196.924 1.52499C196.523 1.20223 188.683 1.9246 188.622 2.29348C188.591 2.4318 188.668 2.61624 189.145 2.64698C189.5 2.67772 191.995 2.96974 192.01 2.96974C190.732 3.38472 189.315 3.01585 188.067 3.67674C188.329 4.07635 189.7 3.96877 191.025 3.86118C190.912 3.77921 190.711 3.71773 190.424 3.67674C190.716 3.61527 192.18 3.58453 192.334 3.81507C192.149 3.90729 191.949 3.93803 191.764 4.01488C191.795 4.01488 191.826 4.03025 191.841 4.03025M212.296 3.98414C213.59 4.10709 214.437 4.1532 214.653 3.99951C214.915 3.76896 213.298 3.646 213.282 3.646C213.251 3.646 213.221 3.646 213.19 3.646C212.974 3.646 212.774 3.72285 212.558 3.72285C212.312 3.72285 212.05 3.72285 211.803 3.72285C210.679 3.70748 210.51 3.72285 210.417 3.75359C210.479 3.78433 210.525 3.81507 212.281 3.98414M337.571 105.823C337.494 105.485 336.801 103.718 336.477 103.088C336.138 102.411 335.661 101.827 335.26 101.182C334.906 100.598 334.783 99.9215 334.444 99.3374C334.29 99.0762 334.213 98.9839 334.074 98.9686C333.812 98.9686 333.612 99.3067 333.643 99.5065C333.643 99.5526 333.643 99.6295 333.674 99.6756C333.905 100.383 334.506 100.905 334.629 101.658C334.629 101.72 334.629 101.797 334.629 101.858C334.598 102.073 334.552 102.442 334.613 102.488C334.752 102.611 334.937 102.657 335.076 102.78C335.199 102.888 335.353 103.072 335.445 103.211C335.938 103.902 336.277 104.686 336.739 105.393C337.093 105.946 337.432 106.023 337.586 105.823M214.083 2.47791C214.699 2.55476 217.58 2.63161 217.98 2.57013C217.919 2.4984 217.744 2.42668 217.456 2.35495C218.319 2.35495 219.182 2.60087 220.044 2.38569C220.167 2.33958 220.183 2.30885 220.214 2.20126C219.952 1.8785 208.707 0.940947 208.6 0.940947C207.29 0.848729 203.347 0.940947 203.07 0.971686C203.208 1.0639 203.763 1.23297 206.104 1.34056C207.105 1.38667 207.737 1.41741 207.983 1.44815C207.814 1.46351 207.66 1.44815 207.491 1.47888L214.083 2.49328M205.18 5.13686C205.919 5.19834 209.108 5.19834 209.293 5.07538C209.272 4.97292 209.272 4.90119 209.293 4.86021C210.155 4.96779 210.987 5.24445 211.865 5.33667C213.821 5.53647 213.945 5.55184 214.206 5.36741C214.206 5.35204 214.206 5.3213 214.206 5.30593C214.191 5.30593 214.16 5.27519 214.145 5.25982C214.145 5.24445 214.145 5.21371 214.145 5.19834C214.381 5.12661 214.525 5.08051 214.576 5.06001C214.576 5.04464 214.576 5.0139 214.576 4.99853C214.222 4.78336 212.866 4.39912 212.127 4.55281C210.309 4.90632 207.86 4.36838 207.829 4.36838C208.63 4.12246 209.431 4.44523 210.248 4.35301C209.37 3.81507 202.346 4.29153 201.761 4.50671C201.761 4.52207 201.761 4.55281 201.761 4.56818C201.761 4.56818 202.546 4.96779 205.149 5.15223M281.934 74.9304C281.811 74.7767 281.642 74.6538 281.503 74.5155C280.779 75.8219 280.04 77.159 279.285 78.5269C280.933 76.6672 281.734 75.3147 281.934 74.9304ZM210.448 10.1013C210.756 10.1781 213.698 9.50184 213.744 9.14834C213.713 8.97927 212.928 8.91779 211.403 8.97927C210.956 8.99464 209.277 9.1176 209.093 9.34814C208.831 9.64017 210.433 10.0859 210.463 10.0859M181.074 17.1098C181.854 17.0074 182.347 16.7871 182.553 16.4489C182.553 16.4489 186.773 13.1137 188.483 13.4365C191.122 13.9283 195.404 13.4365 201.329 11.961C202.13 11.7612 202.762 11.1771 203.563 10.9927C205.118 10.6238 206.751 10.8083 208.292 10.3318C208.307 10.255 208.338 10.1474 208.353 10.0551C207.983 9.79387 207.953 9.77849 205.996 9.02538C206.52 8.77947 213.375 8.65651 213.452 8.65651C214.145 8.65651 214.437 8.21079 214.561 7.94951C213.159 6.42791 193.227 5.24445 193.212 8.34912C193.212 8.42597 193.258 8.51818 193.289 8.57966C193.828 8.68725 194.352 8.50281 194.891 8.57966C194.937 8.65651 194.983 8.7641 195.029 8.84095C194.968 8.97927 194.983 9.19445 195.029 9.33278C195.476 9.4711 195.538 9.50184 196.4 9.48647C193.72 10.2242 184.309 12.6987 175.467 13.6055C172.002 13.959 171.863 13.8361 170.199 12.1915C170.076 12.1915 167.103 12.2684 166.58 13.2674C166.918 13.7285 167.519 13.8207 167.889 14.2357C167.766 14.3996 167.55 14.538 167.242 14.6507C166.626 14.8658 165.871 15.1271 165.301 15.4499C164.947 15.6497 164.685 16.0339 164.254 16.1262C163.699 16.2491 163.176 15.7112 162.621 16.0647C162.282 16.2799 159.263 18.1703 159.032 19.323C159.078 19.3692 159.155 19.4153 159.201 19.4614C159.741 19.3845 165.085 16.9561 165.147 16.9254C164.901 17.2225 163.771 17.9808 161.758 19.2001C161.758 19.2001 165.917 19.2616 169.429 17.3865C174.466 14.6968 177.439 14.9888 179.226 15.1579C177.038 16.8178 174.173 16.6795 171.817 17.909C171.863 17.9551 171.925 18.0166 171.955 18.0627C173.311 18.0627 181.059 17.1406 181.136 17.1252M186.712 9.22519C186.712 9.22519 191.025 9.08686 192.226 7.96488L181.937 8.13394C180.288 8.34912 180.273 8.34912 179.826 8.24153C183.107 6.76604 186.696 7.5499 190.085 6.87363C190.034 6.86338 188.18 6.85314 184.524 6.84289C184.524 6.84289 195.83 5.47499 208.615 5.70554C208.615 5.81313 208.63 5.95145 208.646 6.05904C208.707 6.07441 215.315 7.28861 215.839 6.61235C215.1 6.0283 201.56 4.12246 187.697 5.61332C187.697 5.61332 187.672 5.62357 187.62 5.64406C184.879 6.42791 182.091 5.64406 179.333 5.95145C181.459 5.42888 183.723 5.90534 185.772 4.92169C185.382 4.82947 184.263 4.81922 182.414 4.89095C182.496 4.7475 184.437 4.18394 188.237 3.20028C187.343 2.84678 186.896 2.67772 178.841 3.58453C179.38 3.46157 195.168 1.09464 196.631 0.910207C196.277 0.864098 195.907 0.879468 195.553 0.817989C195.676 0.807743 196.246 0.782127 197.263 0.741141C196.965 0.720648 196.539 0.710402 195.984 0.710402C196.893 0.633554 199.419 0.556705 201.453 0.525966C200.143 0.479857 198.849 0.449118 197.54 0.387639C198.495 0.387639 199.435 0.433748 200.39 0.433748C199.948 0.382516 199.424 0.351777 198.819 0.34153C199.034 0.34153 199.342 0.310791 199.558 0.310791C198.983 0.321037 197.324 0.387639 194.583 0.510596C177.762 1.95534 174.728 2.20126 160.126 5.22908C155.012 6.56624 148.142 8.2569 143.09 9.8246C137.052 11.6997 133.278 15.1271 132.123 20.0608L140.733 14.666C140.564 14.5738 140.271 14.5123 140.086 14.5431C147.818 9.37888 157.214 10.9312 165.578 8.2569C165.424 8.39523 165.209 8.59503 165.039 8.73336C165.039 8.84095 165.07 8.97927 165.085 9.08686C165.224 9.1176 165.394 9.14834 165.532 9.16371C165.563 9.2713 165.625 9.40962 165.655 9.51721C166.508 9.57869 169.342 8.90242 174.158 7.48842C173.711 7.93414 173.326 8.4106 172.88 8.85632C174.189 9.51721 175.436 8.27227 176.746 8.73336C176.546 8.85632 176.237 8.97927 176.006 9.04075C176.407 10.3779 181.028 9.64017 181.213 9.60943C183.184 9.29179 185.012 9.16371 186.696 9.22519M282.135 73.5779C282.196 73.4857 282.227 73.3627 282.242 73.3166C282.165 73.4396 282.104 73.5779 282.027 73.7009C282.042 73.7009 282.088 73.6548 282.135 73.5779ZM340.359 98.738C340.343 98.6458 340.297 98.4614 340.159 98.3538C340.051 98.2769 339.157 97.7697 339.142 97.7697C338.942 97.6929 338.726 97.8005 338.526 97.7697C338.526 97.7697 338.295 97.6929 338.279 97.3548C338.279 97.1703 338.249 96.909 337.817 96.5248C337.684 96.4018 337.54 96.3865 337.386 96.4787C337.386 96.4787 337.324 96.4633 337.201 96.202C337.001 95.8024 336.955 95.7256 336.801 95.618C336.539 95.6487 336.554 96.4172 336.831 96.9551C337.201 97.7083 338.664 99.8446 339.05 100.152C339.465 100.475 340.266 100.198 340.266 100.183C340.39 100.121 340.528 99.9369 340.482 99.4297C340.467 99.1991 340.374 98.7534 340.374 98.7534M222.493 5.33667C222.771 5.38277 223.31 5.42888 223.387 5.36741C223.387 5.3213 223.31 5.29056 223.263 5.27519C222.894 5.1676 221.554 4.95243 221.461 4.98316C221.477 4.99853 221.677 5.19834 222.509 5.3213M228.439 4.09172C228.439 4.09172 228.439 4.09172 228.454 4.09172C228.424 4.09172 225.682 3.21565 225.204 3.43083C225.281 3.50768 227.7 3.9534 228.439 4.09172ZM335.892 95.0493C335.892 95.0493 332.734 90.254 332.349 90.3769C332.334 90.4845 332.318 90.5306 332.411 90.9917C332.611 91.9907 332.58 92.0369 332.549 92.0983C332.488 92.083 332.395 92.0522 331.456 90.7458C330.624 89.5931 330.47 89.5316 330.301 89.5316C329.992 89.839 329.9 91.8524 330.023 92.2828C330.208 92.9283 331.856 96.7553 332.365 96.7707C332.503 96.7707 332.734 96.494 332.796 95.8485C332.806 95.7358 332.822 95.659 332.842 95.618C332.842 95.618 332.919 95.618 333.073 95.7717C333.381 96.1098 333.905 96.0022 334.382 95.8485C334.429 95.8946 334.475 95.9869 334.49 96.0637C334.69 96.7553 334.891 97.4162 335.137 97.2933C335.938 96.8629 335.923 96.4787 335.892 95.0493ZM220.83 6.96585C220.83 6.96585 224.727 7.41157 224.788 7.22713C224.665 7.05807 222.293 6.5355 221.739 6.47402C221.415 6.44328 219.613 6.44328 219.382 6.61235C219.382 6.61235 219.382 6.64309 219.382 6.65846C219.582 6.79678 220.321 6.889 220.83 6.95048M228.562 6.3818C229.841 6.59698 230.903 6.64309 231.027 6.59698C231.027 6.59698 231.027 6.59698 231.027 6.58161C230.765 6.39717 230.611 6.3818 228.146 6.04367C227.961 6.01293 227.561 5.96682 227.407 6.08978C227.407 6.15126 227.422 6.19737 228.562 6.3818ZM232.475 5.42888C233.06 5.55184 233.122 5.5211 233.137 5.50573C233.199 5.39815 232.213 5.10612 231.858 5.19834C231.858 5.19834 231.843 5.19834 231.828 5.19834C231.874 5.27519 232.259 5.35204 232.475 5.39814M226.19 5.53647C227.53 5.75165 227.638 5.73628 227.792 5.62869C227.792 5.62869 226.714 5.42888 224.557 5.02927C224.557 5.02927 226.945 5.24445 230.472 5.75165C232.013 5.96682 232.013 5.96682 232.059 5.93608C232.028 5.93608 229.502 5.15223 227.638 5.06001C226.637 5.0139 224.496 4.78336 224.296 4.62966C224.521 4.54769 224.645 4.48109 224.665 4.42986C224.85 4.38375 224.942 4.36838 225.728 4.4606C228.203 4.71676 229.471 4.80897 229.533 4.73725C228.993 4.19931 222.925 3.0927 222.231 3.41546C222.231 3.41546 223.002 3.5999 224.542 3.96877C223.741 3.93803 222.971 3.646 222.154 3.67674C222.37 3.83044 222.694 3.75359 222.863 4.01488C222.863 4.04562 222.848 4.07635 222.832 4.09172C222.478 4.09172 220.814 3.5999 220.522 3.32324C220.275 3.0927 218.535 3.23102 218.519 3.23102C218.591 3.313 218.915 3.43083 219.49 3.58453C220.645 3.89192 221.43 4.24542 221.461 4.26079C221.461 4.26079 221.364 4.28641 221.169 4.33764C221.169 4.33764 221.846 4.76799 222.077 4.82947C222.416 4.90632 226.144 5.53647 226.19 5.53647ZM224.588 6.67383C224.588 6.67383 224.511 6.67383 224.48 6.67383C226.637 6.93511 226.899 6.96585 227.869 7.11955C229.954 7.43718 231.042 7.57039 231.135 7.51916C231.073 7.35009 230.888 7.31935 230.796 7.19639C230.796 7.18102 230.811 7.15028 230.826 7.13492C230.78 7.05807 230.734 7.01196 230.133 6.98122C229.04 6.91974 227.453 6.6892 226.514 6.55087C227.099 6.59698 227.9 6.64309 228.485 6.6892C229.255 6.74043 229.666 6.7558 229.717 6.7353C229.533 6.61235 229.271 6.58161 228.377 6.45865C227.977 6.41254 227.576 6.42791 227.176 6.36643C226.698 6.28958 226.698 6.28958 226.652 6.19737C226.652 6.16663 226.683 6.12052 226.683 6.07441C226.298 5.84386 224.942 5.8746 224.804 5.99756C224.804 6.05904 224.804 6.05904 225.112 6.3818C222.658 5.92071 221.297 5.71578 221.03 5.76702C221.199 5.85923 221.415 5.85923 221.554 5.99756C221.554 6.0283 221.554 6.07441 221.554 6.10515C221.759 6.23835 223.043 6.45353 225.405 6.75067C225.127 6.75067 224.85 6.7353 224.588 6.70456M235.062 5.70554C235.54 5.84386 236.68 5.95145 236.865 5.93608C236.865 5.93608 236.865 5.93608 236.88 5.92071C236.88 5.92071 235.571 5.29056 232.736 4.55281C230.626 3.99951 227.73 3.24639 227.484 3.46157C227.823 3.66137 228.223 3.69211 228.593 3.81507C228.485 3.83044 228.377 3.81507 228.27 3.7997C228.362 3.84581 228.485 3.87655 229.687 4.1532C230.626 4.38375 231.704 4.62966 232.259 4.8141C232.151 4.79873 232.013 4.76799 231.905 4.75262C231.704 4.70651 229.995 4.32227 229.748 4.41449C229.933 4.53744 230.811 4.75262 232.09 5.0139C233.26 5.24957 234.251 5.48012 235.062 5.70554ZM223.263 10.3472C224.912 10.547 226.729 10.3011 226.914 10.1013C226.837 9.90145 224.696 8.82558 224.018 8.57966C223.972 8.57966 223.926 8.53355 223.895 8.50281C224.172 8.39523 227.484 8.21079 227.854 8.54892C228.239 8.90243 231.135 8.94853 231.35 8.85632C231.33 8.79484 231.283 8.73336 231.212 8.67188C231.212 8.67188 231.212 8.62577 231.227 8.59503C232.541 8.4106 233.214 8.28252 233.245 8.21079C233.029 8.14931 229.425 7.596 229.271 7.78044C229.394 7.88803 229.579 7.9034 229.625 8.08783C229.286 8.21079 225.127 7.85729 224.188 7.62674C223.926 7.56527 219.135 6.75067 218.735 7.38083C218.073 8.84095 217.718 9.64017 223.279 10.2857M237.835 6.48939C237.943 6.52013 239.283 6.78141 239.391 6.71993C239.391 6.6892 239.129 6.55087 238.836 6.50476C238.836 6.50476 237.82 6.36643 237.696 6.44328C237.696 6.44328 237.727 6.47402 237.82 6.48939M234.646 7.16565C234.939 7.22713 237.743 7.65748 237.789 7.61137C237.789 7.61137 237.388 7.28861 233.846 6.96585C233.938 7.01196 234.385 7.10418 234.646 7.16565ZM239.375 7.41157C239.683 7.48842 239.745 7.44231 239.776 7.42694C240.007 6.81215 235.648 5.99756 235.263 6.07441C235.263 6.15126 235.586 6.36643 236.402 6.62772C237.065 6.84289 237.173 6.84289 237.958 6.90437C238.482 6.93511 238.882 7.27324 239.375 7.41157ZM236.957 9.99367C238.143 10.2396 238.174 10.2242 238.205 10.2088C238.205 10.2088 238.205 10.2088 238.205 10.1935C237.897 9.9783 237.511 9.90145 237.203 9.68628C237.034 9.56332 237.034 9.50184 237.034 9.4711C237.034 9.42499 237.034 9.33278 236.757 9.14834C236.695 9.10223 236.526 9.01001 236.387 8.9639C236.31 8.93316 236.187 8.90242 235.678 9.17908C235.586 9.22519 235.494 9.30204 235.524 9.42499C235.586 9.68628 235.771 9.76313 236.972 10.009M379.19 149.904C379.144 149.735 368.316 131.521 360.783 129.139C361.184 130.722 362.771 131.967 362.124 133.842C361.826 133.73 360.912 132.515 359.382 130.2C359.382 130.2 353.79 129.631 352.943 125.435C352.466 123.037 350.972 119.118 346.428 119.825C342.854 115.476 340.559 110.127 336.031 106.515C335.846 106.623 335.615 106.761 335.445 106.853C335.076 108.559 335.984 110.05 336.215 111.649C336.077 111.818 335.907 112.033 335.769 112.186C335.738 112.186 331.641 111.403 330.316 108.559C330.116 108.59 329.838 108.621 329.638 108.636C329.32 110.224 329.14 111.08 329.099 111.203C323.2 107.929 329.854 97.5853 322.229 96.3711C322.075 96.7707 321.906 97.3394 321.798 97.7544C321.736 97.7544 315.744 97.3394 318.009 94.1732C317.085 92.3596 314.558 89.4394 307.92 90.3308C308.921 86.8265 313.434 85.9351 314.019 82.1388C314.019 82.1081 314.204 78.0351 310.338 74.6077C310.184 75.0227 310.184 75.6836 310.338 76.0985C308.551 75.9909 308.505 74.6999 308.49 74.2695C308.69 74.1773 308.952 74.039 309.152 73.9468C308.525 72.8402 308.151 71.7592 308.027 70.7038C307.781 70.5501 307.458 70.3503 307.196 70.2427C306.965 70.2888 306.641 70.3503 306.41 70.3964C305.886 71.2571 306.01 72.2561 305.732 73.1783C302.39 73.8392 299.325 71.7182 295.998 72.2715C294.657 74.1773 295.381 76.6518 294.211 78.6038C292.948 78.2349 290.036 77.0668 289.066 76.283C288.866 76.3906 288.604 76.5442 288.404 76.6518C287.89 78.5884 287.577 79.8282 287.464 80.3713C288.743 81.9236 288.281 83.5835 287.88 84.4289C286.386 83.5528 286.355 81.4779 284.784 80.6787C284.769 80.6787 283.197 79.8948 282.396 81.6162C282.55 82.0312 282.828 82.5538 283.043 82.9227C281.934 82.8458 281.919 82.8458 281.195 82.1081C281.472 80.3713 282.612 79.0034 283.274 77.4203C278.977 81.2781 276.343 88.4865 276.328 88.5479C278.607 90.9302 279.085 91.4221 277.175 96.3557C277.668 92.0983 277.467 91.8063 276.898 91.0378C276.035 91.1454 275.85 91.1608 274.787 92.0369C273.786 92.8668 274.402 94.3577 273.493 95.2337C272.261 96.4172 270.49 96.5402 269.134 97.4623C262.588 108.513 255.934 120.363 248.879 132.889C268.303 143.956 288.635 154.007 308.644 162.153C317.208 165.642 325.31 168.608 332.934 171.098C337.843 165.463 340.883 161.518 342.053 159.264C342.053 159.264 345.858 159.802 347.152 162.245C347.367 162.199 347.645 162.122 347.86 162.061C348.03 161.738 348.399 161.369 348.723 161.185C349.914 161.953 350.771 162.527 351.295 162.906C351.141 163.291 351.002 163.828 351.002 164.243C352.404 164.874 352.851 164.935 353.636 165.043C354.591 161.764 356.265 158.844 358.658 156.282C358.966 156.671 359.192 157.732 359.336 159.464C360.784 158.741 360.491 157.143 361.076 155.99C361.584 156.005 362.247 156.236 362.709 156.42C362.539 156.559 362.201 156.666 362.124 156.881C361.646 158.172 358.858 167.886 358.843 167.948C358.042 171.237 354.946 173.573 354.992 177.215C357.256 177.723 359.459 178.168 361.6 178.568L362.047 172.927C360.691 170.145 359.628 167.948 364.003 164.059C364.167 164.243 364.414 164.879 364.742 165.965C364.942 165.581 365.22 165.058 365.435 164.689C366.513 164.566 367.13 165.473 367.977 165.873C369.24 163.137 371.966 158.987 371.997 158.956C372.613 159.079 373.198 159.371 373.861 159.341C373.691 158.357 373.091 155.667 371.165 152.209C372.259 150.641 371.52 148.536 372.721 147.014C372.916 147.936 373.163 148.689 373.46 149.273C376.387 149.704 376.51 152.67 378.051 154.361C378.051 152.501 377.85 151.548 377.604 150.334C377.989 150.411 378.543 150.395 378.928 150.303C379.006 150.165 379.16 150.027 379.19 149.873M242.41 8.2569C243.734 8.6104 243.781 8.56429 243.811 8.53355C243.811 8.24153 241.408 7.36546 240.777 7.27324C240.854 7.42694 241.039 7.42694 241.147 7.51916C241.147 7.51916 241.147 7.51916 241.147 7.53453C241.116 7.53453 241.085 7.53453 241.054 7.5499C241.07 7.58064 241.085 7.58064 241.393 7.68822C241.624 7.76507 241.624 7.78044 241.624 7.81118C241.532 7.85729 241.424 7.81118 241.331 7.88803C241.331 7.88803 241.331 7.88803 241.331 7.9034C241.362 7.93414 241.424 8.02635 242.394 8.27227M240.823 10.1013C241.331 10.2396 245.059 10.547 245.09 10.547C245.09 10.547 245.09 10.5316 245.09 10.5162C244.566 10.3625 243.257 10.132 241.439 9.8246C240.9 9.73239 240.407 9.50184 239.884 9.39425C239.36 9.28667 238.436 9.17908 238.359 9.17908C238.436 9.3174 240.315 9.94756 240.854 10.0859M238.975 8.99464C238.975 8.99464 245.228 10.1627 245.675 10.1013C245.675 10.1013 245.675 10.0705 245.675 10.0551C246.553 9.83997 247.293 10.5316 248.14 10.4855C247.508 10.0244 245.644 9.53258 245.629 9.51721C244.997 9.34814 244.351 9.56332 243.734 9.42499C243.164 9.30204 242.687 8.93316 242.117 8.82558C242.055 8.82558 241.978 8.81021 241.932 8.81021C241.932 8.82558 241.932 8.84095 241.948 8.85632C241.948 8.85632 241.362 9.1176 240.022 8.88706C238.744 8.67188 238.543 8.65651 238.466 8.73336C238.466 8.73336 238.636 8.91779 238.99 9.01001M308.705 67.1688C308.798 66.7691 307.719 64.4483 307.704 64.433C307.458 63.9258 307.165 63.5108 306.903 63.3264C307.473 63.0343 307.55 62.8806 307.596 62.8038C307.581 62.7577 307.149 62.3273 306.841 62.4042C306.749 62.481 306.672 62.5579 306.564 62.8038C306.318 63.3417 306.194 63.9104 305.963 64.4483C305.717 65.0324 305.578 65.2783 305.409 65.555C305.363 65.6318 305.301 65.724 305.286 65.8009C305.209 66.1697 305.563 66.7538 305.871 66.7845C306.21 66.8153 306.441 66.5232 306.764 66.5079C307.103 66.7384 307.072 67.2764 307.519 67.4147C307.519 67.4147 308.628 67.6913 308.736 67.1534M249.511 11.5767C252.807 12.4836 252.884 12.4682 252.961 12.4528C252.961 12.4528 252.961 12.4528 252.961 12.4374C251.975 11.669 249.002 11.2386 248.725 11.3155C248.756 11.3462 248.787 11.3769 249.511 11.5767ZM248.016 13.2213C248.617 13.3904 249.249 13.3135 249.865 13.4057C250.774 13.5287 251.621 13.9283 252.53 14.0974L256.504 14.8197C258.244 15.1271 259.846 16.0032 261.679 15.911C261.125 15.5729 254.825 13.252 254.255 13.375C254.209 13.4057 254.209 13.4057 254.209 13.4057C254.024 13.4211 253.1 13.2213 252.853 12.9446C252.853 12.9139 252.869 12.8678 252.884 12.8371C252.175 12.4682 248.925 11.8995 248.91 11.8995C248.941 12.0327 249.095 12.2069 249.372 12.4221C249.372 12.4221 248.54 12.6526 247.323 12.0225C245.151 10.9005 242.779 10.7468 241.563 10.7622C241.686 10.9312 241.901 10.962 242.055 11.1003C242.014 11.1823 241.871 11.2386 241.624 11.2694L248.016 13.2367M305.84 60.0065C305.917 59.6223 305.548 58.6079 305.147 58.7462C305.132 58.5618 305.486 58.4695 305.332 58.3158C304.87 57.8701 304.67 57.6703 304.623 56.8404C304.577 56.118 304.639 56.0565 304.978 55.7799C305.008 55.4571 304.1 53.0748 304.1 53.0441C304.084 53.0748 304.053 53.1055 304.038 53.1209C303.992 53.2285 303.992 53.2439 303.992 53.3976C303.992 53.5359 303.961 53.582 303.961 53.5974C303.807 53.8125 303.499 53.7511 303.329 53.9509C303.114 54.2275 303.068 54.581 302.914 54.8884C302.867 54.9653 302.775 55.1804 302.636 55.1497C302.544 55.1497 302.482 55.119 302.421 55.2265C302.421 55.2265 301.789 56.7635 301.851 57.1478C301.989 57.9931 302.19 58.0546 302.251 58.0853C302.59 58.2083 302.914 58.7923 303.068 59.5762C303.283 60.6725 303.581 61.4051 303.961 61.774C304.341 62.1429 304.593 62.4708 304.716 62.7577C304.716 62.7577 305.486 63.1727 305.702 63.1112C305.902 62.6501 305.625 62.2351 305.625 61.7894C305.625 61.0824 305.625 61.0209 305.84 60.0065ZM303.129 52.5215C303.129 52.5215 303.129 52.4446 303.114 52.4446C303.114 52.4293 302.698 51.9374 302.698 51.9374C302.698 51.9374 302.652 51.9221 302.559 51.8913C302.328 51.9836 302.19 52.2141 301.943 52.2756C301.743 52.3217 301.604 52.1065 301.389 52.168C301.389 52.168 301.358 52.1987 301.358 52.2141C301.373 52.4139 301.481 52.583 301.496 52.7828C301.527 53.0594 301.466 53.3361 301.543 53.6127C301.604 53.8587 301.681 53.874 301.789 53.8433C301.835 53.8433 301.928 53.7972 302.267 53.459C302.282 53.4437 302.313 53.4129 302.344 53.3822C302.482 53.2285 302.605 53.0441 302.744 52.8904C302.806 52.8289 302.867 52.7828 302.929 52.7213C303.037 52.6444 303.114 52.5676 303.129 52.5215ZM159.694 30.2662C196.554 18.5392 235.925 16.1569 273.062 24.8561C273.232 24.8561 273.463 24.8561 273.632 24.8561C273.694 24.7946 273.786 24.7024 273.848 24.6409C269.304 21.7976 238.975 12.0071 232.459 13.9898C232.49 14.1588 232.536 14.3894 232.567 14.5738C231.396 16.0954 230.38 17.4018 211.542 17.4018C205.38 17.4018 204.579 17.4018 198.865 18.5085C199.666 18.616 200.482 18.7083 201.283 18.8312C200.944 19.323 197.555 20.9983 191.625 20.276C180.304 18.9081 160.126 29.8359 159.972 29.9435C160.095 29.9127 159.787 30.174 159.694 30.2662ZM272.061 22.9349C272.061 22.9349 273.001 23.0271 273.771 22.9503C273.786 22.8888 273.817 22.7966 273.832 22.7197C273.771 22.689 273.694 22.6275 273.632 22.5968C274.063 22.6429 274.433 23.0579 274.91 22.7966C274.253 22.274 273.298 21.7719 272.046 21.2904C272.046 21.2904 272.2 21.2289 272.277 21.1981C271.568 20.0608 268.919 19.4921 264.883 18.6314C266.3 18.6775 267.101 18.862 267.964 19.0618C267.116 18.3394 263.158 16.0647 258.521 15.5882C258.573 15.8239 258.819 16.0647 259.261 16.3106C259.086 16.2594 258.409 16.0288 257.228 15.619C258.46 16.4489 261.263 17.6631 262.419 18.155C259.646 17.1867 257.197 15.5114 254.378 14.666C251.528 13.8053 248.54 13.667 245.644 13.0983C246.106 13.1188 246.445 13.1188 246.661 13.0983C245.906 12.0686 243.411 11.838 238.882 11.3923C239.108 11.5767 239.452 11.7561 239.914 11.9302C239.529 11.838 238.343 11.5767 237.465 11.2232C237.989 11.0849 238.528 11.2079 239.052 11.0849C238.959 11.0081 230.103 8.07246 230.21 9.79386C230.21 9.94756 230.257 10.1474 230.303 10.3011C230.549 10.4343 230.868 10.5572 231.258 10.6699C231.073 10.8134 230.328 10.798 229.024 10.6238C231.674 12.1454 236.11 12.0378 236.141 12.0378C239.668 11.8227 242.641 13.7592 245.906 14.5431C250.024 15.537 255.189 17.1047 261.402 19.2462C263.127 19.8456 264.868 20.4297 266.593 21.0444C266.485 20.9369 266.346 20.7524 266.3 20.5987C266.3 20.5987 267.178 20.9778 268.934 21.7361C269.966 22.2125 271.06 22.5199 272.107 22.9195M276.251 25.5939C276.435 25.64 276.636 25.6861 276.82 25.7322H276.805C276.666 25.6707 276.636 25.6553 276.251 25.5939Z" fill="white"/>
<path opacity="0.6" d="M118.66 278.578C119.738 276.473 121.186 271.124 119.353 270.878C117.32 272.261 117.104 275.566 114.039 275.858C111.605 276.088 109.156 274.013 106.722 275.904C106.63 275.981 106.553 276.104 106.491 276.211C105.536 277.902 106.984 279.808 106.045 281.499C105.814 281.929 105.459 282.098 104.304 282.559C103.919 282.713 102.748 283.158 101.947 284.388C101.501 285.08 100.977 285.848 100.854 286.909C100.731 287.908 101.069 288.876 101.085 289.875C101.085 290.997 100.715 292.104 100.915 293.241C100.977 293.594 101.039 293.933 103.796 294.501C103.811 294.501 105.336 294.809 105.567 294.547C107.323 292.549 108.632 290.228 110.358 288.2C113.885 284.035 114.547 282.974 115.841 280.776C117.382 278.148 117.674 278.163 117.89 278.163C118.09 278.486 118.028 278.87 118.105 279.224C118.152 279.239 118.198 279.27 118.244 279.285C118.398 279.085 118.429 279.055 118.645 278.609M24.0226 175.832C24.0226 175.832 26.0712 169.484 26.0558 169.116C26.0096 168.07 25.0084 167.394 24.993 166.349C24.8903 162.292 24.6592 159.325 24.2998 157.45C23.6067 153.792 23.1292 151.195 22.8519 148.766C14.6574 166.564 9.48192 184.716 7.14062 202.668C7.52571 201.576 8.06482 200.439 9.74377 200.731C10.7604 199.256 10.1443 196.274 12.6704 196.228C12.732 196.299 12.9374 196.668 13.2865 197.334C13.2865 197.334 13.4868 197.181 13.5176 197.073C13.5638 196.935 18.0615 181.181 18.0769 181.165C20.8495 181.042 23.0059 177.784 24.0534 175.848M129.365 238.817C110.835 226.091 93.3217 213.027 78.0725 200.132C74.4373 205.48 73.7596 207.079 73.7596 207.094C72.974 210.122 74.3295 213.104 74.006 216.131C73.7442 218.637 72.6351 220.911 72.0652 223.324C70.3914 230.343 69.1027 234.375 68.199 235.42C66.3044 237.618 62.3612 242.168 62.1455 245.349C61.8529 249.822 62.4074 254.294 62.0685 258.767C61.8529 261.718 60.5436 264.484 60.4974 267.466L61.4678 283.558C62.2072 287.047 62.392 287.877 72.019 291.489C75.2383 289.506 79.0891 288.753 82.0311 286.263C83.633 284.895 83.556 282.805 84.3262 281.068C85.8049 281.191 87.1758 282.574 88.7777 281.514C92.4745 279.07 89.1166 273.506 93.3525 271.293C96.8182 269.479 101.485 271.416 104.397 267.804C106.045 265.76 108.047 260.273 108.063 260.227C108.586 258.49 107.986 256.661 108.448 254.909C108.74 253.787 109.957 253.234 110.173 252.066C110.358 251.051 110.034 250.052 110.096 249.038C110.188 248.961 121.217 240.523 129.396 238.832M259.63 307.12C260.308 307.381 260.986 307.642 261.664 307.904C261.325 307.504 261.094 307.32 260.739 307.197C260.416 307.089 260.108 307.074 259.63 307.12ZM270.32 308.887C269.719 309.118 268.549 309.579 267.27 310.025C267.655 310.163 268.04 310.301 268.426 310.455C269.427 309.748 270.12 309.087 270.32 308.903M274.186 308.349C274.186 308.349 274.186 308.334 274.186 308.319C274.171 308.319 274.14 308.319 274.125 308.319C273.801 308.411 271.044 309.517 270.751 309.717C270.413 309.963 270.351 310.44 270.243 311.116C270.828 311.331 271.398 311.531 271.968 311.731C272.092 311.485 272.246 311.254 272.384 311.008C272.661 310.516 272.785 309.948 273.108 309.471C273.401 309.026 273.832 308.718 274.186 308.334M220.383 290.167C222.324 291.089 224.249 291.996 226.19 292.887C224.85 291.274 223.571 287.708 223.51 287.554C223.51 287.523 222.539 284.511 222.678 283.066C222.894 280.853 218.812 278.594 218.781 278.578C218.134 278.624 219.012 283.558 219.366 283.85C219.659 284.081 220.229 283.912 220.306 284.419C220.306 284.465 220.321 284.526 220.321 284.572C220.337 285.725 219.582 286.74 219.798 287.923C219.936 288.691 220.445 289.352 220.383 290.167ZM261.032 297.053C261.032 297.053 261.14 296.991 261.171 296.96C261.171 296.93 261.171 296.899 261.186 296.868C260.955 296.545 260.616 296.33 260.462 295.946C259.985 294.67 260.601 293.072 259.353 292.011C259.091 292.011 258.906 292.042 258.059 292.426C254.532 294.056 254.516 294.624 254.516 294.824C254.516 294.993 254.516 295.162 253.9 295.377C253.777 295.423 253.623 295.454 253.5 295.5C252.945 295.639 252.375 295.5 251.836 295.654C251.836 295.654 251.364 295.874 250.419 296.315C250.419 296.315 248.232 297.299 246.045 297.452C242.04 297.744 242.487 299.435 242.61 299.773C242.101 299.896 240.453 298.405 240.746 297.36C239.899 297.114 239.129 297.79 238.451 298.374C242.81 300.28 247.184 302.109 251.528 303.892C252.791 304.399 254.039 304.906 255.287 305.414C255.425 305.306 255.487 305.275 255.518 305.045C255.548 304.891 255.41 304.722 255.287 304.584C254.871 304.107 254.486 303.646 255.071 302.709C255.718 301.663 255.934 301.325 256.18 299.804C256.211 299.619 256.242 299.389 257.905 298.728C258.521 298.482 258.876 297.913 259.43 297.591C259.923 297.314 260.508 297.314 261.017 297.083M196.107 264.638C197.247 263.624 197.602 257.245 196.893 256.969C196.184 256.861 193.843 260.949 193.258 262.117C192.334 263.9 192.518 264.131 192.934 264.684C193.704 265.699 195.553 265.145 196.123 264.638M196.908 256.415C197.016 256.277 197.016 256.062 197.016 255.985C197.016 255.985 197.016 255.508 197.078 255.432C197.078 255.432 197.032 255.385 196.955 255.339C196.801 255.293 196.724 255.385 196.646 255.508C196.662 255.493 196.693 255.462 196.724 255.447C196.693 255.539 196.646 255.662 196.646 255.77C196.646 255.8 196.646 255.831 196.646 255.862C196.646 255.939 196.693 256.016 196.693 256.108C196.693 256.2 196.693 256.277 196.693 256.369C196.708 256.492 196.77 256.538 196.847 256.492C196.862 256.492 196.893 256.461 196.908 256.431M276.358 297.222C276.451 297.083 277.637 294.732 277.76 294.086C277.811 293.789 277.673 293 277.344 291.719V291.75C276.861 292.949 276.579 293.569 276.497 293.61C276.497 293.61 276.42 293.641 276.281 293.471C276.189 293.364 276.05 293.195 275.927 293.179C275.557 293.149 275.311 293.487 274.957 293.487C274.602 293.487 274.263 293.487 272.446 294.348C272.826 293.641 273.026 293.241 273.047 293.149C273.077 293.01 273.108 292.534 272.8 292.626C272.276 292.78 271.922 293.241 271.414 293.425C270.597 293.733 269.704 293.779 268.965 294.301C268.533 294.609 267.655 295.577 268.241 295.9C268.272 295.9 268.272 295.9 268.272 295.9C268.718 295.7 269.334 295.285 269.658 295.039C270.166 294.67 270.459 294.455 270.813 294.455C272.831 294.455 272.477 295.27 272.199 295.915C272.076 296.192 271.83 296.576 271.753 296.699C270.705 298.298 270.782 298.651 270.844 298.928C270.936 299.343 271.445 299.742 271.568 299.788C271.583 299.788 271.614 299.788 271.629 299.804L273.093 299.942C273.093 299.942 273.278 299.881 273.478 298.943C273.94 296.73 274.957 297.268 274.972 297.268C274.972 297.391 274.972 297.452 274.864 297.898C274.541 299.081 274.571 299.204 274.633 299.297C274.91 299.25 276.358 297.191 276.374 297.176M268.287 286.909L269.15 285.156C269.211 284.972 269.319 284.634 269.026 284.526C268.564 284.419 268.302 284.68 267.548 285.694C267.147 286.232 266.716 286.663 265.838 287.124C264.559 287.785 263.173 288.261 261.956 289.045C261.879 289.091 261.802 289.153 261.664 289.306C261.864 289.337 263.82 289.03 264.698 288.707C264.975 288.615 265.206 288.492 265.314 288.43C265.976 288.092 266.269 287.662 266.392 287.462C266.439 287.4 266.485 287.293 266.546 287.231C266.577 287.201 266.654 287.201 266.7 287.201C267.209 287.216 268.025 287.139 268.302 286.878M277.159 286.786C277.467 286.263 277.637 285.848 277.698 285.725C277.036 286.171 276.143 286.77 275.48 287.216C275.881 286.309 275.249 284.388 275.234 284.373C275.218 284.342 274.818 283.527 273.524 283.128C271.321 282.851 271.491 286.017 271.907 286.494C272.107 286.724 272.862 287.447 274.094 287.001C273.94 287.247 273.339 287.447 273.231 287.477C272.661 287.646 271.783 287.908 271.383 288.615C271.106 289.106 271.075 289.199 271.075 289.644C271.075 289.921 271.275 290.152 271.337 290.413C271.383 290.597 271.368 290.797 271.383 290.997C271.398 291.181 271.429 291.35 271.66 291.289C271.768 291.258 271.891 291.197 271.984 291.135C272.615 290.72 273.124 290.167 273.74 289.737C274.448 289.26 275.28 288.999 275.942 288.446C276.389 288.077 277.021 287.001 277.144 286.786M279.454 288.138C279.839 287.57 280.317 286.401 280.317 285.956C280.317 285.556 279.855 285.402 279.408 285.233C278.422 284.926 278.006 284.788 278.699 286.555C278.807 286.816 278.9 287.078 278.823 287.339C278.792 287.416 278.438 288.015 278.299 288.031C277.914 288.107 277.822 287.723 277.575 287.57C277.329 287.57 277.175 288.123 277.144 288.23C277.144 288.23 277.113 288.384 277.144 288.415C277.313 288.599 277.221 289.26 277.082 289.614C276.795 290.372 276.661 290.766 276.682 290.797C276.805 290.966 276.913 290.751 277.005 290.551C277.236 290.075 277.729 289.076 278.145 288.384C278.237 288.246 278.407 287.954 278.607 288.215C278.807 288.476 278.515 288.768 278.638 289.03C278.761 288.999 279.208 288.492 279.439 288.138M35.3901 101.074C35.5596 100.905 36.453 98.4153 36.3605 98.154C36.1141 98.0003 34.9743 99.9522 35.1437 100.644C35.1745 100.813 35.2823 101.182 35.3901 101.074ZM39.703 87.1493C40.0419 86.7343 41.0123 85.1973 40.9969 84.9668C40.9969 84.9668 40.9969 84.9668 40.9815 84.9668C40.5348 85.1973 39.2564 87.2108 39.4412 87.3798C39.4566 87.3798 39.5028 87.3798 39.6876 87.1493M38.1935 94.4499C39.318 93.1896 40.7197 88.2559 40.7043 88.0715C40.6888 88.0715 40.658 88.0715 40.6426 88.0715C40.5656 88.1483 40.5502 88.1791 40.4424 88.3635C39.3796 90.0849 38.3784 91.2069 38.3476 91.2223C38.2705 90.423 38.8713 89.8544 39.0407 89.132C38.9945 89.1627 38.9791 89.1627 38.7788 89.5623C38.2397 90.5767 37.9163 91.6833 37.2539 92.6363C36.8124 93.2715 36.6019 93.6199 36.6224 93.6814C37.0845 93.6507 37.2385 93.1896 37.5928 93.0051C37.6031 93.0769 37.5825 93.1947 37.5312 93.3586C37.0999 94.6343 36.8843 96.1098 36.8843 96.1252L36.9151 96.1559C37.5004 95.6948 37.716 94.9878 38.1935 94.4499ZM278.222 284.619C278.407 284.111 278.268 283.543 278.468 283.035C278.592 282.743 279.008 282.774 279.115 282.467C279.146 282.375 279.115 282.221 279.069 282.129C278.376 280.207 276.558 279.962 276.543 279.962C276.528 279.962 275.188 279.454 277.76 275.52C278.201 275.653 278.648 275.458 279.1 274.936C279.316 274.674 279.655 274.29 279.916 273.875L281.688 270.924C281.688 270.924 281.611 270.863 281.564 270.847L279.1 269.479C278.422 269.864 276.081 272.692 275.942 274.029C275.912 274.382 275.865 274.736 275.68 275.013C275.526 274.674 275.326 274.229 275.172 273.906C272.908 276.765 273.293 277.118 274.587 278.302C275.372 279.024 274.34 279.792 274.479 280.561C274.633 281.391 275.65 281.499 275.881 282.267C275.958 282.544 275.973 282.559 275.973 282.82C275.989 282.82 276.019 282.851 276.035 282.866C276.389 282.513 276.574 282.036 276.974 281.714C277.159 281.56 277.267 281.668 277.375 281.806C277.56 282.036 277.775 282.528 277.775 283.666C277.775 284.296 278.053 284.557 278.207 284.649M263.281 260.396C263.373 260.319 263.373 260.181 263.373 259.996C263.373 259.75 263.281 259.535 263.281 259.289C263.081 259.351 262.803 259.443 262.603 259.52C261.35 259.028 260.703 258.782 260.662 258.782C260.662 258.782 258.922 259.382 258.906 259.382C258.198 259.704 258.152 261.057 258.336 261.472C258.336 261.472 259.184 262.732 259.738 262.609C259.938 262.563 260.062 262.379 260.231 262.302C260.323 262.256 260.477 262.225 260.585 262.21C260.878 262.179 261.186 262.148 261.648 261.702C261.925 261.426 262.141 261.072 262.449 260.826C262.696 260.627 263.019 260.596 263.265 260.396M41.5976 86.4884C41.6901 86.4423 48.6061 76.5903 48.6677 76.4981C48.7139 76.4213 49.977 74.5001 50.0694 73.6547C50.0694 73.624 50.0386 73.5933 50.0232 73.5625C49.4225 73.4396 48.7447 74.2542 48.8988 74.5769C48.8988 74.5923 48.945 74.623 48.9604 74.6384C49.022 74.6384 49.099 74.6384 49.1606 74.6384C49.176 74.6538 49.2068 74.6845 49.2222 74.6999C49.2376 75.0226 48.7755 75.7297 48.5291 75.9448C48.5291 75.9295 48.4983 75.8987 48.4829 75.8833C48.5342 75.7911 48.5907 75.704 48.6523 75.6221C48.6523 75.6221 48.1286 76.037 47.112 77.8968C46.4805 79.0495 46.2648 79.2954 45.279 80.525C44.6629 81.2781 44.1546 82.1081 43.523 82.8612C43.369 83.0456 43.0918 83.0763 42.9531 83.2761C42.6759 83.6911 41.7671 85.1666 41.5514 86.4884L41.5822 86.5191M288.065 255.631C288.419 255.155 288.296 254.678 287.787 254.509C287.264 254.402 285.277 255.017 284.676 255.216C284.383 255.309 283.875 255.478 283.629 255.877C282.905 256.999 283.136 261.702 283.151 261.718C283.675 261.733 285.369 259.72 285.384 259.704C286.417 258.429 287.094 256.938 288.065 255.631ZM318.563 238.294C318.563 238.294 318.563 238.248 318.563 238.218C318.563 238.248 318.563 238.279 318.563 238.294ZM331.687 227.274C332.257 225.138 331.964 222.863 332.749 220.773C332.734 220.773 332.719 220.773 332.688 220.788C331.409 221.234 331.348 221.342 331.024 221.941C330.393 221.019 329.53 223.032 329.345 224.093C328.051 231.563 323.631 233.637 322.814 232.669C322.629 232.439 322.583 232.024 323.477 231.317C323.338 231.101 322.66 230.64 322.167 230.886C321.089 234.882 319.657 236.465 319.025 235.374C318.902 235.159 318.871 234.928 318.794 234.713C316.776 233.914 316.638 234.037 314.127 236.097C313.588 236.542 312.956 236.604 312.356 236.665C310.846 236.819 310.292 238.294 309.152 238.971C308.012 239.647 307.719 241.276 307.704 241.292C308.489 241.799 308.936 240.108 309.629 240.754C309.675 242.598 306.687 243.32 307.75 245.472C308.104 246.194 310.908 243.428 310.938 243.397C312.848 241.199 311.709 239.678 311.015 238.771C312.155 237.372 312.664 237.787 312.879 237.972C313.079 238.141 313.218 238.095 313.403 238.033C312.956 239.386 312.463 240.923 312.479 242.613C312.741 242.767 314.065 242.398 314.805 241.476C315.369 240.779 315.965 240.656 316.591 241.107C317.161 240.861 317.916 240.077 318.286 239.509C318.27 240 318.255 240.123 318.086 241.092C318.132 241.122 318.193 241.169 318.224 241.199C319.61 240.738 320.273 240.344 320.211 240.016C320.088 239.34 320.242 238.878 320.766 238.402C321.105 238.945 321.397 239.227 321.644 239.247C321.921 239.278 322.244 239.14 323.6 238.571C324.124 238.341 324.262 239.109 324.724 239.063C324.925 239.048 325.079 238.909 325.263 238.878C325.31 238.925 325.356 238.986 325.402 239.032C325.371 239.17 325.325 239.355 325.263 239.478C325.71 239.724 327.389 238.817 327.389 238.802C327.389 238.771 327.682 237.265 327.697 236.465C327.697 236.404 328.149 234.934 329.053 232.054C329.607 230.302 331.147 229.088 331.625 227.305M339.327 216.808L339.465 213.611C339.465 213.457 339.434 213.15 339.126 213.273C338.803 213.411 338.618 213.764 338.218 213.78C338.11 213.78 337.832 213.78 337.478 213.334C337.278 213.073 336.785 212.443 336.2 209.154C336.138 208.785 336.025 208.575 335.861 208.523C335.768 208.554 335.707 208.585 335.645 208.769C335.599 208.892 335.599 208.985 335.537 209.384C335.368 210.706 335.121 211.152 334.798 211.72C334.736 211.823 334.505 212.535 334.105 213.857C333.704 215.178 333.597 215.071 332.734 214.241C332.441 214.748 332.395 215.409 331.902 215.809C331.61 216.039 331.224 216.07 330.947 216.331C330.793 216.47 330.716 216.746 330.655 216.931C330.547 217.284 330.562 219.236 330.655 220.604C331.147 220.163 331.656 219.892 332.18 219.789C332.133 218.806 330.824 218.006 331.656 216.915C331.687 216.869 331.717 216.838 331.856 216.869L333.92 217.453C334.582 217.991 334.736 218.913 335.399 219.451C335.738 218.867 335.799 218.16 336.2 217.607C336.385 217.346 336.508 217.177 337.001 217.223C337.601 217.269 339.019 217.376 339.311 216.808M106.23 42.3929C106.322 42.3621 106.322 42.3314 106.291 42.2699C106.214 42.147 106.168 42.0547 106.291 41.732C106.445 41.3324 106.769 41.025 106.892 40.9174C107.262 40.61 107.585 40.4256 108.032 40.1797C108.263 40.0567 108.294 40.0413 108.309 40.026C108.309 40.026 108.294 40.026 108.278 40.026C106.214 40.733 104.766 42.2853 105.198 42.5466C105.398 42.6695 106.214 42.4083 106.23 42.4083M115.302 37.9972C115.964 37.7666 117.181 35.7839 116.996 35.4765C116.581 35.3228 114.486 37.4592 114.64 37.8742C114.763 38.197 115.256 38.0279 115.302 37.9972ZM111.205 47.1421C113.377 46.1738 116.873 43.5917 118.229 42.4236C118.675 42.0394 118.645 41.8857 118.629 41.8088C118.552 41.4553 118.075 41.5783 117.982 41.2555L120.647 39.319C120.786 39.2421 121.463 39.073 122.018 38.9347C123.127 38.6581 124.991 38.1662 125.114 37.8896C124.837 37.8281 123.589 37.9357 121.741 38.3507C121.463 38.4121 121.109 38.5044 120.832 38.5658L112.684 40.733C112.36 40.9174 112.268 40.9635 112.129 41.3939C111.883 42.147 111.944 42.9462 111.759 43.7147C111.574 44.4985 111.39 44.8828 111.22 45.267C111.097 45.5283 111.051 45.6359 111.097 45.7127C111.159 45.8511 111.451 45.8664 111.374 46.0509C111.343 46.1431 111.266 46.2968 110.697 46.6964C110.234 47.0038 109.68 47.1882 109.295 47.6186C109.295 47.6493 109.326 47.68 109.341 47.7108C109.896 47.7569 111.159 47.1882 111.205 47.1575M341.021 197.98C341.021 197.98 341.036 197.872 341.036 197.826L340.836 188.512C340.79 187.728 340.389 187.006 340.312 186.222C340.282 185.853 340.374 185.361 340.59 184.762C341.514 182.195 341.16 177.169 340.975 176.923C340.959 176.923 340.929 176.923 340.898 176.923C340.61 177.18 340.508 177.538 340.59 177.999C340.713 180.935 340.374 181.135 340.266 181.196C339.712 181.519 339.404 183.041 339.096 184.854C338.51 188.205 339.111 191.678 337.971 194.952C337.678 195.797 337.309 196.858 336.03 205.434C336 205.588 335.984 205.803 335.969 205.972C336.015 205.972 336.061 205.987 336.107 205.987C336.924 204.65 337.447 204.835 338.002 206.633C338.048 206.633 338.125 206.633 338.171 206.633C338.31 206.172 338.464 205.695 338.017 202.037C337.478 197.565 339.558 194.353 340.513 196.059C340.713 196.412 340.728 196.504 340.99 197.964C340.99 197.964 340.99 197.995 341.006 197.995M130.628 35.3536C131.429 35.0308 131.568 34.7234 132.061 33.6322C131.722 33.1865 131.537 32.9559 129.627 32.9405C131.167 32.0337 132.015 32.2028 133.478 32.6178C131.938 28.3604 131.383 24.6409 131.799 21.4594C128.071 22.4892 124.929 25.1174 120.97 25.5477C128.703 20.445 130.921 20.2145 131.861 20.1069C133.216 15.1425 136.974 11.7151 143.028 9.83997C138.469 11.4691 132.323 13.4979 127.825 15.3116C109.634 23.4728 108.54 23.9647 97.9734 30.3123C80.7834 41.732 80.1057 42.1777 70.9408 50.0009C66.4122 54.2275 60.3126 59.8221 55.9997 64.2793L56.2153 64.0487C61.9607 58.0392 63.2854 57.0402 64.5638 56.0719C63.9477 57.1939 62.392 58.9614 62.0839 59.3149C62.8695 58.7001 63.4548 57.8701 64.1942 57.2092C63.27 63.8182 56.9701 66.1236 53.4119 70.6423C58.4488 68.26 60.6668 62.9882 64.7179 59.5915C65.8166 58.6796 68.6508 57.158 73.2205 55.0267L73.2513 54.996C73.2513 54.996 82.8013 47.388 84.9423 46.6349C82.9399 48.0182 81.0145 49.5398 78.9813 50.8616C78.9813 50.8616 81.1634 49.4014 85.5276 46.4812C84.1208 47.68 83.3558 48.3204 83.2326 48.4024C84.9372 47.4802 87.3812 46.5376 90.5645 45.5744C90.6877 45.6666 90.8418 45.7742 90.965 45.8664C94.2151 43.4995 96.4947 42.6081 96.5872 42.5773C98.1429 41.9779 99.8526 42.4544 101.393 41.8703C101.629 42.024 102.466 42.1162 103.904 42.147C103.026 42.4697 102.656 43.438 101.778 43.7608C100.838 42.731 97.7116 44.3295 97.2033 44.8981C101.331 45.3592 103.611 45.6051 108.525 42.562C108.319 42.5107 106.954 42.9821 104.427 43.976C104.653 42.4595 106.799 40.2258 110.866 37.2748C110.974 37.3824 111.128 37.5361 111.236 37.659C113.469 37.367 113.839 37.075 115.071 35.8915C115.009 35.7378 114.932 35.5226 114.871 35.369C114.614 35.3382 111.954 35.6456 106.892 36.2911L117.073 33.6937C118.352 33.6014 118.275 35.2921 119.369 35.4304C119.045 36.0145 118.968 36.1374 119.446 36.8598C124.395 36.7778 128.118 36.2706 130.613 35.3382M19.7251 119.379C18.9549 125.097 20.6184 132.213 24.9622 140.651C25.1932 139.268 25.0854 137.869 25.3626 136.486C25.8709 133.904 27.5345 131.629 27.3034 128.878C27.0878 126.204 27.5653 123.022 28.7359 119.333C30.6151 113.38 31.565 110.117 31.5855 109.543C31.6626 106.715 32.4943 102.089 32.5097 102.058C31.6472 101.09 31.1234 100.905 27.3343 106.638C28.8438 103.733 28.8438 103.487 28.8592 102.949C28.7514 102.98 28.5973 103.011 28.4895 103.026C29.3059 99.8446 32.9256 94.8802 37.0999 89.1474C38.9637 86.596 40.2268 83.645 42.1984 81.1551C44.1084 78.7421 46.4343 76.6826 48.221 74.1773C48.5137 73.7777 48.5445 73.4242 48.5907 73.1168C47.6511 74.039 44.3702 77.9429 44.2162 78.1273C45.089 76.8978 45.6846 76.0883 46.003 75.6989C44.8939 77.0975 43.4152 78.9726 42.3216 80.3713C42.2138 80.525 31.6626 94.6804 26.7027 105.992C26.8465 105.818 27.3188 105.188 28.1198 104.102C28.1198 104.43 27.8323 105.122 27.2572 106.177C24.8235 110.619 21.4656 114.523 19.7713 119.379M338.618 183.225C339.111 179.967 338.248 178.168 337.155 175.894C336.826 176.252 336.528 177.077 336.261 178.368C333.057 179.183 334.074 174.188 332.087 172.758C332.226 172.42 332.426 171.974 332.565 171.652C325.34 168.701 317.238 165.719 308.674 162.245C288.665 154.099 268.333 144.048 248.91 132.982C233.214 160.816 215.531 191.909 197.463 223.401C198.972 222.126 199.188 222.033 200.605 221.495C191.379 239.324 188.021 251.451 190.639 257.522C192.226 257.337 193.489 256.953 194.398 256.369C199.126 253.357 199.85 247.055 204.564 244.012C209.262 240.999 214.853 240.83 219.967 239.14C221.754 238.545 222.791 237.782 223.078 236.85C223.982 236.594 227.186 236.906 232.69 237.787C232.736 241.384 233.707 244.949 233.152 248.561C232.767 251.097 230.518 252.757 230.025 255.247C231.519 256.523 231.966 256.907 235.355 254.663C236.402 256.277 233.399 264.023 233.368 264.1C231.889 267.896 228.007 270.294 227.314 274.536C226.914 277.011 228.947 278.947 228.855 281.36C228.762 283.958 226.637 285.986 226.821 288.645C226.945 290.628 227.191 291.35 228.562 293.733C229.07 294.163 229.409 294.317 229.748 294.47C230.118 290.92 232.813 287.785 231.704 283.958C230.965 281.386 230.908 278.343 231.535 274.828C229.024 271.662 237.373 266.021 237.511 266.021C237.984 266.206 238.22 266.298 238.22 266.298C238.066 266.544 237.85 266.882 237.696 267.143C238.405 269.51 240.946 270.755 241.47 273.245C242.194 276.765 241.254 278.102 240.268 279.531C242.009 279.623 257.227 279.885 253.361 260.719C251.805 253.003 263.712 255.14 263.866 255.37C263.651 256.277 263.142 257.092 263.127 258.06C269.704 254.325 278.361 258.398 284.368 252.45C291.7 245.18 296.136 240.8 293.887 227.613C296.013 225.707 298.924 224.954 300.819 222.74C300.356 221.972 300.033 221.419 297.491 221.296C296.136 221.234 295.32 221.188 295.042 215.609C296.059 214.594 298.939 213.488 303.607 212.304C303.678 212.376 303.791 213.785 303.945 216.531C309.244 215.209 308.197 225.538 308.12 225.661C307.842 226.122 307.149 226.46 306.703 226.752C306.749 229.196 306.749 229.395 304.9 234.329C305.039 234.56 305.239 234.882 305.378 235.113C307.781 235.113 311.924 231.685 311.123 223.417C310.307 214.948 321.058 210.153 321.166 210.153C321.392 211.28 321.69 212.043 322.06 212.443C322.167 212.443 334.29 208.493 338.587 183.179M361.584 178.829V178.629C359.474 178.245 357.271 177.784 354.992 177.277C355.192 192.324 356.424 193.553 357.148 192.939C357.502 192.631 357.826 191.817 357.995 191.356C358.827 189.004 358.781 186.437 359.844 184.147C360.167 183.44 360.722 182.856 360.953 182.088C361.353 180.843 361.569 178.921 361.569 178.845M162.559 70.7499C162.713 70.9036 162.883 71.0573 163.037 71.211C163.067 70.8575 163.037 70.7038 162.944 70.6423C162.836 70.5962 162.759 70.6423 162.559 70.7499ZM164.408 67.1688C165.27 66.6923 165.732 66.0775 165.732 65.4166C165.732 64.7608 165.809 64.3459 165.963 64.1717C165.963 64.1717 165.963 64.1409 165.948 64.1409C162.02 63.2034 162.344 64.9555 162.359 64.9709C162.359 64.9709 162.39 65.0016 162.39 65.017C162.328 65.0477 162.251 65.0324 162.189 65.017C160.156 64.8172 158.724 64.7403 157.26 65.5088C158.323 66.6001 159.417 67.6913 160.541 68.7826C161.635 67.7989 163.175 67.8297 164.392 67.138M175.267 82.1849C176.792 83.476 178.332 84.7824 179.919 86.0734C179.949 85.7353 180.042 84.8131 178.163 83.9831C177.608 83.7372 177.423 83.6604 178.255 82.3847C179.395 80.6018 180.35 79.7411 181.582 78.8958C181.952 78.6345 182.46 78.3118 182.861 78.1119C183.723 77.6662 184.694 77.5125 185.556 77.0822C185.854 76.9387 186.717 76.4264 188.144 75.5452C189.114 74.9458 189.191 74.8843 189.238 74.6691C189.207 74.623 189.145 74.5462 189.099 74.5154C188.036 73.9621 186.465 73.5011 184.971 74.3464C184.925 74.3771 179.457 78.2349 177.254 81.2474C176.638 82.0978 175.97 82.4103 175.251 82.1849M167.534 75.3915C167.735 75.576 167.935 75.7604 168.151 75.9448C168.264 75.8321 168.695 74.5257 169.444 72.0256C169.845 70.6884 171.324 70.1197 171.755 68.7979C171.894 68.3676 172.217 67.3839 171.277 66.554C172.694 66.3234 180.088 64.8479 178.563 63.6645C177.932 63.1726 177.038 63.1573 176.437 62.5886C176.437 62.5425 176.468 62.4964 176.468 62.4503C176.699 62.3119 177.346 62.0507 179.041 61.7894C180.119 61.6203 180.581 61.5435 180.797 61.3283C180.781 61.2668 180.766 61.1746 180.704 61.1285C180.689 61.1285 178.733 59.8835 176.823 60.2985C176.653 60.3293 176.437 60.4369 176.268 60.4983C175.02 61.0209 173.927 61.8201 172.679 62.3427C171.524 62.8345 170.23 62.9267 169.121 63.5569C169.121 63.5876 169.121 63.6184 169.136 63.6491C170.215 64.1102 171.401 63.5108 172.479 63.9719C172.479 64.1409 171.817 64.8787 169.937 65.1861C169.429 65.2629 169.059 65.4012 168.69 65.6318C166.595 66.9536 166.687 67.2149 167.242 68.6289C167.442 69.1668 167.488 69.4435 167.396 69.5357C167.072 69.8584 166.564 69.7816 166.225 70.0429C165.424 70.673 164.885 71.5491 164.069 72.1485C164.993 73.0246 165.932 73.9007 166.903 74.7767C167.047 74.7357 167.262 74.9355 167.55 75.3761M196.97 44.6215C197.309 44.5293 198.449 43.9913 198.618 43.73C198.988 43.2075 198.156 42.9462 198.202 42.4544C198.264 41.8396 199.08 42.0086 199.219 41.4861C199.219 41.4707 199.219 41.44 199.219 41.4092C199.173 41.3785 199.126 41.3324 199.08 41.3016C198.68 41.1787 194.428 39.8262 194.428 39.8262C194.136 39.7954 193.751 39.903 193.458 39.9491C193.135 40.0106 192.981 40.0413 192.703 40.0567C192.539 40.0669 192.303 39.9132 191.995 39.5956C191.902 39.5034 191.64 39.5034 189.607 39.9491C187.851 40.3333 187.759 40.3487 187.451 40.3333C188.929 39.1038 190.932 38.8271 192.395 37.5668C193.15 36.9213 192.78 36.3372 192.149 36.3219C191.348 36.2911 191.024 37.2133 190.27 37.2748C189.253 37.3516 188.236 36.9674 187.22 37.1518C187.189 37.1518 187.158 37.1826 187.127 37.1979C187.127 37.7974 187.867 37.6283 188.098 38.0279C188.098 38.0279 187.405 39.5034 184.832 39.488C184.724 39.488 184.555 39.4419 184.478 39.5034C184.047 39.9184 185.063 40.3795 184.601 40.7637C184.062 41.2094 183.215 40.8559 182.753 41.4861C182.968 42.3621 184.231 41.9779 184.416 42.8847C184.478 43.1921 184.216 43.4995 184.447 43.8069C184.493 43.8684 184.555 43.9298 184.617 43.976C184.909 44.1911 187.019 44.8981 187.497 45.0057C187.99 45.1133 193.535 45.3592 193.581 45.3439C193.828 45.3439 194.136 45.3131 194.382 45.267C195.075 45.1133 195.707 44.7598 196.4 44.56C196.6 44.4985 196.785 44.6676 197.001 44.6061M256.118 75.3915C256.58 75.1302 256.411 74.454 255.795 74.0697C254.886 73.5472 253.176 73.9007 253.361 74.746C253.392 74.8843 253.515 75.33 253.947 75.4223C254.116 75.453 255.518 75.5145 255.625 75.5145C255.672 75.5145 255.934 75.5145 256.118 75.3915ZM265.222 78.8036C265.622 78.3732 266.593 76.4981 265.761 75.9756C265.253 75.6682 265.129 76.037 265.083 76.1907C264.96 76.575 264.806 78.2349 264.898 78.696C264.944 78.9419 265.052 78.9726 265.222 78.7882M279.331 78.4193C280.086 77.0668 280.825 75.7297 281.549 74.4079C280.882 73.8136 280.296 73.3935 279.793 73.1475C279.701 73.1783 271.291 77.9736 271.66 84.5211C271.722 85.6277 270.967 88.0561 269.119 90.0081C268.687 82.6153 268.41 77.7277 264.821 80.0331C264.76 81.8263 263.841 82.8202 262.064 83.0149C261.864 82.769 261.679 82.4001 261.571 82.1081C261.802 81.8775 262.11 81.5855 262.341 81.3549C262.218 81.2781 262.049 81.1705 261.91 81.109C260.616 80.4481 259.091 81.0475 257.782 80.3867C256.842 79.9102 257.212 78.4347 256.041 78.1427C254.824 77.8353 253.454 78.0812 250.989 78.5269C246.722 79.2954 246.522 79.1878 245.952 78.8804C245.028 78.3886 246.075 76.5289 246.676 76.2215C246.83 76.1446 247.092 76.1293 247.262 76.0832C247.508 76.2368 247.862 76.3752 248.139 76.452C249.002 75.161 248.709 74.5462 248.586 74.3156C247.585 74.4232 246.584 74.7767 246.091 74.9765C243.95 75.8526 244.674 78.8036 242.61 79.7411C242.255 79.8948 242.009 79.7258 241.362 79.111C240.392 78.2195 239.098 78.1273 237.527 78.8343C236.387 79.3415 235.432 80.1715 234.307 80.7094C232.438 79.7975 231.34 79.9204 231.011 81.0783C229.979 84.7055 227.93 79.9409 227.946 79.7872C227.946 79.654 229.486 78.0402 232.567 74.9458C232.752 74.7614 233.568 73.1373 235.016 70.0736C237.296 80.5865 241.763 76.8977 244.227 73.7623C244.35 73.5933 244.412 73.3166 244.504 73.1168C243.395 71.3647 240.946 62.7884 242.949 63.3725C243.21 63.4493 243.472 63.726 243.703 63.8797C243.827 63.8182 243.996 63.726 244.119 63.6645C244.15 63.4647 244.181 63.2188 244.196 63.0189C243.472 62.2044 242.194 62.773 241.485 61.897C241.454 61.8509 241.208 61.482 242.04 60.36C244.273 61.6511 245.49 60.9133 244.889 58.6693C244.674 57.8701 242.928 57.7011 239.652 58.1621C240.012 57.9265 241.449 57.4961 243.965 56.8711C243.919 56.7328 243.857 56.5637 243.827 56.4254C241.27 55.1651 230.872 56.5637 230.765 56.5791C223.402 57.6549 216.763 61.3744 209.385 62.3888C205.134 62.9728 200.79 62.3119 196.569 63.3725C195.784 63.5723 184.878 69.5664 185.202 71.1802C185.803 74.1927 192.395 71.4723 194.875 70.4425C194.737 70.5654 182.891 82.5538 185.279 83.1225C185.864 83.2608 186.727 82.769 187.497 82.3386C187.636 82.2617 187.805 82.1542 187.944 82.0773C188.005 82.0466 197.109 78.1734 198.156 78.0044C201.298 77.4715 202.895 76.8414 202.946 76.1139C203.07 74.3618 203.116 73.7009 208.353 71.2571C208.538 71.1649 208.8 71.0573 208.984 70.9958C210.987 70.2888 213.082 70.8575 215.115 70.4732C217.472 70.0275 218.535 67.5684 220.722 66.846C224.958 65.4474 222.139 70.8575 221.985 70.9497C217.348 73.9007 210.479 71.6721 207.013 77.3588C204.533 81.4164 213.159 81.0937 213.251 85.2742C211.054 84.8029 209.837 84.6133 209.601 84.7055C207.3 82.9534 205.621 81.8109 204.564 81.2781C203.655 82.0773 203.1 84.0446 203.07 84.3213C203.162 84.4135 203.301 84.5365 203.393 84.644C203.157 85.1359 201.843 86.1042 199.45 87.5489C198.721 87.0571 198.69 86.0888 199.357 84.644C195.707 81.6931 195.122 90.4845 190.824 89.7621C190.685 89.7314 190.516 89.6238 190.393 89.5316C188.945 88.5633 187.22 89.6392 185.726 88.9168C184.694 88.425 184.093 87.3184 182.984 86.9495C182.83 86.9034 182.614 86.8573 182.46 86.888C182.121 86.9341 181.675 87.0417 181.351 87.1493C200.605 102.826 223.987 118.688 248.863 132.874C255.918 120.363 262.572 108.498 268.672 97.5546C267.625 96.6938 267.224 95.8639 266.854 94.5267C266.962 94.4345 267.101 94.3269 267.209 94.2347C268.518 94.7573 269.011 94.9571 270.182 94.8495C272.646 90.423 275.018 86.1503 277.282 82.0619C277.652 81.0066 278.33 79.7872 279.316 78.404M281.965 73.6086C282.042 73.4857 282.104 73.3474 282.181 73.2244C282.319 72.7172 282.288 72.2868 282.258 72.1332C282.258 72.1332 282.088 71.2263 281.888 71.1495C281.78 71.1495 281.364 71.38 281.303 72.1485C281.272 72.5635 281.38 73.1475 281.703 73.5318C281.857 73.7009 281.965 73.6086 281.965 73.6086ZM286.571 61.067C287.094 60.6059 287.217 60.4983 286.802 59.3149C286.771 59.3149 286.725 59.3149 286.678 59.2995C283.279 59.9553 281.564 60.2832 281.534 60.2832C280.625 60.2524 279.732 59.9143 278.792 60.1141C277.036 60.4983 272.846 62.0968 272.292 62.481C272.169 62.5732 271.999 62.6962 271.876 62.7884C271.137 63.3417 270.659 64.1563 269.935 64.7096C269.396 65.1246 268.734 65.2937 268.148 65.6011C267.517 65.9392 267.055 66.4771 266.454 66.846C265.499 67.4454 264.205 67.4147 263.527 68.4752C262.095 70.6884 262.988 73.9621 264.297 74.8382C264.96 75.2839 265.237 74.9765 265.252 74.9612C265.838 74.1312 265.745 73.0553 266.177 72.1639C266.207 72.1024 269.011 66.5693 272.646 65.5242C275.295 64.7557 277.39 62.8499 280.024 62.0507C281.98 61.4512 284.029 61.7279 286.016 61.4666C286.185 61.3283 286.432 61.1746 286.586 61.0363M290.314 46.7886C290.421 46.7271 290.314 46.266 290.098 46.1584C289.636 45.974 289.528 45.9279 289.204 46.0816C289.189 46.0816 288.665 46.3429 288.804 46.7579C288.896 47.0191 289.466 47.096 289.59 46.9116C289.636 46.8501 289.62 46.7732 289.636 46.7118C289.682 46.681 289.728 46.6964 289.944 46.7579C290.052 46.7886 290.236 46.8347 290.314 46.804M288.619 45.7742C288.835 45.6359 288.881 45.2516 288.511 45.0518C288.08 44.8828 287.325 44.8674 287.526 45.2209C287.541 45.2516 287.572 45.2824 287.587 45.3131C287.71 45.4514 287.818 45.6051 287.941 45.7588C287.988 45.8049 288.018 45.8357 288.034 45.8357C288.111 45.8664 288.45 45.8664 288.604 45.7742M289.004 44.268C289.204 44.1911 289.42 43.8991 288.912 43.4841C288.681 43.3612 288.434 43.269 288.219 43.1153C288.024 42.9616 287.87 42.8745 287.757 42.854C287.757 42.854 287.633 42.854 287.587 42.8386C287.402 42.8386 287.202 42.8386 287.017 42.8232C286.725 42.8079 286.432 42.731 286.139 42.7464C286.139 42.7464 285.908 42.7464 285.939 42.9462C285.954 43.0384 286.093 43.2228 286.309 43.2997C287.279 43.6686 287.233 43.9145 287.233 43.9298C287.202 44.0682 286.771 44.4678 286.016 44.268C285.841 44.227 285.723 44.227 285.662 44.268C285.646 44.4832 286.031 44.8059 286.247 44.8059C286.417 44.8059 286.617 44.6676 286.802 44.56C287.279 44.2526 287.449 44.1604 287.818 44.1911C288.234 44.2219 288.619 44.4832 289.05 44.3141M291.191 45.2209C291.191 45.2209 291.253 45.1748 291.238 45.1441C291.238 45.1287 291.222 45.1133 291.207 45.0979C291.115 44.9442 291.022 44.8059 290.93 44.6676C290.837 44.5139 290.745 44.4678 290.699 44.437C290.391 44.3141 289.928 44.5293 289.928 44.5293C289.867 44.5907 289.79 44.8828 289.898 45.1287C290.206 45.8203 291.176 45.2363 291.176 45.2363M292.224 46.7118C292.224 46.7118 292.285 46.6195 292.301 46.5888L292.716 45.7435C292.778 45.5898 292.716 45.5744 292.67 45.5437C292.547 45.5437 291.777 45.6205 291.346 45.9125C291.022 46.1277 290.622 46.7118 290.729 46.8193C290.822 46.8962 290.93 46.8193 291.022 46.8808C291.191 46.9884 290.745 47.3265 290.945 47.3112C290.991 47.3112 292.085 46.8501 292.224 46.6964M294.118 46.7271C294.334 46.4505 294.626 45.7588 294.626 45.7435C294.626 45.7435 294.596 45.7435 294.58 45.7435C293.933 45.9894 293.718 46.2353 293.61 46.3736C293.363 46.6656 293.009 46.3582 292.732 46.5119C292.732 46.5119 292.116 46.9269 292.347 47.0191C292.747 47.1882 293.687 47.2804 294.103 46.7271M293.564 43.8991C293.764 43.7454 293.856 43.4073 293.564 43.2382C293.24 43.1153 292.793 43.269 292.67 43.3304C292.624 43.3458 292.578 43.3765 292.547 43.3919C292.408 43.4688 292.285 43.561 292.147 43.6378C291.931 43.7608 291.715 43.8376 291.515 43.976C291.5 43.976 291.361 44.0835 291.407 44.1604C291.515 44.3295 292.378 44.2526 292.393 44.2526C292.732 44.2065 293.425 44.0221 293.564 43.8991ZM276.204 30.4968C276.558 30.5429 277.021 30.3892 277.344 30.2662C277.267 30.1125 277.175 29.9281 277.113 29.7744C275.573 29.3902 274.14 28.7446 272.615 28.2989C279.742 28.9342 283.531 29.1647 283.983 28.9905C283.336 28.5295 281.821 27.9505 279.439 27.2538C279.562 27.1616 279.747 27.0232 279.87 26.931C279.295 26.6441 278.258 26.2189 276.759 25.6553C276.574 25.6092 276.374 25.5631 276.189 25.517C274.494 25.2404 272.785 25.0405 271.09 24.7639C271.737 24.7639 272.384 24.7639 273.031 24.7639C235.909 16.08 196.523 18.447 159.663 30.174C159.088 31.7622 158.749 32.8432 158.647 33.417C158.785 33.54 158.97 33.7244 159.093 33.8474C166.41 33.417 173.003 29.467 180.412 29.4516C180.596 29.4516 180.843 29.4824 181.028 29.4977C183.107 29.6822 184.925 30.7273 186.912 31.2191C189.669 31.8954 192.287 30.3892 195.014 30.7119C195.168 30.7273 196.061 30.8503 197.756 31.4804C201.868 32.9867 208.861 33.6937 208.923 33.709C210.463 33.8166 212.358 33.1865 213.621 32.7715C222.539 29.8359 247.508 28.637 247.754 28.6217C262.141 28.2067 266.007 28.0991 276.204 30.5121M241.547 384.752C241.716 384.644 241.947 384.506 242.009 384.398C242.009 384.398 242.009 384.368 241.994 384.368C241.947 384.368 241.886 384.368 241.84 384.368C240.854 384.491 239.899 384.752 238.913 384.813C238.589 384.844 237.973 384.875 237.588 384.66C237.219 384.444 237.126 384.106 237.095 383.968C236.941 383.415 236.418 383.522 236.248 383.568C236.017 383.63 232.243 385.874 233.476 386.75C234.246 387.288 235.155 387.057 235.709 386.919C235.74 386.919 239.729 385.843 241.547 384.752ZM269.935 389.378C270.382 389.178 270.998 388.794 271.753 388.225C270.982 388.43 270.526 388.497 270.382 388.425C270.428 388.302 270.49 388.195 271.26 387.749C268.58 388.61 266.069 389.901 263.327 390.546C257.443 391.95 253.931 392.882 252.791 393.343C252.791 393.343 252.76 393.42 252.745 393.466C252.884 393.605 253.069 393.666 253.531 393.758C253.515 393.758 251.79 394.435 251.513 394.604C251.728 394.65 253.839 394.204 254.193 394.066C254.778 394.358 255.394 394.173 256.488 393.851C256.503 393.851 268.087 390.054 268.179 390.024C268.811 389.808 269.612 389.516 269.935 389.378Z" fill="white"/>
</g>
<defs>
<clipPath id="clip0_1098_83160">
<rect width="382" height="395" fill="white" transform="translate(0 0.280029)"/>
</clipPath>
</defs>
</svg>
