<svg width="211" height="210" viewBox="0 0 211 210" fill="none" xmlns="http://www.w3.org/2000/svg">
<g filter="url(#filter0_dd_1182_59561)">
<rect x="51.6641" y="21" width="108" height="108" rx="54" fill="white"/>
<g clip-path="url(#clip0_1182_59561)">
<path d="M126.877 53.7869C121.211 48.1205 113.677 45 105.664 45C97.6508 45 90.1171 48.1205 84.4509 53.7867C78.7845 59.453 75.6641 66.9868 75.6641 75.0001C75.6641 83.0134 78.7845 90.547 84.4509 96.2133C90.1171 101.88 97.6508 105 105.664 105C113.678 105 121.211 101.88 126.877 96.2132C132.544 90.547 135.664 83.0132 135.664 74.9999C135.664 66.9866 132.544 59.453 126.877 53.7869ZM86.9394 56.2753C89.5774 53.6373 92.6743 51.6252 96.0498 50.3119C95.1507 51.4343 94.3095 52.7244 93.5385 54.1754C92.643 55.8606 91.8704 57.7114 91.2269 59.6882C88.9978 59.3182 86.9324 58.8633 85.0871 58.3294C85.6655 57.6185 86.2824 56.9323 86.9394 56.2753ZM82.9565 61.3577C85.1148 62.0487 87.583 62.6315 90.2762 63.0931C89.5262 66.2766 89.0848 69.7024 88.9794 73.2405H79.2425C79.5191 68.9944 80.7943 64.9421 82.9565 61.3577ZM82.7649 88.317C80.7194 84.8132 79.5107 80.8778 79.2424 76.7596H88.9861C89.1012 80.1966 89.5338 83.525 90.2585 86.6252C87.51 87.0707 84.9798 87.6388 82.7649 88.317ZM86.9394 93.7248C86.1917 92.977 85.4954 92.1919 84.8498 91.3746C86.7627 90.8442 88.9011 90.395 91.203 90.0348C91.8511 92.039 92.632 93.9143 93.5384 95.6202C94.3786 97.2014 95.3024 98.5908 96.2934 99.7809C92.8235 98.4704 89.6408 96.426 86.9394 93.7248ZM103.904 101.029C101.232 100.28 98.7032 97.8397 96.6463 93.9688C95.9269 92.615 95.295 91.1381 94.7537 89.564C97.6518 89.245 100.736 89.0565 103.904 89.0122V101.029ZM103.904 85.4927C100.39 85.5406 96.9649 85.7613 93.7571 86.1381C93.0496 83.2129 92.6238 80.0469 92.507 76.7597H103.905V85.4927H103.904ZM103.904 73.2404H92.5003C92.6071 69.8614 93.0396 66.607 93.7692 63.6074C96.9565 64.0059 100.375 64.2482 103.904 64.3176V73.2404ZM103.904 60.7978C100.723 60.7337 97.6463 60.5263 94.7687 60.1879C95.3067 58.6302 95.9337 57.1682 96.6463 55.8267C98.7031 51.9558 101.232 49.515 103.904 48.7663V60.7978ZM128.483 61.5446C130.577 65.0828 131.814 69.0679 132.086 73.2404H122.349C122.245 69.743 121.812 66.3557 121.078 63.2036C123.788 62.7658 126.287 62.2088 128.483 61.5446ZM124.389 56.2753C125.095 56.9819 125.755 57.7225 126.371 58.4914C124.487 59.0057 122.39 59.4422 120.136 59.7935C119.486 57.777 118.701 55.8906 117.79 54.1754C117.019 52.7244 116.178 51.4343 115.279 50.3119C118.654 51.6252 121.751 53.6373 124.389 56.2753ZM107.424 76.7597H118.821C118.704 80.0724 118.272 83.2625 117.555 86.2065C114.368 85.8103 110.951 85.5702 107.424 85.5027V76.7597ZM107.424 73.2404V64.3293C110.94 64.2831 114.368 64.0643 117.579 63.689C118.297 66.6659 118.722 69.892 118.828 73.2404H107.424ZM107.424 48.7663H107.424C110.097 49.515 112.625 51.9558 114.682 55.8267C115.406 57.1893 116.041 58.6765 116.585 60.2621C113.683 60.5799 110.596 60.767 107.424 60.8098V48.7663ZM107.424 101.029V89.0224C110.602 89.0847 113.677 89.2903 116.553 89.6266C116.016 91.1772 115.392 92.6329 114.682 93.9688C112.625 97.8397 110.097 100.28 107.424 101.029ZM124.389 93.7248C121.687 96.4261 118.505 98.4704 115.035 99.7808C116.026 98.5907 116.95 97.2014 117.79 95.6202C118.683 93.9396 119.454 92.0942 120.096 90.1234C122.377 90.4999 124.487 90.9655 126.367 91.5131C125.753 92.2802 125.094 93.0194 124.389 93.7248ZM128.47 88.4777C126.286 87.7756 123.782 87.1849 121.049 86.7187C121.786 83.5921 122.226 80.2312 122.342 76.7597H132.086C131.813 80.9408 130.572 84.9339 128.47 88.4777Z" fill="#0EB95E"/>
</g>
</g>
<defs>
<filter id="filter0_dd_1182_59561" x="0.664062" y="0" width="210" height="210" filterUnits="userSpaceOnUse" color-interpolation-filters="sRGB">
<feFlood flood-opacity="0" result="BackgroundImageFix"/>
<feColorMatrix in="SourceAlpha" type="matrix" values="0 0 0 0 0 0 0 0 0 0 0 0 0 0 0 0 0 0 127 0" result="hardAlpha"/>
<feOffset dy="4"/>
<feGaussianBlur stdDeviation="3.193"/>
<feColorMatrix type="matrix" values="0 0 0 0 0.0627451 0 0 0 0 0.478431 0 0 0 0 0.0352941 0 0 0 0.04 0"/>
<feBlend mode="normal" in2="BackgroundImageFix" result="effect1_dropShadow_1182_59561"/>
<feColorMatrix in="SourceAlpha" type="matrix" values="0 0 0 0 0 0 0 0 0 0 0 0 0 0 0 0 0 0 127 0" result="hardAlpha"/>
<feOffset dy="30"/>
<feGaussianBlur stdDeviation="25.5"/>
<feColorMatrix type="matrix" values="0 0 0 0 0.0627451 0 0 0 0 0.478431 0 0 0 0 0.0352941 0 0 0 0.08 0"/>
<feBlend mode="normal" in2="effect1_dropShadow_1182_59561" result="effect2_dropShadow_1182_59561"/>
<feBlend mode="normal" in="SourceGraphic" in2="effect2_dropShadow_1182_59561" result="shape"/>
</filter>
<clipPath id="clip0_1182_59561">
<rect width="60" height="60" fill="white" transform="translate(75.6641 45)"/>
</clipPath>
</defs>
</svg>
