<svg width="174" height="64" viewBox="0 0 174 64" fill="none" xmlns="http://www.w3.org/2000/svg">
<path d="M118.314 17.2972C118.314 17.2972 125.328 10.1977 137.774 5.86866C150.193 1.54912 168.044 0 168.044 0C168.044 0 151.104 2.88092 138.391 8.95752C126.582 14.6025 118.932 23.4748 118.932 23.4748C118.932 23.4748 111.328 17.2447 99.4729 13.5908C88.8477 10.3158 73.8359 9.57526 73.8359 9.57526C73.8359 9.57526 86.5083 8.11602 96.693 9.88421C108.611 11.9533 118.314 17.2972 118.314 17.2972H118.314Z" fill="#9CA3AF"/>
<path d="M119.856 30.2703C119.856 30.2703 130.984 25.2613 143.022 23.475C154.921 21.7094 167.732 23.1661 167.732 23.1661C167.732 23.1661 152.479 23.5094 140.242 26.255C128.393 28.9134 120.165 34.2858 120.165 34.2858C120.165 34.2858 111.046 29.1164 100.705 27.4905C86.9768 25.3319 76.9219 26.255 76.9219 26.255C76.9219 26.255 86.0899 23.7647 98.5432 24.7105C110.48 25.6171 119.856 30.2703 119.856 30.2703V30.2703Z" fill="#9CA3AF"/>
<path d="M4.99502 55.3701H0.820312V29.7255H15.309V33.2687H4.99502V41.2673H14.6424V44.793H4.99502V55.3701Z" fill="#9CA3AF"/>
<path d="M36.1215 35.9525V55.3701H32.8764L32.3151 52.7565H32.0871C31.6778 53.4231 31.1574 53.9785 30.526 54.4229C29.8945 54.8556 29.1929 55.1772 28.4211 55.3877C27.6493 55.6098 26.8366 55.7209 25.9829 55.7209C24.5212 55.7209 23.2699 55.4754 22.2292 54.9842C21.2001 54.4814 20.4108 53.7096 19.8612 52.6688C19.3116 51.6281 19.0368 50.2833 19.0368 48.6345V35.9525H23.1764V47.8627C23.1764 49.3712 23.4804 50.4996 24.0885 51.248C24.7083 51.9964 25.6672 52.3706 26.9652 52.3706C28.2164 52.3706 29.2104 52.1134 29.9471 51.5988C30.6838 51.0843 31.2042 50.3242 31.5083 49.3185C31.824 48.3129 31.9819 47.0792 31.9819 45.6174V35.9525H36.1215Z" fill="#9CA3AF"/>
<path d="M51.7945 35.5841C53.9813 35.5841 55.6827 36.1513 56.8989 37.2856C58.1267 38.4082 58.7407 40.2149 58.7407 42.7057V55.3701H54.6186V43.4775C54.6186 41.969 54.3087 40.8405 53.6889 40.0921C53.0691 39.332 52.1103 38.9519 50.8122 38.9519C48.9295 38.9519 47.6198 39.5308 46.8831 40.6885C46.1581 41.8462 45.7956 43.5242 45.7956 45.7227V55.3701H41.6735V35.9525H44.8835L45.4623 38.5836H45.6903C46.1113 37.9053 46.6317 37.3499 47.2515 36.9172C47.8829 36.4728 48.5846 36.1396 49.3564 35.9174C50.1398 35.6952 50.9526 35.5841 51.7945 35.5841Z" fill="#9CA3AF"/>
<path d="M70.6775 55.7209C68.3621 55.7209 66.5028 54.879 65.0995 53.1951C63.708 51.4994 63.0122 49.0028 63.0122 45.7051C63.0122 42.3724 63.7197 39.8524 65.1346 38.1451C66.5613 36.4378 68.4381 35.5841 70.7652 35.5841C71.7475 35.5841 72.607 35.7186 73.3437 35.9876C74.0804 36.2448 74.7119 36.5956 75.2381 37.04C75.776 37.4844 76.2321 37.9814 76.6063 38.531H76.7992C76.7408 38.1685 76.6706 37.6481 76.5888 36.9698C76.5186 36.2799 76.4835 35.6426 76.4835 35.0579V28.0767H80.6231V55.3701H77.3956L76.6589 52.7215H76.4835C76.1327 53.2828 75.6883 53.7914 75.1504 54.2475C74.6242 54.6919 73.9927 55.0485 73.256 55.3175C72.531 55.5864 71.6715 55.7209 70.6775 55.7209ZM71.8352 52.3706C73.601 52.3706 74.8464 51.862 75.5714 50.8446C76.2964 49.8272 76.6706 48.3012 76.694 46.2664V45.7227C76.694 43.5476 76.3432 41.8813 75.6416 40.7236C74.9399 39.5542 73.6594 38.9695 71.8001 38.9695C70.315 38.9695 69.1807 39.5717 68.3972 40.7762C67.6254 41.969 67.2395 43.6353 67.2395 45.7753C67.2395 47.9153 67.6254 49.5524 68.3972 50.6867C69.1807 51.8093 70.3267 52.3706 71.8352 52.3706Z" fill="#9CA3AF"/>
<path d="M91.718 64.0002C89.0869 64.0002 87.0697 63.5266 85.6665 62.5794C84.2632 61.6322 83.5616 60.3049 83.5616 58.5976C83.5616 57.4048 83.9358 56.3933 84.6842 55.5631C85.4326 54.7445 86.5026 54.1773 87.8941 53.8616C87.3679 53.6277 86.9119 53.2652 86.526 52.7741C86.1518 52.2712 85.9647 51.7158 85.9647 51.1077C85.9647 50.3827 86.1693 49.7629 86.5786 49.2484C86.9879 48.7339 87.6018 48.2369 88.4204 47.7574C87.403 47.3247 86.5844 46.6231 85.9647 45.6525C85.3566 44.6702 85.0525 43.5184 85.0525 42.197C85.0525 40.7937 85.3507 39.601 85.9471 38.6187C86.5435 37.6247 87.4147 36.8704 88.5607 36.3559C89.7067 35.8297 91.0924 35.5666 92.7179 35.5666C93.0687 35.5666 93.4487 35.59 93.858 35.6367C94.279 35.6718 94.6649 35.7186 95.0157 35.7771C95.3782 35.8238 95.653 35.8765 95.8401 35.9349H102.558V38.2328L99.2606 38.8467C99.5763 39.2911 99.8277 39.7997 100.015 40.3727C100.202 40.9341 100.295 41.548 100.295 42.2145C100.295 44.2259 99.5997 45.8104 98.2081 46.9681C96.8282 48.1141 94.9222 48.6871 92.4898 48.6871C91.9051 48.6637 91.338 48.6169 90.7884 48.5467C90.3674 48.804 90.0458 49.0905 89.8236 49.4062C89.6014 49.7103 89.4904 50.0553 89.4904 50.4412C89.4904 50.7569 89.6014 51.0142 89.8236 51.2129C90.0458 51.4 90.3732 51.5404 90.8059 51.6339C91.2503 51.7275 91.7882 51.7743 92.4197 51.7743H95.77C97.8982 51.7743 99.5237 52.2245 100.646 53.1249C101.769 54.0253 102.33 55.3467 102.33 57.0891C102.33 59.2992 101.418 61.0007 99.5938 62.1935C97.7696 63.3979 95.1443 64.0002 91.718 64.0002ZM91.8759 61.1059C93.3142 61.1059 94.5246 60.9656 95.5068 60.685C96.4891 60.4043 97.2317 60.0009 97.7345 59.4747C98.2374 58.9601 98.4888 58.3462 98.4888 57.6329C98.4888 57.0014 98.3309 56.5161 98.0152 56.177C97.6994 55.8379 97.2258 55.604 96.5944 55.4754C95.9629 55.3467 95.1794 55.2824 94.2439 55.2824H91.1918C90.4317 55.2824 89.7593 55.3993 89.1746 55.6332C88.5899 55.8788 88.1339 56.2296 87.8064 56.6857C87.4907 57.1417 87.3328 57.6913 87.3328 58.3345C87.3328 59.2232 87.7246 59.9073 88.5081 60.3868C89.3033 60.8662 90.4259 61.1059 91.8759 61.1059ZM92.6828 45.9858C93.8872 45.9858 94.7818 45.6584 95.3665 45.0035C95.9512 44.337 96.2436 43.4015 96.2436 42.197C96.2436 40.8873 95.9395 39.905 95.3314 39.2501C94.7351 38.5953 93.8463 38.2679 92.6652 38.2679C91.5075 38.2679 90.6247 38.6011 90.0166 39.2677C89.4202 39.9342 89.122 40.9224 89.122 42.2321C89.122 43.4131 89.4202 44.337 90.0166 45.0035C90.6247 45.6584 91.5134 45.9858 92.6828 45.9858Z" fill="#9CA3AF"/>
<path d="M113.355 35.5841C115.811 35.5841 117.664 36.1279 118.915 37.2154C120.178 38.3029 120.81 39.9985 120.81 42.3022V55.3701H117.88L117.091 52.6162H116.951C116.401 53.3178 115.834 53.8967 115.249 54.3527C114.665 54.8088 113.986 55.1479 113.215 55.3701C112.455 55.604 111.525 55.7209 110.426 55.7209C109.268 55.7209 108.233 55.5104 107.321 55.0895C106.409 54.6568 105.69 54.0019 105.163 53.1249C104.637 52.2479 104.374 51.1369 104.374 49.7921C104.374 47.7925 105.117 46.2898 106.602 45.2842C108.099 44.2785 110.355 43.723 113.372 43.6178L116.74 43.495V42.4776C116.74 41.1328 116.425 40.174 115.793 39.601C115.173 39.028 114.296 38.7415 113.162 38.7415C112.191 38.7415 111.25 38.8818 110.338 39.1624C109.426 39.4431 108.537 39.7881 107.672 40.1973L106.339 37.2856C107.286 36.7827 108.362 36.3734 109.566 36.0577C110.782 35.742 112.045 35.5841 113.355 35.5841ZM116.723 46.091L114.214 46.1787C112.156 46.2489 110.712 46.5997 109.882 47.2312C109.052 47.8627 108.636 48.728 108.636 49.8272C108.636 50.7861 108.923 51.4878 109.496 51.9321C110.069 52.3648 110.823 52.5811 111.759 52.5811C113.185 52.5811 114.366 52.1777 115.302 51.3708C116.249 50.5522 116.723 49.3536 116.723 47.775V46.091Z" fill="#9CA3AF"/>
<path d="M133.448 52.3882C133.986 52.3882 134.518 52.3414 135.044 52.2479C135.571 52.1426 136.05 52.0198 136.483 51.8795V55.0018C136.027 55.2006 135.436 55.3701 134.711 55.5104C133.986 55.6508 133.232 55.7209 132.448 55.7209C131.349 55.7209 130.361 55.5397 129.484 55.1772C128.607 54.803 127.911 54.1656 127.397 53.2652C126.882 52.3648 126.625 51.1194 126.625 49.529V39.0923H123.976V37.2505L126.818 35.7946L128.168 31.6374H130.765V35.9525H136.325V39.0923H130.765V49.4764C130.765 50.4587 131.01 51.1896 131.501 51.669C131.992 52.1485 132.641 52.3882 133.448 52.3882Z" fill="#9CA3AF"/>
<path d="M147.806 35.5841C149.536 35.5841 151.022 35.9408 152.261 36.6541C153.501 37.3674 154.454 38.3789 155.12 39.6887C155.787 40.9984 156.12 42.5653 156.12 44.3896V46.5997H143.157C143.204 48.4824 143.707 49.9325 144.666 50.9498C145.637 51.9672 146.993 52.4759 148.735 52.4759C149.975 52.4759 151.086 52.3589 152.068 52.1251C153.062 51.8795 154.085 51.5228 155.138 51.0551V54.4054C154.167 54.8614 153.179 55.1947 152.173 55.4052C151.168 55.6157 149.963 55.7209 148.56 55.7209C146.654 55.7209 144.976 55.3526 143.526 54.6159C142.087 53.8675 140.959 52.7565 140.14 51.2831C139.334 49.8097 138.93 47.9796 138.93 45.7928C138.93 43.6178 139.298 41.7702 140.035 40.25C140.772 38.7298 141.807 37.5721 143.14 36.7769C144.473 35.9817 146.028 35.5841 147.806 35.5841ZM147.806 38.6888C146.508 38.6888 145.455 39.1098 144.648 39.9518C143.853 40.7937 143.385 42.0274 143.245 43.6529H152.086C152.074 42.6823 151.91 41.8228 151.595 41.0744C151.29 40.326 150.823 39.7413 150.191 39.3203C149.572 38.8993 148.776 38.6888 147.806 38.6888Z" fill="#9CA3AF"/>
<path d="M173.459 49.8272C173.459 51.1019 173.15 52.1777 172.53 53.0547C171.91 53.9318 171.004 54.5983 169.811 55.0544C168.63 55.4987 167.18 55.7209 165.461 55.7209C164.104 55.7209 162.935 55.6215 161.953 55.4227C160.982 55.2356 160.064 54.9433 159.199 54.5457V50.9849C160.123 51.4176 161.158 51.7918 162.304 52.1075C163.461 52.4233 164.555 52.5811 165.584 52.5811C166.94 52.5811 167.917 52.3706 168.513 51.9497C169.109 51.517 169.408 50.944 169.408 50.2307C169.408 49.8097 169.285 49.4355 169.039 49.1081C168.805 48.7689 168.361 48.424 167.706 48.0731C167.063 47.7106 166.116 47.278 164.864 46.7751C163.637 46.284 162.602 45.7928 161.76 45.3017C160.918 44.8106 160.281 44.22 159.848 43.5301C159.415 42.8285 159.199 41.9339 159.199 40.8463C159.199 39.1274 159.877 37.8235 161.234 36.9348C162.602 36.0343 164.408 35.5841 166.654 35.5841C167.846 35.5841 168.969 35.7069 170.021 35.9525C171.086 36.1863 172.126 36.5313 173.144 36.9874L171.846 40.0921C170.969 39.7062 170.086 39.3905 169.197 39.1449C168.32 38.8876 167.425 38.759 166.513 38.759C165.449 38.759 164.636 38.9227 164.075 39.2501C163.526 39.5776 163.251 40.0453 163.251 40.6534C163.251 41.1095 163.385 41.4954 163.654 41.8111C163.923 42.1268 164.385 42.4426 165.04 42.7583C165.706 43.074 166.63 43.4658 167.811 43.9335C168.969 44.3779 169.969 44.8456 170.811 45.3368C171.664 45.8162 172.319 46.4068 172.775 47.1084C173.231 47.81 173.459 48.7163 173.459 49.8272Z" fill="#9CA3AF"/>
</svg>
