<svg width="218" height="50" viewBox="0 0 218 50" fill="none" xmlns="http://www.w3.org/2000/svg">
<g clip-path="url(#clip0_1513_67284)">
<path fill-rule="evenodd" clip-rule="evenodd" d="M21.6951 19.0433V12.89L0.320312 22.9296V29.8926L21.6945 39.9321V33.7788L5.22697 26.3841L21.6951 19.0433ZM27.4058 49.9717L43.0481 0.0976562H36.7329L21.1391 49.9717H27.4058V49.9717ZM41.1859 33.401V39.5543L62.5119 29.5147V22.5518L41.1859 12.5122V18.6655L57.654 26.0602L41.1859 33.401Z" fill="url(#paint0_linear_1513_67284)"/>
<path fill-rule="evenodd" clip-rule="evenodd" d="M52.9369 31.538C52.3242 29.4524 51.2101 27.833 49.5945 26.6798C47.979 25.5266 46.0757 24.95 43.8846 24.9501C42.1069 24.9258 40.3578 25.3987 38.8345 26.3156C37.3113 27.2325 36.0746 28.5568 35.264 30.1391C34.4006 31.7741 33.9688 33.624 33.9688 35.6888C33.9687 37.7536 34.4004 39.5986 35.264 41.2238C36.0788 42.7967 37.3127 44.1138 38.8292 45.0293C40.3425 45.9421 42.0369 46.3984 43.9125 46.398C45.5837 46.398 47.0924 46.022 48.4386 45.27C49.7572 44.5432 50.8876 43.5183 51.7397 42.277C52.583 41.0596 53.1531 39.6743 53.4109 38.216V34.5461H42.8824V37.7648H49.5673C49.27 39.289 48.648 40.4772 47.7011 41.3294C46.7542 42.1816 45.538 42.6078 44.0523 42.6078C42.8449 42.6078 41.7865 42.3271 40.877 41.7655C39.9499 41.1852 39.21 40.3496 38.7462 39.3591C38.2352 38.3166 37.9799 37.0933 37.9803 35.6891C37.9803 34.3256 38.2309 33.1224 38.7323 32.0794C39.2336 31.0364 39.9298 30.2341 40.8208 29.6724C41.7399 29.1032 42.8036 28.8108 43.8846 28.8302C44.9244 28.8302 45.8342 29.0609 46.6142 29.5221C47.4099 30.0009 48.0487 30.7015 48.4521 31.538H52.9365H52.9369ZM67.9407 46.2177H72.0633L65.0718 25.1904H60.5316L53.5405 46.2177H57.6349L58.9162 42.2168H66.6594L67.9407 46.2177ZM59.9743 38.8479L62.7878 30.0635L65.601 38.8479H59.9743ZM90.598 25.221L84.4141 40.8331L78.231 25.2208H73.8018V46.2177H77.7016V32.5607L82.9381 46.2182H85.8905L91.0992 32.5612V46.2187H94.9986V25.2208H90.598V25.221ZM109.888 28.6203V25.1904H98.6073V46.2177H109.888V42.7884H102.507V37.2233H109.053V33.8843H102.507V28.62H109.888L109.888 28.6203ZM124.038 35.4491C125.004 35.1347 125.847 34.5245 126.447 33.7049C127.051 32.8828 127.352 31.8601 127.352 30.6366C127.368 29.654 127.112 28.686 126.614 27.839C126.121 27.0169 125.397 26.3751 124.442 25.9137C123.486 25.4524 122.349 25.2217 121.029 25.2219H113.007V46.2187H121.392C122.71 46.2187 123.852 45.9781 124.818 45.4967C125.735 45.0595 126.504 44.3643 127.032 43.4963C127.542 42.6442 127.798 41.6566 127.798 40.5333C127.815 39.3446 127.444 38.1828 126.74 37.2246C126.034 36.2621 125.133 35.6705 124.038 35.4499V35.4491ZM116.907 28.6203H120.472C121.4 28.6203 122.115 28.8509 122.617 29.3122C123.119 29.7734 123.369 30.4253 123.369 31.2678C123.369 32.11 123.118 32.7568 122.617 33.2079C122.116 33.6591 121.401 33.8846 120.472 33.8845H116.907V28.6202V28.6203ZM120.835 42.7886H116.907V37.1332H120.751C121.697 37.1332 122.449 37.3889 123.007 37.9002C123.565 38.4116 123.843 39.1185 123.842 40.0209C123.842 40.9037 123.578 41.5855 123.048 42.0665C122.519 42.5475 121.781 42.7881 120.835 42.7885V42.7886ZM130.419 25.221V38.1862C130.419 39.9712 130.763 41.4803 131.45 42.7133C132.087 43.8977 133.061 44.8663 134.249 45.4959C135.466 46.1268 136.82 46.4472 138.19 46.4284C139.578 46.4471 140.95 46.127 142.187 45.4959C143.393 44.8665 144.39 43.8996 145.056 42.7133C145.77 41.4801 146.128 39.971 146.129 38.1862V25.2208H142.201V38.216C142.201 39.6401 141.857 40.7281 141.171 41.4798C140.483 42.2318 139.508 42.6078 138.246 42.6078C137.002 42.6078 136.036 42.2318 135.349 41.4798C134.661 40.7278 134.318 39.6399 134.319 38.216V25.2208H130.419V25.221ZM149.663 25.221V46.2179H153.562V25.2208H149.663V25.221ZM161.045 25.221H157.146V46.2179H167.452V42.8785H161.045V25.2208V25.221ZM175.913 25.221H169.117V46.2179H175.913C177.955 46.2179 179.752 45.7867 181.303 44.9243C182.832 44.0833 184.081 42.8126 184.896 41.2695C185.741 39.6953 186.163 37.8553 186.163 35.7495C186.162 33.6436 185.74 31.7937 184.896 30.1998C184.088 28.6441 182.838 27.362 181.303 26.5149C179.752 25.6528 177.956 25.2216 175.913 25.2214V25.221ZM175.774 42.6382H173.017V28.7704H175.774C177.816 28.7704 179.394 29.387 180.509 30.6203C181.624 31.8536 182.181 33.5632 182.181 35.7492C182.181 37.9353 181.623 39.6299 180.509 40.833C179.395 42.0361 177.817 42.6377 175.774 42.6378V42.6382ZM200.022 28.6203V25.1904H188.741V46.2177H200.022V42.7884H192.64V37.2233H199.186V33.8843H192.64V28.62H200.022L200.022 28.6203ZM217.68 46.2177L213.029 37.7046C214.495 37.2836 215.6 36.5165 216.343 35.4034C217.084 34.2962 217.473 32.9905 217.457 31.6583C217.474 30.5206 217.2 29.3975 216.664 28.3944C216.135 27.4219 215.341 26.6498 214.283 26.0781C213.224 25.5065 211.943 25.2207 210.438 25.2208H203.141V46.2177H207.041V38.0358H208.879L213.169 46.2177H217.68V46.2177ZM207.041 28.7105H210.3C211.358 28.7105 212.147 28.9762 212.667 29.5076C213.186 30.039 213.446 30.7861 213.447 31.7486C213.447 32.7314 213.187 33.4985 212.667 34.0498C212.147 34.6011 211.358 34.8769 210.3 34.8771H207.041V28.7105Z" fill="#E059DC"/>
</g>
<defs>
<linearGradient id="paint0_linear_1513_67284" x1="130.69" y1="-24.0912" x2="-16.9381" y2="-14.0907" gradientUnits="userSpaceOnUse">
<stop stop-color="#05D5FF"/>
<stop offset="1" stop-color="#5533FF"/>
</linearGradient>
<clipPath id="clip0_1513_67284">
<rect width="217.442" height="50" fill="white" transform="translate(0.257812)"/>
</clipPath>
</defs>
</svg>
