<svg width="70" height="80" viewBox="0 0 70 80" fill="none" xmlns="http://www.w3.org/2000/svg">
<path d="M32.0288 1.79357C33.8705 0.74379 36.1295 0.743788 37.9712 1.79357L66.9712 18.3236C68.8438 19.391 70 21.3808 70 23.5362V56.4637C70 58.6192 68.8438 60.609 66.9712 61.6764L37.9712 78.2064C36.1295 79.2562 33.8705 79.2562 32.0288 78.2064L3.02878 61.6764C1.15617 60.609 0 58.6192 0 56.4637V23.5362C0 21.3808 1.15617 19.391 3.02878 18.3236L32.0288 1.79357Z" fill="#0EB95E"/>
<g clip-path="url(#clip0_1225_59471)">
<path d="M31.2036 49.4427H23.5258C23.106 49.4427 22.7656 49.7831 22.7656 50.2029C22.7656 50.6228 23.106 50.9631 23.5258 50.9631H31.2036C31.6235 50.9631 31.9638 50.6228 31.9638 50.2029C31.9638 49.7831 31.6235 49.4427 31.2036 49.4427Z" fill="white"/>
<path d="M42.6802 49.4427H35.0024C34.5825 49.4427 34.2422 49.7831 34.2422 50.2029C34.2422 50.6228 34.5825 50.9631 35.0024 50.9631H42.6802C43.1 50.9631 43.4404 50.6228 43.4404 50.2029C43.4404 49.7831 43.1 49.4427 42.6802 49.4427Z" fill="white"/>
<path d="M42.6824 30.4382H23.5258C23.106 30.4382 22.7656 30.7786 22.7656 31.1984C22.7656 31.6183 23.106 31.9586 23.5258 31.9586H42.6824C43.1021 31.9586 43.4425 31.6183 43.4425 31.1984C43.4425 30.7786 43.1021 30.4382 42.6824 30.4382Z" fill="white"/>
<path d="M42.6802 34.2391H35.0024C34.5825 34.2391 34.2422 34.5795 34.2422 34.9993C34.2422 35.4192 34.5825 35.7595 35.0024 35.7595H42.6802C43.1 35.7595 43.4404 35.4192 43.4404 34.9993C43.4404 34.5795 43.1 34.2391 42.6802 34.2391Z" fill="white"/>
<path d="M42.6802 38.04H35.0024C34.5825 38.04 34.2422 38.3804 34.2422 38.8002C34.2422 39.2201 34.5825 39.5604 35.0024 39.5604H42.6802C43.1 39.5604 43.4404 39.2201 43.4404 38.8002C43.4404 38.3804 43.1 38.04 42.6802 38.04Z" fill="white"/>
<path d="M42.6802 41.8409H35.0024C34.5825 41.8409 34.2422 42.1813 34.2422 42.6011C34.2422 43.021 34.5825 43.3613 35.0024 43.3613H42.6802C43.1 43.3613 43.4404 43.021 43.4404 42.6011C43.4404 42.1813 43.1 41.8409 42.6802 41.8409Z" fill="white"/>
<path d="M42.6802 45.6418H35.0024C34.5825 45.6418 34.2422 45.9822 34.2422 46.402C34.2422 46.8219 34.5825 47.1622 35.0024 47.1622H42.6802C43.1 47.1622 43.4404 46.8219 43.4404 46.402C43.4404 45.9822 43.1 45.6418 42.6802 45.6418Z" fill="white"/>
<path d="M31.2036 45.6418H23.5258C23.106 45.6418 22.7656 45.9822 22.7656 46.402C22.7656 46.8219 23.106 47.1622 23.5258 47.1622H31.2036C31.6235 47.1622 31.9638 46.8219 31.9638 46.402C31.9638 45.9822 31.6235 45.6418 31.2036 45.6418Z" fill="white"/>
<path d="M31.2036 34.2391H23.5258C23.106 34.2391 22.7656 34.5795 22.7656 34.9993V42.6771C22.7656 43.097 23.106 43.4373 23.5258 43.4373H31.2036C31.6235 43.4373 31.9638 43.097 31.9638 42.6771V34.9993C31.9638 34.5795 31.6235 34.2391 31.2036 34.2391ZM30.4435 41.917H24.286V35.7595H30.4435V41.917Z" fill="white"/>
<path d="M50.2828 29.6781H48.0022V27.3976C48.0022 26.5592 47.3202 25.8772 46.4819 25.8772H19.7235C18.8852 25.8772 18.2031 26.5592 18.2031 27.3976V51.7234C18.2031 53.8192 19.9082 55.5243 22.004 55.5243H48.0022C50.098 55.5243 51.8031 53.8192 51.8031 51.7234V31.1985C51.8031 30.3601 51.1211 29.6781 50.2828 29.6781ZM50.2828 51.7234C50.2828 52.9808 49.2597 54.0039 48.0022 54.0039H22.004C20.7465 54.0039 19.7235 52.9808 19.7235 51.7234V27.3976H46.4819V50.5831C46.4819 51.631 47.3344 52.4835 48.3823 52.4835C48.8021 52.4835 49.1425 52.1432 49.1425 51.7234C49.1425 51.3035 48.8021 50.9632 48.3823 50.9632C48.1727 50.9632 48.0022 50.7927 48.0022 50.5831V31.1985H50.2828V51.7234Z" fill="white"/>
</g>
<defs>
<clipPath id="clip0_1225_59471">
<rect width="33.6" height="33.6" fill="white" transform="translate(18.2031 23.9008)"/>
</clipPath>
</defs>
</svg>
