<svg width="70" height="80" viewBox="0 0 70 80" fill="none" xmlns="http://www.w3.org/2000/svg">
<path d="M32.0288 1.79357C33.8705 0.74379 36.1295 0.743788 37.9712 1.79357L66.9712 18.3236C68.8438 19.391 70 21.3808 70 23.5362V56.4637C70 58.6192 68.8438 60.609 66.9712 61.6764L37.9712 78.2064C36.1295 79.2562 33.8705 79.2562 32.0288 78.2064L3.02878 61.6764C1.15617 60.609 0 58.6192 0 56.4637V23.5362C0 21.3808 1.15617 19.391 3.02878 18.3236L32.0288 1.79357Z" fill="#0EB95E"/>
<g clip-path="url(#clip0_1225_59531)">
<path d="M40.3367 42.2343L43.3954 42.8413C43.5028 44.5601 44.9833 45.8662 46.7021 45.7588C48.4209 45.6513 49.7271 44.1708 49.6196 42.452C49.5121 40.7332 48.0317 39.4271 46.3129 39.5346C45.1986 39.6043 44.2066 40.2643 43.712 41.2653L40.5468 40.6371C40.5125 39.4382 40.0485 38.2915 39.2396 37.4059L43.5064 31.3786C45.4822 32.2355 47.7785 31.3284 48.6353 29.3527C49.4921 27.377 48.5851 25.0806 46.6094 24.2238C44.6338 23.367 42.3374 24.274 41.4805 26.2496C40.8657 27.6673 41.1459 29.3141 42.195 30.4486L37.9789 36.4046C35.9617 35.2725 33.4318 35.6686 31.8572 37.3628L26.3322 33.0722C27.0617 31.5082 26.3852 29.6491 24.8213 28.9196C23.2573 28.19 21.3982 28.8666 20.6686 30.4305C19.9391 31.9945 20.6157 33.8536 22.1796 34.5831C23.1942 35.0564 24.3845 34.9506 25.2999 34.3059L30.96 38.7015C30.0507 40.6873 30.5322 43.0334 32.1502 44.5005L28.7597 49.2955C26.7581 48.1796 24.2309 48.8975 23.115 50.8991C21.9991 52.9007 22.7171 55.4279 24.7186 56.5438C26.7202 57.6597 29.2474 56.9417 30.3633 54.9402C31.1815 53.4726 31.0339 51.6566 29.9895 50.3404L33.4979 45.3783C34.7204 45.9206 36.109 45.9511 37.3541 45.4631L41.5482 51.6588C40.2656 53.1195 40.4102 55.3434 41.8709 56.6259C43.3316 57.9085 45.5555 57.764 46.838 56.3033C48.1206 54.8425 47.9761 52.6186 46.5154 51.3361C45.511 50.4542 44.0938 50.2173 42.8572 50.7247L38.7403 44.6431C39.4963 44.0133 40.0513 43.1759 40.3367 42.2343ZM46.506 41.136C47.3398 41.136 48.0158 41.812 48.0158 42.6458C48.0158 43.4797 47.3398 44.1556 46.506 44.1556C45.6722 44.1556 44.9962 43.4797 44.9962 42.6458C44.9969 41.8122 45.6725 41.1367 46.506 41.136ZM45.0474 25.5274C46.3072 25.5275 47.3286 26.5488 47.3285 27.8087C47.3284 29.0685 46.3071 30.0899 45.0472 30.0898C43.7874 30.0897 42.7661 29.0684 42.7661 27.8086C42.7676 26.5492 43.7881 25.5287 45.0474 25.5274ZM23.5061 33.268C22.6726 33.267 21.9972 32.5916 21.9962 31.7582C21.9962 30.9243 22.6722 30.2484 23.5061 30.2484C24.3399 30.2484 25.0159 30.9243 25.0159 31.7582C25.0159 32.592 24.34 33.268 23.5061 33.268ZM26.7496 55.4408C25.352 55.4408 24.2191 54.3078 24.2192 52.9102C24.2193 51.5126 25.3522 50.3797 26.7498 50.3798C28.1473 50.3799 29.2802 51.5128 29.2802 52.9103C29.2787 54.3073 28.1466 55.4393 26.7496 55.4408ZM44.1925 52.0691C45.2514 52.0703 46.1094 52.9283 46.1106 53.9872C46.1106 55.0466 45.2519 55.9053 44.1925 55.9053C43.1331 55.9053 42.2744 55.0466 42.2744 53.9872C42.2744 52.9278 43.1332 52.0691 44.1925 52.0691ZM35.5276 44.201C33.6423 44.1989 32.1145 42.6711 32.1124 40.7858C32.1124 38.8997 33.6415 37.3706 35.5276 37.3706C37.4137 37.3706 38.9428 38.8997 38.9428 40.7858C38.9428 42.672 37.4137 44.201 35.5276 44.201Z" fill="white"/>
</g>
<defs>
<clipPath id="clip0_1225_59531">
<rect width="33.6" height="33.6" fill="white" transform="translate(18.2031 23.9008)"/>
</clipPath>
</defs>
</svg>
