<svg width="70" height="80" viewBox="0 0 70 80" fill="none" xmlns="http://www.w3.org/2000/svg">
<path d="M32.0288 1.79357C33.8705 0.74379 36.1295 0.743788 37.9712 1.79357L66.9712 18.3236C68.8438 19.391 70 21.3808 70 23.5362V56.4637C70 58.6192 68.8438 60.609 66.9712 61.6764L37.9712 78.2064C36.1295 79.2562 33.8705 79.2562 32.0288 78.2064L3.02878 61.6764C1.15617 60.609 0 58.6192 0 56.4637V23.5362C0 21.3808 1.15617 19.391 3.02878 18.3236L32.0288 1.79357Z" fill="#0EB95E"/>
<g clip-path="url(#clip0_1225_59521)">
<path d="M51.009 37.7661L47.2473 37.0252C46.9992 36.1993 46.6677 35.4018 46.2576 34.6425L48.3511 31.502C48.6113 31.1116 48.5601 30.5917 48.2281 30.2597L45.4442 27.4758C45.1124 27.1438 44.5923 27.0923 44.2019 27.3527L41.0614 29.4463C40.3021 29.0362 39.5046 28.7047 38.6786 28.4566L37.9378 24.6949C37.8468 24.2335 37.4423 23.9008 36.9719 23.9008H33.0344C32.564 23.9008 32.1595 24.2335 32.0685 24.6949L31.3276 28.4566C30.5017 28.7047 29.7042 29.0362 28.9449 29.4463L25.8043 27.3527C25.4139 27.0925 24.8938 27.1438 24.5621 27.4758L21.7781 30.2597C21.4462 30.5917 21.3949 31.1116 21.6551 31.502L23.7487 34.6425C23.3385 35.4018 23.0071 36.1993 22.7587 37.0252L18.997 37.7661C18.5359 37.8571 18.2031 38.2616 18.2031 38.732V42.6695C18.2031 43.1399 18.5359 43.5444 18.9973 43.6354L22.7589 44.3763C23.0071 45.2022 23.3385 45.9997 23.7487 46.759L21.6551 49.8995C21.3949 50.29 21.4464 50.8098 21.7781 51.1418L24.5621 53.9257C24.8938 54.2577 25.4139 54.309 25.8043 54.0488L28.9449 51.9552C29.7042 52.3653 30.5017 52.6968 31.3276 52.9449L32.0685 56.7066C32.1595 57.168 32.564 57.5008 33.0344 57.5008H36.9719C37.4423 57.5008 37.8468 57.168 37.9378 56.7066L38.6786 52.9449C39.5046 52.6968 40.3021 52.3653 41.0614 51.9552L44.2019 54.0488C44.5923 54.309 45.1122 54.2574 45.4442 53.9257L48.2281 51.1415C48.5601 50.8098 48.6113 50.29 48.3511 49.8995L46.2576 46.759C46.6677 45.9997 46.9992 45.2022 47.2473 44.3763L51.009 43.6354C51.4704 43.5444 51.8031 43.1399 51.8031 42.6695V38.732C51.8031 38.2616 51.4704 37.8571 51.009 37.7661ZM49.8344 41.8602L46.2688 42.5626C45.8938 42.6364 45.5952 42.921 45.5036 43.2922C45.2424 44.3488 44.8238 45.3568 44.2591 46.2884C44.0609 46.6152 44.0699 47.0269 44.2819 47.3448L46.2655 50.3202L44.6226 51.9631L41.6469 49.9795C41.3293 49.7675 40.9173 49.7588 40.5907 49.957C39.6589 50.5217 38.651 50.9403 37.5945 51.2013C37.2234 51.293 36.9388 51.5914 36.8647 51.9667L36.1626 55.532H33.8439L33.1415 51.9667C33.0674 51.5914 32.7829 51.293 32.4117 51.2013C31.3553 50.9403 30.3473 50.5214 29.4155 49.9567C29.0889 49.7588 28.677 49.7675 28.3591 49.9795L25.3837 51.9631L23.7407 50.3202L25.7244 47.3448C25.9364 47.0269 25.9451 46.615 25.7472 46.2884C25.1824 45.3568 24.7638 44.3486 24.5026 43.2922C24.4108 42.921 24.1125 42.6364 23.7372 42.5626L20.1719 41.8602V39.5416L23.7372 38.8392C24.1125 38.7651 24.4108 38.4805 24.5026 38.1093C24.7638 37.0529 25.1824 36.045 25.7472 35.1131C25.9451 34.7866 25.9364 34.3746 25.7244 34.0567L23.7407 31.0813L25.3837 29.4384L28.3591 31.422C28.677 31.634 29.0889 31.6427 29.4155 31.4448C30.3473 30.8801 31.3553 30.4615 32.4117 30.2002C32.7829 30.1085 33.0674 29.8101 33.1415 29.4348L33.8437 25.8695H36.1623L36.8647 29.4348C36.9388 29.8101 37.2234 30.1085 37.5945 30.2002C38.651 30.4612 39.6589 30.8801 40.5907 31.4448C40.9173 31.6427 41.3293 31.634 41.6471 31.422L44.6226 29.4384L46.2655 31.0813L44.2819 34.0567C44.0699 34.3746 44.0612 34.7866 44.2591 35.1131C44.8238 36.0447 45.2427 37.0529 45.5036 38.1093C45.5952 38.4805 45.8938 38.7651 46.2691 38.8389L49.8344 39.5413V41.8602Z" fill="white"/>
<path d="M35 31.8414C30.115 31.8414 26.1406 35.8158 26.1406 40.7008C26.1406 45.5858 30.115 49.5602 35 49.5602C39.885 49.5602 43.8594 45.5858 43.8594 40.7008C43.8594 35.8158 39.885 31.8414 35 31.8414ZM35 47.5914C31.2004 47.5914 28.1094 44.5004 28.1094 40.7008C28.1094 36.9012 31.2004 33.8102 35 33.8102C38.7996 33.8102 41.8906 36.9012 41.8906 40.7008C41.8906 44.5004 38.7996 47.5914 35 47.5914Z" fill="white"/>
<path d="M35 35.7789C32.286 35.7789 30.0781 37.9869 30.0781 40.7008C30.0781 43.4148 32.286 45.6227 35 45.6227C37.714 45.6227 39.9219 43.4148 39.9219 40.7008C39.9219 37.9869 37.714 35.7789 35 35.7789ZM35 43.6539C33.3717 43.6539 32.0469 42.3291 32.0469 40.7008C32.0469 39.0725 33.3717 37.7477 35 37.7477C36.6283 37.7477 37.9531 39.0725 37.9531 40.7008C37.9531 42.3291 36.6283 43.6539 35 43.6539Z" fill="white"/>
</g>
<defs>
<clipPath id="clip0_1225_59521">
<rect width="33.6" height="33.6" fill="white" transform="translate(18.2031 23.9008)"/>
</clipPath>
</defs>
</svg>
