<svg width="70" height="80" viewBox="0 0 70 80" fill="none" xmlns="http://www.w3.org/2000/svg">
<path d="M32.0288 1.79357C33.8705 0.74379 36.1295 0.743788 37.9712 1.79357L66.9712 18.3236C68.8438 19.391 70 21.3808 70 23.5362V56.4637C70 58.6192 68.8438 60.609 66.9712 61.6764L37.9712 78.2064C36.1295 79.2562 33.8705 79.2562 32.0288 78.2064L3.02878 61.6764C1.15617 60.609 0 58.6192 0 56.4637V23.5362C0 21.3808 1.15617 19.391 3.02878 18.3236L32.0288 1.79357Z" fill="#0EB95E"/>
<g clip-path="url(#clip0_1225_59489)">
<path d="M43.3639 28.1764L26.0515 35.1008H21.3531C19.6171 35.1008 18.2031 36.5148 18.2031 38.2508V42.1008C18.2031 43.75 19.4981 44.9008 21.3531 44.9008H22.5431L23.8143 53.7992C23.8885 54.3172 24.3309 54.7008 24.8531 54.7008H29.0531C29.3527 54.7008 29.6369 54.5734 29.8371 54.3508C30.0359 54.1282 30.1311 53.8314 30.0975 53.5332L29.2715 46.1888L43.3625 51.8252C43.4899 51.8756 43.6215 51.9008 43.7531 51.9008C43.9589 51.9008 44.1661 51.8392 44.3425 51.7202C44.6309 51.5242 44.8031 51.1994 44.8031 50.8508V29.1508C44.8031 28.8022 44.6309 28.4774 44.3425 28.2814C44.0527 28.0854 43.6859 28.0462 43.3639 28.1764ZM20.3031 42.1008V38.2508C20.3031 37.6726 20.7749 37.2008 21.3531 37.2008H25.2031V42.8008H21.3531C20.8743 42.8008 20.3031 42.679 20.3031 42.1008ZM27.8785 52.6008H25.7631L24.6641 44.9008H26.0515L27.0609 45.304L27.8785 52.6008ZM42.7031 49.301L28.4567 43.6016C28.3965 43.5736 28.3391 43.5442 28.2733 43.5274L27.3031 43.1396V36.862L42.7031 30.702V49.301Z" fill="white"/>
<path d="M47.9103 36.9712L51.4103 34.1712C51.8625 33.8086 51.9367 33.1478 51.5741 32.6942C51.2101 32.2434 50.5507 32.1706 50.0971 32.5304L46.5971 35.3304C46.1449 35.693 46.0707 36.3538 46.4333 36.8074C46.6405 37.065 46.9457 37.2008 47.2537 37.2008C47.4847 37.2008 47.7157 37.1252 47.9103 36.9712Z" fill="white"/>
<path d="M47.9103 44.4303C47.4595 44.0705 46.7987 44.1433 46.4333 44.5941C46.0707 45.0463 46.1449 45.7085 46.5971 46.0711L50.0971 48.8711C50.2917 49.0251 50.5227 49.1007 50.7537 49.1007C51.0617 49.1007 51.3669 48.9649 51.5741 48.7073C51.9367 48.2551 51.8625 47.5929 51.4103 47.2303L47.9103 44.4303Z" fill="white"/>
<path d="M50.7531 39.6508H47.2531C46.6735 39.6508 46.2031 40.1212 46.2031 40.7008C46.2031 41.2804 46.6735 41.7508 47.2531 41.7508H50.7531C51.3327 41.7508 51.8031 41.2804 51.8031 40.7008C51.8031 40.1212 51.3327 39.6508 50.7531 39.6508Z" fill="white"/>
</g>
<defs>
<clipPath id="clip0_1225_59489">
<rect width="33.6" height="33.6" fill="white" transform="translate(18.2031 23.9008)"/>
</clipPath>
</defs>
</svg>
