<svg width="70" height="80" viewBox="0 0 70 80" fill="none" xmlns="http://www.w3.org/2000/svg">
<path d="M32.0288 1.79357C33.8705 0.74379 36.1295 0.743788 37.9712 1.79357L66.9712 18.3236C68.8438 19.391 70 21.3808 70 23.5362V56.4637C70 58.6192 68.8438 60.609 66.9712 61.6764L37.9712 78.2064C36.1295 79.2562 33.8705 79.2562 32.0288 78.2064L3.02878 61.6764C1.15617 60.609 0 58.6192 0 56.4637V23.5362C0 21.3808 1.15617 19.391 3.02878 18.3236L32.0288 1.79357Z" fill="#0EB95E"/>
<g clip-path="url(#clip0_1225_59463)">
<path d="M50.8249 29.8729C50.8228 29.8729 50.8208 29.8727 50.8187 29.8727H41.8937V28.8883C41.8937 27.26 40.5689 25.9352 38.9406 25.9352H31.0656C29.4373 25.9352 28.1125 27.26 28.1125 28.8883V29.8727H19.1875C18.6394 29.8727 18.2031 30.3218 18.2031 30.8571V52.5133C18.2031 54.1416 19.5279 55.4664 21.1562 55.4664H48.85C50.4783 55.4664 51.8031 54.1416 51.8031 52.5133V30.8778C51.8031 30.8765 51.8031 30.8753 51.8031 30.874C51.7654 30.2275 51.3678 29.8765 50.8249 29.8729ZM30.0812 28.8883C30.0812 28.3456 30.5229 27.9039 31.0656 27.9039H38.9406C39.4833 27.9039 39.925 28.3456 39.925 28.8883V29.8727H30.0812V28.8883ZM49.4529 31.8414L46.396 41.012C46.2619 41.4147 45.8866 41.6852 45.4624 41.6852H39.925V40.7008C39.925 40.1571 39.4843 39.7164 38.9406 39.7164H31.0656C30.5219 39.7164 30.0812 40.1571 30.0812 40.7008V41.6852H24.5439C24.1196 41.6852 23.7443 41.4147 23.6103 41.012L20.5533 31.8414H49.4529ZM37.9562 41.6852V43.6539H32.05V41.6852H37.9562ZM49.8344 52.5133C49.8344 53.056 49.3927 53.4977 48.85 53.4977H21.1562C20.6136 53.4977 20.1719 53.056 20.1719 52.5133V36.923L21.7425 41.6347C22.145 42.8426 23.2709 43.6539 24.5439 43.6539H30.0812V44.6383C30.0812 45.182 30.5219 45.6227 31.0656 45.6227H38.9406C39.4843 45.6227 39.925 45.182 39.925 44.6383V43.6539H45.4624C46.7354 43.6539 47.8613 42.8426 48.2637 41.6347L49.8344 36.923V52.5133Z" fill="white"/>
</g>
<defs>
<clipPath id="clip0_1225_59463">
<rect width="33.6" height="33.6" fill="white" transform="translate(18.2031 23.9008)"/>
</clipPath>
</defs>
</svg>
