<svg width="70" height="80" viewBox="0 0 70 80" fill="none" xmlns="http://www.w3.org/2000/svg">
<path d="M32.0288 1.79357C33.8705 0.74379 36.1295 0.743788 37.9712 1.79357L66.9712 18.3236C68.8438 19.391 70 21.3808 70 23.5362V56.4637C70 58.6192 68.8438 60.609 66.9712 61.6764L37.9712 78.2064C36.1295 79.2562 33.8705 79.2562 32.0288 78.2064L3.02878 61.6764C1.15617 60.609 0 58.6192 0 56.4637V23.5362C0 21.3808 1.15617 19.391 3.02878 18.3236L32.0288 1.79357Z" fill="#0EB95E"/>
<g clip-path="url(#clip0_1225_59512)">
<path d="M33.8571 23.9008C34.5995 23.9008 35.3419 23.9008 36.0843 23.9008C36.4928 23.9516 36.903 23.9943 37.3107 24.0542C40.5517 24.5283 43.4523 25.7867 45.9026 27.9629C50.416 31.9726 52.3019 37.02 51.5726 43.0001C51.1772 46.2387 49.8705 49.1295 47.6991 51.5691C43.4425 56.3523 38.0998 58.2193 31.808 57.1242C27.6326 56.3974 24.2636 54.2129 21.664 50.8685C19.9889 48.7144 18.9176 46.283 18.4623 43.5883C18.3606 42.9886 18.2893 42.384 18.2031 41.7819C18.2031 41.0395 18.2031 40.2972 18.2031 39.5548C18.2245 39.449 18.2532 39.344 18.2671 39.2373C18.345 38.6549 18.3877 38.0659 18.5009 37.4909C19.2023 33.9151 20.8864 30.8759 23.5516 28.3928C25.9641 26.1451 28.7966 24.7202 32.0525 24.16C32.6513 24.0566 33.255 23.9861 33.8571 23.9008ZM33.9654 39.6704C33.9654 38.0044 33.9654 36.3638 33.9654 34.7502C32.0754 34.6181 30.21 34.4869 28.3414 34.3565C27.9927 35.3958 27.5448 38.9026 27.6687 39.6713C29.7564 39.6704 31.8474 39.6704 33.9654 39.6704ZM35.9678 39.6647C38.0924 39.6647 40.1908 39.6647 42.3146 39.6647C42.2547 37.869 42.0414 36.1177 41.628 34.3991C39.733 34.5189 37.8578 34.6378 35.9678 34.7576C35.9678 36.3736 35.9678 38.0052 35.9678 39.6647ZM20.2178 39.668C22.0323 39.668 23.8165 39.668 25.5539 39.668C25.7927 37.7796 26.0314 35.8995 26.266 34.0423C24.9535 33.7314 23.6147 33.4147 22.2587 33.094C21.0627 35.1095 20.3778 37.2932 20.2178 39.668ZM35.9621 46.5069C36.0408 46.5217 36.0933 46.5381 36.1458 46.5397C36.702 46.5611 37.259 46.5619 37.8127 46.6029C38.9751 46.6882 40.1366 46.7908 41.2982 46.8966C41.5353 46.9179 41.6444 46.8695 41.6829 46.607C41.8552 45.4233 42.0644 44.2445 42.2317 43.06C42.2965 42.6031 42.2867 42.1363 42.3105 41.6769C40.1662 41.6769 38.0678 41.6769 35.9621 41.6769C35.9621 43.2938 35.9621 44.8843 35.9621 46.5069ZM47.7352 48.1476C48.9009 46.1665 49.5645 44.0091 49.7228 41.6761C47.8976 41.6761 46.1061 41.6761 44.3801 41.6761C44.1398 43.5382 43.9035 45.3675 43.6689 47.1886C44.9896 47.4995 46.3513 47.8211 47.7352 48.1476ZM49.6867 39.6688C49.6974 39.6245 49.7113 39.5942 49.7113 39.5638C49.7113 39.4768 49.7105 39.3891 49.7023 39.3021C49.5169 37.408 49.0075 35.6066 48.1371 33.911C47.7491 33.1539 47.7483 33.1547 46.9157 33.3827C46.8845 33.3918 46.8517 33.3951 46.8197 33.4024C45.7599 33.6379 44.7 33.8733 43.687 34.0981C43.9191 35.9479 44.1529 37.8067 44.3867 39.668C46.1339 39.6688 47.9091 39.6688 49.6867 39.6688ZM27.6252 41.6646C27.7048 43.439 27.9017 45.1698 28.32 46.8383C30.2232 46.7186 32.0968 46.6013 33.9704 46.4831C33.9704 44.8737 33.9704 43.2757 33.9704 41.6646C31.8613 41.6646 29.7712 41.6646 27.6252 41.6646ZM25.5638 41.6736C23.8214 41.6736 22.0291 41.6736 20.2285 41.6736C20.2285 41.7417 20.2252 41.7852 20.2293 41.8279C20.395 44.0001 21.0152 46.0336 22.0783 47.9359C22.1767 48.1115 22.285 48.0672 22.431 48.0311C23.2964 47.8178 24.1635 47.6078 25.0322 47.4085C25.4621 47.31 25.8977 47.2354 26.2635 47.164C26.0264 45.3085 25.7968 43.498 25.5638 41.6736ZM35.9785 26.0327C35.9785 28.2861 35.9785 30.5051 35.9785 32.7642C37.542 32.6658 39.0768 32.5698 40.6108 32.4706C40.7511 32.4615 40.8897 32.4328 41.0529 32.4099C40.9397 32.1063 40.8413 31.8201 40.7273 31.5395C40.1145 30.0359 39.3631 28.6151 38.2122 27.4437C37.5879 26.8063 36.88 26.292 35.9785 26.0327ZM33.9712 48.4765C32.2748 48.5782 30.5997 48.6791 28.8319 48.7849C29.2019 49.6217 29.507 50.3886 29.8745 51.1245C30.4725 52.3229 31.2264 53.4148 32.2723 54.2745C32.7743 54.6871 33.3223 55.0226 33.9704 55.1826C33.9712 52.9505 33.9712 50.7512 33.9712 48.4765ZM33.9679 26.0533C31.6284 26.5955 29.6391 29.9514 28.9328 32.4181C30.6136 32.5296 32.2789 32.6404 33.9679 32.7527C33.9679 30.492 33.9679 28.2837 33.9679 26.0533ZM35.9645 55.1678C38.1548 54.6781 40.1178 51.679 41.0275 48.8128C39.3336 48.7029 37.6568 48.5938 35.9645 48.4839C35.9645 50.766 35.9645 52.9661 35.9645 55.1678ZM23.3317 49.7988C25.0495 51.9333 27.097 53.4681 29.5891 54.4106C28.3602 52.8045 27.5276 51.0072 26.8746 49.0556C25.7024 49.3017 24.5491 49.5437 23.3317 49.7988ZM40.3565 54.409C42.8182 53.4714 44.8477 51.9702 46.5457 49.8743C45.3399 49.6093 44.207 49.36 43.0512 49.1057C42.4048 51.0277 41.573 52.8143 40.3565 54.409ZM40.4402 26.9499C41.623 28.5281 42.4466 30.2852 43.0709 32.1859C44.2251 31.9447 45.3571 31.7077 46.5474 31.4591C44.86 29.3903 42.8617 27.894 40.4402 26.9499ZM29.498 26.949C27.1101 27.8842 25.1266 29.3509 23.4646 31.3713C24.6426 31.6297 25.7549 31.8742 26.8911 32.1244C27.5087 30.2451 28.3332 28.5134 29.498 26.949Z" fill="white"/>
</g>
<defs>
<clipPath id="clip0_1225_59512">
<rect width="33.6" height="33.6" fill="white" transform="translate(18.2031 23.9008)"/>
</clipPath>
</defs>
</svg>
