<svg width="72" height="52" viewBox="0 0 72 52" fill="none" xmlns="http://www.w3.org/2000/svg">
<path d="M61.4029 5.24478C61.4029 5.24478 61.9451 5.3412 62.2195 5.37393C63.4657 5.52272 64.6786 5.81256 65.8629 6.22442C66.8699 6.57437 67.8233 7.03503 68.7006 7.64209C69.563 8.23904 70.3087 8.96097 70.8681 9.85074C71.4085 10.7102 71.7507 11.6505 71.9084 12.6587C72.0268 13.4164 72.0167 14.1811 71.9524 14.9334C71.8596 16.025 71.5805 17.0879 71.1758 18.1104C70.9455 18.6919 70.7169 19.2763 70.439 19.8352C70.1212 20.4744 69.7498 21.0868 69.3999 21.7099C69.3927 21.7224 69.3636 21.723 69.3195 21.7379C69.4249 21.3392 69.532 20.9559 69.626 20.569C69.7522 20.0488 69.8706 19.5281 69.8885 18.9889C69.9016 18.599 69.9593 18.2086 69.9444 17.8206C69.8861 16.2874 69.4546 14.8733 68.5083 13.6467C67.7674 12.6861 66.8336 11.954 65.7671 11.3785C64.7667 10.8387 63.7067 10.4596 62.6099 10.187C61.7886 9.98287 60.9578 9.81324 60.1097 9.74837C59.5431 9.70493 58.9753 9.67755 58.4117 9.61089C57.4524 9.49721 56.4912 9.5609 55.5312 9.56149C54.9873 9.56209 54.4433 9.63648 53.8993 9.68052C53.3441 9.72576 52.7882 9.76444 52.2347 9.82396C51.6926 9.88288 51.1492 9.94597 50.6124 10.0406C49.4495 10.2453 48.2854 10.4489 47.1302 10.6959C46.072 10.922 45.0228 11.191 43.9759 11.4654C42.322 11.8993 40.6919 12.4165 39.0809 12.9878C37.8388 13.4283 36.6057 13.8955 35.3803 14.3793C34.4869 14.7317 33.6002 15.1042 32.7319 15.5137C31.1047 16.2815 29.4836 17.0629 27.8785 17.8759C26.8632 18.3907 25.8812 18.9716 24.8855 19.5251C24.4856 19.7477 24.0886 19.9756 23.6654 20.2155C21.4378 20.2155 19.1804 20.2155 16.8594 20.2155C16.951 20.1351 16.9969 20.084 17.0528 20.0477C18.6222 19.0198 20.1821 17.9753 21.7681 16.9736C22.6835 16.3957 23.6357 15.8756 24.5826 15.35C25.53 14.8245 26.4864 14.3133 27.4494 13.8163C28.4522 13.2985 29.4532 12.7736 30.481 12.3088C32.1498 11.5541 33.8275 10.8161 35.5243 10.1281C36.8895 9.57399 38.284 9.08893 39.6748 8.6009C41.5299 7.95039 43.4076 7.36713 45.3221 6.9148C46.7546 6.57616 48.1872 6.23513 49.6292 5.94112C50.6213 5.73876 51.6271 5.59771 52.6311 5.46202C53.3697 5.36203 54.1172 5.32929 54.8581 5.243C56.4841 5.05314 58.1159 5.11682 59.746 5.12158C60.1894 5.12277 60.5555 5.19087 61.075 5.22454C61.203 5.23284 61.4029 5.24478 61.4029 5.24478Z" fill="#1AF125"/>
<path d="M40.5757 44.3232C40.359 44.4494 40.1466 44.5845 39.924 44.7006C39.1717 45.0928 38.4236 45.4963 37.6583 45.8623C36.7013 46.3206 35.7306 46.7491 34.7629 47.1848C32.7745 48.0799 30.732 48.8357 28.6561 49.4993C27.1153 49.9921 25.5596 50.4373 23.9741 50.7718C22.8725 51.0039 21.7715 51.2283 20.6556 51.3807C19.817 51.4949 18.9779 51.583 18.134 51.6532C16.9491 51.7514 15.7659 51.7032 14.5828 51.6961C14.0299 51.6925 13.4782 51.5753 12.9253 51.5158C12.0219 51.4181 11.147 51.1944 10.2942 50.8932C9.37406 50.5677 8.51884 50.1255 7.7517 49.5017C6.62687 48.587 5.98888 47.4127 5.78594 45.998C5.65024 45.0511 5.75916 44.1096 5.99067 43.1847C6.22753 42.2372 6.60366 41.3432 7.05716 40.4809C7.20774 40.194 7.36426 39.9107 7.52078 39.6268C7.54042 39.5911 7.57315 39.5625 7.65945 39.5488C7.63029 39.6923 7.61065 39.8393 7.57018 39.9797C7.34283 40.7677 7.22083 41.5724 7.26368 42.3907C7.30475 43.1763 7.494 43.9322 7.86715 44.6345C8.45992 45.7498 9.36275 46.5342 10.4715 47.108C11.5136 47.6472 12.6182 47.9769 13.7746 48.1573C14.3697 48.2501 14.9654 48.3096 15.5647 48.3644C16.4146 48.4423 17.2621 48.409 18.1096 48.4072C18.5976 48.406 19.0856 48.3358 19.573 48.29C20.0158 48.2483 20.461 48.2138 20.9002 48.1471C21.7917 48.012 22.6839 47.8781 23.5688 47.7073C25.2906 47.3752 26.979 46.9122 28.6502 46.3807C30.3761 45.832 32.0764 45.2172 33.7404 44.5036C34.1362 44.3339 34.5332 44.2435 34.9712 44.2482C36.7162 44.2655 38.4611 44.2554 40.2061 44.2554C40.3239 44.2554 40.4418 44.2554 40.5596 44.2554C40.5656 44.2774 40.5703 44.3006 40.5757 44.3232Z" fill="#F1EA22"/>
<path d="M2.80563 48.0102C2.69255 47.9263 2.57173 47.8507 2.46817 47.7561C1.62006 46.9871 0.964195 46.0771 0.52556 45.0195C0.294042 44.4618 0.142868 43.8756 0.0732343 43.2757C0.0250261 42.8561 0.00955424 42.4311 0.00122197 42.0086C-0.0142523 41.2015 0.119063 40.4118 0.297612 39.6273C0.471994 38.8625 0.7297 38.1263 1.01954 37.4002C1.06061 37.2973 1.11477 37.2003 1.18083 37.064C2.38544 37.0646 3.59303 37.0628 4.85834 37.0657C4.65658 37.424 4.49351 37.7133 4.33043 38.0025C3.54779 39.3893 2.89668 40.8313 2.52114 42.3847C2.27355 43.409 2.15035 44.4511 2.22951 45.5034C2.29379 46.3515 2.48364 47.1776 2.85264 47.9542C2.83776 47.9733 2.8217 47.9917 2.80563 48.0102Z" fill="#1AF125"/>
<path d="M63.097 5.24336C63.097 5.24336 62.071 4.76485 61.7008 4.56369C61.1967 4.28991 60.6551 4.11136 60.11 3.94353C59.3303 3.70308 58.5322 3.5537 57.7258 3.4299C56.2725 3.20731 54.8108 3.22457 53.3491 3.24243C52.9058 3.24778 52.463 3.31801 52.0196 3.35729C51.7202 3.38408 51.4209 3.40967 51.1209 3.43407C50.0324 3.52156 48.9558 3.69237 47.8815 3.88699C46.6192 4.11553 45.3665 4.38573 44.1226 4.69939C42.0848 5.21361 40.0762 5.82722 38.0998 6.53784C36.6708 7.05147 35.2579 7.61092 33.8504 8.18049C32.9708 8.5364 32.109 8.93754 31.2491 9.33987C30.0856 9.88503 28.922 10.432 27.777 11.0147C26.773 11.5253 25.7874 12.0746 24.8054 12.6269C23.7931 13.1959 22.7861 13.775 21.7922 14.3755C21.0281 14.8374 20.2865 15.3361 19.539 15.8242C19.0064 16.1717 18.4755 16.5235 17.9512 16.8841C16.7192 17.7311 15.514 18.6155 14.3458 19.5493C14.0762 19.7647 13.8042 19.9778 13.512 20.2093C12.4538 20.2093 11.3713 20.2093 10.25 20.2093C10.3012 20.1349 10.328 20.079 10.3696 20.0385C11.0356 19.3933 11.6819 18.725 12.3764 18.112C13.2454 17.3454 14.144 16.6116 15.0486 15.8872C15.9449 15.1695 16.8448 14.4535 17.778 13.7851C18.876 12.9989 20.0086 12.2603 21.1316 11.5092C21.6047 11.1932 22.0868 10.8903 22.5736 10.5963C23.2426 10.1921 23.9181 9.79814 24.5948 9.40712C25.2423 9.03276 25.8874 8.65186 26.548 8.3019C27.5354 7.77876 28.5275 7.26335 29.5333 6.7765C30.5587 6.28014 31.5925 5.79865 32.6411 5.35406C34.07 4.74819 35.5037 4.15005 36.9583 3.61024C38.214 3.14423 39.4954 2.74249 40.7773 2.35266C41.845 2.0283 42.9234 1.73429 44.0095 1.47956C45.1695 1.20697 46.3401 0.971883 47.5143 0.767743C48.3136 0.628475 49.1284 0.582052 49.933 0.473732C50.6644 0.374936 51.3977 0.336845 52.135 0.340416C52.3564 0.341606 52.5796 0.277329 52.7998 0.286852C53.5229 0.317205 54.2454 0.368389 54.9685 0.410645C55.9178 0.465995 56.8486 0.629665 57.7663 0.874872C59.0209 1.20995 60.2034 1.70691 61.2163 2.53061C62.1048 3.25379 63.097 5.24336 63.097 5.24336Z" fill="#F1EA22"/>
<path d="M53.6945 24.813C53.1655 25.5259 52.6367 26.239 52.0552 27.0227C50.8667 27.0227 49.6665 27.0251 48.4662 27.0218C47.6478 27.0195 46.8731 27.1892 46.1641 27.6058C46.0278 27.6859 45.9196 27.8141 45.6546 28.0459C46.0399 28.1132 46.2742 28.1882 46.5089 28.1898C48.1824 28.2014 49.8563 28.1803 51.5296 28.2052C52.7012 28.2228 53.6715 28.6634 54.2829 29.6609C54.3196 29.7724 54.3479 29.8342 54.36 29.899C54.8019 32.2813 53.5551 33.127 51.4516 33.5946C50.5496 33.795 49.5878 33.8761 48.6677 33.8101C47.5129 33.7273 46.3459 33.5329 45.2336 33.2138C43.8376 32.8133 43.0729 31.7435 42.7005 30.3581C41.9076 27.408 44.0235 25.2405 46.4841 24.8111C47.4307 24.6458 48.4076 24.6212 49.3723 24.5977C50.7716 24.5638 52.1722 24.5889 53.5723 24.5889C53.6131 24.6637 53.6538 24.7384 53.6945 24.813ZM45.6586 30.0348C45.9544 30.718 46.2769 31.0661 46.8931 31.1504C48.2699 31.3387 49.6558 31.4964 51.0411 31.1933C51.391 31.1167 51.6564 30.9527 51.6901 30.5325C51.394 30.1022 50.946 30.0346 50.4672 30.0352C49.602 30.0362 48.7367 30.035 47.8716 30.0348C47.1473 30.0346 46.423 30.0348 45.6586 30.0348Z" fill="#1AF125"/>
<path d="M4.53906 33.5936C4.53906 30.5887 4.53906 27.6899 4.53906 24.6997C5.35644 24.4754 6.19261 24.6193 7.01244 24.5948C7.88286 24.569 8.75468 24.589 9.6258 24.589C10.4636 24.589 11.3011 24.589 12.1389 24.589C12.9689 24.589 13.7991 24.589 14.7299 24.589C14.3776 25.6472 13.5954 26.2054 13.0804 27.0226C12.1185 27.0226 11.1843 27.0226 10.2502 27.0226C9.32021 27.0226 8.39025 27.0226 7.39795 27.0226C7.39795 27.3829 7.39795 27.6265 7.39795 27.9728C9.68218 27.9728 11.9132 27.9728 14.2626 27.9728C13.8572 28.9017 13.2854 29.524 12.648 30.2223C10.9513 30.2223 9.21869 30.2223 7.42113 30.2223C7.39268 30.5599 7.37213 30.8051 7.33964 31.1897C9.8269 31.2528 12.2446 31.1802 14.8855 31.2373C14.1974 32.1596 13.6679 32.8695 13.1273 33.5938C10.283 33.5936 7.47839 33.5936 4.53906 33.5936Z" fill="#1AF125"/>
<path d="M55.5156 33.5223C56.1488 32.6829 56.6832 31.9744 57.2647 31.2036C59.3041 31.2036 61.3374 31.2036 63.43 31.2036C63.5022 30.8802 63.5552 30.6428 63.6378 30.2723C63.068 30.184 62.5882 30.0528 62.1063 30.0451C60.4329 30.0185 58.7588 30.0377 57.085 30.0322C56.7596 30.0312 56.4345 29.9982 56.0197 29.9748C55.925 28.1848 55.9731 26.4679 55.9816 24.781C56.9289 24.5177 65.1564 24.5242 66.0333 24.7901C65.4841 25.5278 64.9564 26.2368 64.3817 27.0087C62.5852 27.0087 60.7868 27.0087 58.8875 27.0087C58.8612 27.4088 58.8406 27.7183 58.8157 28.0954C59.1543 28.135 59.4098 28.1888 59.6657 28.1911C60.8038 28.2009 61.9426 28.1772 63.0801 28.2049C63.5759 28.2171 64.0786 28.2838 64.5621 28.3952C65.6478 28.6454 66.2854 29.3404 66.4308 30.3573C66.5778 31.3855 66.0883 32.5972 65.2137 33.0242C64.5969 33.3252 63.8935 33.5913 63.221 33.6111C60.8463 33.6814 58.4683 33.6401 56.0915 33.6359C55.9638 33.6359 55.8363 33.5874 55.5156 33.5223Z" fill="#1AF125"/>
<path d="M38.6949 27.4765C38.223 27.0313 37.7253 27.0225 37.224 27.0227C35.3826 27.0232 33.5409 27.0248 31.6993 27.0207C31.3791 27.02 31.0589 26.9951 30.5299 26.9724C31.1798 26.0945 31.7051 25.3849 32.2583 24.6374C32.6036 24.6207 32.9325 24.5926 33.2617 24.5914C34.6344 24.5863 36.0076 24.5692 37.3798 24.5984C37.9761 24.611 38.5764 24.691 39.164 24.799C40.444 25.0343 41.2993 25.724 41.4527 27.1825C41.3979 27.418 41.3223 27.7424 41.2368 28.1106C41.0299 28.364 40.7991 28.6468 40.5204 28.9884C41.2776 29.543 41.6107 30.2726 41.5317 31.221C41.4497 32.2048 40.9165 33.0562 39.9956 33.3529C39.5241 33.5048 39.0183 33.6232 38.5265 33.6281C35.8817 33.6553 33.2364 33.643 30.5912 33.6402C30.463 33.64 30.3348 33.6011 30.0391 33.5529C30.6896 32.7159 31.2722 31.9666 31.8761 31.1896C34.1151 31.1896 36.2821 31.1896 38.5367 31.1896C38.5623 30.864 38.5806 30.632 38.6061 30.3076C36.5977 30.0989 34.6667 30.3214 32.6726 30.163C32.9122 29.3117 33.4689 28.8284 33.9684 28.1864C35.0364 28.1864 36.1372 28.2024 37.2372 28.1773C37.5953 28.169 37.9675 28.0967 38.3006 27.969C38.4682 27.9049 38.5629 27.6507 38.6949 27.4765Z" fill="#1AF125"/>
<path d="M15.1484 24.7625C15.3344 24.6918 15.4519 24.6092 15.5705 24.6078C16.5041 24.5971 17.4379 24.6018 18.4172 24.6018C19.7281 26.5062 21.0301 28.3973 22.4059 30.396C23.9603 28.5158 25.1275 26.4586 26.6286 24.6334C27.6882 24.5693 28.7052 24.5637 29.9104 24.6373C29.5117 25.2582 29.2302 25.7366 28.9102 26.1878C27.502 28.1746 26.0891 30.1582 24.6621 32.1318C24.3707 32.5349 24.0432 32.9229 23.6786 33.2599C22.7702 34.0994 21.5366 34.0037 20.7844 33.0228C20.0945 32.1232 19.4478 31.1899 18.7985 30.2599C17.6139 28.5634 16.4405 26.8591 15.2673 25.1549C15.2143 25.0775 15.2085 24.9675 15.1484 24.7625Z" fill="#1AF125"/>
</svg>
