<svg width="72" height="72" viewBox="0 0 72 72" fill="none" xmlns="http://www.w3.org/2000/svg">
<path d="M42.6943 69.9695C42.6943 71.092 41.7863 72 40.6638 72H31.3309C30.2084 72 29.3003 71.092 29.3003 69.9695C29.3003 68.8471 30.2084 67.939 31.3309 67.939H40.6638C41.7863 67.939 42.6943 68.8471 42.6943 69.9695ZM44.0312 62.743H27.9382C26.8157 62.743 25.9077 63.6511 25.9077 64.7735C25.9077 65.896 26.8157 66.804 27.9382 66.804H44.0312C45.1537 66.804 46.0618 65.896 46.0618 64.7735C46.0618 63.6511 45.1537 62.743 44.0312 62.743ZM64.7024 40.6978C64.9925 41.1645 65.1565 41.7194 65.1565 42.2995C65.1565 44.0273 63.7565 45.4146 62.0413 45.4146C60.326 45.4146 58.9261 44.0147 58.9261 42.2995C58.9261 40.7357 60.0738 39.4493 61.562 39.2223C62.5205 36.4099 63.0124 33.4714 63.0124 30.4698C63.0124 15.5754 50.8922 3.4556 35.9973 3.4556C21.1025 3.4556 8.96963 15.588 8.96963 30.4824C8.96963 34.001 9.62546 37.3936 10.9371 40.6096C11.6056 40.6978 12.2109 41.0131 12.6776 41.4672L16.9026 38.2638C16.5621 37.6584 16.3477 36.9648 16.3477 36.2207C16.3477 33.9506 18.1891 32.1219 20.4592 32.1219C20.7998 32.1219 21.1403 32.1724 21.4556 32.248L26.3365 19.7877C25.2771 19.1697 24.5582 18.0347 24.5582 16.7231C24.5582 14.7683 26.1473 13.1792 28.1022 13.1792C30.057 13.1792 31.6462 14.7683 31.6462 16.7231C31.6462 17.7824 31.1795 18.7283 30.448 19.3715L33.2479 23.6847C34.2821 23.1172 35.4676 22.7893 36.7288 22.7893C40.7142 22.7893 43.9429 26.0179 43.9429 30.0032C43.9429 33.9884 40.7142 37.217 36.7288 37.217C35.9595 37.217 35.2154 37.0909 34.5217 36.8765L29.603 49.0846L45.5195 40.4834C45.2546 39.9411 45.1159 39.3484 45.1159 38.7178C45.1159 36.7378 46.5158 35.0857 48.3824 34.7073L47.159 19.485C46.0113 19.3211 45.1159 18.3374 45.1159 17.1393C45.1159 16.7735 45.2042 16.433 45.3429 16.1177L36.6405 10.0011C36.4261 10.1398 36.1613 10.2281 35.8838 10.2281C35.1145 10.2281 34.4965 9.61009 34.4965 8.84078C34.4965 8.07147 35.1145 7.45349 35.8838 7.45349C36.6532 7.45349 37.2711 8.07147 37.2711 8.84078C37.2711 8.95428 37.2585 9.05518 37.2333 9.15607L45.9861 15.298C46.3897 14.97 46.9194 14.7556 47.4869 14.7556C48.7986 14.7556 49.858 15.815 49.858 17.1393C49.858 18.2112 49.1517 19.1067 48.1932 19.4094L49.4166 34.6316C49.9085 34.6569 50.3751 34.7578 50.8039 34.9343L55.5713 25.8539C55.3443 25.6017 55.1929 25.2738 55.1929 24.908C55.1929 24.1387 55.8109 23.5208 56.5802 23.5208C57.3496 23.5208 57.9676 24.1387 57.9676 24.908C57.9676 25.6774 57.3496 26.2953 56.5802 26.2953C56.555 26.2953 56.5424 26.2953 56.5172 26.2953L51.712 35.464C52.6957 36.2081 53.3263 37.3936 53.3263 38.7178C53.3263 39.8024 52.8975 40.7861 52.2165 41.5176L56.1262 46.2344C56.5424 46.0326 56.9964 45.9191 57.4757 45.9191C59.2036 45.9191 60.5909 47.319 60.5909 49.0342C60.5909 50.7493 59.191 52.1492 57.4757 52.1492H57.4631C51.775 57.7867 44.0817 60.9774 36.0099 60.9774C27.9382 60.9774 20.8754 58.0767 15.2252 52.7924C15.0865 52.8177 14.9351 52.8303 14.7964 52.8303C13.0686 52.8303 11.6812 51.4304 11.6812 49.7152C11.6812 48 13.0812 46.6001 14.7964 46.6001C16.5117 46.6001 17.9116 47.9874 17.9116 49.7152C17.9116 49.98 17.8738 50.2323 17.8107 50.4719C22.7925 55.0247 29.1868 57.5218 36.0099 57.5218C42.8331 57.5218 49.5679 54.8607 54.5623 50.144C54.4362 49.8035 54.3605 49.4251 54.3605 49.0468C54.3605 48.1892 54.7137 47.4072 55.2812 46.8397L51.4219 42.1734C50.7787 42.577 50.0346 42.8166 49.2274 42.8166C47.9662 42.8166 46.8437 42.2491 46.0996 41.3537L29.9688 50.0683C29.9688 50.0683 29.9814 50.1692 29.9814 50.2197C29.9814 50.989 29.3634 51.6069 28.594 51.6069C27.8247 51.6069 27.2067 50.989 27.2067 50.2197C27.2067 49.9044 27.3202 49.6143 27.4968 49.3747L22.061 40.0042C21.5691 40.206 21.0394 40.3321 20.4719 40.3321C19.3242 40.3321 18.29 39.8655 17.5458 39.1088L13.3082 42.3374C13.51 42.7535 13.6361 43.2202 13.6361 43.7246C13.6361 45.4524 12.2488 46.8397 10.5209 46.8397C8.79306 46.8397 7.40573 45.4398 7.40573 43.7246C7.40573 43.1445 7.56969 42.6148 7.83454 42.1482C6.30848 38.4656 5.53914 34.5686 5.53914 30.5202C5.5013 13.671 19.1728 0 35.9847 0C52.7966 0 66.4681 13.671 66.4681 30.4824C66.4681 34.001 65.8627 37.4314 64.7024 40.7105V40.6978ZM22.4141 32.6138C23.6879 33.3074 24.5456 34.6569 24.5456 36.2207C24.5456 37.5449 23.9149 38.7304 22.9312 39.4745L28.367 48.845C28.367 48.845 28.4931 48.8324 28.5562 48.8324L33.538 36.4729C31.1417 35.3001 29.4895 32.8408 29.4895 29.9905C29.4895 27.6448 30.6246 25.5638 32.3524 24.2396L29.5526 19.9264C29.1111 20.1282 28.6066 20.2543 28.0769 20.2543C27.7995 20.2543 27.5346 20.2165 27.2824 20.1661L22.4015 32.6264L22.4141 32.6138Z" fill="url(#paint0_linear_1330_49558)"/>
<defs>
<linearGradient id="paint0_linear_1330_49558" x1="36.0036" y1="0" x2="36.0036" y2="72" gradientUnits="userSpaceOnUse">
<stop stop-color="#A2DEFF"/>
<stop offset="1" stop-color="#00A4FF"/>
</linearGradient>
</defs>
</svg>
