<svg width="60" height="60" viewBox="0 0 60 60" fill="none" xmlns="http://www.w3.org/2000/svg">
<g clip-path="url(#clip0_1182_59666)">
<path d="M44.93 7.63499L14.015 20H5.625C2.525 20 0 22.525 0 25.625V32.5C0 35.445 2.3125 37.5 5.625 37.5H7.75L10.02 53.39C10.1525 54.315 10.9425 55 11.875 55H19.375C19.91 55 20.4175 54.7725 20.775 54.375C21.13 53.9775 21.3 53.4475 21.24 52.915L19.765 39.8L44.9275 49.865C45.155 49.955 45.39 50 45.625 50C45.9925 50 46.3625 49.89 46.6775 49.6775C47.1925 49.3275 47.5 48.7475 47.5 48.125V9.37499C47.5 8.75249 47.1925 8.17249 46.6775 7.82249C46.16 7.47249 45.505 7.40249 44.93 7.63499ZM3.75 32.5V25.625C3.75 24.5925 4.5925 23.75 5.625 23.75H12.5V33.75H5.625C4.77 33.75 3.75 33.5325 3.75 32.5ZM17.2775 51.25H13.5L11.5375 37.5H14.015L15.8175 38.22L17.2775 51.25ZM43.75 45.3575L18.31 35.18C18.2025 35.13 18.1 35.0775 17.9825 35.0475L16.25 34.355V23.145L43.75 12.145V45.3575Z" fill="#0EB95E"/>
<path d="M53.0485 23.34L59.2985 18.34C60.106 17.6925 60.2385 16.5125 59.591 15.7025C58.941 14.8975 57.7635 14.7675 56.9535 15.41L50.7035 20.41C49.896 21.0575 49.7635 22.2375 50.411 23.0475C50.781 23.5075 51.326 23.75 51.876 23.75C52.2885 23.75 52.701 23.615 53.0485 23.34Z" fill="#0EB95E"/>
<path d="M53.0485 36.66C52.2435 36.0175 51.0635 36.1475 50.411 36.9525C49.7635 37.76 49.896 38.9425 50.7035 39.59L56.9535 44.59C57.301 44.865 57.7135 45 58.126 45C58.676 45 59.221 44.7575 59.591 44.2975C60.2385 43.49 60.106 42.3075 59.2985 41.66L53.0485 36.66Z" fill="#0EB95E"/>
<path d="M58.125 28.125H51.875C50.84 28.125 50 28.965 50 30C50 31.035 50.84 31.875 51.875 31.875H58.125C59.16 31.875 60 31.035 60 30C60 28.965 59.16 28.125 58.125 28.125Z" fill="#0EB95E"/>
</g>
<defs>
<clipPath id="clip0_1182_59666">
<rect width="60" height="60" fill="white"/>
</clipPath>
</defs>
</svg>
