<svg width="60" height="61" viewBox="0 0 60 61" fill="none" xmlns="http://www.w3.org/2000/svg">
<path fill-rule="evenodd" clip-rule="evenodd" d="M46.4469 9.90001C46.4669 9.74501 46.3744 9.59751 46.2269 9.54751C46.0794 9.49751 45.9169 9.55751 45.8369 9.69251L41.1769 16.43C41.1194 16.5325 41.1169 16.6575 41.1769 16.76C41.2344 16.8625 41.3444 16.925 41.4619 16.925H44.1794C44.1794 16.925 43.7994 18.7125 43.5569 20.66C43.5369 20.815 43.6294 20.9625 43.7769 21.0125C43.9244 21.0625 44.0869 21.0025 44.1669 20.8675L48.8269 14.13C48.8844 14.0275 48.8869 13.9025 48.8269 13.8C48.7694 13.6975 48.6594 13.635 48.5419 13.635C47.5994 13.635 45.8244 13.635 45.8244 13.635C45.8244 13.635 46.2044 11.8475 46.4469 9.90001Z" fill="#0EB95E"/>
<path fill-rule="evenodd" clip-rule="evenodd" d="M45 3.40503C51.555 3.40503 56.875 8.72503 56.875 15.28C56.875 21.835 51.555 27.155 45 27.155C38.445 27.155 33.125 21.835 33.125 15.28C33.125 8.72503 38.445 3.40503 45 3.40503ZM45 7.15503C40.515 7.15503 36.875 10.795 36.875 15.28C36.875 19.765 40.515 23.405 45 23.405C49.485 23.405 53.125 19.765 53.125 15.28C53.125 10.795 49.485 7.15503 45 7.15503Z" fill="#0EB95E"/>
<path fill-rule="evenodd" clip-rule="evenodd" d="M46.465 50.2025L41.465 56.4525C41.1075 56.895 40.57 57.155 40 57.155H5C3.965 57.155 3.125 56.315 3.125 55.28V42.78C3.125 41.745 3.965 40.905 5 40.905H40C40.57 40.905 41.1075 41.165 41.465 41.6075L46.465 47.8575C47.0125 48.5425 47.0125 49.5175 46.465 50.2025ZM42.6 49.03L39.1 44.655H6.875V53.405H39.1L42.6 49.03Z" fill="#0EB95E"/>
<path fill-rule="evenodd" clip-rule="evenodd" d="M36.465 32.7025L31.465 38.9525C31.1075 39.395 30.57 39.655 30 39.655H5C3.965 39.655 3.125 38.815 3.125 37.78V25.28C3.125 24.245 3.965 23.405 5 23.405H30C30.57 23.405 31.1075 23.665 31.465 24.1075L36.465 30.3575C37.0125 31.0425 37.0125 32.0175 36.465 32.7025ZM32.6 31.53L29.1 27.155H6.875V35.905H29.1L32.6 31.53Z" fill="#0EB95E"/>
<path fill-rule="evenodd" clip-rule="evenodd" d="M26.465 15.2025L21.465 21.4525C21.1075 21.895 20.57 22.155 20 22.155H5C3.965 22.155 3.125 21.315 3.125 20.28V7.78003C3.125 6.74503 3.965 5.90503 5 5.90503H20C20.57 5.90503 21.1075 6.16503 21.465 6.60753L26.465 12.8575C27.0125 13.5425 27.0125 14.5175 26.465 15.2025ZM22.6 14.03L19.1 9.65503H6.875V18.405H19.1L22.6 14.03Z" fill="#0EB95E"/>
</svg>
