<svg width="72" height="65" viewBox="0 0 72 65" fill="none" xmlns="http://www.w3.org/2000/svg">
<path fill-rule="evenodd" clip-rule="evenodd" d="M24.7459 22.0641V14.9407L0 26.5631V34.6239L24.7452 46.2462V39.1228L5.6805 30.5623L24.7459 22.0641ZM31.3572 57.8686L49.4665 0.13147H42.1553L24.1022 57.8686H31.3572ZM47.3106 38.6855V45.8089L72 34.1864V26.1257L47.3106 14.5033V21.6267L66.3759 30.1873L47.3106 38.6855Z" fill="url(#paint0_linear_1343_49781)"/>
<path fill-rule="evenodd" clip-rule="evenodd" d="M71.15 40.0586C70.1101 36.5582 68.2189 33.8402 65.4766 31.9047C62.7343 29.9691 59.5036 29.0014 55.7845 29.0015C52.7669 28.9607 49.7979 29.7545 47.2124 31.2934C44.6268 32.8323 42.5277 35.055 41.1517 37.7108C39.6861 40.455 38.9532 43.5598 38.9531 47.0255C38.953 50.4912 39.6859 53.5878 41.1517 56.3155C42.5348 58.9556 44.6292 61.1661 47.2034 62.7027C49.772 64.2348 52.6481 65.0006 55.8318 65C58.6685 65 61.2294 64.3689 63.5145 63.1067C65.7527 61.8869 67.6715 60.1666 69.1178 58.0832C70.5492 56.0399 71.5169 53.7148 71.9546 51.2671V45.1076H54.0833V50.5099H65.4303C64.9258 53.0681 63.8699 55.0624 62.2626 56.4928C60.6554 57.9231 58.5909 58.6384 56.069 58.6385C54.0197 58.6385 52.2231 58.1673 50.6793 57.2248C49.1056 56.2508 47.8498 54.8483 47.0625 53.1858C46.1951 51.436 45.7618 49.3828 45.7624 47.026C45.7624 44.7375 46.1878 42.718 47.0388 40.9674C47.8898 39.2168 49.0715 37.8702 50.5838 36.9275C52.1441 35.9721 53.9496 35.4814 55.7845 35.514C57.5494 35.514 59.0938 35.9011 60.4177 36.6752C61.7684 37.4789 62.8526 38.6547 63.5375 40.0586H71.15Z" fill="#E059DC"/>
<defs>
<linearGradient id="paint0_linear_1343_49781" x1="150.93" y1="-27.871" x2="-19.9802" y2="-16.2928" gradientUnits="userSpaceOnUse">
<stop stop-color="#05D5FF"/>
<stop offset="1" stop-color="#5533FF"/>
</linearGradient>
</defs>
</svg>
