<svg width="72" height="66" viewBox="0 0 72 66" fill="none" xmlns="http://www.w3.org/2000/svg">
<path d="M48.3239 38.3459C47.7043 39.1736 47.1239 39.9605 46.5299 40.7369C45.8952 41.566 45.253 42.3877 44.6032 43.2047C44.2128 43.6947 43.8102 44.1771 43.3957 44.6475C42.7233 45.4133 42.0388 46.1686 41.3559 46.9254C41.166 47.1349 40.9549 47.3249 40.7634 47.5314C40.679 47.6234 40.6172 47.7364 40.5283 47.8631C40.7891 47.9038 41.0137 47.946 41.2398 47.9731C42.1474 48.0847 43.0595 48.1661 43.9625 48.3078C45.3525 48.5249 46.7259 48.8339 48.0842 49.2003C49.7455 49.648 51.3782 50.1802 52.9567 50.8706C53.5718 51.1405 54.1989 51.3862 54.7974 51.6877C55.5994 52.0933 56.406 52.4943 57.1613 52.9857C57.9512 53.4998 58.7412 54.0169 59.498 54.5777C60.5865 55.3842 61.6071 56.2722 62.5433 57.2566C63.4071 58.1642 64.179 59.1501 64.8845 60.1783C65.4228 60.9622 65.8615 61.817 66.3062 62.6612C66.6363 63.2883 66.9047 63.9486 67.1987 64.5939C67.2228 64.6466 67.2318 64.7069 67.265 64.826C67.1459 64.7672 67.0811 64.7386 67.0208 64.7039C65.8298 64.024 64.5785 63.4692 63.3016 62.9763C61.1413 62.1411 58.9236 61.4793 56.6638 60.9788C55.0914 60.6305 53.5009 60.3592 51.9119 60.0953C50.8838 59.925 49.845 59.8134 48.8093 59.7034C47.8882 59.6054 46.9611 59.5526 46.0384 59.4682C44.7268 59.3476 43.4107 59.3099 42.0946 59.3099C41.463 59.3099 40.8313 59.2421 40.1996 59.2466C39.0629 59.2541 37.9277 59.2918 36.791 59.322C36.6372 59.3265 36.485 59.3868 36.3327 59.3868C35.1794 59.3883 34.0593 59.1983 33.0537 58.6104C32.1658 58.0918 31.4934 57.3456 31.0155 56.4305C30.5075 55.4566 30.2361 54.4179 30.0748 53.334C29.912 52.241 29.9331 51.145 29.9406 50.049C29.9451 49.4309 29.9723 48.8098 30.019 48.1932C30.0748 47.4741 30.1607 46.758 30.2376 46.042C30.316 45.3123 30.3763 44.5796 30.4894 43.8545C30.6507 42.8233 30.8316 41.7937 31.0381 40.7701C31.4934 38.5133 32.0859 36.2926 32.8382 34.1172C33.3191 32.7258 33.8211 31.3403 34.4513 30.0046C34.4678 29.97 34.4754 29.9323 34.501 29.8463C34.302 29.676 34.0985 29.4845 33.8769 29.3157C32.9512 28.6147 32.0331 27.9016 31.0864 27.2277C30.3085 26.676 29.4944 26.1755 28.6984 25.6508C28.1813 25.3101 27.6808 24.9423 27.1501 24.6257C26.1189 24.0121 25.0908 23.3895 24.0249 22.8393C22.053 21.8201 19.9922 21.0302 17.7911 20.6729C16.4901 20.4618 15.174 20.3548 13.8564 20.4347C12.9835 20.4875 12.1151 20.6111 11.2452 20.7136C10.8261 20.7634 10.4101 20.8372 9.91406 20.9111C10.006 20.7799 10.0437 20.7076 10.098 20.6503C10.9166 19.7895 11.8935 19.1382 12.9036 18.5322C14.3147 17.6864 15.8192 17.0457 17.3826 16.5452C18.8223 16.0854 20.2892 15.7191 21.7907 15.5216C22.6711 15.4055 23.5591 15.3407 24.4365 15.205C25.2822 15.0739 26.1129 15.202 26.936 15.3181C27.9551 15.4613 28.9682 15.6799 29.9708 15.9151C31.4587 16.2648 32.8849 16.803 34.2945 17.391C35.2849 17.804 36.2513 18.2668 37.192 18.7779C38.5549 19.5196 39.8604 20.3548 41.1509 21.2156C42.0193 21.7945 42.9072 22.3433 43.7756 22.9237C44.8821 23.6624 45.9706 24.4267 47.0756 25.1669C47.8249 25.6689 48.5907 26.1453 49.3445 26.6383C49.7109 26.878 50.0591 27.1478 50.4315 27.377C51.7069 28.1639 52.9763 28.9599 54.2728 29.7107C55.3673 30.3438 56.4844 30.9408 57.6105 31.5137C58.9055 32.171 60.2292 32.774 61.6237 33.1946C62.6624 33.5067 63.7192 33.7343 64.8016 33.861C65.7454 33.971 66.6876 33.9378 67.6283 33.9122C68.2555 33.8941 68.8856 33.7841 69.5022 33.6559C70.2726 33.4961 71.0294 33.276 71.7922 33.0831C71.8495 33.068 71.9098 33.065 72.0018 33.1102C71.8148 33.3001 71.6415 33.5082 71.4364 33.6785C70.7339 34.265 70.0374 34.862 69.3062 35.4107C68.6761 35.8826 68.0143 36.3152 67.3404 36.7208C66.6891 37.1127 66.0197 37.4821 65.3323 37.8032C64.5393 38.1741 63.7313 38.5208 62.9051 38.8057C62.0518 39.0997 61.1789 39.3469 60.2985 39.5444C59.4588 39.7329 58.6101 39.9047 57.7387 39.9168C57.0286 39.9273 56.32 39.9801 55.6115 39.9846C54.7326 39.9907 53.8612 39.8791 53.0004 39.7118C52.1396 39.5444 51.2833 39.3439 50.439 39.1102C49.8812 38.9565 49.3491 38.7168 48.8048 38.5163C48.651 38.459 48.4943 38.4062 48.3239 38.3459Z" fill="url(#paint0_linear_1343_49622)"/>
<path d="M44.8672 12.5231C44.9154 10.8783 45.2818 9.31951 45.9375 7.82402C46.631 6.24561 47.6064 4.86168 48.8758 3.69484C50.3622 2.32899 52.0688 1.36567 54.0798 1.04004C54.7356 0.933003 55.402 0.899837 56.0819 0.985767C56.9427 1.09431 57.7537 1.31894 58.5135 1.71844C59.7 2.34256 60.5879 3.2682 61.2437 4.43655C61.7834 5.39988 62.0789 6.44008 62.2131 7.51949C62.3186 8.37427 62.2869 9.23659 62.1769 10.0989C62.008 11.4346 61.6025 12.6979 61.0131 13.8964C60.7131 14.507 60.3437 15.0919 59.9442 15.6452C59.5387 16.2075 59.0909 16.7502 58.6025 17.2417C57.7884 18.0588 56.8703 18.7492 55.8361 19.2739C54.8834 19.7563 53.8808 20.0578 52.821 20.2085C51.3074 20.4226 49.8888 20.1301 48.5441 19.4578C48.1793 19.2754 47.8552 19.001 47.5416 18.7342C46.1607 17.5643 45.3782 16.0522 45.0707 14.2869C44.9712 13.705 44.9335 13.111 44.8672 12.5231Z" fill="#FF5200"/>
<path d="M0.0723633 47.934C0.342218 48.2415 0.618103 48.5445 0.878913 48.8596C1.25882 49.3179 1.69903 49.7084 2.13773 50.1094C2.68347 50.6068 3.23977 51.0847 3.84732 51.4963C4.49708 51.938 5.18604 52.3194 5.85992 52.7265C6.70567 53.2375 7.62378 53.5933 8.55847 53.8918C9.31828 54.1345 10.0992 54.3245 10.8816 54.4903C12.3847 54.8084 13.9134 54.7632 15.436 54.7179C16.0888 54.6983 16.7416 54.5747 17.3898 54.4707C18.6818 54.2627 19.9391 53.9174 21.1663 53.4697C21.9427 53.1863 22.704 52.8637 23.4608 52.5305C24.1784 52.2139 24.8794 51.8581 25.6121 51.5084C25.6287 51.5672 25.6649 51.6275 25.6573 51.6802C25.5503 52.3873 25.5985 53.0913 25.6528 53.8013C25.7071 54.5129 25.8201 55.2094 25.9799 55.8999C26.1473 56.6205 26.3975 57.3124 26.7413 57.9682C27.5357 59.4788 28.6725 60.6351 30.2479 61.3301C30.4574 61.422 30.676 61.4959 30.9625 61.6059C30.6368 61.7944 30.382 61.9617 30.1107 62.0959C29.0101 62.6416 27.8795 63.118 26.7126 63.5039C25.2895 63.9743 23.8437 64.3663 22.3588 64.5924C21.507 64.722 20.6477 64.8155 19.7899 64.9105C18.7632 65.0236 17.732 65.0884 16.6993 65.0537C15.9275 65.0281 15.1571 64.9617 14.3988 64.7899C13.2862 64.5366 12.2158 64.1733 11.1651 63.7255C10.2077 63.3185 9.32431 62.7863 8.46349 62.221C7.83031 61.8049 7.27101 61.2788 6.68305 60.7964C6.4539 60.6079 6.21872 60.421 6.02123 60.2024C5.45891 59.5798 4.89658 58.9587 4.37044 58.3059C3.95888 57.7948 3.55786 57.2627 3.23072 56.6958C2.7483 55.8576 2.29452 54.9983 1.90406 54.1149C1.46536 53.1245 1.08696 52.1054 0.731171 51.0817C0.529157 50.4998 0.417597 49.8847 0.277393 49.2817C0.174878 48.8445 0.0919617 48.4043 0 47.9641C0.0241211 47.9536 0.0482422 47.9445 0.0723633 47.934Z" fill="#FF5200"/>
<defs>
<linearGradient id="paint0_linear_1343_49622" x1="40.9579" y1="15.1497" x2="40.9579" y2="64.826" gradientUnits="userSpaceOnUse">
<stop stop-color="#FF5200"/>
<stop offset="1" stop-color="#F3AD66"/>
</linearGradient>
</defs>
</svg>
