<svg width="61" height="60" viewBox="0 0 61 60" fill="none" xmlns="http://www.w3.org/2000/svg">
<g clip-path="url(#clip0_1182_59600)">
<path d="M40.7342 16.804H20.4677C19.9338 16.804 19.5 16.3707 19.5 15.8363V5.06728C19.5 3.87413 20.4706 2.90308 21.6642 2.90308H39.5378C40.7309 2.90308 41.702 3.87413 41.702 5.06728V15.8368C41.702 16.3712 41.2686 16.804 40.7342 16.804ZM21.4355 14.8686H39.766V5.06728C39.766 4.94111 39.6634 4.83857 39.5373 4.83857H21.6642C21.538 4.83857 21.4355 4.94111 21.4355 5.06728V14.8686Z" fill="#0EB95E"/>
<path d="M42.1283 21.9905H19.038C18.7356 21.9905 18.4511 21.8493 18.2678 21.6087C18.0849 21.3687 18.0249 21.0559 18.1052 20.7653L19.5398 15.5783C19.6561 15.1596 20.0369 14.8685 20.4726 14.8685H40.7386C41.1766 14.8685 41.5599 15.1629 41.6737 15.5858L43.0635 20.7724C43.1409 21.063 43.079 21.3734 42.8962 21.612C42.7128 21.8507 42.4293 21.9905 42.1283 21.9905ZM20.3096 20.0551H40.8671L39.9958 16.804H21.2088L20.3096 20.0551Z" fill="#0EB95E"/>
<path d="M27.6536 8.13682L25.6529 8.98596C25.3424 9.11827 25.1406 9.42211 25.1406 9.75903C25.1406 10.0955 25.3424 10.3993 25.6529 10.5316L27.6536 11.3812C28.0235 11.5381 28.4488 11.3467 28.575 10.9663C28.6889 10.6233 28.5155 10.2514 28.1795 10.1163L27.2906 9.7595L28.18 9.40179C28.5159 9.26665 28.6893 8.89476 28.5755 8.55218C28.4493 8.17179 28.0235 7.97994 27.6536 8.13682Z" fill="#0EB95E"/>
<path d="M29.8115 12.7941H29.8205C30.103 12.7941 30.3549 12.615 30.447 12.3485L31.9374 8.03429C32.0853 7.60571 31.7659 7.15869 31.3104 7.15869C31.0278 7.15869 30.7769 7.33731 30.6843 7.60287L29.1854 11.9171C29.0365 12.3466 29.356 12.7941 29.8115 12.7941Z" fill="#0EB95E"/>
<path d="M32.5896 8.55268C32.4758 8.89527 32.6487 9.26668 32.9842 9.40183L33.8735 9.75953L32.9851 10.1163C32.6487 10.2514 32.4758 10.6238 32.5896 10.9669C32.7158 11.3463 33.1411 11.5381 33.5106 11.3813L35.5113 10.5317C35.8218 10.3993 36.0235 10.0955 36.0235 9.75953C36.0235 9.42262 35.8218 9.11831 35.5108 8.98647L33.5092 8.13827C33.1401 7.98234 32.7158 8.17324 32.5896 8.55268Z" fill="#0EB95E"/>
<path d="M22.9994 51.4199H2.73337C2.19941 51.4199 1.76562 50.9866 1.76562 50.4521V39.6826C1.76562 38.4895 2.73621 37.5184 3.92935 37.5184H21.8029C22.996 37.5184 23.9666 38.4895 23.9666 39.6826V50.4521C23.9671 50.9866 23.5343 51.4199 22.9994 51.4199ZM3.70112 49.4844H22.0316V39.6826C22.0316 39.5565 21.9291 39.4539 21.8034 39.4539H3.92935C3.80366 39.4539 3.70112 39.5565 3.70112 39.6826V49.4844Z" fill="#0EB95E"/>
<path d="M24.3867 57.0969H1.2959C0.997262 57.0969 0.715633 56.9594 0.53229 56.7236C0.348947 56.4883 0.284683 56.1811 0.357453 55.8919L1.79253 50.2149C1.90074 49.7854 2.28728 49.4844 2.73051 49.4844H22.9965C23.4421 49.4844 23.831 49.7892 23.9364 50.222L25.3266 55.8985C25.397 56.1877 25.3313 56.493 25.1479 56.7259C24.9646 56.9603 24.6839 57.0969 24.3867 57.0969ZM2.53866 55.1614H23.1534L22.2376 51.4199H3.4842L2.53866 55.1614Z" fill="#0EB95E"/>
<path d="M57.9686 51.4199H37.7021C37.1677 51.4199 36.7344 50.9866 36.7344 50.4521V39.6826C36.7344 38.4895 37.7054 37.5184 38.8986 37.5184H56.7721C57.9653 37.5184 58.9363 38.4895 58.9363 39.6826V50.4521C58.9363 50.9866 58.503 51.4199 57.9686 51.4199ZM38.6699 49.4844H57.0008V39.6826C57.0008 39.5565 56.8983 39.4539 56.7721 39.4539H38.8986C38.7724 39.4539 38.6699 39.5565 38.6699 39.6826V49.4844Z" fill="#0EB95E"/>
<path d="M59.3635 57.0969H36.2727C35.974 57.0969 35.6924 56.9594 35.5091 56.7236C35.3257 56.4883 35.261 56.1816 35.3342 55.8919L36.7688 50.2149C36.878 49.7854 37.264 49.4844 37.7073 49.4844H57.9737C58.4198 49.4844 58.8078 49.7892 58.9136 50.222L60.3033 55.8985C60.3737 56.1877 60.3081 56.493 60.1247 56.7259C59.9414 56.9603 59.6607 57.0969 59.3635 57.0969ZM37.5154 55.1614H58.1306L57.2144 51.4199H38.461L37.5154 55.1614Z" fill="#0EB95E"/>
<path d="M48.1512 32.9954C47.6172 32.9954 47.1834 32.562 47.1834 32.0276V29.6456H34.8584C34.3239 29.6456 33.8906 29.2123 33.8906 28.6778C33.8906 28.1439 34.3239 27.7101 34.8584 27.7101H48.1512C48.6856 27.7101 49.1189 28.1439 49.1189 28.6778V32.0276C49.1189 32.5625 48.6856 32.9954 48.1512 32.9954Z" fill="#0EB95E"/>
<path d="M13.0068 31.5749C12.4724 31.5749 12.0391 31.1412 12.0391 30.6072V28.6783C12.0391 28.1444 12.4724 27.7106 13.0068 27.7106H26.2996C26.8341 27.7106 27.2674 28.1444 27.2674 28.6783C27.2674 29.2128 26.8341 29.6461 26.2996 29.6461H13.9746V30.6072C13.9746 31.1412 13.5412 31.5749 13.0068 31.5749Z" fill="#0EB95E"/>
<path d="M33.6549 31.6076H27.5105C26.3117 31.6076 25.3359 30.6323 25.3359 29.4335V27.9228C25.3359 26.723 26.3117 25.7482 27.5105 25.7482H33.6549C34.8537 25.7482 35.829 26.7235 35.829 27.9228V29.4335C35.829 30.6327 34.8537 31.6076 33.6549 31.6076ZM27.5105 27.6837C27.3792 27.6837 27.2714 27.7909 27.2714 27.9228V29.4335C27.2714 29.5648 27.3792 29.6721 27.5105 29.6721H33.6549C33.7858 29.6721 33.8935 29.5648 33.8935 29.4335V27.9228C33.8935 27.7909 33.7858 27.6837 33.6549 27.6837H27.5105Z" fill="#0EB95E"/>
<path d="M30.5849 27.6836C30.0505 27.6836 29.6172 27.2498 29.6172 26.7159V21.0228C29.6172 20.4888 30.0505 20.0551 30.5849 20.0551C31.1194 20.0551 31.5527 20.4888 31.5527 21.0228V26.7159C31.5517 27.2498 31.1194 27.6836 30.5849 27.6836Z" fill="#0EB95E"/>
<path d="M13.0091 35.8953C11.5438 35.8953 10.3516 34.6964 10.3516 33.2236C10.3516 31.7502 11.5433 30.5514 13.0091 30.5514C14.4749 30.5514 15.6666 31.7502 15.6666 33.2236C15.6666 34.6964 14.4749 35.8953 13.0091 35.8953ZM13.0091 32.4864C12.6107 32.4864 12.2871 32.8167 12.2871 33.2231C12.2871 33.629 12.6107 33.9593 13.0091 33.9593C13.4074 33.9593 13.7311 33.629 13.7311 33.2231C13.7311 32.8167 13.4074 32.4864 13.0091 32.4864Z" fill="#0EB95E"/>
<path d="M48.1571 36.4042C46.6917 36.4042 45.5 35.2054 45.5 33.7325C45.5 32.2596 46.6917 31.0603 48.1571 31.0603C49.6224 31.0603 50.8146 32.2596 50.8146 33.7325C50.8146 35.2054 49.6224 36.4042 48.1571 36.4042ZM48.1571 32.9953C47.7592 32.9953 47.4355 33.3261 47.4355 33.732C47.4355 34.1379 47.7592 34.4682 48.1571 34.4682C48.5554 34.4682 48.8791 34.1379 48.8791 33.732C48.8791 33.3261 48.5554 32.9953 48.1571 32.9953Z" fill="#0EB95E"/>
</g>
<defs>
<clipPath id="clip0_1182_59600">
<rect width="60" height="60" fill="white" transform="translate(0.328125)"/>
</clipPath>
</defs>
</svg>
