<svg width="60" height="61" viewBox="0 0 60 61" fill="none" xmlns="http://www.w3.org/2000/svg">
<path d="M49.7172 41.5675C49.2427 41.4366 48.7468 41.4023 48.2588 41.4667C47.7708 41.5311 47.3008 41.6929 46.8766 41.9425L38.6922 46.6675C38.7171 46.5186 38.7327 46.3684 38.7391 46.2175C38.7367 45.9462 38.7053 45.6759 38.6453 45.4113C43.1788 43.5215 46.969 40.1997 49.437 35.9533C51.9049 31.7068 52.915 26.7692 52.3129 21.8947C51.7107 17.0202 49.5295 12.4768 46.1023 8.95862C42.6751 5.4404 38.1905 3.14077 33.3335 2.41103C28.4764 1.68129 23.5141 2.56156 19.2044 4.91736C14.8947 7.27316 11.4746 10.975 9.46666 15.4573C7.4587 19.9397 6.97323 24.9561 8.08441 29.7403C9.19559 34.5245 11.8423 38.8134 15.6203 41.9519C15.5466 41.9857 15.4746 42.0233 15.4047 42.0644L13.1641 43.405H7.50156V45.28H13.4266C13.5948 45.28 13.76 45.2347 13.9047 45.1488L16.3703 43.6675C17.6812 42.8803 19.1819 42.4654 20.7109 42.4675H21.9297C23.002 42.4681 24.0644 42.6716 25.0609 43.0675L28.0797 44.2769C28.1894 44.323 28.3076 44.3454 28.4266 44.3425H34.9891C35.4863 44.3425 35.9633 44.5401 36.3149 44.8917C36.6665 45.2433 36.8641 45.7203 36.8641 46.2175C36.8641 46.7148 36.6665 47.1917 36.3149 47.5434C35.9633 47.895 35.4863 48.0925 34.9891 48.0925H25.3141V49.9675H35.4672C36.29 49.9671 37.0982 49.7505 37.8109 49.3394L47.8141 43.5644C48.027 43.4395 48.2628 43.3585 48.5076 43.3263C48.7523 43.2941 49.0011 43.3113 49.2391 43.3769C49.5961 43.4738 49.9165 43.6742 50.1599 43.9528C50.4034 44.2314 50.5589 44.5758 50.607 44.9426C50.6551 45.3095 50.5937 45.6823 50.4303 46.0143C50.267 46.3462 50.0091 46.6225 49.6891 46.8082L36.9109 54.1957C34.3147 55.6989 31.3048 56.3298 28.3234 55.9957L16.3422 54.6644C16.2738 54.655 16.2044 54.655 16.1359 54.6644L7.39844 55.6019L7.60469 57.4582L16.2391 56.5394L28.1172 57.8519C28.7086 57.919 29.3032 57.9534 29.8984 57.955C32.6902 57.9529 35.4321 57.2157 37.8484 55.8175L50.6266 48.4394C51.4876 47.9404 52.1153 47.1201 52.372 46.1586C52.6286 45.197 52.4931 44.173 51.9953 43.3113C51.7514 42.8832 51.4241 42.5083 51.0328 42.2088C50.6415 41.9093 50.1942 41.6912 49.7172 41.5675ZM50.6266 24.655C50.6175 28.6518 49.4483 32.56 47.2609 35.905L45.9391 34.5832V31.5269C45.9383 31.1213 45.8068 30.7268 45.5641 30.4019L43.1266 27.1582V24.13C43.1236 23.631 42.925 23.153 42.5734 22.7988L41.3922 21.6269C41.1492 21.3775 40.8416 21.2007 40.5038 21.1162C40.1661 21.0318 39.8114 21.043 39.4797 21.1488L37.4641 21.805L34.5203 21.0925L33.8172 18.2707L35.1953 16.2175H38.1578L40.5672 17.8207C40.7731 17.957 41.0017 18.0554 41.2422 18.1113L45.4422 18.955C45.8804 19.0233 46.3288 18.9441 46.7172 18.73L49.2578 17.2769C50.1631 19.6314 50.6271 22.1325 50.6266 24.655ZM41.6359 7.63941C43.05 8.60712 44.338 9.74714 45.4703 11.0332L44.9359 11.3894L41.9922 9.91753C41.5906 9.71027 41.1272 9.65693 40.6891 9.76754L37.6703 10.5175L35.9828 9.40191L37.0703 7.78004H40.9703C41.1991 7.77587 41.425 7.72815 41.6359 7.63941ZM24.5453 4.77066L25.2016 5.94254C25.3356 6.19581 25.5264 6.41471 25.7589 6.58219C25.9914 6.74968 26.2595 6.86123 26.5422 6.90816L30.2922 7.52691L29.4203 8.83004L26.3266 9.60816C25.9172 9.71164 25.5562 9.95341 25.3047 10.2925L22.8203 13.6019L19.3797 15.3269L15.5734 16.0863C15.1482 16.1708 14.7654 16.4001 14.4902 16.7352C14.215 17.0702 14.0644 17.4902 14.0641 17.9238V19.4613C14.0641 19.7717 14.1412 20.0772 14.2885 20.3505C14.4358 20.6238 14.6486 20.8562 14.9078 21.0269L16.8766 22.3488V24.0832L12.7984 22.0394L10.2391 18.7582C11.2487 15.4084 13.0902 12.3689 15.5918 9.92304C18.0934 7.47718 21.1737 5.70462 24.5453 4.77066ZM25.3141 40.2363V41.1738C24.7342 40.9734 24.1383 40.8228 23.5328 40.7238L22.5016 37.6394V34.6113C22.5044 34.263 22.4092 33.9209 22.2269 33.6242C22.0445 33.3274 21.7823 33.088 21.4703 32.9332L20.2516 32.3238L18.7516 30.8332V28.0019L22.3609 25.8082L24.3578 27.8332C24.5329 28.0143 24.7427 28.1583 24.9746 28.2565C25.2065 28.3548 25.4559 28.4053 25.7078 28.405H28.5578L29.8516 30.3644C30.0212 30.6254 30.2532 30.84 30.5265 30.989C30.7998 31.1379 31.1059 31.2165 31.4172 31.2175H32.5141L31.9891 33.3269L30.3578 33.8613C29.9864 33.9869 29.6632 34.2249 29.4331 34.5424C29.203 34.8599 29.0773 35.2411 29.0734 35.6332L29.0641 37.1988L26.3453 38.5582C26.0333 38.713 25.7711 38.9524 25.5888 39.2492C25.4064 39.5459 25.3112 39.888 25.3141 40.2363ZM37.7828 43.7425C37.4345 43.3436 37.0052 43.0236 36.5235 42.8037C36.0417 42.5839 35.5186 42.4692 34.9891 42.4675H28.6047L27.1891 41.905V40.2269L29.8984 38.8769C30.208 38.7231 30.469 38.4867 30.6526 38.1939C30.8363 37.9011 30.9354 37.5632 30.9391 37.2175L30.9484 35.6425L32.5797 35.1082C32.8796 35.0071 33.1493 34.8321 33.3639 34.5995C33.5785 34.3669 33.7312 34.084 33.8078 33.7769L34.3328 31.6769C34.4027 31.4002 34.4086 31.1112 34.3499 30.8318C34.2911 30.5525 34.1694 30.2903 33.994 30.0652C33.8186 29.84 33.5941 29.6579 33.3376 29.5327C33.0812 29.4074 32.7995 29.3424 32.5141 29.3425H31.4266L30.1234 27.3644C29.951 27.1075 29.7179 26.8971 29.4449 26.7516C29.1719 26.6061 28.8672 26.53 28.5578 26.53H25.7078L23.6922 24.4863C23.3915 24.1897 23.0005 24.002 22.5811 23.9527C22.1616 23.9035 21.7378 23.9956 21.3766 24.2144L17.7578 26.4175C17.4876 26.5864 17.2649 26.8214 17.1107 27.1002C16.9565 27.3791 16.8759 27.6926 16.8766 28.0113V30.8332C16.8778 31.328 17.073 31.8026 17.4203 32.155L18.9203 33.655C19.0656 33.7906 19.2298 33.9043 19.4078 33.9925L20.6266 34.6113V37.6394C20.6319 37.8426 20.6634 38.0443 20.7203 38.2394L21.5078 40.5925H20.7109C19.6474 40.5998 18.5913 40.7705 17.5797 41.0988C15.0348 39.178 12.9697 36.6936 11.5465 33.8405C10.1232 30.9875 9.38046 27.8434 9.37656 24.655C9.37937 23.4641 9.48286 22.2754 9.68594 21.1019L11.3078 23.1738C11.4797 23.3991 11.701 23.5819 11.9547 23.7082L16.0422 25.7613C16.3014 25.8903 16.587 25.9577 16.8766 25.9582C17.2282 25.9545 17.5721 25.854 17.8703 25.6675C18.1413 25.4995 18.3647 25.2647 18.519 24.9857C18.6733 24.7066 18.7534 24.3927 18.7516 24.0738V22.3488C18.7515 22.0384 18.6744 21.7328 18.5271 21.4596C18.3799 21.1863 18.1671 20.9539 17.9078 20.7832L15.9391 19.4613V17.9238L19.7734 17.1644C19.9292 17.1248 20.0801 17.0682 20.2234 16.9957L23.6641 15.28C23.9275 15.1563 24.1538 14.9656 24.3203 14.7269L26.7953 11.4175L29.8609 10.6488C30.3196 10.5495 30.7205 10.2732 30.9766 9.88003L31.8578 8.56754C32.0285 8.30457 32.1315 8.00348 32.1577 7.69106C32.1839 7.37865 32.1324 7.06461 32.0078 6.77691C31.8829 6.49169 31.689 6.24207 31.4435 6.05057C31.1979 5.85907 30.9086 5.73173 30.6016 5.68004L26.8516 5.05191L26.4484 4.33941C27.622 4.13674 28.8106 4.03325 30.0016 4.03004C32.9627 4.02913 35.889 4.66876 38.5797 5.90504H37.0703C36.7609 5.90497 36.4563 5.98105 36.1832 6.12656C35.9102 6.27207 35.6772 6.48255 35.5047 6.73941L34.4172 8.36129C34.1467 8.77579 34.0511 9.28043 34.1512 9.76515C34.2513 10.2499 34.539 10.6753 34.9516 10.9488L36.6391 12.0738C36.8545 12.2212 37.0989 12.3208 37.356 12.3661C37.6131 12.4114 37.8769 12.4012 38.1297 12.3363L41.1391 11.5863L44.0922 13.0582C44.3525 13.1944 44.6421 13.2652 44.9359 13.2644C45.3037 13.2626 45.6626 13.1517 45.9672 12.9457L46.6516 12.4957C47.3581 13.4566 47.9763 14.4795 48.4984 15.5519L45.7797 17.1082L41.6172 16.2738L39.2078 14.6707C38.8991 14.4576 38.5329 14.3432 38.1578 14.3425H35.1953C34.8859 14.3425 34.5813 14.4185 34.3082 14.5641C34.0352 14.7096 33.8022 14.92 33.6297 15.1769L32.2422 17.2488C32.106 17.4657 32.0151 17.7079 31.9748 17.9608C31.9346 18.2137 31.9458 18.4722 32.0078 18.7207L32.7016 21.5425C32.7844 21.8748 32.9566 22.178 33.1996 22.4193C33.4425 22.6606 33.7469 22.8307 34.0797 22.9113L36.9859 23.6144C37.3343 23.7083 37.7024 23.6985 38.0453 23.5863L40.0609 22.9394L41.2516 24.13V27.1582C41.2523 27.5637 41.3838 27.9583 41.6266 28.2832L44.0641 31.5269V34.5832C44.0653 35.078 44.2605 35.5526 44.6078 35.905L46.1547 37.4425C43.9583 40.2337 41.073 42.4049 37.7828 43.7425Z" fill="#0EB95E"/>
</svg>
