<svg width="72" height="48" viewBox="0 0 72 48" fill="none" xmlns="http://www.w3.org/2000/svg">
<path d="M26.9568 47.4104C22.6867 47.4104 18.4167 47.4104 14.1466 47.4104C13.4124 47.4104 13.4223 47.4045 13.085 46.778C12.8053 46.2626 12.4997 45.7631 12.206 45.2556C11.6604 44.3081 11.1167 43.3585 10.569 42.413C10.0769 41.5625 9.5789 40.7161 9.08681 39.8657C8.53122 38.9062 7.97961 37.9428 7.42403 36.9834C7.01924 36.2836 6.61247 35.5858 6.20769 34.8861C5.66203 33.9385 5.11637 32.991 4.5707 32.0434C4.17584 31.3575 3.77701 30.6717 3.38215 29.9858C2.82061 29.0105 2.25908 28.0372 1.69754 27.0619C1.30863 26.3898 0.919722 25.7178 0.530813 25.0458C0.380012 24.7861 0.231195 24.5225 0.0724568 24.2688C-0.0227862 24.1161 -0.0227864 23.9734 0.0645197 23.8227C0.175637 23.6304 0.284769 23.4382 0.395886 23.2459C1.2868 21.6937 2.17574 20.1376 3.07063 18.5874C3.68971 17.517 4.32267 16.4564 4.94175 15.386C5.61639 14.2204 6.27714 13.0468 6.94781 11.8792C7.4776 10.9594 8.01731 10.0456 8.54908 9.12578C9.09475 8.17823 9.63247 7.22671 10.1781 6.27916C10.7079 5.35937 11.2456 4.44353 11.7794 3.52572C12.2794 2.66142 12.7894 1.80308 13.2715 0.930853C13.4164 0.667204 13.6049 0.583947 13.8847 0.589894C14.5196 0.599805 15.1546 0.593858 15.7895 0.593858C19.3611 0.593858 22.9328 0.593858 26.5044 0.593858C26.679 0.593858 26.8536 0.595841 27.0262 0.613682C27.1572 0.627558 27.2167 0.742533 27.1651 0.857507C27.1393 0.914995 27.1016 0.966535 27.0699 1.02204C26.6572 1.73568 26.2425 2.44733 25.8297 3.15899C25.2642 4.13231 24.6987 5.10365 24.1332 6.07697C24.0062 6.297 23.8753 6.51308 23.7562 6.73708C23.6411 6.95315 23.4745 7.07209 23.2225 7.06416C23.0955 7.0602 22.9685 7.06416 22.8415 7.06416C21.1747 7.06416 19.508 7.06416 17.8412 7.06416C17.7142 7.06416 17.5872 7.06813 17.4603 7.06615C17.2678 7.06416 17.1329 7.14346 17.0376 7.31592C16.8213 7.70247 16.5912 8.08308 16.3689 8.46567C15.7895 9.46674 15.2121 10.4678 14.6347 11.4709C14.091 12.4184 13.5533 13.3719 13.0057 14.3175C12.3866 15.3879 11.7576 16.4505 11.1385 17.5209C10.5909 18.4665 10.0511 19.418 9.50548 20.3656C9.11856 21.0376 8.72965 21.7116 8.33875 22.3816C8.09073 22.8058 7.84666 23.232 7.58673 23.6483C7.43394 23.8941 7.44585 24.1221 7.58673 24.3619C7.85262 24.8119 8.11453 25.2639 8.37645 25.7178C8.93997 26.6912 9.49953 27.6665 10.063 28.6418C10.4281 29.2721 10.7913 29.9045 11.1564 30.5349C11.6167 31.3298 12.079 32.1247 12.5374 32.9216C13.4144 34.446 14.2875 35.9724 15.1665 37.4968C15.736 38.486 16.3114 39.4692 16.8848 40.4564C16.9245 40.5258 16.9761 40.5872 17.0138 40.6566C17.1229 40.8608 17.2936 40.948 17.5218 40.9361C17.6488 40.9302 17.7757 40.9361 17.9027 40.9361C23.9507 40.9361 29.9986 40.9361 36.0445 40.9361C36.0763 40.9361 36.108 40.9361 36.1398 40.9361C36.7648 40.9342 36.7529 40.956 37.0624 40.4029C37.8006 39.0906 38.5764 37.8021 39.3304 36.4977C40.0051 35.3321 40.6638 34.1566 41.3365 32.991C41.9536 31.9205 42.5865 30.858 43.2056 29.7895C43.7533 28.844 44.291 27.8924 44.8367 26.9429C45.3327 26.0766 45.8208 25.2064 46.3387 24.352C46.4855 24.1102 46.4816 23.9199 46.3486 23.6939C45.9538 23.0258 45.5649 22.3538 45.1779 21.6818C44.6224 20.7224 44.0727 19.759 43.5172 18.7995C43.033 17.963 42.5429 17.1284 42.0587 16.2939C41.4952 15.3205 40.9357 14.3452 40.3702 13.3719C39.9336 12.6186 39.4911 11.8673 39.0526 11.1141C38.755 10.6026 38.7669 10.5828 39.3423 10.5808C41.4536 10.5788 43.5648 10.5808 45.676 10.5808C45.7554 10.5808 45.8347 10.5848 45.9141 10.5828C46.1066 10.5808 46.2415 10.6581 46.3407 10.8286C46.6641 11.3916 46.9975 11.9486 47.3249 12.5116C47.8428 13.4017 48.3587 14.2937 48.8746 15.1838C49.4302 16.1432 49.9818 17.1066 50.5354 18.0661C50.9957 18.861 51.46 19.6559 51.9204 20.4508C52.3886 21.2596 52.8569 22.0684 53.3232 22.8791C53.474 23.1408 53.603 23.4164 53.7756 23.6602C53.9641 23.9238 53.9224 24.1577 53.7736 24.4095C53.5157 24.8456 53.2597 25.2837 53.0057 25.7218C52.4422 26.6951 51.8827 27.6704 51.3191 28.6457C50.9223 29.3316 50.5235 30.0155 50.1266 30.7014C49.573 31.6628 49.0214 32.6243 48.4658 33.5837C47.9817 34.4202 47.4916 35.2528 47.0074 36.0894C46.5629 36.8565 46.1205 37.6257 45.678 38.3948C45.2514 39.1362 44.8228 39.8776 44.3962 40.619C43.8505 41.5665 43.3088 42.516 42.7612 43.4616C42.2691 44.312 41.771 45.1585 41.2789 46.0089C41.0646 46.3796 40.8484 46.7483 40.646 47.125C40.5448 47.3133 40.4079 47.4144 40.1936 47.4084C40.0507 47.4045 39.9078 47.4104 39.765 47.4104C35.4969 47.4104 31.2268 47.4104 26.9568 47.4104Z" fill="#00AEF4"/>
<path d="M45.0745 0.59557C49.3274 0.59557 53.5783 0.59557 57.8312 0.59557C58.5413 0.59557 58.5512 0.589624 58.9142 1.2041C59.4776 2.1595 60.0231 3.12482 60.5765 4.08617C60.9633 4.75812 61.3521 5.43008 61.7409 6.10401C62.1852 6.8731 62.6276 7.64019 63.0719 8.40928C63.4528 9.06736 63.8336 9.72544 64.2145 10.3835C64.6509 11.1367 65.0893 11.89 65.5217 12.6472C65.9323 13.3607 66.335 14.0803 66.7476 14.7938C67.2951 15.7393 67.8485 16.6828 68.396 17.6283C69.3322 19.2458 70.2665 20.8652 71.2028 22.4827C71.4329 22.8811 71.659 23.2815 71.8991 23.672C72.0399 23.9019 72.0359 24.1061 71.8991 24.338C71.3754 25.224 70.8616 26.118 70.3459 27.008C69.7984 27.9534 69.2549 28.9029 68.7094 29.8504C68.3146 30.5362 67.9179 31.222 67.5212 31.9079C66.9598 32.8811 66.3985 33.8563 65.8351 34.8316C65.4384 35.5174 65.0397 36.2012 64.6429 36.8871C64.0895 37.8484 63.5361 38.8098 62.9826 39.7691C62.5859 40.455 62.1872 41.1388 61.7925 41.8247C61.239 42.784 60.6856 43.7474 60.1322 44.7067C59.6561 45.5293 59.1781 46.3519 58.7059 47.1765C58.6187 47.3291 58.4997 47.4104 58.3231 47.4084C58.1962 47.4064 58.0692 47.4104 57.9422 47.4104C53.9274 47.4104 49.9145 47.4104 45.8996 47.4104C45.7251 47.4104 45.5505 47.4064 45.378 47.3827C45.2669 47.3688 45.2193 47.2736 45.257 47.1686C45.2946 47.0655 45.3522 46.9704 45.4077 46.8732C45.9592 45.9119 46.5106 44.9486 47.064 43.9892C47.5699 43.1111 48.0836 42.2369 48.5795 41.3509C48.7561 41.0358 48.9901 40.9248 49.3512 40.9287C50.9063 40.9466 52.4615 40.9366 54.0167 40.9366C54.1436 40.9366 54.2706 40.9267 54.3975 40.9386C54.7228 40.9664 54.9212 40.8256 55.0799 40.5402C55.6353 39.5452 56.2165 38.562 56.7858 37.5749C57.3313 36.6274 57.8669 35.674 58.4144 34.7285C59.0332 33.6581 59.6621 32.5957 60.2809 31.5253C60.8284 30.5798 61.368 29.6284 61.9135 28.6809C62.4431 27.7612 62.9787 26.8434 63.5103 25.9257C63.7959 25.4321 64.0736 24.9326 64.3692 24.445C64.5537 24.1398 64.5477 23.8623 64.3633 23.557C63.8277 22.6591 63.306 21.7532 62.7823 20.8474C62.1396 19.7374 61.5029 18.6234 60.8602 17.5114C60.3286 16.5917 59.791 15.6779 59.2614 14.7582C58.7159 13.8107 58.1763 12.8592 57.6308 11.9137C57.1012 10.994 56.5636 10.0783 56.032 9.16052C55.7384 8.65308 55.4488 8.14367 55.1572 7.63425C55.1414 7.6065 55.1255 7.57875 55.1116 7.551C54.9509 7.19421 54.6911 7.06338 54.2844 7.06338C48.1431 7.07528 42.0038 7.07131 35.8625 7.07131C35.8149 7.07131 35.7673 7.07528 35.7197 7.07131C35.4162 7.04554 35.2178 7.17042 35.069 7.44198C34.7358 8.05447 34.3748 8.6511 34.0257 9.25368C33.0755 10.8989 32.1234 12.5461 31.1752 14.1932C30.2984 15.7175 29.4276 17.2458 28.5469 18.7661C27.5947 20.4113 26.6406 22.0565 25.6726 23.6918C25.5278 23.9376 25.5516 24.1279 25.6825 24.3499C26.1566 25.1546 26.6287 25.9614 27.0988 26.7701C27.6622 27.7433 28.2216 28.7206 28.7849 29.6938C29.4038 30.7622 30.0286 31.8286 30.6475 32.899C31.195 33.8445 31.7405 34.7919 32.284 35.7414C32.5915 36.2766 32.899 36.8137 33.2005 37.3529C33.2877 37.5075 33.2401 37.5927 33.0695 37.6086C32.9585 37.6185 32.8474 37.6165 32.7363 37.6165C30.6416 37.6165 28.5469 37.6165 26.4522 37.6165C26.3569 37.6165 26.2617 37.6145 26.1665 37.6145C25.9939 37.6145 25.861 37.5432 25.7718 37.3945C25.5933 37.0952 25.4108 36.7979 25.2362 36.4966C24.7006 35.563 24.169 34.6254 23.6314 33.6918C23.1018 32.7721 22.5643 31.8583 22.0326 30.9386C21.3899 29.8286 20.7532 28.7146 20.1105 27.6026C19.5789 26.6829 19.0433 25.7671 18.5117 24.8494C18.4006 24.6571 18.3054 24.4549 18.1864 24.2686C18.0694 24.0862 18.0773 23.9257 18.1864 23.7394C18.5097 23.1943 18.8152 22.6393 19.1326 22.0902C19.6801 21.1447 20.2335 20.2012 20.781 19.2557C21.7172 17.6383 22.6535 16.0208 23.5858 14.3994C24.4785 12.8474 25.3651 11.2933 26.2598 9.74327C27.0135 8.44099 27.7792 7.14465 28.533 5.84237C29.4296 4.29231 30.3163 2.73829 31.2069 1.18427C31.2228 1.15652 31.2426 1.13076 31.2545 1.10301C31.435 0.706572 31.7346 0.587642 32.171 0.589624C36.4754 0.601517 40.7759 0.59557 45.0745 0.59557Z" fill="#F65A02"/>
</svg>
