<svg width="72" height="72" viewBox="0 0 72 72" fill="none" xmlns="http://www.w3.org/2000/svg">
<g clip-path="url(#clip0_1343_49728)">
<path d="M41.4348 58.9188C39.2651 58.5071 37.1394 57.6398 35.5841 56.1426C34.8432 55.4301 34.1153 54.6544 33.6042 53.7793C31.3945 49.9847 31.6539 44.9342 36.2759 41.408C35.6202 42.1463 32.8788 45.728 37.0129 49.8801C41.6297 54.3085 48.6575 48.5275 52.0533 41.0815C55.2181 40.6478 58.4087 38.8253 59.5587 33.6406C59.56 33.6393 59.56 33.638 59.56 33.6368C59.56 33.6368 57.2303 33.8781 54.2978 32.2428C56.159 12.8527 38.4378 5.01823 35.7803 3.9547C35.7803 3.9547 35.7803 3.9547 35.779 3.9547C35.7351 3.91727 35.6912 3.87984 35.646 3.84241C35.646 3.84241 35.7519 3.84499 35.9506 3.85402C39.4136 4.70717 58.9585 10.2352 62.5621 27.2569C65.0119 45.2736 55.1226 61.2382 41.4348 58.9188Z" fill="url(#paint0_linear_1343_49728)"/>
<path d="M64.1208 57.5571C59.7763 63.5653 54.7775 66.5507 49.1656 68.5848C43.5523 70.6202 31.4534 68.7436 26.7669 61.1982C22.0804 53.6528 22.9142 45.7499 28.752 40.4155C33.7573 35.5921 44.1203 39.9702 44.3293 40.0592C44.2661 40.0476 44.2029 40.0347 44.1409 40.0244C44.0699 40.0115 43.9976 39.9986 43.9279 39.9869C43.8634 39.9753 43.8002 39.965 43.7382 39.956C43.7163 39.9521 43.6943 39.9482 43.6737 39.9456C43.6053 39.934 43.5381 39.9237 43.4723 39.9147C43.4052 39.9056 43.3394 39.8966 43.2736 39.8876C43.1509 39.8721 43.0309 39.8579 42.9122 39.845C42.8463 39.8372 42.7831 39.8308 42.7186 39.8256C38.822 39.4629 37.0395 40.8659 37.0395 40.8659C36.9569 40.9201 36.8743 40.9756 36.793 41.0311C36.6149 41.1537 36.4419 41.2802 36.2754 41.408C31.6535 44.9342 31.394 49.9846 33.6037 53.7793C34.1148 54.6544 34.8428 55.4301 35.5836 56.1425C37.1389 57.6397 39.2647 58.5071 41.4343 58.9188C55.1221 61.2382 65.0114 45.2736 62.5617 27.2568C58.958 10.2352 39.4131 4.70715 35.9502 3.854C39.2182 4.01534 67.7115 6.2534 69.6579 35.2256C70.3716 44.121 68.1581 51.6638 64.1208 57.5571Z" fill="url(#paint1_linear_1343_49728)"/>
<path d="M64.1251 57.5572C61.7476 61.0317 58.7364 63.9319 55.3174 66.2009C55.3148 66.2035 55.3122 66.2048 55.3096 66.2061C29.5784 81.3382 10.1147 53.9471 22.0846 38.7608C24.8054 35.4437 32.4231 31.7046 44.1916 36.7086C55.8194 41.6532 59.476 33.8278 59.5625 33.6406C57.771 41.7178 51.0271 41.6326 47.1421 40.8556C47.1395 40.8543 47.1357 40.853 47.1318 40.853C47.1279 40.8517 47.1253 40.8517 47.1215 40.8504C47.0982 40.8453 47.075 40.8401 47.0518 40.8337C46.9692 40.8143 46.8879 40.7936 46.8078 40.7717C46.7562 40.7588 46.7046 40.7459 46.6542 40.7317C46.5523 40.7059 46.4529 40.6788 46.3561 40.6517C46.3148 40.6413 46.2735 40.6297 46.2335 40.6181C46.1638 40.5987 46.0954 40.5794 46.0283 40.56C45.8295 40.5032 45.6449 40.449 45.481 40.4C45.4616 40.3935 45.4436 40.3884 45.4255 40.3832C45.4178 40.3806 45.41 40.378 45.4036 40.3755C45.3429 40.3574 45.2861 40.3406 45.2319 40.3225C45.1764 40.3058 45.1235 40.289 45.0731 40.2735C45.0293 40.258 44.988 40.2451 44.9492 40.2335C44.9195 40.2232 44.8924 40.2141 44.8666 40.2064C44.8227 40.1922 44.784 40.1793 44.7505 40.1677C44.7092 40.1547 44.6756 40.1431 44.6498 40.1341C44.6382 40.1302 44.6278 40.1264 44.6201 40.1238C44.6098 40.1199 44.602 40.1173 44.5969 40.116C44.5878 40.1122 44.5827 40.1109 44.5827 40.1109C44.5014 40.0941 44.42 40.0773 44.34 40.0618C44.3387 40.0605 44.3374 40.0605 44.3374 40.0605C44.3362 40.0605 44.3349 40.0605 44.3336 40.0592C44.1245 39.9702 33.7615 35.5922 28.7562 40.4155C22.9184 45.7499 22.0846 53.6528 26.7711 61.1982C31.4576 68.7436 43.5566 70.6203 49.1698 68.5848C54.7817 66.5507 59.7806 63.5653 64.1251 57.5572Z" fill="url(#paint2_linear_1343_49728)"/>
<path d="M59.5625 33.6367C59.5625 33.638 59.5625 33.6393 59.5612 33.6406C59.4747 33.8277 55.8182 41.6532 44.1903 36.7086C32.4218 31.7045 24.8041 35.4437 22.0834 38.7608C10.1135 53.9471 29.5771 81.3381 55.3084 66.2061C51.0194 69.0533 46.0928 70.9029 40.9701 71.6386C40.9701 71.6386 40.9688 71.6386 40.9662 71.6386C23.5999 72.7176 12.2896 60.5593 12.0302 47.3787C11.8172 38.3826 16.7244 33.6703 18.1429 32.2376C24.99 25.3169 31.9868 26.938 39.7517 31.1547C40.6551 31.6452 45.1493 33.8716 46.3355 34.3259C48.5968 35.1907 50.5276 35.7547 52.2662 35.7702C56.8378 35.8115 59.4799 33.7038 59.5612 33.638C59.5625 33.6367 59.5625 33.6367 59.5625 33.6367Z" fill="url(#paint3_linear_1343_49728)"/>
<path d="M59.5616 33.6367C59.5616 33.6367 59.5616 33.6367 59.5603 33.638C56.1877 34.8913 49.782 34.113 42.6935 27.4414C35.605 20.7698 27.444 21.7236 27.444 21.7236C9.45303 21.6759 3.04087 43.9119 8.38176 56.6911C8.90836 57.9508 9.6647 59.3344 10.603 60.7232C-8.16492 41.55 9.48013 19.7411 16.0201 17.8051C16.0201 17.8051 10.3668 8.61795 15.8871 0C15.8871 0 18.5382 3.78689 24.4922 7.11043C24.4922 7.11043 24.4961 7.11172 24.5025 7.11559C24.5102 7.11946 24.5244 7.12591 24.5425 7.13624C24.6987 7.2253 24.86 7.31177 25.0214 7.39954C25.0214 7.39954 25.0252 7.39438 25.033 7.38276C26.0217 7.87839 28.0803 8.90707 28.7476 9.20006C29.6395 9.59114 33.669 11.362 33.8342 11.4342C33.9181 11.4717 34.5299 11.7401 35.103 11.9918C35.5921 12.2061 36.0542 12.4087 36.1381 12.4461C36.142 12.4487 36.1458 12.45 36.1471 12.45C36.151 12.4513 36.1523 12.4526 36.1523 12.4526C36.919 12.8514 38.0096 13.4581 39.2035 14.2441C41.6532 15.8587 44.5353 18.2297 45.937 21.1144C47.3542 23.6558 48.1248 26.0191 49.347 27.6983C50.9953 29.9634 52.7338 31.3716 54.2994 32.2428C57.2319 33.8781 59.5616 33.6367 59.5616 33.6367Z" fill="url(#paint4_linear_1343_49728)"/>
<path d="M35.1012 11.9919C34.5282 11.7402 33.9164 11.4717 33.8325 11.4343C33.6673 11.362 29.6377 9.59118 28.7459 9.2001C28.0786 8.90711 26.0199 7.87843 25.0312 7.3828C25.0312 7.3828 27.4952 3.44103 33.4582 1.4895C33.4582 1.4895 32.7135 7.0782 35.1012 11.9919Z" fill="url(#paint5_linear_1343_49728)"/>
<path d="M25.0295 7.38275C24.7946 7.26401 24.6204 7.17624 24.5391 7.13623L25.0295 7.38275Z" fill="url(#paint6_linear_1343_49728)"/>
<path d="M44.3329 40.0606C44.3316 40.0606 44.3304 40.0606 44.3291 40.0593C44.2658 40.0489 44.2026 40.036 44.1406 40.0244" fill="url(#paint7_linear_1343_49728)"/>
<path d="M35.4297 3.73267C35.4297 3.73267 35.6143 3.77139 35.955 3.85399L35.4297 3.73267Z" fill="url(#paint8_linear_1343_49728)"/>
<path d="M44.5938 40.116C44.5989 40.1173 44.6067 40.1198 44.617 40.1237C44.6247 40.1263 44.6351 40.1302 44.6467 40.134" fill="url(#paint9_linear_1343_49728)"/>
<path d="M45.0692 40.2735C45.0253 40.2593 44.984 40.2451 44.9453 40.2335L45.0692 40.2735Z" fill="url(#paint10_linear_1343_49728)"/>
<path d="M45.3982 40.3754C45.3376 40.3574 45.2808 40.3406 45.2266 40.3225L45.3982 40.3754Z" fill="url(#paint11_linear_1343_49728)"/>
<path d="M46.2287 40.6181C46.159 40.5988 46.0906 40.5794 46.0234 40.5601L46.2287 40.6181Z" fill="url(#paint12_linear_1343_49728)"/>
<path d="M46.6497 40.7316C46.5477 40.7058 46.4484 40.6787 46.3516 40.6516L46.6497 40.7316Z" fill="url(#paint13_linear_1343_49728)"/>
<path d="M47.0486 40.8337C46.966 40.8143 46.8847 40.7937 46.8047 40.7717L47.0486 40.8337Z" fill="url(#paint14_linear_1343_49728)"/>
<path d="M36.4103 41.2686C36.4103 41.2686 36.3613 41.3163 36.2812 41.408L36.4103 41.2686Z" fill="url(#paint15_linear_1343_49728)"/>
<path d="M55.3267 66.1931C55.3215 66.1957 55.3177 66.1983 55.3125 66.2009L55.3267 66.1931Z" fill="url(#paint16_linear_1343_49728)"/>
<path d="M44.3359 40.0618C44.3889 40.0824 45.504 40.5264 47.1174 40.8504L44.3359 40.0618Z" fill="url(#paint17_linear_1343_49728)"/>
<path d="M59.5634 33.6381C59.4821 33.7039 56.84 35.8116 52.2684 35.7703C50.5298 35.7548 48.5989 35.1908 46.3376 34.326C45.1515 33.8717 40.6573 31.6452 39.7538 31.1548C31.989 26.9381 24.9922 25.317 18.145 32.2377C16.7266 33.6703 11.8194 38.3826 12.0323 47.3788C12.2918 60.5593 23.6021 72.7176 40.9684 71.6386C40.9645 71.6399 40.9606 71.6412 40.9542 71.6412C33.9573 72.6441 26.6004 71.5663 20.0204 68.1086C16.1793 65.7273 13.0765 63.2478 10.6061 60.7232C9.66777 59.3345 8.91143 57.9508 8.38483 56.6911C3.04394 43.912 9.4561 21.6759 27.4471 21.7237C27.4471 21.7237 35.6081 20.7699 42.6966 27.4414C49.7851 34.113 56.1908 34.8913 59.5634 33.6381Z" fill="url(#paint18_linear_1343_49728)"/>
<path d="M54.2988 32.2428C52.7332 31.3716 50.9946 29.9635 49.3464 27.6983C48.1241 26.0191 47.3536 23.6558 45.9364 21.1145C45.9364 21.1145 44.6444 11.4227 35.7812 3.95471C38.4388 5.01824 56.16 12.8527 54.2988 32.2428Z" fill="url(#paint19_linear_1343_49728)"/>
<path d="M54.2955 32.2428C54.2942 32.266 54.2916 32.2906 54.2891 32.3138L54.2955 32.2428Z" fill="url(#paint20_linear_1343_49728)"/>
<path d="M35.4531 3.82825C35.4531 3.82825 35.5693 3.86955 35.7823 3.95473L35.4531 3.82825Z" fill="url(#paint21_linear_1343_49728)"/>
</g>
<defs>
<linearGradient id="paint0_linear_1343_49728" x1="47.5968" y1="3.84241" x2="47.5968" y2="59.1438" gradientUnits="userSpaceOnUse">
<stop stop-color="#DBB5B5"/>
<stop offset="1" stop-color="#F1DEDE"/>
</linearGradient>
<linearGradient id="paint1_linear_1343_49728" x1="46.7664" y1="3.854" x2="46.7664" y2="69.3506" gradientUnits="userSpaceOnUse">
<stop stop-color="#FBB602"/>
<stop offset="0.3627" stop-color="#F97E02"/>
<stop offset="1" stop-color="#F51E01"/>
</linearGradient>
<linearGradient id="paint2_linear_1343_49728" x1="41.2969" y1="33.6406" x2="41.2969" y2="70.6227" gradientUnits="userSpaceOnUse">
<stop stop-color="#DBB5B5"/>
<stop offset="1" stop-color="#F1DEDE"/>
</linearGradient>
<linearGradient id="paint3_linear_1343_49728" x1="35.793" y1="27.5172" x2="35.793" y2="71.7054" gradientUnits="userSpaceOnUse">
<stop stop-color="#F1FEFE"/>
<stop offset="1" stop-color="#DAB4B3"/>
</linearGradient>
<linearGradient id="paint4_linear_1343_49728" x1="30.8863" y1="0" x2="30.8863" y2="60.7232" gradientUnits="userSpaceOnUse">
<stop stop-color="#FCC902"/>
<stop offset="1" stop-color="#F77001"/>
</linearGradient>
<linearGradient id="paint5_linear_1343_49728" x1="30.0663" y1="1.4895" x2="30.0663" y2="11.9919" gradientUnits="userSpaceOnUse">
<stop stop-color="#EC7001"/>
<stop offset="1" stop-color="#EC7001"/>
</linearGradient>
<linearGradient id="paint6_linear_1343_49728" x1="24.7843" y1="7.13623" x2="24.7843" y2="7.38275" gradientUnits="userSpaceOnUse">
<stop stop-color="#DBB5B5"/>
<stop offset="1" stop-color="#F1DEDE"/>
</linearGradient>
<linearGradient id="paint7_linear_1343_49728" x1="44.2368" y1="40.0244" x2="44.2368" y2="40.0606" gradientUnits="userSpaceOnUse">
<stop stop-color="#DBB5B5"/>
<stop offset="1" stop-color="#F1DEDE"/>
</linearGradient>
<linearGradient id="paint8_linear_1343_49728" x1="35.6924" y1="3.73267" x2="35.6924" y2="3.85399" gradientUnits="userSpaceOnUse">
<stop stop-color="#DBB5B5"/>
<stop offset="1" stop-color="#F1DEDE"/>
</linearGradient>
<linearGradient id="paint9_linear_1343_49728" x1="44.6202" y1="40.116" x2="44.6202" y2="40.134" gradientUnits="userSpaceOnUse">
<stop stop-color="#DBB5B5"/>
<stop offset="1" stop-color="#F1DEDE"/>
</linearGradient>
<linearGradient id="paint10_linear_1343_49728" x1="45.0073" y1="40.2335" x2="45.0073" y2="40.2735" gradientUnits="userSpaceOnUse">
<stop stop-color="#DBB5B5"/>
<stop offset="1" stop-color="#F1DEDE"/>
</linearGradient>
<linearGradient id="paint11_linear_1343_49728" x1="45.3124" y1="40.3225" x2="45.3124" y2="40.3754" gradientUnits="userSpaceOnUse">
<stop stop-color="#DBB5B5"/>
<stop offset="1" stop-color="#F1DEDE"/>
</linearGradient>
<linearGradient id="paint12_linear_1343_49728" x1="46.1261" y1="40.5601" x2="46.1261" y2="40.6181" gradientUnits="userSpaceOnUse">
<stop stop-color="#DBB5B5"/>
<stop offset="1" stop-color="#F1DEDE"/>
</linearGradient>
<linearGradient id="paint13_linear_1343_49728" x1="46.5007" y1="40.6516" x2="46.5007" y2="40.7316" gradientUnits="userSpaceOnUse">
<stop stop-color="#DBB5B5"/>
<stop offset="1" stop-color="#F1DEDE"/>
</linearGradient>
<linearGradient id="paint14_linear_1343_49728" x1="46.9267" y1="40.7717" x2="46.9267" y2="40.8337" gradientUnits="userSpaceOnUse">
<stop stop-color="#DBB5B5"/>
<stop offset="1" stop-color="#F1DEDE"/>
</linearGradient>
<linearGradient id="paint15_linear_1343_49728" x1="36.3458" y1="41.2686" x2="36.3458" y2="41.408" gradientUnits="userSpaceOnUse">
<stop stop-color="#DBB5B5"/>
<stop offset="1" stop-color="#F1DEDE"/>
</linearGradient>
<linearGradient id="paint16_linear_1343_49728" x1="55.3196" y1="66.1931" x2="55.3196" y2="66.2009" gradientUnits="userSpaceOnUse">
<stop stop-color="#DBB5B5"/>
<stop offset="1" stop-color="#F1DEDE"/>
</linearGradient>
<linearGradient id="paint17_linear_1343_49728" x1="45.7267" y1="40.0618" x2="45.7267" y2="40.8504" gradientUnits="userSpaceOnUse">
<stop stop-color="#DBB5B5"/>
<stop offset="1" stop-color="#F1DEDE"/>
</linearGradient>
<linearGradient id="paint18_linear_1343_49728" x1="33.063" y1="21.6765" x2="33.063" y2="71.9997" gradientUnits="userSpaceOnUse">
<stop stop-color="#EA7901"/>
<stop offset="1" stop-color="#F75D01"/>
</linearGradient>
<linearGradient id="paint19_linear_1343_49728" x1="45.1084" y1="3.95471" x2="45.1084" y2="32.2428" gradientUnits="userSpaceOnUse">
<stop stop-color="#DBB5B5"/>
<stop offset="1" stop-color="#F0FBFB"/>
</linearGradient>
<linearGradient id="paint20_linear_1343_49728" x1="54.2923" y1="32.2428" x2="54.2923" y2="32.3138" gradientUnits="userSpaceOnUse">
<stop stop-color="#DBB5B5"/>
<stop offset="1" stop-color="#F1DEDE"/>
</linearGradient>
<linearGradient id="paint21_linear_1343_49728" x1="35.6177" y1="3.82825" x2="35.6177" y2="3.95473" gradientUnits="userSpaceOnUse">
<stop stop-color="#DBB5B5"/>
<stop offset="1" stop-color="#F1DEDE"/>
</linearGradient>
<clipPath id="clip0_1343_49728">
<rect width="67.582" height="72" fill="white" transform="translate(2.21094)"/>
</clipPath>
</defs>
</svg>
