<svg width="61" height="60" viewBox="0 0 61 60" fill="none" xmlns="http://www.w3.org/2000/svg">
<g clip-path="url(#clip0_1182_59686)">
<path d="M24.3359 12.0209V13.0204C24.3359 14.6765 25.6786 16.0191 27.3346 16.0191H33.332C34.9881 16.0191 36.3307 14.6765 36.3307 13.0204V12.0209C36.326 10.4612 35.4148 9.04669 33.9968 8.39752C35.8414 6.40983 35.7644 3.31368 33.8232 1.42016C31.882 -0.473347 28.7849 -0.473347 26.8437 1.42016C24.9025 3.31368 24.8255 6.40983 26.6701 8.39752C25.2517 9.04669 24.3406 10.4612 24.3359 12.0209ZM30.3333 2.02529C31.9894 2.02529 33.332 3.36791 33.332 5.02398C33.332 6.68006 31.9895 8.02268 30.3333 8.02268C28.6771 8.02268 27.3346 6.68006 27.3346 5.02398C27.3346 3.36791 28.6771 2.02529 30.3333 2.02529ZM26.335 12.0209C26.335 10.9168 27.23 10.0217 28.3342 10.0217H32.3324C33.4365 10.0217 34.3315 10.9168 34.3315 12.0209V13.0204C34.3315 13.5725 33.884 14.0199 33.332 14.0199H27.3346C26.7826 14.0199 26.3351 13.5724 26.3351 13.0204V12.0209H26.335Z" fill="#0EB95E"/>
<path d="M24.3359 56.0018V57.0013C24.3359 58.6574 25.6786 60 27.3346 60H33.332C34.9881 60 36.3307 58.6574 36.3307 57.0013V56.0018C36.326 54.4421 35.4148 53.0276 33.9968 52.3784C35.8414 50.3907 35.7644 47.2946 33.8232 45.4011C31.882 43.5075 28.7849 43.5075 26.8437 45.4011C24.9025 47.2946 24.8255 50.3907 26.6701 52.3784C25.2517 53.0276 24.3406 54.4421 24.3359 56.0018ZM30.3333 46.0061C31.9894 46.0061 33.332 47.3487 33.332 49.0048C33.332 50.6608 31.9895 52.0035 30.3333 52.0035C28.6771 52.0035 27.3346 50.6608 27.3346 49.0048C27.3346 47.3487 28.6771 46.0061 30.3333 46.0061ZM26.335 56.0018C26.335 54.8977 27.23 54.0026 28.3342 54.0026H32.3324C33.4365 54.0026 34.3315 54.8977 34.3315 56.0018V57.0013C34.3315 57.5534 33.884 58.0008 33.332 58.0008H27.3346C26.7826 58.0008 26.3351 57.5534 26.3351 57.0013V56.0018H26.335Z" fill="#0EB95E"/>
<path d="M3.34244 37.01H9.33983C10.9959 37.01 12.3385 35.6673 12.3385 34.0113V33.0117C12.3338 31.4521 11.4226 30.0375 10.0046 29.3884C11.5188 27.7449 11.756 25.2953 10.5852 23.3919C9.41445 21.4886 7.12127 20.5953 4.97146 21.2053C2.82177 21.8155 1.33953 23.7802 1.34328 26.0148C1.34679 27.2674 1.82342 28.4724 2.67769 29.3884C1.25952 30.0375 0.348435 31.4521 0.34375 33.0117V34.0113C0.34375 34.8066 0.659667 35.5693 1.22204 36.1317C1.78441 36.694 2.54709 37.01 3.34244 37.01ZM6.34114 23.0161C7.99721 23.0161 9.33983 24.3588 9.33983 26.0148C9.33983 27.6709 7.99721 29.0135 6.34114 29.0135C4.68506 29.0135 3.34244 27.6709 3.34244 26.0148C3.34244 24.3588 4.68495 23.0161 6.34114 23.0161ZM2.3428 33.0117C2.3428 31.9076 3.23784 31.0126 4.34197 31.0126H8.34019C9.44432 31.0126 10.3394 31.9076 10.3394 33.0117V34.0113C10.3394 34.5633 9.89178 35.0108 9.33983 35.0108H3.34244C2.79038 35.0108 2.34292 34.5633 2.34292 34.0113V33.0117H2.3428Z" fill="#0EB95E"/>
<path d="M57.9809 29.3884C59.8256 27.4007 59.7485 24.3045 57.8073 22.411C55.8661 20.5175 52.769 20.5175 50.8279 22.411C48.8867 24.3045 48.8096 27.4007 50.6543 29.3884C49.2361 30.0375 48.325 31.4521 48.3203 33.0117V34.0113C48.3203 35.6673 49.6629 37.01 51.319 37.01H57.3164C58.9725 37.01 60.3151 35.6673 60.3151 34.0113V33.0117C60.3103 31.4521 59.3991 30.0375 57.9809 29.3884ZM54.3176 23.0161C55.9737 23.0161 57.3163 24.3588 57.3163 26.0148C57.3163 27.6709 55.9737 29.0135 54.3176 29.0135C52.6615 29.0135 51.3189 27.6709 51.3189 26.0148C51.3189 24.3588 52.6614 23.0161 54.3176 23.0161ZM58.3158 34.0113C58.3158 34.5633 57.8683 35.0108 57.3163 35.0108H51.3189C50.7668 35.0108 50.3194 34.5633 50.3194 34.0113V33.0117C50.3194 31.9076 51.2144 31.0126 52.3185 31.0126H56.3168C57.4209 31.0126 58.3159 31.9076 58.3159 33.0117L58.3158 34.0113Z" fill="#0EB95E"/>
<path d="M18.3359 30.0131C18.3359 36.6376 23.7062 42.0078 30.3307 42.0078C36.9552 42.0078 42.3255 36.6376 42.3255 30.0131C42.3255 23.3885 36.9552 18.0183 30.3307 18.0183C23.7091 18.0254 18.3431 23.3914 18.3359 30.0131ZM30.3307 20.0174C31.0574 20.0174 32.01 21.5018 32.6437 24.0157H28.0177C28.6514 21.5018 29.604 20.0174 30.3307 20.0174ZM33.0415 26.0148C33.1888 27.0084 33.2787 28.0097 33.3103 29.0135H27.3509C27.3826 28.0097 27.4723 27.0084 27.6197 26.0148H33.0415ZM40.2754 29.0135H35.3105C35.2786 28.0104 35.1948 27.0094 35.0596 26.0148H39.4858C39.905 26.9666 40.1715 27.9786 40.2754 29.0135ZM30.3307 40.0087C29.604 40.0087 28.6514 38.5243 28.0177 36.0104H32.6437C32.01 38.5243 31.0573 40.0087 30.3307 40.0087ZM27.6198 34.0113C27.4725 33.0177 27.3826 32.0164 27.351 31.0126H33.3104C33.2787 32.0164 33.189 33.0177 33.0416 34.0113H27.6198ZM20.3859 31.0126H25.3508C25.3828 32.0157 25.4665 33.0167 25.6017 34.0113H21.1756C20.7563 33.0595 20.4898 32.0475 20.3859 31.0126ZM35.3105 31.0126H40.2754C40.1715 32.0475 39.905 33.0594 39.4858 34.0113H35.0596C35.1947 33.0168 35.2784 32.0159 35.3105 31.0126ZM25.3508 29.0135H20.3859C20.4898 27.9786 20.7563 26.9667 21.1756 26.0148H25.6017C25.4666 27.0094 25.3829 28.0103 25.3508 29.0135ZM22.3521 36.0104H25.9565C26.2077 37.2137 26.6107 38.3802 27.156 39.4819C25.2416 38.8355 23.5674 37.6254 22.353 36.0104H22.3521ZM33.5072 39.4819C34.0514 38.3801 34.4534 37.2136 34.7037 36.0104H38.3081C37.0945 37.6249 35.4215 38.835 33.5082 39.4819H33.5072ZM38.3082 24.0157H34.7038C34.4525 22.8123 34.0494 21.6459 33.5043 20.5442C35.419 21.1905 37.0936 22.4006 38.3082 24.0157ZM27.153 20.5442C26.6092 21.6461 26.2075 22.8126 25.9575 24.0157H22.3531C23.5667 22.4012 25.2397 21.1912 27.153 20.5442Z" fill="#0EB95E"/>
<path d="M11.3353 55.0021H21.3309C21.883 55.0021 22.3304 54.5545 22.3304 54.0026C22.3304 53.4507 21.8829 53.0031 21.3309 53.0031H11.3353C9.12716 53.0031 7.33708 51.213 7.33708 49.0049V43.4213L8.62956 44.7138C9.02173 45.0926 9.64525 45.0872 10.0307 44.7016C10.4162 44.316 10.4217 43.6926 10.0429 43.3004L7.04423 40.3017C6.65394 39.9115 6.02116 39.9115 5.63087 40.3017L2.63217 43.3004C2.25335 43.6926 2.25874 44.3161 2.64435 44.7016C3.02997 45.0871 3.65337 45.0926 4.04554 44.7138L5.33802 43.4213V49.0049C5.34119 52.3157 8.02443 54.9988 11.3353 55.0021Z" fill="#0EB95E"/>
<path d="M49.3233 5.02399H39.3276C38.7756 5.02399 38.3281 5.47157 38.3281 6.02351C38.3281 6.57546 38.7756 7.02304 39.3276 7.02304H49.3233C51.5314 7.02304 53.3215 8.81312 53.3215 11.0213V14.6058L52.029 13.3133C51.6368 12.9344 51.0133 12.9398 50.6278 13.3254C50.2423 13.7111 50.2368 14.3345 50.6156 14.7266L53.6143 17.7253C54.0046 18.1155 54.6374 18.1155 55.0277 17.7253L58.0264 14.7266C58.4052 14.3345 58.3998 13.7109 58.0142 13.3254C57.6286 12.9398 57.0052 12.9344 56.613 13.3133L55.3205 14.6058V11.0214C55.3174 7.71039 52.6341 5.02727 49.3233 5.02399Z" fill="#0EB95E"/>
<path d="M5.34375 11.0214V17.0188C5.34375 17.5708 5.79133 18.0183 6.34328 18.0183C6.89522 18.0183 7.3428 17.5708 7.3428 17.0188V11.0214C7.3428 8.81325 9.13288 7.02317 11.341 7.02317H18.9237L17.6314 8.31553C17.3716 8.56644 17.2673 8.93811 17.3588 9.28765C17.4503 9.63719 17.7232 9.91 18.0726 10.0015C18.4222 10.093 18.7937 9.98871 19.0447 9.7289L22.0434 6.73021C22.4336 6.33991 22.4336 5.70714 22.0434 5.31684L19.0447 2.31815C18.6526 1.93933 18.029 1.94471 17.6435 2.33033C17.2579 2.71594 17.2525 3.33934 17.6314 3.73151L18.9239 5.024H11.3411C8.03027 5.02728 5.34703 7.71041 5.34375 11.0214Z" fill="#0EB95E"/>
<path d="M44.0328 50.2972C43.6425 49.9071 43.0098 49.9071 42.6195 50.2972L39.6208 53.2959C39.2306 53.6862 39.2306 54.319 39.6208 54.7093L42.6195 57.708C43.0116 58.0868 43.6351 58.0814 44.0206 57.6958C44.4063 57.3102 44.4116 56.6868 44.0328 56.2946L42.7403 55.0021H49.3235C52.6344 54.9989 55.3176 52.3156 55.3209 49.0048V41.0083C55.3209 40.4562 54.8733 40.0088 54.3214 40.0088C53.7694 40.0088 53.3219 40.4564 53.3219 41.0083V49.0049C53.3219 51.213 51.5318 53.0031 49.3236 53.0031H42.7405L44.0329 51.7106C44.423 51.3203 44.423 50.6875 44.0328 50.2972Z" fill="#0EB95E"/>
</g>
<defs>
<clipPath id="clip0_1182_59686">
<rect width="60" height="60" fill="white" transform="translate(0.328125)"/>
</clipPath>
</defs>
</svg>
