<svg width="60" height="61" viewBox="0 0 60 61" fill="none" xmlns="http://www.w3.org/2000/svg">
<mask id="mask0_1265_65978" style="mask-type:luminance" maskUnits="userSpaceOnUse" x="0" y="0" width="60" height="61">
<path d="M0 0.280033H60V60.28H0V0.280033Z" fill="white"/>
</mask>
<g mask="url(#mask0_1265_65978)">
<path d="M59.5273 29.0806L43.121 11.5025C42.0325 10.3361 40.0781 11.1065 40.0781 12.7019V17.9753H30.6109L17.0633 4.42765C16.7337 4.098 16.2866 3.91284 15.8203 3.91284H1.75781C0.787031 3.91284 0 4.69987 0 5.67065C0 6.64143 0.787031 7.42847 1.75781 7.42847H15.0922L28.6398 20.976C28.9695 21.3058 29.4166 21.491 29.8828 21.491H41.8359C42.8067 21.491 43.5938 20.7039 43.5938 19.7332V17.1615L55.8377 30.28L43.5938 43.3986V40.8269C43.5938 39.8561 42.8067 39.0691 41.8359 39.0691H29.8828C29.4166 39.0691 28.9695 39.2542 28.6398 39.5839L15.0922 53.1316H1.75781C0.787031 53.1316 0 53.9186 0 54.8894C0 55.8602 0.787031 56.6472 1.75781 56.6472H15.8203C16.2866 56.6472 16.7337 56.4619 17.0633 56.1323L30.6109 42.5847H40.0781V47.8582C40.0781 49.4535 42.0325 50.2238 43.121 49.0576L59.5273 31.4794C60.1576 30.8041 60.1576 29.756 59.5273 29.0806Z" fill="#0EB95E"/>
<path d="M1.75781 32.0378H25.6391L23.9523 33.7246C23.2658 34.411 23.2658 35.524 23.9523 36.2104C24.6388 36.897 25.7518 36.897 26.4382 36.2104L31.1257 31.5229C31.8122 30.8365 31.8122 29.7235 31.1257 29.0371L26.4382 24.3496C25.7518 23.663 24.6388 23.663 23.9523 24.3496C23.2658 25.036 23.2658 26.149 23.9523 26.8354L25.6391 28.5222H1.75781C0.787031 28.5222 0 29.3092 0 30.28C0 31.2508 0.787031 32.0378 1.75781 32.0378Z" fill="#0EB95E"/>
<path d="M0 17.3893C0 18.3601 0.787031 19.1472 1.75781 19.1472H12.7485L11.0617 20.834C10.3752 21.5203 10.3752 22.6334 11.0617 23.3197C11.7482 24.0062 12.8612 24.0063 13.5476 23.3199L18.2351 18.6322C18.9216 17.9459 18.9216 16.8328 18.2351 16.1465L13.5476 11.4588C12.8612 10.7724 11.7482 10.7724 11.0617 11.4588C10.3752 12.1452 10.3752 13.2584 11.0617 13.9447L12.7485 15.6315H1.75781C0.787031 15.6315 0 16.4186 0 17.3893Z" fill="#0EB95E"/>
<path d="M1.75781 44.9284H12.7485L11.0617 46.6152C10.3752 47.3016 10.3752 48.4146 11.0617 49.101C11.7482 49.7875 12.8612 49.7876 13.5476 49.1011L18.2351 44.4135C18.9216 43.7271 18.9216 42.6141 18.2351 41.9277L13.5476 37.2401C12.8612 36.5536 11.7482 36.5536 11.0617 37.2401C10.3752 37.9265 10.3752 39.0396 11.0617 39.726L12.7485 41.4128H1.75781C0.787031 41.4128 0 42.1998 0 43.1706C0 44.1414 0.787031 44.9284 1.75781 44.9284Z" fill="#0EB95E"/>
</g>
</svg>
