<svg width="72" height="72" viewBox="0 0 72 72" fill="none" xmlns="http://www.w3.org/2000/svg">
<path d="M30.1956 57.7469C30.1956 62.4041 30.1956 66.9988 30.1956 71.6488C29.716 71.5747 29.2805 71.5168 28.8482 71.4387C28.4308 71.3639 28.0173 71.2689 27.539 71.1693C27.539 70.7705 27.5617 70.3996 27.5345 70.032C27.4522 68.9156 27.1203 67.8524 26.2732 67.1198C24.8798 65.9142 23.3787 65.613 21.7182 66.7138C21.122 67.1088 20.6476 67.6904 20.1193 68.1882C20.0539 68.25 19.9994 68.3241 19.9171 68.4191C18.5794 67.7438 17.3324 66.9429 16.101 66.168C16.2773 65.6019 16.4866 65.0808 16.5988 64.5401C16.9176 62.9968 16.2669 60.8992 14.3854 60.1646C14.1605 60.0768 13.9454 59.9617 13.7172 59.8829C13.0056 59.6363 12.3121 59.7723 11.6491 60.0527C11.1714 60.2551 10.7229 60.5257 10.2621 60.7671C10.1493 60.8263 10.0372 60.8868 9.88489 60.9688C8.84854 59.8608 7.83748 58.7521 7.04418 57.4619C7.40777 56.9414 7.75452 56.46 8.08636 55.9675C9.03779 54.553 8.6742 52.4723 7.59897 51.4749C7.3125 51.2094 7.00335 50.9668 6.7266 50.6915C6.42328 50.3903 6.07006 50.2953 5.65656 50.3233C4.98964 50.3682 4.32143 50.3975 3.65322 50.4274C3.43156 50.4371 3.20926 50.4287 2.92927 50.4287C2.32069 49.0838 1.84302 47.7006 1.39388 46.3083C1.90784 45.9556 2.39133 45.644 2.85409 45.3031C4.19051 44.3193 4.73169 42.5125 4.10042 40.8918C3.56378 39.5138 2.46587 38.8111 1.11195 38.4351C0.791775 38.3459 0.456697 38.3121 0.0496781 38.2386C-0.0384661 37.7382 0.0198646 37.1995 0.00884659 36.6673C-0.00217143 36.1247 0.005606 35.5814 0.00625411 35.0388C0.00690223 34.5027 0.00949471 33.9666 0.0114391 33.4968C0.641411 33.4461 1.1975 33.4422 1.73738 33.3472C2.36411 33.2366 2.8489 32.8364 3.27213 32.3784C3.92867 31.6672 4.31949 30.8045 4.34606 29.8513C4.37263 28.8936 4.21968 27.9379 3.40045 27.2632C2.9701 26.9086 2.53716 26.5566 2.09709 26.2131C1.90784 26.0654 1.69849 25.943 1.48073 25.798C1.49304 25.6555 1.48397 25.5247 1.51702 25.4056C1.84821 24.2072 2.71474 21.8617 2.90594 21.5826C3.50156 21.6515 4.06672 21.7608 4.63447 21.7745C6.37078 21.8168 8.05654 20.7263 8.56467 18.7354C8.82067 17.7321 8.58152 16.7575 8.02543 15.8915C7.71563 15.4088 7.32806 14.9761 6.93983 14.4751C7.85563 13.3717 8.81225 12.2194 9.7922 11.0385C9.92442 11.1101 10.0527 11.1758 10.1772 11.248C11.1267 11.801 12.1196 12.1901 13.2467 12.1244C13.8384 12.0899 14.3822 11.9442 14.8488 11.561C15.007 11.4308 15.1768 11.3157 15.333 11.183C16.7958 9.94156 17.0038 8.04303 16.2552 6.32408C16.1956 6.18745 16.1302 6.05342 16.0394 5.85888C17.2864 5.05081 18.5489 4.28697 19.8556 3.62073C20.1686 3.9558 20.4408 4.2603 20.7273 4.55048C21.7396 5.57521 22.9821 6.05212 24.3866 5.80163C25.7249 5.56285 26.7289 4.79641 27.202 3.44051C27.4632 2.69229 27.5461 1.91544 27.6479 1.13925C27.6596 1.04816 27.6725 0.957721 27.6829 0.879646C28.3206 0.564092 31.3337 0.0553032 31.8989 0.165909C32.1322 0.644119 32.3513 1.13925 32.6099 1.6129C32.9417 2.21993 33.2872 2.82957 33.9262 3.17505C35.0935 3.80681 36.835 4.01761 38.1455 3.00329C38.9589 2.37348 39.4657 1.54914 39.8435 0.620697C39.92 0.433317 39.9809 0.23943 40.0665 0C41.5494 0.26025 43.0018 0.515295 44.4426 0.768389C44.4426 1.21146 44.4556 1.60119 44.44 1.99026C44.3849 3.37935 45.6027 5.35205 47.2405 5.72095C48.5608 6.01829 49.8434 5.95648 50.8493 4.84781C51.2239 4.43531 51.6017 4.02607 52.0288 3.55957C52.8144 3.9994 53.5992 4.43857 54.4625 4.92198C53.3627 6.0313 52.3192 7.06644 51.2958 8.12176C50.2705 9.17837 49.2653 10.2545 48.2386 11.3352C48.3054 11.6521 48.3702 11.9578 48.437 12.274C48.3644 12.2975 48.3047 12.3404 48.2665 12.3261C47.1245 11.9019 45.9333 11.909 44.7414 11.911C42.075 11.9143 39.408 11.898 36.7416 11.9169C35.168 11.9279 33.7331 12.371 32.536 13.4504C32.3701 13.5994 32.1828 13.7243 31.9618 13.8928C27.0575 14.792 22.9011 17.1668 19.4868 20.8499C16.5313 24.038 14.6687 27.8103 13.9207 32.0889C12.92 37.8144 14.0082 43.1768 17.116 48.0708C20.2269 52.9648 24.6536 56.1457 30.1956 57.7469Z" fill="#25AD60"/>
<path d="M39.2202 46.2601C39.4522 46.2601 39.6414 46.2861 39.8216 46.2555C41.0686 46.0441 42.2696 46.2692 43.4375 46.6732C44.6307 47.0864 45.6651 47.7585 46.575 48.6557C47.7261 49.7897 48.5064 51.1216 48.8545 52.687C49.0236 53.4463 49.1254 54.2368 49.1293 55.0136C49.1539 59.5999 49.1416 64.1868 49.1416 68.773C49.1416 68.976 49.1416 69.179 49.1416 69.436C48.5654 69.6286 48.0262 69.8088 47.439 70.0053C47.3981 69.8394 47.356 69.7243 47.3443 69.6059C47.3294 69.4575 47.3398 69.3066 47.3398 69.1569C47.3392 64.4021 47.3508 59.6467 47.3333 54.892C47.3262 52.9609 46.6865 51.2504 45.2879 49.8977C44.2016 48.8476 42.8976 48.2243 41.3667 48.061C39.3926 47.8509 37.7075 48.4371 36.233 49.7331C35.1292 50.7032 34.4247 51.903 34.1648 53.3506C34.0793 53.8249 34.0436 54.3148 34.043 54.797C34.0346 60.151 34.0378 65.505 34.0378 70.8596C34.0378 71.1016 34.0378 71.3437 34.0378 71.6293C33.9114 71.7549 33.7818 71.883 33.7118 71.9527C33.1512 72.0672 32.7273 71.9624 32.2646 71.7633C32.1997 70.5193 32.2445 69.2695 32.2354 68.0209C32.227 66.7854 32.2334 65.5499 32.2334 64.3143C32.2334 63.0599 32.2341 61.8055 32.2341 60.5517C32.2341 59.3162 32.2334 58.0807 32.2334 56.8451C32.2334 55.592 32.2334 54.3396 32.2334 53.0806C32.0785 52.9193 31.9392 52.7703 31.7953 52.6258C28.3544 49.1704 24.9168 45.711 21.4688 42.262C20.3418 41.1351 19.8433 39.7773 19.9419 38.2034C19.9892 37.4493 20.2504 36.7434 20.6451 36.0954C21.7722 34.2456 22.9025 32.3985 24.0296 30.5494C25.9538 27.3933 27.8742 24.2345 29.8011 21.0802C30.8808 19.3118 31.9457 17.533 33.0637 15.7894C33.8298 14.5948 34.9957 13.9526 36.3937 13.9331C39.6751 13.8863 42.9579 13.9097 46.2399 13.9253C47.2303 13.9299 48.0851 14.3391 48.8123 15.0001C49.0943 15.2565 49.406 15.371 49.7735 15.3716C50.2369 15.3723 50.7003 15.3716 51.2168 15.3716C51.0775 14.1563 50.6303 13.06 50.4683 11.9272C50.5305 11.8348 50.5642 11.7659 50.6154 11.7138C53.2831 8.99357 55.952 6.2746 58.6223 3.55629C58.6864 3.49058 58.7635 3.43722 58.8964 3.32532C62.6542 4.39104 66.4431 5.46522 70.2916 6.55697C70.5159 7.74827 70.7395 8.93436 70.9774 10.1972C70.6851 10.2076 70.4692 10.2219 70.2528 10.2219C67.2876 10.2233 64.3225 10.2324 61.3573 10.2122C60.8298 10.2083 60.4409 10.3651 60.0766 10.747C59.1738 11.693 58.2353 12.6052 57.3131 13.5317C57.2081 13.6371 57.1102 13.749 57.0013 13.8655C56.9359 14.8668 56.9572 15.8362 57.5542 16.7184C57.8503 17.1563 57.8303 17.6827 57.7032 18.1843C57.63 18.4725 57.5159 18.753 57.398 19.0269C57.0583 19.8148 56.9644 20.6385 56.9903 21.5851C57.3591 21.9319 57.7745 22.3067 58.1731 22.699C58.8517 23.3678 59.529 24.0386 60.1875 24.727C60.4817 25.0341 60.8071 25.1564 61.2296 25.1551C64.2317 25.144 67.2345 25.1493 70.2372 25.1493C70.455 25.1493 70.6721 25.1493 70.9553 25.1493C70.7551 26.4245 70.5742 27.6138 70.2385 28.8331C66.447 29.9144 62.6393 31.0003 58.8348 32.0849C56.0324 29.2267 53.2539 26.3932 50.4611 23.5455C50.6212 22.3854 51.0127 21.3112 51.224 20.1661C50.5733 20.0347 49.9433 19.9143 49.5259 20.0796C48.7812 20.5669 48.2316 20.9469 47.6619 21.2923C47.3061 21.5084 46.903 21.576 46.481 21.5747C44.3922 21.5676 42.3039 21.5695 40.215 21.5786C39.9454 21.5799 39.6758 21.6417 39.4289 21.673C36.4158 26.9118 33.4383 32.0882 30.4414 37.2977C30.6034 37.4688 30.7382 37.6172 30.8802 37.7597C32.8822 39.7747 34.8901 41.7831 36.8856 43.8046C37.6699 44.601 38.4256 45.4234 39.2202 46.2601ZM29.044 35.9334C29.1652 35.7909 29.2638 35.7043 29.3273 35.5963C29.7174 34.9379 30.1037 34.2775 30.4848 33.6132C31.5341 31.783 32.5756 29.9496 33.6275 28.1207C34.52 26.5689 35.4241 25.0243 36.3198 23.4745C37.0017 22.295 37.6835 21.1154 38.3569 19.9306C38.7185 19.2936 39.0335 18.6515 38.9622 17.8694C38.8637 16.7913 37.8053 15.7314 36.7281 15.7308C35.6788 15.7308 34.8914 16.1771 34.347 17.1134C33.4007 18.7412 32.4117 20.3444 31.4291 21.9508C30.3973 23.6385 29.3441 25.3132 28.3143 27.0022C27.0796 29.0257 25.8585 31.0576 24.6342 33.0869C24.5318 33.2567 24.445 33.4363 24.3206 33.6692C26.2895 33.675 27.8638 34.3738 29.044 35.9334ZM37.3037 46.8665C37.1676 46.7045 37.0924 46.601 37.0029 46.5112C33.6036 43.0935 30.2061 39.6738 26.7957 36.2671C26.5663 36.0381 26.2565 35.8657 25.9538 35.7395C25.2182 35.4324 24.4625 35.4552 23.7243 35.744C23.1974 35.9503 22.743 36.2606 22.395 36.7297C21.3593 38.126 21.5998 39.8202 22.7404 40.951C24.8371 43.0291 26.9104 45.1306 28.9909 47.225C29.2527 47.4885 29.4906 47.7761 29.7498 48.0428C30.2171 48.523 30.6831 49.0051 31.166 49.4683C31.7026 49.9836 32.2568 50.4807 32.807 50.9823C32.8433 51.0155 32.9088 51.0155 32.9969 51.0415C33.938 49.1808 35.3626 47.8047 37.3037 46.8665ZM68.8016 8.40475C68.7537 8.00267 68.5275 7.92849 68.2611 7.85367C65.8449 7.17182 63.4326 6.475 61.0164 5.79249C60.4487 5.63178 59.8712 5.50621 59.3099 5.36763C59.1343 5.53679 58.9949 5.65976 58.8679 5.79379C58.2658 6.42945 57.6754 7.07748 57.0642 7.70468C56.1257 8.66695 55.1736 9.61492 54.2267 10.5694C53.7536 11.0463 53.2837 11.5265 52.8067 12.0001C52.563 12.2421 52.4405 12.5258 52.5215 12.8628C52.7121 13.6579 52.9182 14.4497 53.1113 15.2148C53.7056 15.4204 54.6603 15.4289 55.1658 15.2279C55.1289 14.5668 55.0907 13.8856 55.0583 13.3137C56.7213 11.6449 58.3001 10.0606 59.9431 8.41191C60.5971 8.41191 61.3411 8.41191 62.0845 8.41191C62.8298 8.41191 63.5745 8.41191 64.3199 8.41191C65.0652 8.41191 65.8105 8.41321 66.5552 8.41126C67.2934 8.41061 68.031 8.41972 68.8016 8.40475ZM68.7796 26.973C65.7892 26.973 62.8149 26.973 59.9937 26.973C58.3001 25.2703 56.7116 23.673 55.0505 22.0028C55.1043 21.4641 55.1691 20.82 55.2371 20.1401C54.521 20.1401 53.8268 20.1401 53.11 20.1401C52.8702 21.1095 52.6388 22.0451 52.4146 22.9508C54.7342 25.3243 57.0136 27.6568 59.3209 30.0172C59.6729 29.932 60.0157 29.8604 60.3527 29.7648C62.1428 29.2586 63.9316 28.7485 65.7198 28.2352C66.6136 27.9782 67.506 27.716 68.3959 27.4447C68.5741 27.3907 68.8314 27.3868 68.7796 26.973ZM40.5307 19.7653C41.0563 19.7653 41.519 19.7653 41.9812 19.7653C43.3778 19.7647 44.7752 19.7491 46.1719 19.7718C46.6295 19.7796 47.0229 19.6411 47.3748 19.3958C47.9918 18.9657 48.2848 18.2995 48.1869 17.5974C48.0009 16.2637 46.9879 15.7158 45.9807 15.7249C44.2113 15.7412 42.442 15.7288 40.6726 15.7301C40.508 15.7301 40.3434 15.7438 40.1029 15.7542C40.8476 17.0444 40.9357 18.3671 40.5307 19.7653ZM50.0813 18.2917C50.3406 18.2917 50.526 18.2917 50.7107 18.2917C51.8844 18.2917 53.0582 18.304 54.2319 18.2852C54.7478 18.2773 55.2631 18.2064 55.753 18.1661C56.0427 17.6573 56.0356 17.5896 55.674 17.2201C53.7886 17.2201 51.8967 17.2201 49.9251 17.2201C49.9789 17.5877 50.025 17.9065 50.0813 18.2917Z" fill="#C59A0D"/>
<path d="M55.8996 66.2835C54.582 66.97 53.3784 67.7819 52.0057 68.3337C51.7348 68.0448 51.4762 67.7806 51.2319 67.5035C51.0303 67.2745 51.0478 66.9862 51.0478 66.7032C51.0491 64.5509 51.0491 62.3986 51.0484 60.247C51.0484 58.3192 51.053 56.392 51.0426 54.4642C51.0394 53.9066 50.9914 53.3497 50.9609 52.7238C51.0744 52.6047 51.2202 52.4362 51.3816 52.2859C52.6285 51.1226 53.7148 49.8187 54.6572 48.401C55.9579 46.4439 56.9606 44.3391 57.5368 42.0515C57.8005 41.0046 58.019 39.9435 58.1888 38.8777C58.3955 37.5817 58.3177 36.268 58.3184 34.9603C58.3184 34.7579 58.3184 34.5556 58.3184 34.3168C61.5531 33.3871 64.7497 32.4677 67.9903 31.536C68.4556 32.1736 68.9249 32.8171 69.6864 33.0975C70.3987 33.3597 71.1304 33.5705 71.9004 33.8191C72.006 34.1151 72.0527 37.296 71.9321 38.2447C71.6249 38.3013 71.2976 38.3442 70.9794 38.4236C69.2969 38.8439 68.0771 39.7834 67.7096 41.5596C67.4044 43.0365 67.8542 44.2942 69.0415 45.2383C69.5198 45.6182 70.0513 45.9299 70.6054 46.304C70.1103 47.6729 69.6177 49.036 69.1076 50.4472C68.8451 50.4212 68.6105 50.3939 68.3759 50.3743C67.5969 50.3093 66.8211 50.2637 66.0433 50.4316C65.0407 50.6476 64.3614 51.2586 63.8592 52.1193C62.9894 53.6093 63.283 55.029 64.1249 56.4031C64.3459 56.7635 64.6512 57.0726 64.948 57.4434C64.0964 58.6855 63.1896 59.8768 62.1241 60.9549C61.6173 60.6901 61.1461 60.4331 60.6659 60.195C59.4681 59.5996 58.3223 59.6673 57.1693 60.3791C56.3215 60.9022 55.8173 61.6322 55.5269 62.5535C55.1795 63.6557 55.3079 64.7259 55.7272 65.7793C55.7894 65.9283 55.8335 66.0851 55.8996 66.2835Z" fill="#25AD60"/>
<path d="M45.9083 55.1112C45.9861 57.8836 43.6645 60.4438 40.6203 60.3995C37.6675 60.3566 35.3854 58.0716 35.3906 55.0806C35.3958 52.2146 37.5275 49.8001 40.7059 49.7949C43.5654 49.7904 45.9835 52.1222 45.9083 55.1112ZM40.6495 58.5212C42.4746 58.6643 44.1273 56.9252 44.1208 55.1203C44.1143 53.2986 42.5582 51.6382 40.6501 51.6356C38.7129 51.633 37.2073 53.2706 37.1846 55.0715C37.1613 56.9271 38.6779 58.6422 40.6495 58.5212Z" fill="#C59A0D"/>
<path d="M36.3712 16.8305C37.252 16.8305 37.8185 17.4194 37.86 18.2925C37.9047 19.2327 37.1036 19.9002 36.3537 19.8917C35.6045 19.8826 34.7989 19.2138 34.8047 18.3029C34.8086 17.5521 35.4846 16.7603 36.3712 16.8305ZM36.3375 17.6484C35.7562 17.8754 35.5863 18.1246 35.7095 18.5443C35.8249 18.9399 36.0167 19.0166 36.7342 18.9151C36.8314 18.757 36.9532 18.5599 37.0485 18.4051C36.9526 17.9685 36.7316 17.7453 36.3375 17.6484Z" fill="#C59A0D"/>
<path d="M26.0777 38.5372C25.8749 39.7305 25.1917 40.0733 24.3945 40.0232C23.5585 39.9705 22.9505 39.2854 22.9531 38.5164C22.9557 37.7519 23.6149 37.018 24.3602 36.949C25.2611 36.8657 25.8457 37.4064 26.0777 38.5372ZM23.9065 38.1514C23.8177 38.5938 23.8812 38.882 24.1904 39.0779C24.4172 39.2217 24.6506 39.2158 24.8683 39.0655C25.1658 38.8606 25.23 38.571 25.136 38.2034C25.044 38.0928 24.939 37.966 24.8657 37.8781C24.5987 37.8781 24.4179 37.8781 24.2325 37.8781C24.0958 37.9926 23.9694 38.0987 23.9065 38.1514Z" fill="#C59A0D"/>
<path d="M43.2266 17.7056C43.3309 16.6327 44.1197 16.001 45.0581 16.1688C45.8002 16.3016 46.3038 16.809 46.344 17.6373C46.3797 18.3803 45.727 19.0863 44.9285 19.1943C44.2007 19.2925 43.5091 18.6952 43.2266 17.7056ZM44.8145 16.9737C44.3316 17.1305 44.1087 17.4037 44.1281 17.8559C44.2888 18.1637 44.5222 18.3439 44.8741 18.3426C45.4431 18.0778 45.4749 18.0186 45.3867 17.2755C45.2118 17.1832 44.994 17.0686 44.8145 16.9737Z" fill="#C59A0D"/>
</svg>
