<svg width="61" height="60" viewBox="0 0 61 60" fill="none" xmlns="http://www.w3.org/2000/svg">
<path d="M51.8773 8.78685C46.2111 3.12048 38.6774 0 30.6641 0C22.6508 0 15.1171 3.12048 9.45092 8.78674C3.78454 14.453 0.664062 21.9868 0.664062 30.0001C0.664062 38.0134 3.78454 45.547 9.45092 51.2133C15.1171 56.8795 22.6508 60 30.6641 60C38.6775 60 46.2111 56.8795 51.8774 51.2132C57.5436 45.547 60.6642 38.0132 60.6642 29.9999C60.6642 21.9866 57.5436 14.453 51.8773 8.78685ZM11.9394 11.2753C14.5774 8.63732 17.6743 6.62521 21.0498 5.31189C20.1507 6.43431 19.3095 7.72443 18.5385 9.17545C17.643 10.8606 16.8704 12.7114 16.2269 14.6882C13.9978 14.3182 11.9324 13.8633 10.0871 13.3294C10.6655 12.6185 11.2824 11.9323 11.9394 11.2753ZM7.95654 16.3577C10.1148 17.0487 12.583 17.6315 15.2762 18.0931C14.5262 21.2766 14.0848 24.7024 13.9794 28.2405H4.24251C4.51907 23.9944 5.79431 19.9421 7.95654 16.3577ZM7.76494 43.317C5.71942 39.8132 4.51075 35.8778 4.24239 31.7596H13.9861C14.1012 35.1966 14.5338 38.525 15.2585 41.6252C12.51 42.0707 9.97978 42.6388 7.76494 43.317ZM11.9394 48.7248C11.1917 47.977 10.4954 47.1919 9.84982 46.3746C11.7627 45.8442 13.9011 45.395 16.203 45.0348C16.8511 47.039 17.632 48.9143 18.5384 50.6202C19.3786 52.2014 20.3024 53.5908 21.2934 54.7809C17.8235 53.4704 14.6408 51.426 11.9394 48.7248ZM28.9044 56.0292C26.2316 55.2805 23.7032 52.8397 21.6463 48.9688C20.9269 47.615 20.295 46.1381 19.7537 44.564C22.6518 44.245 25.7356 44.0565 28.9044 44.0122V56.0292ZM28.9044 40.4927C25.3902 40.5406 21.9649 40.7613 18.7571 41.1381C18.0496 38.2129 17.6238 35.0469 17.507 31.7597H28.9045V40.4927H28.9044ZM28.9044 28.2404H17.5003C17.6071 24.8614 18.0396 21.607 18.7692 18.6074C21.9565 19.0059 25.3746 19.2482 28.9044 19.3176V28.2404ZM28.9044 15.7978C25.7233 15.7337 22.6463 15.5263 19.7687 15.1879C20.3067 13.6302 20.9337 12.1682 21.6463 10.8267C23.7031 6.95579 26.2316 4.51501 28.9044 3.7663V15.7978ZM53.4826 16.5446C55.5772 20.0828 56.8139 24.0679 57.086 28.2404H47.3491C47.2449 24.743 46.8119 21.3557 46.0776 18.2036C48.7885 17.7658 51.2873 17.2088 53.4826 16.5446ZM49.3887 11.2753C50.0953 11.9819 50.7553 12.7225 51.3708 13.4914C49.4873 14.0057 47.3897 14.4422 45.136 14.7935C44.4858 12.777 43.7013 10.8906 42.7899 9.17545C42.0189 7.72443 41.1776 6.43431 40.2786 5.31189C43.6538 6.62521 46.7508 8.63732 49.3887 11.2753ZM32.4238 31.7597H43.8214C43.7037 35.0724 43.2722 38.2625 42.5546 41.2065C39.3678 40.8103 35.9512 40.5702 32.4238 40.5027V31.7597ZM32.4238 28.2404V19.3293C35.94 19.2831 39.368 19.0643 42.5788 18.689C43.2966 21.6659 43.7221 24.892 43.8279 28.2404H32.4238ZM32.4236 3.7663H32.4237C35.0965 4.51501 37.625 6.95579 39.6818 10.8267C40.4058 12.1893 41.0413 13.6765 41.585 15.2621C38.683 15.5799 35.5957 15.767 32.4236 15.8098V3.7663ZM32.4238 56.0292V44.0224C35.6019 44.0847 38.6766 44.2903 41.5531 44.6266C41.0165 46.1772 40.3916 47.6329 39.6819 48.9688C37.6251 52.8397 35.0966 55.2805 32.4238 56.0292ZM49.3887 48.7248C46.6874 51.4261 43.5047 53.4704 40.0347 54.7808C41.0257 53.5907 41.9495 52.2014 42.7898 50.6202C43.6827 48.9396 44.4536 47.0942 45.096 45.1234C47.3771 45.4999 49.4874 45.9655 51.3673 46.5131C50.7529 47.2802 50.094 48.0194 49.3887 48.7248ZM53.4696 43.4777C51.2858 42.7756 48.782 42.1849 46.0485 41.7187C46.7863 38.5921 47.226 35.2312 47.3424 31.7597H57.0861C56.8133 35.9408 55.5723 39.9339 53.4696 43.4777Z" fill="#0EB95E"/>
</svg>
