<svg width="24" height="25" viewBox="0 0 24 25" fill="none" xmlns="http://www.w3.org/2000/svg">
<path d="M6.41153 3.88277C6.38148 2.51887 5.40615 1.48004 3.82235 1.48004C2.23856 1.48004 1.20312 2.51887 1.20312 3.88277C1.20312 5.21843 2.20795 6.28717 3.76226 6.28717H3.79184C5.40615 6.28717 6.41153 5.21843 6.41153 3.88277Z" fill="#082644"/>
<path d="M6.1066 8.18586H1.47688V22.0962H6.1066V8.18586Z" fill="#082644"/>
<path d="M17.4726 7.85925C20.5192 7.85925 22.8031 9.84782 22.8031 14.1205L22.8029 22.0963H18.1734V14.6542C18.1734 12.7849 17.5035 11.5094 15.8275 11.5094C14.5484 11.5094 13.7866 12.3693 13.452 13.1998C13.3296 13.4975 13.2995 13.9122 13.2995 14.3279V22.0966H8.66925C8.66925 22.0966 8.73028 9.49154 8.66925 8.18626H13.2995V10.1565C13.914 9.20939 15.0145 7.85925 17.4726 7.85925Z" fill="#082644"/>
</svg>
