<svg width="51" height="53" viewBox="0 0 51 53" fill="none" xmlns="http://www.w3.org/2000/svg">
<path d="M17.9725 0.109619C13.3247 0.121356 9.12286 0.942946 5.96563 2.37485C4.38115 3.0908 3.05487 3.9476 2.05723 5.01566C1.07133 6.07198 0.414062 7.37478 0.414062 8.80669L0.425811 20.4497C0.420261 20.4886 0.416334 20.5278 0.414062 20.5671C0.414062 20.7079 0.414074 20.8488 0.425811 20.9779L0.449279 32.1397C0.432197 32.2091 0.42042 32.2797 0.414062 32.351C0.414062 32.5387 0.425805 32.7382 0.449279 32.9143L0.461027 44.6982C0.462274 44.7769 0.470121 44.8555 0.484495 44.9329C0.942235 47.6089 3.34829 49.4868 6.45857 50.7896C9.58059 52.0807 13.6064 52.8319 17.996 52.8319C24.463 52.8319 30.0967 51.3295 33.254 48.5714C33.5239 48.5831 33.7938 48.5948 34.0638 48.5948C35.0028 48.5948 35.9417 48.5127 36.8572 48.3483C37.102 48.3046 37.3308 48.1969 37.5205 48.0361C37.7101 47.8753 37.8538 47.6672 37.937 47.4329L38.6882 45.3202C39.0872 45.1794 39.4745 45.0151 39.8619 44.839L41.8806 45.8014C42.1064 45.9099 42.357 45.9562 42.6066 45.9356C42.8562 45.915 43.0959 45.8281 43.3008 45.6841C44.8266 44.6043 46.1646 43.278 47.2326 41.7405C47.3746 41.5369 47.4601 41.2994 47.4807 41.0521C47.5013 40.8047 47.4563 40.5563 47.35 40.3321L46.3876 38.3016C46.5754 37.926 46.728 37.5269 46.8805 37.1396L48.9932 36.3884C49.2275 36.3053 49.4356 36.1616 49.5964 35.9719C49.7572 35.7823 49.8649 35.5534 49.9086 35.3087C50.0612 34.3814 50.1434 33.4542 50.1434 32.5153C50.1434 31.5763 50.0612 30.6491 49.9086 29.7336C49.8668 29.4867 49.76 29.2554 49.5991 29.0636C49.4382 28.8717 49.229 28.7262 48.9932 28.6421L46.8805 27.8909C46.7397 27.5036 46.5754 27.1045 46.3993 26.729L47.3617 24.6985C47.468 24.4742 47.5131 24.2258 47.4925 23.9785C47.4719 23.7311 47.3863 23.4936 47.2444 23.29C46.1646 21.7525 44.8266 20.4262 43.3008 19.3464C43.0959 19.2024 42.8562 19.1155 42.6066 19.0949C42.357 19.0743 42.1064 19.1206 41.8806 19.2291L39.8619 20.1915C39.4745 20.0154 39.0872 19.8511 38.6882 19.7103L37.937 17.5976C37.8538 17.3633 37.7101 17.1552 37.5205 16.9944C37.3308 16.8336 37.102 16.7259 36.8572 16.6822C36.4229 16.6 35.9769 16.5413 35.5309 16.5061C35.5426 13.8536 35.5544 11.2597 35.5661 8.80669C35.5661 7.37478 34.9089 6.06026 33.9112 5.00394C32.9253 3.94761 31.5873 3.07908 30.0028 2.36313C26.8221 0.931226 22.6203 0.109619 17.9725 0.109619ZM17.9725 2.92648C22.2799 2.92648 26.1649 3.7246 28.8409 4.9335C30.1789 5.54382 31.2118 6.24804 31.8573 6.92878C32.5028 7.62126 32.7493 8.21984 32.7493 8.80669C32.7493 9.39353 32.5028 9.99211 31.8573 10.6846C31.2118 11.3653 30.1789 12.0695 28.8409 12.6799C26.1649 13.8888 22.2799 14.6869 17.9725 14.6751C13.6768 14.6751 9.79185 13.877 7.12757 12.6681C5.78956 12.0578 4.75672 11.3536 4.11119 10.6728C3.4774 9.9921 3.23092 9.39353 3.23092 8.80669C3.23092 8.21984 3.4774 7.62127 4.11119 6.94053C4.75672 6.24805 5.78956 5.54383 7.12757 4.94525C9.79185 3.73635 13.6768 2.93822 17.9725 2.92648ZM3.24267 13.654C4.02904 14.2526 4.94452 14.769 5.96563 15.2385C9.12286 16.6587 13.3247 17.492 17.9725 17.492C22.6203 17.5037 26.8221 16.6704 30.0028 15.2385C31.024 14.7808 31.9394 14.2526 32.7258 13.6658C32.7258 14.6047 32.7258 15.5202 32.7141 16.4944C32.2446 16.5296 31.7634 16.5883 31.2822 16.6822C31.0374 16.7259 30.8085 16.8336 30.6189 16.9944C30.4292 17.1552 30.2855 17.3633 30.2024 17.5976L29.4512 19.6986C29.0522 19.8511 28.6648 20.0037 28.2775 20.1915L26.2587 19.2291C26.033 19.1206 25.7824 19.0743 25.5327 19.0949C25.2831 19.1155 25.0435 19.2024 24.8386 19.3464C23.3128 20.4262 21.9748 21.7525 20.9067 23.29C20.7648 23.4936 20.6792 23.7311 20.6586 23.9785C20.638 24.2258 20.6831 24.4742 20.7894 24.6985L21.564 26.3299C21.4404 26.3053 21.3141 26.2974 21.1884 26.3064C20.1673 26.4003 19.0875 26.4473 17.9725 26.4473C13.6768 26.4473 9.79185 25.6374 7.12757 24.4285C5.78956 23.83 4.75672 23.1257 4.11119 22.445C3.57129 21.8581 3.31309 21.3417 3.24267 20.837V13.654ZM34.0521 19.2525H34.0638C34.5685 19.2525 35.0732 19.2878 35.5779 19.3464L36.2586 21.2713C36.3328 21.4807 36.4555 21.6697 36.6166 21.8227C36.7778 21.9757 36.9728 22.0884 37.1858 22.1516C37.8783 22.3628 38.5591 22.6445 39.1929 22.9849C39.3882 23.0914 39.6059 23.1501 39.8283 23.1562C40.0506 23.1623 40.2713 23.1157 40.4722 23.0201L42.3149 22.1398C43.1012 22.7736 43.8172 23.4778 44.4392 24.2642L43.559 26.1186C43.4653 26.318 43.4198 26.5365 43.4259 26.7566C43.432 26.9768 43.4896 27.1924 43.5942 27.3862C43.9463 28.0318 44.2162 28.7008 44.4275 29.405C44.4907 29.618 44.6034 29.813 44.7564 29.9742C44.9094 30.1353 45.0983 30.258 45.3078 30.3322L47.2326 31.0129C47.2913 31.5059 47.3265 32.0106 47.3265 32.5153C47.3265 33.0199 47.2913 33.5246 47.2326 34.0176L45.3078 34.7101C45.0996 34.7831 44.9115 34.904 44.7586 35.063C44.6057 35.222 44.4923 35.4147 44.4275 35.6255C44.2162 36.318 43.9346 36.9988 43.5942 37.6326C43.4877 37.8279 43.429 38.0456 43.4229 38.268C43.4168 38.4903 43.4634 38.711 43.559 38.9119L44.4392 40.7546C43.8172 41.5527 43.1012 42.2569 42.3149 42.8907L40.4604 42.0104C40.262 41.915 40.044 41.8674 39.8239 41.8715C39.6037 41.8756 39.3876 41.9312 39.1929 42.0339C38.5473 42.386 37.8783 42.6677 37.1858 42.879C36.974 42.941 36.7798 43.0519 36.6187 43.2028C36.4577 43.3536 36.3343 43.5402 36.2586 43.7475L35.5779 45.6724C35.0732 45.731 34.5685 45.778 34.0638 45.778C33.5708 45.778 33.0662 45.731 32.5615 45.6841L31.8807 43.7475C31.805 43.5402 31.6817 43.3536 31.5206 43.2028C31.3596 43.0519 31.1653 42.941 30.9535 42.879C30.261 42.6677 29.592 42.386 28.9465 42.0339C28.7518 41.9312 28.5357 41.8756 28.3155 41.8715C28.0954 41.8674 27.8773 41.915 27.6789 42.0104L25.8245 42.8907C25.0381 42.2569 24.3222 41.5527 23.7001 40.7663L24.5804 38.9119C24.674 38.7125 24.7196 38.494 24.7135 38.2739C24.7074 38.0537 24.6497 37.8381 24.5452 37.6443C24.2048 36.9988 23.9231 36.3298 23.7118 35.6255C23.6487 35.4125 23.536 35.2175 23.383 35.0563C23.23 34.8952 23.041 34.7725 22.8316 34.6983L20.9067 34.0176C20.848 33.5129 20.8128 33.0199 20.8128 32.5153C20.8128 32.0106 20.848 31.5059 20.9067 31.0129L22.8316 30.3322C23.041 30.258 23.23 30.1353 23.383 29.9742C23.536 29.813 23.6487 29.618 23.7118 29.405C23.9231 28.7008 24.1931 28.0318 24.5452 27.3862C24.6497 27.1924 24.7074 26.9768 24.7135 26.7566C24.7196 26.5365 24.674 26.318 24.5804 26.1186L23.7001 24.2642C24.3222 23.4778 25.0381 22.7619 25.8245 22.1398L27.6672 23.0201C27.8681 23.1157 28.0887 23.1623 28.3111 23.1562C28.5334 23.1501 28.7512 23.0914 28.9465 22.9849C29.5803 22.6445 30.261 22.3628 30.9653 22.1516C31.1761 22.0868 31.3688 21.9733 31.5278 21.8205C31.6869 21.6676 31.8077 21.4795 31.8807 21.2713L32.5732 19.3464C33.0662 19.2878 33.5591 19.2525 34.0521 19.2525ZM3.25439 25.4379C4.04076 26.0247 4.94452 26.5412 5.96563 26.9989C9.1346 28.4308 13.3247 29.2524 17.9725 29.2641H18.4068C18.3205 29.4088 18.2608 29.5679 18.2307 29.7336C18.0664 30.6491 17.996 31.5763 17.996 32.5153C17.996 33.4425 18.0664 34.3814 18.2307 35.2969C18.2725 35.5438 18.3793 35.7751 18.5403 35.9669C18.7012 36.1588 18.9103 36.3043 19.1462 36.3884L21.2588 37.1396C21.3879 37.5034 21.5405 37.8556 21.7048 38.2077C21.4983 38.1164 21.2729 38.0762 21.0476 38.0903C20.0617 38.1842 19.0406 38.2311 17.9725 38.2311C13.6768 38.2311 9.80359 37.4213 7.12757 36.2124C5.78956 35.6138 4.75672 34.8979 4.11119 34.2171C3.6065 33.6772 3.3483 33.196 3.26614 32.7148L3.25439 25.4379ZM3.26614 37.2218C4.05251 37.8086 4.95625 38.325 5.96563 38.7828C9.12286 40.2147 13.3247 41.0363 17.9725 41.048C18.888 41.048 19.7917 41.0128 20.672 40.9541C20.6705 41.2337 20.7522 41.5075 20.9067 41.7405C21.9748 43.278 23.3128 44.6043 24.8503 45.6841C25.0539 45.826 25.2914 45.9116 25.5387 45.9322C25.7861 45.9528 26.0345 45.9077 26.2587 45.8014L28.2775 44.839C28.6648 45.0151 29.0522 45.1794 29.4512 45.3202L30.1554 47.3038C27.5264 48.8178 23.0546 50.015 17.996 50.015C13.935 50.015 10.2144 49.299 7.55011 48.184C4.93278 47.0925 3.51263 45.6489 3.27789 44.5221L3.26614 37.2218Z" fill="#0EB95E"/>
<path d="M34.0488 23.6656C29.1898 23.6656 25.2109 27.6327 25.2109 32.5035C25.2109 37.3626 29.1898 41.3297 34.0488 41.3297C38.9079 41.3297 42.8867 37.3626 42.8867 32.5035C42.8867 27.6327 38.9079 23.6656 34.0488 23.6656ZM34.0488 26.4825C37.3821 26.4825 40.0699 29.1585 40.0699 32.5035C40.0699 35.8368 37.3821 38.5128 34.0488 38.5128C30.7038 38.5128 28.0278 35.8368 28.0278 32.5035C28.0278 29.1585 30.7038 26.4825 34.0488 26.4825Z" fill="#0EB95E"/>
</svg>
