<svg width="61" height="60" viewBox="0 0 61 60" fill="none" xmlns="http://www.w3.org/2000/svg">
<g clip-path="url(#clip0_1182_59649)">
<path d="M58.9172 10.6645C58.9136 10.6645 58.9099 10.6641 58.9062 10.6641H42.9688V8.90625C42.9688 5.99854 40.603 3.63281 37.6953 3.63281H23.6328C20.7251 3.63281 18.3594 5.99854 18.3594 8.90625V10.6641H2.42188C1.44318 10.6641 0.664062 11.4661 0.664062 12.4219V51.0938C0.664062 54.0015 3.02979 56.3672 5.9375 56.3672H55.3906C58.2983 56.3672 60.6641 54.0015 60.6641 51.0938V12.459C60.6641 12.4567 60.6641 12.4544 60.6641 12.4521C60.5968 11.2976 59.8868 10.6709 58.9172 10.6645ZM21.875 8.90625C21.875 7.93716 22.6637 7.14844 23.6328 7.14844H37.6953C38.6644 7.14844 39.4531 7.93716 39.4531 8.90625V10.6641H21.875V8.90625ZM56.4673 14.1797L51.0085 30.5557C50.769 31.2749 50.0989 31.7578 49.3413 31.7578H39.4531V30C39.4531 29.0291 38.6662 28.2422 37.6953 28.2422H23.6328C22.6619 28.2422 21.875 29.0291 21.875 30V31.7578H11.9868C11.2292 31.7578 10.5591 31.2749 10.3197 30.5557L4.86084 14.1797H56.4673ZM35.9375 31.7578V35.2734H25.3906V31.7578H35.9375ZM57.1484 51.0938C57.1484 52.0628 56.3597 52.8516 55.3906 52.8516H5.9375C4.96841 52.8516 4.17969 52.0628 4.17969 51.0938V23.2539L6.98441 31.6676C7.70309 33.8246 9.71359 35.2734 11.9868 35.2734H21.875V37.0312C21.875 38.0022 22.6619 38.7891 23.6328 38.7891H37.6953C38.6662 38.7891 39.4531 38.0022 39.4531 37.0312V35.2734H49.3413C51.6145 35.2734 53.625 33.8246 54.3437 31.6676L57.1484 23.2539V51.0938Z" fill="#0EB95E"/>
</g>
<defs>
<clipPath id="clip0_1182_59649">
<rect width="60" height="60" fill="white" transform="translate(0.664062)"/>
</clipPath>
</defs>
</svg>
