<svg width="72" height="28" viewBox="0 0 72 28" fill="none" xmlns="http://www.w3.org/2000/svg">
<path d="M33.9918 14.1178C33.9918 14.1178 39.3469 8.69723 48.8494 5.39193C58.3317 2.0939 71.9615 0.911133 71.9615 0.911133C71.9615 0.911133 59.0277 3.11075 49.3211 7.75031C40.3041 12.0603 34.4635 18.8344 34.4635 18.8344C34.4635 18.8344 28.6576 14.0777 19.6058 11.2878C11.4931 8.78737 0.03125 8.22196 0.03125 8.22196C0.03125 8.22196 9.70691 7.10781 17.4832 8.45785C26.5828 10.0376 33.9918 14.1178 33.9918 14.1178H33.9918Z" fill="#3E78E5"/>
<path d="M35.1719 24.0226C35.1719 24.0226 43.6684 20.1982 52.8597 18.8343C61.9452 17.4862 71.7266 18.5985 71.7266 18.5985C71.7266 18.5985 60.0806 18.8605 50.7371 20.9568C41.6902 22.9866 35.4078 27.0885 35.4078 27.0885C35.4078 27.0885 28.4453 23.1416 20.55 21.9002C10.0678 20.2521 2.39062 20.9569 2.39062 20.9569C2.39062 20.9569 9.39065 19.0555 18.8991 19.7776C28.0134 20.4698 35.1719 24.0226 35.1719 24.0226Z" fill="#46D9E0"/>
</svg>
