<svg width="72" height="72" viewBox="0 0 72 72" fill="none" xmlns="http://www.w3.org/2000/svg">
<path d="M38.1408 28.5203C38.8276 27.503 39.5163 26.4814 40.2218 25.4367C37.8405 24.5957 35.4567 23.9368 32.9922 23.2759C34.6967 21.9523 36.5088 20.9619 38.4598 20.2204C40.412 19.4783 42.4199 18.9512 44.5247 18.7255C44.6855 18.4936 44.8456 18.2541 45.0151 18.0209C45.9734 16.6992 46.9054 15.3574 47.9031 14.0664C48.6587 13.0891 49.4813 12.1607 50.3076 11.2416C51.1439 10.3113 51.9946 9.39032 52.8909 8.51814C53.6916 7.73911 54.5604 7.03011 55.403 6.29484C56.3075 5.50644 57.2751 4.80056 58.2716 4.13282C59.39 3.38381 60.5484 2.70232 61.7619 2.12211C63.6003 1.24367 65.5112 0.567181 67.526 0.225809C68.1334 0.123273 68.7602 0.136402 69.3681 0.036992C69.9518 -0.058667 70.5222 0.0620009 71.0983 0.0569992C71.3191 0.0551235 71.5399 0.11577 71.7882 0.152033C71.8264 0.257696 71.8883 0.363983 71.9008 0.475273C72.0022 1.36559 72.0372 2.25466 71.9415 3.15185C71.8521 3.99027 71.7501 4.82495 71.5274 5.63836C71.3122 6.42489 71.0939 7.21267 70.8306 7.9842C70.4503 9.09584 69.9424 10.155 69.3938 11.1935C68.7839 12.3489 68.1002 13.4599 67.3209 14.5084C66.6541 15.4062 65.9641 16.2865 65.2748 17.1675C65.0646 17.4363 64.8319 17.6895 64.5942 17.9365C63.7442 18.8199 62.9129 19.724 62.0265 20.5699C61.1227 21.4327 60.1869 22.2668 59.2205 23.0583C58.0908 23.9836 56.9211 24.8615 55.7514 25.7368C55.0133 26.2888 54.2427 26.7965 53.4883 27.3273C53.4032 27.3874 53.3319 27.4668 53.2744 27.5187C52.7508 31.7164 51.3265 35.5252 48.7607 38.9884C48.6825 38.7839 48.6231 38.6582 48.5856 38.5269C48.169 37.0577 47.7674 35.584 47.3377 34.1185C47.1156 33.3614 46.8473 32.6173 46.5833 31.8177C46.183 31.989 45.874 32.2516 45.5406 32.4698C45.199 32.6936 44.8675 32.9325 44.5291 33.1613C44.1913 33.3895 43.8504 33.6133 43.5158 33.8359C42.1947 33.4176 39.049 30.324 38.1408 28.5203ZM43.2681 31.2281C43.4026 31.1606 43.5014 31.1212 43.5902 31.0655C44.4834 30.506 45.3811 29.9539 46.2649 29.3806C47.6135 28.5053 48.9609 27.6268 50.2926 26.7265C51.8313 25.6861 53.3751 24.6514 54.8751 23.5566C56.0323 22.7119 57.1375 21.7947 58.2416 20.8794C59.0009 20.2498 59.739 19.5908 60.4477 18.9043C61.2615 18.1159 62.044 17.2944 62.8159 16.4647C63.3708 15.8676 63.9062 15.2493 64.4135 14.6116C65.2085 13.6118 65.9516 12.5727 66.6178 11.4804C67.2495 10.4444 67.835 9.38282 68.3079 8.26492C68.8784 6.91632 69.335 5.52832 69.5771 4.07968C69.6721 3.5126 69.7297 2.93865 69.816 2.27779C69.6477 2.41221 69.5502 2.47536 69.4714 2.55601C68.6626 3.38006 67.8625 4.21285 67.0488 5.03189C66.0373 6.05038 65.0171 7.06074 63.9956 8.06923C63.8499 8.21303 63.6747 8.32619 63.5121 8.45436C63.4352 8.39309 63.3833 8.35308 63.3332 8.31119C62.5576 7.66596 61.6619 7.29708 60.6592 7.27332C59.0485 7.2358 57.7693 7.90667 56.8748 9.24402C56.2162 10.2287 56.0179 11.3235 56.2762 12.4889C56.4326 13.1948 56.7222 13.8363 57.2132 14.379C57.2795 14.4527 57.3196 14.5503 57.3984 14.6822C52.2016 19.8772 47.0186 25.0571 41.8275 30.2465C41.8907 30.3146 41.9195 30.3615 41.9608 30.3884C42.3899 30.6673 42.8227 30.943 43.2681 31.2281Z" fill="#149E47"/>
<path d="M9.8462 16.9456C9.69232 17.01 9.5372 17.0725 9.38395 17.1394C8.37562 17.5802 7.45487 18.1516 6.61919 18.8769C5.30186 20.0198 4.39237 21.4265 3.78062 23.0427C3.35903 24.1569 3.12696 25.3117 2.99686 26.4958C2.88114 27.55 2.87989 28.6078 2.95432 29.6545C3.13447 32.176 3.7262 34.6193 4.60567 36.9852C5.03227 38.1318 5.52955 39.2541 6.03309 40.3708C6.86251 42.2108 7.86458 43.962 8.96423 45.6514C9.73173 46.8306 10.5737 47.9628 11.405 49.0989C11.9254 49.8098 12.4784 50.4975 13.0338 51.1815C13.4147 51.6504 13.8301 52.0912 14.2216 52.552C15.4714 54.0206 16.8463 55.3692 18.2381 56.6985C19.1125 57.5331 20.042 58.314 20.984 59.0743C22.1512 60.0159 23.3347 60.9418 24.5526 61.8165C25.5365 62.523 26.573 63.157 27.6013 63.7991C28.9674 64.6519 30.3949 65.3959 31.8523 66.0793C33.645 66.9202 35.4903 67.6298 37.4068 68.1375C38.2456 68.3601 39.0895 68.5739 39.9427 68.7277C40.717 68.8672 41.5052 68.9391 42.2902 69.0041C42.9451 69.0585 43.6056 69.0941 44.2624 69.0779C46.0395 69.0335 47.7665 68.7321 49.4154 68.03C50.7571 67.4592 51.9393 66.6645 52.9358 65.6035C53.7739 64.7113 54.4095 63.6834 54.8842 62.5555C54.9149 62.4824 54.9424 62.4086 54.9762 62.3367C54.9981 62.2904 55.0281 62.2479 55.0944 62.1379C55.1676 62.4305 55.0688 62.6531 55.0312 62.8619C54.8229 64.0204 54.4833 65.144 53.951 66.1956C53.3192 67.4423 52.4704 68.5202 51.3801 69.413C49.9809 70.5584 48.3864 71.2624 46.6312 71.6363C45.7543 71.8232 44.8667 71.8976 43.9734 71.9726C43.1897 72.0383 42.4172 71.9733 41.6503 71.9207C40.6182 71.8495 39.593 71.6513 38.5715 71.4662C37.2211 71.2218 35.9094 70.8241 34.6146 70.3727C33.3066 69.9169 32.0312 69.383 30.7727 68.8046C29.1776 68.0713 27.6451 67.2222 26.1426 66.32C24.5488 65.3634 23.0138 64.3168 21.5332 63.1914C20.884 62.6975 20.2316 62.2073 19.5948 61.6971C19.1325 61.327 18.6934 60.9287 18.2462 60.5405C17.6507 60.0221 17.0515 59.5076 16.466 58.978C16.1151 58.6604 15.7848 58.3184 15.4495 57.9839C14.7959 57.3324 14.1309 56.6916 13.4979 56.0207C12.8655 55.3511 12.2619 54.654 11.6546 53.9612C11.151 53.3873 10.6406 52.8183 10.1683 52.22C9.41898 51.2696 8.66336 50.3199 7.97405 49.3265C7.08082 48.0391 6.24138 46.7143 5.39632 45.3938C5.07731 44.8955 4.79833 44.3697 4.51685 43.8483C4.1797 43.2212 3.84005 42.5941 3.53355 41.952C2.46955 39.7249 1.55443 37.4422 0.920161 35.0501C0.58864 33.8009 0.35595 32.5361 0.164544 31.2619C0.101993 30.8474 0.0957378 30.4235 0.0700919 30.004C0.0413184 29.5313 -0.010599 29.058 0.00191119 28.5859C0.050701 26.7197 0.297152 24.8859 1.04589 23.1546C1.44496 22.2324 1.95413 21.3746 2.59716 20.5931C3.55419 19.4308 4.71826 18.5461 6.07875 17.9203C7.26785 17.3738 8.51574 17.0181 9.8462 16.9456Z" fill="#F36C01"/>
<path d="M49.741 51.9055C49.8361 52.3125 49.9418 52.7176 50.0238 53.1271C50.2408 54.2119 50.4003 55.306 50.3678 56.4152C50.3346 57.5406 50.1557 58.6454 49.6866 59.6782C49.1299 60.903 48.2654 61.8477 47.0613 62.4798C46.255 62.9031 45.3993 63.1219 44.5042 63.2507C43.7136 63.3645 42.9204 63.352 42.1361 63.2983C40.8738 63.2113 39.6371 62.9394 38.4262 62.5667C37.0006 62.1278 35.6151 61.5895 34.2715 60.938C32.906 60.2766 31.5637 59.5719 30.2958 58.7404C29.0623 57.932 27.8425 57.0998 26.6509 56.2314C25.844 55.643 25.0928 54.9778 24.3215 54.3413C23.3864 53.5698 22.4813 52.7645 21.6318 51.898C20.7836 51.0326 19.8935 50.2061 19.076 49.3133C18.0101 48.1491 16.9686 46.9593 16.0385 45.6801C15.2335 44.5722 14.4178 43.4706 13.6597 42.3314C13.0617 41.4336 12.5363 40.4876 11.9921 39.5548C11.3065 38.38 10.7379 37.1465 10.2356 35.8841C9.61075 34.3148 9.09095 32.7149 8.84825 31.0343C8.73378 30.2402 8.60868 29.4443 8.63683 28.6428C8.68061 27.3992 8.87077 26.1775 9.44436 25.0515C10.1168 23.731 11.1445 22.782 12.5219 22.2311C13.4839 21.8466 14.4879 21.6741 15.5287 21.6522C16.9098 21.6234 18.2572 21.821 19.5945 22.1324C19.719 22.1611 19.8404 22.203 19.9548 22.3018C19.841 22.3018 19.7271 22.3105 19.6145 22.3005C19.1304 22.2561 18.6481 22.1799 18.1634 22.1661C17.7443 22.1542 17.3195 22.1824 16.9048 22.2443C16.1761 22.3531 15.4555 22.495 14.7787 22.822C13.741 23.3234 12.9016 24.0318 12.3367 25.0421C11.9007 25.8218 11.6593 26.6596 11.5511 27.5499C11.4673 28.2358 11.4635 28.9204 11.5029 29.6013C11.5398 30.2409 11.6493 30.8811 11.7781 31.5107C12.1422 33.2876 12.7715 34.9738 13.5308 36.62C14.5285 38.7833 15.7533 40.809 17.1482 42.7341C17.8506 43.7038 18.5674 44.6654 19.3256 45.5907C20.0092 46.4248 20.7492 47.2144 21.4823 48.0066C22.1091 48.6837 22.7421 49.3564 23.407 49.9954C24.1188 50.6788 24.8707 51.3209 25.6051 51.9805C26.6153 52.8871 27.6836 53.7217 28.782 54.5183C29.988 55.3929 31.2159 56.2364 32.5207 56.9579C33.444 57.4681 34.3716 57.972 35.3205 58.4315C37.0582 59.2737 38.874 59.9052 40.7724 60.2747C41.6638 60.4479 42.5677 60.5648 43.4784 60.5291C44.483 60.4898 45.4757 60.3435 46.4039 59.9377C47.8132 59.3218 48.7984 58.2821 49.3388 56.841C49.6603 55.9838 49.8017 55.0897 49.8148 54.1738C49.8248 53.461 49.7836 52.7539 49.661 52.0518C49.6547 52.0149 49.6672 51.9749 49.671 51.9361C49.6935 51.9248 49.7172 51.9155 49.741 51.9055Z" fill="#149E47"/>
<path d="M31.8642 38.0017C32.4566 36.3436 36.109 30.6078 37.1642 29.6663C37.8604 30.6897 38.5109 31.7426 39.3904 32.6229C40.2636 33.4964 41.3026 34.1479 42.3684 34.8587C41.2413 35.7772 40.0878 36.5937 38.9119 37.3809C37.7315 38.1712 36.5174 38.902 35.1976 39.4991C35.2814 39.3635 35.3646 39.2272 35.4891 39.0252C34.0579 39.6767 32.6787 40.28 31.2356 40.8402C31.2168 40.4238 31.4176 40.1212 31.5315 39.798C31.6534 39.4504 31.8054 39.1134 31.9493 38.7739C32.0857 38.4513 32.227 38.1305 32.4009 37.7298C32.1933 37.8348 32.06 37.9023 31.8642 38.0017Z" fill="#F36C01"/>
<path d="M24.226 31.5387C24.0728 31.6125 23.9189 31.6844 23.7663 31.7601C23.1921 32.0452 22.8856 32.5297 22.7417 33.1368C22.5384 33.9915 22.7405 34.8112 22.9738 35.6214C23.3122 36.7956 23.882 37.8654 24.5125 38.9045C25.1843 40.0105 25.9631 41.0384 26.8138 42.0112C27.3423 42.6158 27.8722 43.2217 28.4445 43.7844C29.9901 45.3036 31.6678 46.661 33.543 47.7576C34.5926 48.3716 35.6979 48.8643 36.8826 49.1688C37.4938 49.3257 38.1161 49.3451 38.7279 49.2738C39.4504 49.1894 40.0033 48.7986 40.3098 48.1115C40.3611 47.9959 40.4136 47.8802 40.4912 47.7083C40.5093 49.0287 39.6605 50.2473 38.2269 50.563C37.5888 50.7037 36.9477 50.6799 36.3034 50.5962C35.0161 50.4292 33.8333 49.949 32.6936 49.3645C31.3894 48.6955 30.1603 47.8989 29.0456 46.9442C28.2462 46.2596 27.4449 45.5712 26.7056 44.8241C25.7241 43.8325 24.8259 42.764 24.0309 41.6111C23.4079 40.7083 22.8499 39.771 22.3783 38.7819C21.9167 37.8147 21.5664 36.81 21.3975 35.749C21.2937 35.0969 21.283 34.4467 21.4375 33.7939C21.7215 32.596 22.464 31.867 23.6449 31.5675C23.832 31.52 24.0259 31.5019 24.2173 31.47C24.2185 31.4919 24.2223 31.515 24.226 31.5387Z" fill="#F36C01"/>
<path d="M33.7956 30.5371C33.4071 31.1236 33.0537 31.6575 32.6828 32.2171C32.2906 31.9332 31.9322 31.6725 31.5731 31.4131C30.6436 30.7409 29.6835 30.1176 28.6845 29.5536C27.5817 28.9303 26.4483 28.3701 25.2611 27.9256C24.1489 27.5092 23.0143 27.1684 21.8264 27.0571C21.2641 27.0046 20.6955 26.959 20.1332 26.9871C18.9028 27.049 17.7762 27.4266 16.8724 28.2988C16.3219 28.8296 15.9835 29.5011 15.7671 30.2326C15.7302 30.3564 15.6977 30.4821 15.6082 30.6046C15.6082 30.2083 15.5694 29.8062 15.6189 29.4161C15.6726 28.9884 15.7965 28.5683 15.911 28.1507C16.0924 27.4892 16.4558 26.9196 16.9168 26.4263C17.3991 25.9099 17.9983 25.5441 18.6645 25.304C19.7366 24.9176 20.8362 24.8495 21.969 24.9683C24.0989 25.1908 26.058 25.9236 27.9671 26.8446C29.7185 27.6899 31.348 28.7309 32.9261 29.8569C33.2107 30.0607 33.4791 30.2889 33.7956 30.5371Z" fill="#149E47"/>
<path d="M39.8203 39.3596C40.3789 38.9883 40.92 38.6287 41.4885 38.2505C41.6349 38.4312 41.7619 38.5781 41.8776 38.7325C42.8784 40.0736 43.7892 41.4716 44.5923 42.9422C45.5381 44.6734 46.2944 46.4728 46.7641 48.3935C47.0393 49.5189 47.1294 50.6593 47.0368 51.8028C46.9342 53.0676 46.4951 54.2143 45.5444 55.1109C45.0577 55.5692 44.4866 55.8986 43.8524 56.1C43.0448 56.3569 42.2141 56.4726 41.2853 56.4132C41.3947 56.3563 41.4385 56.3276 41.486 56.31C41.5473 56.2875 41.6124 56.2744 41.6762 56.2569C42.4787 56.0349 43.1999 55.6642 43.7717 55.0496C44.3209 54.4594 44.6824 53.7629 44.8513 52.9714C44.9864 52.3399 45.0946 51.7009 45.0465 51.0557C44.9733 50.086 44.8225 49.1269 44.5523 48.1872C44.279 47.2349 43.918 46.3184 43.5177 45.4143C42.8647 43.94 42.0465 42.5589 41.1464 41.2253C40.7636 40.6582 40.3489 40.113 39.9498 39.5578C39.9129 39.5072 39.8804 39.4522 39.8203 39.3596Z" fill="#149E47"/>
<path d="M57.4906 11.5698C57.3799 9.99172 58.7517 8.54746 60.4249 8.54371C62.1232 8.53996 63.4474 9.87606 63.4524 11.5404C63.4574 13.1428 62.1175 14.5446 60.4737 14.5458C58.8267 14.5477 57.4043 13.1453 57.4906 11.5698Z" fill="#F36C01"/>
</svg>
