<svg width="24" height="25" viewBox="0 0 24 25" fill="none" xmlns="http://www.w3.org/2000/svg">
<path d="M24 3.89512C23.1013 4.31134 22.148 4.58459 21.172 4.7058C22.1871 4.06776 22.968 3.05946 23.3355 1.85624C22.369 2.45613 21.3116 2.87877 20.2089 3.1059C19.2783 2.06638 17.9769 1.47758 16.6153 1.48005C13.8972 1.48005 11.6912 3.78526 11.6912 6.62889C11.6912 7.03295 11.7347 7.42676 11.8198 7.8028C7.72705 7.58772 4.09978 5.53859 1.67078 2.4227C1.24665 3.18229 1.00473 4.06776 1.00473 5.01169C1.00473 6.79737 1.87366 8.37373 3.19457 9.29732C2.4125 9.27225 1.64759 9.05137 0.964005 8.6532V8.71886C0.964005 11.213 2.66143 13.2944 4.91281 13.7684C4.18772 13.9738 3.42747 14.0039 2.6896 13.8565C3.31645 15.9026 5.13544 17.391 7.28914 17.4343C5.60428 18.8132 3.48151 19.6379 1.17408 19.6379C0.781722 19.6375 0.389716 19.6134 0 19.5659C2.17881 21.0264 4.76751 21.88 7.54791 21.88C16.6046 21.88 21.5563 14.032 21.5563 7.22626C21.5563 7.00365 21.5563 6.78104 21.541 6.56003C22.5045 5.83088 23.3366 4.92857 23.9985 3.89512H24Z" fill="#082644"/>
</svg>
