<svg width="276" height="60" viewBox="0 0 276 60" fill="none" xmlns="http://www.w3.org/2000/svg">
<g clip-path="url(#clip0_1098_55661)">
<path d="M32.3283 48.4815C30.5791 48.1495 28.8652 47.4501 27.6114 46.2427C27.0141 45.6682 26.4272 45.0427 26.0151 44.337C24.2337 41.277 24.4428 37.2043 28.1691 34.3608C27.6405 34.9561 25.4303 37.8444 28.7633 41.1927C32.4854 44.7637 38.1513 40.1019 40.889 34.0975C43.4405 33.7477 46.0128 32.2781 46.9399 28.0972C46.941 28.0961 46.941 28.0951 46.941 28.094C46.941 28.094 45.0627 28.2887 42.6986 26.97C44.1991 11.3338 29.9121 5.01605 27.7695 4.15842C27.7695 4.15842 27.7695 4.15842 27.7685 4.15842C27.7331 4.12824 27.6977 4.09805 27.6613 4.06787C27.6613 4.06787 27.7466 4.06995 27.9069 4.07724C30.6987 4.76522 46.4561 9.22302 49.3613 22.9493C51.3363 37.478 43.3635 50.3519 32.3283 48.4815Z" fill="#9CA3AF"/>
<path d="M50.6161 47.3836C47.1136 52.2286 43.0835 54.636 38.5591 56.2763C34.0336 57.9177 24.2793 56.4043 20.501 50.3197C16.7227 44.2351 17.3949 37.8622 22.1014 33.5605C26.1368 29.671 34.4915 33.2015 34.6601 33.2733C34.6091 33.2639 34.5581 33.2535 34.5081 33.2452C34.4509 33.2348 34.3926 33.2244 34.3364 33.215C34.2844 33.2056 34.2334 33.1973 34.1835 33.19C34.1658 33.1869 34.1481 33.1838 34.1315 33.1817C34.0763 33.1723 34.0222 33.164 33.9691 33.1567C33.915 33.1494 33.8619 33.1421 33.8089 33.1349C33.71 33.1224 33.6132 33.1109 33.5175 33.1005C33.4644 33.0943 33.4135 33.0891 33.3614 33.0849C30.22 32.7924 28.7829 33.9238 28.7829 33.9238C28.7163 33.9675 28.6497 34.0123 28.5842 34.057C28.4406 34.1559 28.3011 34.2579 28.1669 34.3609C24.4406 37.2044 24.2315 41.2771 26.0129 44.3371C26.425 45.0428 27.0119 45.6683 27.6092 46.2429C28.8631 47.4502 30.5769 48.1496 32.3261 48.4817C43.3613 50.352 51.3341 37.4782 49.3591 22.9494C46.4539 9.22318 30.6965 4.76537 27.9047 4.07739C30.5394 4.20749 53.511 6.01227 55.0802 29.3754C55.6556 36.5487 53.871 42.6312 50.6161 47.3836Z" fill="#D1D5DB"/>
<path d="M50.621 47.3835C48.7043 50.1853 46.2767 52.524 43.5202 54.3538C43.5181 54.3559 43.516 54.3569 43.514 54.358C22.7692 66.5605 7.07741 44.4723 16.7276 32.2261C18.9212 29.5512 25.0626 26.5359 34.5505 30.5712C43.925 34.5585 46.8729 28.2481 46.9426 28.0972C45.4983 34.6106 40.0614 34.5419 36.9292 33.9153C36.9272 33.9143 36.924 33.9132 36.9209 33.9132C36.9178 33.9122 36.9157 33.9122 36.9126 33.9112C36.8939 33.907 36.8751 33.9028 36.8564 33.8976C36.7898 33.882 36.7243 33.8654 36.6597 33.8477C36.6181 33.8373 36.5765 33.8268 36.5359 33.8154C36.4537 33.7946 36.3736 33.7727 36.2955 33.7509C36.2622 33.7425 36.2289 33.7332 36.1967 33.7238C36.1405 33.7082 36.0853 33.6926 36.0312 33.677C35.871 33.6312 35.7222 33.5875 35.59 33.5479C35.5744 33.5427 35.5599 33.5385 35.5453 33.5344C35.539 33.5323 35.5328 33.5302 35.5276 33.5281C35.4787 33.5136 35.4329 33.5 35.3892 33.4855C35.3445 33.4719 35.3018 33.4584 35.2612 33.4459C35.2258 33.4334 35.1925 33.423 35.1613 33.4136C35.1374 33.4053 35.1155 33.398 35.0947 33.3918C35.0593 33.3803 35.0281 33.3699 35.0011 33.3606C34.9678 33.3502 34.9407 33.3408 34.9199 33.3335C34.9105 33.3304 34.9022 33.3273 34.896 33.3252C34.8876 33.3221 34.8814 33.32 34.8772 33.3189C34.87 33.3158 34.8658 33.3148 34.8658 33.3148C34.8002 33.3012 34.7347 33.2877 34.6702 33.2752C34.6691 33.2742 34.6681 33.2742 34.6681 33.2742C34.667 33.2742 34.666 33.2742 34.665 33.2731C34.4964 33.2013 26.1417 29.6709 22.1063 33.5604C17.3998 37.8621 16.7276 44.235 20.5059 50.3196C24.2843 56.4042 34.0385 57.9175 38.564 56.2762C43.0884 54.6359 47.1185 52.2285 50.621 47.3835Z" fill="#9CA3AF"/>
<path d="M46.9358 28.0939C46.9358 28.095 46.9358 28.096 46.9348 28.0971C46.8651 28.248 43.9171 34.5584 34.5426 30.5711C25.0547 26.5358 18.9133 29.5511 16.7198 32.226C7.06955 44.4722 22.7613 66.5604 43.5061 54.3579C40.0483 56.6539 36.0764 58.1454 31.9464 58.7387C31.9464 58.7387 31.9454 58.7387 31.9433 58.7387C17.9425 59.6088 8.82395 49.8043 8.6148 39.1755C8.4431 31.921 12.3993 28.121 13.5429 26.9657C19.0631 21.3849 24.7041 22.6921 30.9641 26.0925C31.6925 26.488 35.3158 28.2834 36.2721 28.6497C38.0951 29.3471 39.6518 29.8019 41.0535 29.8144C44.7392 29.8477 46.8692 28.1481 46.9348 28.095C46.9358 28.0939 46.9358 28.0939 46.9358 28.0939Z" fill="#E5E7EB"/>
<path d="M46.9398 28.0942C46.9398 28.0942 46.9398 28.0942 46.9387 28.0952C44.2197 29.1058 39.0554 28.4782 33.3406 23.0982C27.6258 17.7183 21.0463 18.4874 21.0463 18.4874C6.54177 18.4489 1.37222 36.3801 5.6781 46.6852C6.10265 47.701 6.71242 48.8168 7.46892 49.9367C-7.66199 34.4754 6.56362 16.8887 11.8362 15.3275C11.8362 15.3275 7.27849 7.919 11.729 0.969482C11.729 0.969482 13.8663 4.02323 18.6665 6.70333C18.6665 6.70333 18.6696 6.70437 18.6748 6.70749C18.681 6.71062 18.6925 6.71582 18.7071 6.72415C18.833 6.79596 18.963 6.8657 19.0931 6.93647C19.0931 6.93647 19.0962 6.93231 19.1025 6.92294C19.8996 7.32261 21.5593 8.15214 22.0972 8.38841C22.8163 8.70378 26.0649 10.1318 26.1981 10.1901C26.2658 10.2202 26.759 10.4367 27.221 10.6397C27.6154 10.8125 27.9879 10.9759 28.0555 11.0061C28.0586 11.0081 28.0618 11.0092 28.0628 11.0092C28.0659 11.0102 28.067 11.0113 28.067 11.0113C28.6851 11.3329 29.5644 11.8221 30.5269 12.4559C32.5019 13.758 34.8255 15.6699 35.9555 17.9962C37.0981 20.0455 37.7193 21.9513 38.7047 23.3054C40.0335 25.132 41.4352 26.2675 42.6974 26.9701C45.0615 28.2888 46.9398 28.0942 46.9398 28.0942Z" fill="#9CA3AF"/>
<path d="M27.2201 10.6395C26.7581 10.4366 26.2648 10.2201 26.1972 10.1899C26.064 10.1316 22.8154 8.7036 22.0963 8.38824C21.5583 8.15197 19.8986 7.32244 19.1016 6.92277C19.1016 6.92277 21.088 3.74412 25.8954 2.17041C25.8954 2.17041 25.295 6.67714 27.2201 10.6395Z" fill="#D1D5DB"/>
<path d="M19.0985 6.92292C18.9092 6.82716 18.7687 6.75639 18.7031 6.72412Z" fill="#9CA3AF"/>
<path d="M34.6629 33.2743C34.6618 33.2743 34.6608 33.2743 34.6597 33.2732C34.6087 33.2649 34.5578 33.2545 34.5078 33.2451" fill="#9CA3AF"/>
<path d="M27.4844 3.97949C27.4844 3.97949 27.6332 4.01072 27.9079 4.07733Z" fill="#9CA3AF"/>
<path d="M34.875 33.3188C34.8792 33.3199 34.8854 33.322 34.8937 33.3251C34.9 33.3272 34.9083 33.3303 34.9177 33.3334" fill="#9CA3AF"/>
<path d="M35.2561 33.4458C35.2208 33.4344 35.1875 33.4229 35.1562 33.4136Z" fill="#9CA3AF"/>
<path d="M35.5212 33.528C35.4723 33.5135 35.4265 33.4999 35.3828 33.4854Z" fill="#9CA3AF"/>
<path d="M36.1889 33.7238C36.1327 33.7082 36.0775 33.6926 36.0234 33.677Z" fill="#9CA3AF"/>
<path d="M36.5294 33.8155C36.4472 33.7947 36.3671 33.7728 36.2891 33.751Z" fill="#9CA3AF"/>
<path d="M36.8607 33.8979C36.7941 33.8822 36.7286 33.8656 36.6641 33.8479Z" fill="#9CA3AF"/>
<path d="M28.2681 34.2485C28.2681 34.2485 28.2286 34.287 28.1641 34.3609Z" fill="#9CA3AF"/>
<path d="M43.5193 54.3474C43.5151 54.3495 43.512 54.3516 43.5078 54.3537Z" fill="#9CA3AF"/>
<path d="M34.6641 33.2751C34.7067 33.2918 35.6058 33.6498 36.9065 33.9111Z" fill="#9CA3AF"/>
<path d="M46.9407 28.095C46.8752 28.1481 44.7451 29.8477 41.0595 29.8144C39.6578 29.8019 38.1011 29.3471 36.278 28.6498C35.3218 28.2834 31.6985 26.488 30.9701 26.0925C24.71 22.6921 19.0691 21.3849 13.5489 26.9657C12.4053 28.121 8.44907 31.921 8.62076 39.1755C8.82992 49.8043 17.9484 59.6088 31.9493 58.7387C31.9462 58.7397 31.943 58.7408 31.9378 58.7408C26.2969 59.5495 20.3657 58.6804 15.0608 55.892C11.9641 53.9717 9.46258 51.9723 7.47093 49.9365C6.71444 48.8166 6.10467 47.7008 5.68011 46.685C1.37424 36.3799 6.54379 18.4487 21.0483 18.4872C21.0483 18.4872 27.6278 17.7181 33.3426 23.0981C39.0574 28.478 44.2217 29.1056 46.9407 28.095Z" fill="#D1D5DB"/>
<path d="M42.6947 26.97C41.4325 26.2674 40.0308 25.1319 38.702 23.3053C37.7166 21.9512 37.0954 20.0454 35.9528 17.9961C35.9528 17.9961 34.9112 10.1806 27.7656 4.15845C29.9082 5.01608 44.1952 11.3338 42.6947 26.97Z" fill="#D1D5DB"/>
<path d="M42.6927 26.97C42.6917 26.9887 42.6896 27.0085 42.6875 27.0272Z" fill="#9CA3AF"/>
<path d="M27.5 4.05664C27.5 4.05664 27.5936 4.08995 27.7653 4.15864Z" fill="#9CA3AF"/>
</g>
<path d="M72.3053 35.8043C72.3053 36.772 72.1602 37.6816 71.87 38.5331C71.5991 39.3654 71.1831 40.0911 70.622 40.7104C70.0802 41.3491 69.4127 41.8523 68.6194 42.22C67.8454 42.5877 66.965 42.7716 65.9782 42.7716C65.4558 42.7716 64.9624 42.6651 64.498 42.4523C64.053 42.2781 63.7047 41.9878 63.4532 41.5813C63.3177 41.3297 63.25 41.0201 63.25 40.6524C63.25 40.5556 63.25 40.4588 63.25 40.3621C63.25 40.2459 63.2693 40.1395 63.308 40.0427L63.3661 39.8685L63.5402 39.9266C63.8111 40.0234 64.1594 40.1105 64.5851 40.1879C65.0301 40.2459 65.4751 40.275 65.9202 40.275C66.0556 40.275 66.2394 40.2556 66.4716 40.2169C66.7038 40.1782 66.9553 40.0911 67.2262 39.9556C67.4971 39.8202 67.7487 39.6363 67.9808 39.4041C68.2324 39.1525 68.4452 38.8235 68.6194 38.417C68.7355 38.1461 68.8128 37.8267 68.8515 37.459C68.8902 37.0913 68.9096 36.6752 68.9096 36.2107L68.9676 25.5275C68.9676 24.3663 69.2385 23.5341 69.7803 23.0309C70.3414 22.5277 71.2218 22.2761 72.4214 22.2761C72.4021 22.4116 72.3827 22.5955 72.3634 22.8277C72.344 23.0406 72.3247 23.3309 72.3053 23.6986C72.3053 24.047 72.3053 24.5115 72.3053 25.0921V35.8043Z" fill="#9CA3AF"/>
<path d="M85.804 30.8982C86.4038 31.5175 86.8682 32.2529 87.1971 33.1045C87.5454 33.9367 87.7196 34.8366 87.7196 35.8043C87.7196 36.772 87.5648 37.6816 87.2552 38.5331C86.9456 39.3654 86.5103 40.0911 85.9491 40.7104C85.388 41.3491 84.7011 41.8523 83.8885 42.22C83.0952 42.5877 82.2051 42.7716 81.2183 42.7716C80.3282 42.7716 79.4866 42.5877 78.6932 42.22C77.9193 41.8523 77.2324 41.3491 76.6326 40.7104C76.0521 40.0911 75.5877 39.3654 75.2394 38.5331C74.9105 37.6816 74.746 36.772 74.746 35.8043C74.746 34.8366 74.8912 33.9367 75.1814 33.1045C75.491 32.2529 75.9263 31.5175 76.4875 30.8982C77.0486 30.2595 77.7258 29.7563 78.5191 29.3886C79.3318 29.0209 80.2315 28.837 81.2183 28.837C82.1277 28.837 82.9694 29.0209 83.7433 29.3886C84.5367 29.7563 85.2235 30.2595 85.804 30.8982ZM81.2183 40.275C81.4698 40.275 81.7601 40.2169 82.089 40.1008C82.4373 39.9847 82.7662 39.7621 83.0758 39.4331C83.3854 39.1041 83.6466 38.6493 83.8594 38.0687C84.0723 37.4881 84.1787 36.7333 84.1787 35.8043C84.1787 34.8753 84.0723 34.1205 83.8594 33.5399C83.6466 32.94 83.3854 32.4851 83.0758 32.1755C82.7662 31.8465 82.4373 31.6239 82.089 31.5078C81.7601 31.3917 81.4698 31.3336 81.2183 31.3336C80.9668 31.3336 80.6668 31.3917 80.3186 31.5078C79.9896 31.6239 79.6704 31.8465 79.3608 32.1755C79.0512 32.4851 78.79 32.94 78.5772 33.5399C78.3643 34.1205 78.2579 34.8753 78.2579 35.8043C78.2579 36.7333 78.3643 37.4881 78.5772 38.0687C78.79 38.6493 79.0512 39.1041 79.3608 39.4331C79.6704 39.7621 79.9896 39.9847 80.3186 40.1008C80.6668 40.2169 80.9668 40.275 81.2183 40.275Z" fill="#9CA3AF"/>
<path d="M93.4256 29.5047C94.277 29.0596 95.2541 28.837 96.357 28.837C97.2664 28.837 98.1081 29.0209 98.8821 29.3886C99.6754 29.7563 100.362 30.2498 100.943 30.8691C101.543 31.5078 102.007 32.2432 102.336 33.0754C102.684 33.9076 102.858 34.8173 102.858 35.8043C102.858 36.7526 102.704 37.6526 102.394 38.5041C102.084 39.3363 101.649 40.0718 101.088 40.7104C100.527 41.3297 99.8398 41.8233 99.0272 42.191C98.2339 42.5587 97.3438 42.7426 96.357 42.7426C95.4476 42.7426 94.5963 42.5587 93.803 42.191C93.029 41.8233 92.3518 41.3297 91.7713 40.7104C91.1908 40.0911 90.7265 39.3654 90.3782 38.5331C90.0492 37.6816 89.8848 36.772 89.8848 35.8043V25.4985C89.8848 24.3373 90.1944 23.5148 90.8135 23.0309C91.452 22.5277 92.3711 22.2761 93.5708 22.2761C93.5514 22.3922 93.5321 22.5664 93.5127 22.7987C93.4934 23.0116 93.474 23.3019 93.4547 23.6696C93.4547 24.0373 93.4547 24.5115 93.4547 25.0921C93.4547 25.2663 93.4547 25.5759 93.4547 26.021C93.4547 26.4468 93.445 26.9016 93.4256 27.3855C93.4256 27.8693 93.4256 28.3144 93.4256 28.7209C93.4256 29.1273 93.4256 29.3886 93.4256 29.5047ZM96.357 40.2459C96.6086 40.2459 96.8988 40.1879 97.2277 40.0718C97.576 39.9556 97.9049 39.7427 98.2145 39.4331C98.5241 39.1041 98.7853 38.6493 98.9982 38.0687C99.211 37.4687 99.3174 36.7042 99.3174 35.7753C99.3174 34.8463 99.211 34.0915 98.9982 33.5109C98.7853 32.9109 98.5241 32.4561 98.2145 32.1465C97.9049 31.8174 97.576 31.5949 97.2277 31.4788C96.8988 31.3626 96.6086 31.3046 96.357 31.3046C96.1055 31.3046 95.8056 31.3626 95.4573 31.4788C95.1284 31.5949 94.8091 31.8174 94.4995 32.1465C94.1899 32.4561 93.9287 32.9109 93.7159 33.5109C93.503 34.0915 93.3966 34.8463 93.3966 35.7753C93.3966 36.7042 93.503 37.4687 93.7159 38.0687C93.9287 38.6493 94.1899 39.1041 94.4995 39.4331C94.8091 39.7427 95.1284 39.9556 95.4573 40.0718C95.8056 40.1879 96.1055 40.2459 96.357 40.2459Z" fill="#9CA3AF"/>
<path d="M118.094 42.7426C117.107 42.7426 116.217 42.6264 115.423 42.3942C114.649 42.1619 113.982 41.891 113.421 41.5813C112.86 41.2523 112.405 40.9233 112.057 40.5943C111.728 40.2653 111.525 40.004 111.447 39.8105L111.534 39.7234C111.708 39.4718 111.902 39.2686 112.115 39.1138C112.308 38.9976 112.511 38.9396 112.724 38.9396C112.86 38.9396 112.985 38.9589 113.102 38.9976C113.237 39.0363 113.382 39.0847 113.537 39.1428C113.692 39.1815 113.847 39.2396 114.001 39.317C114.156 39.375 114.33 39.4524 114.524 39.5492C114.911 39.704 115.365 39.8492 115.888 39.9847C116.41 40.1008 117.039 40.1782 117.774 40.2169H118.094C118.81 40.2169 119.419 40.1395 119.922 39.9847C120.425 39.8105 120.832 39.5976 121.141 39.346C121.451 39.075 121.673 38.7847 121.809 38.4751C121.944 38.1461 122.012 37.8364 122.012 37.5461C122.031 37.0429 121.876 36.5881 121.547 36.1817C121.238 35.7559 120.802 35.3495 120.241 34.9624C119.68 34.5753 119.022 34.1786 118.268 33.7722C117.513 33.3657 116.71 32.9303 115.859 32.4658C114.466 31.6723 113.431 30.7917 112.753 29.824C112.076 28.837 111.786 27.8016 111.883 26.7178C111.96 25.9049 112.182 25.1985 112.55 24.5986C112.918 23.9986 113.372 23.5051 113.914 23.118C114.475 22.7116 115.095 22.4213 115.772 22.2471C116.468 22.0536 117.165 21.9568 117.861 21.9568C119.042 21.9568 120.077 22.1116 120.967 22.4213C121.857 22.7309 122.612 23.0696 123.231 23.4373C123.947 23.8631 124.556 24.347 125.059 24.8889L125.001 24.9759C124.769 25.2663 124.576 25.4598 124.421 25.5566C124.227 25.692 124.014 25.7598 123.782 25.7598C123.569 25.7598 123.308 25.692 122.999 25.5566C122.844 25.4985 122.679 25.4404 122.505 25.3824C122.35 25.305 122.176 25.2275 121.983 25.1501C121.422 24.9372 120.822 24.7727 120.183 24.6566C119.564 24.5211 119.013 24.4631 118.529 24.4824C118.277 24.4824 118.007 24.5018 117.716 24.5405C117.426 24.5792 117.146 24.6469 116.875 24.7437C116.623 24.8405 116.391 24.9759 116.178 25.1501C115.985 25.3243 115.849 25.5469 115.772 25.8178C115.598 26.3984 115.714 26.9113 116.12 27.3564C116.546 27.8016 117.107 28.237 117.803 28.6628C118.519 29.0886 119.303 29.5144 120.154 29.9401C121.025 30.3466 121.838 30.8111 122.592 31.3336C123.637 32.069 124.411 32.8238 124.914 33.598C125.437 34.3528 125.756 35.0979 125.872 35.8333C125.988 36.5688 125.949 37.2752 125.756 37.9525C125.562 38.6299 125.291 39.2299 124.943 39.7524C124.324 40.7201 123.395 41.4652 122.157 41.9878C120.938 42.491 119.583 42.7426 118.094 42.7426Z" fill="#9CA3AF"/>
<path d="M138.775 39.6363C139.007 39.7718 139.23 40.004 139.442 40.333L139.53 40.4201L139.442 40.5072C138.804 41.2039 138.04 41.7555 137.15 42.1619C136.279 42.549 135.331 42.7426 134.305 42.7426C133.415 42.7426 132.574 42.5684 131.78 42.22C131.006 41.8523 130.319 41.3491 129.72 40.7104C129.139 40.0911 128.675 39.3654 128.326 38.5331C127.998 37.6816 127.833 36.772 127.833 35.8043C127.833 34.8366 127.978 33.9367 128.268 33.1045C128.578 32.2529 129.013 31.5078 129.574 30.8691C130.136 30.2498 130.813 29.7563 131.606 29.3886C132.419 29.0209 133.319 28.837 134.305 28.837C134.847 28.837 135.437 28.9241 136.076 29.0983C136.734 29.2531 137.343 29.5144 137.904 29.8821C138.465 30.2305 138.93 30.6949 139.297 31.2755C139.665 31.8562 139.849 32.5529 139.849 33.3657C139.849 34.1592 139.646 34.8076 139.239 35.3108C138.833 35.7946 138.349 36.1817 137.788 36.472C137.227 36.7429 136.627 36.9365 135.989 37.0526C135.37 37.1494 134.828 37.1977 134.363 37.1977C133.647 37.1977 133.019 37.159 132.477 37.0816C131.954 36.9849 131.596 36.9171 131.403 36.8784C131.48 37.5751 131.635 38.1461 131.867 38.5912C132.1 39.017 132.361 39.3557 132.651 39.6073C132.941 39.8589 133.231 40.0331 133.522 40.1298C133.812 40.2072 134.073 40.2459 134.305 40.2459C134.712 40.2459 135.099 40.2072 135.466 40.1298C135.834 40.0524 136.163 39.9653 136.453 39.8685C136.743 39.7718 137.014 39.675 137.266 39.5782C137.537 39.4815 137.798 39.4331 138.049 39.4331C138.32 39.4331 138.562 39.5008 138.775 39.6363ZM134.305 31.3046C134.092 31.3239 133.841 31.382 133.551 31.4788C133.26 31.5562 132.97 31.711 132.68 31.9432C132.409 32.1755 132.158 32.5045 131.925 32.9303C131.693 33.3561 131.529 33.898 131.432 34.556C131.742 34.6527 132.177 34.7495 132.738 34.8463C133.319 34.9237 133.889 34.9334 134.45 34.8753C135.031 34.8173 135.534 34.6527 135.96 34.3818C136.405 34.1108 136.647 33.656 136.685 33.0174C136.724 32.5335 136.53 32.1174 136.105 31.7691C135.698 31.4207 135.099 31.2659 134.305 31.3046Z" fill="#9CA3AF"/>
<path d="M152.978 30.8982C153.577 31.5175 154.042 32.2529 154.371 33.1045C154.719 33.9367 154.893 34.8366 154.893 35.8043C154.893 36.772 154.738 37.6816 154.429 38.5331C154.119 39.3654 153.684 40.0911 153.123 40.7104C152.562 41.3491 151.875 41.8523 151.062 42.22C150.269 42.5877 149.379 42.7716 148.392 42.7716C147.502 42.7716 146.66 42.5877 145.867 42.22C145.093 41.8523 144.406 41.3491 143.806 40.7104C143.226 40.0911 142.761 39.3654 142.413 38.5331C142.084 37.6816 141.92 36.772 141.92 35.8043C141.92 34.8366 142.065 33.9367 142.355 33.1045C142.665 32.2529 143.1 31.5175 143.661 30.8982C144.222 30.2595 144.899 29.7563 145.693 29.3886C146.505 29.0209 147.405 28.837 148.392 28.837C149.301 28.837 150.143 29.0209 150.917 29.3886C151.71 29.7563 152.397 30.2595 152.978 30.8982ZM148.392 40.275C148.643 40.275 148.934 40.2169 149.263 40.1008C149.611 39.9847 149.94 39.7621 150.249 39.4331C150.559 39.1041 150.82 38.6493 151.033 38.0687C151.246 37.4881 151.352 36.7333 151.352 35.8043C151.352 34.8753 151.246 34.1205 151.033 33.5399C150.82 32.94 150.559 32.4851 150.249 32.1755C149.94 31.8465 149.611 31.6239 149.263 31.5078C148.934 31.3917 148.643 31.3336 148.392 31.3336C148.14 31.3336 147.84 31.3917 147.492 31.5078C147.163 31.6239 146.844 31.8465 146.534 32.1755C146.225 32.4851 145.964 32.94 145.751 33.5399C145.538 34.1205 145.432 34.8753 145.432 35.8043C145.432 36.7333 145.538 37.4881 145.751 38.0687C145.964 38.6493 146.225 39.1041 146.534 39.4331C146.844 39.7621 147.163 39.9847 147.492 40.1008C147.84 40.2169 148.14 40.275 148.392 40.275Z" fill="#9CA3AF"/>
<path d="M173.412 42.7426C172.135 42.7426 170.897 42.52 169.697 42.0749C168.498 41.6297 167.433 40.9717 166.505 40.1008C165.595 39.2299 164.86 38.1461 164.299 36.8494C163.738 35.5527 163.457 34.0528 163.457 32.3497C163.457 30.6466 163.738 29.1466 164.299 27.85C164.86 26.5533 165.595 25.4695 166.505 24.5986C167.433 23.7276 168.498 23.0793 169.697 22.6535C170.897 22.2084 172.135 21.9858 173.412 21.9858C174.225 21.9858 174.941 22.0826 175.56 22.2761C176.179 22.4503 176.711 22.6632 177.156 22.9148C177.621 23.1664 177.988 23.4277 178.259 23.6986C178.53 23.9502 178.714 24.1534 178.811 24.3083C178.753 24.4244 178.685 24.5308 178.607 24.6276C178.549 24.7244 178.472 24.8211 178.375 24.9179C178.298 24.9953 178.211 25.0534 178.114 25.0921C177.901 25.2275 177.659 25.2953 177.388 25.2953C177.118 25.2953 176.866 25.2566 176.634 25.1792C176.402 25.0824 176.14 24.9856 175.85 24.8889C175.579 24.7921 175.25 24.705 174.863 24.6276C174.476 24.5308 173.993 24.4824 173.412 24.4824C172.658 24.4824 171.913 24.6373 171.177 24.9469C170.462 25.2566 169.813 25.7307 169.233 26.3694C168.652 27.0081 168.188 27.8306 167.84 28.837C167.491 29.824 167.317 30.9949 167.317 32.3497C167.317 33.7238 167.491 34.9043 167.84 35.8914C168.188 36.8784 168.652 37.7009 169.233 38.359C169.813 38.9976 170.462 39.4718 171.177 39.7815C171.913 40.0911 172.658 40.2459 173.412 40.2459C173.993 40.2459 174.476 40.2072 174.863 40.1298C175.25 40.0331 175.579 39.9363 175.85 39.8395C176.14 39.7427 176.402 39.6557 176.634 39.5782C176.866 39.4815 177.118 39.4331 177.388 39.4331C177.659 39.4331 177.901 39.5008 178.114 39.6363C178.327 39.7911 178.491 39.946 178.607 40.1008C178.685 40.1976 178.753 40.304 178.811 40.4201C178.714 40.5943 178.53 40.8169 178.259 41.0878C177.988 41.3394 177.621 41.591 177.156 41.8426C176.711 42.0749 176.179 42.2781 175.56 42.4523C174.941 42.6458 174.225 42.7426 173.412 42.7426Z" fill="#9CA3AF"/>
<path d="M191.043 30.8982C191.643 31.5175 192.107 32.2529 192.436 33.1045C192.784 33.9367 192.958 34.8366 192.958 35.8043C192.958 36.772 192.803 37.6816 192.494 38.5331C192.184 39.3654 191.749 40.0911 191.188 40.7104C190.627 41.3491 189.94 41.8523 189.127 42.22C188.334 42.5877 187.444 42.7716 186.457 42.7716C185.567 42.7716 184.725 42.5877 183.932 42.22C183.158 41.8523 182.471 41.3491 181.871 40.7104C181.291 40.0911 180.826 39.3654 180.478 38.5331C180.149 37.6816 179.985 36.772 179.985 35.8043C179.985 34.8366 180.13 33.9367 180.42 33.1045C180.73 32.2529 181.165 31.5175 181.726 30.8982C182.287 30.2595 182.964 29.7563 183.758 29.3886C184.57 29.0209 185.47 28.837 186.457 28.837C187.366 28.837 188.208 29.0209 188.982 29.3886C189.775 29.7563 190.462 30.2595 191.043 30.8982ZM186.457 40.275C186.709 40.275 186.999 40.2169 187.328 40.1008C187.676 39.9847 188.005 39.7621 188.315 39.4331C188.624 39.1041 188.885 38.6493 189.098 38.0687C189.311 37.4881 189.417 36.7333 189.417 35.8043C189.417 34.8753 189.311 34.1205 189.098 33.5399C188.885 32.94 188.624 32.4851 188.315 32.1755C188.005 31.8465 187.676 31.6239 187.328 31.5078C186.999 31.3917 186.709 31.3336 186.457 31.3336C186.205 31.3336 185.906 31.3917 185.557 31.5078C185.228 31.6239 184.909 31.8465 184.599 32.1755C184.29 32.4851 184.029 32.94 183.816 33.5399C183.603 34.1205 183.497 34.8753 183.497 35.8043C183.497 36.7333 183.603 37.4881 183.816 38.0687C184.029 38.6493 184.29 39.1041 184.599 39.4331C184.909 39.7621 185.228 39.9847 185.557 40.1008C185.906 40.2169 186.205 40.275 186.457 40.275Z" fill="#9CA3AF"/>
<path d="M213.263 35.1366C213.263 34.3237 213.176 33.6754 213.002 33.1916C212.847 32.6884 212.634 32.3013 212.363 32.0303C212.093 31.74 211.793 31.5465 211.464 31.4497C211.135 31.353 210.806 31.3046 210.477 31.3046C210.148 31.3046 209.819 31.353 209.49 31.4497C209.181 31.5465 208.89 31.74 208.619 32.0303C208.368 32.3013 208.155 32.6884 207.981 33.1916C207.826 33.6754 207.749 34.3237 207.749 35.1366V39.6363C207.749 40.2169 207.758 40.6911 207.778 41.0588C207.797 41.4265 207.816 41.7168 207.836 41.9297C207.855 42.1619 207.874 42.3361 207.894 42.4523C206.694 42.4523 205.775 42.2007 205.137 41.6975C204.498 41.1943 204.179 40.3717 204.179 39.2299L204.208 35.1366C204.208 34.3237 204.121 33.6754 203.947 33.1916C203.792 32.6884 203.579 32.3013 203.308 32.0303C203.037 31.74 202.737 31.5465 202.408 31.4497C202.079 31.353 201.751 31.3046 201.422 31.3046C201.093 31.3046 200.764 31.353 200.435 31.4497C200.125 31.5465 199.835 31.74 199.564 32.0303C199.313 32.3013 199.109 32.6884 198.955 33.1916C198.8 33.6754 198.722 34.3237 198.722 35.1366V39.6363C198.722 40.2169 198.722 40.6911 198.722 41.0588C198.742 41.4265 198.761 41.7168 198.78 41.9297C198.8 42.1619 198.819 42.3361 198.838 42.4523C197.639 42.4523 196.72 42.2007 196.081 41.6975C195.443 41.1943 195.123 40.3717 195.123 39.2299L195.152 35.1366C195.152 33.8399 195.336 32.7851 195.704 31.9723C196.091 31.1401 196.584 30.4917 197.184 30.0272C197.784 29.5628 198.452 29.2531 199.187 29.0983C199.941 28.9241 200.686 28.837 201.422 28.837C202.234 28.837 203.037 28.9338 203.831 29.1273C204.624 29.3208 205.33 29.6886 205.949 30.2305C206.568 29.6886 207.275 29.3208 208.068 29.1273C208.861 28.9338 209.664 28.837 210.477 28.837C211.212 28.837 211.957 28.9241 212.712 29.0983C213.466 29.2531 214.144 29.5628 214.743 30.0272C215.363 30.4917 215.856 31.1401 216.224 31.9723C216.611 32.7851 216.804 33.8399 216.804 35.1366V39.6363C216.804 40.2169 216.804 40.6911 216.804 41.0588C216.823 41.4265 216.843 41.7168 216.862 41.9297C216.881 42.1619 216.901 42.3361 216.92 42.4523C215.721 42.4523 214.801 42.2007 214.163 41.6975C213.544 41.1943 213.234 40.3717 213.234 39.2299L213.263 35.1366Z" fill="#9CA3AF"/>
<path d="M219.244 35.8043C219.244 34.8366 219.408 33.9367 219.737 33.1045C220.085 32.2529 220.55 31.5175 221.13 30.8982C221.711 30.2595 222.388 29.7563 223.162 29.3886C223.955 29.0209 224.806 28.837 225.716 28.837C226.703 28.837 227.593 29.0209 228.386 29.3886C229.199 29.7563 229.886 30.2595 230.447 30.8982C231.008 31.5175 231.443 32.2529 231.753 33.1045C232.062 33.9367 232.217 34.8366 232.217 35.8043C232.217 36.772 232.043 37.6816 231.695 38.5331C231.366 39.3654 230.901 40.0911 230.302 40.7104C229.721 41.3491 229.034 41.8523 228.241 42.22C227.467 42.5877 226.625 42.7716 225.716 42.7716C224.613 42.7716 223.636 42.549 222.784 42.1039L222.814 46.5165C222.814 47.0971 222.814 47.5713 222.814 47.939C222.833 48.3067 222.852 48.597 222.872 48.8099C222.891 49.0422 222.91 49.2163 222.93 49.3325C221.73 49.3325 220.811 49.0809 220.172 48.5777C219.553 48.0745 219.244 47.2423 219.244 46.0811V35.8043ZM225.716 40.275C225.967 40.275 226.258 40.2169 226.587 40.1008C226.935 39.9847 227.264 39.7718 227.573 39.4621C227.883 39.1331 228.144 38.6783 228.357 38.0977C228.57 37.4977 228.676 36.7333 228.676 35.8043C228.676 34.8753 228.57 34.1205 228.357 33.5399C228.144 32.9593 227.883 32.5142 227.573 32.2045C227.264 31.8755 226.935 31.6529 226.587 31.5368C226.258 31.4207 225.967 31.3626 225.716 31.3626C225.464 31.3626 225.164 31.4207 224.816 31.5368C224.487 31.6529 224.168 31.8755 223.858 32.2045C223.549 32.5142 223.288 32.9593 223.075 33.5399C222.862 34.1205 222.755 34.8753 222.755 35.8043C222.755 36.7333 222.862 37.4977 223.075 38.0977C223.288 38.6783 223.549 39.1331 223.858 39.4621C224.168 39.7718 224.487 39.9847 224.816 40.1008C225.164 40.2169 225.464 40.275 225.716 40.275Z" fill="#9CA3AF"/>
<path d="M235.975 35.0495C236.497 34.7205 237.087 34.4786 237.745 34.3237C238.403 34.1496 239.09 34.0625 239.806 34.0625C240.812 34.0625 241.77 34.2076 242.679 34.4979C242.621 33.898 242.495 33.3657 242.302 32.9012C242.05 32.3013 241.673 31.8658 241.17 31.5949C240.976 31.4981 240.763 31.4304 240.531 31.3917C240.318 31.3336 240.067 31.3046 239.777 31.3046H239.457C239.187 31.3239 238.916 31.3723 238.645 31.4497C238.374 31.5078 238.103 31.5852 237.832 31.682C237.561 31.7787 237.29 31.8658 237.019 31.9432C236.749 32.0013 236.487 32.0303 236.236 32.0303C235.965 32.0303 235.704 31.9723 235.452 31.8562C235.22 31.7207 235.017 31.4981 234.843 31.1885L234.785 31.0723L234.843 30.9852C235.423 30.3659 236.1 29.8724 236.874 29.5047C237.668 29.1176 238.529 28.8951 239.457 28.837C239.554 28.8176 239.632 28.808 239.69 28.808C239.767 28.808 239.854 28.808 239.951 28.808C240.841 28.808 241.654 28.9725 242.389 29.3015C243.124 29.6111 243.763 30.0466 244.304 30.6078C245.407 31.8078 245.978 33.3851 246.017 35.3398V35.572C246.017 37.5848 245.504 39.2202 244.478 40.4782C243.975 41.0975 243.366 41.6007 242.65 41.9878C241.953 42.3748 241.17 42.6168 240.299 42.7135C240.183 42.7329 240.067 42.7426 239.951 42.7426C239.835 42.7426 239.709 42.7426 239.573 42.7426C239.167 42.7426 238.741 42.7038 238.296 42.6264C237.851 42.5684 237.416 42.4426 236.99 42.249C236.545 42.0749 236.139 41.8523 235.771 41.5813C235.404 41.291 235.094 40.9233 234.843 40.4782C234.475 39.9169 234.282 39.2299 234.262 38.417V38.2428C234.262 37.4881 234.417 36.8591 234.727 36.3559C234.997 35.8527 235.413 35.4172 235.975 35.0495ZM241.982 36.443C241.731 36.4043 241.441 36.3655 241.112 36.3268C240.802 36.2881 240.483 36.2688 240.154 36.2688C239.883 36.2688 239.622 36.2881 239.37 36.3268C239.119 36.3462 238.887 36.3946 238.674 36.472C238.19 36.6268 237.822 36.8687 237.571 37.1977C237.474 37.3139 237.397 37.4493 237.339 37.6042C237.281 37.7396 237.242 37.8945 237.223 38.0687C237.203 38.1267 237.194 38.2138 237.194 38.3299C237.194 38.5235 237.223 38.7364 237.281 38.9686C237.339 39.1815 237.455 39.3847 237.629 39.5782C237.784 39.7718 238.006 39.9363 238.296 40.0718C238.606 40.2072 239.012 40.275 239.515 40.275C239.67 40.275 239.786 40.2653 239.864 40.2459C240.405 40.2266 240.88 40.0718 241.286 39.7815C241.479 39.6653 241.644 39.5299 241.779 39.375C241.915 39.2008 242.031 39.017 242.128 38.8235C242.34 38.4557 242.486 38.0783 242.563 37.6913C242.64 37.3042 242.679 36.9462 242.679 36.6171C242.66 36.6171 242.64 36.6171 242.621 36.6171C242.621 36.5978 242.611 36.5881 242.592 36.5881C242.515 36.5688 242.427 36.5494 242.331 36.53C242.234 36.5107 242.118 36.4817 241.982 36.443Z" fill="#9CA3AF"/>
<path d="M248.211 35.1366C248.211 33.8399 248.395 32.7851 248.763 31.9723C249.15 31.1401 249.633 30.4917 250.214 30.0272C250.814 29.5628 251.481 29.2531 252.216 29.0983C252.971 28.9241 253.726 28.837 254.48 28.837C255.216 28.837 255.96 28.9241 256.715 29.0983C257.47 29.2531 258.147 29.5628 258.747 30.0272C259.366 30.4917 259.859 31.1401 260.227 31.9723C260.614 32.7851 260.807 33.8399 260.807 35.1366L260.923 42.4523C259.743 42.4523 258.834 42.2007 258.195 41.6975C257.557 41.1943 257.237 40.3717 257.237 39.2299L257.267 35.1366C257.267 34.3237 257.179 33.6754 257.005 33.1916C256.851 32.6884 256.638 32.3013 256.367 32.0303C256.096 31.74 255.796 31.5465 255.467 31.4497C255.138 31.353 254.809 31.3046 254.48 31.3046C254.151 31.3046 253.822 31.353 253.493 31.4497C253.184 31.5465 252.894 31.74 252.623 32.0303C252.371 32.3013 252.158 32.6884 251.984 33.1916C251.829 33.6754 251.752 34.3237 251.752 35.1366V39.6363C251.771 40.2169 251.781 40.6911 251.781 41.0588C251.8 41.4265 251.82 41.7168 251.839 41.9297C251.858 42.1619 251.878 42.3361 251.897 42.4523C250.698 42.4523 249.778 42.2007 249.14 41.6975C248.501 41.1943 248.182 40.3717 248.182 39.2299L248.211 35.1366Z" fill="#9CA3AF"/>
<path d="M271.214 30.6659C271.465 30.0466 271.823 29.6305 272.288 29.4176C272.752 29.1854 273.207 29.0499 273.652 29.0112C274.174 28.9725 274.726 29.0209 275.306 29.1563C274.068 32.1368 272.955 34.8076 271.969 37.1687C271.543 38.1751 271.117 39.1718 270.691 40.1588C270.285 41.1459 269.918 42.0362 269.589 42.8296C269.26 43.6231 268.979 44.2812 268.747 44.8037C268.534 45.3263 268.408 45.6262 268.37 45.7037C268.099 46.323 267.741 46.7488 267.296 46.981C266.851 47.2132 266.406 47.3487 265.961 47.3874C265.438 47.4455 264.887 47.3874 264.306 47.2132C264.538 46.6713 264.79 46.0811 265.061 45.4424C265.293 44.8811 265.554 44.2328 265.845 43.4973C266.154 42.7813 266.483 42.0168 266.831 41.2039C266.773 41.0685 266.648 40.7878 266.454 40.3621C266.28 39.9363 266.067 39.4234 265.816 38.8235C265.583 38.2235 265.312 37.5751 265.003 36.8784C264.713 36.1623 264.422 35.4462 264.132 34.7302C263.436 33.0464 262.652 31.1885 261.781 29.1563C262.362 29.0209 262.913 28.9725 263.436 29.0112C263.881 29.0499 264.326 29.1854 264.771 29.4176C265.235 29.6305 265.603 30.0466 265.874 30.6659C265.912 30.7627 266.009 31.0143 266.164 31.4207C266.338 31.8078 266.541 32.3013 266.773 32.9012C267.025 33.5012 267.305 34.1689 267.615 34.9043C267.925 35.6204 268.234 36.3462 268.544 37.0816C268.892 36.2688 269.221 35.4946 269.531 34.7592C269.84 34.0238 270.111 33.3657 270.343 32.7851C270.595 32.2045 270.788 31.7304 270.924 31.3626C271.078 30.9756 271.175 30.7433 271.214 30.6659Z" fill="#9CA3AF"/>
<defs>
<clipPath id="clip0_1098_55661">
<rect width="54.4852" height="58.0608" fill="white" transform="translate(0.703125 0.969482)"/>
</clipPath>
</defs>
</svg>
