<svg width="24" height="24" viewBox="0 0 24 24" fill="none" xmlns="http://www.w3.org/2000/svg">
<path d="M23.496 6.79249C24 8.71249 24 12.7205 24 12.7205C24 12.7205 24 16.7285 23.496 18.6485C23.232 19.7045 22.416 20.5445 21.384 20.8325C19.512 21.3605 12 21.3605 12 21.3605C12 21.3605 4.488 21.3605 2.616 20.8325C1.584 20.5445 0.768 19.7045 0.504 18.6485C0 16.7285 0 12.7205 0 12.7205C0 12.7205 0 8.71249 0.504 6.79249C0.768 5.73649 1.584 4.89649 2.616 4.60849C4.488 4.10449 12 4.10449 12 4.10449C12 4.10449 19.512 4.10449 21.384 4.60849C22.416 4.89649 23.232 5.73649 23.496 6.79249ZM9.744 16.8485L15.744 13.1045L9.744 9.36049V16.8485Z" fill="white"/>
</svg>
