<svg width="24" height="24" viewBox="0 0 24 24" fill="none" xmlns="http://www.w3.org/2000/svg">
<path d="M11.9793 2.16202C15.1777 2.16202 15.5532 2.17628 16.8173 2.23331C17.9864 2.28558 18.6185 2.48043 19.0415 2.64677C19.6023 2.86538 20.0015 3.12202 20.4197 3.54024C20.8379 3.95845 21.0993 4.35766 21.3132 4.91845C21.4747 5.34142 21.6743 5.9735 21.7266 7.14261C21.7837 8.40677 21.7979 8.78222 21.7979 11.9806C21.7979 15.179 21.7837 15.5545 21.7266 16.8187C21.6743 17.9878 21.4795 18.6198 21.3132 19.0428C21.0945 19.6036 20.8379 20.0028 20.4197 20.421C20.0015 20.8392 19.6023 21.1006 19.0415 21.3145C18.6185 21.4761 17.9864 21.6757 16.8173 21.728C15.5532 21.785 15.1777 21.7992 11.9793 21.7992C8.78088 21.7992 8.40543 21.785 7.14128 21.728C5.97217 21.6757 5.34009 21.4808 4.91712 21.3145C4.35633 21.0959 3.95712 20.8392 3.5389 20.421C3.12068 20.0028 2.8593 19.6036 2.64544 19.0428C2.48385 18.6198 2.28425 17.9878 2.23197 16.8187C2.17494 15.5545 2.16068 15.179 2.16068 11.9806C2.16068 8.78222 2.17494 8.40677 2.23197 7.14261C2.28425 5.9735 2.4791 5.34142 2.64544 4.91845C2.86405 4.35766 3.12068 3.95845 3.5389 3.54024C3.95712 3.12202 4.35633 2.86063 4.91712 2.64677C5.34009 2.48519 5.97217 2.28558 7.14128 2.23331C8.40543 2.17152 8.78088 2.16202 11.9793 2.16202ZM11.9793 0.00439453C8.7286 0.00439453 8.31989 0.018652 7.04147 0.0756817C5.76781 0.132711 4.89811 0.337068 4.13771 0.631721C3.3488 0.93588 2.68346 1.34935 2.01811 2.01469C1.35276 2.68004 0.94405 3.35014 0.635139 4.1343C0.340486 4.89469 0.136129 5.76439 0.0790996 7.04281C0.0220699 8.31647 0.0078125 8.72519 0.0078125 11.9759C0.0078125 15.2266 0.0220699 15.6353 0.0790996 16.9137C0.136129 18.1874 0.340486 19.0571 0.635139 19.8222C0.939298 20.6111 1.35276 21.2765 2.01811 21.9418C2.68346 22.6072 3.35355 23.0159 4.13771 23.3248C4.89811 23.6194 5.76781 23.8238 7.04623 23.8808C8.32464 23.9379 8.7286 23.9521 11.984 23.9521C15.2395 23.9521 15.6435 23.9379 16.9219 23.8808C18.1955 23.8238 19.0652 23.6194 19.8304 23.3248C20.6193 23.0206 21.2846 22.6072 21.95 21.9418C22.6153 21.2765 23.024 20.6064 23.333 19.8222C23.6276 19.0618 23.832 18.1921 23.889 16.9137C23.946 15.6353 23.9603 15.2313 23.9603 11.9759C23.9603 8.72043 23.946 8.31647 23.889 7.03806C23.832 5.76439 23.6276 4.89469 23.333 4.12954C23.0288 3.34063 22.6153 2.67529 21.95 2.00994C21.2846 1.34459 20.6145 0.93588 19.8304 0.626969C19.07 0.332315 18.2003 0.127959 16.9219 0.0709292C15.6387 0.018652 15.23 0.00439453 11.9793 0.00439453Z" fill="white"/>
<path d="M11.9793 5.82627C8.58601 5.82627 5.82958 8.57795 5.82958 11.976C5.82958 15.374 8.58601 18.1257 11.9793 18.1257C15.3725 18.1257 18.129 15.3692 18.129 11.976C18.129 8.5827 15.3725 5.82627 11.9793 5.82627ZM11.9793 15.9681C9.77413 15.9681 7.9872 14.1811 7.9872 11.976C7.9872 9.77082 9.77413 7.98389 11.9793 7.98389C14.1844 7.98389 15.9714 9.77082 15.9714 11.976C15.9714 14.1811 14.1844 15.9681 11.9793 15.9681Z" fill="white"/>
<path d="M18.3714 7.01923C19.164 7.01923 19.8066 6.37664 19.8066 5.58398C19.8066 4.79131 19.164 4.14873 18.3714 4.14873C17.5787 4.14873 16.9361 4.79131 16.9361 5.58398C16.9361 6.37664 17.5787 7.01923 18.3714 7.01923Z" fill="white"/>
</svg>
