<svg width="25" height="24" viewBox="0 0 25 24" fill="none" xmlns="http://www.w3.org/2000/svg">
<mask id="mask0_1225_60137" style="mask-type:alpha" maskUnits="userSpaceOnUse" x="0" y="0" width="25" height="25">
<path d="M24.007 12.6991C23.9454 13.1623 23.9049 13.6285 23.8197 14.087C23.2718 17.0463 21.8649 19.5181 19.5992 21.5024C18.2558 22.6794 16.6553 23.5251 14.926 23.9717C14.8966 23.9794 14.8673 23.9805 14.818 23.9876V23.7228C14.818 22.2551 14.8027 20.7874 14.8239 19.3197C14.8356 18.4743 14.6554 17.7111 14.09 17.0623C14.0425 16.9997 13.9987 16.9342 13.9591 16.8662C14.4053 16.7553 14.8397 16.6684 15.2589 16.5398C16.4284 16.1805 17.4428 15.5794 18.1679 14.5643C18.8929 13.5492 19.2135 12.4173 19.1471 11.1727C19.0884 10.1083 18.6616 9.18307 18.0716 8.32241C18.004 8.23375 17.9589 8.13 17.9402 8.02008C17.9214 7.91015 17.9297 7.79733 17.9642 7.69129C18.2289 6.75196 18.0898 5.84021 17.7728 4.95313C16.9156 4.93434 16.1794 5.27485 15.4931 5.70988C14.9694 6.04217 14.4898 6.17955 13.8452 6.01458C12.4303 5.65235 10.9972 5.7498 9.58647 6.132C9.41681 6.1772 9.27884 6.13904 9.12326 6.05743C8.49802 5.72632 7.87395 5.38757 7.22639 5.10519C6.93578 4.97838 6.59 4.97837 6.25536 4.91849C5.99117 5.61595 5.8444 6.31869 5.92835 7.0543C5.95946 7.32377 6.04576 7.58738 6.07277 7.85685C6.08663 7.98339 6.05769 8.11092 5.99058 8.21908C4.74068 9.98444 4.51935 11.869 5.4035 13.8375C5.94244 15.0363 6.9082 15.84 8.12581 16.3109C8.73872 16.5457 9.38393 16.7013 10.0303 16.8979C9.93461 17.0365 9.79548 17.1915 9.71211 17.3676C9.55125 17.7005 9.42444 18.0498 9.27414 18.388C9.24127 18.4625 9.18197 18.5535 9.11328 18.5799C8.35007 18.87 7.6896 18.6668 7.23461 17.9864C6.8489 17.4093 6.43559 16.8709 5.80037 16.541C5.42467 16.3384 4.99913 16.2468 4.57336 16.2768L4.69078 17.6612C5.20506 17.6782 5.50682 18.0134 5.79626 18.3657C6.10976 18.752 6.38334 19.1876 6.75731 19.5028C7.44655 20.0899 8.28373 20.2073 9.17375 20.0312V24.0005C8.96886 23.9418 8.76867 23.8983 8.57317 23.8361C6.28354 23.1111 4.39606 21.796 2.87845 19.9449C1.44772 18.2013 0.518956 16.2158 0.168466 13.9913C-0.412747 10.3021 0.509561 7.00499 2.94126 4.1682C4.74361 2.06409 7.03207 0.755479 9.75144 0.214188C10.1624 0.132583 10.5851 0.102051 11.0019 0.0456913C11.07 0.036298 11.1364 0.0157525 11.2033 0.000488281H12.7972C12.8724 0.0163396 12.9464 0.035712 13.0215 0.0468666C13.5147 0.119665 14.0143 0.164284 14.5004 0.267611C16.5521 0.693376 18.4516 1.66281 20.0002 3.07446C22.1137 4.99012 23.417 7.36018 23.8667 10.1858C23.9207 10.5228 23.9606 10.8615 24.007 11.1997V12.6991Z" fill="black"/>
</mask>
<g mask="url(#mask0_1225_60137)">
<ellipse cx="12.0021" cy="12.3495" rx="12.0021" ry="12.0021" fill="white"/>
</g>
</svg>
