<svg width="241" height="48" viewBox="0 0 241 48" fill="none" xmlns="http://www.w3.org/2000/svg">
<path d="M18.7675 42.6419L4.57644 34.2846V21.0307L18.7721 29.5436L28.725 23.3441V17.9493L18.7309 24.1808L0 12.9431V36.8951L18.8452 48.0002L38.6688 35.5327V30.1242L18.7675 42.6419Z" fill="#FDB400"/>
<path d="M18.7572 -0.000244141L0.570312 11.3151L18.7572 22.0316V17.126L8.72652 11.2145L18.7572 4.97852L34.2695 14.6297V25.5382L18.7572 35.1894L10.2992 29.9363V34.9105L18.5743 40.0447L18.7618 40.159L38.4985 27.8836V12.2844L18.7572 -0.000244141Z" fill="#16B85E"/>
<path d="M46.6719 15.2579H52.117C54.4466 15.2579 56.2098 15.585 57.4065 16.2392C58.6033 16.8934 59.2016 18.0423 59.2016 19.6858C59.2016 20.348 59.0939 20.9464 58.8785 21.4809C58.6711 22.0154 58.3679 22.4542 57.969 22.7973C57.5701 23.1404 57.0834 23.3637 56.509 23.4675V23.5871C57.0914 23.7068 57.618 23.9142 58.0887 24.2094C58.5594 24.4967 58.9344 24.9195 59.2136 25.478C59.5008 26.0285 59.6444 26.7625 59.6444 27.68C59.6444 28.7411 59.3851 29.6506 58.8665 30.4085C58.348 31.1664 57.606 31.7488 56.6406 32.1557C55.6832 32.5546 54.5424 32.7541 53.218 32.7541H46.6719V15.2579ZM50.3817 22.187H52.5358C53.6129 22.187 54.3589 22.0194 54.7737 21.6843C55.1886 21.3413 55.396 20.8387 55.396 20.1765C55.396 19.5063 55.1487 19.0276 54.6541 18.7404C54.1674 18.4452 53.3935 18.2976 52.3324 18.2976H50.3817V22.187ZM50.3817 25.1309V29.6905H52.7991C53.9161 29.6905 54.6939 29.475 55.1327 29.0442C55.5715 28.6134 55.7909 28.035 55.7909 27.309C55.7909 26.8781 55.6952 26.4992 55.5037 26.1721C55.3123 25.845 54.9891 25.5897 54.5344 25.4062C54.0876 25.2227 53.4693 25.1309 52.6795 25.1309H50.3817Z" fill="#16B85E"/>
<path d="M67.7467 15.2579C69.3344 15.2579 70.6428 15.4494 71.672 15.8323C72.7092 16.2153 73.4791 16.7937 73.9817 17.5676C74.4843 18.3415 74.7356 19.3188 74.7356 20.4996C74.7356 21.2974 74.5841 21.9955 74.2809 22.5939C73.9777 23.1922 73.5788 23.6988 73.0842 24.1137C72.5895 24.5286 72.055 24.8676 71.4805 25.1309L76.6265 32.7541H72.5097L68.3331 26.0404H66.3585V32.7541H62.6487V15.2579H67.7467ZM67.4835 18.2976H66.3585V23.0247H67.5553C68.7839 23.0247 69.6615 22.8212 70.1881 22.4143C70.7226 21.9995 70.9899 21.3931 70.9899 20.5953C70.9899 19.7656 70.7027 19.1752 70.1282 18.8242C69.5618 18.4731 68.6802 18.2976 67.4835 18.2976Z" fill="#16B85E"/>
<path d="M78.3383 32.7541V15.2579H82.0481V32.7541H78.3383Z" fill="#16B85E"/>
<path d="M92.6038 22.9289H99.5448V32.0001C98.6273 32.3033 97.6739 32.5466 96.6846 32.7301C95.6953 32.9057 94.5744 32.9934 93.3218 32.9934C91.5826 32.9934 90.1066 32.6504 88.8939 31.9642C87.6812 31.2781 86.7597 30.2649 86.1295 28.9245C85.4992 27.5842 85.184 25.9367 85.184 23.9821C85.184 22.1471 85.5351 20.5594 86.2372 19.2191C86.9472 17.8787 87.9804 16.8416 89.3367 16.1076C90.701 15.3736 92.3644 15.0066 94.3271 15.0066C95.2525 15.0066 96.166 15.1063 97.0676 15.3058C97.9691 15.5052 98.7869 15.7645 99.5209 16.0836L98.2882 19.0515C97.7537 18.7803 97.1434 18.5529 96.4572 18.3694C95.7711 18.1859 95.0531 18.0942 94.3031 18.0942C93.2261 18.0942 92.2886 18.3415 91.4908 18.8361C90.701 19.3308 90.0866 20.0249 89.6478 20.9184C89.217 21.804 89.0016 22.8492 89.0016 24.0539C89.0016 25.1947 89.1572 26.208 89.4683 27.0936C89.7795 27.9712 90.2701 28.6613 90.9403 29.1639C91.6105 29.6585 92.4841 29.9059 93.5611 29.9059C94.0877 29.9059 94.5305 29.8819 94.8895 29.8341C95.2565 29.7782 95.5996 29.7224 95.9187 29.6665V26.0165H92.6038V22.9289Z" fill="#16B85E"/>
<path d="M117.568 32.7541H113.87V25.2027H106.941V32.7541H103.231V15.2579H106.941V22.1152H113.87V15.2579H117.568V32.7541Z" fill="#16B85E"/>
<path d="M128.255 32.7541H124.545V18.3455H119.794V15.2579H133.006V18.3455H128.255V32.7541Z" fill="#16B85E"/>
<path d="M145.285 32.7541H135.209V15.2579H145.285V18.2976H138.919V22.1391H144.842V25.1788H138.919V29.6905H145.285V32.7541Z" fill="#16B85E"/>
<path d="M153.555 15.2579C155.143 15.2579 156.451 15.4494 157.48 15.8323C158.518 16.2153 159.287 16.7937 159.79 17.5676C160.293 18.3415 160.544 19.3188 160.544 20.4996C160.544 21.2974 160.392 21.9955 160.089 22.5939C159.786 23.1922 159.387 23.6988 158.892 24.1137C158.398 24.5286 157.863 24.8676 157.289 25.1309L162.435 32.7541H158.318L154.141 26.0404H152.167V32.7541H148.457V15.2579H153.555ZM153.292 18.2976H152.167V23.0247H153.364C154.592 23.0247 155.47 22.8212 155.996 22.4143C156.531 21.9995 156.798 21.3931 156.798 20.5953C156.798 19.7656 156.511 19.1752 155.937 18.8242C155.37 18.4731 154.489 18.2976 153.292 18.2976Z" fill="#16B85E"/>
<path d="M176.665 22.9289H183.606V32.0001C182.688 32.3033 181.735 32.5466 180.746 32.7301C179.756 32.9057 178.635 32.9934 177.383 32.9934C175.644 32.9934 174.168 32.6504 172.955 31.9642C171.742 31.2781 170.821 30.2649 170.191 28.9245C169.56 27.5842 169.245 25.9367 169.245 23.9821C169.245 22.1471 169.596 20.5594 170.298 19.2191C171.008 17.8787 172.042 16.8416 173.398 16.1076C174.762 15.3736 176.426 15.0066 178.388 15.0066C179.314 15.0066 180.227 15.1063 181.129 15.3058C182.03 15.5052 182.848 15.7645 183.582 16.0836L182.349 19.0515C181.815 18.7803 181.204 18.5529 180.518 18.3694C179.832 18.1859 179.114 18.0942 178.364 18.0942C177.287 18.0942 176.35 18.3415 175.552 18.8361C174.762 19.3308 174.148 20.0249 173.709 20.9184C173.278 21.804 173.063 22.8492 173.063 24.0539C173.063 25.1947 173.218 26.208 173.529 27.0936C173.841 27.9712 174.331 28.6613 175.001 29.1639C175.672 29.6585 176.545 29.9059 177.622 29.9059C178.149 29.9059 178.592 29.8819 178.951 29.8341C179.318 29.7782 179.661 29.7224 179.98 29.6665V26.0165H176.665V22.9289Z" fill="#16B85E"/>
<path d="M198.003 32.7541L196.734 28.5895H190.356L189.087 32.7541H185.09L191.265 15.1861H195.801L202 32.7541H198.003ZM195.849 25.478L194.58 21.4091C194.501 21.1378 194.393 20.7908 194.257 20.3679C194.13 19.9371 193.998 19.5023 193.862 19.0635C193.735 18.6167 193.631 18.2298 193.551 17.9027C193.471 18.2298 193.36 18.6367 193.216 19.1233C193.08 19.602 192.949 20.0568 192.821 20.4876C192.694 20.9184 192.602 21.2256 192.546 21.4091L191.289 25.478H195.849Z" fill="#16B85E"/>
<path d="M210.473 32.7541H206.764V18.3455H202.013V15.2579H215.224V18.3455H210.473V32.7541Z" fill="#16B85E"/>
<path d="M227.503 32.7541H217.427V15.2579H227.503V18.2976H221.137V22.1391H227.061V25.1788H221.137V29.6905H227.503V32.7541Z" fill="#16B85E"/>
<path d="M241.003 27.8954C241.003 28.9325 240.752 29.8341 240.249 30.6C239.746 31.3659 239.012 31.9563 238.047 32.3711C237.09 32.786 235.925 32.9934 234.553 32.9934C233.946 32.9934 233.352 32.9535 232.769 32.8738C232.195 32.794 231.641 32.6783 231.106 32.5267C230.579 32.3671 230.077 32.1717 229.598 31.9403V28.4937C230.428 28.8607 231.289 29.1918 232.183 29.487C233.077 29.7822 233.962 29.9298 234.84 29.9298C235.446 29.9298 235.933 29.85 236.3 29.6905C236.675 29.5309 236.946 29.3115 237.114 29.0323C237.281 28.753 237.365 28.4339 237.365 28.0749C237.365 27.6361 237.217 27.2611 236.922 26.9499C236.627 26.6388 236.22 26.3476 235.701 26.0763C235.191 25.8051 234.612 25.5139 233.966 25.2027C233.559 25.0112 233.116 24.7799 232.638 24.5086C232.159 24.2294 231.704 23.8903 231.274 23.4914C230.843 23.0925 230.488 22.6098 230.208 22.0434C229.937 21.4689 229.802 20.7828 229.802 19.985C229.802 18.9398 230.041 18.0463 230.52 17.3043C230.998 16.5623 231.68 15.9959 232.566 15.605C233.46 15.206 234.513 15.0066 235.725 15.0066C236.635 15.0066 237.501 15.1143 238.322 15.3297C239.152 15.5371 240.018 15.8403 240.919 16.2392L239.722 19.1233C238.917 18.7962 238.195 18.5449 237.556 18.3694C236.918 18.1859 236.268 18.0942 235.606 18.0942C235.143 18.0942 234.748 18.1699 234.421 18.3215C234.094 18.4651 233.846 18.6726 233.679 18.9438C233.511 19.2071 233.428 19.5143 233.428 19.8653C233.428 20.2802 233.547 20.6312 233.787 20.9184C234.034 21.1977 234.401 21.4689 234.888 21.7322C235.382 21.9955 235.997 22.3026 236.731 22.6537C237.624 23.0765 238.386 23.5193 239.016 23.9821C239.655 24.4368 240.145 24.9753 240.488 25.5976C240.831 26.212 241.003 26.9779 241.003 27.8954Z" fill="#16B85E"/>
</svg>
