<svg width="24" height="24" viewBox="0 0 24 24" fill="none" xmlns="http://www.w3.org/2000/svg">
<path fill-rule="evenodd" clip-rule="evenodd" d="M23.4086 12.0049C23.4086 5.54124 18.1679 0.300537 11.7043 0.300537C5.2407 0.300537 0 5.54124 0 12.0049C0 17.8463 4.2795 22.6887 9.8757 23.5677V15.3889H6.90309V12.0049H9.8757V9.42564C9.8757 6.49254 11.6237 4.87128 14.2967 4.87128C15.5772 4.87128 16.917 5.10006 16.917 5.10006V7.98051H15.4406C13.9873 7.98051 13.5329 8.88249 13.5329 9.80913V12.0048H16.7787L16.2602 15.3889H13.5328V23.5676C19.129 22.6902 23.4085 17.8478 23.4085 12.0048L23.4086 12.0049Z" fill="white"/>
</svg>
