<svg width="241" height="48" viewBox="0 0 241 48" fill="none" xmlns="http://www.w3.org/2000/svg">
<path d="M18.7675 42.6422L4.57644 34.2848V21.031L18.7721 29.5438L28.725 23.3444V17.9496L18.7309 24.181L0 12.9434V36.8954L18.8452 48.0004L38.6688 35.5329V30.1244L18.7675 42.6422Z" fill="#FDB400"/>
<path d="M18.7572 0L0.570312 11.3154L18.7572 22.0318V17.1262L8.72652 11.2148L18.7572 4.97876L34.2695 14.63V25.5384L18.7572 35.1896L10.2992 29.9366V34.9108L18.5743 40.045L18.7618 40.1593L38.4985 27.8838V12.2846L18.7572 0Z" fill="#16B85E"/>
<path d="M46.6719 15.2581H52.117C54.4466 15.2581 56.2098 15.5853 57.4065 16.2395C58.6033 16.8937 59.2016 18.0425 59.2016 19.686C59.2016 20.3482 59.0939 20.9466 58.8785 21.4811C58.6711 22.0157 58.3679 22.4545 57.969 22.7975C57.5701 23.1406 57.0834 23.364 56.509 23.4677V23.5874C57.0914 23.7071 57.618 23.9145 58.0887 24.2097C58.5594 24.4969 58.9344 24.9197 59.2136 25.4782C59.5008 26.0287 59.6444 26.7627 59.6444 27.6802C59.6444 28.7413 59.3851 29.6508 58.8665 30.4087C58.348 31.1667 57.606 31.7491 56.6406 32.156C55.6832 32.5549 54.5424 32.7543 53.218 32.7543H46.6719V15.2581ZM50.3817 22.1872H52.5358C53.6129 22.1872 54.3589 22.0197 54.7737 21.6846C55.1886 21.3415 55.396 20.8389 55.396 20.1767C55.396 19.5065 55.1487 19.0278 54.6541 18.7406C54.1674 18.4454 53.3935 18.2978 52.3324 18.2978H50.3817V22.1872ZM50.3817 25.1312V29.6907H52.7991C53.9161 29.6907 54.6939 29.4753 55.1327 29.0445C55.5715 28.6136 55.7909 28.0352 55.7909 27.3092C55.7909 26.8784 55.6952 26.4994 55.5037 26.1723C55.3123 25.8452 54.9891 25.5899 54.5344 25.4064C54.0876 25.2229 53.4693 25.1312 52.6795 25.1312H50.3817Z" fill="#16B85E"/>
<path d="M67.7467 15.2581C69.3344 15.2581 70.6428 15.4496 71.672 15.8326C72.7092 16.2155 73.4791 16.794 73.9817 17.5678C74.4843 18.3417 74.7356 19.319 74.7356 20.4998C74.7356 21.2976 74.5841 21.9957 74.2809 22.5941C73.9777 23.1925 73.5788 23.6991 73.0842 24.1139C72.5895 24.5288 72.055 24.8679 71.4805 25.1312L76.6265 32.7543H72.5097L68.3331 26.0407H66.3585V32.7543H62.6487V15.2581H67.7467ZM67.4835 18.2978H66.3585V23.0249H67.5553C68.7839 23.0249 69.6615 22.8215 70.1881 22.4146C70.7226 21.9997 70.9899 21.3934 70.9899 20.5956C70.9899 19.7658 70.7027 19.1754 70.1282 18.8244C69.5618 18.4734 68.6802 18.2978 67.4835 18.2978Z" fill="#16B85E"/>
<path d="M78.3383 32.7543V15.2581H82.0481V32.7543H78.3383Z" fill="#16B85E"/>
<path d="M92.6038 22.9292H99.5448V32.0004C98.6273 32.3036 97.6739 32.5469 96.6846 32.7304C95.6953 32.9059 94.5744 32.9937 93.3218 32.9937C91.5826 32.9937 90.1066 32.6506 88.8939 31.9645C87.6812 31.2784 86.7597 30.2651 86.1295 28.9248C85.4992 27.5845 85.184 25.937 85.184 23.9823C85.184 22.1473 85.5351 20.5597 86.2372 19.2193C86.9472 17.879 87.9804 16.8418 89.3367 16.1078C90.701 15.3738 92.3644 15.0068 94.3271 15.0068C95.2525 15.0068 96.166 15.1066 97.0676 15.306C97.9691 15.5055 98.7869 15.7648 99.5209 16.0839L98.2882 19.0518C97.7537 18.7805 97.1434 18.5531 96.4572 18.3696C95.7711 18.1861 95.0531 18.0944 94.3031 18.0944C93.2261 18.0944 92.2886 18.3417 91.4908 18.8364C90.701 19.331 90.0866 20.0251 89.6478 20.9187C89.217 21.8043 89.0016 22.8494 89.0016 24.0541C89.0016 25.195 89.1572 26.2082 89.4683 27.0938C89.7795 27.9714 90.2701 28.6615 90.9403 29.1641C91.6105 29.6588 92.4841 29.9061 93.5611 29.9061C94.0877 29.9061 94.5305 29.8822 94.8895 29.8343C95.2565 29.7785 95.5996 29.7226 95.9187 29.6668V26.0167H92.6038V22.9292Z" fill="#16B85E"/>
<path d="M117.568 32.7543H113.87V25.203H106.941V32.7543H103.231V15.2581H106.941V22.1154H113.87V15.2581H117.568V32.7543Z" fill="#16B85E"/>
<path d="M128.255 32.7543H124.545V18.3457H119.794V15.2581H133.006V18.3457H128.255V32.7543Z" fill="#16B85E"/>
<path d="M145.285 32.7543H135.209V15.2581H145.285V18.2978H138.919V22.1393H144.842V25.179H138.919V29.6907H145.285V32.7543Z" fill="#16B85E"/>
<path d="M153.555 15.2581C155.143 15.2581 156.451 15.4496 157.48 15.8326C158.518 16.2155 159.287 16.794 159.79 17.5678C160.293 18.3417 160.544 19.319 160.544 20.4998C160.544 21.2976 160.392 21.9957 160.089 22.5941C159.786 23.1925 159.387 23.6991 158.892 24.1139C158.398 24.5288 157.863 24.8679 157.289 25.1312L162.435 32.7543H158.318L154.141 26.0407H152.167V32.7543H148.457V15.2581H153.555ZM153.292 18.2978H152.167V23.0249H153.364C154.592 23.0249 155.47 22.8215 155.996 22.4146C156.531 21.9997 156.798 21.3934 156.798 20.5956C156.798 19.7658 156.511 19.1754 155.937 18.8244C155.37 18.4734 154.489 18.2978 153.292 18.2978Z" fill="#16B85E"/>
<path d="M176.665 22.9292H183.606V32.0004C182.688 32.3036 181.735 32.5469 180.746 32.7304C179.756 32.9059 178.635 32.9937 177.383 32.9937C175.644 32.9937 174.168 32.6506 172.955 31.9645C171.742 31.2784 170.821 30.2651 170.191 28.9248C169.56 27.5845 169.245 25.937 169.245 23.9823C169.245 22.1473 169.596 20.5597 170.298 19.2193C171.008 17.879 172.042 16.8418 173.398 16.1078C174.762 15.3738 176.426 15.0068 178.388 15.0068C179.314 15.0068 180.227 15.1066 181.129 15.306C182.03 15.5055 182.848 15.7648 183.582 16.0839L182.349 19.0518C181.815 18.7805 181.204 18.5531 180.518 18.3696C179.832 18.1861 179.114 18.0944 178.364 18.0944C177.287 18.0944 176.35 18.3417 175.552 18.8364C174.762 19.331 174.148 20.0251 173.709 20.9187C173.278 21.8043 173.063 22.8494 173.063 24.0541C173.063 25.195 173.218 26.2082 173.529 27.0938C173.841 27.9714 174.331 28.6615 175.001 29.1641C175.672 29.6588 176.545 29.9061 177.622 29.9061C178.149 29.9061 178.592 29.8822 178.951 29.8343C179.318 29.7785 179.661 29.7226 179.98 29.6668V26.0167H176.665V22.9292Z" fill="#16B85E"/>
<path d="M198.003 32.7543L196.734 28.5897H190.356L189.087 32.7543H185.09L191.265 15.1863H195.801L202 32.7543H198.003ZM195.849 25.4782L194.58 21.4093C194.501 21.1381 194.393 20.791 194.257 20.3682C194.13 19.9374 193.998 19.5025 193.862 19.0637C193.735 18.617 193.631 18.23 193.551 17.9029C193.471 18.23 193.36 18.6369 193.216 19.1236C193.08 19.6023 192.949 20.057 192.821 20.4879C192.694 20.9187 192.602 21.2258 192.546 21.4093L191.289 25.4782H195.849Z" fill="#16B85E"/>
<path d="M210.473 32.7543H206.764V18.3457H202.013V15.2581H215.224V18.3457H210.473V32.7543Z" fill="#16B85E"/>
<path d="M227.503 32.7543H217.427V15.2581H227.503V18.2978H221.137V22.1393H227.061V25.179H221.137V29.6907H227.503V32.7543Z" fill="#16B85E"/>
<path d="M241.003 27.8956C241.003 28.9328 240.752 29.8343 240.249 30.6002C239.746 31.3661 239.012 31.9565 238.047 32.3714C237.09 32.7862 235.925 32.9937 234.553 32.9937C233.946 32.9937 233.352 32.9538 232.769 32.874C232.195 32.7942 231.641 32.6785 231.106 32.5269C230.579 32.3674 230.077 32.1719 229.598 31.9405V28.494C230.428 28.861 231.289 29.1921 232.183 29.4873C233.077 29.7824 233.962 29.93 234.84 29.93C235.446 29.93 235.933 29.8503 236.3 29.6907C236.675 29.5311 236.946 29.3117 237.114 29.0325C237.281 28.7533 237.365 28.4341 237.365 28.0751C237.365 27.6363 237.217 27.2613 236.922 26.9502C236.627 26.639 236.22 26.3478 235.701 26.0766C235.191 25.8053 234.612 25.5141 233.966 25.203C233.559 25.0115 233.116 24.7801 232.638 24.5089C232.159 24.2296 231.704 23.8906 231.274 23.4916C230.843 23.0927 230.488 22.6101 230.208 22.0436C229.937 21.4692 229.802 20.783 229.802 19.9852C229.802 18.9401 230.041 18.0465 230.52 17.3046C230.998 16.5626 231.68 15.9961 232.566 15.6052C233.46 15.2063 234.513 15.0068 235.725 15.0068C236.635 15.0068 237.501 15.1145 238.322 15.33C239.152 15.5374 240.018 15.8406 240.919 16.2395L239.722 19.1236C238.917 18.7965 238.195 18.5452 237.556 18.3696C236.918 18.1861 236.268 18.0944 235.606 18.0944C235.143 18.0944 234.748 18.1702 234.421 18.3218C234.094 18.4654 233.846 18.6728 233.679 18.9441C233.511 19.2074 233.428 19.5145 233.428 19.8656C233.428 20.2804 233.547 20.6315 233.787 20.9187C234.034 21.1979 234.401 21.4692 234.888 21.7325C235.382 21.9957 235.997 22.3029 236.731 22.6539C237.624 23.0768 238.386 23.5196 239.016 23.9823C239.655 24.4371 240.145 24.9756 240.488 25.5979C240.831 26.2122 241.003 26.9781 241.003 27.8956Z" fill="#16B85E"/>
</svg>
