<svg width="24" height="24" viewBox="0 0 24 24" fill="none" xmlns="http://www.w3.org/2000/svg">
<path d="M6.41153 3.60317C6.38148 2.23927 5.40615 1.20044 3.82235 1.20044C2.23856 1.20044 1.20312 2.23927 1.20312 3.60317C1.20312 4.93882 2.20795 6.00757 3.76226 6.00757H3.79184C5.40615 6.00757 6.41153 4.93882 6.41153 3.60317Z" fill="white"/>
<path d="M6.1066 7.90625H1.47688V21.8166H6.1066V7.90625Z" fill="white"/>
<path d="M17.4726 7.57965C20.5192 7.57965 22.8031 9.56821 22.8031 13.8409L22.8029 21.8167H18.1734V14.3746C18.1734 12.5053 17.5035 11.2298 15.8275 11.2298C14.5484 11.2298 13.7866 12.0897 13.452 12.9202C13.3296 13.2179 13.2995 13.6326 13.2995 14.0483V21.817H8.66925C8.66925 21.817 8.73028 9.21194 8.66925 7.90666H13.2995V9.87695C13.914 8.92979 15.0145 7.57965 17.4726 7.57965Z" fill="white"/>
</svg>
