<svg width="24" height="24" viewBox="0 0 24 24" fill="none" xmlns="http://www.w3.org/2000/svg">
<path d="M24 3.61552C23.1013 4.03174 22.148 4.30499 21.172 4.4262C22.1871 3.78816 22.968 2.77985 23.3355 1.57664C22.369 2.17652 21.3116 2.59916 20.2089 2.8263C19.2783 1.78678 17.9769 1.19798 16.6153 1.20045C13.8972 1.20045 11.6912 3.50566 11.6912 6.34929C11.6912 6.75335 11.7347 7.14716 11.8198 7.5232C7.72705 7.30811 4.09978 5.25899 1.67078 2.14309C1.24665 2.90269 1.00473 3.78816 1.00473 4.73209C1.00473 6.51777 1.87366 8.09413 3.19457 9.01772C2.4125 8.99265 1.64759 8.77176 0.964005 8.3736V8.43926C0.964005 10.9334 2.66143 13.0148 4.91281 13.4888C4.18772 13.6942 3.42747 13.7243 2.6896 13.5769C3.31645 15.623 5.13544 17.1114 7.28914 17.1547C5.60428 18.5336 3.48151 19.3583 1.17408 19.3583C0.781722 19.3579 0.389716 19.3338 0 19.2863C2.17881 20.7468 4.76751 21.6004 7.54791 21.6004C16.6046 21.6004 21.5563 13.7524 21.5563 6.94665C21.5563 6.72404 21.5563 6.50143 21.541 6.28043C22.5045 5.55128 23.3366 4.64897 23.9985 3.61552H24Z" fill="white"/>
</svg>
