<svg width="238" height="40" viewBox="0 0 238 40" fill="none" xmlns="http://www.w3.org/2000/svg">
<path fill-rule="evenodd" clip-rule="evenodd" d="M12.7178 28.3455C11.2825 28.3455 10.3854 28.256 9.30886 28.077V33.8943C9.30886 35.8184 9.7574 36.5792 12.8972 36.9372C13.0766 36.9819 13.1663 37.3399 13.1663 37.5636C13.1663 37.8321 13.0766 38.2349 12.8972 38.2349C10.5199 38.2349 8.86031 38.0559 6.61759 38.0559C4.37486 38.0559 3.02923 38.2349 0.651939 38.2349C0.517376 38.2349 0.382812 37.8769 0.382812 37.5636C0.382812 37.2951 0.517376 36.9372 0.651939 36.9372C3.7469 36.6239 4.28515 35.8184 4.28515 33.8943V17.2032C4.28515 15.5028 3.79175 14.8315 0.651939 14.4735C0.517376 14.4735 0.382812 14.1156 0.382812 13.8023C0.382812 13.5338 0.517376 13.1311 0.651939 13.1311C3.02923 13.1311 4.55428 13.3101 6.79701 13.3101C9.03973 13.3101 10.1162 13.1311 12.4935 13.1311C19.5357 13.1311 22.0924 16.0845 22.0924 20.7383C22.0475 25.2131 18.4592 28.3455 12.7178 28.3455ZM12.1795 14.6973C9.66769 14.6973 9.30886 15.5475 9.30886 17.2032V25.4816C9.30886 26.6003 10.2957 26.7793 11.4619 26.7793C15.0951 26.7793 16.6201 24.2734 16.6201 20.4698C16.6201 16.1292 14.6017 14.6973 12.1795 14.6973Z" fill="#9CA3AF"/>
<path fill-rule="evenodd" clip-rule="evenodd" d="M51.1562 38.2349C49.9452 38.2349 47.8818 38.0559 47.0745 38.0559C46.0428 38.0559 44.2038 38.2349 43.1721 38.2349L38.1484 29.1957C36.9822 27.182 36.3094 26.8241 34.1115 26.8241V33.8943C34.1115 35.8184 34.4255 36.5792 37.5653 36.9372C37.6999 36.9819 37.8344 37.3399 37.8344 37.5636C37.8344 37.8321 37.6999 38.2349 37.5653 38.2349C35.188 38.2349 33.6181 38.0559 31.3754 38.0559C29.1327 38.0559 27.8319 38.2349 25.4098 38.2349C25.2303 38.2349 25.1406 37.8769 25.1406 37.5636C25.1406 37.2951 25.2303 36.9372 25.4098 36.9372C28.4599 36.6239 28.9981 35.8184 28.9981 33.8943V17.5164C28.9981 15.5923 28.5047 14.8315 25.4098 14.4735C25.2303 14.4735 25.1406 14.1156 25.1406 13.8023C25.1406 13.5338 25.2303 13.1311 25.4098 13.1311C27.787 13.1311 29.1775 13.3101 31.4203 13.3101C33.663 13.3101 34.874 13.1311 37.2513 13.1311C43.9347 13.1311 46.6708 15.9055 46.6708 19.5748C46.6708 22.6177 45.1009 24.6761 41.6471 25.7948L46.8502 34.3418C47.7024 35.729 48.5547 36.5792 51.2459 36.8477C51.3805 36.8924 51.4702 37.2504 51.4702 37.4741C51.4702 37.8769 51.3356 38.2349 51.1562 38.2349ZM36.9374 14.6973C34.2909 14.6973 34.0667 15.5028 34.0667 17.2032V25.3026C34.6498 25.3921 35.3226 25.4369 36.0851 25.4369C39.808 25.4369 41.2882 23.6917 41.2882 19.9776C41.3331 16.6215 40.0323 14.6973 36.9374 14.6973Z" fill="#9CA3AF"/>
<path fill-rule="evenodd" clip-rule="evenodd" d="M79.6418 21.6782L75.2012 32.2835C74.6181 33.626 74.2593 34.521 74.2593 35.0579C74.2593 35.5054 74.4387 35.7292 74.7527 35.7292C76.3674 35.7292 79.1484 31.2991 79.7315 31.2991C80.3146 31.2991 80.5838 31.9256 80.5838 32.2388C80.5838 32.8653 75.1115 39.3538 71.4783 39.3538C69.9981 39.3538 68.8319 38.6825 68.8319 37.2506C68.8319 36.1766 69.2356 34.6999 70.0878 32.731L74.663 21.8572C75.1564 20.6938 75.4703 19.6645 75.4703 18.8143C75.4703 17.8746 75.1115 17.2481 74.1696 17.2481C71.3437 17.2481 65.4229 27.227 62.5971 32.3283L60.7132 37.6981C60.489 38.3246 58.7845 38.6378 57.8874 38.6378C56.9455 38.6378 55.5101 38.2798 55.7344 37.6981L61.6103 20.3358C62.1037 18.9933 62.328 18.1431 62.328 17.5614C62.328 17.1139 62.1486 16.8902 61.8346 16.8902C60.3544 16.8902 57.8425 21.4097 57.2146 21.4097C56.6315 21.4097 56.3175 20.7385 56.3175 20.47C56.3175 20.0225 61.3412 13.3103 64.795 13.3103C66.5892 13.3103 67.6657 14.2053 67.6657 15.861C67.6657 16.8902 67.3965 18.2326 66.8134 19.8435L65.109 24.6316C67.8899 20.0673 72.7791 13.3103 77.2645 13.3103C79.1484 13.3103 80.8977 14.6527 80.8977 17.0244C80.808 18.2774 80.4492 19.7988 79.6418 21.6782Z" fill="#9CA3AF"/>
<path fill-rule="evenodd" clip-rule="evenodd" d="M88.4355 27.5401C88.3009 28.6588 88.2561 29.7327 88.2561 30.5829C88.2561 33.8048 89.0634 35.192 91.2613 35.192C94.6254 35.192 96.6439 32.5966 97.6307 31.0304C97.8998 30.6724 98.752 31.5226 98.5277 31.9701C97.4512 34.2075 93.6835 39.3088 89.512 39.3088C85.3854 39.3088 83.1875 35.4605 83.1875 32.1491C83.1875 23.3785 91.2165 13.2654 96.913 13.2654C99.9631 13.2654 101.219 15.2343 101.219 17.4717C101.219 22.3493 95.5673 27.5401 88.4355 27.5401ZM95.1188 16.0845C92.2033 16.0845 89.6914 20.6936 88.7943 25.7054C95.1637 25.7054 97.1821 20.2014 97.1821 18.4562C97.1821 16.9795 96.5541 16.0845 95.1188 16.0845Z" fill="#9CA3AF"/>
<path fill-rule="evenodd" clip-rule="evenodd" d="M127.142 39.309C124.765 39.309 123.15 37.7428 122.298 35.3712C119.383 37.7876 116.422 39.309 114.359 39.309C110.681 39.309 108.842 36.5346 108.842 33.1338C108.842 28.1667 113.417 20.7833 117.095 17.5166C116.512 17.7404 115.704 17.9641 114.942 17.9641C113.237 17.9641 111.937 17.0692 110.501 17.0692C107.855 17.0692 106.599 18.1431 106.599 19.4408C106.599 20.5595 107.945 20.9175 107.945 22.6627C107.945 23.9156 107.137 24.5869 105.971 24.5869C105.119 24.5869 103.594 23.9156 103.594 21.544C103.594 18.2774 108.259 13.3103 111.264 13.3103C113.507 13.3103 114.897 14.2053 116.557 14.2053C118.127 14.2053 119.113 13.713 119.607 13.713C120.1 13.713 120.549 14.2053 120.549 14.6527C120.549 16.6664 113.507 21.2755 113.507 30.8069C113.507 33.268 114.673 34.6999 116.781 34.6999C118.665 34.6999 120.414 34.0287 121.67 33.1338C121.536 32.3283 121.491 31.4333 121.491 30.5831C121.491 22.7074 125.886 13.3103 130.282 13.3103C131.987 13.3103 133.063 14.608 133.063 17.2929C133.063 22.3047 129.834 27.7192 125.707 32.1493C126.29 33.8497 127.725 34.6999 129.609 34.6999C135.44 34.6999 139.746 27.764 139.746 21.4545C139.746 18.3669 138.266 17.9641 138.266 16.1742C138.266 14.6527 139.163 13.3103 141.047 13.3103C142.617 13.3103 143.828 14.9212 143.828 17.7404C143.873 25.7503 135.53 39.309 127.142 39.309ZM129.744 16.6217C127.367 16.6217 124.855 20.2463 124.855 26.4663C124.855 27.585 125.034 29.0617 125.258 29.9566C128.623 26.0635 130.955 21.5887 130.955 18.1431C130.955 17.2929 130.596 16.6217 129.744 16.6217Z" fill="#9CA3AF"/>
<path fill-rule="evenodd" clip-rule="evenodd" d="M158.762 18.8589C157.147 18.8589 155.264 15.8608 153.739 15.8608C152.797 15.8608 152.213 16.5767 152.213 17.5612C152.213 20.6936 156.34 26.5556 156.34 30.1355C156.34 33.9838 153.514 39.3088 147.459 39.3088C144.678 39.3088 142.211 37.5189 142.211 36.0422C142.211 34.5655 143.108 33.6706 144.588 33.6706C146.607 33.6706 146.741 37.0267 149.791 37.0267C151.316 37.0267 152.213 35.6395 152.213 33.2678C152.213 30.3592 148.311 26.1529 148.311 21.3201C148.311 17.8297 151.63 13.2654 156.116 13.2654C159.121 13.2654 160.691 14.7421 160.691 16.353C160.691 18.0087 159.884 18.8589 158.762 18.8589Z" fill="#9CA3AF"/>
<path fill-rule="evenodd" clip-rule="evenodd" d="M209.72 38.414C207.343 38.414 206.042 38.056 203.351 38.056C200.66 38.056 199.404 38.414 197.027 38.414C196.758 38.414 196.578 38.056 196.578 37.6085C196.578 37.161 196.758 36.8925 197.027 36.803C200.301 36.4003 200.794 35.6843 200.794 32.0597V21.6334C200.794 18.6353 200.346 18.0088 197.699 17.7403C197.43 17.7403 197.251 17.3823 197.251 17.0243C197.251 16.6663 197.43 16.3531 197.699 16.3531C200.346 15.6819 202.903 14.8317 204.742 13.4445C204.966 13.3102 205.1 12.997 205.549 12.997C205.998 12.997 206.356 13.2207 206.356 13.4445C206.177 15.8161 205.908 20.3357 205.908 23.2443V32.1045C205.908 35.7291 206.401 36.4451 209.765 36.8478C209.99 36.8925 210.214 37.2058 210.214 37.6533C210.169 38.056 209.945 38.414 209.72 38.414ZM203.306 6.46375C201.692 6.46375 200.391 5.12131 200.391 3.55512C200.391 1.94418 201.692 0.646484 203.306 0.646484C204.966 0.646484 206.222 1.94418 206.222 3.55512C206.222 5.12131 204.921 6.46375 203.306 6.46375Z" fill="#9CA3AF"/>
<path fill-rule="evenodd" clip-rule="evenodd" d="M224.119 39.2641C216.09 39.2641 210.977 33.5811 210.977 26.4214C210.977 19.2169 216.09 13.2654 224.119 13.2654C232.193 13.2654 237.261 19.2169 237.261 26.4214C237.261 33.5363 232.193 39.2641 224.119 39.2641ZM224.119 15.0106C219.14 15.0106 216.673 20.0671 216.673 26.3319C216.673 32.6414 219.14 37.4294 224.119 37.4294C229.143 37.4294 231.565 32.6414 231.565 26.3319C231.565 20.1119 229.143 15.0106 224.119 15.0106Z" fill="#9CA3AF"/>
<path d="M178.639 28.7485C180.001 28.7485 181.106 27.6466 181.106 26.2873C181.106 24.9281 180.001 23.8262 178.639 23.8262C177.276 23.8262 176.172 24.9281 176.172 26.2873C176.172 27.6466 177.276 28.7485 178.639 28.7485Z" fill="#9CA3AF"/>
<path d="M183.433 25.7502C184.448 25.7502 185.272 24.9288 185.272 23.9155C185.272 22.9022 184.448 22.0808 183.433 22.0808C182.417 22.0808 181.594 22.9022 181.594 23.9155C181.594 24.9288 182.417 25.7502 183.433 25.7502Z" fill="#9CA3AF"/>
<path d="M188.283 22.7073C188.927 22.7073 189.45 22.1864 189.45 21.5438C189.45 20.9013 188.927 20.3804 188.283 20.3804C187.639 20.3804 187.117 20.9013 187.117 21.5438C187.117 22.1864 187.639 22.7073 188.283 22.7073Z" fill="#9CA3AF"/>
<path d="M181.019 32.9548C182.034 32.9548 182.858 32.1333 182.858 31.1201C182.858 30.1068 182.034 29.2854 181.019 29.2854C180.003 29.2854 179.18 30.1068 179.18 31.1201C179.18 32.1333 180.003 32.9548 181.019 32.9548Z" fill="#9CA3AF"/>
<path d="M185.855 30.2249C186.673 30.2249 187.335 29.5637 187.335 28.7482C187.335 27.9326 186.673 27.2715 185.855 27.2715C185.038 27.2715 184.375 27.9326 184.375 28.7482C184.375 29.5637 185.038 30.2249 185.855 30.2249Z" fill="#9CA3AF"/>
<path d="M190.651 27.361C191.196 27.361 191.638 26.9203 191.638 26.3765C191.638 25.8328 191.196 25.3921 190.651 25.3921C190.106 25.3921 189.664 25.8328 189.664 26.3765C189.664 26.9203 190.106 27.361 190.651 27.361Z" fill="#9CA3AF"/>
<path d="M183.385 37.1162C184.029 37.1162 184.551 36.5953 184.551 35.9528C184.551 35.3102 184.029 34.7893 183.385 34.7893C182.741 34.7893 182.219 35.3102 182.219 35.9528C182.219 36.5953 182.741 37.1162 183.385 37.1162Z" fill="#9CA3AF"/>
<path d="M188.237 34.5656C188.782 34.5656 189.224 34.1248 189.224 33.5811C189.224 33.0374 188.782 32.5967 188.237 32.5967C187.692 32.5967 187.25 33.0374 187.25 33.5811C187.25 34.1248 187.692 34.5656 188.237 34.5656Z" fill="#9CA3AF"/>
<path d="M168.947 32.2388C169.592 32.2388 170.114 31.7179 170.114 31.0753C170.114 30.4328 169.592 29.9119 168.947 29.9119C168.303 29.9119 167.781 30.4328 167.781 31.0753C167.781 31.7179 168.303 32.2388 168.947 32.2388Z" fill="#9CA3AF"/>
<path d="M173.784 30.5385C174.8 30.5385 175.623 29.7171 175.623 28.7038C175.623 27.6906 174.8 26.8691 173.784 26.8691C172.769 26.8691 171.945 27.6906 171.945 28.7038C171.945 29.7171 172.769 30.5385 173.784 30.5385Z" fill="#9CA3AF"/>
<path d="M171.331 36.8925C171.876 36.8925 172.317 36.4517 172.317 35.908C172.317 35.3643 171.876 34.9236 171.331 34.9236C170.786 34.9236 170.344 35.3643 170.344 35.908C170.344 36.4517 170.786 36.8925 171.331 36.8925Z" fill="#9CA3AF"/>
<path d="M176.164 35.0577C177.031 35.0577 177.734 34.3565 177.734 33.4915C177.734 32.6265 177.031 31.9253 176.164 31.9253C175.297 31.9253 174.594 32.6265 174.594 33.4915C174.594 34.3565 175.297 35.0577 176.164 35.0577Z" fill="#9CA3AF"/>
<path d="M178.549 39.3088C179.094 39.3088 179.536 38.868 179.536 38.3243C179.536 37.7806 179.094 37.3398 178.549 37.3398C178.004 37.3398 177.562 37.7806 177.562 38.3243C177.562 38.868 178.004 39.3088 178.549 39.3088Z" fill="#9CA3AF"/>
<path d="M173.83 17.8296C174.474 17.8296 174.996 17.3087 174.996 16.6661C174.996 16.0236 174.474 15.5027 173.83 15.5027C173.186 15.5027 172.664 16.0236 172.664 16.6661C172.664 17.3087 173.186 17.8296 173.83 17.8296Z" fill="#9CA3AF"/>
<path d="M178.682 15.2343C179.227 15.2343 179.669 14.7935 179.669 14.2498C179.669 13.7061 179.227 13.2654 178.682 13.2654C178.137 13.2654 177.695 13.7061 177.695 14.2498C177.695 14.7935 178.137 15.2343 178.682 15.2343Z" fill="#9CA3AF"/>
<path d="M176.214 23.289C177.23 23.289 178.053 22.4676 178.053 21.4543C178.053 20.441 177.23 19.6196 176.214 19.6196C175.198 19.6196 174.375 20.441 174.375 21.4543C174.375 22.4676 175.198 23.289 176.214 23.289Z" fill="#9CA3AF"/>
<path d="M181.051 20.5593C181.868 20.5593 182.531 19.8982 182.531 19.0826C182.531 18.2671 181.868 17.606 181.051 17.606C180.233 17.606 179.57 18.2671 179.57 19.0826C179.57 19.8982 180.233 20.5593 181.051 20.5593Z" fill="#9CA3AF"/>
<path d="M185.901 17.6955C186.446 17.6955 186.888 17.2547 186.888 16.711C186.888 16.1673 186.446 15.7266 185.901 15.7266C185.356 15.7266 184.914 16.1673 184.914 16.711C184.914 17.2547 185.356 17.6955 185.901 17.6955Z" fill="#9CA3AF"/>
<path d="M168.995 20.0226C169.54 20.0226 169.981 19.5819 169.981 19.0382C169.981 18.4945 169.54 18.0537 168.995 18.0537C168.45 18.0537 168.008 18.4945 168.008 19.0382C168.008 19.5819 168.45 20.0226 168.995 20.0226Z" fill="#9CA3AF"/>
<path d="M166.565 27.227C167.11 27.227 167.552 26.7862 167.552 26.2425C167.552 25.6988 167.11 25.2581 166.565 25.2581C166.02 25.2581 165.578 25.6988 165.578 26.2425C165.578 26.7862 166.02 27.227 166.565 27.227Z" fill="#9CA3AF"/>
<path d="M171.418 25.3477C172.235 25.3477 172.898 24.6865 172.898 23.871C172.898 23.0554 172.235 22.3943 171.418 22.3943C170.6 22.3943 169.938 23.0554 169.938 23.871C169.938 24.6865 170.6 25.3477 171.418 25.3477Z" fill="#9CA3AF"/>
</svg>
