<svg width="248" height="58" viewBox="0 0 248 58" fill="none" xmlns="http://www.w3.org/2000/svg">
<path d="M18.4804 8.06665L0.820312 17.9794L14.639 26.5027L18.4804 24.5831V8.06665Z" fill="#9CA3AF"/>
<path d="M20.1406 8.06665V24.5831L23.9128 26.4692L37.7363 17.9436L20.1406 8.06665Z" fill="#9CA3AF"/>
<path d="M24.7891 27.8779V57.8H38.6149V19.3499L24.7891 27.8779Z" fill="#9CA3AF"/>
<path d="M0 19.4287V57.8001H13.8258V27.9544L0 19.4287Z" fill="#9CA3AF"/>
<path d="M46.7341 53.2948L51.509 50.6089V10.8552L32.4737 0.199951L27.5938 2.94076L46.7341 13.6557V53.2948Z" fill="#9CA3AF"/>
<path d="M40.2547 56.8832L45.0296 54.2212V14.6657L25.8511 3.93164L20.9688 6.67006L40.2547 17.4662V56.8832Z" fill="#9CA3AF"/>
<path d="M63.5078 18.3638C64.9689 18.106 67.1463 17.9126 69.5624 17.9126C72.5444 17.9126 74.631 18.3949 76.0635 19.6196C77.2572 20.651 77.9114 22.1671 77.9114 24.163C77.9114 26.9348 76.0921 28.8353 74.3636 29.5133V29.6112C75.7651 30.2224 76.541 31.6739 77.0471 33.6723C77.6726 36.1218 78.3005 38.9581 78.6873 39.7961H74.0341C73.7071 39.1849 73.2296 37.411 72.6327 34.7371C72.0955 32.0297 71.2313 31.2896 69.3834 31.2561H68.0106V39.7961H63.5078V18.3638ZM68.0106 27.7108H69.7988C72.0645 27.7108 73.4062 26.486 73.4062 24.5856C73.4062 22.5873 72.1528 21.5893 70.0662 21.5559C68.9632 21.5559 68.3377 21.6538 68.0082 21.7182V27.7131L68.0106 27.7108Z" fill="#9CA3AF"/>
<path d="M84.5346 33.4788C84.6827 35.5082 86.5329 36.4751 88.6506 36.4751C90.2025 36.4751 91.4535 36.2483 92.6759 35.8305L93.2728 39.1491C91.7806 39.7937 89.9613 40.116 87.9941 40.116C83.0449 40.116 80.2109 37.0218 80.2109 32.0917C80.2109 28.0951 82.5077 23.6807 87.5763 23.6807C92.2891 23.6807 94.0773 27.6439 94.0773 31.545C94.0773 32.383 93.9866 33.1231 93.9293 33.4788H84.5346V33.4788ZM89.873 30.1268C89.873 28.9331 89.3955 26.9348 87.3089 26.9348C85.4013 26.9348 84.6254 28.8042 84.506 30.1268H89.873Z" fill="#9CA3AF"/>
<path d="M96.7631 35.5106C97.5987 36.0573 99.3273 36.702 100.669 36.702C102.011 36.702 102.608 36.1863 102.608 35.3817C102.608 34.5771 102.161 34.188 100.461 33.5768C97.4483 32.4809 96.2856 30.7094 96.3167 28.84C96.3167 25.9082 98.6421 23.6831 102.252 23.6831C103.952 23.6831 105.473 24.1009 106.368 24.5856L105.563 27.9686C104.907 27.5818 103.656 27.0661 102.402 27.0661C101.299 27.0661 100.674 27.5508 100.674 28.3554C100.674 29.0955 101.24 29.4823 103.03 30.1603C105.804 31.1917 106.967 32.7053 106.996 35.026C106.996 37.9601 104.849 40.1184 100.674 40.1184C98.7662 40.1184 97.0663 39.6672 95.9609 39.0226L96.7655 35.5106H96.7631Z" fill="#9CA3AF"/>
<path d="M123.476 34.7371C123.476 36.7998 123.536 38.4758 123.596 39.7961H119.659L119.451 37.5734H119.363C118.797 38.5403 117.424 40.1518 114.8 40.1518C111.847 40.1518 109.672 38.1535 109.672 33.2879V24.0388H114.234V32.5143C114.234 34.8015 114.92 36.1886 116.5 36.1886C117.753 36.1886 118.467 35.2527 118.766 34.4792C118.885 34.1903 118.914 33.8036 118.914 33.4168V24.0388H123.476V34.7394V34.7371Z" fill="#9CA3AF"/>
<path d="M127.112 29.0645C127.112 27.0996 127.052 25.4236 126.992 24.0364H130.81L131.017 26.1637H131.106C131.731 25.1657 133.013 23.6831 135.52 23.6831C137.399 23.6831 138.889 24.7145 139.517 26.3571H139.577C140.114 25.5501 140.77 24.9079 141.455 24.4566C142.26 23.941 143.155 23.6831 144.23 23.6831C147.033 23.6831 149.15 25.8103 149.15 30.516V39.7985H144.736V31.2251C144.736 28.9379 144.051 27.6153 142.59 27.6153C141.546 27.6153 140.801 28.3888 140.503 29.3247C140.383 29.678 140.324 30.1937 140.324 30.5805V39.7985H135.909V30.9673C135.909 28.969 135.253 27.6153 133.823 27.6153C132.66 27.6153 131.975 28.5822 131.705 29.3868C131.557 29.7735 131.526 30.2248 131.526 30.6115V39.7961H127.112V29.0645V29.0645Z" fill="#9CA3AF"/>
<path d="M156.253 33.4788C156.401 35.5082 158.252 36.4751 160.369 36.4751C161.921 36.4751 163.172 36.2483 164.395 35.8305L164.992 39.1491C163.499 39.7937 161.68 40.116 159.713 40.116C154.764 40.116 151.93 37.0218 151.93 32.0917C151.93 28.0951 154.226 23.6807 159.295 23.6807C164.008 23.6807 165.796 27.6439 165.796 31.545C165.796 32.383 165.705 33.1231 165.648 33.4788H156.253V33.4788ZM161.592 30.1268C161.592 28.9331 161.114 26.9348 159.028 26.9348C157.12 26.9348 156.344 28.8042 156.225 30.1268H161.592Z" fill="#9CA3AF"/>
<path d="M191.471 38.7982C190.07 39.3138 187.415 40.0229 184.762 40.0229C181.095 40.0229 178.44 39.0226 176.592 37.0887C174.744 35.2193 173.73 32.383 173.758 29.1934C173.787 21.9737 178.65 17.8481 185.24 17.8481C187.835 17.8481 189.833 18.3949 190.817 18.913L189.862 22.8451C188.759 22.3294 187.386 21.9092 185.18 21.9092C181.394 21.9092 178.531 24.2298 178.531 28.9355C178.531 33.6412 181.126 36.0573 184.853 36.0573C185.896 36.0573 186.732 35.9284 187.09 35.735V31.1917H183.989V27.3574H191.473V38.7982H191.471Z" fill="#9CA3AF"/>
<path d="M203.393 39.7962L203.125 38.2181H203.037C202.082 39.4739 200.592 40.1519 198.861 40.1519C195.908 40.1519 194.148 37.8313 194.148 35.3173C194.148 31.2252 197.548 29.2579 202.708 29.2913V29.0645C202.708 28.2265 202.29 27.0352 200.053 27.0352C198.56 27.0352 196.98 27.5819 196.027 28.2289L195.192 25.0703C196.206 24.4567 198.205 23.6855 200.857 23.6855C205.718 23.6855 207.27 26.7797 207.27 30.4851V35.9643C207.27 37.4779 207.33 38.9295 207.478 39.7986H203.393V39.7962ZM202.856 32.352C200.47 32.321 198.62 32.9322 198.62 34.8326C198.62 36.0884 199.396 36.702 200.408 36.702C201.542 36.702 202.466 35.8974 202.765 34.8971C202.824 34.6392 202.856 34.3504 202.856 34.0591V32.352V32.352Z" fill="#9CA3AF"/>
<path d="M215.683 19.5241V24.0364H218.933V27.6463H215.683V33.3499C215.683 35.2504 216.101 36.1218 217.472 36.1218C218.037 36.1218 218.486 36.0573 218.813 35.9929L218.842 39.6982C218.245 39.9561 217.171 40.116 215.889 40.116C214.428 40.116 213.205 39.5693 212.489 38.7623C211.653 37.8264 211.235 36.3128 211.235 34.09V27.6439H209.297V24.034H211.235V20.6176L215.679 19.5217L215.683 19.5241Z" fill="#9CA3AF"/>
<path d="M224.902 33.4788C225.05 35.5082 226.9 36.4751 229.018 36.4751C230.57 36.4751 231.821 36.2483 233.043 35.8305L233.64 39.1491C232.148 39.7937 230.329 40.116 228.361 40.116C223.412 40.116 220.578 37.0218 220.578 32.0917C220.578 28.0951 222.875 23.6807 227.943 23.6807C232.656 23.6807 234.445 27.6439 234.445 31.545C234.445 32.383 234.354 33.1231 234.296 33.4788H224.902V33.4788ZM230.24 30.1268C230.24 28.9331 229.763 26.9348 227.676 26.9348C225.768 26.9348 224.993 28.8042 224.873 30.1268H230.24Z" fill="#9CA3AF"/>
<path d="M237.123 35.5106C237.958 36.0573 239.687 36.702 241.028 36.702C242.37 36.702 242.967 36.1863 242.967 35.3817C242.967 34.5771 242.521 34.188 240.821 33.5768C237.808 32.4809 236.645 30.7094 236.676 28.84C236.676 25.9082 239.001 23.6831 242.611 23.6831C244.311 23.6831 245.832 24.1009 246.727 24.5856L245.923 27.9686C245.266 27.5818 244.015 27.0661 242.762 27.0661C241.659 27.0661 241.033 27.5508 241.033 28.3554C241.033 29.0955 241.599 29.4823 243.39 30.1603C246.164 31.1917 247.327 32.7053 247.355 35.026C247.355 37.9601 245.209 40.1184 241.033 40.1184C239.126 40.1184 237.426 39.6672 236.32 39.0226L237.125 35.5106H237.123Z" fill="#9CA3AF"/>
</svg>
