<svg width="247" height="60" viewBox="0 0 247 60" fill="none" xmlns="http://www.w3.org/2000/svg">
<path d="M74.0277 41.0309C72.7591 41.0309 71.5429 41.0309 70.2885 41.0309C70.2245 41.6069 70.2654 42.162 70.258 42.7145C70.2507 43.2728 70.2565 43.8315 70.2565 44.3898C70.2565 44.948 70.2565 45.5068 70.2565 46.065C70.2565 46.6233 70.2565 47.182 70.2565 47.7403C70.2565 48.2985 70.2565 48.8573 70.2565 49.4155C70.2565 49.9701 70.2565 50.5252 70.2565 51.063C69.8813 51.1721 67.3766 51.192 66.8776 51.1039C66.8708 51.0965 66.8598 51.0855 66.8514 51.0735C66.843 51.0614 66.833 51.0483 66.8309 51.0346C66.8204 50.9607 66.8047 50.8862 66.8047 50.8117C66.8052 42.9637 66.8068 35.1158 66.8099 27.2679C66.8099 27.2243 66.8299 27.1808 66.8514 27.0916C66.9689 27.079 67.098 27.0538 67.227 27.0538C69.7927 27.0517 72.3588 27.0249 74.9239 27.0643C76.161 27.0832 77.3866 27.2936 78.5178 27.8392C79.755 28.4363 80.7534 29.3025 81.4229 30.5255C81.9014 31.3991 82.1469 32.323 82.2366 33.3178C82.3274 34.3251 82.2324 35.2984 81.947 36.2548C81.5803 37.4836 80.8961 38.5041 79.8993 39.3283C79.2476 39.8677 78.4984 40.2008 77.6993 40.5282C77.7161 40.6274 77.7109 40.7339 77.7513 40.8189C78.3363 42.0429 78.9297 43.2633 79.5163 44.4868C80.5336 46.6075 81.5478 48.7293 82.5619 50.851C82.5934 50.9166 82.6134 50.9874 82.6385 51.0556C82.3264 51.1747 79.8022 51.2156 78.8819 51.116C77.2523 47.7948 75.6568 44.417 74.0277 41.0309ZM70.2874 37.5508C70.4873 37.5508 70.6494 37.5508 70.8115 37.5508C71.9433 37.5508 73.0755 37.5413 74.2072 37.5544C74.8735 37.5623 75.5335 37.5041 76.1789 37.3614C77.4491 37.0812 78.3777 36.3913 78.7009 35.0659C78.8216 34.5696 78.8101 34.0623 78.7786 33.5491C78.7182 32.5607 78.2938 31.7884 77.4958 31.2233C76.7266 30.6787 75.8252 30.5386 74.9202 30.5134C73.5178 30.4741 72.1138 30.5019 70.7103 30.5035C70.5786 30.5035 70.4469 30.5218 70.2874 30.5344C70.2874 32.8639 70.2874 35.1662 70.2874 37.5508Z" fill="#25AD60"/>
<path d="M142.251 47.7004C146.182 47.7004 150.128 47.7004 154.135 47.7004C154.148 48.8662 154.141 49.9727 154.14 51.0651C153.768 51.171 139.231 51.1952 138.723 51.1055C138.615 50.755 138.609 27.5323 138.731 27.0926C138.902 27.08 139.091 27.0543 139.281 27.0538C141.938 27.0512 144.594 27.0522 147.251 27.0522C149.349 27.0522 151.447 27.0522 153.545 27.0522C153.722 27.0522 153.898 27.0522 154.13 27.0522C154.151 28.2196 154.144 29.3261 154.136 30.4735C153.097 30.5339 152.105 30.493 151.115 30.5003C150.134 30.5082 149.153 30.5019 148.172 30.5019C147.175 30.5019 146.179 30.5019 145.183 30.5019C144.205 30.5019 143.227 30.5019 142.264 30.5019C142.154 30.8775 142.137 36.8461 142.242 37.3645C142.749 37.3902 143.274 37.3724 143.797 37.3755C144.34 37.3787 144.883 37.376 145.427 37.376C145.955 37.376 146.483 37.376 147.012 37.376C147.555 37.376 148.098 37.376 148.642 37.376C149.168 37.376 149.693 37.376 150.193 37.376C150.39 37.8215 150.367 40.2139 150.166 40.8262C147.538 40.8262 144.89 40.8262 142.257 40.8262C142.15 41.2523 142.145 47.2439 142.251 47.7004Z" fill="#25AD60"/>
<path d="M105.206 49.8855C105.206 50.3446 105.206 50.7155 105.206 51.1447C104.053 51.161 102.947 51.1578 101.855 51.1468C101.75 50.7811 101.722 27.6885 101.812 27.1355C102.143 27.0264 104.709 27.0143 105.176 27.1334C105.189 27.3045 105.217 27.4934 105.217 27.6822C105.22 30.2625 105.219 32.8428 105.219 35.4231C105.219 35.5879 105.219 35.7521 105.219 35.9772C105.345 35.8969 105.424 35.8476 105.502 35.7951C106.264 35.2794 107.104 34.9609 108.013 34.835C109.654 34.6073 111.256 34.7259 112.797 35.3854C113.456 35.6671 114.038 36.0596 114.572 36.5333C115.956 37.7611 116.686 39.3434 116.971 41.1299C117.134 42.1525 117.151 43.1919 117.023 44.2344C116.913 45.1242 116.728 45.9825 116.378 46.8068C115.737 48.3178 114.709 49.4784 113.26 50.257C112.414 50.7119 111.506 50.949 110.554 51.0807C109.523 51.2234 108.512 51.1547 107.504 50.9527C106.833 50.8178 106.225 50.5104 105.638 50.1652C105.522 50.097 105.413 50.0193 105.206 49.8855ZM105.231 42.982C105.231 43.2207 105.198 43.5717 105.24 43.9127C105.288 44.2978 105.382 44.6814 105.494 45.0544C105.871 46.3183 106.681 47.1599 107.967 47.5098C108.822 47.7428 109.689 47.7643 110.559 47.5943C111.588 47.3928 112.393 46.8524 112.956 45.9694C113.251 45.5072 113.412 44.9894 113.506 44.45C113.732 43.1562 113.721 41.876 113.285 40.621C112.894 39.4914 112.142 38.7375 110.988 38.3812C110.356 38.186 109.712 38.1845 109.066 38.2007C107.178 38.2479 105.865 39.2605 105.402 41.0858C105.252 41.675 105.194 42.269 105.231 42.982Z" fill="#25AD60"/>
<path d="M174.307 34.7706C175.427 34.7706 176.523 34.7706 177.679 34.7706C177.679 35.1762 177.679 35.5581 177.679 36.0146C177.879 35.8834 178.004 35.8037 178.126 35.7208C178.838 35.237 179.635 34.9857 180.475 34.8346C181.255 34.6945 182.043 34.7013 182.819 34.7632C184.256 34.8787 185.59 35.3388 186.739 36.2381C188.193 37.375 189.011 38.8913 189.388 40.6804C189.545 41.4228 189.606 42.1762 189.61 42.9202C189.617 44.6448 189.299 46.3169 188.367 47.8027C187.295 49.5105 185.74 50.5515 183.766 50.9654C182.981 51.1302 182.185 51.2125 181.387 51.1433C180.129 51.0347 178.911 50.7786 177.887 49.9633C177.856 49.9386 177.807 49.936 177.703 49.903C177.687 50.5131 177.697 51.095 177.695 51.6763C177.693 52.265 177.694 52.8537 177.694 53.4423C177.694 54.0158 177.694 54.5893 177.694 55.1627C177.694 55.7514 177.694 56.3401 177.694 56.9287C177.694 57.5143 177.694 58.1003 177.694 58.6696C177.342 58.784 174.919 58.8139 174.333 58.7262C174.318 58.7131 174.306 58.7037 174.296 58.6927C174.286 58.6817 174.273 58.6696 174.272 58.6565C174.26 58.5222 174.242 58.3873 174.242 58.2525C174.243 50.4796 174.246 42.7072 174.251 34.9343C174.251 34.8944 174.278 34.853 174.307 34.7706ZM186.105 42.9669C186.157 42.1248 186.06 41.31 185.755 40.522C185.282 39.3 184.416 38.5282 183.126 38.2969C182.583 38.1993 182.017 38.1904 181.463 38.204C179.819 38.2454 178.57 39.0728 178.038 40.6584C177.543 42.1327 177.546 43.6301 178 45.1023C178.409 46.4239 179.315 47.2749 180.693 47.5719C181.529 47.7518 182.368 47.7671 183.197 47.5404C183.557 47.4418 183.923 47.3274 184.25 47.1527C185.159 46.6679 185.644 45.8515 185.913 44.8866C186.09 44.2565 186.15 43.6143 186.105 42.9669Z" fill="#25AD60"/>
<path d="M215.68 44.4488C211.81 44.4488 207.955 44.4488 204.091 44.4488C204.045 44.8098 204.166 45.068 204.265 45.3324C204.755 46.6482 205.756 47.3361 207.084 47.5963C208.059 47.7873 209.027 47.728 209.99 47.4646C210.994 47.1897 211.795 46.6572 212.327 45.749C212.35 45.7091 212.373 45.6692 212.414 45.5952C213.448 46.0921 214.447 46.5716 215.503 47.079C215.355 47.3639 215.249 47.6089 215.107 47.8303C214.518 48.749 213.724 49.4505 212.786 50.0019C211.863 50.5444 210.867 50.8833 209.817 51.0371C208.94 51.1656 208.058 51.1897 207.163 51.088C206.096 50.9662 205.096 50.6829 204.162 50.164C203.057 49.5496 202.191 48.6782 201.55 47.5947C201.057 46.7589 200.704 45.8602 200.561 44.8922C200.499 44.4614 200.442 44.0275 200.423 43.5936C200.37 42.3843 200.426 41.1818 200.783 40.0144C201.497 37.6765 202.956 36.008 205.269 35.156C206.045 34.87 206.865 34.731 207.705 34.741C208.489 34.7504 209.27 34.7336 210.041 34.9215C211.295 35.2263 212.409 35.7604 213.362 36.6592C214.711 37.9315 215.371 39.517 215.654 41.3066C215.809 42.2836 215.714 43.2626 215.735 44.2411C215.737 44.2836 215.714 44.3266 215.68 44.4488ZM212.05 41.1461C212.067 41.0873 212.088 41.0558 212.082 41.0312C211.768 39.8229 211.1 38.9147 209.892 38.4698C208.962 38.1272 208.01 38.134 207.045 38.2788C206.077 38.4241 205.273 38.8381 204.714 39.6629C204.411 40.1093 204.185 40.5884 204.082 41.1456C206.771 41.1461 209.415 41.1461 212.05 41.1461Z" fill="#25AD60"/>
<path d="M91.4597 34.7545C92.4319 34.6853 93.381 34.84 94.2955 35.1742C96.0074 35.7996 97.3139 36.9014 98.1559 38.5347C98.6953 39.5804 99.0148 40.6843 99.0757 41.8611C99.1014 42.3564 99.1722 42.8538 99.1491 43.3469C99.0773 44.8832 98.7913 46.379 97.9692 47.7053C96.8957 49.4372 95.3595 50.5548 93.3448 50.9682C92.5604 51.1293 91.764 51.2017 90.9644 51.1492C89.4507 51.0501 88.02 50.6865 86.7949 49.7337C85.4543 48.6912 84.5367 47.3653 84.1123 45.71C83.8489 44.6827 83.7098 43.6387 83.7602 42.5809C83.8405 40.8884 84.1946 39.2687 85.1653 37.8353C86.1946 36.3149 87.628 35.3867 89.393 34.9444C90.0693 34.7739 90.7566 34.7068 91.4597 34.7545ZM91.445 38.2052C90.7965 38.1428 90.1365 38.2824 89.5006 38.5368C88.7262 38.8464 88.1632 39.4015 87.786 40.1318C87.3699 40.9366 87.2571 41.8265 87.2188 42.7121C87.1842 43.508 87.2739 44.3066 87.5189 45.072C87.936 46.3743 88.7702 47.2499 90.1385 47.5506C90.8788 47.7132 91.6176 47.7389 92.3757 47.6256C93.881 47.401 94.882 46.5993 95.3626 45.1597C95.8448 43.7158 95.8317 42.2546 95.4067 40.807C95.1302 39.8658 94.5767 39.1024 93.6722 38.6559C92.9875 38.317 92.2571 38.1533 91.445 38.2052Z" fill="#25AD60"/>
<path d="M127.329 34.7467C128.782 34.7031 130.098 34.9733 131.307 35.6611C131.722 35.8972 132.113 36.1905 132.475 36.5043C133.186 37.1213 133.784 37.8385 134.192 38.6974C134.569 39.4917 134.824 40.327 134.94 41.1985C135.013 41.7488 135.114 42.306 135.093 42.8559C135.041 44.2562 134.909 45.645 134.291 46.9446C133.843 47.8864 133.251 48.7111 132.475 49.3974C131.565 50.2022 130.501 50.7169 129.312 50.9661C128.467 51.1435 127.609 51.2117 126.751 51.144C125.174 51.0186 123.718 50.5648 122.47 49.5291C121.255 48.5207 120.486 47.2515 120.061 45.7447C119.716 44.5233 119.642 43.2761 119.728 42.0274C119.849 40.2792 120.368 38.6507 121.51 37.2829C122.316 36.3175 123.313 35.6045 124.513 35.1863C125.449 34.8605 126.406 34.6984 127.329 34.7467ZM127.446 38.1607C127.029 38.2068 126.607 38.2273 126.195 38.3039C125.272 38.4754 124.492 38.9015 123.969 39.7095C123.63 40.2325 123.421 40.8081 123.303 41.4241C123.056 42.721 123.093 44.0033 123.519 45.2536C123.908 46.3979 124.698 47.1781 125.871 47.4965C127.044 47.815 128.226 47.8024 129.368 47.3349C129.902 47.1161 130.356 46.7798 130.709 46.3029C131.517 45.2116 131.659 43.944 131.645 42.6575C131.638 42.0049 131.533 41.3417 131.307 40.711C131.048 39.9849 130.658 39.3548 130.014 38.9067C129.244 38.3695 128.379 38.1669 127.446 38.1607Z" fill="#25AD60"/>
<path d="M230.874 39.2768C229.733 39.4358 228.633 39.4846 227.564 39.5601C227.501 39.4704 227.459 39.4368 227.451 39.3964C227.363 38.9101 227.031 38.6425 226.601 38.4861C226.308 38.3791 226.001 38.2789 225.692 38.2458C224.743 38.1446 223.792 38.1194 222.885 38.4893C222.419 38.6792 222 39.0832 222.079 39.759C222.134 40.2212 222.434 40.4914 222.803 40.6735C223.236 40.8875 223.708 40.994 224.198 41.0003C225.132 41.0119 226.064 41.0607 226.977 41.2695C228.755 41.6771 230.124 42.6247 230.85 44.3461C231.021 44.7527 231.096 45.216 231.132 45.6599C231.191 46.3823 231.154 47.1048 230.882 47.7963C230.547 48.6457 230.024 49.3441 229.284 49.8824C228.321 50.5833 227.235 50.9264 226.061 51.0765C224.68 51.2528 223.32 51.1625 221.997 50.7638C220.618 50.3483 219.529 49.5172 218.849 48.2197C218.574 47.6956 218.45 47.1184 218.376 46.5329C218.37 46.493 218.397 46.449 218.419 46.3687C219.505 46.1835 220.614 46.1845 221.714 46.0623C221.757 46.1499 221.796 46.1997 221.805 46.2543C221.901 46.864 222.305 47.2139 222.846 47.3923C223.285 47.5371 223.747 47.6447 224.206 47.6856C224.942 47.7512 225.686 47.7202 226.4 47.502C226.683 47.4154 226.96 47.2774 227.208 47.1148C227.918 46.6499 227.813 45.3781 227.163 45.0166C226.645 44.7286 226.114 44.5885 225.537 44.536C224.58 44.4489 223.612 44.4951 222.667 44.2706C221.061 43.8891 219.78 43.0759 219.041 41.5481C218.629 40.695 218.536 39.7946 218.691 38.8613C219.039 36.7652 220.39 35.6194 222.32 35.026C223.463 34.6744 224.648 34.6823 225.817 34.7684C226.935 34.8502 228.012 35.1603 228.946 35.8292C229.954 36.5522 230.621 37.504 230.845 38.7401C230.873 38.8859 230.863 39.0381 230.874 39.2768Z" fill="#25AD60"/>
<path d="M246.267 39.3089C245.12 39.4007 244.034 39.4878 243.004 39.5702C242.922 39.4905 242.886 39.4726 242.881 39.4485C242.764 38.8782 242.352 38.5922 241.853 38.4102C241.616 38.3236 241.359 38.2722 241.107 38.247C240.158 38.1515 239.21 38.1248 238.299 38.4847C237.861 38.6583 237.402 39.0702 237.479 39.746C237.532 40.2114 237.828 40.48 238.193 40.6678C238.638 40.896 239.128 40.9789 239.632 41.0041C240.682 41.0571 241.736 41.0718 242.761 41.3619C244.126 41.7481 245.208 42.5162 245.957 43.7214C246.334 44.33 246.551 45.0015 246.547 45.7324C246.544 46.3195 246.562 46.905 246.39 47.4801C246.084 48.5026 245.484 49.3059 244.626 49.9255C243.685 50.6044 242.626 50.9633 241.479 51.0625C240.895 51.1128 240.306 51.1653 239.723 51.1438C238.446 51.0966 237.197 50.8668 236.098 50.1784C234.885 49.4192 234.05 48.3699 233.845 46.9024C233.823 46.7429 233.797 46.5845 233.766 46.3804C234.908 46.1857 236.028 46.1778 237.145 46.0656C237.195 46.1973 237.242 46.2775 237.256 46.363C237.335 46.8683 237.681 47.1343 238.106 47.3394C238.52 47.5393 238.963 47.6238 239.413 47.6647C240.381 47.7529 241.338 47.7225 242.253 47.3363C243.257 46.9124 243.273 45.8379 242.872 45.3079C242.579 44.9218 242.138 44.713 241.67 44.6474C240.971 44.5498 240.266 44.4895 239.561 44.4596C238.508 44.415 237.497 44.2156 236.562 43.7182C235.154 42.969 234.245 41.821 234.059 40.2245C233.851 38.4291 234.463 36.9348 235.961 35.8545C236.788 35.258 237.725 34.9731 238.726 34.8241C239.51 34.7076 240.293 34.7155 241.072 34.7622C242.453 34.8451 243.745 35.2559 244.81 36.1756C245.622 36.8771 246.098 37.7958 246.265 38.8624C246.283 38.9773 246.267 39.0975 246.267 39.3089Z" fill="#25AD60"/>
<path d="M161.531 42.6825C159.68 40.0382 157.869 37.4501 156.009 34.7916C156.521 34.7082 156.966 34.7564 157.406 34.7486C157.874 34.7402 158.342 34.7465 158.81 34.7465C159.261 34.7465 159.712 34.7465 160.182 34.7465C160.762 35.5775 161.329 36.3923 161.899 37.2045C162.466 38.0135 163.037 38.821 163.642 39.6783C164.818 38.0051 165.958 36.3834 167.091 34.7706C168.485 34.7706 169.837 34.7706 171.258 34.7706C170.694 35.7407 170.019 36.5686 169.428 37.4516C168.841 38.3278 168.224 39.183 167.617 40.0461C167.003 40.9202 166.385 41.7922 165.764 42.672C167.691 45.5016 169.685 48.255 171.643 51.1244C170.205 51.1244 168.855 51.1244 167.459 51.1244C166.208 49.3468 164.946 47.5525 163.646 45.7046C162.358 47.5399 161.106 49.3216 159.842 51.1233C158.475 51.1233 157.109 51.1233 155.656 51.1233C156.279 50.116 156.969 49.2319 157.601 48.309C158.248 47.3641 158.912 46.4313 159.569 45.4932C160.215 44.5692 160.86 43.6448 161.531 42.6825Z" fill="#25AD60"/>
<path d="M192.21 34.7769C193.378 34.7769 194.473 34.7769 195.626 34.7769C195.626 35.1867 195.626 35.5712 195.626 36.0508C196.318 35.5954 196.938 35.205 197.655 35.0256C198.368 34.8472 199.086 34.7082 199.816 34.7612C199.918 35.14 199.932 37.673 199.842 38.1515C199.544 38.194 199.236 38.2402 198.927 38.2811C197.197 38.512 196.157 39.6794 195.837 41.3179C195.711 41.9632 195.655 42.6306 195.649 43.2891C195.627 45.7036 195.641 48.1181 195.641 50.5331C195.641 50.712 195.641 50.8904 195.641 51.0541C195.295 51.1716 192.937 51.2057 192.222 51.1087C192.211 50.9318 192.189 50.743 192.189 50.5546C192.187 46.4801 192.188 42.405 192.188 38.3305C192.188 37.3194 192.187 36.3084 192.189 35.2968C192.188 35.1358 192.201 34.9742 192.21 34.7769Z" fill="#25AD60"/>
<path d="M24.6627 47.5366C24.6627 51.2922 24.6627 54.9973 24.6627 58.7471C24.2744 58.6873 23.9219 58.6406 23.5719 58.5776C23.234 58.5173 22.8993 58.4407 22.5121 58.3604C22.5121 58.0388 22.5304 57.7398 22.5084 57.4433C22.4418 56.543 22.1732 55.6857 21.4874 55.0949C20.3594 54.1227 19.1443 53.8798 17.8001 54.7675C17.3174 55.086 16.9333 55.5551 16.5057 55.9564C16.4527 56.0063 16.4087 56.0661 16.342 56.1427C15.2591 55.5981 14.2497 54.9522 13.2528 54.3273C13.3955 53.8709 13.565 53.4506 13.6557 53.0146C13.9139 51.7701 13.3871 50.0786 11.864 49.4863C11.682 49.4154 11.5078 49.3226 11.3231 49.2591C10.747 49.0602 10.1856 49.1699 9.64889 49.396C9.26221 49.5592 8.89914 49.7774 8.5261 49.9721C8.43481 50.0198 8.34404 50.0686 8.22075 50.1347C7.38181 49.2412 6.56333 48.3472 5.92114 47.3068C6.21548 46.8871 6.49618 46.4988 6.7648 46.1016C7.53501 44.961 7.24068 43.2832 6.37026 42.4788C6.13836 42.2648 5.88809 42.0691 5.66406 41.8471C5.41852 41.6042 5.13257 41.5276 4.79784 41.5502C4.25796 41.5864 3.71703 41.61 3.1761 41.6341C2.99666 41.642 2.8167 41.6352 2.59005 41.6352C2.09739 40.5507 1.71071 39.4353 1.34712 38.3125C1.76318 38.0281 2.15458 37.7768 2.52919 37.5019C3.61105 36.7086 4.04914 35.2516 3.53812 33.9446C3.1037 32.8334 2.21491 32.2668 1.11889 31.9635C0.859706 31.8916 0.588455 31.8644 0.258965 31.8051C0.187611 31.4016 0.234831 30.9672 0.225911 30.538C0.216992 30.1004 0.223288 29.6623 0.223813 29.2248C0.224337 28.7924 0.226436 28.3601 0.22801 27.9813C0.737984 27.9404 1.18815 27.9372 1.62519 27.8606C2.13254 27.7714 2.52499 27.4488 2.8676 27.0794C3.39908 26.506 3.71545 25.8102 3.73697 25.0416C3.75848 24.2693 3.63466 23.4986 2.97148 22.9545C2.6231 22.6686 2.27263 22.3847 1.91638 22.1077C1.76318 21.9886 1.59371 21.89 1.41742 21.773C1.42739 21.6581 1.42005 21.5526 1.44681 21.4566C1.71491 20.4901 2.41639 18.5987 2.57116 18.3737C3.05333 18.4293 3.51084 18.5174 3.97044 18.5284C5.37602 18.5625 6.74067 17.6832 7.15201 16.0777C7.35925 15.2687 7.16565 14.4827 6.71549 13.7844C6.4647 13.3951 6.15095 13.0462 5.83667 12.6422C6.57802 11.7524 7.35243 10.8232 8.14572 9.87094C8.25275 9.92865 8.35664 9.98164 8.45737 10.0399C9.22601 10.4858 10.0298 10.7996 10.9422 10.7466C11.4212 10.7188 11.8614 10.6013 12.2392 10.2922C12.3672 10.1873 12.5046 10.0944 12.6311 9.98742C13.8152 8.98636 13.9837 7.45539 13.3777 6.06922C13.3294 5.95904 13.2764 5.85096 13.203 5.69409C14.2124 5.04245 15.2345 4.4265 16.2922 3.88924C16.5456 4.15944 16.766 4.40499 16.9979 4.63899C17.8174 5.46533 18.8232 5.84991 19.9601 5.64792C21.0435 5.45536 21.8563 4.83731 22.2393 3.74391C22.4507 3.14054 22.5179 2.51409 22.6002 1.88817C22.6097 1.81472 22.6202 1.74179 22.6286 1.67883C23.1448 1.42437 25.584 1.01408 26.0415 1.10327C26.2304 1.4889 26.4077 1.88817 26.6171 2.27013C26.8857 2.75964 27.1653 3.25125 27.6827 3.52985C28.6276 4.03929 30.0373 4.20929 31.0982 3.39133C31.7567 2.88346 32.167 2.21871 32.4728 1.47001C32.5348 1.31891 32.5841 1.16256 32.6533 0.969482C33.8538 1.17935 35.0295 1.38502 36.1959 1.58911C36.1959 1.94641 36.2064 2.26068 36.1938 2.57443C36.1492 3.69459 37.135 5.28537 38.4608 5.58286C39.5296 5.82263 40.5679 5.77279 41.3822 4.87876C41.6854 4.54612 41.9913 4.21611 42.3371 3.83992C42.973 4.19459 43.6083 4.54874 44.3072 4.93857C43.4168 5.83312 42.5721 6.66786 41.7437 7.51887C40.9136 8.37092 40.0999 9.23872 39.2688 10.1102C39.3229 10.3657 39.3753 10.6123 39.4294 10.8673C39.3706 10.8862 39.3223 10.9208 39.2914 10.9093C38.3669 10.5672 37.4026 10.5729 36.4377 10.5745C34.2793 10.5771 32.1203 10.564 29.9618 10.5792C28.6879 10.5882 27.5263 10.9455 26.5572 11.8159C26.4229 11.936 26.2713 12.0368 26.0924 12.1726C22.1223 12.8977 18.7576 14.8128 15.9937 17.7829C13.6012 20.3537 12.0933 23.3957 11.4878 26.8459C10.6778 31.463 11.5587 35.7873 14.0744 39.7338C16.5928 43.6803 20.1763 46.2454 24.6627 47.5366Z" fill="#25AD60"/>
<path d="M31.9676 38.2735C32.1554 38.2735 32.3086 38.2945 32.4545 38.2698C33.4639 38.0993 34.4361 38.2808 35.3816 38.6067C36.3475 38.9398 37.1848 39.4818 37.9215 40.2053C38.8533 41.1198 39.485 42.1938 39.7667 43.4561C39.9036 44.0684 39.986 44.7059 39.9892 45.3323C40.0091 49.0307 39.9991 52.7296 39.9991 56.4279C39.9991 56.5916 39.9991 56.7553 39.9991 56.9626C39.5327 57.1179 39.0962 57.2632 38.6208 57.4216C38.5878 57.2879 38.5537 57.195 38.5442 57.0995C38.5322 56.9799 38.5406 56.8582 38.5406 56.7375C38.54 52.9032 38.5495 49.0685 38.5353 45.2342C38.5295 43.677 38.0117 42.2977 36.8795 41.2069C36.0001 40.3601 34.9445 39.8575 33.7053 39.7258C32.1071 39.5563 30.743 40.029 29.5494 41.0741C28.6559 41.8564 28.0856 42.8239 27.8752 43.9913C27.8059 44.3738 27.7771 44.7688 27.7765 45.1576C27.7697 49.4751 27.7723 53.7925 27.7723 58.1105C27.7723 58.3057 27.7723 58.5009 27.7723 58.7312C27.67 58.8325 27.5651 58.9358 27.5084 58.992C27.0546 59.0843 26.7115 58.9998 26.3369 58.8393C26.2844 57.8361 26.3206 56.8282 26.3133 55.8214C26.3064 54.8251 26.3117 53.8287 26.3117 52.8324C26.3117 51.8209 26.3122 50.8093 26.3122 49.7983C26.3122 48.8019 26.3117 47.8056 26.3117 46.8093C26.3117 45.7988 26.3117 44.7888 26.3117 43.7735C26.1863 43.6434 26.0735 43.5233 25.957 43.4068C23.1716 40.6203 20.3887 37.8307 17.5975 35.0494C16.6851 34.1407 16.2817 33.0457 16.3614 31.7766C16.3997 31.1685 16.6112 30.5992 16.9307 30.0767C17.8431 28.585 18.7581 27.0955 19.6705 25.6044C21.2282 23.0593 22.7828 20.512 24.3426 17.9684C25.2167 16.5424 26.0787 15.108 26.9838 13.7019C27.6039 12.7386 28.5478 12.2207 29.6795 12.205C32.3359 12.1672 34.9933 12.1861 37.6502 12.1987C38.4519 12.2024 39.1439 12.5324 39.7326 13.0655C39.9608 13.2722 40.2132 13.3645 40.5107 13.365C40.8858 13.3656 41.2609 13.365 41.6791 13.365C41.5663 12.385 41.2043 11.5009 41.0731 10.5875C41.1235 10.513 41.1508 10.4574 41.1922 10.4154C43.3517 8.22176 45.5123 6.02918 47.6739 3.83713C47.7259 3.78414 47.7883 3.74112 47.8959 3.65088C50.9379 4.51028 54.0051 5.3765 57.1205 6.25689C57.302 7.21755 57.4831 8.17401 57.6756 9.19239C57.439 9.20078 57.2643 9.21232 57.089 9.21232C54.6887 9.21337 52.2883 9.22072 49.888 9.20445C49.4609 9.2013 49.1461 9.32775 48.8513 9.63573C48.1204 10.3986 47.3607 11.1342 46.6141 11.8813C46.5291 11.9663 46.4499 12.0565 46.3617 12.1504C46.3087 12.9579 46.3261 13.7397 46.8093 14.4511C47.049 14.8042 47.0328 15.2287 46.9299 15.6332C46.8707 15.8656 46.7783 16.0917 46.6828 16.3126C46.4079 16.948 46.3318 17.6122 46.3528 18.3756C46.6514 18.6552 46.9877 18.9574 47.3103 19.2738C47.8597 19.8132 48.4079 20.3541 48.941 20.9092C49.1792 21.1568 49.4426 21.2555 49.7846 21.2544C52.2149 21.2455 54.6457 21.2497 57.0764 21.2497C57.2527 21.2497 57.4285 21.2497 57.6578 21.2497C57.4956 22.278 57.3493 23.2371 57.0775 24.2203C54.0082 25.0923 50.9258 25.968 47.846 26.8426C45.5774 24.5378 43.3281 22.2529 41.0673 19.9564C41.1969 19.0209 41.5138 18.1547 41.6849 17.2313C41.1581 17.1253 40.6481 17.0282 40.3103 17.1615C39.7074 17.5545 39.2625 17.8609 38.8013 18.1395C38.5133 18.3137 38.1869 18.3682 37.8454 18.3672C36.1544 18.3614 34.4639 18.363 32.7729 18.3703C32.5547 18.3714 32.3364 18.4212 32.1365 18.4464C29.6973 22.671 27.287 26.8452 24.861 31.0462C24.9922 31.1842 25.1013 31.3038 25.2162 31.4187C26.8369 33.0436 28.4623 34.6633 30.0777 36.2934C30.7126 36.9356 31.3243 37.5988 31.9676 38.2735ZM23.7298 29.946C23.8279 29.8311 23.9077 29.7613 23.9591 29.6742C24.2749 29.1433 24.5876 28.6107 24.8961 28.0751C25.7456 26.5992 26.5887 25.1207 27.4402 23.6458C28.1627 22.3945 28.8946 21.149 29.6197 19.8992C30.1716 18.948 30.7236 17.9968 31.2687 17.0414C31.5615 16.5277 31.8165 16.0099 31.7587 15.3792C31.679 14.5099 30.8222 13.6552 29.9502 13.6547C29.1008 13.6547 28.4633 14.0146 28.0226 14.7696C27.2566 16.0823 26.456 17.3751 25.6606 18.6704C24.8253 20.0314 23.9727 21.3819 23.139 22.7439C22.1395 24.3757 21.1511 26.0142 20.16 27.6506C20.0771 27.7875 20.0068 27.9323 19.9061 28.1202C21.5 28.1249 22.7744 28.6884 23.7298 29.946ZM30.4161 38.7625C30.306 38.6318 30.2451 38.5484 30.1727 38.476C27.4208 35.7199 24.6705 32.9623 21.9097 30.2152C21.724 30.0305 21.4732 29.8914 21.2282 29.7897C20.6327 29.542 20.021 29.5604 19.4234 29.7933C18.9968 29.9597 18.629 30.2099 18.3473 30.5882C17.5089 31.7141 17.7035 33.0804 18.6269 33.9922C20.3242 35.668 22.0026 37.3627 23.6868 39.0516C23.8987 39.2641 24.0913 39.496 24.3012 39.7111C24.6794 40.0983 25.0567 40.487 25.4476 40.8606C25.882 41.2761 26.3306 41.677 26.776 42.0815C26.8054 42.1083 26.8584 42.1083 26.9297 42.1292C27.6915 40.6287 28.8448 39.519 30.4161 38.7625ZM55.9143 7.74693C55.8755 7.42269 55.6924 7.36288 55.4767 7.30254C53.5208 6.7527 51.568 6.19078 49.612 5.64041C49.1524 5.51081 48.685 5.40955 48.2306 5.2978C48.0884 5.43421 47.9756 5.53338 47.8728 5.64146C47.3854 6.15405 46.9074 6.67662 46.4126 7.1824C45.6529 7.95837 44.8822 8.72281 44.1156 9.49249C43.7326 9.87707 43.3523 10.2643 42.9661 10.6462C42.7688 10.8414 42.6697 11.0702 42.7353 11.3419C42.8895 11.9831 43.0563 12.6216 43.2127 13.2386C43.6938 13.4044 44.4666 13.4112 44.8759 13.2491C44.846 12.716 44.815 12.1667 44.7888 11.7055C46.1351 10.3598 47.4132 9.08221 48.7432 7.75271C49.2726 7.75271 49.8749 7.75271 50.4767 7.75271C51.08 7.75271 51.6829 7.75271 52.2862 7.75271C52.8896 7.75271 53.493 7.75376 54.0958 7.75218C54.6934 7.75166 55.2905 7.759 55.9143 7.74693ZM55.8965 22.7203C53.4757 22.7203 51.068 22.7203 48.7841 22.7203C47.4132 21.3473 46.1272 20.0592 44.7825 18.7124C44.826 18.278 44.8785 17.7586 44.9336 17.2103C44.3538 17.2103 43.7919 17.2103 43.2117 17.2103C43.0175 17.9921 42.8302 18.7465 42.6487 19.4769C44.5265 21.3908 46.3717 23.2718 48.2395 25.1752C48.5244 25.1065 48.802 25.0488 49.0748 24.9717C50.5239 24.5635 51.972 24.1521 53.4195 23.7382C54.143 23.5309 54.8655 23.3195 55.5859 23.1007C55.7301 23.0572 55.9384 23.054 55.8965 22.7203ZM33.0284 16.9081C33.4539 16.9081 33.8285 16.9081 34.2026 16.9081C35.3333 16.9076 36.4645 16.895 37.5951 16.9133C37.9655 16.9196 38.284 16.8079 38.5689 16.6101C39.0684 16.2633 39.3055 15.726 39.2263 15.1599C39.0757 14.0844 38.2557 13.6426 37.4403 13.6499C36.008 13.6631 34.5757 13.6531 33.1433 13.6541C33.0101 13.6541 32.8768 13.6651 32.6822 13.6735C33.285 14.714 33.3564 15.7806 33.0284 16.9081ZM40.7599 15.7197C40.9698 15.7197 41.1198 15.7197 41.2693 15.7197C42.2195 15.7197 43.1697 15.7297 44.1198 15.7145C44.5375 15.7082 44.9546 15.651 45.3512 15.6185C45.5858 15.2082 45.58 15.1536 45.2872 14.8556C43.761 14.8556 42.2295 14.8556 40.6334 14.8556C40.677 15.152 40.7142 15.4091 40.7599 15.7197Z" fill="#C59A0D"/>
<path d="M45.4667 54.4201C44.4001 54.9737 43.4257 55.6284 42.3145 56.0734C42.0952 55.8404 41.8859 55.6274 41.6881 55.4039C41.5249 55.2192 41.5391 54.9868 41.5391 54.7585C41.5401 53.0229 41.5401 51.2874 41.5396 49.5523C41.5396 47.9977 41.5433 46.4437 41.5349 44.8891C41.5322 44.4394 41.4934 43.9903 41.4688 43.4856C41.5606 43.3896 41.6786 43.2537 41.8093 43.1325C42.8187 42.1944 43.6981 41.143 44.4609 39.9997C45.5139 38.4215 46.3256 36.7242 46.792 34.8795C47.0055 34.0353 47.1823 33.1796 47.3198 32.3202C47.4872 31.2751 47.4242 30.2158 47.4247 29.1612C47.4247 28.998 47.4247 28.8349 47.4247 28.6423C50.0433 27.8926 52.631 27.1512 55.2543 26.3999C55.631 26.9141 56.0109 27.433 56.6274 27.6591C57.204 27.8705 57.7963 28.0405 58.4196 28.241C58.5051 28.4797 58.5429 31.0448 58.4453 31.8097C58.1966 31.8554 57.9317 31.89 57.6741 31.954C56.312 32.2929 55.3246 33.0505 55.0271 34.4829C54.78 35.6739 55.1441 36.688 56.1053 37.4493C56.4925 37.7557 56.9227 38.0071 57.3713 38.3087C56.9705 39.4126 56.5717 40.5118 56.1588 41.6498C55.9463 41.6288 55.7564 41.6068 55.5665 41.591C54.9358 41.5386 54.3078 41.5018 53.6782 41.6372C52.8666 41.8114 52.3167 42.3041 51.9101 42.9982C51.206 44.1997 51.4437 45.3445 52.1252 46.4526C52.3041 46.7432 52.5512 46.9925 52.7915 47.2915C52.1021 48.2931 51.3681 49.2538 50.5056 50.1231C50.0953 49.9096 49.7139 49.7023 49.3251 49.5103C48.3555 49.0303 47.4279 49.0848 46.4945 49.6588C45.8083 50.0806 45.4001 50.6693 45.165 51.4122C44.8838 52.301 44.9877 53.1641 45.3271 54.0135C45.3775 54.1337 45.4132 54.2601 45.4667 54.4201Z" fill="#25AD60"/>
<path d="M37.3893 45.4111C37.4522 47.6467 35.5729 49.7112 33.1085 49.6755C30.7182 49.6409 28.8708 47.7983 28.875 45.3864C28.8792 43.0753 30.6048 41.1282 33.1778 41.124C35.4926 41.1204 37.4501 43.0008 37.3893 45.4111ZM33.1321 48.1608C34.6096 48.2763 35.9475 46.8738 35.9422 45.4184C35.937 43.9493 34.6773 42.6104 33.1327 42.6083C31.5644 42.6062 30.3456 43.9268 30.3273 45.3791C30.3084 46.8754 31.5361 48.2584 33.1321 48.1608Z" fill="#C59A0D"/>
<path d="M29.6588 14.5414C30.3718 14.5414 30.8303 15.0162 30.8639 15.7203C30.9001 16.4784 30.2516 17.0167 29.6446 17.0099C29.0381 17.0026 28.3859 16.4632 28.3907 15.7287C28.3938 15.1232 28.941 14.4847 29.6588 14.5414ZM29.6315 15.2009C29.1609 15.384 29.0234 15.5849 29.1231 15.9233C29.2165 16.2423 29.3718 16.3042 29.9526 16.2224C30.0313 16.0949 30.1299 15.9359 30.207 15.811C30.1294 15.459 29.9505 15.279 29.6315 15.2009Z" fill="#C59A0D"/>
<path d="M21.3263 32.046C21.1621 33.0082 20.6091 33.2847 19.9637 33.2443C19.2869 33.2018 18.7948 32.6493 18.7969 32.0292C18.799 31.4127 19.3326 30.8209 19.9359 30.7653C20.6652 30.6981 21.1385 31.1341 21.3263 32.046ZM19.5687 31.7349C19.4968 32.0916 19.5482 32.3241 19.7985 32.482C19.9821 32.5979 20.171 32.5932 20.3473 32.472C20.5881 32.3067 20.64 32.0733 20.564 31.7768C20.4894 31.6876 20.4045 31.5853 20.3452 31.5145C20.129 31.5145 19.9826 31.5145 19.8326 31.5145C19.7219 31.6068 19.6196 31.6924 19.5687 31.7349Z" fill="#C59A0D"/>
<path d="M35.2109 15.2472C35.2954 14.3821 35.9339 13.8726 36.6936 14.008C37.2944 14.115 37.702 14.5243 37.7346 15.1922C37.7634 15.7913 37.2351 16.3606 36.5887 16.4477C35.9995 16.5269 35.4397 16.0453 35.2109 15.2472ZM36.4964 14.657C36.1055 14.7834 35.925 15.0038 35.9407 15.3684C36.0709 15.6166 36.2597 15.7619 36.5446 15.7609C37.0053 15.5474 37.031 15.4996 36.9596 14.9004C36.818 14.8259 36.6417 14.7336 36.4964 14.657Z" fill="#C59A0D"/>
</svg>
