<svg width="171" height="60" viewBox="0 0 171 60" fill="none" xmlns="http://www.w3.org/2000/svg">
<path d="M156.121 30.7237C156.127 30.6113 156.131 30.519 156.137 30.402C156.245 30.3925 156.337 30.3773 156.429 30.3773C158.515 30.3773 160.601 30.3395 162.685 30.3925C164.221 30.4313 165.725 30.7242 167.116 31.4225C167.598 31.665 168.047 31.9675 168.46 32.328C169.599 33.3248 170.203 34.6019 170.49 36.0594C170.676 37.0073 170.664 37.9668 170.603 38.9181C170.536 39.9744 170.258 40.9913 169.73 41.9225C169.386 42.5276 168.95 43.0559 168.409 43.5001C167.264 44.4394 165.925 44.9002 164.488 45.1407C163.637 45.2829 162.782 45.3348 161.921 45.3313C160.112 45.3232 158.303 45.3293 156.494 45.3293C156.389 45.3293 156.285 45.3293 156.148 45.3293C156.136 45.2048 156.127 45.1049 156.117 44.9945C156.192 44.9668 156.248 44.9385 156.307 44.9254C156.754 44.8266 157.061 44.5503 157.275 44.1596C157.481 43.783 157.623 43.3837 157.653 42.9526C157.68 42.5719 157.71 42.1908 157.711 41.8096C157.715 39.022 157.718 36.2344 157.71 33.4463C157.708 32.8488 157.609 32.2645 157.337 31.7185C157.108 31.2581 156.783 30.9183 156.272 30.7827C156.232 30.7726 156.194 30.753 156.121 30.7237ZM160.871 30.7736C160.871 35.52 160.871 40.2058 160.871 44.8791C160.91 44.9017 160.928 44.9199 160.946 44.9209C161.828 44.9512 162.709 44.9713 163.569 44.7207C164.469 44.4586 165.188 43.9504 165.712 43.1653C166.107 42.5734 166.371 41.9261 166.52 41.2369C166.642 40.6792 166.736 40.1125 166.798 39.5453C166.861 38.967 166.87 38.3827 166.902 37.8004C166.903 37.7792 166.898 37.758 166.897 37.7368C166.88 37.5362 166.863 37.336 166.849 37.1354C166.826 36.8182 166.803 36.5016 166.788 36.184C166.757 35.5548 166.629 34.9417 166.458 34.3402C166.183 33.3681 165.767 32.4737 164.978 31.7926C164.568 31.4386 164.118 31.1598 163.597 31.0308C163.125 30.9138 162.642 30.8286 162.159 30.7817C161.74 30.7414 161.315 30.7736 160.871 30.7736Z" fill="#149E47"/>
<path d="M135.255 39.027C135.255 39.1606 135.255 39.265 135.255 39.3694C135.255 40.348 135.242 41.3266 135.261 42.3052C135.27 42.759 135.306 43.2157 135.468 43.6509C135.73 44.3552 136.248 44.7424 136.973 44.8684C137.231 44.9133 137.494 44.9335 137.775 44.9678C137.775 45.0762 137.775 45.1755 137.775 45.2708C137.531 45.3434 131.089 45.356 130.744 45.2839C130.744 45.1906 130.744 45.0923 130.744 44.9859C130.823 44.9622 130.882 44.9436 130.942 44.9269C131.31 44.8246 131.576 44.6027 131.754 44.2619C131.979 43.8298 132.11 43.369 132.111 42.887C132.119 39.5362 132.12 36.186 132.112 32.8352C132.111 32.329 131.96 31.8515 131.68 31.423C131.476 31.1089 131.2 30.887 130.83 30.7943C130.759 30.7766 130.69 30.7555 130.594 30.7282C130.604 30.6168 130.613 30.5155 130.625 30.3955C130.716 30.3879 130.797 30.3758 130.879 30.3758C132.996 30.3763 135.113 30.3551 137.229 30.3884C138.3 30.4051 139.367 30.5341 140.397 30.8563C141.082 31.0706 141.715 31.3887 142.235 31.9035C142.711 32.3749 143.012 32.9411 143.136 33.593C143.306 34.4924 143.304 35.3879 142.983 36.2616C142.693 37.0522 142.177 37.6471 141.434 38.0484C140.627 38.4845 139.76 38.7054 138.856 38.8183C138.319 38.8854 137.783 38.9433 137.241 38.9469C136.658 38.9509 136.075 38.9816 135.491 39.0018C135.43 39.0053 135.368 39.0154 135.255 39.027ZM135.274 38.5516C135.761 38.5516 136.207 38.5455 136.652 38.5536C137.07 38.5612 137.475 38.4906 137.878 38.3897C138.492 38.236 138.927 37.8659 139.222 37.3103C139.575 36.6448 139.672 35.9193 139.703 35.1872C139.724 34.6699 139.676 34.1491 139.65 33.6308C139.628 33.2048 139.544 32.7888 139.391 32.39C139.121 31.6872 138.66 31.1815 137.915 30.9637C137.586 30.8674 137.251 30.826 136.911 30.8185C136.382 30.8064 135.853 30.7993 135.323 30.7923C135.308 30.7923 135.292 30.818 135.274 30.8341C135.274 33.3898 135.274 35.9485 135.274 38.5516Z" fill="#149E47"/>
<path d="M53.8712 44.2549C53.8712 42.8598 53.8712 41.5122 53.8712 40.1287C54.0033 40.1126 54.1218 40.0979 54.2554 40.0813C54.3436 40.3097 54.4268 40.5149 54.503 40.7226C54.8382 41.6362 55.2602 42.5094 55.8773 43.2627C56.676 44.2372 57.6702 44.9078 58.9599 45.0717C59.396 45.1271 59.8266 45.17 60.2546 45.0581C61.017 44.8584 61.4752 44.3557 61.6401 43.5949C61.867 42.5488 61.4833 41.6775 60.8218 40.8976C60.3882 40.3863 59.821 40.049 59.2624 39.6976C58.2374 39.0533 57.2089 38.413 56.1975 37.7475C55.6928 37.4152 55.2138 37.0396 54.8014 36.5929C54.3895 36.1467 54.0159 35.6677 53.7956 35.094C53.4175 34.1103 53.5717 33.1796 54.0905 32.2837C54.6406 31.3343 55.4886 30.8009 56.5126 30.4968C57.2825 30.2685 58.067 30.1848 58.8686 30.1802C60.2672 30.1722 61.6416 30.3345 62.9908 30.7015C63.4405 30.8241 63.8832 30.9723 64.3052 31.2108C64.3052 32.3951 64.3052 33.5698 64.3052 34.7693C64.164 34.7693 64.043 34.7693 63.9009 34.7693C63.8283 34.5943 63.7562 34.4189 63.682 34.2444C63.1653 33.0238 62.4266 31.9801 61.2887 31.2582C60.7326 30.9052 60.1235 30.7111 59.4681 30.633C59.0849 30.5871 58.7108 30.5568 58.3312 30.642C57.5467 30.8185 56.9986 31.2647 56.8267 32.0638C56.7108 32.6023 56.7718 33.1423 57.0511 33.6404C57.3687 34.2071 57.7932 34.6699 58.3362 35.0289C59.5326 35.82 60.7255 36.6161 61.9169 37.4147C62.4826 37.7938 63.016 38.2163 63.4859 38.7099C64.0098 39.2605 64.4479 39.87 64.6823 40.6061C65.0085 41.6311 64.8578 42.5936 64.3203 43.5138C63.8393 44.3371 63.1063 44.8281 62.2305 45.1392C61.5141 45.3933 60.78 45.5411 60.0151 45.5219C59.6431 45.5128 59.2705 45.5269 58.8984 45.5169C57.5633 45.4806 56.2585 45.2643 55.0046 44.7964C54.6194 44.6527 54.2589 44.4425 53.8712 44.2549Z" fill="#149E47"/>
<path d="M148.828 44.9496C148.828 45.062 148.828 45.1734 148.828 45.3287C147.367 45.3292 145.927 45.3292 144.462 45.3287C144.462 45.1795 144.462 45.0686 144.462 44.9657C144.475 44.9496 144.48 44.938 144.488 44.934C145.123 44.6325 145.259 44.0587 145.261 43.4431C145.271 40.1987 145.268 36.9538 145.269 33.7094C145.269 33.1135 145.247 32.517 145.274 31.9226C145.299 31.4013 145.031 31.1134 144.599 30.9183C144.494 30.8709 144.387 30.8275 144.266 30.7761C144.266 30.6425 144.266 30.5205 144.266 30.3642C145.492 30.0687 146.714 29.7748 147.984 29.4688C147.996 29.624 148.014 29.7445 148.014 29.865C148.016 31.3756 148.015 32.8861 148.015 34.3966C148.015 35.2688 148.015 36.1411 148.015 37.0133C148.015 37.1187 148.015 37.2245 148.015 37.3455C148.248 37.0763 148.447 36.8066 148.685 36.5767C149.425 35.8617 150.306 35.3999 151.335 35.3102C152.021 35.2507 152.693 35.3848 153.265 35.8174C153.561 36.0417 153.748 36.3589 153.874 36.6982C154.048 37.1666 154.15 37.6551 154.15 38.1608C154.149 39.7354 154.141 41.3099 154.158 42.884C154.162 43.2949 154.225 43.7078 154.295 44.1137C154.361 44.4963 154.558 44.7056 155.024 44.9768C155.027 45.061 155.032 45.1628 155.035 45.242C155.006 45.2728 154.999 45.2808 154.991 45.2879C154.983 45.2949 154.975 45.304 154.966 45.3065C154.936 45.3146 154.904 45.3257 154.874 45.3257C153.533 45.3272 152.193 45.3277 150.852 45.3277C150.8 45.3277 150.747 45.3171 150.655 45.307C150.648 45.1992 150.641 45.0908 150.634 44.9839C150.737 44.9219 150.817 44.8714 150.9 44.8235C151.112 44.7 151.257 44.5135 151.32 44.2836C151.386 44.04 151.451 43.7859 151.452 43.5359C151.464 41.8338 151.466 40.1316 151.457 38.4295C151.453 37.5467 150.907 37.0299 150.023 36.9624C149.163 36.8968 148.566 37.3082 148.126 38.007C148.092 38.061 148.059 38.1144 148.025 38.1669C148.022 38.2349 148.016 38.2984 148.016 38.362C148.016 40.0429 148.012 41.7238 148.024 43.4043C148.026 43.676 148.088 43.9518 148.155 44.217C148.229 44.5059 148.407 44.7293 148.687 44.8588C148.735 44.881 148.776 44.9153 148.828 44.9496Z" fill="#149E47"/>
<path d="M107.82 30.7554C107.82 30.6465 107.82 30.5345 107.82 30.4292C108.026 30.3112 111.187 29.5368 111.561 29.5166C111.581 30.0339 111.568 30.5517 111.57 31.069C111.572 31.6009 111.57 32.1328 111.57 32.6647C111.57 33.186 111.57 33.7073 111.57 34.2282C111.57 34.7601 111.57 35.292 111.57 35.8239C111.57 36.3447 111.57 36.8655 111.57 37.3813C111.835 37.0869 112.079 36.7763 112.363 36.5091C112.987 35.9227 113.725 35.5426 114.566 35.3565C115.114 35.2355 115.645 35.3137 116.167 35.4619C116.884 35.6656 117.297 36.1813 117.524 36.867C117.685 37.3551 117.75 37.8618 117.754 38.3705C117.766 39.9768 117.753 41.5826 117.767 43.1889C117.769 43.5035 117.827 43.8222 117.896 44.1307C117.985 44.526 118.219 44.819 118.627 44.9662C118.627 45.0731 118.627 45.1734 118.627 45.2692C118.391 45.3408 114.68 45.3599 114.263 45.2909C114.255 45.1991 114.246 45.0988 114.238 45.0025C114.276 44.9697 114.297 44.943 114.325 44.9294C114.757 44.7141 114.962 44.345 115.002 43.8832C115.039 43.4612 115.065 43.0367 115.067 42.6132C115.075 41.2625 115.072 39.9113 115.068 38.5606C115.067 38.1814 114.98 37.8174 114.752 37.5094C114.48 37.1413 114.076 37.0112 113.642 36.9659C113.045 36.9028 112.529 37.0763 112.114 37.5215C112.027 37.6147 111.932 37.7004 111.848 37.7962C111.661 38.01 111.561 38.2439 111.564 38.5465C111.578 39.9929 111.566 41.4394 111.574 42.8864C111.575 43.2036 111.598 43.5237 111.648 43.8368C111.726 44.3254 111.892 44.77 112.437 44.9289C112.437 45.0625 112.437 45.1734 112.437 45.2788C112.161 45.3433 108.393 45.3488 108.07 45.2853C108.07 45.1794 108.07 45.069 108.07 44.9536C108.194 44.8694 108.327 44.7988 108.436 44.702C108.653 44.5099 108.744 44.2427 108.797 43.9709C108.846 43.7224 108.873 43.4657 108.873 43.2126C108.878 39.4792 108.878 35.7457 108.875 32.0118C108.875 31.8545 108.849 31.6947 108.814 31.5409C108.764 31.3256 108.64 31.1557 108.436 31.0554C108.238 30.9575 108.038 30.8612 107.82 30.7554Z" fill="#149E47"/>
<path d="M80.0882 36.6891C80.8677 36.9533 81.2514 37.4554 81.1717 38.0489C81.092 38.6413 80.5647 39.1172 79.9712 39.1318C79.282 39.1485 78.8812 38.7507 78.6851 37.8346C78.8298 37.1585 79.2104 36.6114 79.7862 36.2056C80.0791 35.9989 80.3983 35.829 80.7109 35.652C81.1374 35.4105 81.6184 35.347 82.0913 35.3081C82.7493 35.2542 83.4067 35.3157 84.042 35.5179C85.0297 35.832 85.614 36.5303 85.8954 37.5013C86.0849 38.1573 86.1616 38.8303 86.159 39.5135C86.1555 40.5773 86.153 41.6411 86.1626 42.705C86.1646 42.9359 86.2009 43.1708 86.2538 43.3962C86.332 43.73 86.5039 44.0057 86.8795 44.1595C87.0177 44.1595 87.1971 44.1595 87.3913 44.1595C87.4971 44.0657 87.6075 43.9684 87.7371 43.854C87.845 43.8994 87.9564 43.9463 88.0729 43.9952C88.0074 44.3829 87.7996 44.6481 87.5324 44.8629C86.761 45.484 85.8817 45.6771 84.9268 45.4306C84.3505 45.2818 83.8832 44.9566 83.6175 44.3975C83.56 44.276 83.5212 44.1459 83.4592 43.9815C83.3397 44.1439 83.2499 44.2815 83.1451 44.4066C82.6817 44.9597 82.0646 45.2667 81.3814 45.4275C80.6892 45.5909 79.9864 45.5939 79.3128 45.3262C78.5726 45.0323 78.0902 44.5256 77.9621 43.6982C77.8718 43.1139 77.9742 42.5724 78.2182 42.0606C78.4244 41.628 78.8041 41.3407 79.2271 41.1228C79.816 40.8193 80.4447 40.6257 81.0855 40.4669C81.7757 40.296 82.4639 40.1185 83.1526 39.9421C83.2237 39.9239 83.2918 39.8926 83.3543 39.87C83.3709 39.8437 83.3916 39.8261 83.3921 39.8085C83.4052 39.0658 83.4748 38.3186 83.3291 37.584C83.2338 37.1035 83.0558 36.6528 82.7039 36.2797C82.293 35.8436 81.5524 35.6626 80.9478 35.9863C80.7144 36.1113 80.4568 36.1985 80.2828 36.4138C80.2188 36.4925 80.1648 36.5792 80.0882 36.6891ZM83.4082 40.3666C83.314 40.3615 83.2696 40.3474 83.2323 40.3585C82.774 40.4926 82.3152 40.6288 81.9033 40.8793C81.1102 41.3618 80.6428 42.0233 80.728 42.9989C80.7724 43.5101 81.1329 44.0133 81.6113 44.1273C81.998 44.2195 82.3979 44.2331 82.7437 43.9861C83.1335 43.7078 83.436 43.3831 83.4148 42.8406C83.3881 42.1413 83.4082 41.44 83.4082 40.7397C83.4082 40.6257 83.4082 40.5108 83.4082 40.3666Z" fill="#149E47"/>
<path d="M129.579 43.8354C129.706 43.8969 129.817 43.9508 129.933 44.0073C129.836 44.4399 129.555 44.7227 129.242 44.9557C128.531 45.4856 127.722 45.6529 126.86 45.4543C126.064 45.2713 125.509 44.8094 125.325 43.9786C125.303 43.9826 125.274 43.9801 125.268 43.9902C124.82 44.8422 124.051 45.2375 123.162 45.4377C122.555 45.5743 121.939 45.5839 121.337 45.3882C120.562 45.1362 119.949 44.6859 119.829 43.8308C119.648 42.5411 119.953 41.6528 121.24 41.0397C121.934 40.709 122.679 40.528 123.42 40.3394C123.943 40.2058 124.469 40.0797 124.994 39.9482C125.075 39.9275 125.155 39.8967 125.254 39.865C125.262 39.7833 125.278 39.7011 125.278 39.6194C125.281 39.2262 125.299 38.8314 125.274 38.4391C125.242 37.9319 125.185 37.4252 124.972 36.9518C124.826 36.6276 124.633 36.3407 124.351 36.1194C124.005 35.8472 123.621 35.7589 123.186 35.8567C122.836 35.9354 122.521 36.0826 122.239 36.2939C122.119 36.3831 121.963 36.4698 121.989 36.6912C122.058 36.7214 122.13 36.7633 122.207 36.7859C123.099 37.0436 123.265 38.2571 122.584 38.8203C122.201 39.1369 121.774 39.2307 121.308 39.024C120.853 38.8218 120.599 38.4744 120.555 37.9692C120.51 37.4656 120.769 37.0864 121.069 36.7416C121.685 36.0312 122.455 35.5578 123.39 35.3878C123.912 35.2926 124.437 35.2558 124.971 35.3359C125.288 35.3833 125.597 35.4337 125.903 35.529C126.771 35.7998 127.324 36.3952 127.64 37.2216C127.861 37.7993 127.973 38.4044 127.973 39.027C127.973 40.1755 127.966 41.3241 127.981 42.4726C127.984 42.7771 128.046 43.0821 128.098 43.3841C128.12 43.5067 128.179 43.6246 128.235 43.7381C128.476 44.2256 129.218 44.3708 129.579 43.8354ZM125.262 40.358C125.174 40.358 125.131 40.35 125.091 40.3591C124.549 40.4851 124.037 40.6843 123.575 40.9968C123.055 41.3493 122.695 41.8121 122.571 42.4474C122.467 42.9803 122.653 43.856 123.349 44.089C123.535 44.151 123.743 44.1671 123.94 44.1676C124.658 44.1691 125.276 43.5455 125.278 42.8295C125.28 42.1176 125.279 41.4057 125.278 40.6943C125.279 40.59 125.269 40.4866 125.262 40.358Z" fill="#149E47"/>
<path d="M69.5222 40.2787C69.5918 41.0375 69.7703 41.7131 70.159 42.3302C70.5639 42.9725 71.1301 43.3895 71.85 43.6022C72.9305 43.9214 73.9499 43.7611 74.8907 43.1555C75.1252 43.0043 75.3057 42.7693 75.5416 42.5435C75.6299 42.5888 75.7468 42.6493 75.8653 42.7103C75.8623 42.7749 75.8714 42.8203 75.8572 42.8561C75.4297 43.9259 74.686 44.6812 73.6237 45.1334C72.7384 45.5101 71.8112 45.5827 70.8739 45.5065C70.1192 45.445 69.434 45.1385 68.831 44.6842C67.7223 43.8493 67.0442 42.734 66.8092 41.3682C66.6081 40.1985 66.7351 39.0535 67.2625 37.9837C67.8257 36.8407 68.71 36.035 69.9251 35.6075C70.584 35.3755 71.2652 35.2656 71.9569 35.305C72.7081 35.3473 73.4498 35.4461 74.1446 35.792C75.0037 36.22 75.5502 36.8997 75.884 37.7749C76.1401 38.447 76.2006 39.1559 76.2596 39.8642C76.2692 39.9792 76.2611 40.0962 76.2611 40.2525C76.1194 40.262 75.9979 40.2777 75.8764 40.2777C73.8879 40.2792 71.8994 40.2787 69.9115 40.2787C69.7869 40.2787 69.6629 40.2787 69.5222 40.2787ZM73.5794 39.8169C73.6096 39.0223 73.54 38.264 73.3152 37.5289C73.1468 36.9783 72.9184 36.458 72.4656 36.0632C71.9882 35.6473 71.3398 35.6387 70.9143 35.9679C70.6128 36.2009 70.3698 36.4963 70.1888 36.8437C69.7385 37.7089 69.5903 38.6456 69.5031 39.5985C69.497 39.6666 69.5253 39.7377 69.5394 39.8164C70.8931 39.8169 72.2282 39.8169 73.5794 39.8169Z" fill="#149E47"/>
<path d="M106.837 42.5765C106.939 42.642 107.034 42.7031 107.141 42.7721C107.107 42.8861 107.086 42.9899 107.046 43.0857C106.816 43.6323 106.485 44.1042 106.026 44.4879C105.328 45.0717 104.516 45.3994 103.625 45.4997C102.215 45.6586 100.954 45.3268 99.9078 44.3063C99.0819 43.5012 98.549 42.5407 98.3226 41.4209C98.0302 39.9749 98.31 38.6328 99.1853 37.4364C99.995 36.3297 101.106 35.6839 102.441 35.4323C102.907 35.3446 103.389 35.2926 103.862 35.3067C104.813 35.3345 105.716 35.5714 106.463 36.1976C107.098 36.7295 107.206 37.63 106.655 38.2653C106.418 38.5385 106.127 38.719 105.758 38.7634C105.3 38.8184 104.898 38.6979 104.563 38.3822C103.884 37.7414 104.035 36.6494 104.727 36.1926C104.77 36.1644 104.806 36.1265 104.882 36.0625C104.789 35.9985 104.724 35.9319 104.644 35.9012C103.983 35.6481 103.337 35.6788 102.709 36.0151C101.85 36.4754 101.431 37.2529 101.168 38.1448C100.92 38.9852 100.916 39.8509 100.991 40.7055C101.077 41.6861 101.5 42.5331 102.355 43.0812C103.039 43.5193 103.781 43.7573 104.623 43.6156C105.263 43.5082 105.864 43.3328 106.394 42.9562C106.547 42.8462 106.682 42.7101 106.837 42.5765Z" fill="#149E47"/>
<path d="M93.9096 37.063C93.7039 36.9768 93.5577 37.0837 93.415 37.1674C93.0217 37.3983 92.7369 37.7411 92.4777 38.1072C92.4349 38.1677 92.3986 38.2322 92.3577 38.2968C92.3542 38.3714 92.3476 38.4455 92.3481 38.5196C92.3486 40.1572 92.3461 41.7947 92.3557 43.4323C92.3572 43.6627 92.4026 43.8962 92.455 44.122C92.5448 44.5067 92.7787 44.786 93.1594 44.9575C93.1594 45.0669 93.1594 45.1763 93.1594 45.3074C91.6977 45.3074 90.2578 45.3074 88.7891 45.3074C88.7811 45.1939 88.7735 45.0936 88.7664 44.9897C88.835 44.9464 88.8864 44.9106 88.9404 44.8793C89.2671 44.6913 89.4476 44.3958 89.5177 44.0389C89.5666 43.7908 89.5928 43.5342 89.5933 43.2811C89.5999 41.5054 89.5953 39.7291 89.5988 37.9534C89.5999 37.3983 89.3614 36.9995 88.8663 36.7484C88.7538 36.6914 88.6505 36.6158 88.5391 36.5462C88.5391 36.4237 88.5391 36.3113 88.5391 36.1666C89.7935 35.8716 91.0373 35.5863 92.334 35.2999C92.3638 36.0738 92.3376 36.7933 92.3527 37.5975C92.4535 37.4523 92.5125 37.3655 92.5735 37.2798C93.0273 36.6425 93.5481 36.0743 94.2328 35.677C94.5575 35.4885 94.9053 35.3513 95.2764 35.3055C95.9858 35.2182 96.7547 35.6952 96.9931 36.3673C97.2215 37.0111 97.04 37.7744 96.3619 38.2443C95.4574 38.8715 94.0462 38.3517 93.9353 37.1714C93.9318 37.1407 93.9207 37.1104 93.9096 37.063Z" fill="#149E47"/>
<path d="M31.2905 23.9685C31.8441 23.1482 32.3992 22.3243 32.9679 21.4819C31.0485 20.8037 29.1271 20.2723 27.1406 19.7394C28.5145 18.6721 29.9751 17.8734 31.5477 17.2755C33.1212 16.677 34.7396 16.252 36.4362 16.07C36.5658 15.8829 36.6948 15.6898 36.8315 15.5018C37.6039 14.4359 38.3551 13.354 39.1593 12.3128C39.7683 11.5248 40.4313 10.7761 41.0973 10.035C41.7714 9.28474 42.4571 8.54208 43.1796 7.83875C43.8249 7.21054 44.5252 6.6388 45.2044 6.04589C45.9334 5.41012 46.7134 4.8409 47.5165 4.30244C48.418 3.69843 49.3517 3.14887 50.3299 2.681C51.8116 1.97262 53.3519 1.4271 54.9759 1.15182C55.4654 1.06913 55.9706 1.07972 56.4607 0.999557C56.9311 0.922417 57.3909 1.01972 57.8552 1.01569C58.0332 1.01418 58.2112 1.06308 58.4114 1.09233C58.4421 1.17753 58.492 1.26324 58.5021 1.35299C58.5838 2.07094 58.612 2.78788 58.5349 3.51138C58.4628 4.18748 58.3806 4.86056 58.2011 5.5165C58.0277 6.15076 57.8517 6.78603 57.6395 7.40818C57.3329 8.30461 56.9235 9.15869 56.4813 9.99614C55.9898 10.9279 55.4387 11.8238 54.8105 12.6693C54.273 13.3933 53.7169 14.1032 53.1613 14.8136C52.9919 15.0304 52.8044 15.2346 52.6128 15.4337C51.9276 16.1461 51.2575 16.8752 50.5431 17.5573C49.8146 18.2531 49.0603 18.9257 48.2814 19.564C47.3708 20.3101 46.428 21.018 45.4852 21.7239C44.8903 22.169 44.2691 22.5784 43.6611 23.0065C43.5925 23.0549 43.535 23.1189 43.4886 23.1608C43.0666 26.5458 41.9186 29.6173 39.8505 32.4099C39.7875 32.2451 39.7396 32.1437 39.7093 32.0379C39.3735 30.853 39.0499 29.6647 38.7035 28.4829C38.5245 27.8723 38.3082 27.2724 38.0954 26.6275C37.7728 26.7657 37.5237 26.9774 37.255 27.1534C36.9797 27.3339 36.7125 27.5265 36.4397 27.711C36.1675 27.895 35.8927 28.0755 35.6229 28.255C34.5581 27.9177 32.0226 25.423 31.2905 23.9685ZM35.4233 26.1521C35.5317 26.0976 35.6113 26.0659 35.6829 26.021C36.4029 25.5697 37.1264 25.1245 37.8388 24.6622C38.9258 23.9564 40.0118 23.248 41.0852 22.522C42.3255 21.683 43.5698 20.8486 44.7788 19.9658C45.7116 19.2846 46.6025 18.545 47.4923 17.8069C48.1044 17.2992 48.6993 16.7678 49.2706 16.2142C49.9265 15.5784 50.5572 14.9159 51.1794 14.2469C51.6266 13.7654 52.0582 13.2667 52.4671 12.7525C53.1079 11.9463 53.7069 11.1084 54.2438 10.2276C54.753 9.39213 55.2249 8.53603 55.6061 7.63456C56.0659 6.54704 56.434 5.42777 56.6291 4.25958C56.7057 3.80229 56.7521 3.33945 56.8217 2.80654C56.686 2.91493 56.6074 2.96586 56.5439 3.0309C55.892 3.6954 55.2471 4.36697 54.5912 5.02745C53.7759 5.84876 52.9536 6.66351 52.1303 7.47675C52.0128 7.59271 51.8716 7.68397 51.7406 7.78733C51.6785 7.73792 51.6367 7.70565 51.5964 7.67187C50.9712 7.15156 50.2492 6.85409 49.441 6.83493C48.1427 6.80468 47.1117 7.34566 46.3907 8.4241C45.8598 9.21819 45.7 10.101 45.9082 11.0408C46.0342 11.61 46.2677 12.1273 46.6635 12.5649C46.7169 12.6244 46.7492 12.7031 46.8127 12.8095C42.624 16.9987 38.4463 21.1758 34.2622 25.3605C34.3131 25.4155 34.3363 25.4533 34.3696 25.475C34.7154 25.6998 35.0643 25.9222 35.4233 26.1521Z" fill="#149E47"/>
<path d="M8.48319 14.6348C8.35916 14.6867 8.23413 14.7371 8.1106 14.7911C7.29787 15.1465 6.55571 15.6073 5.88213 16.1922C4.82033 17.1138 4.08725 18.2482 3.59416 19.5515C3.25435 20.45 3.0673 21.3812 2.96243 22.3361C2.86915 23.1862 2.86815 24.0392 2.92814 24.8832C3.07335 26.9166 3.5503 28.8869 4.25918 30.7947C4.60303 31.7194 5.00385 32.6244 5.40971 33.5249C6.07826 35.0087 6.88595 36.4209 7.7723 37.7832C8.39093 38.734 9.06955 39.6471 9.73961 40.5632C10.1591 41.1365 10.6048 41.6911 11.0525 42.2426C11.3595 42.6208 11.6943 42.9762 12.0099 43.3478C13.0173 44.5321 14.1255 45.6196 15.2473 46.6915C15.9521 47.3646 16.7013 47.9943 17.4606 48.6074C18.4014 49.3667 19.3553 50.1134 20.337 50.8187C21.13 51.3884 21.9655 51.8997 22.7943 52.4175C23.8955 53.1052 25.046 53.7051 26.2207 54.2562C27.6657 54.9343 29.153 55.5066 30.6978 55.916C31.3739 56.0955 32.0541 56.2679 32.7418 56.3919C33.366 56.5044 34.0012 56.5623 34.634 56.6148C35.1618 56.6586 35.6943 56.6874 36.2237 56.6743C37.656 56.6385 39.0481 56.3954 40.3771 55.8293C41.4585 55.3689 42.4114 54.7281 43.2146 53.8725C43.8902 53.1531 44.4025 52.3242 44.7851 51.4147C44.8098 51.3557 44.832 51.2962 44.8592 51.2382C44.8769 51.2009 44.9011 51.1666 44.9545 51.0779C45.0135 51.3138 44.9339 51.4933 44.9036 51.6617C44.7357 52.596 44.4619 53.502 44.0329 54.35C43.5237 55.3553 42.8395 56.2245 41.9607 56.9445C40.8329 57.8682 39.5477 58.4359 38.133 58.7374C37.4261 58.8881 36.7107 58.9481 35.9907 59.0086C35.359 59.0616 34.7363 59.0091 34.1182 58.9668C33.2863 58.9093 32.46 58.7495 31.6366 58.6002C30.5481 58.4031 29.4908 58.0824 28.4472 57.7184C27.3929 57.3509 26.3649 56.9203 25.3505 56.4539C24.0649 55.8625 22.8296 55.1779 21.6186 54.4503C20.3339 53.6789 19.0967 52.8349 17.9033 51.9274C17.3799 51.5291 16.8541 51.1338 16.3408 50.7224C15.9682 50.424 15.6143 50.1028 15.2538 49.7897C14.7738 49.3717 14.2908 48.9568 13.8189 48.5297C13.5361 48.2736 13.2699 47.9978 12.9996 47.7281C12.4728 47.2027 11.9368 46.686 11.4266 46.145C10.9169 45.605 10.4303 45.0428 9.94078 44.4842C9.53491 44.0214 9.1235 43.5626 8.74285 43.0801C8.13884 42.3137 7.52979 41.5479 6.97418 40.7467C6.25421 39.7086 5.57761 38.6403 4.89646 37.5754C4.63933 37.1736 4.41446 36.7496 4.18758 36.3291C3.91583 35.8234 3.64206 35.3177 3.39501 34.7999C2.5374 33.004 1.79979 31.1633 1.28855 29.2343C1.02134 28.2269 0.833781 27.207 0.679502 26.1795C0.629084 25.8452 0.624042 25.5034 0.603371 25.1651C0.580179 24.7839 0.538332 24.4022 0.548415 24.0216C0.587741 22.5166 0.786388 21.0378 1.38989 19.6418C1.71156 18.8981 2.12196 18.2064 2.64026 17.5761C3.41165 16.6389 4.34993 15.9255 5.44652 15.4208C6.40496 14.9801 7.4108 14.6933 8.48319 14.6348Z" fill="#F36C01"/>
<path d="M40.6344 42.8264C40.711 43.1547 40.7962 43.4814 40.8623 43.8116C41.0372 44.6864 41.1658 45.5687 41.1396 46.4631C41.1129 47.3706 40.9687 48.2615 40.5905 49.0944C40.1418 50.0821 39.445 50.8439 38.4745 51.3536C37.8246 51.695 37.1349 51.8714 36.4134 51.9753C35.7761 52.067 35.1368 52.057 34.5046 52.0136C33.4871 51.9435 32.4904 51.7242 31.5143 51.4237C30.3653 51.0698 29.2485 50.6357 28.1655 50.1103C27.0649 49.5769 25.9829 49.0087 24.961 48.3381C23.9667 47.6862 22.9836 47.0152 22.0231 46.3149C21.3727 45.8404 20.7672 45.304 20.1455 44.7907C19.3918 44.1686 18.6622 43.5192 17.9776 42.8204C17.2939 42.1226 16.5765 41.4561 15.9175 40.7361C15.0584 39.7973 14.2189 38.8379 13.4692 37.8063C12.8203 36.9129 12.1629 36.0246 11.5518 35.1059C11.0698 34.3819 10.6463 33.6191 10.2077 32.8669C9.65507 31.9195 9.19677 30.9248 8.79192 29.9069C8.28824 28.6414 7.86927 27.3512 7.67365 25.9959C7.58138 25.3556 7.48055 24.7138 7.50324 24.0674C7.53853 23.0646 7.6918 22.0795 8.15413 21.1714C8.69612 20.1066 9.52449 19.3413 10.6347 18.8971C11.4101 18.587 12.2193 18.4479 13.0583 18.4302C14.1715 18.407 15.2575 18.5663 16.3355 18.8174C16.4358 18.8406 16.5336 18.8744 16.6259 18.9541C16.5341 18.9541 16.4423 18.9611 16.3516 18.953C15.9614 18.9172 15.5726 18.8557 15.1819 18.8446C14.8441 18.8351 14.5018 18.8578 14.1675 18.9077C13.5801 18.9954 12.9993 19.1098 12.4538 19.3735C11.6173 19.7779 10.9407 20.3491 10.4855 21.1639C10.134 21.7926 9.93943 22.4682 9.85221 23.1861C9.78465 23.7392 9.78162 24.2913 9.81339 24.8403C9.84313 25.3561 9.93136 25.8724 10.0352 26.3801C10.3287 27.813 10.8359 29.1728 11.4479 30.5003C12.2521 32.2447 13.2393 33.8783 14.3636 35.4306C14.9298 36.2126 15.5076 36.9881 16.1187 37.7342C16.6697 38.4068 17.2662 39.0436 17.8571 39.6824C18.3623 40.2284 18.8725 40.7709 19.4084 41.2862C19.9822 41.8372 20.5882 42.355 21.1801 42.887C21.9944 43.618 22.8555 44.2911 23.7408 44.9334C24.7129 45.6388 25.7026 46.3189 26.7543 46.9007C27.4985 47.3121 28.2462 47.7185 29.011 48.0891C30.4116 48.7682 31.8753 49.2774 33.4055 49.5754C34.1239 49.7151 34.8525 49.8093 35.5865 49.7806C36.3963 49.7488 37.1964 49.6309 37.9446 49.3036C39.0805 48.807 39.8746 47.9686 40.3102 46.8064C40.5693 46.1152 40.6833 45.3942 40.6939 44.6556C40.7019 44.0808 40.6687 43.5106 40.5698 42.9444C40.5648 42.9147 40.5749 42.8824 40.5779 42.8512C40.5961 42.8421 40.6152 42.8345 40.6344 42.8264Z" fill="#149E47"/>
<path d="M26.2264 31.6145C26.7039 30.2775 29.6478 25.6521 30.4984 24.8928C31.0595 25.7182 31.5838 26.5672 32.2927 27.2771C32.9966 27.9814 33.834 28.5068 34.6931 29.08C33.7846 29.8207 32.8549 30.4791 31.907 31.1139C30.9556 31.7512 29.977 32.3406 28.9132 32.8221C28.9808 32.7126 29.0478 32.6027 29.1482 32.4399C27.9946 32.9652 26.8829 33.4518 25.7197 33.9035C25.7046 33.5677 25.8665 33.3237 25.9582 33.063C26.0565 32.7827 26.179 32.511 26.295 32.2372C26.4049 31.977 26.5189 31.7184 26.659 31.3952C26.4916 31.4799 26.3842 31.5344 26.2264 31.6145Z" fill="#F36C01"/>
<path d="M20.0687 26.4026C19.9451 26.4621 19.8211 26.5201 19.6981 26.5811C19.2353 26.811 18.9882 27.2018 18.8722 27.6913C18.7084 28.3805 18.8712 29.0415 19.0593 29.6949C19.3321 30.6418 19.7914 31.5044 20.2996 32.3424C20.8411 33.2343 21.4688 34.0631 22.1545 34.8476C22.5805 35.3352 23.0075 35.8237 23.4689 36.2775C24.7147 37.5026 26.0669 38.5972 27.5784 39.4815C28.4244 39.9766 29.3153 40.3739 30.2702 40.6195C30.7628 40.746 31.2645 40.7617 31.7576 40.7042C32.3399 40.6361 32.7856 40.321 33.0326 39.7669C33.074 39.6736 33.1163 39.5804 33.1788 39.4417C33.1935 40.5065 32.5093 41.4892 31.3537 41.7438C30.8395 41.8572 30.3227 41.8381 29.8034 41.7705C28.7658 41.6359 27.8124 41.2487 26.8937 40.7773C25.8425 40.2378 24.8518 39.5955 23.9534 38.8256C23.309 38.2735 22.6632 37.7184 22.0672 37.1159C21.2762 36.3163 20.5522 35.4547 19.9114 34.525C19.4092 33.7969 18.9595 33.0412 18.5793 32.2435C18.2072 31.4636 17.9249 30.6534 17.7888 29.7978C17.7051 29.2719 17.6965 28.7476 17.821 28.2212C18.0499 27.2552 18.6484 26.6673 19.6003 26.4258C19.751 26.3875 19.9073 26.3729 20.0616 26.3472C20.0626 26.3648 20.0656 26.3835 20.0687 26.4026Z" fill="#F36C01"/>
<path d="M27.7884 25.5952C27.4753 26.0681 27.1904 26.4987 26.8914 26.95C26.5753 26.7211 26.2864 26.5108 25.997 26.3016C25.2478 25.7596 24.4739 25.2569 23.6687 24.8021C22.7799 24.2995 21.8663 23.8477 20.9093 23.4893C20.0129 23.1535 19.0983 22.8787 18.1409 22.789C17.6876 22.7466 17.2293 22.7098 16.7761 22.7325C15.7844 22.7824 14.8763 23.0869 14.1478 23.7903C13.7041 24.2183 13.4314 24.7598 13.2569 25.3497C13.2272 25.4495 13.2009 25.5509 13.1289 25.6497C13.1289 25.33 13.0976 25.0058 13.1374 24.6912C13.1808 24.3464 13.2806 24.0076 13.3729 23.6708C13.5191 23.1373 13.812 22.678 14.1836 22.2802C14.5723 21.8638 15.0553 21.5688 15.5923 21.3752C16.4564 21.0637 17.3428 21.0087 18.2559 21.1045C19.9726 21.284 21.5517 21.8749 23.0904 22.6175C24.5021 23.2992 25.8155 24.1386 27.0876 25.0467C27.317 25.211 27.5333 25.3951 27.7884 25.5952Z" fill="#149E47"/>
<path d="M32.6406 32.7096C33.0909 32.4101 33.527 32.1202 33.9853 31.8152C34.1032 31.9609 34.2056 32.0794 34.2989 32.2039C35.1056 33.2854 35.8396 34.4127 36.487 35.5986C37.2493 36.9946 37.8589 38.4457 38.2375 39.9945C38.4594 40.902 38.532 41.8216 38.4573 42.7438C38.3747 43.7637 38.0207 44.6884 37.2544 45.4114C36.8621 45.781 36.4018 46.0467 35.8906 46.209C35.2397 46.4162 34.5701 46.5095 33.8214 46.4616C33.9096 46.4157 33.9449 46.3925 33.9833 46.3784C34.0327 46.3603 34.0851 46.3497 34.1365 46.3356C34.7834 46.1566 35.3647 45.8576 35.8255 45.362C36.2682 44.886 36.5596 44.3244 36.6957 43.6861C36.8046 43.1769 36.8919 42.6616 36.853 42.1413C36.7941 41.3593 36.6725 40.5859 36.4547 39.8281C36.2344 39.0602 35.9435 38.3211 35.6208 37.5921C35.0945 36.4032 34.435 35.2895 33.7095 34.2141C33.4009 33.7568 33.0667 33.3171 32.745 32.8694C32.7152 32.8286 32.689 32.7842 32.6406 32.7096Z" fill="#149E47"/>
<path d="M46.8879 10.2996C46.7986 9.02706 47.9043 7.86241 49.253 7.85938C50.6218 7.85636 51.6892 8.93379 51.6932 10.2759C51.6972 11.5681 50.6173 12.6985 49.2923 12.6995C47.9648 12.701 46.8183 11.5701 46.8879 10.2996Z" fill="#F36C01"/>
</svg>
