<svg width="186" height="60" viewBox="0 0 186 60" fill="none" xmlns="http://www.w3.org/2000/svg">
<path d="M44.6512 34.8392C44.0902 35.5886 43.5647 36.3011 43.0269 37.004C42.4522 37.7548 41.8708 38.4987 41.2825 39.2385C40.9289 39.6821 40.5645 40.1189 40.1891 40.5447C39.5804 41.2381 38.9607 41.9219 38.3424 42.6072C38.1704 42.7969 37.9793 42.9689 37.8059 43.1559C37.7295 43.2391 37.6735 43.3415 37.593 43.4561C37.8291 43.493 38.0325 43.5312 38.2373 43.5558C39.059 43.6568 39.8848 43.7305 40.7024 43.8588C41.9608 44.0554 43.2043 44.3352 44.4341 44.6669C45.9383 45.0723 47.4165 45.5541 48.8456 46.1792C49.4025 46.4235 49.9704 46.646 50.5122 46.919C51.2384 47.2862 51.9686 47.6493 52.6525 48.0942C53.3677 48.5597 54.0829 49.0279 54.7681 49.5356C55.7536 50.2659 56.6777 51.0698 57.5253 51.9611C58.3075 52.7828 59.0063 53.6755 59.6451 54.6064C60.1324 55.3162 60.5296 56.0901 60.9323 56.8545C61.2312 57.4223 61.4741 58.0201 61.7403 58.6043C61.7621 58.6521 61.7703 58.7067 61.8004 58.8145C61.6925 58.7613 61.6338 58.7354 61.5792 58.704C60.5009 58.0884 59.368 57.5861 58.2119 57.1398C56.2559 56.3836 54.2481 55.7844 52.202 55.3312C50.7784 55.0159 49.3384 54.7702 47.8997 54.5313C46.9688 54.3771 46.0284 54.2761 45.0907 54.1765C44.2567 54.0877 43.4172 54.04 42.5819 53.9635C41.3944 53.8543 40.2028 53.8202 39.0112 53.8202C38.4393 53.8202 37.8674 53.7588 37.2954 53.7629C36.2663 53.7697 35.2385 53.8038 34.2093 53.8311C34.0701 53.8352 33.9322 53.8898 33.7944 53.8898C32.7502 53.8912 31.736 53.7192 30.8256 53.1869C30.0216 52.7173 29.4129 52.0417 28.9802 51.2132C28.5202 50.3314 28.2745 49.3909 28.1285 48.4095C27.981 47.42 28.0001 46.4276 28.007 45.4353C28.0111 44.8757 28.0356 44.3133 28.078 43.7551C28.1285 43.104 28.2063 42.4556 28.2759 41.8073C28.3468 41.1467 28.4014 40.4833 28.5038 39.8268C28.6499 38.8931 28.8137 37.9609 29.0007 37.0341C29.4129 34.9907 29.9493 32.9802 30.6304 31.0106C31.0658 29.7507 31.5203 28.4963 32.0909 27.287C32.1059 27.2556 32.1127 27.2215 32.1359 27.1437C31.9558 26.9894 31.7715 26.8161 31.5709 26.6632C30.7328 26.0285 29.9015 25.3829 29.0443 24.7727C28.34 24.2732 27.6029 23.82 26.8823 23.345C26.4141 23.0365 25.9609 22.7035 25.4805 22.4168C24.5468 21.8613 23.6159 21.2976 22.6509 20.7994C20.8656 19.8767 18.9997 19.1614 17.0069 18.8379C15.8289 18.6469 14.6373 18.5499 13.4443 18.6223C12.654 18.6701 11.8678 18.782 11.0802 18.8748C10.7008 18.9198 10.3241 18.9867 9.875 19.0536C9.95826 18.9349 9.99239 18.8693 10.0415 18.8175C10.7827 18.0381 11.6672 17.4484 12.5817 16.8997C13.8593 16.134 15.2215 15.5539 16.637 15.1007C17.9405 14.6844 19.2686 14.3527 20.6281 14.1739C21.4252 14.0688 22.2291 14.0101 23.0235 13.8873C23.7893 13.7685 24.5414 13.8845 25.2866 13.9897C26.2093 14.1193 27.1266 14.3172 28.0343 14.5302C29.3815 14.8468 30.6727 15.3341 31.9489 15.8665C32.8457 16.2404 33.7206 16.6595 34.5724 17.1222C35.8063 17.7938 36.9883 18.5499 38.1567 19.3293C38.9429 19.8535 39.7469 20.3503 40.5331 20.8758C41.535 21.5446 42.5205 22.2367 43.521 22.9069C44.1994 23.3614 44.8927 23.7927 45.5752 24.239C45.9069 24.4561 46.2222 24.7004 46.5594 24.9079C47.7141 25.6204 48.8634 26.3411 50.0372 27.0208C51.0282 27.5941 52.0396 28.1346 53.0592 28.6533C54.2317 29.2484 55.4301 29.7944 56.6927 30.1752C57.6332 30.4578 58.59 30.6639 59.57 30.7785C60.4245 30.8782 61.2776 30.8481 62.1293 30.8249C62.6971 30.8085 63.2677 30.7089 63.8259 30.5929C64.5234 30.4482 65.2086 30.2489 65.8993 30.0742C65.9512 30.0605 66.0058 30.0578 66.089 30.0988C65.9198 30.2708 65.7628 30.4591 65.5772 30.6134C64.9411 31.1443 64.3105 31.6848 63.6485 32.1817C63.078 32.6089 62.4787 33.0006 61.8686 33.3678C61.279 33.7227 60.6729 34.0571 60.0505 34.3479C59.3325 34.6836 58.6009 34.9976 57.8529 35.2555C57.0804 35.5217 56.2901 35.7456 55.4929 35.9244C54.7327 36.095 53.9642 36.2506 53.1753 36.2615C52.5324 36.2711 51.8908 36.3188 51.2493 36.3229C50.4535 36.3284 49.6646 36.2274 48.8852 36.0759C48.1058 35.9244 47.3305 35.7428 46.5662 35.5313C46.0611 35.392 45.5793 35.175 45.0866 34.9935C44.9473 34.9416 44.8054 34.8938 44.6512 34.8392Z" fill="url(#paint0_linear_1098_55657)"/>
<path d="M41.5156 11.4592C41.5593 9.97004 41.891 8.55868 42.4847 7.20465C43.1126 5.77555 43.9957 4.52253 45.145 3.46606C46.4909 2.22942 48.036 1.35722 49.8568 1.06239C50.4506 0.965475 51.0539 0.935446 51.6695 1.01325C52.4489 1.11152 53.1832 1.3149 53.8711 1.67661C54.9454 2.2417 55.7493 3.07978 56.3431 4.13761C56.8317 5.00982 57.0992 5.95163 57.2207 6.92893C57.3163 7.70286 57.2876 8.48361 57.188 9.26436C57.0351 10.4737 56.6679 11.6175 56.1342 12.7027C55.8626 13.2555 55.5282 13.7851 55.1665 14.286C54.7993 14.7951 54.3939 15.2865 53.9517 15.7315C53.2146 16.4713 52.3833 17.0964 51.447 17.5714C50.5843 18.0082 49.6767 18.2812 48.7171 18.4177C47.3467 18.6115 46.0623 18.3467 44.8447 17.738C44.5144 17.5728 44.221 17.3244 43.937 17.0828C42.6867 16.0236 41.9783 14.6545 41.6999 13.0562C41.6098 12.5293 41.5757 11.9915 41.5156 11.4592Z" fill="#FF5200"/>
<path d="M0.963955 43.5205C1.20828 43.799 1.45807 44.0733 1.6942 44.3586C2.03817 44.7735 2.43673 45.1271 2.83393 45.4901C3.32805 45.9406 3.83171 46.3733 4.38179 46.7459C4.97008 47.1458 5.59386 47.4911 6.20399 47.8597C6.96973 48.3224 7.80098 48.6445 8.64725 48.9148C9.33518 49.1345 10.0422 49.3065 10.7506 49.4567C12.1115 49.7447 13.4955 49.7037 14.8741 49.6628C15.4652 49.645 16.0562 49.5331 16.6431 49.4389C17.8129 49.2506 18.9512 48.938 20.0623 48.5326C20.7653 48.276 21.4546 47.9839 22.1398 47.6822C22.7895 47.3956 23.4242 47.0735 24.0875 46.7568C24.1026 46.81 24.1353 46.8646 24.1285 46.9124C24.0316 47.5526 24.0753 48.19 24.1244 48.8329C24.1735 49.4771 24.2759 50.1077 24.4206 50.7329C24.5721 51.3853 24.7987 52.0119 25.1099 52.6056C25.8292 53.9733 26.8584 55.0202 28.2848 55.6494C28.4745 55.7327 28.6724 55.7996 28.9317 55.8992C28.6369 56.0698 28.4062 56.2214 28.1605 56.3428C27.1641 56.8369 26.1404 57.2683 25.084 57.6177C23.7954 58.0436 22.4865 58.3984 21.142 58.6032C20.3708 58.7206 19.5928 58.8052 18.8161 58.8912C17.8866 58.9936 16.953 59.0523 16.018 59.0209C15.3191 58.9977 14.6216 58.9376 13.9351 58.782C12.9277 58.5527 11.9586 58.2237 11.0072 57.8183C10.1405 57.4498 9.34064 56.968 8.56126 56.4561C7.98798 56.0794 7.48158 55.603 6.94925 55.1662C6.74178 54.9956 6.52885 54.8264 6.35004 54.6285C5.84092 54.0647 5.33179 53.5024 4.85542 52.9114C4.48279 52.4486 4.11972 51.9668 3.82352 51.4536C3.38674 50.6947 2.97589 49.9167 2.62237 49.1168C2.22517 48.22 1.88257 47.2973 1.56044 46.3705C1.37753 45.8437 1.27653 45.2868 1.14959 44.7408C1.05677 44.3449 0.981699 43.9464 0.898438 43.5478C0.920277 43.5383 0.942116 43.5301 0.963955 43.5205Z" fill="#FF5200"/>
<path d="M91.9777 32.4835C91.8112 32.7851 91.5956 32.9953 91.3362 33.1564C90.9923 33.3721 90.6183 33.3598 90.2538 33.2342C89.6587 33.0281 89.08 32.7742 88.4807 32.5831C87.5089 32.2705 86.5139 32.0576 85.4833 32.1163C84.865 32.1518 84.2521 32.2323 83.7062 32.5763C82.8176 33.1373 82.8367 34.3275 83.5437 34.9581C84.0501 35.4099 84.5825 35.8317 85.1817 36.1565C86.1248 36.667 87.0844 37.1461 88.0249 37.6621C88.5763 37.9651 89.1264 38.2804 89.6355 38.6489C90.1733 39.038 90.7029 39.4556 91.1615 39.932C91.9846 40.7865 92.5756 41.7842 92.7912 42.9772C92.9509 43.8671 92.8104 44.7189 92.5101 45.5556C92.1224 46.6325 91.4632 47.5143 90.5391 48.1817C89.7638 48.7414 88.8984 49.1249 87.9621 49.3324C87.5294 49.4279 87.0926 49.5044 86.6558 49.5849C86.5534 49.604 86.447 49.604 86.3419 49.6122C86.0634 49.634 85.7836 49.6573 85.5052 49.6736C85.3536 49.6818 85.1994 49.6886 85.0493 49.6764C84.6084 49.6381 84.1648 49.6095 83.728 49.5385C82.3207 49.3106 81.0199 48.8069 79.8802 47.9415C79.5772 47.7108 79.3247 47.4119 79.0599 47.1348C78.9821 47.0543 78.9398 46.941 78.8906 46.8591C79.2005 46.0838 80.0181 45.7494 80.7169 46.0552C81.0814 46.2149 81.4499 46.3636 81.8225 46.5001C82.5569 46.7704 83.2967 47.0338 84.0883 47.0761C84.6603 47.1062 85.2322 47.1539 85.8027 47.1376C86.5971 47.1157 87.3492 46.911 88.0167 46.4524C88.8766 45.8613 89.1714 44.8363 88.9366 44.0582C88.8739 43.8494 88.7892 43.6269 88.65 43.4631C88.3347 43.0891 88.018 42.6974 87.6317 42.4066C87.1021 42.0094 86.5139 41.686 85.9379 41.3529C84.6534 40.609 83.3417 39.9102 82.0791 39.1321C81.3748 38.6981 80.7797 38.1125 80.2788 37.4355C79.8475 36.8527 79.5117 36.233 79.3629 35.5218C79.1117 34.3248 79.326 33.2001 79.9403 32.1518C80.7278 30.8073 81.9754 30.1385 83.44 29.7918C84.3177 29.5843 85.2103 29.6007 86.0948 29.6608C87.2113 29.7358 88.2801 30.0539 89.282 30.5575C89.8239 30.8305 90.3589 31.1267 90.868 31.457C91.2803 31.7259 91.6788 32.0371 91.9777 32.4835Z" fill="#F14A15"/>
<path d="M146.205 29.9623C145.994 32.0479 146.122 34.0953 146.088 36.14C146.085 36.2751 146.104 36.4103 146.114 36.5713C146.246 36.5413 146.335 36.5249 146.424 36.5017C147.024 36.342 147.636 36.2642 148.258 36.2465C149.234 36.2178 150.196 36.2902 151.144 36.5318C152.017 36.7542 152.773 37.1856 153.385 37.838C153.968 38.4618 154.359 39.2057 154.585 40.0328C154.787 40.7699 154.864 41.5247 154.867 42.285C154.873 44.1236 154.866 45.9622 154.873 47.8021C154.874 48.1516 154.916 48.501 154.934 48.8504C154.942 49.0115 154.935 49.1739 154.935 49.3241C154.878 49.3554 154.847 49.3882 154.818 49.3855C154.074 49.3213 153.33 49.2695 152.65 48.8955C151.937 48.5037 151.535 47.9018 151.427 47.1197C151.358 46.6133 151.363 46.0946 151.351 45.5814C151.339 45.09 151.355 44.5972 151.346 44.1059C151.328 43.2296 151.332 42.3505 151.269 41.477C151.213 40.6976 150.977 39.9578 150.454 39.3517C150.299 39.1702 150.091 38.9996 149.871 38.9122C149.007 38.5642 148.146 38.5423 147.316 39.0419C146.957 39.2576 146.759 39.6097 146.586 39.9564C146.373 40.3823 146.228 40.8423 146.219 41.335C146.211 41.8018 146.16 42.2673 146.159 42.7341C146.151 44.3147 146.149 45.8967 146.159 47.4773C146.163 48.0942 146.205 48.7112 146.231 49.3459C146.168 49.3623 146.101 49.3991 146.039 49.3923C145.333 49.309 144.618 49.2736 143.973 48.9105C143.453 48.617 143.074 48.2198 142.879 47.6438C142.719 47.1729 142.645 46.687 142.643 46.1983C142.629 44.4648 142.589 42.73 142.649 40.9979C142.748 38.212 142.659 35.4261 142.708 32.6403C142.722 31.8937 142.936 31.2112 143.52 30.6952C143.984 30.2858 144.548 30.0974 145.143 29.9991C145.407 29.9554 145.677 29.9431 145.944 29.9268C146.02 29.9213 146.1 29.9472 146.205 29.9623Z" fill="#F14A15"/>
<path d="M179.063 49.6844C177.518 49.6912 176.267 49.193 175.151 48.2963C174.164 47.5032 173.479 46.5027 173.049 45.3289C172.845 44.772 172.718 44.185 172.707 43.5817C172.703 43.3729 172.643 43.164 172.649 42.9552C172.698 41.3036 173.088 39.7612 174.153 38.4509C175.113 37.2716 176.336 36.5331 177.853 36.3134C178.923 36.1591 179.979 36.2124 180.997 36.5918C181.727 36.8634 182.377 37.2757 182.951 37.8053C183.577 38.3826 184.099 39.0378 184.472 39.8049C184.795 40.471 185.038 41.1685 185.144 41.9015C185.333 43.235 185.161 44.5304 184.681 45.7888C184.371 46.601 183.886 47.2985 183.291 47.9182C182.553 48.6866 181.644 49.1821 180.62 49.4633C180.077 49.6121 179.524 49.7035 179.063 49.6844ZM181.709 43.0398C181.709 42.7436 181.713 42.5457 181.709 42.3464C181.687 41.3883 181.423 40.5079 180.877 39.7148C180.424 39.0556 179.36 38.5191 178.401 38.7703C177.657 38.9655 177.129 39.4173 176.745 40.0697C176.235 40.9378 176.157 41.9042 176.101 42.8733C176.086 43.1272 176.149 43.3838 176.158 43.639C176.192 44.6232 176.452 45.524 177.075 46.3062C177.765 47.1702 179.046 47.5305 180.13 46.8562C180.862 46.4003 181.258 45.6919 181.5 44.8852C181.692 44.2519 181.743 43.6022 181.709 43.0398Z" fill="#F14A15"/>
<path d="M98.1479 44.0661C98.1752 44.2504 98.1957 44.3842 98.2162 44.5179C98.3308 45.27 98.6598 45.9225 99.1935 46.4562C99.5688 46.8329 100.011 47.0909 100.569 47.1577C101.237 47.2383 101.87 47.1072 102.499 46.9421C102.928 46.8302 103.346 46.6718 103.765 46.5244C104.107 46.4029 104.459 46.4152 104.806 46.4575C105.263 46.5148 105.521 46.8725 105.796 47.1919C105.848 47.2519 105.879 47.3284 105.925 47.4075C105.407 47.989 104.813 48.4503 104.148 48.8298C103.436 49.2366 102.67 49.4863 101.866 49.5901C100.029 49.8262 98.3691 49.429 96.9495 48.1719C96.0527 47.3789 95.3935 46.4316 94.999 45.3096C94.6537 44.3255 94.565 43.2977 94.6441 42.2644C94.7137 41.3622 94.9171 40.4831 95.3239 39.6683C96.0541 38.2078 97.1529 37.154 98.7103 36.5848C99.6139 36.2545 100.543 36.1713 101.476 36.2668C102.7 36.3924 103.859 36.7678 104.827 37.569C105.509 38.1354 105.987 38.8507 106.16 39.7392C106.294 40.4272 106.29 41.1097 106.048 41.7785C105.848 42.3354 105.482 42.7667 105.026 43.1257C104.173 43.7986 103.171 44.1125 102.117 44.249C101.506 44.3282 100.879 44.3528 100.264 44.3241C99.6494 44.2954 99.0392 44.1712 98.4264 44.0893C98.3568 44.0811 98.2872 44.0784 98.1479 44.0661ZM98.1711 41.6775C98.279 41.7239 98.3759 41.7894 98.4824 41.8085C98.9178 41.8877 99.3559 41.9559 99.7927 42.0228C100.673 42.1552 101.506 42.016 102.31 41.6283C102.925 41.3321 103.116 40.7998 103.127 40.191C103.138 39.6109 102.815 39.1946 102.311 38.9367C101.436 38.4876 100.568 38.59 99.7231 39.0281C99.4665 39.1619 99.2358 39.3298 99.0474 39.5714C98.5711 40.1774 98.3008 40.8599 98.1711 41.6775Z" fill="#F14A15"/>
<path d="M116.26 41.6394C116.184 41.2736 116.144 40.9747 116.059 40.688C115.907 40.1816 115.724 39.6862 115.312 39.319C115.022 39.0596 114.705 38.8645 114.316 38.7621C113.498 38.5464 112.719 38.702 111.939 38.9341C111.514 39.0596 111.092 39.2084 110.661 39.3067C110.282 39.3927 109.898 39.3859 109.518 39.263C109.091 39.1252 108.875 38.7921 108.65 38.4004C108.836 38.2079 108.991 38.0209 109.173 37.864C110.048 37.1064 111.047 36.5864 112.187 36.3721C112.7 36.2752 113.227 36.1892 113.747 36.1933C114.79 36.2028 115.772 36.4772 116.684 37.0027C117.889 37.6961 118.644 38.7416 119.108 40.0247C119.511 41.1344 119.579 42.2877 119.514 43.448C119.47 44.2301 119.305 44.9999 119.039 45.7397C118.804 46.3949 118.443 46.9845 117.994 47.5155C117.22 48.4341 116.253 49.0647 115.102 49.4032C114.519 49.5752 113.919 49.6953 113.309 49.6735C112.139 49.6298 111.017 49.3868 109.993 48.7822C109.401 48.4314 109.002 47.9154 108.645 47.3422C108.276 46.7511 108.175 46.0932 108.145 45.4312C108.099 44.3952 108.426 43.4643 109.163 42.7204C109.603 42.2782 110.135 41.9547 110.729 41.7459C111.359 41.5247 112 41.3446 112.671 41.305C112.974 41.2872 113.276 41.2477 113.577 41.2422C114.377 41.2272 115.158 41.3678 115.932 41.5561C116.011 41.5766 116.089 41.5971 116.26 41.6394ZM116.178 43.7018C115.614 43.624 115.06 43.5544 114.508 43.4712C113.741 43.3565 112.992 43.4548 112.264 43.6909C111.931 43.7987 111.638 44.0021 111.424 44.2956C111.104 44.731 110.983 45.2019 111.084 45.7452C111.183 46.2789 111.451 46.672 111.92 46.9299C112.455 47.2234 113.038 47.2616 113.627 47.1934C114.143 47.1347 114.628 46.9873 115.049 46.6542C115.587 46.227 115.866 45.6442 116.059 45.0149C116.183 44.615 116.276 44.2014 116.178 43.7018Z" fill="#F14A15"/>
<path d="M140.787 47.4075C140.537 47.6573 140.342 47.8948 140.106 48.0791C139.382 48.6428 138.601 49.1123 137.71 49.3662C137.249 49.4972 136.779 49.5682 136.303 49.6269C135.843 49.6829 135.391 49.6556 134.946 49.5969C134.487 49.5368 134.023 49.4235 133.592 49.2556C132.825 48.9567 132.123 48.5199 131.532 47.9439C130.902 47.3297 130.393 46.6186 130.035 45.8023C129.765 45.1854 129.565 44.5452 129.516 43.8832C129.467 43.2226 129.501 42.5524 129.548 41.889C129.624 40.8162 130.046 39.8511 130.589 38.9435C130.907 38.4111 131.337 37.9552 131.818 37.5662C132.545 36.9779 133.375 36.5807 134.291 36.3733C135.074 36.1958 135.866 36.2108 136.659 36.3009C137.867 36.4388 138.925 36.9302 139.886 37.6522C140.127 37.8338 140.353 38.0399 140.578 38.2432C140.645 38.3033 140.682 38.3947 140.724 38.4575C140.559 39.1277 139.636 39.6314 139.018 39.4567C138.492 39.3079 137.976 39.1264 137.452 38.9708C136.892 38.8042 136.323 38.6363 135.736 38.6527C134.737 38.6814 134.021 39.2001 133.536 40.0504C133.121 40.7766 132.93 41.5642 132.938 42.4009C132.942 42.8226 132.927 43.2444 132.942 43.6648C132.978 44.6244 133.252 45.5048 133.851 46.2678C134.236 46.7578 134.748 47.0308 135.358 47.1413C136.058 47.2683 136.727 47.1045 137.391 46.927C137.808 46.8165 138.214 46.6636 138.622 46.5189C138.964 46.3974 139.319 46.4002 139.663 46.4561C140.193 46.5476 140.479 46.9543 140.787 47.4075Z" fill="#F14A15"/>
<path d="M128.956 36.562C129.289 37.5052 128.98 38.3228 128.354 38.735C128.114 38.8933 127.782 38.9152 127.491 38.9957C127.165 39.0858 126.822 39.1336 126.515 39.2687C125.825 39.5703 125.438 40.1559 125.246 40.8561C125.141 41.2342 125.081 41.6369 125.078 42.03C125.062 44.1033 125.068 46.1753 125.073 48.2487C125.073 48.5039 125.114 48.7592 125.13 49.0158C125.137 49.1195 125.131 49.2233 125.131 49.3202C125.085 49.3488 125.055 49.383 125.026 49.3816C124.142 49.3461 123.269 49.2355 122.526 48.7114C122.161 48.4548 121.892 48.0876 121.756 47.6481C121.63 47.2454 121.544 46.836 121.547 46.4087C121.554 45.0383 121.548 43.6679 121.55 42.2975C121.551 41.4731 121.666 40.665 121.947 39.8897C122.303 38.907 122.897 38.1044 123.758 37.4956C124.426 37.0247 125.186 36.8268 125.968 36.678C126.917 36.4965 127.876 36.5224 128.834 36.5361C128.869 36.5361 128.903 36.5497 128.956 36.562Z" fill="#F14A15"/>
<path d="M171.584 36.4966C171.928 37.3019 171.698 38.1987 171.09 38.6914C170.808 38.918 170.459 38.918 170.133 38.9985C169.805 39.0804 169.471 39.1528 169.157 39.2715C168.498 39.5213 168.19 40.0919 167.948 40.7006C167.795 41.0842 167.754 41.4896 167.725 41.9004C167.595 43.795 167.684 45.6922 167.67 47.5868C167.666 48.1082 167.756 48.631 167.803 49.1537C167.808 49.2097 167.814 49.267 167.822 49.3448C167.732 49.3639 167.653 49.4008 167.579 49.3912C166.952 49.3189 166.318 49.2766 165.731 49.0227C164.93 48.6774 164.448 48.0632 164.285 47.2087C164.236 46.9466 164.212 46.6764 164.21 46.4088C164.203 45.0616 164.214 43.7144 164.203 42.3672C164.197 41.5291 164.289 40.7006 164.582 39.9199C165.035 38.7105 165.781 37.7428 166.989 37.1681C167.724 36.8187 168.496 36.6686 169.289 36.603C170.058 36.5416 170.828 36.5307 171.584 36.4966Z" fill="#F14A15"/>
<path d="M162.796 46.8807C162.829 46.9858 162.88 47.0745 162.876 47.1591C162.846 47.8607 162.707 48.5323 162.225 49.0783C162.023 49.3076 161.765 49.4796 161.461 49.5533C160.5 49.7894 159.579 49.7225 158.736 49.1588C158.141 48.7602 157.746 48.2074 157.544 47.5209C157.437 47.1605 157.389 46.7947 157.391 46.4139C157.4 44.0839 157.395 41.7539 157.399 39.424C157.4 38.9026 157.518 38.4071 157.747 37.9348C157.961 37.4953 158.296 37.1827 158.721 36.9602C159.27 36.6736 159.858 36.5439 160.474 36.5289C160.624 36.5248 160.774 36.5289 160.955 36.5289C160.935 36.8633 160.919 37.1964 160.897 37.5281C160.886 37.6905 160.852 37.8529 160.852 38.014C160.849 40.6128 160.848 43.2131 160.854 45.8119C160.854 46.044 160.889 46.2774 160.934 46.5053C161.047 47.0691 161.769 47.3284 162.183 47.1687C162.378 47.0964 162.561 46.994 162.796 46.8807Z" fill="#F14A15"/>
<path d="M159.008 33.4455C158.056 33.466 157.263 32.7617 157.274 31.682C157.286 30.5177 158.146 29.726 159.191 29.7137C160.145 29.7028 160.907 30.4931 160.915 31.4663C160.925 32.5924 159.923 33.5056 159.008 33.4455Z" fill="#F14A15"/>
<defs>
<linearGradient id="paint0_linear_1098_55657" x1="37.982" y1="13.8372" x2="37.982" y2="58.8145" gradientUnits="userSpaceOnUse">
<stop stop-color="#FF5200"/>
<stop offset="1" stop-color="#F3AD66"/>
</linearGradient>
</defs>
</svg>
