<svg width="338" height="60" viewBox="0 0 338 60" fill="none" xmlns="http://www.w3.org/2000/svg">
<path d="M68.1415 21.9365H60.1798C59.2544 21.9365 58.7969 21.4586 58.7969 20.4926C58.7969 19.5266 59.2544 19.0487 60.1798 19.0487H78.7063C79.6317 19.0487 80.0892 19.5266 80.0892 20.4926C80.0892 21.4586 79.6317 21.9365 78.7063 21.9365H70.8158V46.2895C70.8158 47.2758 70.3684 47.774 69.4736 47.774C68.5787 47.774 68.1415 47.2758 68.1415 46.2895V21.9365ZM86.2309 23.9396C84.6955 25.5564 83.821 27.6205 83.6176 30.1321C83.4143 32.3183 83.4143 34.5146 83.6176 36.7008C84.0447 41.49 86.2614 44.3067 90.2778 45.1506C90.9998 45.293 91.3658 45.7505 91.3658 46.5132C91.3658 47.408 90.9388 47.8554 90.0948 47.8554C89.9931 47.8554 89.8813 47.8554 89.7389 47.835C89.6271 47.8249 89.505 47.8045 89.3627 47.774C87.024 47.2148 85.0818 45.9539 83.5464 43.9914C81.9805 41.9781 81.0959 39.5581 80.9129 36.7415C80.7502 34.5248 80.7502 32.3081 80.9129 30.0914C81.1264 26.8579 82.2652 24.1633 84.3396 21.9975C86.4444 19.791 89.0068 18.6928 92.0064 18.6928C95.0061 18.6928 97.5888 19.791 99.6936 21.9975C101.758 24.1633 102.907 26.8579 103.12 30.0914C103.283 32.3081 103.283 34.5248 103.12 36.7415C102.937 39.5581 102.053 41.9781 100.487 43.9914C98.9514 45.9539 97.0194 47.2148 94.6705 47.774C94.5282 47.8045 94.4061 47.8249 94.2943 47.835L93.9384 47.8554C93.0944 47.8554 92.6674 47.408 92.6674 46.5132C92.6674 45.7505 93.0334 45.293 93.7554 45.1506C97.7718 44.3067 99.9885 41.49 100.416 36.7008C100.599 34.5146 100.599 32.3183 100.416 30.1321C100.202 27.6205 99.3276 25.5564 97.782 23.9396C96.2263 22.3025 94.3045 21.4789 92.0268 21.4789C89.7491 21.4789 87.8374 22.3025 86.2715 23.9396H86.2309ZM116.756 33.9554C118.851 33.9554 120.417 33.3961 121.454 32.2776C122.389 31.2608 122.857 29.8169 122.857 27.9357C122.857 23.8888 120.894 21.8653 116.97 21.8653H109.598V46.2996C109.598 47.286 109.15 47.7842 108.265 47.7842C107.381 47.7842 106.923 47.286 106.923 46.2996V21.5907C106.923 19.8926 107.727 19.0487 109.333 19.0487H117.071C119.481 19.0487 121.474 19.8215 123.07 21.367C124.758 23.0143 125.592 25.1801 125.592 27.8747C125.592 30.5693 124.758 32.8267 123.101 34.4434C121.494 35.989 119.369 36.7618 116.746 36.7618H111.997C111.062 36.7618 110.594 36.2636 110.594 35.2772C110.594 34.3824 111.062 33.935 111.997 33.935H116.746L116.756 33.9554ZM154.856 31.8099C155.202 32.7148 154.948 33.3554 154.094 33.7113C153.25 34.057 152.66 33.7825 152.335 32.8877L148.43 22.2924C148.267 21.7941 147.922 21.5501 147.403 21.5501C146.885 21.5501 146.529 21.7941 146.356 22.2924L141.648 35.0434H152.965C155.029 35.0434 156.412 35.9483 157.094 37.7481L160.083 45.8014C160.419 46.6962 160.164 47.3266 159.32 47.6825C158.476 48.0282 157.876 47.7537 157.541 46.8589L154.572 38.826C154.348 38.1854 153.921 37.86 153.301 37.86H140.58L137.255 46.8487C136.93 47.7435 136.34 48.0181 135.496 47.6723C134.632 47.3165 134.378 46.686 134.733 45.7912L143.844 21.2654C144.505 19.5469 145.695 18.6826 147.413 18.6826C149.132 18.6826 150.321 19.5469 150.962 21.2654L154.867 31.7997L154.856 31.8099ZM161.873 20.5332C161.873 19.5469 162.32 19.0487 163.215 19.0487C164.11 19.0487 164.547 19.5469 164.547 20.5332V46.2895C164.547 47.2758 164.099 47.774 163.215 47.774C162.33 47.774 161.873 47.2758 161.873 46.2895V20.5332ZM181.853 46.2895C181.853 47.2758 181.355 47.774 180.359 47.774C179.362 47.774 178.843 47.2758 178.843 46.2895V21.5907C178.843 19.8926 179.748 19.0487 181.558 19.0487H191.361C194.045 19.0487 196.18 19.791 197.767 21.2755C199.21 22.6381 199.943 24.3463 199.943 26.4003C199.943 28.2205 199.546 29.6847 198.743 30.8032C198.051 31.7488 197.095 32.4301 195.855 32.847V32.8877C199.16 33.6198 200.807 35.8568 200.807 39.5987C200.807 42.4154 199.922 44.5202 198.153 45.9234C196.618 47.1538 194.523 47.7639 191.869 47.7639H184.619C183.592 47.7639 183.084 47.286 183.084 46.32C183.084 45.354 183.592 44.9371 184.619 44.9371H191.452C195.621 44.9371 197.716 43.1576 197.716 39.5886C197.716 36.0195 195.804 34.3417 191.981 34.3417H181.863V46.2793L181.853 46.2895ZM191.279 31.4946C195.021 31.4946 196.882 29.888 196.882 26.685C196.882 23.482 195.011 21.8551 191.279 21.8551H181.853V31.4845H191.279V31.4946ZM223.33 42.8933C224.346 42.8933 224.845 43.3712 224.845 44.3372C224.845 44.7642 224.672 45.1201 224.316 45.3947C222.12 47.2249 219.445 48.1401 216.283 48.1401C212.795 48.1401 209.928 47.0521 207.681 44.8761C205.393 42.6594 204.244 39.8021 204.244 36.3042V20.5434C204.244 19.5571 204.752 19.0588 205.759 19.0588C206.765 19.0588 207.254 19.5571 207.254 20.5434V36.1619C207.254 38.948 208.108 41.1952 209.826 42.8933C211.504 44.5405 213.649 45.354 216.273 45.354C218.662 45.354 220.676 44.6625 222.323 43.2695C222.587 43.0153 222.923 42.8831 223.309 42.8831L223.33 42.8933ZM225.841 42.4967C224.824 42.4967 224.326 42.0188 224.326 41.0528C224.326 40.8698 224.357 40.6969 224.407 40.5342C225.007 39.253 225.312 37.799 225.312 36.172V20.5536C225.312 19.5673 225.821 19.069 226.827 19.069C227.834 19.069 228.343 19.5673 228.343 20.5536V36.3144C228.343 38.2464 227.966 40.0156 227.224 41.6019C226.97 42.2018 226.502 42.5069 225.831 42.5069L225.841 42.4967ZM233.732 20.5536C233.732 19.5673 234.24 19.069 235.247 19.069C236.253 19.069 236.742 19.5673 236.742 20.5536V46.3098C236.742 47.2961 236.243 47.7944 235.247 47.7944C234.25 47.7944 233.732 47.2961 233.732 46.3098V20.5332V20.5536ZM252.879 19.069C257.058 19.069 260.322 20.218 262.681 22.5161C264.897 24.6616 266.097 27.5697 266.26 31.2303C266.341 32.6945 266.341 34.1689 266.26 35.6535C266.067 39.314 264.867 42.212 262.681 44.3473C260.322 46.6454 257.048 47.7944 252.879 47.7944H248.262C247.235 47.7944 246.727 47.3165 246.727 46.3505C246.727 45.3845 247.235 44.9269 248.262 44.9269H252.838C256.183 44.9269 258.735 44.0829 260.515 42.3848C262.162 40.8088 263.077 38.5717 263.26 35.6535C263.342 34.1689 263.342 32.6945 263.26 31.2303C263.077 28.3221 262.162 26.0749 260.515 24.4989C258.746 22.8008 256.183 21.9568 252.838 21.9568H245.588V46.3098C245.588 47.2961 245.09 47.7944 244.093 47.7944C243.097 47.7944 242.578 47.2961 242.578 46.3098V21.5907C242.578 19.8926 243.483 19.0487 245.293 19.0487H252.879V19.069ZM270.663 20.5536C270.663 19.5673 271.171 19.069 272.178 19.069C273.185 19.069 273.673 19.5673 273.673 20.5536V44.9269H288.284C289.311 44.9269 289.82 45.4048 289.82 46.3505C289.82 47.2961 289.311 47.7944 288.284 47.7944H273.378C271.568 47.7944 270.663 46.9504 270.663 45.2523V20.5332V20.5536ZM291.538 21.6111C291.538 19.913 292.443 19.069 294.253 19.069H309.495C310.533 19.069 311.051 19.5469 311.051 20.5129C311.051 21.4789 310.533 21.9568 309.495 21.9568H294.548V29.9084C294.548 30.8947 294.05 31.393 293.053 31.393C292.057 31.393 291.538 30.8947 291.538 29.9084V21.6212V21.6111ZM291.538 35.9687C291.538 34.8502 291.965 33.8842 292.799 33.0809C293.633 32.2776 294.65 31.8912 295.809 31.9014H309.15C310.177 31.9014 310.685 32.3691 310.685 33.3046C310.685 34.2401 310.177 34.7485 309.15 34.7485H295.85C294.975 34.7485 294.538 35.1552 294.538 35.9687V44.9167H309.567C310.604 44.9167 311.122 45.3947 311.122 46.3403C311.122 47.286 310.604 47.7842 309.567 47.7842H294.243C292.433 47.7842 291.528 46.9402 291.528 45.2421V35.9687H291.538ZM332.13 35.4094C331.937 35.5213 331.683 35.5721 331.388 35.5721C330.371 35.5721 329.873 35.1044 329.873 34.1689C329.873 33.5791 330.147 33.1622 330.696 32.908C332.76 31.8505 333.798 30.1321 333.798 27.7425C333.798 23.8278 331.581 21.8755 327.158 21.8755H318.474V33.4266H324.229C326.283 33.4266 327.961 34.2096 329.263 35.7653L337.377 45.4353C338.038 46.2183 337.967 46.8996 337.163 47.4588C336.391 48.1401 335.679 48.0791 335.018 47.2758L326.822 37.5244C326.487 37.1279 326.161 36.833 325.856 36.6398C325.388 36.3449 324.85 36.2025 324.229 36.2025H318.474V46.2996C318.474 47.286 317.976 47.7842 316.979 47.7842C315.983 47.7842 315.464 47.286 315.464 46.2996V21.5907C315.464 19.8926 316.369 19.0487 318.179 19.0487H327.29C330.035 19.0487 332.283 19.8011 334.062 21.2959C335.974 22.8821 336.929 25.0378 336.929 27.7629C336.929 31.2709 335.333 33.813 332.14 35.3891L332.13 35.4094Z" fill="#06A6FF"/>
<path d="M30.1433 57.383C30.1433 58.288 29.4112 59.0201 28.5062 59.0201H20.9817C20.0767 59.0201 19.3446 58.288 19.3446 57.383C19.3446 56.4781 20.0767 55.7459 20.9817 55.7459H28.5062C29.4112 55.7459 30.1433 56.4781 30.1433 57.383V57.383ZM31.2211 51.5566H18.2464C17.3414 51.5566 16.6093 52.2887 16.6093 53.1937C16.6093 54.0987 17.3414 54.8308 18.2464 54.8308H31.2211C32.1261 54.8308 32.8582 54.0987 32.8582 53.1937C32.8582 52.2887 32.1261 51.5566 31.2211 51.5566ZM47.8869 33.7825C48.1208 34.1587 48.253 34.6061 48.253 35.0739C48.253 36.4669 47.1243 37.5854 45.7414 37.5854C44.3585 37.5854 43.2298 36.4567 43.2298 35.0739C43.2298 33.813 44.1552 32.7758 45.355 32.5928C46.1278 30.3253 46.5244 27.9561 46.5244 25.536C46.5244 13.5273 36.7527 3.75559 24.7439 3.75559C12.7352 3.75559 2.95333 13.5375 2.95333 25.5462C2.95333 28.3831 3.48208 31.1184 4.53958 33.7113C5.0785 33.7825 5.56658 34.0367 5.9428 34.4027L9.34917 31.82C9.07463 31.3319 8.90177 30.7727 8.90177 30.1727C8.90177 28.3425 10.3863 26.8681 12.2166 26.8681C12.4912 26.8681 12.7657 26.9087 13.0199 26.9697L16.955 16.9235C16.1009 16.4252 15.5213 15.5101 15.5213 14.4526C15.5213 12.8765 16.8025 11.5953 18.3786 11.5953C19.9547 11.5953 21.2359 12.8765 21.2359 14.4526C21.2359 15.3067 20.8597 16.0694 20.2699 16.5879L22.5272 20.0655C23.361 19.6079 24.3169 19.3435 25.3337 19.3435C28.5469 19.3435 31.1499 21.9466 31.1499 25.1598C31.1499 28.373 28.5469 30.976 25.3337 30.976C24.7134 30.976 24.1135 30.8744 23.5542 30.7015L19.5886 40.5444L32.421 33.6096C32.2074 33.1724 32.0956 32.6945 32.0956 32.1861C32.0956 30.5896 33.2243 29.2576 34.7292 28.9526L33.7428 16.6795C32.8175 16.5473 32.0956 15.7541 32.0956 14.7882C32.0956 14.4933 32.1668 14.2187 32.2786 13.9645L25.2625 9.03292C25.0897 9.14477 24.8761 9.21595 24.6524 9.21595C24.0322 9.21595 23.5339 8.7177 23.5339 8.09744C23.5339 7.47717 24.0322 6.97893 24.6524 6.97893C25.2727 6.97893 25.7709 7.47717 25.7709 8.09744C25.7709 8.18895 25.7608 8.2703 25.7404 8.35164L32.7972 13.3036C33.1226 13.0392 33.5496 12.8664 34.0072 12.8664C35.0647 12.8664 35.9189 13.7205 35.9189 14.7882C35.9189 15.6525 35.3494 16.3744 34.5766 16.6184L35.563 28.8915C35.9595 28.9119 36.3358 28.9932 36.6815 29.1356L40.5251 21.8144C40.3421 21.6111 40.22 21.3467 40.22 21.0518C40.22 20.4315 40.7183 19.9333 41.3385 19.9333C41.9588 19.9333 42.457 20.4315 42.457 21.0518C42.457 21.6721 41.9588 22.1703 41.3385 22.1703C41.3182 22.1703 41.308 22.1703 41.2877 22.1703L37.4136 29.5627C38.2067 30.1626 38.7151 31.1184 38.7151 32.1861C38.7151 33.0605 38.3694 33.8537 37.8203 34.4434L40.9725 38.2464C41.308 38.0837 41.6741 37.9921 42.0605 37.9921C43.4535 37.9921 44.5721 39.1208 44.5721 40.5037C44.5721 41.8866 43.4434 43.0153 42.0605 43.0153H42.0503C37.4644 47.5605 31.2618 50.1331 24.7541 50.1331C18.2464 50.1331 12.5522 47.7944 7.99679 43.5339C7.88494 43.5542 7.76292 43.5644 7.65107 43.5644C6.25802 43.5644 5.13951 42.4357 5.13951 41.0528C5.13951 39.6699 6.26819 38.5412 7.65107 38.5412C9.03396 38.5412 10.1626 39.6597 10.1626 41.0528C10.1626 41.2663 10.1321 41.4697 10.0813 41.6629C14.0978 45.3336 19.2531 47.347 24.7541 47.347C30.2551 47.347 35.685 45.2014 39.7116 41.3985C39.6099 41.124 39.5489 40.8189 39.5489 40.5139C39.5489 39.8224 39.8336 39.192 40.2912 38.7344L37.1797 34.9722C36.6611 35.2976 36.0612 35.4908 35.4104 35.4908C34.3936 35.4908 33.4886 35.0332 32.8887 34.3112L19.8835 41.3375C19.8835 41.3375 19.8937 41.4189 19.8937 41.4595C19.8937 42.0798 19.3954 42.578 18.7752 42.578C18.1549 42.578 17.6566 42.0798 17.6566 41.4595C17.6566 41.2053 17.7482 40.9714 17.8905 40.7783L13.508 33.2232C13.1114 33.3859 12.6844 33.4876 12.2268 33.4876C11.3015 33.4876 10.4677 33.1114 9.86775 32.5013L6.45122 35.1044C6.61391 35.4399 6.71559 35.8161 6.71559 36.2229C6.71559 37.6159 5.59708 38.7344 4.20403 38.7344C2.81098 38.7344 1.69247 37.6057 1.69247 36.2229C1.69247 35.7551 1.82465 35.3281 2.03819 34.9518C0.807827 31.9827 0.187563 28.8407 0.187563 25.5767C0.157058 11.9919 11.1795 0.969482 24.7338 0.969482C38.2881 0.969482 49.3105 11.9919 49.3105 25.5462C49.3105 28.3831 48.8224 31.1489 47.8869 33.7926V33.7825ZM13.7927 27.2646C14.8197 27.8239 15.5111 28.9119 15.5111 30.1727C15.5111 31.2404 15.0027 32.1962 14.2096 32.7962L18.5921 40.3512C18.5921 40.3512 18.6938 40.341 18.7447 40.341L22.7611 30.3761C20.8291 29.4305 19.4971 27.4477 19.4971 25.1496C19.4971 23.2583 20.4122 21.5806 21.8053 20.5129L19.5479 17.0353C19.1921 17.198 18.7853 17.2997 18.3583 17.2997C18.1346 17.2997 17.921 17.2692 17.7177 17.2285L13.7825 27.2748L13.7927 27.2646Z" fill="url(#paint0_linear_1098_55653)"/>
<defs>
<linearGradient id="paint0_linear_1098_55653" x1="24.749" y1="0.969482" x2="24.749" y2="59.0201" gradientUnits="userSpaceOnUse">
<stop stop-color="#A2DEFF"/>
<stop offset="1" stop-color="#00A4FF"/>
</linearGradient>
</defs>
</svg>
